<?xml version="1.0" encoding="UTF-8"?>
<svg width="85px" height="90px" viewBox="0 0 85 90" version="1.1" xmlns="http://www.w3.org/2000/svg" xmlns:xlink="http://www.w3.org/1999/xlink">
    <!-- Generator: Sketch 46.2 (44496) - http://www.bohemiancoding.com/sketch -->
    <title>icono_sonrrisa</title>
    <desc>Created with Sketch.</desc>
    <defs></defs>
    <g id="Visual-Conócenos-1280" stroke="none" stroke-width="1" fill="none" fill-rule="evenodd">
        <g id="Conócenos-1280-3" transform="translate(-925.000000, -3986.000000)" fill="#646464">
            <g id="Group-10" transform="translate(159.000000, 3701.000000)">
                <g id="Group-9" transform="translate(93.000000, 254.000000)">
                    <path d="M742.477,73.19 L738.477,73.19 C738.477,86.031 728.03,96.477 715.19,96.477 C702.35,96.477 691.903,86.031 691.903,73.19 L687.903,73.19 C687.903,88.236 700.144,100.477 715.19,100.477 C730.236,100.477 742.477,88.236 742.477,73.19 L742.477,73.19 Z M730.436,52.188 C723.798,52.188 718.396,57.589 718.396,64.228 L722.396,64.228 C722.396,59.794 726.003,56.188 730.436,56.188 C734.87,56.188 738.477,59.794 738.477,64.228 L742.477,64.228 C742.477,57.589 737.076,52.188 730.436,52.188 L730.436,52.188 Z M699.943,52.188 C693.305,52.188 687.903,57.589 687.903,64.228 L691.903,64.228 C691.903,59.794 695.51,56.188 699.943,56.188 C704.376,56.188 707.983,59.794 707.983,64.228 L711.983,64.228 C711.983,57.589 706.582,52.188 699.943,52.188 L699.943,52.188 Z M730.363,120.597 L726.363,120.597 L726.363,109.704 L727.706,109.237 C743.063,103.904 753.38,89.418 753.38,73.19 C753.38,52.131 736.248,35 715.19,35 C694.132,35 677,52.131 677,73.19 C677,89.418 687.317,103.904 702.673,109.236 L704.017,109.703 L704.017,120.597 L700.017,120.597 L700.017,112.523 C683.799,106.269 673,90.641 673,73.19 C673,49.926 691.926,31 715.19,31 C738.454,31 757.38,49.926 757.38,73.19 C757.38,90.642 746.583,106.27 730.363,112.524 L730.363,120.597 Z" id="icono_sonrrisa"></path>
                </g>
            </g>
        </g>
    </g>
</svg>