<?xml version="1.0" encoding="UTF-8"?>
<svg width="89px" height="90px" viewBox="0 0 89 90" version="1.1" xmlns="http://www.w3.org/2000/svg" xmlns:xlink="http://www.w3.org/1999/xlink">
    <!-- Generator: Sketch 46.2 (44496) - http://www.bohemiancoding.com/sketch -->
    <title>icono_corazon</title>
    <desc>Created with Sketch.</desc>
    <defs></defs>
    <g id="Visual-Conócenos-1280" stroke="none" stroke-width="1" fill="none" fill-rule="evenodd">
        <g id="Conócenos-1280-3" transform="translate(-268.000000, -3987.000000)" fill="#646464">
            <g id="Group-10" transform="translate(159.000000, 3701.000000)">
                <g id="Group-9" transform="translate(93.000000, 254.000000)">
                    <g id="icono_corazon" transform="translate(16.000000, 32.000000)">
                        <path d="M50.9853,79.4485 C48.8903,81.2085 46.9653,82.8245 45.2853,84.3025 L44.4883,83.4055 L43.6913,84.3025 C42.0103,82.8245 40.0853,81.2085 37.9903,79.4485 C24.4553,68.0815 4.0003,50.9015 4.0003,33.0685 C4.0003,17.2255 15.5093,4.1865 29.6583,4.0025 L29.9683,4.0005 C34.3023,4.0005 38.6093,5.2155 42.4223,7.5145 L44.4883,8.7605 L46.5533,7.5145 C50.3673,5.2155 54.6733,4.0005 59.0063,4.0005 L59.3183,4.0025 C73.4653,4.1865 84.9753,17.2255 84.9753,33.0685 C84.9753,50.9015 64.5213,68.0815 50.9853,79.4485 M59.3703,0.0025 C59.2493,0.0015 59.1283,0.0005 59.0063,0.0005 C53.7523,0.0005 48.8013,1.4885 44.4883,4.0895 C40.1743,1.4885 35.2233,0.0005 29.9683,0.0005 C29.8473,0.0005 29.7273,0.0015 29.6053,0.0025 C13.0463,0.2185 0.0003,15.0635 0.0003,33.0685 C0.0003,57.6525 33.4323,79.6325 43.9753,90.0005 C44.1493,89.8205 44.3173,89.6195 44.4883,89.4275 C44.6583,89.6195 44.8273,89.8205 45.0003,90.0005 C55.5433,79.6325 88.9753,57.6525 88.9753,33.0685 C88.9753,15.0635 75.9303,0.2185 59.3703,0.0025" id="Fill-1"></path>
                        <path d="M11.8545,34.1321 L15.8545,34.1321 C15.8545,24.1621 23.9655,16.0511 33.9355,16.0511 L33.9355,12.0511 C21.7595,12.0511 11.8545,21.9561 11.8545,34.1321" id="Fill-4"></path>
                    </g>
                </g>
            </g>
        </g>
    </g>
</svg>