<?xml version="1.0" encoding="UTF-8"?>
<svg width="72px" height="90px" viewBox="0 0 72 90" version="1.1" xmlns="http://www.w3.org/2000/svg" xmlns:xlink="http://www.w3.org/1999/xlink">
    <!-- Generator: Sketch 46.2 (44496) - http://www.bohemiancoding.com/sketch -->
    <title>icono_clientes</title>
    <desc>Created with Sketch.</desc>
    <defs></defs>
    <g id="Visual-Conócenos-1280" stroke="none" stroke-width="1" fill="none" fill-rule="evenodd">
        <g id="Conócenos-1280-3" transform="translate(-408.000000, -3987.000000)" fill="#646464">
            <g id="Group-10" transform="translate(159.000000, 3701.000000)">
                <g id="Group-9" transform="translate(93.000000, 254.000000)">
                    <path d="M223.07334,101.436923 L219.078451,101.436923 C219.127672,101.02307 219.161825,100.607208 219.161825,100.188332 C219.161825,93.290445 214.164447,87.6029778 207.819034,87.5206089 C207.773832,87.5196045 207.727625,87.5196045 207.680413,87.5196045 C205.6674,87.5196045 203.770908,88.0891548 202.118508,89.0856167 C200.465105,88.0901593 198.568613,87.5196045 196.556603,87.5196045 C196.510397,87.5196045 196.463185,87.5196045 196.416978,87.5206089 C190.071565,87.6029778 185.074188,93.290445 185.074188,100.188332 C185.074188,100.607208 185.108341,101.02307 185.157561,101.436923 L160.017992,101.436923 L160.017992,92.4557072 L184.67942,79.6101878 L191.656663,86.5874304 L198.556559,79.6865297 L223.07334,92.4557072 L223.07334,101.436923 Z M202.933156,115.971003 C202.653906,116.203043 202.381687,116.430059 202.118508,116.650044 C201.854325,116.430059 201.582107,116.203043 201.302856,115.971003 C196.735404,112.170988 189.092179,105.810507 189.092179,100.188332 C189.092179,95.4722145 192.402,91.5908345 196.469212,91.5386006 L196.55359,91.5375961 L196.556603,91.5375961 C197.781086,91.5375961 198.95434,91.8710894 200.043216,92.5270266 L202.118508,93.7776265 L204.192797,92.5270266 C205.281672,91.8710894 206.454926,91.5375961 207.680413,91.5375961 L207.767805,91.5386006 C211.835017,91.5908345 215.143833,95.4722145 215.143833,100.188332 C215.143833,105.810507 207.500608,112.170988 202.933156,115.971003 L202.933156,115.971003 Z M173.761532,53.8016228 C173.761532,43.9957141 181.740259,36.0179917 191.545163,36.0179917 C201.351072,36.0179917 209.328794,43.9957141 209.328794,53.8016228 C209.328794,61.3584607 204.524281,68.1026597 197.37326,70.5857785 L196.023215,71.0548791 L196.023215,76.5374287 L191.656663,80.9059902 L187.067112,76.3164392 L187.067112,71.0548791 L185.718071,70.5857785 C178.566046,68.1026597 173.761532,61.3584607 173.761532,53.8016228 L173.761532,53.8016228 Z M227.091331,90.0187953 L200.041207,75.9297075 L200.041207,73.8624508 C208.0571,70.4712658 213.346786,62.5829436 213.346786,53.8016228 C213.346786,41.7797917 203.566994,32 191.545163,32 C179.524337,32 169.743541,41.7797917 169.743541,53.8016228 C169.743541,62.5829436 175.034231,70.4712658 183.04912,73.8624508 L183.04912,75.9297075 L156,90.0187953 L156,105.454915 L186.347891,105.454915 C189.719991,112.663192 198.850877,118.786611 202.118508,122 C205.38614,118.786611 214.516022,112.663192 217.888121,105.454915 L227.091331,105.454915 L227.091331,90.0187953 Z" id="icono_clientes"></path>
                </g>
            </g>
        </g>
    </g>
</svg>