<?xml version="1.0" encoding="UTF-8"?>
<svg width="90px" height="90px" viewBox="0 0 90 90" version="1.1" xmlns="http://www.w3.org/2000/svg" xmlns:xlink="http://www.w3.org/1999/xlink">
    <!-- Generator: Sketch 46.2 (44496) - http://www.bohemiancoding.com/sketch -->
    <title>icono_mundo</title>
    <desc>Created with Sketch.</desc>
    <defs></defs>
    <g id="Visual-Conócenos-1280" stroke="none" stroke-width="1" fill="none" fill-rule="evenodd">
        <g id="Conócenos-1280-3" transform="translate(-661.000000, -3987.000000)" fill="#646464">
            <g id="Group-10" transform="translate(159.000000, 3701.000000)">
                <g id="Group-9" transform="translate(93.000000, 254.000000)">
                    <path d="M421.136,101.487 L435.484,101.487 C438.625,107.624 442.909,113.073 448.055,117.564 C437.076,115.962 427.493,109.998 421.136,101.487 L421.136,101.487 Z M413.051,78.992 L429.638,78.992 C429.876,85.521 431.272,91.752 433.634,97.487 L418.509,97.487 C415.326,91.994 413.374,85.705 413.051,78.992 L413.051,78.992 Z M418.519,56.496 L433.641,56.496 C431.277,62.23 429.878,68.463 429.639,74.992 L413.052,74.992 C413.377,68.277 415.333,61.988 418.519,56.496 L418.519,56.496 Z M448.055,36.436 C442.914,40.923 438.633,46.366 435.493,52.496 L421.149,52.496 C427.506,43.994 437.083,38.038 448.055,36.436 L448.055,36.436 Z M486.853,52.496 L472.508,52.496 C469.367,46.366 465.087,40.923 459.946,36.436 C470.917,38.037 480.494,43.994 486.853,52.496 L486.853,52.496 Z M459.946,117.564 C465.092,113.073 469.376,107.624 472.517,101.487 L486.865,101.487 C480.507,109.998 470.925,115.962 459.946,117.564 L459.946,117.564 Z M452,101.487 L452,115.645 C447.187,111.723 443.123,106.92 440.044,101.487 L452,101.487 Z M452,78.992 L452,97.487 L438.012,97.487 C435.439,91.804 433.899,85.562 433.639,78.992 L452,78.992 Z M452,56.496 L452,74.992 L433.639,74.992 C433.902,68.421 435.444,62.177 438.02,56.496 L452,56.496 Z M452,38.355 L452,52.496 L440.055,52.496 C443.132,47.07 447.192,42.272 452,38.355 L452,38.355 Z M456,52.496 L456,38.354 C460.809,42.272 464.868,47.069 467.947,52.496 L456,52.496 Z M474.362,74.992 L456,74.992 L456,56.496 L469.982,56.496 C472.558,62.177 474.1,68.421 474.362,74.992 L474.362,74.992 Z M467.956,101.487 C464.877,106.921 460.814,111.724 456,115.646 L456,101.487 L467.956,101.487 Z M456,97.487 L456,78.992 L474.363,78.992 C474.103,85.562 472.563,91.804 469.99,97.487 L456,97.487 Z M494.95,78.992 C494.627,85.705 492.675,91.994 489.492,97.487 L474.367,97.487 C476.73,91.752 478.124,85.521 478.363,78.992 L494.95,78.992 Z M478.363,74.992 C478.122,68.463 476.725,62.23 474.361,56.496 L489.482,56.496 C492.668,61.988 494.624,68.277 494.949,74.992 L478.363,74.992 Z M458.152,121.802 C458.407,121.779 458.661,121.756 458.914,121.728 C459.406,121.674 459.894,121.611 460.381,121.542 C474.311,119.564 486.179,111.209 492.95,99.525 C492.953,99.521 492.956,99.515 492.959,99.511 C496.794,92.888 499,85.204 499,77 C499,68.788 496.79,61.097 492.948,54.469 C492.946,54.466 492.944,54.462 492.941,54.459 C486.167,42.783 474.302,34.434 460.378,32.459 C459.893,32.389 459.406,32.326 458.915,32.272 C458.66,32.245 458.405,32.221 458.149,32.198 C457.689,32.156 457.227,32.121 456.763,32.092 C456.533,32.079 456.305,32.063 456.074,32.052 C455.394,32.021 454.71,32.001 454.022,32.001 C454.015,32.001 454.007,32 454,32 C453.993,32 453.987,32.001 453.98,32.001 C453.291,32.001 452.608,32.021 451.927,32.052 C451.697,32.063 451.467,32.079 451.238,32.092 C450.775,32.121 450.312,32.156 449.853,32.198 C449.597,32.221 449.341,32.245 449.086,32.272 C448.595,32.326 448.108,32.389 447.622,32.459 C434.491,34.322 423.192,41.851 416.266,52.496 L416.265,52.496 C415.847,53.138 415.446,53.793 415.06,54.459 C415.058,54.462 415.056,54.466 415.053,54.469 C411.527,60.553 409.379,67.534 409.051,74.992 C409.022,75.658 409,76.326 409,77 C409,77.668 409.022,78.331 409.051,78.992 C409.34,85.633 411.073,91.896 413.939,97.487 C413.939,97.487 413.94,97.488 413.94,97.49 C414.29,98.174 414.657,98.847 415.042,99.511 C415.044,99.515 415.047,99.521 415.05,99.525 C415.436,100.19 415.836,100.843 416.253,101.486 L416.254,101.487 C423.079,111.986 434.157,119.466 447.054,121.465 C447.241,121.494 447.431,121.515 447.619,121.542 C448.107,121.611 448.595,121.674 449.087,121.728 C449.34,121.756 449.594,121.779 449.849,121.802 C450.313,121.844 450.779,121.88 451.246,121.908 C451.472,121.922 451.696,121.937 451.921,121.947 C452.611,121.979 453.303,122 454,122 C454.698,122 455.39,121.979 456.079,121.947 C456.306,121.937 456.531,121.922 456.755,121.908 C457.223,121.88 457.689,121.844 458.152,121.802 L458.152,121.802 Z" id="icono_mundo"></path>
                </g>
            </g>
        </g>
    </g>
</svg>