<?xml version="1.0" encoding="UTF-8"?>
<svg width="90px" height="90px" viewBox="0 0 90 90" version="1.1" xmlns="http://www.w3.org/2000/svg" xmlns:xlink="http://www.w3.org/1999/xlink">
    <!-- Generator: Sketch 46.2 (44496) - http://www.bohemiancoding.com/sketch -->
    <title>icono_trofeo</title>
    <desc>Created with Sketch.</desc>
    <defs></defs>
    <g id="Visual-Conócenos-1280" stroke="none" stroke-width="1" fill="none" fill-rule="evenodd">
        <g id="Conócenos-1280-3" transform="translate(-530.000000, -3987.000000)" fill="#646464">
            <g id="Group-10" transform="translate(159.000000, 3701.000000)">
                <g id="Group-9" transform="translate(93.000000, 254.000000)">
                    <path d="M344.446,79.399 C344.446,79.4 344.445,79.401 344.445,79.403 C344.445,79.401 344.446,79.4 344.446,79.399 L344.446,79.399 Z M323.279,90.258 L323.044,90.259 C312.837,90.259 304.213,81.441 303.412,70.233 L301.956,45.538 L344.046,45.538 L342.596,70.2 C341.849,81.316 333.363,90.127 323.279,90.258 L323.279,90.258 Z M339.672,107.931 L339.672,109.572 L323.761,109.572 L322.238,109.572 L306.328,109.572 L306.328,107.931 L318.313,102.418 L320.641,101.346 L320.641,98.784 L320.641,94.322 L325.359,94.322 L325.359,98.784 L325.359,101.346 L327.687,102.418 L339.672,107.931 Z M288.737,66.505 L282.846,36 L297.387,36 L299.419,70.468 C299.588,72.84 300.058,75.121 300.779,77.269 C295.086,76.353 290.319,72.191 288.737,66.505 L288.737,66.505 Z M344.607,36 L344.281,41.538 L301.72,41.538 L301.394,36 L344.607,36 Z M306.328,118 L339.672,118 L339.672,113.635 L306.328,113.635 L306.328,118 Z M348.849,32 L348.613,36 L363.154,36 L357.263,66.505 C355.684,72.179 350.934,76.337 345.256,77.265 C345.968,75.115 346.428,72.836 346.588,70.468 L348.849,32 L297.151,32 L278,32 L284.838,67.414 C286.964,75.326 294.06,81.187 302.582,81.439 C305.654,87.152 310.679,91.465 316.641,93.295 L316.641,98.784 L302.328,105.369 L302.328,109.634 L302.328,113.572 L302.328,122 L343.672,122 L343.672,113.572 L343.672,109.634 L343.672,105.369 L329.359,98.784 L329.359,93.322 C335.37,91.506 340.408,87.169 343.467,81.436 C351.967,81.164 359.04,75.31 361.162,67.414 L368,32 L348.849,32 Z" id="icono_trofeo"></path>
                </g>
            </g>
        </g>
    </g>
</svg>