<?xml version="1.0" encoding="UTF-8"?>
<svg width="108px" height="90px" viewBox="0 0 108 90" version="1.1" xmlns="http://www.w3.org/2000/svg" xmlns:xlink="http://www.w3.org/1999/xlink">
    <!-- Generator: Sketch 46.2 (44496) - http://www.bohemiancoding.com/sketch -->
    <title>icono_planta</title>
    <desc>Created with Sketch.</desc>
    <defs></defs>
    <g id="Visual-Conócenos-1280" stroke="none" stroke-width="1" fill="none" fill-rule="evenodd">
        <g id="Conócenos-1280-3" transform="translate(-783.000000, -3986.000000)" fill="#646464">
            <g id="Group-10" transform="translate(159.000000, 3701.000000)">
                <g id="Group-9" transform="translate(93.000000, 254.000000)">
                    <g id="icono_planta" transform="translate(531.000000, 31.000000)">
                        <path d="M25.2150981,10.2645427 C17.9524928,10.2645427 10.5040512,12.8809086 3.67106763,17.8250413 L0.000299736083,20.4873434 L4.37744566,21.6776901 C11.5910941,23.6419617 17.3460268,29.206233 22.4255543,34.1194087 C27.6099894,39.1324457 32.5126726,43.8668697 38.1886749,43.8718627 L38.2066591,43.8718627 C40.9952038,43.8718627 43.6618558,42.7554135 46.3285078,40.4815718 L49.2689188,37.1771616 C51.431015,33.7539164 51.7357467,29.5657337 50.0402396,25.2726967 C48.4436454,21.2303115 45.2164869,17.4974963 40.9382539,14.7722816 C36.3233174,11.827372 30.8970951,10.2695358 25.2350805,10.2645427 L25.2150981,10.2645427 Z M25.2310841,14.2589945 C30.1277725,14.262989 34.8156449,15.6051248 38.7901453,18.140603 C42.3550065,20.4124475 45.0306506,23.4662058 46.3225131,26.7396591 C47.4914838,29.6975506 47.39357,32.4746932 46.0437585,34.7924739 L43.5349675,37.6105596 C41.6875941,39.1354415 39.942131,39.877411 38.1916723,39.877411 C34.1252527,39.8744151 29.7920681,35.6842352 25.2041078,31.2483965 C20.6021598,26.7975786 15.478671,21.8424612 9.01736022,19.077302 C14.2937144,15.9156934 19.8348354,14.2589945 25.2150981,14.2589945 L25.2310841,14.2589945 L25.2310841,14.2589945 Z" id="Fill-1"></path>
                        <path d="M84.7661635,0.000499306472 C77.0249796,0.000499306472 69.7873523,2.3222744 63.8385902,6.72216303 C58.5642342,10.6217466 54.6586731,16.0152551 53.1150323,21.518611 C51.3455903,27.8178615 52.7753314,33.5129511 56.9296735,37.2717302 L60.3506613,39.6294554 C62.9193995,41.023519 65.3162891,41.6985814 67.6522323,41.6985814 L67.6592261,41.6985814 C75.2885085,41.6985814 80.2481416,34.4117027 85.5025151,26.6984164 C90.1933848,19.8109829 95.5067064,12.0038269 103.413744,7.96044308 L107.271348,5.99017974 L103.312833,4.22263483 C97.0673323,1.42452136 90.8288253,0.00449375825 84.787145,0.000499306472 L84.7661635,0.000499306472 Z M84.7851468,3.99495108 C89.140312,3.99794692 93.6223656,4.82080399 98.1563734,6.44654586 C91.2594461,11.1450198 86.4846503,18.1582785 82.1884332,24.4665164 C77.3486945,31.5696503 73.1693744,37.7041296 67.6522323,37.7041296 C66.0376539,37.7041296 64.3301574,37.2168065 62.4368244,36.2151977 L59.434468,34.1460717 C56.5220324,31.3829097 55.6448048,27.2925911 56.9636436,22.5961144 C58.2724911,17.9275989 61.6445221,13.3130085 66.2164964,9.93270365 C71.4678726,6.04909791 77.8822248,3.99495108 84.7661635,3.99495108 L84.7851468,3.99495108 L84.7851468,3.99495108 Z" id="Fill-3"></path>
                        <path d="M54.5984261,89.8756642 L50.601945,89.8756642 L50.601945,56.3971653 C50.601945,37.5962794 37.8911369,33.4260718 37.3506128,33.2573062 L38.5105915,29.4356144 C38.6724489,29.4825492 54.5984261,34.5265432 54.5984261,56.3971653 L54.5984261,89.8756642 Z" id="Fill-5"></path>
                        <path d="M54.5984261,89.8756642 L50.601945,89.8756642 L50.601945,56.3971653 C50.601945,34.8101493 66.9575439,25.8106495 67.6529317,25.4371682 L69.5402699,28.9592761 L68.5971003,27.1977228 L69.5442663,28.9562802 C68.9338038,29.2868211 54.5984261,37.2657385 54.5984261,56.3971653 L54.5984261,89.8756642 Z" id="Fill-7"></path>
                    </g>
                </g>
            </g>
        </g>
    </g>
</svg>