<?xml version="1.0" standalone="no"?>
<!DOCTYPE svg PUBLIC "-//W3C//DTD SVG 20010904//EN"
 "http://www.w3.org/TR/2001/REC-SVG-20010904/DTD/svg10.dtd">
<svg version="1.0" xmlns="http://www.w3.org/2000/svg"
 width="260.000000pt" height="260.000000pt" viewBox="0 0 260.000000 260.000000"
 preserveAspectRatio="xMidYMid meet">
<metadata>
Created by potrace 1.11, written by Peter Selinger 2001-2013
</metadata>
<g transform="translate(0.000000,260.000000) scale(0.100000,-0.100000)"
fill="#000000" stroke="none">
<path d="M181 1779 c-33 -4 -50 -13 -68 -35 -23 -29 -23 -32 -23 -284 l0 -256
808 1 c444 0 823 -4 844 -8 20 -5 62 -31 95 -59 95 -82 91 -81 401 -82 l272
-2 0 363 c0 339 -1 363 -17 364 -108 4 -2280 2 -2312 -2z m445 -104 l51 -6
-19 -97 c-10 -53 -21 -110 -23 -127 -3 -16 -10 -54 -16 -82 l-10 -53 -89 0
c-62 0 -90 4 -93 13 -3 9 -16 8 -55 -6 -52 -19 -104 -17 -144 4 -49 27 -57
128 -16 216 35 75 121 130 221 140 29 3 53 7 55 8 3 3 59 -1 138 -10z m419 -8
c-2 -12 -9 -47 -14 -77 -34 -184 -53 -225 -124 -259 -35 -17 -62 -21 -141 -21
-97 0 -98 0 -93 23 4 12 9 41 13 63 6 42 6 42 57 47 31 3 55 11 63 21 11 16
38 114 48 178 3 15 7 32 10 37 3 5 46 9 96 9 88 1 90 0 85 -21z m240 -9 c-2
-16 -6 -41 -10 -56 -3 -15 -7 -38 -10 -52 -2 -14 -10 -46 -16 -73 -8 -36 -8
-51 1 -62 17 -20 47 -3 54 32 11 50 17 77 32 152 8 41 17 77 20 80 7 7 152 9
163 2 5 -4 1 -44 -10 -96 -10 -50 -21 -101 -24 -114 -2 -14 -10 -50 -17 -80
-6 -31 -12 -60 -12 -66 -1 -14 -155 -19 -171 -5 -10 8 -26 7 -60 -4 -62 -22
-107 -20 -139 5 -21 17 -26 29 -26 67 0 26 4 62 10 81 5 19 12 52 16 75 3 22
7 44 10 47 2 4 6 24 10 45 3 22 8 42 10 46 2 3 42 6 88 6 l85 0 -4 -30z m578
21 c45 -3 48 -4 42 -27 -3 -13 -9 -38 -12 -54 -4 -22 -10 -27 -22 -22 -58 24
-138 25 -152 3 -11 -18 -4 -23 64 -44 73 -23 112 -64 103 -109 -16 -81 -84
-119 -216 -122 -47 -1 -100 0 -118 3 -32 5 -32 5 -26 52 3 25 8 48 10 50 3 3
25 0 49 -7 53 -14 104 -15 124 -3 24 15 -3 37 -69 55 -71 20 -103 54 -96 100
7 42 36 78 82 101 58 29 104 33 237 24z m500 -3 c43 -6 57 -11 53 -21 -3 -8
-9 -40 -15 -72 -6 -32 -13 -71 -16 -88 -4 -16 -12 -59 -18 -95 -7 -36 -16 -70
-20 -77 -10 -15 -169 -15 -179 0 -5 8 -17 8 -43 -2 -91 -33 -165 -17 -190 41
-25 62 0 171 53 232 22 23 93 65 124 72 100 21 145 23 251 10z"/>
<path d="M432 1560 c-35 -21 -62 -72 -62 -114 0 -49 50 -45 76 6 12 23 43 113
44 126 0 8 -30 -1 -58 -18z"/>
<path d="M2174 1561 c-34 -20 -64 -75 -64 -114 0 -61 54 -44 85 26 46 105 41
126 -21 88z"/>
<path d="M92 964 l3 -147 1125 1 c619 0 1149 1 1178 1 45 1 58 6 83 30 22 23
29 39 29 70 l0 40 -222 1 c-292 1 -308 4 -380 71 -18 17 -51 40 -73 52 l-40
22 -853 3 -853 2 3 -146z"/>
</g>
</svg>
