<?xml version="1.0" encoding="UTF-8"?>
<svg width="76px" height="111px" viewBox="0 0 76 111" version="1.1" xmlns="http://www.w3.org/2000/svg" xmlns:xlink="http://www.w3.org/1999/xlink">
    <!-- Generator: Sketch 46.2 (44496) - http://www.bohemiancoding.com/sketch -->
    <title>icono eje 4</title>
    <desc>Created with Sketch.</desc>
    <defs></defs>
    <g id="Visual-Medioambiente-1280" stroke="none" stroke-width="1" fill="none" fill-rule="evenodd">
        <g id="icono-eje-4" fill="#ADE069">
            <path d="M14.8691,38.1784222 L19.7579889,38.1784222 C19.7579889,27.9643111 28.0678778,19.6544222 38.2819889,19.6544222 L38.2819889,14.7655333 C25.3728778,14.7655333 14.8691,25.2680889 14.8691,38.1784222" id="Fill-50"></path>
            <path d="M58.4979111,68.3818556 L58.4355778,68.4820778 C55.2235778,73.6728556 51.9565778,79.6544111 50.7600222,85.9977444 L25.8071333,85.9977444 C24.7389111,80.3107444 22.0268,74.9843 19.3098,70.4217444 L19.5151333,70.4217444 L14.6335778,62.8769667 C7.47746667,51.8146333 5.91791111,45.2427444 5.87146667,41.6775222 C5.7468,32.0891889 9.05535556,23.0325222 15.1896889,16.1795222 C21.2225778,9.44018889 29.2599111,5.66596667 37.8228,5.55596667 L38.2126889,5.55352222 C55.8689111,5.55352222 70.4402444,21.3800778 70.6944667,40.8341889 C70.7531333,45.2219667 68.6961333,53.5465222 58.5651333,68.2840778 L58.4979111,68.3818556 Z M38.9044667,105.775744 L37.6602444,105.775744 L26.2825778,105.775744 L26.2825778,100.701078 L50.2833556,100.701078 L50.2833556,105.775744 L38.9044667,105.775744 Z M26.2825778,95.8121889 L50.2845778,95.8121889 L50.2845778,90.9208556 L26.2825778,90.9208556 L26.2825778,95.8121889 Z M75.5833556,40.7694111 C75.2924667,18.5543 58.5712444,0.664633333 38.2126889,0.664633333 C38.0611333,0.664633333 37.9108,0.665855556 37.7592444,0.667077778 C17.1880222,0.934744444 0.690466667,19.3780778 0.982577778,41.7423 C1.07302222,48.5390778 5.00491111,56.9956333 10.5305778,65.5328556 L10.5232444,65.5328556 C14.2082444,71.6684111 21.3936889,81.3093 21.3936889,90.9208556 L21.3936889,95.8121889 L21.3936889,100.701078 L21.3936889,110.664633 L37.6602444,110.664633 L38.9044667,110.664633 L55.1722444,110.664633 L55.1722444,90.9086333 C55.1771333,83.8344111 59.0699111,76.7491889 62.5948,71.0548556 C69.9635778,60.3335222 75.6945778,49.1966333 75.5833556,40.7694111 L75.5833556,40.7694111 Z" id="Fill-51"></path>
        </g>
    </g>
</svg>