<?xml version="1.0" encoding="UTF-8"?>
<svg width="122px" height="98px" viewBox="0 0 122 98" version="1.1" xmlns="http://www.w3.org/2000/svg" xmlns:xlink="http://www.w3.org/1999/xlink">
    <!-- Generator: Sketch 46.2 (44496) - http://www.bohemiancoding.com/sketch -->
    <title>Page 1</title>
    <desc>Created with Sketch.</desc>
    <defs></defs>
    <g id="Visual-Medioambiente-1280" stroke="none" stroke-width="1" fill="none" fill-rule="evenodd">
        <g id="Nuestro-compromiso/Medioambiente/Medioambiente-1280_2" transform="translate(-677.000000, -1142.000000)" fill="#ADE069">
            <g id="Group-19" transform="translate(159.000000, 471.000000)">
                <g id="Group-22-Copy" transform="translate(96.000000, 657.000000)">
                    <g id="Group-23" transform="translate(390.000000, 14.000000)">
                        <g id="Page-1" transform="translate(32.000000, 0.000000)">
                            <path d="M74.1692704,28.4316669 L69.7235281,28.4316669 L31.5391466,28.4316669 L35.3388327,16.5683331 L69.7235281,16.5683331 L74.1692704,16.5683331 L87.6597985,16.5683331 L91.4594846,28.4316669 L74.1692704,28.4316669 Z M91.636055,11 L74.1692704,11 L69.7235281,11 L31.363945,11 L24,34 L69.7235281,34 L74.1692704,34 L99,34 L91.636055,11 Z" id="Fill-1"></path>
                            <polygon id="Fill-2" points="20 53 37 53 37 47 20 47"></polygon>
                            <polygon id="Fill-3" points="85 53 102 53 102 47 85 47"></polygon>
                            <path d="M22.1809556,0 L11.4205556,32.900617 L0,32.900617 L0,38.2994711 L9.65426667,38.2994711 L7.66024444,44.3961271 L7.66024444,73.1099328 L7.66024444,78.5641252 L7.66024444,98 L27.5760667,98 L27.5760667,78.5641252 L94.4239333,78.5641252 L94.4239333,98 L114.3384,98 L114.3384,78.5641252 L114.3384,73.1099328 L114.3384,44.3961271 L112.344378,38.2994711 L122,38.2994711 L122,32.900617 L110.578089,32.900617 L99.8190444,0 L22.1809556,0 Z M13.0838222,45.254545 L26.1161333,5.39885412 L56.6147778,5.39885412 L65.3838667,5.39885412 L95.8825111,5.39885412 L108.916178,45.254545 L108.916178,73.1099328 L94.4239333,73.1099328 L94.4239333,73.165271 L27.5760667,73.165271 L27.5760667,73.1099328 L13.0838222,73.1099328 L13.0838222,45.254545 Z M99.8448,92.6011459 L108.914822,92.6011459 L108.914822,78.5641252 L99.8448,78.5641252 L99.8448,92.6011459 Z M13.0838222,92.6011459 L22.1538444,92.6011459 L22.1538444,78.5641252 L13.0838222,78.5641252 L13.0838222,92.6011459 Z" id="Fill-4"></path>
                        </g>
                    </g>
                </g>
            </g>
        </g>
    </g>
</svg>