<?xml version="1.0" encoding="UTF-8"?>
<svg width="132px" height="111px" viewBox="0 0 132 111" version="1.1" xmlns="http://www.w3.org/2000/svg" xmlns:xlink="http://www.w3.org/1999/xlink">
    <!-- Generator: Sketch 46.2 (44496) - http://www.bohemiancoding.com/sketch -->
    <title>icono eje 13</title>
    <desc>Created with Sketch.</desc>
    <defs></defs>
    <g id="Visual-Medioambiente-1280" stroke="none" stroke-width="1" fill="none" fill-rule="evenodd">
        <g id="icono-eje-13" fill="#36A9DF">
            <path d="M31.0683,12.7290778 C22.1839667,12.7290778 13.0723,15.9313 4.71352222,21.9837444 L0.223077778,25.2409667 L5.57763333,26.6978556 C14.4008556,29.1019667 21.4408556,35.9121889 27.6546333,41.9255222 C33.9967444,48.0610778 39.9941889,53.8568556 46.9376333,53.8617444 L46.9596333,53.8617444 C50.3708556,53.8617444 53.6329667,52.4953 56.8950778,49.7123 L60.4933,45.6679667 C63.1369667,41.4781889 63.5109667,36.3521889 61.4368556,31.0978556 C59.4837444,26.1503 55.5347444,21.5816333 50.3024111,18.2461889 C44.6569667,14.6418556 38.0190778,12.7351889 31.0915222,12.7290778 L31.0683,12.7290778 Z M31.0878556,17.6179667 C37.0779667,17.6240778 42.8126333,19.2655222 47.6746333,22.3687444 C52.0343,25.1493 55.3074111,28.8868556 56.8889667,32.8933 C58.3189667,36.5135222 58.1979667,39.9125222 56.5479667,42.7493 L53.4789667,46.1984111 C51.2178556,48.0647444 49.0826333,48.9728556 46.9425222,48.9728556 C41.9680778,48.9691889 36.6660778,43.8407444 31.0548556,38.4128556 C25.4253,32.9641889 19.1577444,26.8995222 11.2524111,23.5151889 C17.7081889,19.6456333 24.4866333,17.6179667 31.0683,17.6179667 L31.0878556,17.6179667 L31.0878556,17.6179667 Z" id="Fill-5"></path>
            <path d="M103.917022,0.166711111 C94.4460222,0.166711111 85.5934667,3.00837778 78.3163556,8.39348889 C71.8630222,13.1674889 67.0853556,19.7674889 65.1982444,26.5031556 C63.0336889,34.2129333 64.7814667,41.1832667 69.8646889,45.7849333 L74.0495778,48.6693778 C77.1906889,50.3756 80.1228,51.2030444 82.9815778,51.2030444 L82.9901333,51.2030444 C92.3230222,51.2030444 98.3889111,42.2832667 104.8178,32.8428222 C110.556133,24.4131556 117.055911,14.8578222 126.728578,9.90904444 L131.447578,7.49882222 L126.605133,5.33426667 C118.965022,1.91082222 111.333467,0.1716 103.942689,0.166711111 L103.917022,0.166711111 Z M103.940244,5.0556 C109.266689,5.05926667 114.7508,6.06637778 120.297244,8.05615556 C111.860244,13.8067111 106.018022,22.3903778 100.763689,30.1111556 C94.8432444,38.8048222 89.7306889,46.3141556 82.9815778,46.3141556 C81.0064667,46.3141556 78.9164667,45.7177111 76.6003556,44.4906 L72.9275778,41.9581556 C69.3648,38.5762667 68.2929111,33.5700444 69.9062444,27.8219333 C71.5061333,22.1092667 75.6311333,16.4601556 81.2252444,12.3229333 C87.6480222,7.56971111 95.4959111,5.0556 103.917022,5.0556 L103.940244,5.0556 L103.940244,5.0556 Z" id="Fill-7"></path>
            <path d="M67.0127556,110.166711 L62.1238667,110.166711 L62.1238667,69.1917111 C62.1238667,46.1821556 46.5747556,41.0781556 45.9135333,40.8716 L47.3325333,36.1941556 C47.5305333,36.2516 67.0127556,42.4250444 67.0127556,69.1917111 L67.0127556,110.166711 Z" id="Fill-9"></path>
            <path d="M67.0127556,110.166711 L62.1238667,110.166711 L62.1238667,69.1917111 C62.1238667,42.7721556 82.1316444,31.7574889 82.9823111,31.3003778 L85.2910889,35.6111556 L84.1373111,33.4551556 L85.2959778,35.6074889 C84.5492,36.0120444 67.0127556,45.7776 67.0127556,69.1917111 L67.0127556,110.166711 Z" id="Fill-11"></path>
        </g>
    </g>
</svg>