<?xml version="1.0" encoding="UTF-8"?>
<svg width="53px" height="110px" viewBox="0 0 53 110" version="1.1" xmlns="http://www.w3.org/2000/svg" xmlns:xlink="http://www.w3.org/1999/xlink">
    <!-- Generator: Sketch 46.2 (44496) - http://www.bohemiancoding.com/sketch -->
    <title>icono eje 9</title>
    <desc>Created with Sketch.</desc>
    <defs></defs>
    <g id="Visual-Medioambiente-1280" stroke="none" stroke-width="1" fill="none" fill-rule="evenodd">
        <path d="M27.2946667,104.801889 L25.7033333,104.801889 L4.88888889,104.801889 L4.88888889,85.2304444 L48.1091111,85.2304444 L48.1091111,104.801889 L27.2946667,104.801889 Z M4.88888889,80.3415556 L48.1091111,80.3415556 L48.1091111,74.2047778 L4.88888889,74.2047778 L4.88888889,80.3415556 Z M4.88888889,69.3146667 L48.1091111,69.3146667 L48.1091111,63.1766667 L4.88888889,63.1766667 L4.88888889,69.3146667 Z M17.7637778,22.517 L17.7637778,16.4902222 L35.2342222,16.4902222 L35.2342222,22.517 L48.1091111,32.5978889 L48.1091111,58.2877778 L4.88888889,58.2877778 L4.88888889,32.5978889 L17.7637778,22.517 Z M15.7483333,4.88888889 L37.2508889,4.88888889 L37.2508889,11.6013333 L35.2342222,11.6013333 L17.7637778,11.6013333 L15.7483333,11.6013333 L15.7483333,4.88888889 Z M51.1231111,28.7478889 L40.1231111,20.1361111 L40.1231111,16.4902222 L42.1397778,16.4902222 L42.1397778,0 L10.8594444,0 L10.8594444,16.4902222 L12.8748889,16.4902222 L12.8748889,20.1361111 L1.87488889,28.7478889 L0,30.217 L0,32.5978889 L0,104.801889 L0,109.690778 L4.88888889,109.690778 L25.7033333,109.690778 L27.2946667,109.690778 L48.1091111,109.690778 L52.998,109.690778 L52.998,104.801889 L52.998,32.5978889 L52.998,30.217 L51.1231111,28.7478889 Z" id="icono-eje-9" fill="#36A9DF"></path>
    </g>
</svg>