<?xml version="1.0" encoding="UTF-8"?>
<svg width="126px" height="111px" viewBox="0 0 126 111" version="1.1" xmlns="http://www.w3.org/2000/svg" xmlns:xlink="http://www.w3.org/1999/xlink">
    <!-- Generator: Sketch 46.2 (44496) - http://www.bohemiancoding.com/sketch -->
    <title>icono eje 16</title>
    <desc>Created with Sketch.</desc>
    <defs></defs>
    <g id="Visual-Medioambiente-1280" stroke="none" stroke-width="1" fill="none" fill-rule="evenodd">
        <g id="icono-eje-16" fill="#36A9DF">
            <path d="M111.913756,87.1142889 L109.996089,88.2582889 L109.602533,90.4558444 C108.981644,93.9452889 103.704089,97.4775111 94.8258667,97.4775111 C93.7112,97.4775111 92.5830889,97.4274 91.4672,97.3259556 L89.4590889,97.1462889 L87.9068667,98.4332889 C85.5675333,100.372956 82.0976444,102.081622 77.8663111,103.375956 C72.4995333,105.025956 66.2197556,105.898622 59.7040889,105.898622 C51.3135333,105.898622 43.3495333,104.447844 37.2799778,101.812733 C32.6697556,99.8131778 29.5347556,97.2795111 28.6755333,94.8644 L27.6659778,92.0239556 L24.6752,91.6499556 C18.8452,90.9215111 13.6250889,89.2678444 9.97675556,86.9932889 C7.28175556,85.3127333 5.66842222,83.4109556 5.66231111,81.9235111 C5.66231111,80.1366222 7.85986667,77.8804 11.4030889,76.0336222 C16.1709778,73.5378444 22.7013111,72.0247333 29.7963111,71.7705111 L49.0047556,71.7705111 L77.3309778,71.7582889 L99.5314222,71.7582889 C105.713422,71.9294 111.474978,73.2872889 115.758867,75.5814 C118.9782,77.3120667 120.345867,79.0341778 120.603756,80.1378444 C119.647978,81.6631778 115.698978,84.8519556 111.913756,87.1142889 M118.072533,71.2755111 C113.120089,68.6220667 106.576311,67.0527333 99.5974222,66.8694 L77.3309778,66.8694 L49.0023111,66.8816222 L29.7119778,66.8816222 C21.8897556,67.1505111 14.5759778,68.8542889 9.13586667,71.7020667 C3.72142222,74.5254 0.773422222,78.1505111 0.773422222,81.9235111 C0.800311111,88.7496222 10.6269778,94.8216222 24.0689778,96.5009556 C25.4060889,100.261733 29.3306444,103.691289 35.3329778,106.297067 C42.0038667,109.192511 50.6743111,110.787511 59.7040889,110.787511 C66.6829778,110.787511 73.4809778,109.840289 79.3036444,108.048511 C84.1558667,106.564733 88.1806444,104.556622 91.0284222,102.196511 C92.2579778,102.306511 93.5425333,102.3664 94.8258667,102.3664 C105.726867,102.3664 113.287533,97.6400667 114.416867,91.3150667 C114.416867,91.3150667 125.539089,84.6845111 125.539089,80.5118444 C125.539089,77.1421778 122.892978,73.8666222 118.072533,71.2755111" id="Fill-76"></path>
            <path d="M71.6986111,5.21708889 C72.8988333,5.21708889 74.1137222,5.95531111 75.1183889,7.29364444 L110.988167,55.1460889 C111.584611,55.9417556 111.840056,56.5125333 111.948833,56.8498667 C111.612722,56.9659778 111.002833,57.1040889 110.009167,57.1040889 L104.712056,57.1040889 C104.732833,58.5805333 104.4285,60.0019778 103.775833,61.3073111 C103.654833,61.5493111 103.499611,61.7656444 103.357833,61.9929778 L110.009167,61.9929778 C116.731389,61.9929778 118.932611,57.5929778 114.9005,52.2127556 L79.0295,4.36153333 C77.0140556,1.67264444 74.3557222,0.3282 71.6986111,0.3282 C69.8811667,0.3282 68.0686111,0.972311111 66.4577222,2.22997778 L69.3971667,6.15208889 C70.1305,5.56053333 70.9139444,5.21708889 71.6986111,5.21708889" id="Fill-77"></path>
            <path d="M15.3247111,55.1456 L51.1957111,7.2956 C52.1991556,5.95482222 53.4140444,5.2166 54.6142667,5.2166 C55.8157111,5.2166 57.0293778,5.95482222 58.0328222,7.29437778 L93.9038222,55.1456 C94.5002667,55.9412667 94.7557111,56.5120444 94.8644889,56.8506 C94.5283778,56.9654889 93.9197111,57.1048222 92.9236,57.1048222 L16.3049333,57.1048222 C15.3088222,57.1048222 14.7001556,56.9654889 14.3652667,56.8506 C14.4740444,56.5120444 14.7282667,55.9412667 15.3247111,55.1456 M16.3049333,61.9937111 L92.9236,61.9937111 C99.6458222,61.9937111 101.848267,57.5924889 97.8149333,52.2134889 L61.9463778,4.36104444 C59.9297111,1.67215556 57.2713778,0.327711111 54.6142667,0.327711111 C51.9571556,0.327711111 49.3000444,1.67215556 47.2833778,4.36104444 L11.4136,52.2134889 C7.38148889,57.5924889 9.58271111,61.9937111 16.3049333,61.9937111" id="Fill-78"></path>
            <path d="M38.2163222,85.6916222 L33.3274333,85.6916222 C33.3274333,93.4967333 44.6574333,99.3817333 59.6809889,99.3817333 L59.6809889,94.4928444 C47.3964333,94.4928444 38.2163222,89.8459556 38.2163222,85.6916222" id="Fill-79"></path>
        </g>
    </g>
</svg>