<?xml version="1.0" encoding="UTF-8"?>
<svg width="96px" height="111px" viewBox="0 0 96 111" version="1.1" xmlns="http://www.w3.org/2000/svg" xmlns:xlink="http://www.w3.org/1999/xlink">
    <!-- Generator: Sketch 46.2 (44496) - http://www.bohemiancoding.com/sketch -->
    <title>icono eje 18</title>
    <desc>Created with Sketch.</desc>
    <defs></defs>
    <g id="Visual-Medioambiente-1280" stroke="none" stroke-width="1" fill="none" fill-rule="evenodd">
        <g id="icono-eje-18" fill="#36A9DF">
            <path d="M55.4378556,71.3585667 C51.8836333,74.9335667 49.0981889,76.0225667 43.5175222,76.0225667 C42.7328556,76.0225667 41.9701889,76.0189 41.2124111,76.0140111 C40.4558556,76.0091222 39.7029667,76.0042333 38.9403,76.0042333 L36.4958556,76.0042333 L36.4958556,78.4254556 L25.3638556,78.4254556 C14.5251889,78.4254556 5.70807778,69.6083444 5.70807778,58.7709 C5.70807778,52.0792333 9.08263333,45.9057889 14.7354111,42.2574556 L17.8288556,40.2627889 L16.7643,36.7391222 C16.3389667,35.3237889 16.1214111,33.8632333 16.1214111,32.4002333 C16.1214111,25.0485667 21.3855222,18.8372333 28.6381889,17.6284556 L31.3111889,17.1835667 L32.3488556,14.6804556 C34.6845222,9.05578889 40.1234111,5.42212222 46.2051889,5.42212222 C53.2146333,5.42212222 59.3770778,10.3892333 60.8571889,17.2349 L61.6638556,20.9626778 L65.4759667,21.0873444 C73.6074111,21.3537889 79.9788556,27.9293444 79.9788556,36.0559 C79.9788556,36.6144556 79.9348556,37.2206778 79.8395222,37.9674556 L79.4643,40.9142333 L81.9075222,42.6045667 C87.2278556,46.2846778 90.4019667,52.3285667 90.4019667,58.7709 C90.4019667,69.6083444 81.5860778,78.4254556 70.7486333,78.4254556 L59.6154111,78.4254556 L59.6154111,67.1565667 L55.4378556,71.3585667 Z M39.8398556,105.280122 C40.7785222,103.377122 41.3847444,100.766456 41.3847444,97.1829 L41.3847444,80.9041222 C42.0863,80.9077889 42.7927444,80.9114556 43.5175222,80.9114556 C48.2414111,80.9114556 51.6208556,80.1573444 54.7265222,78.2250111 L54.7265222,97.1829 C54.7265222,100.766456 55.3327444,103.377122 56.2714111,105.280122 L39.8398556,105.280122 Z M70.7486333,83.3143444 C84.3030778,83.3143444 95.2908556,72.3265667 95.2908556,58.7709 C95.2908556,50.3986778 91.0913,43.0127889 84.6905222,38.5846778 C84.7956333,37.7547889 84.8677444,36.9151222 84.8677444,36.0559 C84.8677444,25.2942333 76.3134111,16.5504556 65.6360778,16.2009 C63.6988556,7.24567778 55.7397444,0.533233333 46.2051889,0.533233333 C37.9209667,0.533233333 30.8235222,5.60178889 27.8339667,12.8055667 C18.4179667,14.3761222 11.2325222,22.5393444 11.2325222,32.4002333 C11.2325222,34.4010111 11.5356333,36.3296778 12.0844111,38.1495667 C5.3133,42.5190111 0.819188889,50.1139 0.819188889,58.7709 C0.819188889,72.3265667 11.8081889,83.3143444 25.3638556,83.3143444 L36.4958556,83.3143444 L36.4958556,97.1829 C36.4958556,105.280122 33.0919667,105.280122 31.8098556,105.280122 L23.4376333,105.280122 L23.4376333,110.169011 L72.6736333,110.169011 L72.6736333,105.280122 L64.3014111,105.280122 C63.0193,105.280122 59.6154111,105.280122 59.6154111,97.1829 L59.6154111,83.3143444 L70.7486333,83.3143444 Z" id="Fill-83"></path>
        </g>
    </g>
</svg>