<?xml version="1.0" encoding="UTF-8"?>
<svg width="111px" height="103px" viewBox="0 0 111 103" version="1.1" xmlns="http://www.w3.org/2000/svg" xmlns:xlink="http://www.w3.org/1999/xlink">
    <!-- Generator: Sketch 46.2 (44496) - http://www.bohemiancoding.com/sketch -->
    <title>icono eje 2</title>
    <desc>Created with Sketch.</desc>
    <defs></defs>
    <g id="Visual-Medioambiente-1280" stroke="none" stroke-width="1" fill="none" fill-rule="evenodd">
        <g id="icono-eje-2" fill="#36A9DF">
            <path d="M37.1054778,97.1503667 C34.0707,97.1503667 31.6018111,94.6814778 31.6018111,91.6479222 C31.6018111,88.6143667 34.0707,86.1442556 37.1054778,86.1442556 C40.1390333,86.1442556 42.6079222,88.6143667 42.6079222,91.6479222 C42.6079222,94.6814778 40.1390333,97.1503667 37.1054778,97.1503667 M37.1054778,81.2553667 C31.3659222,81.2553667 26.7129222,85.9095889 26.7129222,91.6479222 C26.7129222,97.3862556 31.3659222,102.039256 37.1054778,102.039256 C42.8438111,102.039256 47.4968111,97.3862556 47.4968111,91.6479222 C47.4968111,85.9095889 42.8438111,81.2553667 37.1054778,81.2553667" id="Fill-47"></path>
            <path d="M87.3478556,97.1503667 C84.3143,97.1503667 81.8441889,94.6814778 81.8441889,91.6479222 C81.8441889,88.6143667 84.3143,86.1442556 87.3478556,86.1442556 C90.3826333,86.1442556 92.8515222,88.6143667 92.8515222,91.6479222 C92.8515222,94.6814778 90.3826333,97.1503667 87.3478556,97.1503667 M87.3478556,81.2553667 C81.6095222,81.2553667 76.9553,85.9095889 76.9553,91.6479222 C76.9553,97.3862556 81.6095222,102.039256 87.3478556,102.039256 C93.0874111,102.039256 97.7404111,97.3862556 97.7404111,91.6479222 C97.7404111,85.9095889 93.0874111,81.2553667 87.3478556,81.2553667" id="Fill-48"></path>
            <path d="M52.7092222,70.596 L73.366,70.596 L73.366,57.3031111 L52.7092222,57.3031111 L52.7092222,70.596 Z M30.8644444,70.596 L27.8822222,57.3031111 L47.8203333,57.3031111 L47.8203333,70.596 L30.8644444,70.596 Z M47.8203333,22.8963333 L47.8203333,36.188 L23.1461111,36.188 L20.1651111,22.8963333 L47.8203333,22.8963333 Z M52.7092222,36.188 L73.366,36.188 L73.366,22.8963333 L52.7092222,22.8963333 L52.7092222,36.188 Z M103.964333,22.8963333 L100.983333,36.188 L78.2548889,36.188 L78.2548889,22.8963333 L103.964333,22.8963333 Z M78.2548889,41.0768889 L99.8857778,41.0768889 L97.3435556,52.4142222 L78.2548889,52.4142222 L78.2548889,41.0768889 Z M52.7092222,52.413 L73.366,52.413 L73.366,41.0768889 L52.7092222,41.0768889 L52.7092222,52.413 Z M24.2436667,41.0768889 L47.8203333,41.0768889 L47.8203333,52.4142222 L26.7871111,52.4142222 L24.2436667,41.0768889 Z M78.2548889,70.596 L78.2548889,57.3031111 L96.2472222,57.3031111 L93.2662222,70.596 L78.2548889,70.596 Z M78.2548889,75.4848889 L78.2548889,75.4848889 L97.1797778,75.4848889 L110.071778,18.0074444 L78.2548889,18.0074444 L73.366,18.0074444 L52.7092222,18.0074444 L47.8203333,18.0074444 L19.0541111,18.0074444 L12.4516667,0.785111111 L0.0717777778,0.785111111 L0.0717777778,5.674 L9.09055556,5.674 L14.3974444,19.5156667 L26.9521111,75.4848889 L47.8203333,75.4848889 L52.7092222,75.4848889 L73.366,75.4848889 L78.2548889,75.4848889 Z" id="Fill-49"></path>
        </g>
    </g>
</svg>