<?xml version="1.0" encoding="UTF-8"?>
<svg width="125px" height="131px" viewBox="0 0 125 131" version="1.1" xmlns="http://www.w3.org/2000/svg" xmlns:xlink="http://www.w3.org/1999/xlink">
    <!-- Generator: Sketch 46.2 (44496) - http://www.bohemiancoding.com/sketch -->
    <title>icono eje 10</title>
    <desc>Created with Sketch.</desc>
    <defs></defs>
    <g id="Visual-Medioambiente-1280" stroke="none" stroke-width="1" fill="none" fill-rule="evenodd">
        <g id="icono-eje-10" fill="#36A9DF">
            <path d="M63.8607889,43.7241778 C63.8607889,41.4031778 64.3509,39.5062889 65.3323444,38.0347333 C66.5423444,36.1696222 68.4074556,35.2382889 70.9240111,35.2382889 C73.4430111,35.2382889 75.2910111,36.1696222 76.4667889,38.0347333 C77.4482333,39.5062889 77.9395667,41.4031778 77.9395667,43.7241778 L77.9395667,53.4860667 C77.9395667,55.8400667 77.4482333,57.7540667 76.4667889,59.2256222 C75.2580111,61.0895111 73.4100111,62.0220667 70.9240111,62.0220667 C68.4074556,62.0220667 66.5423444,61.0895111 65.3323444,59.2256222 C64.3509,57.7540667 63.8607889,55.8400667 63.8607889,53.4860667 L63.8607889,43.7241778 Z M70.9240111,65.9955111 C74.4562333,65.9955111 77.2526778,64.8014 79.3133444,62.4144 C81.2750111,60.1251778 82.2564556,57.1478444 82.2564556,53.4860667 L82.2564556,43.7241778 C82.2564556,40.1271778 81.2750111,37.1828444 79.3133444,34.8948444 C77.2209,32.4748444 74.4244556,31.2648444 70.9240111,31.2648444 C67.4260111,31.2648444 64.6613444,32.4174 62.6336778,34.7237333 C60.6072333,37.0276222 59.5927889,40.0294 59.5927889,43.7241778 L59.5927889,53.4860667 C59.5927889,57.0842889 60.5901222,60.0445111 62.5860111,62.3655111 C64.6784556,64.7842889 67.4577889,65.9955111 70.9240111,65.9955111 L70.9240111,65.9955111 Z" id="Fill-20"></path>
            <path d="M43.9448,34.3057333 C47.2472444,34.3057333 50.2881333,34.7811778 53.0686889,35.7284 L54.0012444,31.9016222 C50.3712444,30.8566222 47.0199111,30.3322889 43.9448,30.3322889 C39.8246889,30.3322889 36.6689111,31.5581778 34.4774667,34.0124 C32.4815778,36.2674 31.4854667,39.2765111 31.4854667,43.0385111 L31.4854667,53.3381778 C31.4854667,57.1001778 32.4815778,60.0921778 34.4774667,62.3166222 C36.6689111,64.8014 39.8246889,66.0444 43.9448,66.0444 C46.7241333,66.0444 50.0925778,65.4724 54.0501333,64.3271778 L52.9709111,60.5505111 C49.7662444,61.5649556 46.7412444,62.0709556 43.8959111,62.0709556 C38.4668,62.0709556 35.7522444,59.0459556 35.7522444,52.9959556 L35.7522444,43.3819556 C35.7522444,37.3307333 38.4826889,34.3057333 43.9448,34.3057333" id="Fill-21"></path>
            <path d="M93.5485667,68.2151889 L91.4891222,69.6451889 C88.9151222,71.4760778 87.6281222,73.8581889 87.6281222,76.7951889 L87.6281222,78.8839667 L98.4386778,78.8839667 C98.7821222,78.8839667 98.9544556,78.7018556 98.9544556,78.3388556 L98.9544556,76.5666333 L90.1165667,76.5666333 C90.1361222,75.0413 90.6311222,73.7530778 91.6040111,72.7056333 C92.1381222,72.1336333 93.1476778,71.3233 94.6363444,70.2746333 C96.0272333,69.3017444 96.9989,68.4828556 97.5513444,67.8155222 C98.4289,66.7473 98.8689,65.5275222 98.8689,64.1549667 C98.8689,62.6296333 98.2907889,61.3658556 97.1382333,60.3648556 C95.9844556,59.3638556 94.5410111,58.8639667 92.8054556,58.8639667 C91.4329,58.8639667 89.8207889,59.2819667 87.9715667,60.1216333 L88.8014556,62.2091889 C90.4025667,61.5235222 91.7384556,61.1800778 92.8054556,61.1800778 C93.9861222,61.1800778 94.9015667,61.4856333 95.5505667,62.0943 C96.1213444,62.6296333 96.4085667,63.3153 96.4085667,64.1549667 C96.4085667,65.1266333 96.0944556,65.9467444 95.4637889,66.6128556 C94.9883444,67.1286333 94.3491222,67.6627444 93.5485667,68.2151889" id="Fill-22"></path>
            <path d="M101.477489,30.7249889 C100.1416,22.7976556 96.2170444,15.5645444 90.2147111,10.0718778 C83.5426,3.96687778 74.8733778,0.604544444 65.8436,0.604544444 C58.8647111,0.604544444 52.0654889,2.6041 46.2440444,6.38076667 C41.3906,9.50965556 37.3658222,13.7409889 34.5192667,18.7203222 C33.2884889,18.4856556 32.0051556,18.3597667 30.7218222,18.3597667 C19.8183778,18.3597667 10.9377111,27.2367667 10.9377111,38.1389889 C10.9377111,39.5506556 11.0904889,40.9122111 11.3508222,42.2432111 C4.29126667,47.3765444 0.00737777778,55.6387667 0.00737777778,64.4363222 C0.00737777778,71.5423222 2.65471111,78.4466556 7.47393333,83.9087667 C12.4276,89.5028778 18.9701556,92.8114333 25.9490444,93.1988778 L48.2154889,93.1988778 L48.2264889,93.1988778 L48.2264889,88.3099889 L48.2154889,88.3099889 L26.0920444,88.3099889 C20.5016,87.9628778 15.1934889,85.2519889 11.1406,80.6723222 C7.11337778,76.1109889 4.89626667,70.3445444 4.89626667,64.4363222 C4.89626667,57.2643222 8.38448889,50.4455444 14.2254889,46.1971 L16.7457111,44.3649889 L16.1492667,41.3069889 C15.9317111,40.1923222 15.8266,39.1558778 15.8266,38.1389889 C15.8266,29.9281 22.5084889,23.2486556 30.7218222,23.2486556 C31.6751556,23.2486556 32.6468222,23.3415444 33.6074889,23.5224333 L37.0309333,24.1726556 L38.7616,21.1476556 C41.2072667,16.8711 44.7113778,13.1848778 48.9023778,10.4825444 C53.9354889,7.21921111 59.7936,5.49343333 65.8436,5.49343333 C73.6621556,5.49343333 81.1458222,8.39987778 86.9134889,13.6786556 C92.1226,18.4428778 95.4910444,24.6199889 96.6570444,31.5389889 L97.1813778,34.6495444 L100.230822,35.4537667 C111.596267,38.4469889 119.862156,49.3895444 119.885378,61.4602111 C119.885378,68.2081 117.366378,74.6944333 112.787933,79.7287667 C108.253489,84.7325444 102.171711,87.7661 95.6499333,88.2831 L76.5539333,88.2831 L76.5539333,93.1719889 L95.8357111,93.1719889 C103.656711,92.6048778 110.970489,89.0139889 116.4106,83.0116556 C121.823822,77.0569889 124.774267,69.4156556 124.774267,61.4602111 C124.747378,47.0685444 114.920711,34.2669889 101.477489,30.7249889" id="Fill-23"></path>
            <polygon id="Fill-24" points="64.8347778 121.114556 64.8347778 81.2175556 59.9458889 81.2175556 59.9458889 121.113333 44.5483333 105.714556 41.0918889 109.172222 62.3903333 130.471889 83.69 109.172222 80.2335556 105.714556"></polygon>
        </g>
    </g>
</svg>