<?xml version="1.0" encoding="UTF-8"?>
<svg width="108px" height="82px" viewBox="0 0 108 82" version="1.1" xmlns="http://www.w3.org/2000/svg" xmlns:xlink="http://www.w3.org/1999/xlink">
    <!-- Generator: Sketch 46.2 (44496) - http://www.bohemiancoding.com/sketch -->
    <title>icono eje 7</title>
    <desc>Created with Sketch.</desc>
    <defs></defs>
    <g id="Visual-Medioambiente-1280" stroke="none" stroke-width="1" fill="none" fill-rule="evenodd">
        <path d="M4.89787521,39.3298889 C4.8367641,38.6368889 5.02987521,38.115 5.54443077,37.5845556 C8.00109743,35.0545556 15.6069863,34.232 21.3783197,34.232 C22.4685419,34.232 23.4939863,34.2613333 24.4057641,34.3138889 L27.6825419,34.5033333 L26.9259863,31.3096667 C25.6023197,25.7131111 24.4167641,15.5674444 26.8722085,12.1672222 C27.3048752,11.5695556 27.7852085,11.2884444 28.4782085,11.2273333 L96.2602085,5.29711111 L101.73332,67.8528889 L8.10987521,76.043 L4.89787521,39.3298889 Z M13.1380974,22.9032222 C15.3197641,20.3035556 18.1663197,17.8945556 20.7464308,15.9634444 C20.2343197,20.6482222 20.9370974,26.0064444 21.5359863,29.3467778 C18.1565419,29.3553333 12.8093197,29.5838889 8.30787521,30.8721111 C9.74398632,27.9791111 11.4722085,24.8905556 13.1380974,22.9032222 L13.1380974,22.9032222 Z M100.705431,0 L28.051653,6.35677778 C26.9430974,6.45455556 25.928653,6.78944444 25.0290974,7.33333333 L24.9924308,7.26977778 C24.5927641,7.49466667 15.159653,12.8871111 9.39320854,19.7596667 C4.9907641,25.0066667 0.598097432,36.0653333 0.413541877,36.5334444 L0.484430765,36.5615556 C0.0896529876,37.5564444 -0.0704581235,38.6307778 0.0285418765,39.7576667 L3.66465299,81.3401111 L107.030431,72.2981111 L100.705431,0 Z" id="icono-eje-7" fill="#36A9DF"></path>
    </g>
</svg>