<?xml version="1.0" encoding="UTF-8"?>
<svg width="60px" height="110px" viewBox="0 0 60 110" version="1.1" xmlns="http://www.w3.org/2000/svg" xmlns:xlink="http://www.w3.org/1999/xlink">
    <!-- Generator: Sketch 46.2 (44496) - http://www.bohemiancoding.com/sketch -->
    <title>icono eje 8</title>
    <desc>Created with Sketch.</desc>
    <defs></defs>
    <g id="Visual-Medioambiente-1280" stroke="none" stroke-width="1" fill="none" fill-rule="evenodd">
        <path d="M4.89744444,105.101333 L41.4345556,105.101333 L41.4345556,32.5722222 L4.89744444,32.5722222 L4.89744444,105.101333 Z M12.5045556,13.5984444 L48.576,13.5984444 L42.2937778,27.6747778 L6.22355556,27.6747778 L12.5045556,13.5984444 Z M13.3637778,8.69977778 L49.9008889,8.69977778 L49.9008889,4.89866667 L13.3637778,4.89866667 L13.3637778,8.69977778 Z M54.2177778,19.1803333 L50.0231111,22.3727778 L52.6447778,16.4975556 L54.2177778,19.1803333 Z M54.9792222,96.0275556 L46.332,102.609222 L46.332,31.3377778 L54.9792222,24.7548889 L54.9792222,96.0275556 Z M59.8766667,98.4561111 L59.8766667,19.1314444 L59.3975556,18.3308889 L54.7995556,10.4842222 L54.7995556,8.69977778 L54.7995556,0 L8.46755556,0 L8.46755556,10.6272222 L0.860444444,27.6747778 L0,29.6034444 L0,32.5722222 L0,110 L41.4345556,110 L44.7088889,110 L44.7247778,110 L46.332,108.774111 L46.332,108.764333 L59.8766667,98.4561111 Z" id="icono-eje-8" fill="#36A9DF"></path>
    </g>
</svg>