<?xml version="1.0" encoding="UTF-8"?>
<svg width="111px" height="111px" viewBox="0 0 111 111" version="1.1" xmlns="http://www.w3.org/2000/svg" xmlns:xlink="http://www.w3.org/1999/xlink">
    <!-- Generator: Sketch 46.2 (44496) - http://www.bohemiancoding.com/sketch -->
    <title>icono eje 12</title>
    <desc>Created with Sketch.</desc>
    <defs></defs>
    <g id="Visual-Medioambiente-1280" stroke="none" stroke-width="1" fill="none" fill-rule="evenodd">
        <g id="icono-eje-12" transform="translate(0.000000, 0.000000)" fill="#36A9DF">
            <polygon id="Fill-53" points="55.8791667 18.0799778 54.5432778 22.0057556 50.2178333 21.3983111 53.7170556 24.4306444 52.3811667 28.3552 55.8791667 26.3043111 59.3771667 29.3390889 58.0425 25.0380889 61.5392778 22.9896444 57.2150556 22.3809778"></polygon>
            <polygon id="Fill-54" points="57.2146889 88.8305111 55.8788 84.5295111 54.5429111 88.4552889 50.2174667 87.8478444 53.7179111 90.8814 52.3808 94.8059556 55.8788 92.7562889 59.3780222 95.7886222 58.0421333 91.4888444 61.5389111 89.4391778"></polygon>
            <polygon id="Fill-55" points="87.8287889 60.0187 83.5045667 59.4112556 87.0013444 62.4435889 85.6654556 66.3693667 89.1646778 64.3197 92.6626778 67.3532556 91.3255667 63.0510333 94.8247889 61.0025889 90.5017889 60.3951444 89.1646778 56.0941444"></polygon>
            <polygon id="Fill-56" points="22.6535444 54.8612889 26.1515444 57.8936222 24.8168778 53.5938444 28.3148778 51.5441778 23.9906556 50.9355111 22.6535444 46.6369556 21.3176556 50.5602889 16.9934333 49.9528444 20.4914333 52.9864 19.1567667 56.9109556"></polygon>
            <polygon id="Fill-57" points="27.0841 30.4239333 25.7469889 34.3497111 21.4239889 33.7422667 24.9219889 36.7746 23.5861 40.6991556 27.0841 38.6494889 30.5821 41.6830444 29.2462111 37.3820444 32.7442111 35.3336 28.4212111 34.7261556"></polygon>
            <polygon id="Fill-58" points="38.9339111 19.9074444 37.5980222 23.832 33.2738 23.2245556 36.7718 26.2568889 35.4359111 30.1814444 38.9339111 28.1317778 42.4331333 31.1653333 41.0972444 26.8643333 44.5952444 24.8158889 40.2710222 24.2084444"></polygon>
            <polygon id="Fill-59" points="80.6219556 48.7155889 84.1199556 46.6659222 87.6191778 49.6994778 86.2832889 45.3984778 89.7812889 43.3488111 85.4570667 42.7401444 84.1199556 38.4403667 82.7852889 42.3661444 78.4598444 41.7587 81.9590667 44.7910333"></polygon>
            <polygon id="Fill-60" points="72.1595333 24.5767 70.8224222 28.5012556 66.4982 27.8938111 69.9974222 30.9273667 68.6615333 34.8507 72.1595333 32.8010333 75.6575333 35.8345889 74.3216444 31.5348111 77.8208667 29.4851444 73.4954222 28.8777"></polygon>
            <polygon id="Fill-61" points="28.4209667 67.9500667 27.0838556 63.6490667 25.7467444 67.5736222 21.4237444 66.9661778 24.9229667 69.9997333 23.5858556 73.9242889 27.0838556 71.8746222 30.5830778 74.9069556 29.2459667 70.6071778 32.7439667 68.5575111"></polygon>
            <polygon id="Fill-62" points="40.2707778 81.4661333 38.9336667 77.1639111 37.5977778 81.0896889 33.2735556 80.4822444 36.7727778 83.5158 35.4356667 87.4403556 38.9336667 85.3906889 42.4341111 88.4230222 41.097 84.1232444 44.595 82.0735778"></polygon>
            <polygon id="Fill-63" points="80.6219556 81.9399889 84.1199556 79.8903222 87.6191778 82.9238778 86.2832889 78.6228778 89.7812889 76.5732111 85.4570667 75.9657667 84.1199556 71.6659889 82.7852889 75.5905444 78.4598444 74.9831 81.9590667 78.0154333"></polygon>
            <polygon id="Fill-64" points="73.4951778 86.1353889 72.1592889 81.8343889 70.8221778 85.7589444 66.4979556 85.1515 69.9984 88.1850556 68.6612889 92.1108333 72.1592889 90.0599444 75.6585111 93.0922778 74.3214 88.7925 77.8206222 86.7428333"></polygon>
            <path d="M106.0201,95.8009667 C102.320433,98.6585222 92.1576556,105.344078 78.0788778,105.344078 C71.5839889,105.344078 64.9901,103.898189 58.4781,101.050411 C41.8546556,93.7781889 25.4756556,92.2516333 14.6602111,92.2516333 C11.1597667,92.2516333 8.15676667,92.4093 5.79787778,92.5999667 L5.79787778,5.50807778 C8.01132222,5.30763333 11.0399889,5.12185556 14.6614333,5.12185556 C24.5418778,5.12185556 39.4847667,6.50541111 54.5584333,13.1005222 C62.3134333,16.4934111 70.2273222,18.2143 78.0788778,18.2143 C90.0811,18.2143 99.7171,14.2420778 106.0201,10.6071889 L106.0201,95.8009667 Z M78.0788778,13.3254111 C71.5766556,13.3254111 64.3252111,12.0371889 56.5176556,8.62107778 C40.8096556,1.74852222 25.2947667,0.232966667 14.6614333,0.232966667 C6.26354444,0.232966667 0.908988889,1.17774444 0.908988889,1.17774444 L0.908988889,98.0853 C0.908988889,98.0853 6.26476667,97.1405222 14.6602111,97.1405222 C25.2935444,97.1405222 40.8084333,98.6560778 56.5176556,105.528633 C64.3227667,108.943522 71.5778778,110.232967 78.0788778,110.232967 C98.0438778,110.232967 110.908989,98.0853 110.908989,98.0853 L110.908989,1.17774444 C110.908989,1.17774444 98.0414333,13.3254111 78.0788778,13.3254111 L78.0788778,13.3254111 Z" id="Fill-65"></path>
        </g>
    </g>
</svg>