<?xml version="1.0" encoding="UTF-8"?>
<svg width="111px" height="111px" viewBox="0 0 111 111" version="1.1" xmlns="http://www.w3.org/2000/svg" xmlns:xlink="http://www.w3.org/1999/xlink">
    <!-- Generator: Sketch 46.2 (44496) - http://www.bohemiancoding.com/sketch -->
    <title>icono eje 11</title>
    <desc>Created with Sketch.</desc>
    <defs></defs>
    <g id="Visual-Medioambiente-1280" stroke="none" stroke-width="1" fill="none" fill-rule="evenodd">
        <g id="icono-eje-11" transform="translate(0.000000, 0.000000)" fill="#36A9DF">
            <path d="M31.6976667,15.2106889 L62.4011111,15.2106889 L66.3721111,15.2106889 L78.4183333,15.2106889 L81.81,25.6276889 L66.3721111,25.6276889 L62.4011111,25.6276889 L28.306,25.6276889 L31.6976667,15.2106889 Z M66.3721111,30.5165778 L88.5444444,30.5165778 L81.9676667,10.3218 L66.3721111,10.3218 L62.4011111,10.3218 L28.1483333,10.3218 L21.5727778,30.5165778 L62.4011111,30.5165778 L66.3721111,30.5165778 Z" id="Fill-25"></path>
            <polygon id="Fill-26" points="17.7643333 47.7838889 33.223 47.7838889 33.223 42.895 17.7643333 42.895"></polygon>
            <polygon id="Fill-27" points="76.8917778 47.7838889 92.3504444 47.7838889 92.3504444 42.895 76.8917778 42.895"></polygon>
            <path d="M90.0832222,84.1731111 L98.2611111,84.1731111 L98.2611111,71.462 L90.0832222,71.462 L90.0832222,84.1731111 Z M11.8548889,84.1731111 L20.0327778,84.1731111 L20.0327778,71.462 L11.8548889,71.462 L11.8548889,84.1731111 Z M110.056778,30.1117778 L99.7607778,30.1117778 L90.0587778,0.317666667 L59.0106667,0.317666667 L51.1065556,0.317666667 L20.0572222,0.317666667 L10.3552222,30.1117778 L0.0567777778,30.1117778 L0.0567777778,35.0006667 L8.76266667,35.0006667 L6.966,40.5214444 L6.966,66.5217778 L6.966,71.462 L6.966,89.062 L24.9216667,89.062 L24.9216667,71.462 L40.8936667,71.462 L40.8936667,66.5731111 L24.9216667,66.5731111 L24.9216667,66.5217778 L11.8548889,66.5217778 L11.8548889,41.2975556 L23.6065556,5.20655556 L51.1065556,5.20655556 L59.0106667,5.20655556 L86.5094444,5.20655556 L98.2611111,41.2975556 L98.2611111,66.5217778 L85.1943333,66.5217778 L85.1943333,66.5731111 L69.2223333,66.5731111 L69.2223333,71.462 L85.1943333,71.462 L85.1943333,89.062 L103.15,89.062 L103.15,71.462 L103.15,66.5217778 L103.15,40.5214444 L101.352111,35.0006667 L110.056778,35.0006667 L110.056778,30.1117778 Z" id="Fill-28"></path>
            <path d="M62.4072222,97.2904889 L47.71,97.2904889 L47.71,89.9400444 C47.71,85.8896 51.0063333,82.5932667 55.058,82.5932667 C59.1108889,82.5932667 62.4072222,85.8896 62.4072222,89.9400444 L62.4072222,97.2904889 Z M57.5012222,77.9488222 L57.5012222,66.5222667 L52.6123333,66.5222667 L52.6123333,77.9488222 C47.0267778,79.0818222 42.8211111,84.0208222 42.8211111,89.9400444 L42.8211111,102.179378 L67.2961111,102.179378 L67.2961111,89.9400444 C67.2961111,84.0196 63.0904444,79.0818222 57.5012222,77.9488222 L57.5012222,77.9488222 Z" id="Fill-29"></path>
            <polygon id="Fill-30" points="59.4176667 110.317667 64.3065556 110.317667 64.3065556 102.180111 59.4176667 102.180111"></polygon>
            <polygon id="Fill-31" points="45.8082222 110.317667 50.6971111 110.317667 50.6971111 102.180111 45.8082222 102.180111"></polygon>
        </g>
    </g>
</svg>