<?xml version="1.0" encoding="UTF-8"?>
<svg width="110px" height="110px" viewBox="0 0 110 110" version="1.1" xmlns="http://www.w3.org/2000/svg" xmlns:xlink="http://www.w3.org/1999/xlink">
    <!-- Generator: Sketch 46.2 (44496) - http://www.bohemiancoding.com/sketch -->
    <title>icono eje 1</title>
    <desc>Created with Sketch.</desc>
    <defs></defs>
    <g id="Visual-Medioambiente-1280" stroke="none" stroke-width="1" fill="none" fill-rule="evenodd">
        <path d="M14.8328889,84.9285556 L32.3693333,84.9285556 C36.2083333,92.4293333 41.4443333,99.0892222 47.7338889,104.578222 C34.3151111,102.620222 22.6025556,95.3308889 14.8328889,84.9285556 L14.8328889,84.9285556 Z M4.95122222,57.4346667 L25.2242222,57.4346667 C25.5151111,65.4145556 27.2213333,73.0302222 30.1082222,80.0396667 L11.6221111,80.0396667 C7.73177778,73.326 5.346,65.6394444 4.95122222,57.4346667 L4.95122222,57.4346667 Z M11.6343333,29.9395556 L30.1167778,29.9395556 C27.2274444,36.9477778 25.5175556,44.5658889 25.2254444,52.5457778 L4.95244444,52.5457778 C5.34966667,44.3385556 7.74033333,36.652 11.6343333,29.9395556 L11.6343333,29.9395556 Z M47.7338889,5.42177778 C41.4504444,10.9058889 36.2181111,17.5584444 32.3803333,25.0506667 L14.8487778,25.0506667 C22.6184444,14.6593333 34.3236667,7.37977778 47.7338889,5.42177778 L47.7338889,5.42177778 Z M95.1536667,25.0506667 L77.6208889,25.0506667 C73.7818889,17.5584444 68.5507778,10.9058889 62.2673333,5.42177778 C75.6763333,7.37855556 87.3815556,14.6593333 95.1536667,25.0506667 L95.1536667,25.0506667 Z M62.2673333,104.578222 C68.5568889,99.0892222 73.7928889,92.4293333 77.6318889,84.9285556 L95.1683333,84.9285556 C87.3974444,95.3308889 75.6861111,102.620222 62.2673333,104.578222 L62.2673333,104.578222 Z M52.5555556,84.9285556 L52.5555556,102.232778 C46.673,97.4392222 41.7058889,91.5688889 37.9426667,84.9285556 L52.5555556,84.9285556 Z M52.5555556,57.4346667 L52.5555556,80.0396667 L35.4591111,80.0396667 C32.3143333,73.0937778 30.4321111,65.4646667 30.1143333,57.4346667 L52.5555556,57.4346667 Z M52.5555556,29.9395556 L52.5555556,52.5457778 L30.1143333,52.5457778 C30.4357778,44.5145556 32.3204444,36.883 35.4688889,29.9395556 L52.5555556,29.9395556 Z M52.5555556,7.76722222 L52.5555556,25.0506667 L37.9561111,25.0506667 C41.7168889,18.4188889 46.6791111,12.5546667 52.5555556,7.76722222 L52.5555556,7.76722222 Z M57.4444444,25.0506667 L57.4444444,7.766 C63.3221111,12.5546667 68.2831111,18.4176667 72.0463333,25.0506667 L57.4444444,25.0506667 Z M79.8868889,52.5457778 L57.4444444,52.5457778 L57.4444444,29.9395556 L74.5335556,29.9395556 C77.682,36.883 79.5666667,44.5145556 79.8868889,52.5457778 L79.8868889,52.5457778 Z M72.0573333,84.9285556 C68.2941111,91.5701111 63.3282222,97.4404444 57.4444444,102.234 L57.4444444,84.9285556 L72.0573333,84.9285556 Z M57.4444444,80.0396667 L57.4444444,57.4346667 L79.8881111,57.4346667 C79.5703333,65.4646667 77.6881111,73.0937778 74.5433333,80.0396667 L57.4444444,80.0396667 Z M105.05,57.4346667 C104.655222,65.6394444 102.269444,73.326 98.3791111,80.0396667 L79.893,80.0396667 C82.7811111,73.0302222 84.4848889,65.4145556 84.777,57.4346667 L105.05,57.4346667 Z M84.777,52.5457778 C84.4824444,44.5658889 82.775,36.9477778 79.8856667,29.9395556 L98.3668889,29.9395556 C102.260889,36.652 104.651556,44.3385556 105.048778,52.5457778 L84.777,52.5457778 Z M60.0746667,109.758 C60.3863333,109.729889 60.6967778,109.701778 61.006,109.667556 C61.6073333,109.601556 62.2037778,109.524556 62.799,109.440222 C79.8245556,107.022667 94.3298889,96.811 102.605556,82.5305556 C102.609222,82.5256667 102.612889,82.5183333 102.616556,82.5134444 C107.303778,74.4186667 110,65.0271111 110,55 C110,44.9631111 107.298889,35.563 102.603111,27.4621111 C102.600667,27.4584444 102.598222,27.4535556 102.594556,27.4498889 C94.3152222,13.1792222 79.8135556,2.97488889 62.7953333,0.561 C62.2025556,0.475444444 61.6073333,0.398444444 61.0072222,0.332444444 C60.6955556,0.299444444 60.3838889,0.270111111 60.071,0.242 C59.5087778,0.190666667 58.9441111,0.147888889 58.377,0.112444444 C58.0958889,0.0965555556 57.8172222,0.077 57.5348889,0.0635555556 C56.7037778,0.0256666667 55.8677778,0.00122222222 55.0268889,0.00122222222 C55.0183333,0.00122222222 55.0085556,0 55,0 C54.9914444,0 54.9841111,0.00122222222 54.9755556,0.00122222222 C54.1334444,0.00122222222 53.2986667,0.0256666667 52.4663333,0.0635555556 C52.1852222,0.077 51.9041111,0.0965555556 51.6242222,0.112444444 C51.0583333,0.147888889 50.4924444,0.190666667 49.9314444,0.242 C49.6185556,0.270111111 49.3056667,0.299444444 48.994,0.332444444 C48.3938889,0.398444444 47.7986667,0.475444444 47.2046667,0.561 C31.1556667,2.838 17.3457778,12.0401111 8.88066667,25.0506667 L8.87944444,25.0506667 C8.36855556,25.8353333 7.87844444,26.6358889 7.40666667,27.4498889 C7.40422222,27.4535556 7.40177778,27.4584444 7.39811111,27.4621111 C3.08855556,34.8981111 0.463222222,43.4304444 0.0623333333,52.5457778 C0.0268888889,53.3597778 0,54.1762222 0,55 C0,55.8164444 0.0268888889,56.6267778 0.0623333333,57.4346667 C0.415555556,65.5514444 2.53366667,73.2062222 6.03655556,80.0396667 C6.03655556,80.0408889 6.03777778,80.0408889 6.03777778,80.0433333 C6.46555556,80.8793333 6.91411111,81.7018889 7.38466667,82.5134444 C7.38711111,82.5183333 7.39077778,82.5256667 7.39444444,82.5305556 C7.86622222,83.3433333 8.35511111,84.1414444 8.86477778,84.9273333 C8.866,84.9273333 8.866,84.9273333 8.866,84.9285556 C17.2076667,97.7606667 30.7474444,106.902889 46.5104444,109.346111 C46.739,109.381556 46.9712222,109.407222 47.201,109.440222 C47.7974444,109.524556 48.3938889,109.601556 48.9952222,109.667556 C49.3044444,109.701778 49.6148889,109.729889 49.9265556,109.758 C50.4936667,109.809333 51.0632222,109.853333 51.634,109.887556 C51.9102222,109.904667 52.184,109.923 52.459,109.935222 C53.3023333,109.974333 54.1481111,110 55,110 C55.8531111,110 56.6988889,109.974333 57.541,109.935222 C57.8184444,109.923 58.0934444,109.904667 58.3672222,109.887556 C58.9392222,109.853333 59.5087778,109.809333 60.0746667,109.758 L60.0746667,109.758 Z" id="icono-eje-1" fill="#36A9DF"></path>
    </g>
</svg>