<?xml version="1.0" encoding="UTF-8"?>
<svg width="111px" height="111px" viewBox="0 0 111 111" version="1.1" xmlns="http://www.w3.org/2000/svg" xmlns:xlink="http://www.w3.org/1999/xlink">
    <!-- Generator: Sketch 46.2 (44496) - http://www.bohemiancoding.com/sketch -->
    <title>icono eje 17</title>
    <desc>Created with Sketch.</desc>
    <defs></defs>
    <g id="Visual-Medioambiente-1280" stroke="none" stroke-width="1" fill="none" fill-rule="evenodd">
        <g id="icono-eje-17" fill="#36A9DF">
            <path d="M22.6365222,58.3359667 C14.0528556,56.8509667 12.0471889,55.3305222 11.6279667,54.8893 C12.7548556,52.5793 23.1131889,48.3039667 28.7403,45.9817444 C40.5347444,41.1111889 46.1667444,38.5885222 45.3454111,34.4476333 C44.6389667,30.8799667 40.9136333,28.1519667 0.861411111,28.1519667 L0.861411111,33.0408556 C28.3711889,33.0408556 37.0734111,34.4464111 39.7916333,35.4241889 C37.4486333,37.0974111 31.2165222,39.6701889 26.8751889,41.4619667 C14.0015222,46.7761889 6.13896667,50.2961889 6.70974444,55.4466333 C7.11674444,59.1365222 11.4898556,61.3695222 21.8029667,63.1527444 C31.8239667,64.8858556 38.7539667,69.1941889 42.4023,75.9567444 C49.1367444,88.4417444 43.2040778,106.027078 41.4734111,110.557856 L46.6910778,110.557856 C49.1013,103.702411 53.7738556,86.7624111 46.7130778,73.6528556 C42.3191889,65.4920778 34.2183,60.3391889 22.6365222,58.3359667" id="Fill-80"></path>
            <path d="M96.6203222,15.3732667 L103.973211,36.4077111 L89.2674333,36.4077111 L96.6203222,15.3732667 Z M94.1758778,54.1409333 L99.0647667,54.1409333 L99.0647667,41.2966 L110.860433,41.2966 L96.6203222,0.558711111 L82.3802111,41.2966 L94.1758778,41.2966 L94.1758778,54.1409333 Z" id="Fill-81"></path>
            <path d="M58.1609,51.8977889 C51.2516778,51.1497889 48.8475667,50.1805667 48.0506778,49.7063444 C49.5063444,47.9304556 55.9156778,44.7099 59.8646778,42.7274556 C69.4261222,37.9241222 76.9782333,34.1315667 75.7584556,28.9909 C74.6205667,24.1851222 67.8995667,19.4942333 0.860677778,19.4942333 L0.860677778,24.3831222 C59.8659,24.3831222 69.6155667,28.2759 70.9539,30.0799 C70.1765667,32.0770111 62.0695667,36.1482333 57.6707889,38.3592333 C48.6837889,42.8716778 42.1913444,46.1325667 43.0016778,50.6120111 C43.6066778,53.9596778 47.7084556,55.6842333 57.6353444,56.7585667 C75.5445667,58.6957889 88.6675667,65.1197889 96.6425667,75.8509 C106.337233,88.8956778 105.7249,104.916567 105.138233,110.557122 L110.067456,110.557122 C110.738456,103.842233 111.089233,87.1295667 100.5989,72.9774556 C91.7817889,61.0840111 77.5037889,53.9914556 58.1609,51.8977889" id="Fill-82"></path>
        </g>
    </g>
</svg>