<?xml version="1.0" encoding="UTF-8"?>
<svg width="114px" height="107px" viewBox="0 0 114 107" version="1.1" xmlns="http://www.w3.org/2000/svg" xmlns:xlink="http://www.w3.org/1999/xlink">
    <!-- Generator: Sketch 46.2 (44496) - http://www.bohemiancoding.com/sketch -->
    <title>icono eje 3</title>
    <desc>Created with Sketch.</desc>
    <defs></defs>
    <g id="Visual-Medioambiente-1280" stroke="none" stroke-width="1" fill="none" fill-rule="evenodd">
        <g id="icono-eje-3" fill="#36A9DF">
            <path d="M44.7257111,42.3966889 C44.7257111,40.4252444 43.1258222,38.8253556 41.1531556,38.8253556 C39.1804889,38.8253556 37.5806,40.4252444 37.5806,42.3966889 C37.5806,44.3705778 39.1804889,45.9704667 41.1531556,45.9704667 C43.1258222,45.9704667 44.7257111,44.3705778 44.7257111,42.3966889" id="Fill-41"></path>
            <path d="M73.5350778,45.9702222 C75.5077444,45.9702222 77.1076333,44.3703333 77.1076333,42.3964444 C77.1076333,40.425 75.5077444,38.8251111 73.5350778,38.8251111 C71.5624111,38.8251111 69.9625222,40.425 69.9625222,42.3964444 C69.9625222,44.3703333 71.5624111,45.9702222 73.5350778,45.9702222" id="Fill-42"></path>
            <path d="M50.7115444,88.0772444 C48.7401,88.0772444 47.1402111,89.6771333 47.1402111,91.6498 C47.1402111,93.6224667 48.7401,95.2223556 50.7115444,95.2223556 C52.6854333,95.2223556 54.2853222,93.6224667 54.2853222,91.6498 C54.2853222,89.6771333 52.6854333,88.0772444 50.7115444,88.0772444" id="Fill-43"></path>
            <path d="M63.9769333,88.0772444 C62.0042667,88.0772444 60.4043778,89.6771333 60.4043778,91.6498 C60.4043778,93.6224667 62.0042667,95.2223556 63.9769333,95.2223556 C65.9496,95.2223556 67.5494889,93.6224667 67.5494889,91.6498 C67.5494889,89.6771333 65.9496,88.0772444 63.9769333,88.0772444" id="Fill-44"></path>
            <path d="M99.5944444,46.0741111 C96.545,46.2831111 93.355,45.0645556 90.143,42.3976667 C93.355,39.732 96.5474444,38.4975556 99.5944444,38.7212222 C102.991,38.9705556 105.662778,40.9725556 107.157556,42.3976667 C105.661556,43.824 102.989778,45.8247778 99.5944444,46.0741111 L99.5944444,46.0741111 Z M64.6254444,101.289222 L62.0697778,101.289222 L41.6012222,101.289222 L44.1446667,86.5577778 L62.0697778,86.5577778 L64.6254444,86.5577778 L70.5434444,86.5577778 L73.0881111,101.289222 L64.6254444,101.289222 Z M17.2985556,46.0741111 C14.243,46.2831111 11.0591111,45.0645556 7.84711111,42.3976667 C11.0591111,39.732 14.2454444,38.4975556 17.2985556,38.7212222 C20.6951111,38.9705556 23.3668889,40.9725556 24.8616667,42.3976667 C23.3656667,43.824 20.6938889,45.8247778 17.2985556,46.0741111 L17.2985556,46.0741111 Z M8.71,20.438 L8.71,11.803 L14.1146667,17.2088889 L25.7184444,17.2088889 L25.7184444,20.438 L8.71,20.438 Z M30.6073333,17.2088889 L84.082,17.2088889 L84.082,38.3692222 L72.6615556,81.6688889 L64.6254444,81.6688889 L62.0697778,81.6688889 L42.0265556,81.6688889 L30.6073333,38.3692222 L30.6073333,17.2088889 Z M100.573444,17.2088889 L105.979333,11.803 L105.979333,20.438 L88.9708889,20.438 L88.9708889,17.2088889 L100.573444,17.2088889 Z M112.432667,40.9566667 C112.238333,40.6902222 107.587778,34.4373333 100.011222,33.8506667 C96.2797778,33.5561111 92.5862222,34.6915556 88.9708889,37.1775556 L88.9708889,25.3268889 L110.868222,25.3268889 L110.868222,0.00122222222 L98.5494444,12.32 L88.9708889,12.32 L86.5264444,12.32 L28.1628889,12.32 L25.7184444,12.32 L16.1398889,12.32 L3.82111111,0.00122222222 L3.82111111,25.3268889 L25.7184444,25.3268889 L25.7184444,36.8108889 C23.6663333,35.3955556 20.9627778,34.1012222 17.7153333,33.8506667 C12.5428889,33.4412222 7.42666667,35.7438889 2.50233333,40.6694444 L0.772888889,42.3976667 L2.50233333,44.1258889 C7.06,48.686 11.7851111,50.9886667 16.5627778,50.9886667 C16.9465556,50.9886667 17.3303333,50.9752222 17.7153333,50.9446667 C22.1397778,50.6024444 25.5571111,48.3315556 27.6801111,46.4444444 L38.8182222,88.671 L35.7956667,106.178111 L62.0697778,106.178111 L64.6254444,106.178111 L78.8936667,106.178111 L75.8711111,88.671 L87.0776667,46.1816667 C90.924,49.3618889 94.873,50.9886667 98.8586667,50.9886667 C99.2424444,50.9886667 99.6262222,50.9752222 100.011222,50.9446667 C107.587778,50.3592222 112.238333,44.1063333 112.432667,43.8398889 L113.485,42.3976667 L112.432667,40.9566667 Z" id="Fill-45"></path>
        </g>
    </g>
</svg>