<?xml version="1.0" encoding="UTF-8"?>
<svg width="86px" height="111px" viewBox="0 0 86 111" version="1.1" xmlns="http://www.w3.org/2000/svg" xmlns:xlink="http://www.w3.org/1999/xlink">
    <!-- Generator: Sketch 46.2 (44496) - http://www.bohemiancoding.com/sketch -->
    <title>icono eje 5</title>
    <desc>Created with Sketch.</desc>
    <defs></defs>
    <g id="Visual-Medioambiente-1280" stroke="none" stroke-width="1" fill="none" fill-rule="evenodd">
        <g id="icono-eje-5" transform="translate(0.000000, 0.000000)" fill="#36A9DF">
            <path d="M80.9877,24.3241111 L78.0042556,24.3241111 L8.82892222,24.3241111 L5.84547778,24.3241111 L5.84547778,16.4187778 L25.4218111,16.4187778 L61.4101444,16.4187778 L80.9877,16.4187778 L80.9877,24.3241111 Z M13.7178111,105.323222 L73.1153667,105.323222 L73.1153667,29.213 L13.7178111,29.213 L13.7178111,105.323222 Z M30.3107,11.5298889 L56.5212556,11.5298889 L56.5212556,5.101 L30.3107,5.101 L30.3107,11.5298889 Z M80.9877,11.5298889 L61.4101444,11.5298889 L61.4101444,0.212111111 L25.4218111,0.212111111 L25.4218111,11.5298889 L5.84547778,11.5298889 L0.956588889,11.5298889 L0.956588889,16.4187778 L0.956588889,24.3241111 L0.956588889,29.213 L5.84547778,29.213 L8.82892222,29.213 L8.82892222,110.212111 L78.0042556,110.212111 L78.0042556,29.213 L80.9877,29.213 L85.8765889,29.213 L85.8765889,24.3241111 L85.8765889,16.4187778 L85.8765889,11.5298889 L80.9877,11.5298889 Z" id="Fill-15"></path>
            <polygon id="Fill-16" points="25.0291111 97.2198889 29.918 97.2198889 29.918 37.3163333 25.0291111 37.3163333"></polygon>
            <polygon id="Fill-17" points="40.9717778 97.2198889 45.8606667 97.2198889 45.8606667 37.3163333 40.9717778 37.3163333"></polygon>
            <polygon id="Fill-18" points="56.9156667 97.2198889 61.8045556 97.2198889 61.8045556 37.3163333 56.9156667 37.3163333"></polygon>
        </g>
    </g>
</svg>