<?xml version="1.0" encoding="UTF-8"?>
<svg width="111px" height="111px" viewBox="0 0 111 111" version="1.1" xmlns="http://www.w3.org/2000/svg" xmlns:xlink="http://www.w3.org/1999/xlink">
    <!-- Generator: Sketch 46.2 (44496) - http://www.bohemiancoding.com/sketch -->
    <title>icono eje 14</title>
    <desc>Created with Sketch.</desc>
    <defs></defs>
    <g id="Visual-Medioambiente-1280" stroke="none" stroke-width="1" fill="none" fill-rule="evenodd">
        <g id="icono-eje-14" fill="#36A9DF">
            <path d="M55.4966889,0.302877778 C25.1208,0.302877778 0.496688889,24.9269889 0.496688889,55.3028778 C0.496688889,85.6799889 25.1208,110.302878 55.4966889,110.302878 C85.8725778,110.302878 110.496689,85.6799889 110.496689,55.3028778 C110.496689,24.9269889 85.8725778,0.302877778 55.4966889,0.302877778 M55.4966889,5.19176667 C83.1274667,5.19176667 105.6078,27.6721 105.6078,55.3028778 C105.6078,82.9336556 83.1274667,105.413989 55.4966889,105.413989 C27.8659111,105.413989 5.38557778,82.9336556 5.38557778,55.3028778 C5.38557778,27.6721 27.8659111,5.19176667 55.4966889,5.19176667" id="Fill-66"></path>
            <path d="M2.84567778,48.6392 C3.73056667,47.9767556 5.10556667,47.3900889 5.62134444,47.0527556 C6.12612222,46.7166444 8.38478889,45.5983111 9.13523333,45.7987556 C9.89056667,46.0004222 10.3892333,45.7327556 9.76467778,44.6144222 C9.13523333,43.4960889 8.32001111,40.1276444 7.12467778,38.6194222 C5.92934444,37.1075333 5.79978889,36.7005333 5.23512222,35.2619778 C5.07134444,34.8403111 4.9039,34.4455333 4.73523333,34.1069778 C2.64523333,39.1070889 1.27634444,44.4824222 0.748344444,50.1009778 C1.54645556,49.7245333 2.04756667,49.2393111 2.84567778,48.6392" id="Fill-67"></path>
            <path d="M103.199167,78.1145556 C102.943722,79.2988889 101.2485,80.1507778 100.608056,80.086 C100.032389,80.0212222 100.358722,79.4284444 100.358722,78.8918889 C100.358722,78.3651111 100.0275,77.842 98.5926111,78.2404444 C97.1381667,78.6303333 96.8387222,80.0163333 96.4488333,79.8904444 C96.0785,79.7608889 95.0628333,79.4944444 94.4443889,80.2228889 C93.8137222,80.9501111 93.2392778,82.3348889 92.4937222,82.6013333 C91.7335,82.8677778 89.2145,83.1867778 89.2145,84.2513333 C89.2145,85.3061111 89.8488333,86.8864444 89.7828333,87.7444444 C89.7192778,88.6024444 88.5728333,90.5738889 90.0981667,91.1776667 C90.9781667,91.5186667 91.6039444,91.5687778 92.6245,91.0456667 C93.6120556,90.5274444 97.8128333,89.1842222 98.4985,89.5741111 C100.878167,86.5931111 102.951056,83.3627778 104.675611,79.9234444 C104.167167,78.6327778 103.400833,77.1392222 103.199167,78.1145556" id="Fill-68"></path>
            <path d="M12.5948556,34.8115889 C13.6105222,34.9362556 13.3550778,36.3919222 14.0493,35.8590333 C14.7398556,35.3273667 14.8596333,34.1540333 15.4340778,32.4319222 C15.9999667,30.7269222 15.9999667,29.4668111 17.4507444,28.6088111 C18.9003,27.7508111 22.9189667,24.9861444 23.7989667,23.9912556 C24.6850778,22.9975889 25.6897444,22.6077 25.3744111,20.8965889 C25.0480778,19.1805889 24.7400778,17.7945889 25.2387444,16.8009222 C25.5968556,16.0993667 26.4658556,14.3467 26.9327444,13.3848111 L19.9086333,13.3848111 C15.5013,17.1309222 11.6867444,21.5541444 8.63974444,26.5041444 C8.67152222,27.3853667 8.87318889,28.4499222 9.39507778,29.6024778 C10.3948556,31.8391444 11.5901889,34.6759222 12.5948556,34.8115889" id="Fill-69"></path>
            <path d="M18.7643889,74.2963333 C17.5042778,73.3026667 12.8488333,72.5693333 12.6593889,72.4385556 C12.4748333,72.3138889 9.38994444,69.5382222 8.62361111,68.5555556 C7.87438889,67.5606667 6.42972222,67.3003333 5.67561111,66.9043333 C5.22216667,66.6721111 3.25561111,65.9901111 1.48338889,65.6601111 C3.10283333,74.1496667 6.66805556,81.9474444 11.7048333,88.5682222 C13.1605,86.8338889 14.5843889,85.1692222 14.9241667,84.9088889 C15.6147222,84.3821111 17.1840556,83.1281111 17.6949444,81.1554444 C18.1997222,79.184 20.0183889,75.29 18.7643889,74.2963333" id="Fill-70"></path>
            <path d="M103.069122,46.7270333 C102.687789,47.5911444 102.503233,47.7255889 101.938567,49.5075889 C101.3629,51.2785889 101.553567,50.8178111 100.982789,51.9361444 C100.418122,53.0605889 99.4831222,53.1852556 98.5395667,53.9185889 C97.5837889,54.6458111 97.3332333,56.0904778 97.3332333,56.0904778 C96.5192333,57.2100333 100.667456,54.5052556 102.113344,53.6521444 C103.5629,52.7941444 103.1889,51.8053667 103.312344,50.4205889 C103.438233,49.0297 103.829344,48.8353667 104.4429,48.2425889 C105.067456,47.6510333 104.568789,46.4605889 104.268122,45.6087 C103.943011,44.7568111 103.438233,45.8800333 103.069122,46.7270333" id="Fill-71"></path>
            <path d="M59.4283333,67.9476222 C59.8096667,66.3672889 60.3083333,65.9700667 58.8636667,65.9700667 C57.4177778,65.9700667 54.9635556,65.7806222 54.2632222,64.4594 C53.5738889,63.1565111 51.9336667,60.6521778 51.9336667,60.0606222 C51.9336667,59.4739556 52.9432222,59.5338444 53.4382222,60.7841778 C53.9491111,62.0320667 55.6968889,65.8014 57.7123333,64.9984 C59.7265556,64.2039556 62.5621111,63.2872889 62.622,62.0320667 C62.6818889,60.7841778 61.7432222,59.3334 60.7312222,59.4042889 C59.7155556,59.4739556 58.651,58.7418444 58.651,58.0195111 C58.651,57.2959556 58.8367778,57.5624 60.037,58.0195111 C61.236,58.4802889 61.6063333,59.2674 63.436,59.4042889 C65.2607778,59.5338444 67.3361111,61.3158444 68.3358889,62.1090667 C69.3454444,62.9010667 71.1005556,68.3106222 71.5454444,68.8337333 C71.9805556,69.3641778 72.5012222,69.3641778 72.9363333,68.3057333 C73.3751111,67.2472889 75.261,63.8898444 76.3353333,62.9609556 C77.3998889,62.0381778 77.4658889,60.7890667 78.0855556,61.5810667 C78.715,62.3742889 81.4197778,64.3469556 81.6092222,65.5349556 C81.7998889,66.7254 81.4845556,69.2945111 82.0504444,68.5012889 C82.6151111,67.7092889 83.06,66.0678444 83.5488889,66.7962889 C84.0585556,67.5235111 84.0585556,68.6418444 85.249,67.7838444 C86.448,66.9368444 88.5245556,66.5995111 87.394,64.7539556 C86.2646667,62.9071778 87.0187778,61.7888444 87.7191111,61.7167333 C88.4096667,61.6470667 93.1286667,60.7939556 93.2545556,58.2199556 C93.3792222,55.6508444 91.6143333,54.2660667 92.4515556,52.9472889 C93.2545556,51.6260667 94.4547778,50.4429556 94.709,51.2300667 C94.9595556,52.0232889 94.0807778,54.5911778 95.2088889,54.1951778 C96.3443333,53.8040667 97.6643333,53.8040667 97.6643333,53.0059556 C97.6643333,52.2066222 97.4088889,50.2302889 97.9197778,49.7096222 C98.4245556,49.1816222 102.129111,45.6946222 102.569111,44.3098444 C103.009111,42.9189556 103.829222,41.7358444 103.133778,40.6871778 C102.438333,39.6336222 101.249111,39.9550667 102.187778,38.6448444 C103.133778,37.3248444 104.709222,36.1026222 105.903333,36.0048444 C106.347,35.9669556 106.717333,36.0011778 107.038778,36.0855111 C103.243778,25.9117333 96.524,17.1704 87.9012222,10.8722889 C87.3108889,10.7244 86.6692222,10.6828444 85.9542222,10.8099556 C85.4274444,10.9077333 80.486,11.6031778 79.2246667,12.7276222 C77.9767778,13.8520667 77.3998889,15.1610667 76.7105556,15.4262889 C76.02,15.6927333 74.0057778,15.5570667 74.0057778,16.5507333 C74.0057778,17.5395111 74.7012222,20.5755111 73.886,19.9778444 C73.0658889,19.3862889 72.2457778,18.0015111 71.8766667,19.0599556 C71.5026667,20.1184 70.8561111,20.7062889 70.487,20.3090667 C70.1166667,19.9130667 68.2161111,20.3090667 67.9716667,20.9666222 C67.7162222,21.6302889 65.2668889,23.1397333 64.2023333,23.3462889 C63.1316667,23.5418444 62.6867778,24.0686222 62.1221111,24.3338444 C61.5574444,24.5941778 57.2711111,26.5766222 56.462,25.8494 C55.6418889,25.1270667 55.3925556,25.5890667 54.8877778,25.7186222 C54.8877778,25.7186222 53.3783333,25.4521778 52.4384444,24.2690667 C51.4875556,23.0847333 51.3042222,23.4758444 50.2335556,22.3575111 C49.1677778,21.2379556 48.9123333,20.1184 47.849,20.5816222 C46.7844444,21.0375111 42.2536667,25.7137333 40.49,27.8269556 C38.7348889,29.9389556 35.5852222,32.1120667 37.1545556,33.6215111 C38.7348889,35.1358444 39.544,34.9415111 39.7407778,35.7934 C39.9363333,36.6477333 40.1196667,37.5754 40.3702222,37.9066222 C40.6195556,38.2439556 42.1241111,39.4221778 42.8843333,37.8418444 C43.6506667,36.2554 43.7655556,35.1358444 44.6443333,35.4035111 C45.5243333,35.6638444 45.7088889,36.2602889 45.264,37.4446222 C44.824,38.6399556 44.5147778,40.4806222 43.0041111,40.4109556 C41.4995556,40.3449556 39.8642222,39.4221778 39.3545556,39.6226222 C38.8546667,39.8181778 38.5503333,40.2801778 37.9746667,40.7409556 C37.41,41.2041778 35.6451111,43.3711778 34.4497778,43.7072889 C33.2605556,44.0385111 31.8158889,43.7671778 32.6298889,44.7559556 C33.4451111,45.7447333 34.6404444,47.9215111 33.5098889,47.8518444 C32.3805556,47.7858444 30.4897778,47.5915111 30.3663333,48.7098444 C30.2404444,49.8294 29.7405556,50.4906222 29.9911111,51.2777333 C30.2404444,52.0721778 31.0605556,53.5926222 32.0603333,53.0597333 C33.0808889,52.5280667 35.0254444,52.0122889 35.5253333,50.8169556 C36.0301111,49.6277333 36.6008889,48.3175111 37.8561111,48.3835111 C39.1101111,48.4495111 42.1351111,50.0946222 41.9395556,50.6922889 C41.755,51.2777333 41.1304444,52.6686222 41.8808889,52.2066222 C42.635,51.7397333 43.2595556,51.2141778 43.6995556,51.0174 C44.1395556,50.8169556 44.7201111,51.6798444 44.8997778,52.0122889 C45.0843333,52.3484 46.3505556,53.0010667 46.5937778,51.9352889 C46.8492222,50.8878444 47.0997778,51.6798444 47.849,52.0122889 C48.608,52.3484 50.8691111,52.5977333 51.1722222,52.8641778 C51.4985556,53.1306222 52.1878889,53.9177333 51.3042222,54.9774 C50.423,56.0260667 49.4134444,56.4330667 47.9687778,55.6398444 C46.518,54.8466222 44.9425556,56.3035111 43.3243333,55.5029556 C41.6792222,54.7170667 42.4394444,53.5987333 40.49,52.8042889 C38.5503333,52.0122889 34.1405556,53.0010667 32.7496667,53.3970667 C31.3648889,53.7881778 31.305,53.9226222 30.7403333,54.5801778 C30.1744444,55.2426222 26.465,59.5228444 26.465,61.9624 C26.465,64.3958444 27.8448889,70.9995111 32.3108889,70.3370667 C36.7805556,69.6746222 39.4853333,70.0645111 38.9842222,71.3808444 C38.4745556,72.7057333 38.7348889,73.0369556 39.5488889,74.5451778 C40.3641111,76.0619556 42.2597778,86.1538444 42.569,87.7928444 C42.8965556,89.4440667 42.3257778,91.5462889 44.3998889,91.2199556 C46.485,90.8887333 48.6801111,90.3680667 49.554,88.4552889 C50.4401111,86.5388444 50.5757778,84.3718444 51.7051111,83.2522889 C52.8393333,82.1290667 54.2192222,82.1290667 54.339,80.5475111 C54.4587778,78.9622889 54.0236667,75.2088444 54.779,74.3398444 C55.5392222,73.4928444 59.0531111,69.5279556 59.4283333,67.9476222" id="Fill-72"></path>
            <path d="M108.712367,41.3678333 C108.712367,41.3935 108.709922,41.4265 108.712367,41.4472778 C108.780811,42.4763889 108.784478,45.0088333 109.305144,43.8966111 C109.125478,43.0471667 108.929922,42.2038333 108.712367,41.3678333" id="Fill-73"></path>
            <path d="M105.582744,74.8130889 C104.377633,74.2850889 104.883633,73.8230889 103.431633,73.5688667 C101.9833,73.3134222 100.798967,73.5688667 100.407856,73.3085333 C100.027744,73.0420889 98.1479667,72.3857556 98.3973,73.3085333 C98.6527444,74.2362 100.347967,74.4916444 100.786744,74.7532 C101.227967,75.0184222 100.158522,75.6160889 100.967633,76.0719778 C101.781633,76.5278667 102.3573,77.3919778 103.421856,77.1267556 C104.4913,76.8542 104.871411,77.4579778 105.740411,77.5887556 C105.753856,77.5887556 105.764856,77.5887556 105.777078,77.5912 C106.055744,76.9642 106.322189,76.3286444 106.577633,75.6894222 C106.577633,75.6833111 106.575189,75.6772 106.576411,75.6698667 C106.642411,75.2090889 106.773189,75.3459778 105.582744,74.8130889" id="Fill-74"></path>
            <path d="M90.4840222,71.4662778 C90.2408,70.8099444 90.6099111,70.2183889 89.3546889,70.7378333 C88.0945778,71.2707222 87.4040222,71.1350556 86.9652444,71.8622778 C86.5313556,72.5968333 86.0204667,73.8398333 85.2700222,73.0527222 C84.5208,72.2643889 82.3110222,70.6192778 82.3110222,70.6192778 C82.1313556,70.4188333 79.6160222,68.3703889 80.4960222,69.7612778 C81.3711333,71.1460556 82.6960222,73.5196111 83.3266889,74.3727222 C83.9451333,75.2307222 84.6405778,76.2243889 85.4008,75.7636111 C86.1561333,75.2955 86.2808,75.1708333 87.2915778,75.7636111 C88.2730222,76.3331667 89.7299111,76.9956111 90.1686889,76.6643889 C90.6099111,76.3282778 90.2884667,75.6108333 90.9778,75.7355 C91.6744667,75.8662778 92.2978,76.2745 93.1289111,75.8125 C93.9380222,75.3456111 94.6346889,75.5399444 94.5088,74.7528333 C94.3890222,73.9657222 94.5088,72.9121667 94.3254667,72.2546111 C94.1335778,71.5921667 93.0054667,71.3905 92.1853556,72.1238333 C91.3652444,72.8571667 90.2408,73.9755 90.2408,73.5746111 C90.2408,73.1822778 90.7345778,72.1238333 90.4840222,71.4662778" id="Fill-75"></path>
        </g>
    </g>
</svg>