<?xml version="1.0" encoding="UTF-8"?>
<svg width="84px" height="111px" viewBox="0 0 84 111" version="1.1" xmlns="http://www.w3.org/2000/svg" xmlns:xlink="http://www.w3.org/1999/xlink">
    <!-- Generator: Sketch 46.2 (44496) - http://www.bohemiancoding.com/sketch -->
    <title>icono eje 6</title>
    <desc>Created with Sketch.</desc>
    <defs></defs>
    <g id="Visual-Medioambiente-1280" stroke="none" stroke-width="1" fill="none" fill-rule="evenodd">
        <g id="icono-eje-6" fill="#36A9DF">
            <path d="M68.2161778,93.5113444 C75.1302889,85.7881222 78.8592889,75.5850111 78.7187333,64.7842333 C78.5378444,51.1271222 60.3682889,26.7926778 41.3761778,7.4119 C22.8925111,27.2876778 5.35851111,52.0902333 5.53817778,65.7363444 C5.8254,87.6691222 22.2752889,105.5099 42.2072889,105.5099 L42.6460667,105.507456 C52.3236222,105.381567 61.4047333,101.122122 68.2161778,93.5113444 Z M41.2857333,0.398788889 C55.8485111,14.7207889 83.3546222,45.6185667 83.6064,64.7194556 C83.9315111,89.5892333 65.5859556,110.098122 42.7108444,110.396344 C42.5434,110.397567 42.3735111,110.398789 42.2072889,110.398789 C19.5668444,110.398789 0.973177778,90.5071222 0.650511111,65.8011222 C0.398733333,46.7087889 27.1030667,15.0935667 41.2857333,0.398788889 Z" id="Fill-1"></path>
            <path d="M20.0315333,68.6825111 L15.1426444,68.6825111 C15.1426444,83.5630667 27.2487556,95.6691778 42.1293111,95.6691778 L42.1293111,90.7802889 C29.9437556,90.7802889 20.0315333,80.8680667 20.0315333,68.6825111" id="Fill-3"></path>
        </g>
    </g>
</svg>