<?xml version="1.0" encoding="UTF-8"?>
<svg width="76px" height="111px" viewBox="0 0 76 111" version="1.1" xmlns="http://www.w3.org/2000/svg" xmlns:xlink="http://www.w3.org/1999/xlink">
    <!-- Generator: Sketch 46.2 (44496) - http://www.bohemiancoding.com/sketch -->
    <title>icono eje 15</title>
    <desc>Created with Sketch.</desc>
    <defs></defs>
    <g id="Visual-Medioambiente-1280" stroke="none" stroke-width="1" fill="none" fill-rule="evenodd">
        <g id="icono-eje-15" fill="#ADE069">
            <path d="M72.5378,43.5230556 C71.0356889,42.4377222 69.7450222,39.6547222 68.7012444,35.2473889 C68.5985778,34.9552778 68.5093556,34.5996111 68.3455778,33.9493889 C63.8612444,16.1232778 54.6029111,6.21472222 41.5630222,5.27238889 C25.8305778,4.4425 14.7254667,19.1922778 10.0003556,25.4757222 L9.4308,26.2322778 C7.28457778,29.0702778 3.63135556,31.1431667 3.22191111,31.3705 L0.852022222,27.0951667 C1.71491111,26.6136111 4.24246667,24.9880556 5.52946667,23.2842778 L6.0868,22.5460556 C11.2836889,15.6343889 23.4435778,-0.547833333 41.8636889,0.393277778 C52.6168,1.16938889 66.7102444,7.40638889 73.0804667,32.7345 C73.2026889,33.2185 73.2613556,33.4678333 73.3139111,33.6242778 L73.4263556,33.9750556 C74.0961333,36.8582778 75.0079111,39.1475 75.4674667,39.6168333 L72.5378,43.5230556 Z" id="Fill-32"></path>
            <path d="M7.22407778,79.1370222 L5.30274444,74.6416889 C15.2455222,70.3920222 29.3450778,61.5883556 34.9453,58.0011333 C45.8560778,51.0112444 53.4411889,43.6852444 55.7573,37.9029111 C56.9709667,34.8656889 57.0663,31.8700222 56.0200778,29.6834667 C55.1510778,27.8672444 53.5560778,26.6254667 51.1458556,25.8884667 C47.7541889,24.8605778 42.7553,27.5250222 38.0949667,32.8649111 C38.0081889,32.9626889 28.6044111,42.9262444 18.4379667,49.1510222 C18.3499667,49.2048 10.8051889,53.7245778 2.92185556,55.8708 L1.63852222,51.1530222 C8.82885556,49.1962444 15.8309667,45.0138 15.9006333,44.9722444 C25.3068556,39.2131333 34.3696333,29.6920222 34.4564111,29.5991333 C40.5369667,22.6312444 47.1614111,19.5488 52.5746333,21.2134667 C56.3158556,22.3574667 58.9583,24.4975778 60.4286333,27.5726889 C62.0651889,30.9875778 62.0163,35.4156889 60.2966333,39.7191333 C56.6201889,48.9029111 44.4871889,57.6943556 37.5828556,62.1175778 C31.8799667,65.7695778 17.5041889,74.7419111 7.22407778,79.1370222" id="Fill-33"></path>
            <path d="M3.88203333,43.3607444 L2.47403333,38.6796333 C4.41614444,38.0954111 6.23603333,37.0601889 8.16347778,35.9638556 L9.37347778,35.2843 C10.8254778,34.4739667 12.1980333,33.7088556 13.4434778,32.7591889 C16.1201444,30.7229667 18.6611444,28.1880778 21.4392556,24.7805222 C25.7854778,19.4455222 32.8707,12.6878556 41.9408111,10.7995222 C42.5678111,10.6675222 43.2522556,10.5636333 44.0222556,10.4854111 L44.5209222,15.3474111 C43.9244778,15.4097444 43.4087,15.4867444 42.9430333,15.5845222 C35.2711444,17.1819667 29.0757,23.1464111 25.2293667,27.8678556 C22.1982556,31.5846333 19.3944778,34.3737444 16.4037,36.6507444 C14.8820333,37.8081889 13.2931444,38.6955222 11.7555889,39.5535222 L10.5798111,40.2147444 C8.50081111,41.3966333 6.35214444,42.6188556 3.88203333,43.3607444" id="Fill-34"></path>
            <path d="M4.65667778,68.2563111 L2.92967778,63.6827556 L3.06901111,63.6326444 C7.99212222,61.9423111 33.2652333,52.5128667 47.2890111,32.8534222 L51.2685667,35.6914222 C36.3782333,56.5669778 9.8279,66.4804222 4.65667778,68.2563111" id="Fill-35"></path>
            <path d="M12.7383778,91.7209 L11.4660444,87.0019 C14.4666,86.1927889 21.1949333,81.7573444 27.1300444,77.8437889 C35.2492667,72.4941222 40.3826,69.2087889 43.2352667,68.7150111 C46.9398222,68.0660111 51.6783778,71.4503444 57.1722667,75.3639 C61.1053778,78.1664556 65.1460444,81.0460111 68.5108222,82.1680111 L66.9634889,86.8063444 C62.9044889,85.4509 58.5607111,82.3562333 54.3623778,79.3642333 C51.1296,77.0615667 45.7628222,73.2543444 44.0712667,73.5317889 C42.0167111,73.8874556 34.9681556,78.5331222 29.8226,81.9247889 C22.9708222,86.4421222 16.5003778,90.7064556 12.7383778,91.7209" id="Fill-36"></path>
            <path d="M22.2667,101.866322 L19.4421444,97.8745444 C20.1852556,97.3514333 21.2229222,96.5924333 22.4292556,95.7124333 L22.5563667,95.6207667 C32.5675889,88.3155444 38.8791444,84.0145444 41.6621444,83.5329889 C44.2031444,83.0929889 47.6767,85.0302111 54.4783667,89.2334333 C57.4948111,91.0973222 60.6139222,93.0259889 62.5841444,93.7385444 L60.9207,98.3353222 C58.4738111,97.4504333 55.2850333,95.4789889 51.9080333,93.3914333 C49.0834778,91.6473222 43.8267,88.3962111 42.3832556,88.3619889 C40.1930333,88.8032111 29.1245889,96.8796556 25.4884778,99.5331 L25.3100333,99.6614333 C24.0817,100.558544 23.0220333,101.332211 22.2667,101.866322" id="Fill-37"></path>
            <path d="M32.1280778,110.291711 L28.6141889,106.892711 C29.8694111,105.594711 36.3300778,99.0912667 40.2827444,98.4080444 C43.7184111,97.8238222 46.9695222,100.141156 50.7339667,102.8276 L50.8843,102.933933 C52.0221889,103.745489 53.1991889,104.583933 54.4800778,105.418711 L51.8107444,109.514378 C50.4455222,108.6246 49.2257444,107.756822 48.0463,106.915933 L47.8947444,106.807156 C45.1386333,104.8406 42.5316333,102.969378 41.1126333,103.227267 C39.7645222,103.459489 35.4806333,106.826711 32.1280778,110.291711" id="Fill-38"></path>
            <path d="M73.2729667,61.1008111 C70.6073,59.9788111 68.0369667,58.8067 65.8748556,56.8132556 C63.5367444,54.6597 62.0273,51.7642556 61.5103,48.4398111 L66.3417444,47.6893667 C66.6913,49.9407 67.6483,51.8021444 69.1870778,53.2174778 C70.7698556,54.6768111 72.9209667,55.6484778 75.1710778,56.5957 L73.2729667,61.1008111 Z" id="Fill-39"></path>
            <path d="M69.4822444,73.7503222 C67.2578,73.0658778 64.9319111,71.9573222 62.5705778,70.4552111 C57.8210222,67.4351 54.5026889,63.6181 52.7096889,59.1093222 L57.2526889,57.3028778 C58.6582444,60.8363222 61.3300222,63.8723222 65.1946889,66.3302111 C67.1869111,67.5976556 69.1131333,68.5216556 70.9195778,69.0765444 L69.4822444,73.7503222 Z" id="Fill-40"></path>
        </g>
    </g>
</svg>