<svg id="Capa_1" data-name="Capa 1" xmlns="http://www.w3.org/2000/svg" viewBox="0 0 120.77 62"><defs><style>.cls-1{fill:#fff;}</style></defs><title>logoEn</title><g id="Header-home-hamburguesa"><g id="Group"><g id="logo-ajusa-blanco"><path id="Fill-1" class="cls-1" d="M116,5.86C100.54,3,93.84,8,92,14.68S93.52,24,97,24a8.92,8.92,0,0,0,5.53-1.49c1.06-.53,1.06,1,1.06,1h9Zm-25-.3C80.07,3.87,74.19,6,72.91,10.9S77.78,16.45,79.4,17s2.23.88,2.17,1.55-.88,1.15-2.91,1.15a28.75,28.75,0,0,1-6.15-1.35l-.95,5.07a39.08,39.08,0,0,0,7.44.81c3.31-.07,9.67-1.22,10.62-5.48s-2-5.55-4.94-6.29-3.58-1.15-3.45-1.69.54-1.35,3.11-1.35a15.45,15.45,0,0,1,5.48,1.35ZM68.38,23.75,72.23,5H63.51s-2.23,10.89-2.5,12-.95,1.83-1.89,1.83S57.9,18.07,58,17.33,60.46,4.88,60.46,4.88H51.81s-1.89,8.72-2.64,12.51c-.7,3.56-.13,5.07,1.49,6.09s4.4.88,7.24-.34,2.43.61,2.43.61ZM48.56,4.89h-9.2s-1.69,8.85-2.16,9.88-1.08,3-6.22,2.36L29.7,23.75h7.37A9.16,9.16,0,0,0,46.4,16C48,8.29,48.56,4.89,48.56,4.89ZM26.91,23.51,30.21,5.86C14.79,3,8.1,8,6.29,14.68S7.78,24,11.29,24a8.93,8.93,0,0,0,5.53-1.49c1.06-.53,1.06,1,1.06,1ZM120.77,0V36.26H97.39c-7.08,0-8-2.49-10.68-4.79S82.22,28.88,80,28.88H1v-23A5.84,5.84,0,0,1,6.84,0ZM101.92,18.65c3.35.21,4.71-8.42,4.71-8.42C101,10.62,99.42,18.49,101.92,18.65Zm-85.74,0c3.35.21,4.71-8.42,4.71-8.42C15.27,10.62,13.68,18.49,16.18,18.65ZM99.29,41c1.89,0,19.62.18,21.49.2v1.27a5.83,5.83,0,0,1-5.84,5.83H1V33.57H82.22c4.79,0,8.18,3.49,10,5.19S97.29,41,99.29,41Z"/></g></g></g><path class="cls-1" d="M1.6,51.93H3.13L2.48,55H5.57l.65-3.09H7.75l-1.6,7.64H4.62l.7-3.35H2.23l-.7,3.35H0Z"/><path class="cls-1" d="M9.79,53.93l.53,4.19h0l2.24-4.19h1.61l-3.82,6.49A2.52,2.52,0,0,1,8.12,62,4.12,4.12,0,0,1,7,61.85l.33-1.12a1.62,1.62,0,0,0,.65.13c.44,0,.77-.22,1.28-1l-1-5.91Z"/><path class="cls-1" d="M20.86,51.36l-1.52,7c-.09.48-.18,1-.21,1.25H17.76l.14-.83h0a2.09,2.09,0,0,1-1.84,1c-1.34,0-1.94-1.12-1.94-2.34,0-1.69.92-3.56,2.83-3.56a2.19,2.19,0,0,1,1.74.8l.71-3.24Zm-5.22,5.87c0,.57.17,1.33.9,1.33,1.07,0,1.71-1.25,1.71-2.29,0-.66-.32-1.34-1.06-1.34C16.13,54.94,15.64,56.38,15.64,57.23Z"/><path class="cls-1" d="M21.58,54.69c0-.24.09-.49.13-.75h1.4L22.92,55h0A2,2,0,0,1,24.6,53.8a2.32,2.32,0,0,1,.56.06l-.31,1.43a1.89,1.89,0,0,0-.56-.09c-1,0-1.54.93-1.73,1.84L22,59.57H20.58Z"/><path class="cls-1" d="M31,56.28a3.26,3.26,0,0,1-3.36,3.43,2.37,2.37,0,0,1-2.56-2.57,3.27,3.27,0,0,1,3.34-3.33A2.37,2.37,0,0,1,31,56.28Zm-1.53,0c0-.73-.25-1.35-1.12-1.35-1.16,0-1.74,1.28-1.74,2.3,0,.74.31,1.32,1.15,1.32C28.88,58.56,29.44,57.25,29.44,56.29Z"/><path class="cls-1" d="M31.72,60.42a4.55,4.55,0,0,0,1.77.44c1.55,0,1.78-1.08,2.13-2.36h0a2.11,2.11,0,0,1-1.89,1.07c-1.37,0-2-1.15-2-2.39,0-1.69,1-3.38,2.86-3.38a2,2,0,0,1,1.72,1l.16-.82h1.41c0,.15-.11.43-.19.79L36.82,59c-.36,1.84-1.16,3-3.22,3a6.36,6.36,0,0,1-2.25-.38Zm3.09-5.48c-1.06,0-1.52,1.39-1.52,2.23,0,.68.27,1.26.93,1.26,1.17,0,1.65-1.24,1.65-2.31A1.07,1.07,0,0,0,34.81,54.94Z"/><path class="cls-1" d="M39.74,57.21c0,1,.56,1.42,1.56,1.42a4.14,4.14,0,0,0,1.73-.4l-.19,1.16a6.27,6.27,0,0,1-1.79.32c-1.62,0-2.71-.79-2.71-2.46a3.37,3.37,0,0,1,3.21-3.44,2,2,0,0,1,2.31,2.15,6.11,6.11,0,0,1-.14,1.26Zm2.68-1a2.29,2.29,0,0,0,0-.38.84.84,0,0,0-.93-.94c-.91,0-1.3.55-1.59,1.32Z"/><path class="cls-1" d="M45.35,54.74c.07-.34.12-.63.14-.81h1.43l-.1.55h0a2.4,2.4,0,0,1,1.6-.68,1.7,1.7,0,0,1,1.84,1.81,5.88,5.88,0,0,1-.19,1.23l-.59,2.74H48l.55-2.66a5.92,5.92,0,0,0,.16-1.18.75.75,0,0,0-.8-.79c-1,0-1.39,1-1.58,1.8l-.6,2.83H44.31Z"/><path class="cls-1" d="M55,51.93h5.9l-.25,1.2H58.49l-1.39,6.44H55.5l1.39-6.44H54.73Z"/><path class="cls-1" d="M60.84,57.21c0,1,.56,1.42,1.56,1.42a4.14,4.14,0,0,0,1.73-.4l-.19,1.16a6.27,6.27,0,0,1-1.8.32c-1.62,0-2.71-.79-2.71-2.46a3.37,3.37,0,0,1,3.21-3.44A2,2,0,0,1,65,55.95a6.1,6.1,0,0,1-.14,1.26Zm2.68-1a2.33,2.33,0,0,0,0-.38.84.84,0,0,0-.93-.94c-.91,0-1.3.55-1.59,1.32Z"/><path class="cls-1" d="M70.06,55.22a1.91,1.91,0,0,0-2.9,1.87c0,.73.24,1.47,1.25,1.47a2.89,2.89,0,0,0,1.19-.28l-.16,1.16A3.15,3.15,0,0,1,68,59.7a2.27,2.27,0,0,1-2.4-2.43A3.26,3.26,0,0,1,69,53.8a5.17,5.17,0,0,1,1.47.22Z"/><path class="cls-1" d="M72,51.36h1.47l-.7,3.12h0a2.4,2.4,0,0,1,1.6-.68,1.7,1.7,0,0,1,1.84,1.81,5.88,5.88,0,0,1-.19,1.23l-.59,2.74H74l.55-2.66a5.92,5.92,0,0,0,.16-1.18.75.75,0,0,0-.8-.79c-1,0-1.39,1-1.58,1.8l-.6,2.83H70.27Z"/><path class="cls-1" d="M78,54.74c.06-.34.12-.63.14-.81h1.43l-.1.55h0a2.4,2.4,0,0,1,1.6-.68,1.7,1.7,0,0,1,1.84,1.81,5.88,5.88,0,0,1-.19,1.23l-.59,2.74H80.69l.55-2.66a5.92,5.92,0,0,0,.16-1.18.75.75,0,0,0-.8-.79c-1,0-1.39,1-1.58,1.8l-.6,2.83H77Z"/><path class="cls-1" d="M89.79,56.28a3.26,3.26,0,0,1-3.36,3.43,2.37,2.37,0,0,1-2.56-2.57,3.27,3.27,0,0,1,3.34-3.33A2.37,2.37,0,0,1,89.79,56.28Zm-1.53,0c0-.73-.25-1.35-1.12-1.35-1.16,0-1.74,1.28-1.74,2.3,0,.74.31,1.32,1.15,1.32C87.69,58.56,88.26,57.25,88.26,56.29Z"/><path class="cls-1" d="M92.08,51.36h1.47l-1.74,8.21H90.34Z"/><path class="cls-1" d="M99.53,56.28a3.26,3.26,0,0,1-3.36,3.43,2.37,2.37,0,0,1-2.56-2.57,3.27,3.27,0,0,1,3.34-3.33A2.37,2.37,0,0,1,99.53,56.28Zm-1.53,0c0-.73-.25-1.35-1.12-1.35-1.16,0-1.74,1.28-1.74,2.3,0,.74.31,1.32,1.15,1.32C97.43,58.56,98,57.25,98,56.29Z"/><path class="cls-1" d="M100.28,60.42a4.56,4.56,0,0,0,1.77.44c1.55,0,1.78-1.08,2.13-2.36h0a2.11,2.11,0,0,1-1.89,1.07c-1.37,0-2-1.15-2-2.39,0-1.69,1-3.38,2.86-3.38a2,2,0,0,1,1.72,1l.16-.82h1.41c0,.15-.11.43-.19.79l-.9,4.24c-.36,1.84-1.16,3-3.22,3a6.36,6.36,0,0,1-2.25-.38Zm3.09-5.48c-1.06,0-1.52,1.39-1.52,2.23,0,.68.27,1.26.93,1.26,1.17,0,1.65-1.24,1.65-2.31A1.07,1.07,0,0,0,103.36,54.94Z"/><path class="cls-1" d="M108,53.93h1.47l-1.2,5.64h-1.47Zm.54-2.43H110l-.31,1.4H108.2Z"/><path class="cls-1" d="M111.34,57.21c0,1,.56,1.42,1.56,1.42a4.14,4.14,0,0,0,1.73-.4l-.19,1.16a6.27,6.27,0,0,1-1.79.32c-1.62,0-2.71-.79-2.71-2.46a3.37,3.37,0,0,1,3.21-3.44,2,2,0,0,1,2.31,2.15,6.1,6.1,0,0,1-.14,1.26Zm2.68-1a2.29,2.29,0,0,0,0-.38.84.84,0,0,0-.93-.94c-.91,0-1.3.55-1.59,1.32Z"/><path class="cls-1" d="M120.19,55.14a3.52,3.52,0,0,0-1.2-.26c-.44,0-1,.12-1,.57,0,.71,1.9,1,1.9,2.35s-1.28,1.9-2.54,1.9a4,4,0,0,1-1.72-.34l.32-1.17a2.75,2.75,0,0,0,1.4.44c.49,0,1-.16,1-.62,0-.91-1.9-1-1.9-2.41s1.28-1.8,2.44-1.8a6.55,6.55,0,0,1,1.6.23Z"/></svg>