<?xml version="1.0" encoding="UTF-8"?>
<svg width="121px" height="49px" viewBox="0 0 121 49" version="1.1" xmlns="http://www.w3.org/2000/svg" xmlns:xlink="http://www.w3.org/1999/xlink">
    <!-- Generator: Sketch 48.2 (47327) - http://www.bohemiancoding.com/sketch -->
    <title>Fill 1</title>
    <desc>Created with Sketch.</desc>
    <defs></defs>
    <g id="Header-home-hamburguesa" stroke="none" stroke-width="1" fill="none" fill-rule="evenodd" transform="translate(-44.000000, -30.000000)">
        <g id="Group" transform="translate(45.000000, 30.000000)" fill="#FFFFFF">
            <g id="logo-ajusa-blanco">
                <path d="M114.950983,5.86338983 C99.5367458,2.99288136 92.8377627,7.98881356 91.0303051,14.6850847 C89.2242034,21.3840678 92.5211525,24.0410169 96.0289492,24.0410169 C99.5367458,24.0410169 100.494034,23.0850847 101.554373,22.5515254 C102.618102,22.0220339 102.618102,23.5088136 102.618102,23.5088136 L111.65539,23.5088136 L114.950983,5.86338983 Z M89.9645424,5.56033898 C79.0743729,3.87084746 73.192339,6.03423729 71.9069153,10.9033898 C70.6221695,15.7718644 76.7781017,16.4484746 78.3977627,16.9888136 C80.0214915,17.5291525 80.6303051,17.8667797 80.5638644,18.5433898 C80.4967458,19.22 79.6831864,19.6938983 77.6547119,19.6938983 C75.6262373,19.6938983 71.5028475,18.340678 71.5028475,18.340678 L70.5550508,23.4125424 C70.5550508,23.4125424 74.6797966,24.2918644 77.992339,24.2240678 C81.3069153,24.1549153 87.6642034,23.0057627 88.6106441,18.7461017 C89.5550508,14.4864407 86.5821695,13.200339 83.6730169,12.4579661 C80.7652203,11.7149153 80.0886102,11.3081356 80.2262373,10.7677966 C80.3604746,10.2267797 80.7652203,9.41457627 83.3353898,9.41457627 C85.9069153,9.41457627 88.812,10.7677966 88.812,10.7677966 L89.9645424,5.56033898 Z M67.3781017,23.7501695 L71.231661,5.02 L62.5075932,5.02 C62.5075932,5.02 60.2777627,15.9061017 60.0065763,17.0552542 C59.7367458,18.2057627 59.0608136,18.8810169 58.1130169,18.8810169 C57.1679322,18.8810169 56.8960678,18.0694915 57.032339,17.3264407 C57.1679322,16.5827119 59.4648814,4.88508475 59.4648814,4.88508475 L50.8106441,4.88508475 C50.8106441,4.88508475 48.9184407,13.6084746 48.172678,17.3942373 C47.4764068,20.9508475 48.0391186,22.4654237 49.6608136,23.479661 C51.2845424,24.4938983 54.0560678,24.3576271 56.8960678,23.140678 C59.7367458,21.9237288 59.3299661,23.7501695 59.3299661,23.7501695 L67.3781017,23.7501695 Z M47.5645424,4.88644068 L38.3686102,4.88508475 C38.3686102,4.88508475 36.6777627,13.7379661 36.2065763,14.7616949 C35.732,15.7827119 35.1231864,17.7372881 29.9842034,17.1237288 L28.6994576,23.7501695 L36.0696271,23.7501695 C37.0838644,23.7501695 43.7781017,23.6823729 45.4011525,15.9867797 C47.0248814,8.29186441 47.5645424,4.88644068 47.5645424,4.88644068 Z M25.9136949,23.5088136 L29.2079322,5.86338983 C13.7950508,2.99288136 7.09742373,7.98881356 5.29132203,14.6850847 C3.48250847,21.3840678 6.77945763,24.0410169 10.2872542,24.0410169 C13.7950508,24.0410169 14.752339,23.0850847 15.8140339,22.5515254 C16.8777627,22.0220339 16.8777627,23.5088136 16.8777627,23.5088136 L25.9136949,23.5088136 Z M119.772,0.000338983051 L119.772,36.2633898 L96.3875932,36.2633898 C89.3048814,36.2633898 88.4072542,33.7684746 85.712339,31.4735593 C83.0187797,29.179322 81.2221695,28.879661 79.0282712,28.879661 L-0.00020338983,28.879661 L-0.00020338983,5.83559322 C-0.00020338983,2.61254237 2.61267797,0.000338983051 5.83572881,0.000338983051 L119.772,0.000338983051 Z M100.920475,18.6505085 C104.268949,18.8627119 105.628949,10.2267797 105.628949,10.2267797 C100.012,10.6186441 98.4160678,18.4932203 100.920475,18.6505085 Z M15.1774237,18.6505085 C18.5299661,18.8627119 19.8886102,10.2267797 19.8886102,10.2267797 C14.271661,10.6186441 12.6764068,18.4932203 15.1774237,18.6505085 Z M98.2852203,40.9508475 C100.173356,40.9508475 117.904881,41.1311864 119.772,41.1508475 L119.772,42.4179661 C119.772,45.6410169 117.159797,48.2518644 113.936746,48.2518644 L0.00115254237,48.2518644 L-0.00020338983,33.5698305 L81.2221695,33.5698305 C86.011322,33.5698305 89.4038644,37.0620339 91.1997966,38.7569492 C92.9964068,40.4532203 96.2886102,40.9508475 98.2852203,40.9508475 Z" id="Fill-1"></path>
            </g>
        </g>
    </g>
</svg>