<svg id="Capa_1" data-name="Capa 1" xmlns="http://www.w3.org/2000/svg" viewBox="0 0 120.78 61.25"><defs><style>.cls-1{fill:#fff;}</style></defs><title>logo</title><g id="Header-home-hamburguesa"><g id="Group"><g id="logo-ajusa-blanco"><path id="Fill-1" class="cls-1" d="M116,5.86C100.54,3,93.84,8,92,14.68S93.52,24,97,24a8.92,8.92,0,0,0,5.53-1.49c1.06-.53,1.06,1,1.06,1h9Zm-25-.3C80.07,3.87,74.19,6,72.91,10.9s4.87,5.55,6.49,6.1,2.23.88,2.17,1.55-.88,1.15-2.91,1.15a28.75,28.75,0,0,1-6.15-1.35l-.95,5.07a39.08,39.08,0,0,0,7.44.81c3.31-.07,9.67-1.22,10.62-5.48s-2-5.55-4.94-6.29-3.58-1.15-3.45-1.69.54-1.35,3.11-1.35a15.45,15.45,0,0,1,5.48,1.35ZM68.38,23.75,72.23,5H63.51S61.28,15.89,61,17s-1,1.83-1.89,1.83-1.22-.76-1.12-1.5S60.46,4.88,60.46,4.88H51.81s-1.89,8.72-2.64,12.51c-.7,3.56-.13,5.07,1.49,6.09s4.4.88,7.24-.34,2.43.61,2.43.61ZM48.56,4.89h-9.2s-1.69,8.85-2.16,9.88-1.08,3-6.22,2.36L29.7,23.75h7.37A9.16,9.16,0,0,0,46.4,16C48,8.29,48.56,4.89,48.56,4.89ZM26.91,23.51l3.3-17.65C14.79,3,8.1,8,6.29,14.68S7.78,24,11.29,24a8.93,8.93,0,0,0,5.53-1.49c1.06-.53,1.06,1,1.06,1ZM120.77,0V36.26H97.39c-7.08,0-8-2.49-10.68-4.79A8.94,8.94,0,0,0,80,28.88H1v-23A5.84,5.84,0,0,1,6.8,0h114ZM101.92,18.65c3.35.21,4.71-8.42,4.71-8.42C101,10.62,99.42,18.49,101.92,18.65Zm-85.74,0c3.35.21,4.71-8.42,4.71-8.42C15.27,10.62,13.68,18.49,16.18,18.65ZM99.29,41c1.89,0,19.62.18,21.49.2v1.27A5.83,5.83,0,0,1,115,48.3H1V33.57H82.22c4.79,0,8.18,3.49,10,5.19S97.29,41,99.29,41Z" transform="translate(0 0)"/></g></g></g><path class="cls-1" d="M5.87,52.27,5.6,53.49H3.52L2.3,59.13H.86l1.22-5.64H0l.27-1.22Z" transform="translate(0 0)"/><path class="cls-1" d="M9.34,54.93a2.51,2.51,0,0,1,.18,1,5.89,5.89,0,0,1-.18,1H5.87A1.07,1.07,0,0,0,6.14,58a.88.88,0,0,0,.63.18A1.36,1.36,0,0,0,7.49,58a1.29,1.29,0,0,0,.32-.36H9.16a2,2,0,0,1-.68.9,2.84,2.84,0,0,1-2,.72,2.18,2.18,0,0,1-1.58-.63,2.2,2.2,0,0,1-.32-2,3.7,3.7,0,0,1,1.08-2,2.91,2.91,0,0,1,1.9-.72,2.73,2.73,0,0,1,1.08.23A3.16,3.16,0,0,1,9.34,54.93ZM6,56.1H8.12A1.11,1.11,0,0,0,8,55.29.79.79,0,0,0,7.31,55a1.06,1.06,0,0,0-.77.27A2.46,2.46,0,0,0,6,56.1Z" transform="translate(0 0)"/><path class="cls-1" d="M13.5,55.88a.89.89,0,0,0-.09-.5c-.09-.23-.32-.32-.63-.32a1.11,1.11,0,0,0-1,.68,3.3,3.3,0,0,0-.32.95,2.11,2.11,0,0,0,0,.9.71.71,0,0,0,.77.63,1,1,0,0,0,.72-.27,1.77,1.77,0,0,0,.36-.63h1.35a3.27,3.27,0,0,1-.68,1.13,2.63,2.63,0,0,1-2,.86,1.8,1.8,0,0,1-1.67-.72,2.62,2.62,0,0,1-.18-1.9,3.7,3.7,0,0,1,1.08-2A2.73,2.73,0,0,1,13,53.94a2.18,2.18,0,0,1,1.49.45,1.6,1.6,0,0,1,.41,1.53H13.5Z" transform="translate(0 0)"/><path class="cls-1" d="M20.4,55.74l-.72,3.43H18.33L19,56.1a3.43,3.43,0,0,0,0-.63.63.63,0,0,0-.68-.41,1.11,1.11,0,0,0-1,.59,2.45,2.45,0,0,0-.32.77l-.59,2.75H15.08l1.08-5.06h1.26l-.18.72a7,7,0,0,1,.59-.59,1.8,1.8,0,0,1,1.08-.32,1.66,1.66,0,0,1,1.22.41A1.42,1.42,0,0,1,20.4,55.74Z" transform="translate(0 0)"/><path class="cls-1" d="M23.16,59.35a1.94,1.94,0,0,1-1.81-.81,2.45,2.45,0,0,1-.23-1.9,3.6,3.6,0,0,1,1-1.9,2.89,2.89,0,0,1,2.12-.81,1.82,1.82,0,0,1,1.76.81,2.67,2.67,0,0,1,.23,1.9,3.57,3.57,0,0,1-1,1.9A2.72,2.72,0,0,1,23.16,59.35Zm1.76-2.71a2,2,0,0,0,0-1.17.82.82,0,0,0-.81-.41,1.33,1.33,0,0,0-1,.41,2.61,2.61,0,0,0-.59,1.17,2,2,0,0,0,0,1.17.82.82,0,0,0,.81.41,1.33,1.33,0,0,0,1-.41A2,2,0,0,0,24.92,56.65Z" transform="translate(0 0)"/><path class="cls-1" d="M28.08,59.17H26.77l1.44-6.86h1.31Z" transform="translate(0 0)"/><path class="cls-1" d="M31.64,59.35a1.94,1.94,0,0,1-1.81-.81,2.45,2.45,0,0,1-.23-1.9,3.6,3.6,0,0,1,1-1.9,2.89,2.89,0,0,1,2.12-.81,1.82,1.82,0,0,1,1.76.81,2.67,2.67,0,0,1,.23,1.9,3.57,3.57,0,0,1-1,1.9A2.72,2.72,0,0,1,31.64,59.35Zm1.76-2.71a2,2,0,0,0,0-1.17.82.82,0,0,0-.81-.41,1.33,1.33,0,0,0-1,.41A2.61,2.61,0,0,0,31,56.65a2,2,0,0,0,0,1.17.82.82,0,0,0,.81.41,1.33,1.33,0,0,0,1-.41A2,2,0,0,0,33.4,56.65Z" transform="translate(0 0)"/><path class="cls-1" d="M38.82,54.07a1.13,1.13,0,0,1,.63.72l.14-.72h1.31l-1,4.83a3.52,3.52,0,0,1-.63,1.49,2.94,2.94,0,0,1-2.35.86,2.68,2.68,0,0,1-1.49-.36,1.21,1.21,0,0,1-.45-1.13h1.44a.53.53,0,0,0,.09.32.94.94,0,0,0,.68.18,1.31,1.31,0,0,0,1.08-.5,3,3,0,0,0,.36-1l.09-.32a5.1,5.1,0,0,1-.5.5,2.17,2.17,0,0,1-1.08.32,1.53,1.53,0,0,1-1.4-.68,2.46,2.46,0,0,1-.18-1.85,4.18,4.18,0,0,1,.95-1.9A2.43,2.43,0,0,1,38.23,54,.67.67,0,0,1,38.82,54.07ZM39,56.6A1.37,1.37,0,0,0,39,55.52a.73.73,0,0,0-.72-.36,1.22,1.22,0,0,0-1.08.68,2.42,2.42,0,0,0-.32.86,2.17,2.17,0,0,0,0,.77.72.72,0,0,0,.81.63,1.32,1.32,0,0,0,.86-.36A1.9,1.9,0,0,0,39,56.6Z" transform="translate(0 0)"/><path class="cls-1" d="M42.16,54.07h1.35l-1.08,5.1H41.08ZM44.87,52l-1.72,1.4H42.2L43.38,52Z" transform="translate(0 0)"/><path class="cls-1" d="M46.36,56.06a2.25,2.25,0,0,0,.54-.14.57.57,0,0,0,.36-.36c0-.23,0-.36-.14-.45a1.09,1.09,0,0,0-.63-.14,1.15,1.15,0,0,0-.72.23.94.94,0,0,0-.27.45H44.23a2.5,2.5,0,0,1,.59-1.08,2.6,2.6,0,0,1,1.94-.68,2.68,2.68,0,0,1,1.4.32c.41.23.5.63.36,1.26L48,57.82a2.29,2.29,0,0,0-.09.59.48.48,0,0,0,0,.36c0,.09.09.14.18.14l0,.18H46.63c0-.09,0-.18,0-.27a.88.88,0,0,1,0-.32,6.89,6.89,0,0,1-.72.5,2.06,2.06,0,0,1-1,.23,1.18,1.18,0,0,1-1.26-1.53,1.84,1.84,0,0,1,1-1.35A4,4,0,0,1,45.81,56Zm.68.63-.27.14c-.09,0-.23,0-.36.09l-.32,0a1.77,1.77,0,0,0-.63.18.8.8,0,0,0-.41.59c0,.23,0,.41.09.5a.55.55,0,0,0,.41.14,1.6,1.6,0,0,0,.86-.27,1.51,1.51,0,0,0,.59-.9Z" transform="translate(0 0)"/><path class="cls-1" d="M50.37,57.55c0,.23,0,.41.09.5s.41.27.86.27a1.2,1.2,0,0,0,.63-.14.51.51,0,0,0,.32-.36.3.3,0,0,0-.14-.36,4.76,4.76,0,0,0-1.31-.41,2,2,0,0,1-1.08-.54,1.14,1.14,0,0,1-.18-.9,2.1,2.1,0,0,1,.81-1.22,2.54,2.54,0,0,1,1.67-.5,2.79,2.79,0,0,1,1.49.36,1.25,1.25,0,0,1,.41,1.31H52.63a1,1,0,0,0,0-.41.74.74,0,0,0-.68-.27,1.2,1.2,0,0,0-.63.14.61.61,0,0,0-.27.32.23.23,0,0,0,.14.32,6.68,6.68,0,0,0,1.31.36,2.06,2.06,0,0,1,1.08.59,1,1,0,0,1,.18.95,2,2,0,0,1-.81,1.22,3.11,3.11,0,0,1-1.85.5,2.3,2.3,0,0,1-1.67-.5,1.43,1.43,0,0,1-.32-1.31h1.31Z" transform="translate(0 0)"/><path class="cls-1" d="M61.21,54.71l.5-2.44h1.35l-1.44,6.86H60.3l.14-.72a2.25,2.25,0,0,1-.81.68,2.1,2.1,0,0,1-.95.23,1.49,1.49,0,0,1-1.35-.72,2.48,2.48,0,0,1-.23-1.85,4,4,0,0,1,1-2,2.43,2.43,0,0,1,1.76-.77,1.29,1.29,0,0,1,.77.18A1.69,1.69,0,0,1,61.21,54.71Zm-.41,2a1.43,1.43,0,0,0-.18-1.35.79.79,0,0,0-.63-.23,1.08,1.08,0,0,0-.95.45,3,3,0,0,0-.5,1.08,1.85,1.85,0,0,0,0,1.13.75.75,0,0,0,.77.41,1.23,1.23,0,0,0,.95-.41A2,2,0,0,0,60.8,56.69Z" transform="translate(0 0)"/><path class="cls-1" d="M67.71,54.93a2.51,2.51,0,0,1,.18,1,5.89,5.89,0,0,1-.18,1H64.23A1.07,1.07,0,0,0,64.5,58a.88.88,0,0,0,.63.18,1.36,1.36,0,0,0,.72-.23,1.29,1.29,0,0,0,.32-.36h1.35a2,2,0,0,1-.68.9,2.84,2.84,0,0,1-2,.72A1.9,1.9,0,0,1,63,56.6a3.7,3.7,0,0,1,1.08-2,2.7,2.7,0,0,1,1.9-.72,2.73,2.73,0,0,1,1.08.23A2,2,0,0,1,67.71,54.93ZM64.46,56.1h2.08a1.11,1.11,0,0,0-.14-.81.79.79,0,0,0-.68-.27,1.06,1.06,0,0,0-.77.27A1.89,1.89,0,0,0,64.46,56.1Z" transform="translate(0 0)"/><path class="cls-1" d="M69.47,59.17H68.16l1.44-6.86h1.31Z" transform="translate(0 0)"/><path class="cls-1" d="M73.53,59.17,75,52.31h1.44l-.54,2.62h2.71l.54-2.62h1.44l-1.44,6.86H77.68l.63-3.07H75.61L75,59.17Z" transform="translate(0 0)"/><path class="cls-1" d="M81.43,54.07h1.35l-1.08,5.1H80.34Zm1.49-.59H81.56l.27-1.22h1.35Z" transform="translate(0 0)"/><path class="cls-1" d="M87.21,54.71l.5-2.44h1.35l-1.44,6.86H86.3l.14-.72a2.22,2.22,0,0,1-1.76.9,1.49,1.49,0,0,1-1.35-.72,2.48,2.48,0,0,1-.23-1.85,4,4,0,0,1,1-2,2.43,2.43,0,0,1,1.76-.77,1.29,1.29,0,0,1,.77.18A1.69,1.69,0,0,1,87.21,54.71Zm-.36,2a1.43,1.43,0,0,0-.18-1.35.79.79,0,0,0-.63-.23,1.08,1.08,0,0,0-.95.45,3,3,0,0,0-.5,1.08,1.85,1.85,0,0,0,0,1.13.75.75,0,0,0,.77.41,1.23,1.23,0,0,0,.95-.41A3,3,0,0,0,86.84,56.69Z" transform="translate(0 0)"/><path class="cls-1" d="M92.85,54l-.27,1.35h-.41a1.29,1.29,0,0,0-1.17.54,2.48,2.48,0,0,0-.36.9l-.5,2.44H88.79l1.08-5.1h1.26L91,55a2.32,2.32,0,0,1,.68-.68,1.67,1.67,0,0,1,1-.32h0C92.76,53.94,92.8,54,92.85,54Z" transform="translate(0 0)"/><path class="cls-1" d="M94.79,59.35A1.94,1.94,0,0,1,93,58.54a2.45,2.45,0,0,1-.23-1.9,3.6,3.6,0,0,1,1-1.9,2.89,2.89,0,0,1,2.12-.81,1.82,1.82,0,0,1,1.76.81,2.67,2.67,0,0,1,.23,1.9,3.57,3.57,0,0,1-1,1.9A2.72,2.72,0,0,1,94.79,59.35Zm1.76-2.71a2,2,0,0,0,0-1.17.82.82,0,0,0-.81-.41,1.33,1.33,0,0,0-1,.41,2.61,2.61,0,0,0-.59,1.17,2,2,0,0,0,0,1.17.82.82,0,0,0,.81.41,1.33,1.33,0,0,0,1-.41A2,2,0,0,0,96.55,56.65ZM97.95,52l-1.72,1.4h-.95L96.46,52Z" transform="translate(0 0)"/><path class="cls-1" d="M102,54.07a1.13,1.13,0,0,1,.63.72l.14-.72H104l-1,4.83a3.52,3.52,0,0,1-.63,1.49,2.94,2.94,0,0,1-2.35.86,2.68,2.68,0,0,1-1.49-.36,1.21,1.21,0,0,1-.45-1.13h1.44a.53.53,0,0,0,.09.32.94.94,0,0,0,.68.18,1.31,1.31,0,0,0,1.08-.5,3,3,0,0,0,.36-1l.09-.32a5.1,5.1,0,0,1-.5.5,2.17,2.17,0,0,1-1.08.32,1.53,1.53,0,0,1-1.4-.68,2.46,2.46,0,0,1-.18-1.85,4.18,4.18,0,0,1,.95-1.9,2.36,2.36,0,0,1,1.76-.77A.66.66,0,0,1,102,54.07Zm.23,2.53a1.37,1.37,0,0,0-.09-1.08.73.73,0,0,0-.72-.36,1.22,1.22,0,0,0-1.08.68,2.42,2.42,0,0,0-.32.86,2.17,2.17,0,0,0,0,.77.72.72,0,0,0,.81.63,1.32,1.32,0,0,0,.86-.36A1.9,1.9,0,0,0,102.19,56.6Z" transform="translate(0 0)"/><path class="cls-1" d="M109.1,54.93a2.51,2.51,0,0,1,.18,1,5.89,5.89,0,0,1-.18,1h-3.48a1.07,1.07,0,0,0,.27,1.08.88.88,0,0,0,.63.18,1.36,1.36,0,0,0,.72-.23,1.29,1.29,0,0,0,.32-.36h1.35a2,2,0,0,1-.68.9,2.84,2.84,0,0,1-2,.72,1.9,1.9,0,0,1-1.9-2.66,3.7,3.7,0,0,1,1.08-2,2.7,2.7,0,0,1,1.9-.72,2.73,2.73,0,0,1,1.08.23A2,2,0,0,1,109.1,54.93Zm-3.3,1.17h2.08a1.11,1.11,0,0,0-.14-.81.79.79,0,0,0-.68-.27,1.06,1.06,0,0,0-.77.27A3.54,3.54,0,0,0,105.8,56.1Z" transform="translate(0 0)"/><path class="cls-1" d="M114.83,55.74l-.72,3.43h-1.35l.63-3.07a3.43,3.43,0,0,0,0-.63.63.63,0,0,0-.68-.41,1.11,1.11,0,0,0-1,.59,2.46,2.46,0,0,0-.32.77l-.59,2.75H109.5l1.08-5.06h1.26l-.18.72a7,7,0,0,1,.59-.59,1.8,1.8,0,0,1,1.08-.32,1.66,1.66,0,0,1,1.22.41A1.33,1.33,0,0,1,114.83,55.74Z" transform="translate(0 0)"/><path class="cls-1" d="M117.58,59.35a1.94,1.94,0,0,1-1.81-.81,2.45,2.45,0,0,1-.23-1.9,3.6,3.6,0,0,1,1-1.9,2.89,2.89,0,0,1,2.12-.81,1.82,1.82,0,0,1,1.76.81,2.67,2.67,0,0,1,.23,1.9,3.57,3.57,0,0,1-1,1.9A2.65,2.65,0,0,1,117.58,59.35Zm1.81-2.71a2,2,0,0,0,0-1.17.82.82,0,0,0-.81-.41,1.33,1.33,0,0,0-1,.41,2.61,2.61,0,0,0-.59,1.17,2,2,0,0,0,0,1.17.82.82,0,0,0,.81.41,1.33,1.33,0,0,0,1-.41A2.61,2.61,0,0,0,119.39,56.65Z" transform="translate(0 0)"/></svg>