<?xml version="1.0" encoding="utf-8"?>
<!-- Generator: Adobe Illustrator 21.1.0, SVG Export Plug-In . SVG Version: 6.00 Build 0)  -->
<svg version="1.1" id="Capa_1" xmlns="http://www.w3.org/2000/svg" xmlns:xlink="http://www.w3.org/1999/xlink" x="0px" y="0px"
	 viewBox="0 0 137.7 83.9" style="enable-background:new 0 0 137.7 83.9;" xml:space="preserve">
<style type="text/css">
	.st0{fill:#FFFFFF;}
	.st1{fill:none;stroke:#FFFFFF;stroke-width:3.061;stroke-miterlimit:10;}
</style>
<g>
	<g>
		<path class="st0" d="M18.9,21.7c0,0.4-0.1,0.8-0.3,1c-0.2,0.2-0.5,0.4-0.7,0.5c-0.3,0.1-0.6,0.2-1,0.2c-0.8,0-1.4-0.3-1.9-1
			c-0.5-0.7-0.9-1.5-1.2-2.3c-0.4-1-0.6-2.1-0.8-3.4c0-0.1,0-0.2-0.1-0.2c-0.1,0-0.2,0-0.2,0c-1,0.1-1.9,0.2-2.7,0.4
			c-0.8,0.2-1.5,0.3-2,0.5c-0.7,0.2-1.2,0.4-1.7,0.6c-0.2,0.1-0.4,0.3-0.5,0.5c-0.1,0.1-0.1,0.2-0.1,0.3c-0.3,1.2-0.6,2.2-0.7,2.9
			c-0.2,0.7-0.3,1.3-0.3,1.7c-0.1,0.4-0.1,0.8-0.2,1c0,0.3-0.1,0.6-0.2,0.9c-0.1,0.4-0.3,0.7-0.6,0.9c-0.2,0.2-0.5,0.4-0.8,0.5
			c-0.3,0.1-0.5,0.1-0.7,0.2c-0.2,0-0.4,0-0.5,0c-0.3,0-0.5-0.1-0.7-0.2s-0.3-0.4-0.4-0.6c-0.1-0.2-0.1-0.5-0.1-0.7
			c0-0.2,0-0.4,0-0.5c0-0.5,0.1-1.1,0.2-1.8s0.2-1.3,0.4-1.8c0.2-0.7,0.4-1.4,0.6-2c0-0.1,0-0.2-0.1-0.3c0,0-0.1,0-0.1,0
			c-0.4-0.2-0.7-0.4-0.9-0.7C0.1,17.7,0,17.5,0,17.4c0.1-0.6,0.3-1,0.6-1.4c0.3-0.3,0.6-0.6,0.9-0.8c0.4-0.2,0.7-0.3,1.1-0.4
			c0.1,0,0.2-0.1,0.3-0.2c0-0.1,0.1-0.1,0.1-0.1c0.2-0.6,0.6-1.4,1-2.3c0.4-0.9,0.9-1.9,1.4-2.9c0.5-1,1.1-2,1.6-3
			c0.6-1,1.2-1.9,1.8-2.7c0.6-0.8,1.2-1.5,1.7-2c0.6-0.5,1.1-0.8,1.6-0.8c0.3,0,0.5,0,0.5,0.1s0.2,0.1,0.4,0.1
			c0.1,0,0.2-0.1,0.3-0.2c0.1-0.1,0.2-0.2,0.4-0.3c0.2-0.1,0.3-0.2,0.6-0.4C14.5,0.1,14.8,0,15.1,0c0.2,0,0.5,0,0.8,0.2
			c0.3,0.2,0.4,0.7,0.4,1.5c0,0.3,0,0.6,0,0.9s0,0.5-0.1,0.9c0,0.4,0,0.8-0.1,1.3s0,1.2,0,2.2c0,1,0,2.2,0.1,3.4
			c0.1,1.2,0.2,2.4,0.3,3.7s0.4,2.4,0.7,3.5c0.3,1.1,0.7,2.1,1.2,2.9C18.7,21,18.9,21.4,18.9,21.7z M12.6,12.2c0-0.6,0-1.3-0.1-2.1
			c0-0.8,0-1.5,0-2.3V5.4c0-0.1,0-0.1,0-0.2C12.4,5.1,12.3,5,12.3,5c-0.3,0.1-0.7,0.3-1,0.7c-0.4,0.4-0.7,0.9-1,1.5
			c-0.3,0.6-0.7,1.2-1,1.9S8.7,10.4,8.4,11c-0.2,0.6-0.4,1-0.6,1.4C7.7,12.8,7.6,13,7.6,13c0,0.3,0.1,0.4,0.2,0.4
			c0.6-0.1,1.1-0.2,1.5-0.3c0.4-0.1,0.9-0.2,1.4-0.2c0.5-0.1,1-0.1,1.5-0.2c0.1,0,0.1,0,0.2-0.1C12.5,12.5,12.6,12.4,12.6,12.2z"/>
		<path class="st0" d="M39.7,20.1c0,0.8-0.3,1.6-0.8,2.2c-0.5,0.6-1.1,1.1-1.9,1.5c-0.7,0.4-1.5,0.7-2.3,0.9c-0.8,0.2-1.5,0.3-2,0.3
			c-1.2,0-2.1-0.2-2.6-0.7c-0.5-0.5-0.8-1-0.8-1.6c0-0.5,0.2-0.8,0.5-1c0.3-0.2,0.6-0.3,0.9-0.3c0.3,0,0.6,0.1,1.1,0.3
			c0.4,0.2,1,0.3,1.6,0.3c0.8,0,1.5-0.1,1.9-0.4c0.4-0.3,0.6-0.6,0.6-0.9c0-0.3-0.2-0.6-0.5-0.8c-0.3-0.2-0.7-0.4-1.2-0.5
			c-0.5-0.1-1-0.3-1.5-0.5c-0.5-0.1-1.1-0.3-1.5-0.6c-0.5-0.2-0.9-0.5-1.2-0.9c-0.3-0.3-0.5-0.8-0.5-1.3c0-0.7,0.2-1.4,0.6-2.1
			c0.4-0.7,1-1.4,1.7-2s1.5-1.1,2.3-1.5c0.9-0.4,1.8-0.6,2.7-0.6c0.8,0,1.4,0.2,1.9,0.7s0.7,1.2,0.7,2.1c0,0.4-0.1,0.8-0.3,1.2
			c-0.2,0.4-0.6,0.6-1.2,0.6c-0.3,0-0.5-0.1-0.7-0.3c-0.1-0.2-0.2-0.4-0.3-0.6c-0.1-0.2-0.2-0.4-0.3-0.6c-0.1-0.2-0.4-0.3-0.8-0.3
			c-0.2,0-0.4,0.1-0.7,0.2s-0.6,0.3-0.9,0.5c-0.3,0.2-0.6,0.5-0.8,0.8c-0.2,0.3-0.3,0.6-0.3,1c0,0.3,0.2,0.6,0.5,0.8
			c0.3,0.2,0.7,0.4,1.2,0.6c0.5,0.2,1,0.4,1.6,0.5c0.6,0.2,1.1,0.4,1.6,0.6c0.5,0.2,0.9,0.5,1.2,0.9C39.5,19.1,39.7,19.6,39.7,20.1z
			"/>
		<path class="st0" d="M55,22.7c0,0.4-0.1,0.7-0.2,0.9c-0.2,0.2-0.3,0.3-0.6,0.4c-0.2,0.1-0.5,0.2-0.8,0.2c-0.5,0-0.9-0.1-1.2-0.4
			c-0.3-0.2-0.6-0.5-0.8-0.8c-0.2-0.3-0.3-0.6-0.4-0.9c-0.1-0.3-0.1-0.5-0.1-0.5c0-0.1,0-0.1-0.1-0.1c-0.1,0-0.1,0-0.2,0.1
			c0,0-0.1,0-0.1,0c-0.5,0.8-0.9,1.5-1.4,1.9c-0.5,0.5-0.9,0.8-1.4,1c-0.4,0.2-0.8,0.3-1.1,0.4c-0.3,0-0.5,0.1-0.5,0.1
			c-0.7,0-1.3-0.2-1.7-0.7c-0.5-0.5-0.9-1-1.2-1.7s-0.5-1.5-0.7-2.3c-0.1-0.8-0.2-1.6-0.2-2.3c0-0.7,0.1-1.5,0.2-2.3
			c0.1-0.9,0.3-1.7,0.6-2.4s0.6-1.4,1-1.9c0.4-0.5,0.9-0.8,1.5-0.8c0.1,0,0.2,0,0.4,0c0.1,0,0.3,0.1,0.4,0.2
			c0.1,0.1,0.3,0.2,0.3,0.4c0.1,0.2,0.1,0.5,0.1,0.8c0,0.3,0,0.6-0.1,0.9c-0.1,0.4-0.2,0.8-0.4,1.3c-0.2,0.5-0.4,1.1-0.5,1.6
			c-0.1,0.5-0.2,1-0.3,1.6s-0.1,1.1-0.1,1.6c0,0.6,0.1,1.2,0.3,1.6s0.6,0.7,1.1,0.7c0.4-0.1,0.8-0.3,1.2-0.7c0.3-0.3,0.7-0.8,1-1.4
			c0.4-0.7,0.6-1.6,0.9-2.7c0-0.2,0.1-0.4,0.1-0.6c0-0.2,0.1-0.4,0.1-0.7c0-0.2,0-0.5,0-0.7c0-0.1,0.1-0.3,0.2-0.5
			c0.1-0.2,0.3-0.4,0.4-0.6c0.2-0.2,0.4-0.4,0.7-0.5c0.3-0.1,0.6-0.2,0.9-0.2c0.3,0,0.6,0.1,0.8,0.2c0.2,0.1,0.3,0.4,0.3,0.9
			c0,0.2,0,0.7-0.1,1.2c-0.1,0.6-0.1,1.4-0.1,2.5c0,0.7,0.1,1.5,0.2,2.2s0.3,1.2,0.6,1.7c0.1,0.2,0.3,0.4,0.5,0.6
			C54.9,22.1,55,22.4,55,22.7z"/>
		<path class="st0" d="M69.5,24.6c0,0.3-0.1,0.6-0.2,0.8c-0.2,0.2-0.4,0.3-0.6,0.4c-0.2,0.1-0.5,0.2-0.8,0.2c-0.5,0-0.9-0.1-1.2-0.4
			c-0.3-0.3-0.6-0.6-0.8-1c-0.3-0.4-0.5-0.9-0.7-1.4c0-0.1-0.1-0.2-0.2-0.2c-0.1,0-0.1,0-0.2,0.1l-0.1,0.1c-0.4,0.5-0.8,0.8-1.3,1.1
			c-0.4,0.3-0.9,0.5-1.3,0.7c-0.4,0.1-0.8,0.2-1.1,0.3s-0.6,0.1-0.8,0.1c-0.8,0-1.4-0.1-1.9-0.4c-0.5-0.3-0.8-0.6-1-1
			c-0.2-0.4-0.4-0.7-0.4-1.1c-0.1-0.4-0.1-0.6-0.1-0.8c0-0.5,0.1-1.1,0.3-1.6c0.2-0.5,0.5-1,0.8-1.4c0.3-0.5,0.7-0.9,1.1-1.2
			c0.4-0.4,0.8-0.7,1.3-1.1c1-0.7,2.2-1.4,3.5-2c0.1,0,0.2-0.1,0.2-0.1c0.2-0.1,0.2-0.2,0.2-0.4c0-0.3-0.2-0.5-0.7-0.6
			c-0.5-0.1-1-0.2-1.6-0.2c-0.2,0-0.5,0-0.7,0c-0.2,0-0.4,0-0.6,0.1c-0.2,0-0.4,0-0.6,0c-0.3,0-0.5,0-0.7-0.1S59.1,13.1,59,13
			c-0.1-0.1-0.1-0.3-0.2-0.4c0-0.1,0-0.3,0-0.3c0-0.1,0-0.2,0.1-0.4c0.1-0.2,0.2-0.4,0.4-0.6c0.2-0.2,0.5-0.4,1-0.5
			c0.4-0.1,1-0.2,1.7-0.2c0.5,0,1.1,0.1,1.8,0.2c0.7,0.1,1.4,0.3,2,0.6c0.6,0.3,1.2,0.6,1.6,1c0.5,0.4,0.7,0.9,0.7,1.5
			c0,0.4-0.2,0.9-0.6,1.2s-0.9,0.8-1.4,1.1c-0.6,0.4-1.2,0.7-1.9,1.1c-0.7,0.4-1.3,0.8-1.9,1.2c-0.6,0.4-1.1,0.9-1.4,1.4
			c-0.4,0.5-0.6,1.1-0.6,1.7c0,0.1,0,0.3,0.1,0.5c0.1,0.2,0.3,0.4,0.7,0.4c0.3,0,0.6-0.1,0.9-0.2c0.3-0.2,0.7-0.4,1-0.6
			s0.6-0.6,0.8-0.9c0.2-0.3,0.3-0.7,0.3-1c0,0,0-0.1,0-0.1v-0.2c0-0.2,0-0.4,0.1-0.7c0.1-0.2,0.2-0.5,0.4-0.7
			c0.2-0.2,0.4-0.4,0.7-0.5s0.5-0.2,0.8-0.2c0.2,0,0.3,0,0.5,0.1s0.2,0.3,0.2,0.5c0.1,0.8,0.2,1.5,0.4,2.2c0.1,0.6,0.3,1.2,0.6,1.8
			c0.2,0.6,0.6,1.1,0.9,1.4c0.1,0.2,0.3,0.3,0.4,0.5c0.1,0.1,0.2,0.3,0.2,0.5S69.5,24.4,69.5,24.6z"/>
		<path class="st0" d="M92.2,24.6c0,0.3-0.1,0.6-0.2,0.8c-0.2,0.2-0.4,0.3-0.6,0.4c-0.2,0.1-0.5,0.2-0.8,0.2c-0.5,0-0.9-0.1-1.2-0.4
			c-0.3-0.3-0.6-0.6-0.8-1c-0.3-0.4-0.5-0.9-0.7-1.4c0-0.1-0.1-0.2-0.2-0.2c-0.1,0-0.1,0-0.2,0.1l-0.1,0.1c-0.4,0.5-0.8,0.8-1.3,1.1
			c-0.4,0.3-0.9,0.5-1.3,0.7c-0.4,0.1-0.8,0.2-1.1,0.3s-0.6,0.1-0.8,0.1c-0.8,0-1.4-0.1-1.9-0.4c-0.5-0.3-0.8-0.6-1-1
			c-0.2-0.4-0.4-0.7-0.4-1.1c-0.1-0.4-0.1-0.6-0.1-0.8c0-0.5,0.1-1.1,0.3-1.6c0.2-0.5,0.5-1,0.8-1.4c0.3-0.5,0.7-0.9,1.1-1.2
			c0.4-0.4,0.8-0.7,1.3-1.1c1-0.7,2.2-1.4,3.5-2c0.1,0,0.2-0.1,0.2-0.1c0.2-0.1,0.2-0.2,0.2-0.4c0-0.3-0.2-0.5-0.7-0.6
			c-0.5-0.1-1-0.2-1.6-0.2c-0.2,0-0.5,0-0.7,0c-0.2,0-0.4,0-0.6,0.1c-0.2,0-0.4,0-0.6,0c-0.3,0-0.5,0-0.7-0.1s-0.3-0.2-0.4-0.3
			c-0.1-0.1-0.1-0.3-0.2-0.4c0-0.1,0-0.3,0-0.3c0-0.1,0-0.2,0.1-0.4c0.1-0.2,0.2-0.4,0.4-0.6c0.2-0.2,0.5-0.4,1-0.5
			c0.4-0.1,1-0.2,1.7-0.2c0.5,0,1.1,0.1,1.8,0.2c0.7,0.1,1.4,0.3,2,0.6c0.6,0.3,1.2,0.6,1.6,1c0.5,0.4,0.7,0.9,0.7,1.5
			c0,0.4-0.2,0.9-0.6,1.2s-0.9,0.8-1.4,1.1c-0.6,0.4-1.2,0.7-1.9,1.1c-0.7,0.4-1.3,0.8-1.9,1.2c-0.6,0.4-1.1,0.9-1.4,1.4
			c-0.4,0.5-0.6,1.1-0.6,1.7c0,0.1,0,0.3,0.1,0.5c0.1,0.2,0.3,0.4,0.7,0.4c0.3,0,0.6-0.1,0.9-0.2c0.3-0.2,0.7-0.4,1-0.6
			s0.6-0.6,0.8-0.9c0.2-0.3,0.3-0.7,0.3-1c0,0,0-0.1,0-0.1v-0.2c0-0.2,0-0.4,0.1-0.7c0.1-0.2,0.2-0.5,0.4-0.7
			c0.2-0.2,0.4-0.4,0.7-0.5s0.5-0.2,0.8-0.2c0.2,0,0.3,0,0.5,0.1s0.2,0.3,0.2,0.5c0.1,0.8,0.2,1.5,0.4,2.2c0.1,0.6,0.3,1.2,0.6,1.8
			c0.2,0.6,0.6,1.1,0.9,1.4c0.1,0.2,0.3,0.3,0.4,0.5c0.1,0.1,0.2,0.3,0.2,0.5S92.2,24.4,92.2,24.6z M90.6,4.3c0,0.1,0,0.3-0.1,0.4
			c-0.1,0.1-0.1,0.2-0.2,0.2C90.2,5,90.1,5,90,5.1c-0.5,0.2-1,0.5-1.5,0.8c-0.5,0.3-0.9,0.7-1.3,1c-0.4,0.3-0.8,0.6-1.1,0.9
			S85.4,8.2,85,8.2c-0.2,0-0.4,0-0.5-0.2c-0.1-0.1-0.1-0.1,0-0.2c0-0.5,0.2-1,0.5-1.6C85.3,5.6,85.6,5,86,4.5s0.8-0.9,1.2-1.3
			c0.4-0.3,0.7-0.5,1-0.5c0.2,0,0.4,0,0.6,0.1c0.3,0.1,0.5,0.1,0.8,0.3s0.5,0.3,0.7,0.5C90.5,3.7,90.6,4,90.6,4.3z"/>
		<path class="st0" d="M107.7,19.8c0,1.4,0,2.8-0.1,4.3s-0.3,3-0.5,4.4c-0.2,1.4-0.5,2.8-0.9,4.1c-0.4,1.3-0.8,2.4-1.4,3.4
			c-0.5,1-1.2,1.7-1.9,2.3s-1.6,0.9-2.5,0.9c-0.3,0-0.5,0-0.7-0.1c-0.2-0.1-0.3-0.2-0.4-0.3c-0.1-0.1-0.2-0.3-0.2-0.5
			c0-0.2,0.1-0.4,0.2-0.7c0.2-0.2,0.3-0.4,0.5-0.6c0.2-0.2,0.5-0.4,0.8-0.6c0.9-0.8,1.7-1.8,2.3-3c0.6-1.2,1-2.5,1.4-3.8
			c0.3-1.3,0.6-2.7,0.7-4s0.2-2.5,0.2-3.5c0-0.3,0-0.6,0-0.8s0-0.5,0-0.7c0-0.5-0.1-0.9-0.2-1.1c-0.1-0.2-0.2-0.2-0.3-0.2
			c-0.1,0-0.5,0.3-1.1,0.8c-0.6,0.5-1.3,1.1-2.1,1.7c-0.8,0.6-1.7,1.2-2.6,1.7c-0.9,0.5-1.8,0.8-2.6,0.8c-0.5,0-0.9-0.1-1.2-0.3
			c-0.3-0.2-0.5-0.5-0.7-0.7c-0.2-0.3-0.2-0.6-0.3-0.9c0-0.3,0-0.6,0-0.8c0-1.1,0.3-2.2,0.9-3.5c0.6-1.2,1.3-2.4,2.3-3.5
			c0.9-1.1,2-2,3.2-2.7c1.2-0.7,2.3-1.1,3.5-1.1c0.2,0,0.5,0,0.7,0.1c0.2,0.1,0.5,0.2,0.7,0.3c0.2,0.1,0.4,0.3,0.5,0.6
			c0.1,0.3,0.2,0.6,0.2,1c0,0.2,0,0.4,0,0.6c0,0.2,0,0.3,0,0.5c0,0.2,0,0.4-0.1,0.6c0,0.2-0.1,0.5-0.2,0.9l0,0v0.1
			c0,0.1,0,0.1,0.1,0.1l0.2-0.1c0.1-0.1,0.3-0.1,0.4-0.2c0.3-0.1,0.5-0.2,0.8-0.2c0.2,0,0.4,0.1,0.5,0.2c0.1,0.1,0.1,0.5,0.1,0.9
			c0,0.5,0,1.1,0.1,1.7C107.6,18.6,107.7,19.2,107.7,19.8z M103.1,15.5c0-0.2,0-0.4-0.1-0.6c-0.1-0.1-0.1-0.3-0.2-0.4
			s-0.3-0.2-0.5-0.2c-0.7,0-1.4,0.3-2,0.8s-1.2,1.1-1.6,1.8c-0.5,0.7-0.8,1.4-1.1,2.1c-0.3,0.7-0.4,1.2-0.4,1.5
			c0,0.4,0.1,0.6,0.5,0.6c0.4,0,0.9-0.2,1.6-0.6c0.6-0.4,1.2-0.8,1.8-1.4c0.6-0.5,1.1-1.1,1.5-1.8C102.9,16.6,103.1,16,103.1,15.5z"
			/>
		<path class="st0" d="M123.1,22.7c0,0.4-0.1,0.7-0.2,0.9c-0.2,0.2-0.3,0.3-0.6,0.4c-0.2,0.1-0.5,0.2-0.8,0.2
			c-0.5,0-0.9-0.1-1.2-0.4c-0.3-0.2-0.6-0.5-0.8-0.8c-0.2-0.3-0.3-0.6-0.4-0.9c-0.1-0.3-0.1-0.5-0.1-0.5c0-0.1,0-0.1-0.1-0.1
			c-0.1,0-0.1,0-0.2,0.1c0,0-0.1,0-0.1,0c-0.5,0.8-0.9,1.5-1.4,1.9c-0.5,0.5-0.9,0.8-1.4,1c-0.4,0.2-0.8,0.3-1.1,0.4
			c-0.3,0-0.5,0.1-0.5,0.1c-0.7,0-1.3-0.2-1.7-0.7c-0.5-0.5-0.9-1-1.2-1.7s-0.5-1.5-0.7-2.3c-0.1-0.8-0.2-1.6-0.2-2.3
			c0-0.7,0.1-1.5,0.2-2.3c0.1-0.9,0.3-1.7,0.6-2.4s0.6-1.4,1-1.9c0.4-0.5,0.9-0.8,1.5-0.8c0.1,0,0.2,0,0.4,0c0.1,0,0.3,0.1,0.4,0.2
			c0.1,0.1,0.3,0.2,0.3,0.4c0.1,0.2,0.1,0.5,0.1,0.8c0,0.3,0,0.6-0.1,0.9c-0.1,0.4-0.2,0.8-0.4,1.3c-0.2,0.5-0.4,1.1-0.5,1.6
			c-0.1,0.5-0.2,1-0.3,1.6s-0.1,1.1-0.1,1.6c0,0.6,0.1,1.2,0.3,1.6s0.6,0.7,1.1,0.7c0.4-0.1,0.8-0.3,1.2-0.7c0.3-0.3,0.7-0.8,1-1.4
			c0.4-0.7,0.6-1.6,0.9-2.7c0-0.2,0.1-0.4,0.1-0.6c0-0.2,0.1-0.4,0.1-0.7c0-0.2,0-0.5,0-0.7c0-0.1,0.1-0.3,0.2-0.5
			c0.1-0.2,0.3-0.4,0.4-0.6c0.2-0.2,0.4-0.4,0.7-0.5c0.3-0.1,0.6-0.2,0.9-0.2c0.3,0,0.6,0.1,0.8,0.2c0.2,0.1,0.3,0.4,0.3,0.9
			c0,0.2,0,0.7-0.1,1.2c-0.1,0.6-0.1,1.4-0.1,2.5c0,0.7,0.1,1.5,0.2,2.2s0.3,1.2,0.6,1.7c0.1,0.2,0.3,0.4,0.5,0.6
			C123,22.1,123.1,22.4,123.1,22.7z"/>
		<path class="st0" d="M137.7,24.6c0,0.3-0.1,0.6-0.2,0.8c-0.2,0.2-0.4,0.3-0.6,0.4c-0.2,0.1-0.5,0.2-0.8,0.2
			c-0.5,0-0.9-0.1-1.2-0.4c-0.3-0.3-0.6-0.6-0.8-1c-0.3-0.4-0.5-0.9-0.7-1.4c0-0.1-0.1-0.2-0.2-0.2c-0.1,0-0.1,0-0.2,0.1l-0.1,0.1
			c-0.4,0.5-0.8,0.8-1.3,1.1c-0.4,0.3-0.9,0.5-1.3,0.7c-0.4,0.1-0.8,0.2-1.1,0.3s-0.6,0.1-0.8,0.1c-0.8,0-1.4-0.1-1.9-0.4
			c-0.5-0.3-0.8-0.6-1-1c-0.2-0.4-0.4-0.7-0.4-1.1c-0.1-0.4-0.1-0.6-0.1-0.8c0-0.5,0.1-1.1,0.3-1.6c0.2-0.5,0.5-1,0.8-1.4
			c0.3-0.5,0.7-0.9,1.1-1.2c0.4-0.4,0.8-0.7,1.3-1.1c1-0.7,2.2-1.4,3.5-2c0.1,0,0.2-0.1,0.2-0.1c0.2-0.1,0.2-0.2,0.2-0.4
			c0-0.3-0.2-0.5-0.7-0.6c-0.5-0.1-1-0.2-1.6-0.2c-0.2,0-0.5,0-0.7,0c-0.2,0-0.4,0-0.6,0.1c-0.2,0-0.4,0-0.6,0c-0.3,0-0.5,0-0.7-0.1
			s-0.3-0.2-0.4-0.3c-0.1-0.1-0.1-0.3-0.2-0.4c0-0.1,0-0.3,0-0.3c0-0.1,0-0.2,0.1-0.4c0.1-0.2,0.2-0.4,0.4-0.6
			c0.2-0.2,0.5-0.4,1-0.5c0.4-0.1,1-0.2,1.7-0.2c0.5,0,1.1,0.1,1.8,0.2c0.7,0.1,1.4,0.3,2,0.6c0.6,0.3,1.2,0.6,1.6,1
			c0.5,0.4,0.7,0.9,0.7,1.5c0,0.4-0.2,0.9-0.6,1.2s-0.9,0.8-1.4,1.1c-0.6,0.4-1.2,0.7-1.9,1.1c-0.7,0.4-1.3,0.8-1.9,1.2
			c-0.6,0.4-1.1,0.9-1.4,1.4c-0.4,0.5-0.6,1.1-0.6,1.7c0,0.1,0,0.3,0.1,0.5c0.1,0.2,0.3,0.4,0.7,0.4c0.3,0,0.6-0.1,0.9-0.2
			c0.3-0.2,0.7-0.4,1-0.6s0.6-0.6,0.8-0.9c0.2-0.3,0.3-0.7,0.3-1c0,0,0-0.1,0-0.1v-0.2c0-0.2,0-0.4,0.1-0.7c0.1-0.2,0.2-0.5,0.4-0.7
			c0.2-0.2,0.4-0.4,0.7-0.5s0.5-0.2,0.8-0.2c0.2,0,0.3,0,0.5,0.1s0.2,0.3,0.2,0.5c0.1,0.8,0.2,1.5,0.4,2.2c0.1,0.6,0.3,1.2,0.6,1.8
			c0.2,0.6,0.6,1.1,0.9,1.4c0.1,0.2,0.3,0.3,0.4,0.5c0.1,0.1,0.2,0.3,0.2,0.5S137.7,24.4,137.7,24.6z"/>
		<path class="st0" d="M44.3,63.1c0,0.3-0.1,0.5-0.2,0.7c-0.1,0.2-0.3,0.4-0.5,0.5c-0.2,0.1-0.4,0.2-0.6,0.3s-0.4,0.1-0.5,0.1
			c-0.7,0-1.2-0.2-1.6-0.6c-0.4-0.4-0.7-1-0.9-1.6s-0.3-1.3-0.4-2.1s-0.1-1.5-0.1-2.1c0-0.5,0-1,0-1.4c0-0.4,0-0.7,0-0.9
			c0-0.4,0-0.7-0.1-0.8C39.2,55.1,39.1,55,39,55c-0.1,0-0.2,0-0.3,0.1c-0.1,0.1-0.2,0.2-0.3,0.2c-0.1,0.1-0.2,0.2-0.3,0.3
			c-0.3,0.4-0.6,0.9-0.9,1.5c-0.3,0.6-0.6,1.2-0.9,1.7c-0.3,0.7-0.7,1.3-1,2c-0.2,0.4-0.5,0.7-0.7,1.1c-0.2,0.3-0.6,0.5-1.1,0.5
			c-0.5,0-1-0.3-1.3-0.8s-0.5-1.2-0.7-1.9c-0.2-0.7-0.3-1.4-0.3-2.1s-0.1-1.1-0.2-1.4c-0.1-0.4-0.2-0.6-0.5-0.6c-0.1,0-0.1,0-0.2,0
			c-0.1,0-0.1,0.1-0.2,0.1c-0.1,0.1-0.1,0.1-0.2,0.1c-0.5,0.5-0.9,1.1-1.3,1.9c-0.4,0.8-0.7,1.6-1,2.3c-0.3,0.9-0.6,1.8-0.9,2.8
			c-0.1,0.5-0.3,0.8-0.5,0.9c-0.2,0.1-0.5,0.1-0.7,0.1c-0.3,0-0.6-0.1-0.8-0.2c-0.2-0.1-0.4-0.3-0.5-0.5S24,63,24,62.8
			c0-0.2-0.1-0.4-0.1-0.6c0-0.5,0-1.1,0.1-1.5c0-0.3,0.1-0.5,0.1-0.8c0.1-0.5,0.1-0.9,0.1-1.3c0-0.4,0-0.8,0-1.2
			c0-1-0.1-1.8-0.2-2.5c-0.1-0.7-0.3-1.3-0.4-1.7c-0.2-0.5-0.3-1-0.5-1.4c0,0-0.1-0.1-0.1-0.2s0-0.2,0-0.5c0-0.2,0-0.3,0.1-0.6
			s0.2-0.4,0.3-0.6c0.1-0.2,0.3-0.3,0.5-0.5s0.5-0.2,0.7-0.2c0.3,0,0.6,0.1,0.9,0.3c0.4,0.2,0.6,0.8,0.9,1.6c0.1,0.3,0.1,0.6,0.2,1
			c0.1,0.4,0.1,0.9,0.1,1.4c0,0.6,0.1,1.2,0.1,2c0,0,0,0.1,0,0.1c0,0.1,0,0.1,0.1,0.1c0,0,0.1,0,0.1-0.1c0.1-0.2,0.3-0.5,0.5-1
			c0.3-0.5,0.6-1,1-1.5s0.9-1,1.5-1.4c0.5-0.4,1.1-0.6,1.7-0.6c0.5,0,0.9,0.2,1.1,0.6c0.2,0.4,0.4,1.2,0.5,2.4c0,0.5,0.1,1,0.2,1.4
			c0.1,0.3,0.1,0.6,0.2,0.9c0.1,0.3,0.2,0.4,0.3,0.4c0.1,0,0.1-0.1,0.2-0.2c0.2-0.2,0.4-0.6,0.6-1.1c0-0.1,0.2-0.5,0.5-1.1
			c0.3-0.6,0.7-1.2,1.1-1.9c0.5-0.7,1-1.3,1.6-1.8c0.6-0.5,1.2-0.8,1.9-0.8c0.5,0,0.8,0.1,1.1,0.4c0.3,0.2,0.5,0.6,0.7,0.9
			c0.1,0.4,0.2,0.8,0.3,1.2s0.1,0.9,0.1,1.3c0,2.3,0.1,4.2,0.2,5.6c0.1,1.4,0.6,2.4,1.3,2.9c0.1,0,0.1,0.1,0.2,0.2
			c0.1,0.1,0.1,0.1,0.1,0.2S44.3,63,44.3,63.1z"/>
		<path class="st0" d="M50.5,51.1c0,0.1-0.1,0.4-0.2,0.8c-0.1,0.4-0.2,0.9-0.2,1.5s-0.2,1.2-0.2,2s-0.1,1.5-0.1,2.3
			c0,0.6,0,1.2,0.1,1.7c0.1,0.5,0.1,1,0.2,1.4c0.1,0.5,0.2,0.9,0.2,1.3c-0.1,0.4-0.2,0.6-0.6,0.8C49.4,63,49.1,63,48.9,63
			c-0.2,0-0.5-0.1-0.7-0.2c-0.1-0.1-0.2-0.1-0.2-0.2c-0.5-0.5-0.8-1.3-1-2.3c-0.2-1-0.3-2-0.3-3.2c0-0.8,0-1.7,0.1-2.5
			c0.1-0.8,0.1-1.6,0.2-2.2c0.1-0.8,0.2-1.5,0.3-2.2c0-0.1,0.1-0.2,0.2-0.3c0.1-0.1,0.2-0.2,0.4-0.2c0.2-0.1,0.5-0.1,0.8-0.1
			c0.1,0,0.3,0,0.5,0.1s0.4,0.1,0.6,0.2c0.2,0.1,0.3,0.2,0.5,0.4S50.5,50.8,50.5,51.1z M51.8,43.5c0,0.2,0,0.5-0.1,0.8
			c-0.1,0.3-0.3,0.7-0.5,1s-0.5,0.6-0.9,0.9s-0.8,0.4-1.4,0.4c-0.5,0-0.9-0.1-1-0.5c-0.2-0.3-0.3-0.6-0.3-1c0-0.3,0.1-0.6,0.2-0.9
			c0.2-0.3,0.4-0.6,0.6-0.9c0.3-0.3,0.6-0.5,1-0.7c0.4-0.2,0.8-0.3,1.2-0.3c0.2,0,0.4,0.1,0.7,0.2S51.8,42.9,51.8,43.5z"/>
		<path class="st0" d="M67.5,61.4c0,0.4-0.1,0.8-0.3,1s-0.4,0.4-0.7,0.5c-0.3,0.1-0.6,0.2-0.9,0.2c-0.7,0-1.2-0.2-1.6-0.7
			c-0.4-0.5-0.7-1.1-0.8-1.8c-0.2-0.7-0.3-1.4-0.3-2.2c0-0.8-0.1-1.4-0.1-2v-0.8c0-0.3-0.1-0.4-0.3-0.4c-0.4,0-0.7,0.2-1,0.6
			c-0.3,0.4-0.7,0.9-1,1.5c-0.3,0.6-0.7,1.3-1,2c-0.3,0.7-0.6,1.4-0.9,2c-0.3,0.6-0.6,1.2-0.8,1.6s-0.5,0.7-0.7,0.7
			c-0.1,0-0.3,0.1-0.4,0.1c-0.1,0-0.2,0-0.3,0c-0.4,0-0.7-0.2-1-0.5c-0.2-0.3-0.4-0.8-0.5-1.3c-0.1-0.5-0.2-1.1-0.2-1.8
			s-0.1-1.4-0.1-2.1c0-0.6,0-1.3,0.1-2.1c0.1-0.8,0.2-1.6,0.3-2.4c0.1-0.8,0.2-1.5,0.4-2.2c0.2-0.7,0.3-1.2,0.5-1.5
			c0.1-0.2,0.3-0.5,0.5-0.7c0.2-0.2,0.4-0.3,0.6-0.5c0.3-0.2,0.6-0.2,1-0.2c0.1,0,0.1,0,0.3,0c0.1,0,0.3,0.1,0.4,0.1
			s0.3,0.2,0.4,0.3c0.1,0.1,0.2,0.3,0.2,0.6c0,0.4-0.1,0.8-0.3,1.2c-0.2,0.6-0.4,1.2-0.5,1.8c-0.1,0.5-0.3,1.1-0.3,1.7
			s-0.1,1.2-0.1,1.7c0,0.4,0.1,0.5,0.2,0.5c0.1,0,0.1,0,0.1-0.1c0.1-0.2,0.4-0.6,0.7-1.2s0.9-1.3,1.4-1.9c0.6-0.7,1.2-1.3,1.8-1.8
			c0.7-0.5,1.3-0.8,2-0.8c0.8,0,1.3,0.3,1.5,0.8c0.2,0.5,0.3,1.4,0.3,2.7c0,0.3,0,0.6,0,0.9c0,0.3,0,0.6,0,1c0,0.3,0,0.6,0,1.1
			s0.1,0.9,0.2,1.4c0.1,0.5,0.2,0.9,0.4,1.3c0.2,0.4,0.4,0.7,0.7,0.8l0.2,0.2C67.4,61.1,67.5,61.2,67.5,61.4z"/>
		<path class="st0" d="M80.2,52.1c0,0.8-0.2,1.7-0.5,2.5c-0.4,0.8-0.8,1.5-1.4,2.2c-0.6,0.6-1.3,1.1-2,1.5c-0.8,0.4-1.6,0.6-2.4,0.6
			c-0.1,0-0.1,0-0.2,0.1c0,0,0,0.1,0,0.1c0.1,0.6,0.2,1.1,0.4,1.5c0.2,0.4,0.5,0.6,0.7,0.9c0.3,0.2,0.6,0.4,1,0.5
			c0.7,0.2,1.1,0.4,1.3,0.8c0.1,0.3,0.2,0.6,0.2,0.8c0,0.4-0.1,0.6-0.3,0.8c-0.2,0.2-0.4,0.3-0.6,0.4c-0.2,0.1-0.5,0.2-0.8,0.2
			c-0.9,0-1.7-0.2-2.3-0.6c-0.6-0.4-1.1-0.9-1.5-1.4c-0.4-0.6-0.8-1.3-1-2.1l-0.1-0.5c-0.1-0.2-0.1-0.4-0.1-0.6s-0.1-0.5-0.1-0.8
			c0,0,0-0.1,0-0.1c-0.1-0.1-0.1-0.1-0.2-0.1c-0.3-0.1-0.6-0.2-0.9-0.3c-0.2-0.1-0.4-0.3-0.6-0.6c-0.2-0.2-0.3-0.6-0.3-1.1
			c0-0.2,0.1-0.4,0.2-0.6c0.1-0.1,0.1-0.3,0.3-0.4s0.3-0.2,0.5-0.2c0.1,0,0.2,0,0.3,0.1s0.4,0.1,0.7,0.1c0.1,0,0.1,0,0.1,0
			c0,0,0,0,0,0c0.4-1.3,0.9-2.4,1.5-3.4c0.3-0.4,0.6-0.9,0.9-1.3c0.3-0.4,0.7-0.8,1.1-1.1s0.9-0.6,1.4-0.8c0.5-0.2,1-0.3,1.6-0.3
			c0.3,0,0.6,0,0.9,0.1c0.4,0.1,0.7,0.2,1,0.5c0.3,0.2,0.6,0.6,0.8,1C80.1,50.9,80.2,51.4,80.2,52.1z M77.3,52.5
			c0-0.2,0-0.3-0.1-0.4c-0.1-0.1-0.1-0.2-0.2-0.3c-0.1-0.1-0.2-0.1-0.4-0.1c-0.3,0-0.7,0.2-1,0.5s-0.7,0.7-1,1.1
			c-0.3,0.5-0.6,0.9-0.8,1.4c-0.2,0.5-0.3,1-0.3,1.4c0,0.1,0.1,0.2,0.2,0.2c0.2,0,0.5-0.1,0.9-0.2c0.4-0.2,0.8-0.4,1.2-0.7
			c0.4-0.3,0.8-0.7,1.1-1.1S77.3,53.2,77.3,52.5z"/>
		<path class="st0" d="M93,54.8c0,0.2-0.1,0.4-0.2,0.5s-0.3,0.2-0.5,0.3c-0.2,0.1-0.5,0.1-0.7,0.1c-0.5,0-1-0.1-1.2-0.3
			s-0.5-0.4-0.7-0.6s-0.3-0.4-0.4-0.6C89.2,54.1,89.1,54,89,54c-0.2,0-0.4,0.3-0.8,0.9c-0.4,0.6-0.7,1.3-1.1,2.2
			c-0.4,0.9-0.7,1.9-1,3s-0.4,2.2-0.4,3.2c0,0.5-0.1,0.8-0.4,0.9c-0.3,0.2-0.6,0.2-1,0.2c-0.4,0-0.8-0.2-1-0.6
			c-0.2-0.4-0.4-0.9-0.5-1.4c-0.1-0.6-0.2-1.2-0.2-1.9c0-0.7,0-1.4,0-2c0-1.1,0-2.2,0.1-3.2c0.1-1.1,0.1-2,0.2-2.7
			c0.1-0.6,0.2-1.1,0.3-1.6c0.1-0.4,0.3-0.7,0.5-0.9s0.4-0.4,0.7-0.5c0.3-0.1,0.6-0.1,1-0.1c0.1,0,0.3,0.1,0.4,0.2
			c0.1,0.1,0.2,0.2,0.2,0.3c0.1,0.2,0.1,0.3,0.1,0.6c0,0.2,0,0.3,0,0.4c-0.1,0.4-0.1,0.8-0.2,1.2c-0.1,0.4-0.1,0.8-0.2,1.2
			s-0.1,0.9-0.1,1.4c0,0.1,0,0.1,0,0.2c0,0.1,0.1,0.1,0.2,0.1s0.1-0.1,0.2-0.2c0.2-0.4,0.4-0.9,0.6-1.4c0.2-0.4,0.4-0.9,0.7-1.4
			c0.2-0.5,0.5-1,0.9-1.5c0.2-0.2,0.3-0.5,0.3-0.6c0.1-0.2,0.2-0.5,0.5-0.9c0.2-0.2,0.4-0.4,0.7-0.6c0.2-0.1,0.5-0.3,0.7-0.4
			c0.2-0.1,0.5-0.2,0.8-0.2c0.2,0,0.4,0.1,0.6,0.2c0.2,0.1,0.3,0.4,0.3,0.7c0,0.4,0,0.7-0.1,1c-0.1,0.3-0.1,0.7-0.1,1.2
			c0,0.8,0.1,1.4,0.2,1.8c0.1,0.4,0.3,0.8,0.5,1c0.2,0.3,0.3,0.5,0.5,0.6C93,54.5,93,54.7,93,54.8z"/>
		<path class="st0" d="M106.6,63.5c0,0.3-0.1,0.6-0.2,0.8s-0.4,0.3-0.6,0.4c-0.2,0.1-0.5,0.2-0.8,0.2c-0.5,0-0.9-0.1-1.2-0.4
			s-0.6-0.6-0.8-1c-0.3-0.4-0.5-0.9-0.7-1.4c0-0.1-0.1-0.2-0.2-0.2c-0.1,0-0.1,0-0.2,0.1l-0.1,0.1c-0.4,0.5-0.8,0.8-1.3,1.1
			c-0.4,0.3-0.9,0.5-1.3,0.7c-0.4,0.1-0.8,0.2-1.1,0.3c-0.3,0-0.6,0.1-0.8,0.1c-0.8,0-1.4-0.1-1.9-0.4c-0.5-0.3-0.8-0.6-1-1
			s-0.4-0.7-0.4-1.1c-0.1-0.4-0.1-0.6-0.1-0.8c0-0.5,0.1-1.1,0.3-1.6c0.2-0.5,0.5-1,0.8-1.4c0.3-0.5,0.7-0.9,1.1-1.2
			c0.4-0.4,0.8-0.7,1.3-1.1c1-0.7,2.2-1.4,3.5-2c0.1,0,0.2-0.1,0.2-0.1c0.2-0.1,0.2-0.2,0.2-0.4c0-0.3-0.2-0.5-0.7-0.6
			c-0.5-0.1-1-0.2-1.6-0.2c-0.2,0-0.5,0-0.7,0c-0.2,0-0.4,0-0.6,0.1c-0.2,0-0.4,0-0.6,0c-0.3,0-0.5,0-0.7-0.1s-0.3-0.2-0.4-0.3
			s-0.1-0.3-0.2-0.4c0-0.2,0-0.3,0-0.3c0-0.1,0-0.2,0.1-0.4c0.1-0.2,0.2-0.4,0.4-0.6c0.2-0.2,0.5-0.4,1-0.5c0.4-0.1,1-0.2,1.7-0.2
			c0.5,0,1.1,0.1,1.8,0.2c0.7,0.1,1.4,0.3,2,0.6c0.6,0.3,1.2,0.6,1.6,1c0.5,0.4,0.7,0.9,0.7,1.5c0,0.4-0.2,0.9-0.6,1.2
			c-0.4,0.4-0.9,0.8-1.4,1.1c-0.6,0.4-1.2,0.7-1.9,1.1c-0.7,0.4-1.3,0.8-1.9,1.2c-0.6,0.4-1.1,0.9-1.4,1.4c-0.4,0.5-0.6,1.1-0.6,1.7
			c0,0.1,0,0.3,0.1,0.5s0.3,0.4,0.7,0.4c0.3,0,0.6-0.1,0.9-0.2s0.7-0.4,1-0.6s0.6-0.6,0.8-0.9c0.2-0.3,0.3-0.7,0.3-1
			c0,0,0-0.1,0-0.1V58c0-0.2,0-0.4,0.1-0.7c0.1-0.2,0.2-0.5,0.4-0.7c0.2-0.2,0.4-0.4,0.7-0.5s0.5-0.2,0.8-0.2c0.2,0,0.3,0,0.5,0.1
			s0.2,0.3,0.2,0.5c0.1,0.8,0.2,1.5,0.4,2.2c0.1,0.6,0.3,1.2,0.6,1.8c0.2,0.6,0.6,1.1,0.9,1.4c0.1,0.2,0.3,0.3,0.4,0.5
			c0.1,0.1,0.2,0.3,0.2,0.5S106.6,63.3,106.6,63.5z"/>
		<path class="st0" d="M114.9,39.5c-0.4,1.8-0.8,3.7-1.1,5.6c-0.3,1.6-0.6,3.4-0.8,5.4c-0.2,2-0.3,3.9-0.3,5.7
			c0,1.4,0.1,2.7,0.2,3.9s0.5,2.2,0.9,3.1c0,0.1,0.1,0.2,0.1,0.3c0.1,0.2,0.2,0.5,0.2,0.7c0,0.2-0.1,0.5-0.4,0.9
			c-0.3,0.4-0.7,0.5-1.3,0.5c-0.3,0-0.5-0.1-0.7-0.2s-0.4-0.2-0.5-0.4c-0.2-0.2-0.3-0.4-0.5-0.6c-0.5-0.9-0.8-2-1-3.3
			s-0.3-2.7-0.3-4.3c0-1.4,0.1-2.9,0.2-4.4c0.1-1.5,0.3-3,0.5-4.4c0.2-1.5,0.4-2.9,0.7-4.2s0.5-2.6,0.8-3.8c0.1-0.2,0.2-0.5,0.3-0.7
			c0.1-0.2,0.3-0.4,0.6-0.5c0.3-0.1,0.6-0.3,1-0.3c0.3,0,0.6,0,0.8,0.1c0.3,0.1,0.4,0.3,0.4,0.6L114.9,39.5z"/>
	</g>
	<g>
		<path class="st1" d="M13.9,76.2c5.5,0,5.5,6.2,11,6.2c5.5,0,5.5-6.2,11-6.2c5.5,0,5.5,6.2,11,6.2c5.5,0,5.5-6.2,11-6.2
			c5.5,0,5.5,6.2,11,6.2c5.5,0,5.5-6.2,11-6.2c5.5,0,5.5,6.2,11,6.2c5.5,0,5.5-6.2,11-6.2c5.5,0,5.5,6.2,11,6.2
			c5.5,0,5.5-6.2,11-6.2"/>
	</g>
</g>
</svg>
