<?xml version="1.0" encoding="utf-8"?>
<!-- Generator: Adobe Illustrator 21.1.0, SVG Export Plug-In . SVG Version: 6.00 Build 0)  -->
<svg version="1.1" id="Capa_1" xmlns="http://www.w3.org/2000/svg" xmlns:xlink="http://www.w3.org/1999/xlink" x="0px" y="0px"
	 viewBox="0 0 159.8 84.2" style="enable-background:new 0 0 159.8 84.2;" xml:space="preserve">
<style type="text/css">
	.st0{fill:#FFFFFF;}
	.st1{fill:none;stroke:#FFFFFF;stroke-width:3.061;stroke-miterlimit:10;}
</style>
<g>
	<g>
		<path class="st0" d="M16.3,2c0,0.1,0,0.4,0,0.9c0,0.5-0.1,1.2-0.2,2.2c-0.1,0.9-0.4,2-0.7,3.3c-0.3,1.3-0.7,2.7-1.3,4.4
			c0,0.1,0,0.1,0,0.1c0,0,0,0.1,0,0.1c0,0,0,0,0.1,0c0.7,0.2,1.1,0.4,1.3,0.8c0.1,0.2,0.2,0.4,0.2,0.6c0,0.7-0.3,1.3-0.9,1.8
			c-0.6,0.4-1.2,0.7-1.9,0.7c-0.1,0-0.2,0-0.3,0.1C12.4,17,12.4,17,12.4,17c-0.4,1.1-0.9,2.2-1.6,3.4c-0.7,1.2-1.4,2.4-2.3,3.4
			c-0.8,1.1-1.8,1.9-2.8,2.6s-2.1,1-3.2,1c-0.5,0-0.9-0.1-1.1-0.3c-0.3-0.2-0.5-0.4-0.6-0.6c-0.2-0.3-0.3-0.6-0.3-0.9
			c0-0.3,0-0.6,0.1-0.8c0.1-0.2,0.2-0.4,0.3-0.5c0.1-0.2,0.3-0.3,0.5-0.4c0.9-0.1,1.7-0.4,2.4-0.8c0.7-0.4,1.2-0.8,1.7-1.2
			c0.5-0.5,0.9-1,1.3-1.6c0.3-0.5,0.6-1.1,0.9-1.6c0.3-0.5,0.6-1.1,0.8-1.7c0-0.1,0-0.1,0-0.2c0-0.1-0.1-0.2-0.2-0.2
			c-1.8-0.4-3.3-0.9-4.4-1.7c-1.1-0.8-2-1.6-2.6-2.6c-0.6-1-1-1.9-1.2-3C0.1,8.4,0,7.5,0,6.7C0,6,0,5.4,0.1,4.9
			c0-0.2,0.1-0.5,0.1-0.7c0.1-0.3,0.3-0.6,0.5-0.9c0.2-0.2,0.4-0.4,0.7-0.6c0.3-0.2,0.6-0.3,1.1-0.3c0,0,0.1,0,0.3,0
			c0.2,0,0.4,0.1,0.6,0.2c0.2,0.1,0.4,0.3,0.6,0.6c0.2,0.2,0.3,0.6,0.3,1.1c0,0.2,0,0.4,0,0.5S4.2,5,4.2,5.1c0,0.2-0.1,0.3-0.1,0.6
			s0,0.6,0,1.1c0,0.8,0.1,1.5,0.3,2.2c0.2,0.7,0.5,1.3,1,1.8c0.5,0.5,1.1,0.9,1.8,1.3c0.8,0.3,1.7,0.6,2.8,0.7
			c0.1,0,0.2-0.1,0.2-0.2c0.4-1.1,0.7-2.3,1-3.4s0.5-2.2,0.6-3.2c0.2-1.1,0.3-2.2,0.4-3.2c0-0.4,0.2-0.9,0.7-1.4
			c0.5-0.5,1.1-0.8,2-0.8c0.3,0,0.6,0.1,1,0.2C16.1,1.1,16.3,1.4,16.3,2z"/>
		<path class="st0" d="M29.5,16.1c0,1.3-0.2,2.5-0.6,3.5c-0.4,1-0.9,1.8-1.5,2.5c-0.6,0.7-1.3,1.2-2.1,1.5c-0.8,0.3-1.6,0.5-2.4,0.5
			c-1.1,0-1.9-0.3-2.5-0.8c-0.6-0.5-1-1.1-1.3-1.7c-0.3-0.7-0.5-1.6-0.5-2.5c0-0.6,0.1-1.2,0.2-1.8c0.1-0.6,0.3-1.1,0.5-1.5
			c0.2-0.5,0.5-1,0.7-1.5c0,0,0-0.1-0.1-0.2c0,0-0.1,0-0.1,0c-0.4,0-0.8-0.1-1-0.3c-0.2-0.2-0.4-0.4-0.4-0.7c0-0.4,0.1-0.7,0.4-1.1
			c0.3-0.4,0.7-0.7,1.1-0.9c0.5-0.3,1-0.5,1.6-0.6c0.6-0.2,1.2-0.2,1.7-0.2c0.5,0,1.1,0.1,1.8,0.2c0.7,0.2,1.3,0.4,2,0.8
			c0.6,0.4,1.2,1,1.6,1.8C29.3,13.9,29.5,14.9,29.5,16.1z M26.2,17c0-0.7-0.1-1.3-0.3-1.8c-0.1-0.5-0.3-0.9-0.6-1.2
			c-0.3-0.4-0.7-0.5-1.2-0.5c-0.2,0-0.4,0.1-0.6,0.3c-0.2,0.2-0.5,0.5-0.7,0.9c-0.2,0.4-0.4,0.9-0.5,1.4c-0.2,0.6-0.2,1.2-0.2,2
			c0,0.2,0,0.5,0,0.9c0,0.4,0.1,0.7,0.2,1.1c0.1,0.4,0.3,0.7,0.6,1c0.3,0.3,0.6,0.4,1.1,0.4c0.5,0,1-0.2,1.3-0.7
			c0.3-0.5,0.5-0.9,0.7-1.5C26.1,18.5,26.2,17.8,26.2,17z"/>
		<path class="st0" d="M44.9,23c0,0.4-0.1,0.7-0.2,0.9c-0.2,0.2-0.3,0.3-0.6,0.4c-0.2,0.1-0.5,0.2-0.8,0.2c-0.5,0-0.9-0.1-1.2-0.4
			c-0.3-0.2-0.6-0.5-0.8-0.8c-0.2-0.3-0.3-0.6-0.4-0.9c-0.1-0.3-0.1-0.5-0.1-0.5c0-0.1,0-0.1-0.1-0.1c-0.1,0-0.1,0-0.2,0.1
			c0,0-0.1,0-0.1,0c-0.5,0.8-0.9,1.5-1.4,1.9c-0.5,0.5-0.9,0.8-1.4,1c-0.4,0.2-0.8,0.3-1.1,0.4c-0.3,0-0.5,0.1-0.5,0.1
			c-0.7,0-1.3-0.2-1.7-0.7c-0.5-0.5-0.9-1-1.2-1.7s-0.5-1.5-0.7-2.3c-0.1-0.8-0.2-1.6-0.2-2.3c0-0.7,0.1-1.5,0.2-2.3
			c0.1-0.9,0.3-1.7,0.6-2.4s0.6-1.4,1-1.9c0.4-0.5,0.9-0.8,1.5-0.8c0.1,0,0.2,0,0.4,0c0.1,0,0.3,0.1,0.4,0.2
			c0.1,0.1,0.3,0.2,0.3,0.4c0.1,0.2,0.1,0.5,0.1,0.8c0,0.3,0,0.6-0.1,0.9c-0.1,0.4-0.2,0.8-0.4,1.3c-0.2,0.5-0.4,1.1-0.5,1.6
			c-0.1,0.5-0.2,1-0.3,1.6s-0.1,1.1-0.1,1.6c0,0.6,0.1,1.2,0.3,1.6s0.6,0.7,1.1,0.7c0.4-0.1,0.8-0.3,1.2-0.7c0.3-0.3,0.7-0.8,1-1.4
			c0.4-0.7,0.6-1.6,0.9-2.7c0-0.2,0.1-0.4,0.1-0.6c0-0.2,0.1-0.4,0.1-0.7c0-0.2,0-0.5,0-0.7c0-0.1,0.1-0.3,0.2-0.5
			c0.1-0.2,0.3-0.4,0.4-0.6c0.2-0.2,0.4-0.4,0.7-0.5c0.3-0.1,0.6-0.2,0.9-0.2c0.3,0,0.6,0.1,0.8,0.2c0.2,0.1,0.3,0.4,0.3,0.9
			c0,0.2,0,0.7-0.1,1.2c-0.1,0.6-0.1,1.4-0.1,2.5c0,0.7,0.1,1.5,0.2,2.2s0.3,1.2,0.6,1.7c0.1,0.2,0.3,0.4,0.5,0.6
			C44.8,22.4,44.9,22.7,44.9,23z"/>
		<path class="st0" d="M58.1,16.3c0,0.2-0.1,0.4-0.2,0.5S57.5,17,57.3,17c-0.2,0.1-0.5,0.1-0.7,0.1c-0.5,0-1-0.1-1.2-0.3
			c-0.3-0.2-0.5-0.4-0.7-0.6c-0.2-0.2-0.3-0.4-0.4-0.6c-0.1-0.2-0.2-0.3-0.3-0.3c-0.2,0-0.4,0.3-0.8,0.9s-0.7,1.3-1.1,2.2
			c-0.4,0.9-0.7,1.9-1,3c-0.3,1.1-0.4,2.2-0.4,3.2c0,0.5-0.1,0.8-0.4,0.9c-0.3,0.2-0.6,0.2-1,0.2c-0.4,0-0.8-0.2-1-0.6
			c-0.2-0.4-0.4-0.9-0.5-1.4c-0.1-0.6-0.2-1.2-0.2-1.9c0-0.7,0-1.4,0-2c0-1.1,0-2.2,0.1-3.2c0.1-1.1,0.1-2,0.2-2.7
			c0.1-0.6,0.2-1.1,0.3-1.6c0.1-0.4,0.3-0.7,0.5-0.9c0.2-0.2,0.4-0.4,0.7-0.5c0.3-0.1,0.6-0.1,1-0.1c0.1,0,0.3,0.1,0.4,0.2
			c0.1,0.1,0.2,0.2,0.2,0.3c0.1,0.2,0.1,0.3,0.1,0.6c0,0.2,0,0.3,0,0.4C51,12.6,51,13,50.9,13.4c-0.1,0.4-0.1,0.8-0.2,1.2
			c-0.1,0.5-0.1,0.9-0.1,1.4c0,0.1,0,0.1,0,0.2c0,0.1,0.1,0.1,0.2,0.1s0.1-0.1,0.2-0.2c0.2-0.4,0.4-0.9,0.6-1.4
			c0.2-0.4,0.4-0.9,0.7-1.4c0.2-0.5,0.5-1,0.9-1.5c0.2-0.2,0.3-0.5,0.3-0.6c0.1-0.2,0.2-0.5,0.5-0.9c0.2-0.2,0.4-0.4,0.7-0.6
			c0.2-0.1,0.5-0.3,0.7-0.4c0.2-0.1,0.5-0.2,0.8-0.2c0.2,0,0.4,0.1,0.6,0.2c0.2,0.1,0.3,0.4,0.3,0.7c0,0.4,0,0.7-0.1,1
			c-0.1,0.3-0.1,0.7-0.1,1.2c0,0.8,0.1,1.4,0.2,1.8c0.1,0.4,0.3,0.8,0.5,1c0.2,0.3,0.3,0.5,0.5,0.6C58,15.9,58.1,16.1,58.1,16.3z"/>
		<path class="st0" d="M89.1,24.5c0,0.3-0.1,0.5-0.2,0.7c-0.1,0.2-0.3,0.4-0.5,0.5C88.2,25.9,88,26,87.8,26
			c-0.2,0.1-0.4,0.1-0.5,0.1c-0.7,0-1.2-0.2-1.6-0.6c-0.4-0.4-0.7-1-0.9-1.6s-0.3-1.3-0.4-2.1c-0.1-0.8-0.1-1.5-0.1-2.1
			c0-0.5,0-1,0-1.4c0-0.4,0-0.7,0-0.9c0-0.4,0-0.7-0.1-0.8c-0.1-0.1-0.2-0.2-0.3-0.2c-0.1,0-0.2,0-0.3,0.1c-0.1,0.1-0.2,0.2-0.3,0.2
			c-0.1,0.1-0.2,0.2-0.3,0.3c-0.3,0.4-0.6,0.9-0.9,1.5c-0.3,0.6-0.6,1.2-0.9,1.7c-0.3,0.7-0.7,1.3-1,2c-0.2,0.4-0.5,0.7-0.7,1.1
			c-0.2,0.3-0.6,0.5-1.1,0.5c-0.5,0-1-0.3-1.3-0.8c-0.3-0.5-0.5-1.2-0.7-1.9c-0.2-0.7-0.3-1.4-0.3-2.1c-0.1-0.7-0.1-1.1-0.2-1.4
			c-0.1-0.4-0.2-0.6-0.5-0.6c-0.1,0-0.1,0-0.2,0c-0.1,0-0.1,0.1-0.2,0.1c-0.1,0.1-0.1,0.1-0.2,0.1c-0.5,0.5-0.9,1.1-1.3,1.9
			c-0.4,0.8-0.7,1.6-1,2.3c-0.3,0.9-0.6,1.8-0.9,2.8c-0.1,0.5-0.3,0.8-0.5,0.9s-0.5,0.1-0.7,0.1c-0.3,0-0.6-0.1-0.8-0.2
			c-0.2-0.1-0.4-0.3-0.5-0.5c-0.1-0.2-0.2-0.4-0.2-0.6c0-0.2-0.1-0.4-0.1-0.6c0-0.5,0-1.1,0.1-1.5c0-0.3,0.1-0.5,0.1-0.8
			c0.1-0.5,0.1-0.9,0.1-1.3c0-0.4,0-0.8,0-1.2c0-1-0.1-1.8-0.2-2.5s-0.3-1.3-0.4-1.7c-0.2-0.5-0.3-1-0.5-1.4c0,0-0.1-0.1-0.1-0.2
			c0-0.1,0-0.2,0-0.5c0-0.2,0-0.3,0.1-0.6c0.1-0.2,0.2-0.4,0.3-0.6c0.1-0.2,0.3-0.3,0.5-0.5c0.2-0.1,0.5-0.2,0.7-0.2
			c0.3,0,0.6,0.1,0.9,0.3c0.4,0.2,0.6,0.8,0.9,1.6c0.1,0.3,0.1,0.6,0.2,1c0.1,0.4,0.1,0.9,0.1,1.4c0,0.6,0.1,1.2,0.1,2
			c0,0,0,0.1,0,0.1c0,0.1,0,0.1,0.1,0.1c0,0,0.1,0,0.1-0.1c0.1-0.2,0.3-0.5,0.5-1c0.3-0.5,0.6-1,1-1.5s0.9-1,1.5-1.4
			c0.5-0.4,1.1-0.6,1.7-0.6c0.5,0,0.9,0.2,1.1,0.6c0.2,0.4,0.4,1.2,0.5,2.4c0,0.5,0.1,1,0.2,1.4c0.1,0.3,0.1,0.6,0.2,0.9
			c0.1,0.3,0.2,0.4,0.3,0.4c0.1,0,0.1-0.1,0.2-0.2c0.2-0.2,0.4-0.6,0.6-1.1c0-0.1,0.2-0.5,0.5-1.1c0.3-0.6,0.7-1.2,1.1-1.9
			s1-1.3,1.6-1.8c0.6-0.5,1.2-0.8,1.9-0.8c0.5,0,0.8,0.1,1.1,0.4c0.3,0.2,0.5,0.6,0.7,0.9c0.1,0.4,0.2,0.8,0.3,1.2
			c0,0.5,0.1,0.9,0.1,1.3c0,2.3,0.1,4.2,0.2,5.6c0.1,1.4,0.6,2.4,1.3,2.9c0.1,0,0.1,0.1,0.2,0.2c0.1,0.1,0.1,0.1,0.1,0.2
			S89.1,24.4,89.1,24.5z"/>
		<path class="st0" d="M95.4,12.5c0,0.1-0.1,0.4-0.2,0.8c-0.1,0.4-0.2,0.9-0.2,1.5c-0.1,0.6-0.2,1.2-0.2,2s-0.1,1.5-0.1,2.3
			c0,0.6,0,1.2,0.1,1.7s0.1,1,0.2,1.4c0.1,0.5,0.2,0.9,0.2,1.3c-0.1,0.4-0.2,0.6-0.6,0.8c-0.3,0.1-0.6,0.2-0.8,0.2
			c-0.2,0-0.5-0.1-0.7-0.2c-0.1-0.1-0.2-0.1-0.2-0.2c-0.5-0.5-0.8-1.3-1-2.3c-0.2-1-0.3-2-0.3-3.2c0-0.8,0-1.7,0.1-2.5
			c0.1-0.8,0.1-1.6,0.2-2.2c0.1-0.8,0.2-1.5,0.3-2.2c0-0.1,0.1-0.2,0.2-0.3c0.1-0.1,0.2-0.2,0.4-0.2c0.2-0.1,0.5-0.1,0.8-0.1
			c0.1,0,0.3,0,0.5,0.1s0.4,0.1,0.6,0.2c0.2,0.1,0.3,0.2,0.5,0.4S95.4,12.2,95.4,12.5z M96.6,4.9c0,0.2,0,0.5-0.1,0.8
			c-0.1,0.3-0.3,0.7-0.5,1c-0.2,0.3-0.5,0.6-0.9,0.9s-0.8,0.4-1.4,0.4c-0.5,0-0.9-0.1-1-0.5c-0.2-0.3-0.3-0.6-0.3-1
			c0-0.3,0.1-0.6,0.2-0.9c0.2-0.3,0.4-0.6,0.6-0.9c0.3-0.3,0.6-0.5,1-0.7c0.4-0.2,0.8-0.3,1.2-0.3c0.2,0,0.4,0.1,0.7,0.2
			C96.5,4,96.6,4.3,96.6,4.9z"/>
		<path class="st0" d="M112.3,22.8c0,0.4-0.1,0.8-0.3,1s-0.4,0.4-0.7,0.5c-0.3,0.1-0.6,0.2-0.9,0.2c-0.7,0-1.2-0.2-1.6-0.7
			c-0.4-0.5-0.7-1.1-0.8-1.8s-0.3-1.4-0.3-2.2s-0.1-1.4-0.1-2v-0.8c0-0.3-0.1-0.4-0.3-0.4c-0.4,0-0.7,0.2-1,0.6
			c-0.3,0.4-0.7,0.9-1,1.5c-0.3,0.6-0.7,1.3-1,2c-0.3,0.7-0.6,1.4-0.9,2c-0.3,0.6-0.6,1.2-0.8,1.6c-0.3,0.4-0.5,0.7-0.7,0.7
			c-0.1,0-0.3,0.1-0.4,0.1c-0.1,0-0.2,0-0.3,0c-0.4,0-0.7-0.2-1-0.5c-0.2-0.3-0.4-0.8-0.5-1.3c-0.1-0.5-0.2-1.1-0.2-1.8
			c0-0.7-0.1-1.4-0.1-2.1c0-0.6,0-1.3,0.1-2.1c0.1-0.8,0.2-1.6,0.3-2.4c0.1-0.8,0.2-1.5,0.4-2.2s0.3-1.2,0.5-1.5
			c0.1-0.2,0.3-0.5,0.5-0.7c0.2-0.2,0.4-0.3,0.6-0.5c0.3-0.1,0.6-0.2,1-0.2c0.1,0,0.1,0,0.3,0c0.1,0,0.3,0.1,0.4,0.1
			c0.1,0.1,0.3,0.2,0.4,0.3c0.1,0.1,0.2,0.3,0.2,0.6c0,0.4-0.1,0.8-0.3,1.2c-0.2,0.6-0.4,1.2-0.5,1.8c-0.1,0.5-0.3,1.1-0.3,1.7
			s-0.1,1.2-0.1,1.7c0,0.4,0.1,0.5,0.2,0.5c0.1,0,0.1,0,0.1-0.1c0.1-0.2,0.4-0.6,0.7-1.2s0.9-1.3,1.4-1.9c0.6-0.7,1.2-1.3,1.8-1.8
			c0.7-0.5,1.3-0.8,2-0.8c0.8,0,1.3,0.3,1.5,0.8c0.2,0.5,0.3,1.4,0.3,2.7c0,0.3,0,0.6,0,0.9c0,0.3,0,0.6,0,1c0,0.3,0,0.6,0,1.1
			c0,0.5,0.1,0.9,0.2,1.4c0.1,0.5,0.2,0.9,0.4,1.3c0.2,0.4,0.4,0.7,0.7,0.8l0.2,0.2C112.2,22.5,112.3,22.7,112.3,22.8z"/>
		<path class="st0" d="M125.1,13.6c0,0.8-0.2,1.7-0.5,2.5c-0.4,0.8-0.8,1.5-1.4,2.2c-0.6,0.6-1.3,1.1-2,1.5
			c-0.8,0.4-1.6,0.6-2.4,0.6c-0.1,0-0.1,0-0.2,0.1c0,0,0,0.1,0,0.1c0.1,0.6,0.2,1.1,0.4,1.5c0.2,0.4,0.5,0.6,0.7,0.9
			c0.3,0.2,0.6,0.4,1,0.5c0.7,0.2,1.1,0.4,1.3,0.8c0.1,0.3,0.2,0.6,0.2,0.8c0,0.4-0.1,0.6-0.3,0.8c-0.2,0.2-0.4,0.3-0.6,0.4
			c-0.2,0.1-0.5,0.2-0.8,0.2c-0.9,0-1.7-0.2-2.3-0.6c-0.6-0.4-1.1-0.9-1.5-1.4c-0.4-0.6-0.8-1.3-1-2.1l-0.1-0.5
			c-0.1-0.2-0.1-0.4-0.1-0.6c0-0.2-0.1-0.5-0.1-0.8c0,0,0-0.1,0-0.1c-0.1-0.1-0.1-0.1-0.2-0.1c-0.3-0.1-0.6-0.1-0.9-0.3
			c-0.2-0.1-0.4-0.3-0.6-0.6c-0.2-0.2-0.3-0.6-0.3-1.1c0-0.2,0.1-0.4,0.2-0.6c0.1-0.1,0.1-0.3,0.3-0.4c0.1-0.1,0.3-0.2,0.5-0.2
			c0.1,0,0.2,0,0.3,0.1c0.2,0,0.4,0.1,0.7,0.1c0.1,0,0.1,0,0.1,0c0,0,0,0,0,0c0.4-1.3,0.9-2.4,1.5-3.4c0.3-0.4,0.6-0.9,0.9-1.3
			c0.3-0.4,0.7-0.8,1.1-1.1c0.4-0.3,0.9-0.6,1.4-0.8c0.5-0.2,1-0.3,1.6-0.3c0.3,0,0.6,0,0.9,0.1c0.4,0.1,0.7,0.2,1,0.5
			c0.3,0.2,0.6,0.6,0.8,1C125,12.3,125.1,12.9,125.1,13.6z M122.2,14c0-0.2,0-0.3-0.1-0.4c-0.1-0.1-0.1-0.2-0.2-0.3
			c-0.1-0.1-0.2-0.1-0.4-0.1c-0.3,0-0.7,0.2-1,0.5c-0.4,0.3-0.7,0.7-1,1.1c-0.3,0.5-0.6,0.9-0.8,1.4c-0.2,0.5-0.3,1-0.3,1.4
			c0,0.1,0.1,0.2,0.2,0.2c0.2,0,0.5-0.1,0.9-0.2c0.4-0.1,0.8-0.4,1.2-0.7c0.4-0.3,0.8-0.7,1.1-1.1C122,15.2,122.2,14.6,122.2,14z"/>
		<path class="st0" d="M137.9,16.3c0,0.2-0.1,0.4-0.2,0.5s-0.3,0.2-0.5,0.3c-0.2,0.1-0.5,0.1-0.7,0.1c-0.5,0-1-0.1-1.2-0.3
			c-0.3-0.2-0.5-0.4-0.7-0.6c-0.2-0.2-0.3-0.4-0.4-0.6c-0.1-0.2-0.2-0.3-0.3-0.3c-0.2,0-0.4,0.3-0.8,0.9s-0.7,1.3-1.1,2.2
			c-0.4,0.9-0.7,1.9-1,3c-0.3,1.1-0.4,2.2-0.4,3.2c0,0.5-0.1,0.8-0.4,0.9c-0.3,0.2-0.6,0.2-1,0.2c-0.4,0-0.8-0.2-1-0.6
			c-0.2-0.4-0.4-0.9-0.5-1.4c-0.1-0.6-0.2-1.2-0.2-1.9c0-0.7,0-1.4,0-2c0-1.1,0-2.2,0.1-3.2c0.1-1.1,0.1-2,0.2-2.7
			c0.1-0.6,0.2-1.1,0.3-1.6c0.1-0.4,0.3-0.7,0.5-0.9c0.2-0.2,0.4-0.4,0.7-0.5c0.3-0.1,0.6-0.1,1-0.1c0.1,0,0.3,0.1,0.4,0.2
			c0.1,0.1,0.2,0.2,0.2,0.3c0.1,0.2,0.1,0.3,0.1,0.6c0,0.2,0,0.3,0,0.4c-0.1,0.4-0.1,0.8-0.2,1.2c-0.1,0.4-0.1,0.8-0.2,1.2
			c-0.1,0.5-0.1,0.9-0.1,1.4c0,0.1,0,0.1,0,0.2c0,0.1,0.1,0.1,0.2,0.1s0.1-0.1,0.2-0.2c0.2-0.4,0.4-0.9,0.6-1.4
			c0.2-0.4,0.4-0.9,0.7-1.4c0.2-0.5,0.5-1,0.9-1.5c0.2-0.2,0.3-0.5,0.3-0.6c0.1-0.2,0.2-0.5,0.5-0.9c0.2-0.2,0.4-0.4,0.7-0.6
			c0.2-0.1,0.5-0.3,0.7-0.4c0.2-0.1,0.5-0.2,0.8-0.2c0.2,0,0.4,0.1,0.6,0.2c0.2,0.1,0.3,0.4,0.3,0.7c0,0.4,0,0.7-0.1,1
			c-0.1,0.3-0.1,0.7-0.1,1.2c0,0.8,0.1,1.4,0.2,1.8c0.1,0.4,0.3,0.8,0.5,1c0.2,0.3,0.3,0.5,0.5,0.6
			C137.8,15.9,137.9,16.1,137.9,16.3z"/>
		<path class="st0" d="M151.5,24.9c0,0.3-0.1,0.6-0.2,0.8c-0.2,0.2-0.4,0.3-0.6,0.4c-0.2,0.1-0.5,0.2-0.8,0.2
			c-0.5,0-0.9-0.1-1.2-0.4c-0.3-0.3-0.6-0.6-0.8-1c-0.3-0.4-0.5-0.9-0.7-1.4c0-0.1-0.1-0.2-0.2-0.2c-0.1,0-0.1,0-0.2,0.1l-0.1,0.1
			c-0.4,0.5-0.8,0.8-1.3,1.1c-0.4,0.3-0.9,0.5-1.3,0.7c-0.4,0.1-0.8,0.2-1.1,0.3s-0.6,0.1-0.8,0.1c-0.8,0-1.4-0.1-1.9-0.4
			c-0.5-0.3-0.8-0.6-1-1c-0.2-0.4-0.4-0.7-0.4-1.1c-0.1-0.4-0.1-0.6-0.1-0.8c0-0.5,0.1-1.1,0.3-1.6c0.2-0.5,0.5-1,0.8-1.4
			c0.3-0.5,0.7-0.9,1.1-1.2c0.4-0.4,0.8-0.7,1.3-1.1c1-0.7,2.2-1.4,3.5-2c0.1,0,0.2-0.1,0.2-0.1c0.2-0.1,0.2-0.2,0.2-0.4
			c0-0.3-0.2-0.5-0.7-0.6c-0.5-0.1-1-0.2-1.6-0.2c-0.2,0-0.5,0-0.7,0c-0.2,0-0.4,0-0.6,0.1c-0.2,0-0.4,0-0.6,0c-0.3,0-0.5,0-0.7-0.1
			s-0.3-0.2-0.4-0.3c-0.1-0.1-0.1-0.3-0.2-0.4c0-0.1,0-0.3,0-0.3c0-0.1,0-0.2,0.1-0.4c0.1-0.2,0.2-0.4,0.4-0.6
			c0.2-0.2,0.5-0.4,1-0.5c0.4-0.1,1-0.2,1.7-0.2c0.5,0,1.1,0.1,1.8,0.2c0.7,0.1,1.4,0.3,2,0.6c0.6,0.3,1.2,0.6,1.6,1
			c0.5,0.4,0.7,0.9,0.7,1.5c0,0.4-0.2,0.9-0.6,1.2s-0.9,0.8-1.4,1.1c-0.6,0.4-1.2,0.7-1.9,1.1c-0.7,0.4-1.3,0.8-1.9,1.2
			c-0.6,0.4-1.1,0.9-1.4,1.4c-0.4,0.5-0.6,1.1-0.6,1.7c0,0.1,0,0.3,0.1,0.5c0.1,0.2,0.3,0.4,0.7,0.4c0.3,0,0.6-0.1,0.9-0.2
			c0.3-0.2,0.7-0.4,1-0.6s0.6-0.6,0.8-0.9c0.2-0.3,0.3-0.7,0.3-1c0,0,0-0.1,0-0.1v-0.2c0-0.2,0-0.4,0.1-0.7c0.1-0.2,0.2-0.5,0.4-0.7
			c0.2-0.2,0.4-0.4,0.7-0.5s0.5-0.2,0.8-0.2c0.2,0,0.3,0,0.5,0.1s0.2,0.3,0.2,0.5c0.1,0.8,0.2,1.5,0.4,2.2c0.1,0.6,0.3,1.2,0.6,1.8
			c0.2,0.6,0.6,1.1,0.9,1.4c0.1,0.2,0.3,0.3,0.4,0.5c0.1,0.1,0.2,0.3,0.2,0.5S151.5,24.7,151.5,24.9z"/>
		<path class="st0" d="M159.7,0.9c-0.4,1.8-0.8,3.7-1.1,5.6c-0.3,1.6-0.6,3.4-0.8,5.4c-0.2,2-0.3,3.9-0.3,5.7c0,1.4,0.1,2.7,0.2,3.9
			c0.2,1.2,0.5,2.2,0.9,3.1c0,0.1,0.1,0.2,0.1,0.3c0.1,0.2,0.2,0.5,0.2,0.7c0,0.2-0.1,0.5-0.4,0.9c-0.3,0.4-0.7,0.5-1.3,0.5
			c-0.3,0-0.5-0.1-0.7-0.2c-0.2-0.1-0.4-0.2-0.5-0.4c-0.2-0.2-0.3-0.4-0.5-0.6c-0.5-0.9-0.8-2-1-3.3s-0.3-2.7-0.3-4.3
			c0-1.4,0.1-2.9,0.2-4.4c0.1-1.5,0.3-3,0.5-4.4s0.4-2.9,0.7-4.2c0.3-1.4,0.5-2.6,0.8-3.8c0.1-0.2,0.2-0.5,0.3-0.7
			c0.1-0.2,0.3-0.4,0.6-0.5c0.3-0.1,0.6-0.3,1-0.3c0.3,0,0.6,0,0.8,0.1c0.3,0.1,0.4,0.3,0.4,0.6L159.7,0.9z"/>
		<path class="st0" d="M65.7,51.5c0,1.6-0.2,3.2-0.7,4.7c-0.5,1.5-1,2.8-1.7,3.9c-0.7,1.1-1.3,2-2,2.7c-0.7,0.7-1.3,1-1.8,1
			c-0.7,0-1.3-0.3-1.8-0.8c-0.5-0.6-0.9-1.2-1.2-1.9c-0.4-0.8-0.7-1.7-0.9-2.8c0-0.2-0.1-0.2-0.2-0.2c0,0-0.1,0-0.2,0.1L55,58.3
			c-0.4,0.7-0.8,1.4-1.2,2.1c-0.5,0.7-1,1.3-1.5,1.8c-0.5,0.5-1,0.9-1.5,1.2c-0.5,0.3-0.9,0.5-1.2,0.5c-0.7,0-1.2-0.3-1.6-1
			c-0.4-0.7-0.8-1.5-1-2.4c-0.3-0.9-0.5-1.9-0.6-2.8s-0.2-1.6-0.2-2.1c0-0.5,0-1,0-1.4c0-0.4,0.1-0.8,0.1-1.1c0.1-0.4,0.1-0.7,0.2-1
			c0.1-0.3,0.2-0.5,0.4-0.7c0.1-0.2,0.3-0.4,0.5-0.5s0.5-0.2,0.8-0.2c0.2,0,0.5,0.1,0.7,0.2c0.2,0.1,0.3,0.2,0.5,0.4
			c0.1,0.2,0.2,0.5,0.2,0.8c-0.1,0.4-0.2,0.7-0.2,1.1c-0.1,0.4-0.1,0.8-0.1,1.2c0,0.4,0,0.9,0,1.4c0,0.2,0,0.6,0.1,1
			s0.1,0.9,0.2,1.4c0.1,0.5,0.2,0.9,0.4,1.2s0.4,0.5,0.6,0.5c0.1,0,0.3-0.1,0.6-0.3c0.3-0.2,0.6-0.5,0.9-0.9c0.3-0.4,0.7-1,1.1-1.7
			c0.4-0.7,0.8-1.6,1.2-2.7c0.1-0.6,0.2-1.1,0.4-1.6c0.2-0.5,0.7-0.7,1.5-0.7c0.3,0,0.6,0.1,0.8,0.2c0.3,0.2,0.4,0.5,0.5,1.1
			c0.1,1.2,0.3,2.3,0.5,3.2c0.2,0.8,0.4,1.6,0.7,2.2c0.3,0.7,0.6,1,1,1c0.2,0,0.5-0.2,0.9-0.5c0.3-0.3,0.6-0.8,0.9-1.4
			c0.3-0.6,0.5-1.3,0.7-2.2c0.2-0.9,0.3-1.8,0.3-2.9c0-0.4,0-0.8-0.1-1s-0.1-0.5-0.1-0.7c0-0.2-0.1-0.4-0.1-0.5c0-0.2,0-0.4,0-0.6
			c0-0.5,0.1-1,0.4-1.4c0.3-0.4,0.8-0.6,1.5-0.6c0.6,0,1.1,0.3,1.3,1C65.5,49.5,65.7,50.4,65.7,51.5z"/>
		<path class="st0" d="M80.4,63.8c0,0.3-0.1,0.6-0.2,0.8s-0.4,0.3-0.6,0.4c-0.2,0.1-0.5,0.2-0.8,0.2c-0.5,0-0.9-0.1-1.2-0.4
			s-0.6-0.6-0.8-1c-0.3-0.4-0.5-0.9-0.7-1.4c0-0.1-0.1-0.2-0.2-0.2c-0.1,0-0.1,0-0.2,0.1l-0.1,0.1c-0.4,0.5-0.8,0.8-1.3,1.1
			c-0.4,0.3-0.9,0.5-1.3,0.7c-0.4,0.1-0.8,0.2-1.1,0.3s-0.6,0.1-0.8,0.1c-0.8,0-1.4-0.1-1.9-0.4c-0.5-0.3-0.8-0.6-1-1
			s-0.4-0.7-0.4-1.1c-0.1-0.4-0.1-0.6-0.1-0.8c0-0.5,0.1-1.1,0.3-1.6c0.2-0.5,0.5-1,0.8-1.4c0.3-0.5,0.7-0.9,1.1-1.2
			c0.4-0.4,0.8-0.7,1.3-1.1c1-0.7,2.2-1.4,3.5-2c0.1,0,0.2-0.1,0.2-0.1c0.2-0.1,0.2-0.2,0.2-0.4c0-0.3-0.2-0.5-0.7-0.6
			c-0.5-0.1-1-0.2-1.6-0.2c-0.2,0-0.5,0-0.7,0c-0.2,0-0.4,0-0.6,0.1c-0.2,0-0.4,0-0.6,0c-0.3,0-0.5,0-0.7-0.1s-0.3-0.2-0.4-0.3
			s-0.1-0.3-0.2-0.4c0-0.2,0-0.3,0-0.3c0-0.1,0-0.2,0.1-0.4c0.1-0.2,0.2-0.4,0.4-0.6c0.2-0.2,0.5-0.4,1-0.5c0.4-0.1,1-0.2,1.7-0.2
			c0.5,0,1.1,0.1,1.8,0.2c0.7,0.1,1.4,0.3,2,0.6c0.6,0.3,1.2,0.6,1.6,1c0.5,0.4,0.7,0.9,0.7,1.5c0,0.4-0.2,0.9-0.6,1.2
			c-0.4,0.4-0.9,0.8-1.4,1.1c-0.6,0.4-1.2,0.7-1.9,1.1c-0.7,0.4-1.3,0.8-1.9,1.2c-0.6,0.4-1.1,0.9-1.4,1.4c-0.4,0.5-0.6,1.1-0.6,1.7
			c0,0.1,0,0.3,0.1,0.5s0.3,0.4,0.7,0.4c0.3,0,0.6-0.1,0.9-0.2s0.7-0.4,1-0.6s0.6-0.6,0.8-0.9c0.2-0.3,0.3-0.7,0.3-1
			c0,0,0-0.1,0-0.1v-0.2c0-0.2,0-0.4,0.1-0.7c0.1-0.2,0.2-0.5,0.4-0.7c0.2-0.2,0.4-0.4,0.7-0.5s0.5-0.2,0.8-0.2c0.2,0,0.3,0,0.5,0.1
			s0.2,0.3,0.2,0.5c0.1,0.8,0.2,1.5,0.4,2.2c0.1,0.6,0.3,1.2,0.6,1.8c0.2,0.6,0.6,1.1,0.9,1.4c0.1,0.2,0.3,0.3,0.4,0.5
			c0.1,0.1,0.2,0.3,0.2,0.5S80.4,63.6,80.4,63.8z"/>
		<path class="st0" d="M92.3,46.9c0,0.3-0.1,0.5-0.2,0.6c-0.1,0.2-0.3,0.3-0.4,0.3c-0.2,0.1-0.4,0.1-0.6,0.1c-0.3,0-0.6,0-1.1,0.1
			c-0.4,0.1-0.9,0.1-1.3,0.2c-0.4,0.1-0.8,0.2-1.1,0.3c-0.3,0.1-0.5,0.2-0.5,0.3c-0.1,0.5-0.2,1.3-0.2,2.1c-0.1,0.7-0.1,1.7-0.2,2.8
			c-0.1,1.1-0.1,2.5-0.1,4.1c0.1,1.1,0.2,2.1,0.4,3.1c0.1,0.8,0.3,1.7,0.6,2.5c0.2,0.8,0.5,1.5,0.9,2c0.2,0.3,0.4,0.6,0.4,0.9
			c0,0.4-0.2,0.7-0.6,0.8c-0.4,0.2-0.7,0.3-0.9,0.3c-0.4,0-0.8-0.1-1.1-0.3c-0.2-0.1-0.3-0.2-0.4-0.3c-0.5-0.5-0.9-1.1-1.2-1.9
			c-0.3-0.8-0.5-1.6-0.7-2.5s-0.3-1.9-0.3-2.9c-0.1-1-0.1-1.9-0.1-2.8c0-0.7,0-1.5,0.1-2.4c0-0.9,0.1-1.7,0.1-2.5
			c0.1-0.9,0.2-1.8,0.2-2.7c0-0.1,0-0.1-0.1-0.1h-0.1c-1.4,0-2.3-0.1-2.8-0.3c-0.5-0.2-0.8-0.6-0.8-1.1c0-0.1,0-0.2,0-0.4
			c0-0.2,0.1-0.3,0.2-0.5c0.1-0.2,0.3-0.3,0.6-0.4c0.2-0.1,0.6-0.2,1-0.2c0.3,0,0.5,0,0.7,0.1c0.2,0.1,0.4,0.1,0.8,0.1
			c0.1,0,0.2,0,0.5,0c0.2,0,0.4-0.1,0.4-0.2c0.2-1.6,0.5-2.8,0.8-3.7c0.3-0.9,0.6-1.5,0.9-2c0.3-0.4,0.6-0.7,1-0.8s0.7-0.1,1-0.1
			c0.2,0,0.3,0,0.5,0.1s0.3,0.1,0.3,0.3c0.1,0.1,0.1,0.3,0.1,0.5c0,0.3,0,0.6-0.1,0.9s-0.2,0.6-0.3,1c-0.1,0.4-0.3,0.8-0.4,1.3
			c-0.2,0.5-0.3,1.2-0.5,1.9c0,0.1,0,0.2,0.1,0.2c0.1,0,0.4-0.1,0.9-0.2c0.5-0.1,0.9-0.2,1.4-0.2c0.5,0,0.9,0.1,1.2,0.2
			c0.3,0.2,0.5,0.3,0.7,0.5C92.2,46.3,92.3,46.6,92.3,46.9z"/>
		<path class="st0" d="M101.8,52.4c0,0.8-0.2,1.7-0.5,2.5c-0.4,0.8-0.8,1.5-1.4,2.2c-0.6,0.6-1.3,1.1-2,1.5
			c-0.8,0.4-1.6,0.6-2.4,0.6c-0.1,0-0.1,0-0.2,0.1c0,0,0,0.1,0,0.1c0.1,0.6,0.2,1.1,0.4,1.5c0.2,0.4,0.5,0.6,0.7,0.9
			c0.3,0.2,0.6,0.4,1,0.5c0.7,0.2,1.1,0.4,1.3,0.8c0.1,0.3,0.2,0.6,0.2,0.8c0,0.4-0.1,0.6-0.3,0.8c-0.2,0.2-0.4,0.3-0.6,0.4
			c-0.2,0.1-0.5,0.2-0.8,0.2c-0.9,0-1.7-0.2-2.3-0.6c-0.6-0.4-1.1-0.9-1.5-1.4c-0.4-0.6-0.8-1.3-1-2.1l-0.1-0.5
			c-0.1-0.2-0.1-0.4-0.1-0.6S92,59.4,92,59.1c0,0,0-0.1,0-0.1c-0.1-0.1-0.1-0.1-0.2-0.1c-0.3-0.1-0.6-0.2-0.9-0.3
			c-0.2-0.1-0.4-0.3-0.6-0.6C90.1,57.8,90,57.5,90,57c0-0.2,0.1-0.4,0.2-0.6c0.1-0.1,0.1-0.3,0.3-0.4s0.3-0.2,0.5-0.2
			c0.1,0,0.2,0,0.3,0.1S91.7,56,92,56c0.1,0,0.1,0,0.1,0c0,0,0,0,0,0c0.4-1.3,0.9-2.4,1.5-3.4c0.3-0.4,0.6-0.9,0.9-1.3
			c0.3-0.4,0.7-0.8,1.1-1.1s0.9-0.6,1.4-0.8c0.5-0.2,1-0.3,1.6-0.3c0.3,0,0.6,0,0.9,0.1c0.4,0.1,0.7,0.2,1,0.5
			c0.3,0.2,0.6,0.6,0.8,1C101.6,51.2,101.8,51.7,101.8,52.4z M98.8,52.8c0-0.2,0-0.3-0.1-0.4c-0.1-0.1-0.1-0.2-0.2-0.3
			C98.4,52,98.3,52,98.1,52c-0.3,0-0.7,0.2-1,0.5s-0.7,0.7-1,1.1c-0.3,0.5-0.6,0.9-0.8,1.4c-0.2,0.5-0.3,1-0.3,1.4
			c0,0.1,0.1,0.2,0.2,0.2c0.2,0,0.5-0.1,0.9-0.2c0.4-0.2,0.8-0.4,1.2-0.7c0.4-0.3,0.8-0.7,1.1-1.1S98.8,53.5,98.8,52.8z"/>
		<path class="st0" d="M114.5,55.1c0,0.2-0.1,0.4-0.2,0.5s-0.3,0.2-0.5,0.3c-0.2,0.1-0.5,0.1-0.7,0.1c-0.5,0-1-0.1-1.2-0.3
			s-0.5-0.4-0.7-0.6s-0.3-0.4-0.4-0.6c-0.1-0.2-0.2-0.3-0.3-0.3c-0.2,0-0.4,0.3-0.8,0.9c-0.4,0.6-0.7,1.3-1.1,2.2
			c-0.4,0.9-0.7,1.9-1,3s-0.4,2.2-0.4,3.2c0,0.5-0.1,0.8-0.4,0.9c-0.3,0.2-0.6,0.2-1,0.2c-0.4,0-0.8-0.2-1-0.6
			c-0.2-0.4-0.4-0.9-0.5-1.4c-0.1-0.6-0.2-1.2-0.2-1.9c0-0.7,0-1.4,0-2c0-1.1,0-2.2,0.1-3.2c0.1-1.1,0.1-2,0.2-2.7
			c0.1-0.6,0.2-1.1,0.3-1.6c0.1-0.4,0.3-0.7,0.5-0.9s0.4-0.4,0.7-0.5c0.3-0.1,0.6-0.1,1-0.1c0.1,0,0.3,0.1,0.4,0.2
			c0.1,0.1,0.2,0.2,0.2,0.3c0.1,0.2,0.1,0.3,0.1,0.6c0,0.2,0,0.3,0,0.4c-0.1,0.4-0.1,0.8-0.2,1.2c-0.1,0.4-0.1,0.8-0.2,1.2
			s-0.1,0.9-0.1,1.4c0,0.1,0,0.1,0,0.2c0,0.1,0.1,0.1,0.2,0.1s0.1-0.1,0.2-0.2c0.2-0.4,0.4-0.9,0.6-1.4c0.2-0.4,0.4-0.9,0.7-1.4
			c0.2-0.5,0.5-1,0.9-1.5c0.2-0.2,0.3-0.5,0.3-0.6c0.1-0.2,0.2-0.5,0.5-0.9c0.2-0.2,0.4-0.4,0.7-0.6c0.2-0.1,0.5-0.3,0.7-0.4
			c0.2-0.1,0.5-0.2,0.8-0.2c0.2,0,0.4,0.1,0.6,0.2c0.2,0.1,0.3,0.4,0.3,0.7c0,0.4,0,0.7-0.1,1c-0.1,0.3-0.1,0.7-0.1,1.2
			c0,0.8,0.1,1.4,0.2,1.8c0.1,0.4,0.3,0.8,0.5,1c0.2,0.3,0.3,0.5,0.5,0.6C114.5,54.8,114.5,54.9,114.5,55.1z"/>
	</g>
	<g>
		<path class="st1" d="M25.2,76.5c5.5,0,5.5,6.2,11,6.2c5.5,0,5.5-6.2,11-6.2c5.5,0,5.5,6.2,11,6.2c5.5,0,5.5-6.2,11-6.2
			c5.5,0,5.5,6.2,11,6.2c5.5,0,5.5-6.2,11-6.2c5.5,0,5.5,6.2,11,6.2c5.5,0,5.5-6.2,11-6.2c5.5,0,5.5,6.2,11,6.2s5.5-6.2,11-6.2"/>
	</g>
</g>
</svg>
