<?xml version="1.0" encoding="utf-8"?>
<!-- Generator: Adobe Illustrator 21.1.0, SVG Export Plug-In . SVG Version: 6.00 Build 0)  -->
<svg version="1.1" id="Capa_1" xmlns="http://www.w3.org/2000/svg" xmlns:xlink="http://www.w3.org/1999/xlink" x="0px" y="0px"
	 viewBox="0 0 110.4 83.7" style="enable-background:new 0 0 110.4 83.7;" xml:space="preserve">
<style type="text/css">
	.st0{fill:#FFFFFF;}
	.st1{fill:none;stroke:#FFFFFF;stroke-width:3.061;stroke-miterlimit:10;}
</style>
<g>
	<g>
		<path class="st0" d="M19.4,1.7c0,0.2,0,0.4,0,0.6c0,0.2-0.1,0.5-0.2,0.7c-0.1,0.2-0.3,0.4-0.5,0.6c-0.2,0.2-0.5,0.2-0.8,0.2
			c-0.1,0-0.4,0-0.9,0.1c-0.5,0-1.1,0.1-1.8,0.2c-0.7,0.1-1.4,0.3-2.1,0.5c-0.7,0.2-1.4,0.5-2,0.8l0,0.1c0,0.1,0,0.1,0.1,0.1
			c0.1,0,0.2,0.1,0.3,0.2c0.1,0.1,0.2,0.1,0.3,0.2s0.2,0.2,0.2,0.3c-0.1,0.5-0.1,1.1-0.3,1.9c-0.1,0.8-0.2,1.6-0.4,2.6
			c-0.1,1-0.2,2-0.3,3.1c-0.1,1.1-0.1,2.2-0.1,3.4c0,1.1,0.1,2.2,0.2,3.2c0.1,1,0.3,1.9,0.7,2.6c0,0,0.1,0.1,0.1,0.2
			c0.1,0.2,0.1,0.3,0.1,0.5c0,0.1,0,0.2-0.1,0.3c0,0.2-0.1,0.4-0.3,0.6c-0.1,0.2-0.3,0.4-0.6,0.5c-0.3,0.1-0.6,0.2-1.1,0.2
			c-0.5,0-0.9-0.1-1.2-0.4c-0.3-0.3-0.6-0.6-0.8-1c-0.2-0.4-0.4-0.9-0.5-1.4c-0.1-0.5-0.2-1-0.3-1.4c-0.1-0.5-0.1-0.9-0.1-1.2
			c0-0.4,0-0.6,0-0.7c0-1.3,0.1-2.6,0.2-4.1c0.2-1.5,0.4-2.9,0.6-4.2c0.2-1.5,0.5-3,0.8-4.5c0-0.1-0.1-0.2-0.2-0.2
			C7.8,6,7.4,6.1,7,6.3C6.7,6.4,6.3,6.6,6,6.7C5.7,6.9,5.4,7,5.1,7.1C4.9,7.2,4.6,7.3,4.3,7.3c-0.5,0-0.8-0.2-1-0.5
			C3.3,6.6,3.2,6.4,3.2,6.2c0-0.3,0.1-0.7,0.3-1.2c0.2-0.5,0.7-1,1.5-1.5c1.2-0.7,2.5-1.2,3.8-1.7c1.1-0.4,2.4-0.8,3.8-1.2
			C13.9,0.2,15.2,0,16.6,0c0.2,0,0.4,0,0.8,0c0.3,0,0.6,0.1,0.9,0.2c0.3,0.1,0.5,0.3,0.8,0.5C19.3,1,19.4,1.3,19.4,1.7z"/>
		<path class="st0" d="M29,22.5c0,0.4-0.1,0.7-0.2,0.9c-0.2,0.2-0.3,0.3-0.6,0.4C28,23.9,27.7,24,27.4,24c-0.5,0-0.9-0.1-1.2-0.4
			c-0.3-0.2-0.6-0.5-0.8-0.8c-0.2-0.3-0.3-0.6-0.4-0.9c-0.1-0.3-0.1-0.5-0.1-0.5c0-0.1,0-0.1-0.1-0.1c-0.1,0-0.1,0-0.2,0.1
			c0,0-0.1,0-0.1,0c-0.5,0.8-0.9,1.5-1.4,1.9c-0.5,0.5-0.9,0.8-1.4,1c-0.4,0.2-0.8,0.3-1.1,0.4c-0.3,0-0.5,0.1-0.5,0.1
			c-0.7,0-1.3-0.2-1.7-0.7c-0.5-0.5-0.9-1-1.2-1.7s-0.5-1.5-0.7-2.3c-0.1-0.8-0.2-1.6-0.2-2.3c0-0.7,0.1-1.5,0.2-2.3
			c0.1-0.9,0.3-1.7,0.6-2.4s0.6-1.4,1-1.9c0.4-0.5,0.9-0.8,1.5-0.8c0.1,0,0.2,0,0.4,0c0.1,0,0.3,0.1,0.4,0.2
			c0.1,0.1,0.3,0.2,0.3,0.4c0.1,0.2,0.1,0.5,0.1,0.8c0,0.3,0,0.6-0.1,0.9c-0.1,0.4-0.2,0.8-0.4,1.3c-0.2,0.5-0.4,1.1-0.5,1.6
			c-0.1,0.5-0.2,1-0.3,1.6s-0.1,1.1-0.1,1.6c0,0.6,0.1,1.2,0.3,1.6s0.6,0.7,1.1,0.7c0.4-0.1,0.8-0.3,1.2-0.7c0.3-0.3,0.7-0.8,1-1.4
			c0.4-0.7,0.6-1.6,0.9-2.7c0-0.2,0.1-0.4,0.1-0.6c0-0.2,0.1-0.4,0.1-0.7c0-0.2,0-0.5,0-0.7c0-0.1,0.1-0.3,0.2-0.5
			c0.1-0.2,0.3-0.4,0.4-0.6c0.2-0.2,0.4-0.4,0.7-0.5c0.3-0.1,0.6-0.2,0.9-0.2c0.3,0,0.6,0.1,0.8,0.2c0.2,0.1,0.3,0.4,0.3,0.9
			c0,0.2,0,0.7-0.1,1.2c-0.1,0.6-0.1,1.4-0.1,2.5c0,0.7,0.1,1.5,0.2,2.2s0.3,1.2,0.6,1.7c0.1,0.2,0.3,0.4,0.5,0.6
			C28.9,21.9,29,22.2,29,22.5z"/>
		<path class="st0" d="M51.7,24.4c0,0.3-0.1,0.6-0.2,0.8c-0.2,0.2-0.4,0.3-0.6,0.4c-0.2,0.1-0.5,0.2-0.8,0.2c-0.5,0-0.9-0.1-1.2-0.4
			c-0.3-0.3-0.6-0.6-0.8-1c-0.3-0.4-0.5-0.9-0.7-1.4c0-0.1-0.1-0.2-0.2-0.2c-0.1,0-0.1,0-0.2,0.1l-0.1,0.1c-0.4,0.5-0.8,0.8-1.3,1.1
			c-0.4,0.3-0.9,0.5-1.3,0.7c-0.4,0.1-0.8,0.2-1.1,0.3S42.7,25,42.5,25c-0.8,0-1.4-0.1-1.9-0.4c-0.5-0.3-0.8-0.6-1-1
			c-0.2-0.4-0.4-0.7-0.4-1.1c-0.1-0.4-0.1-0.6-0.1-0.8c0-0.5,0.1-1.1,0.3-1.6c0.2-0.5,0.5-1,0.8-1.4c0.3-0.5,0.7-0.9,1.1-1.2
			c0.4-0.4,0.8-0.7,1.3-1.1c1-0.7,2.2-1.4,3.5-2c0.1,0,0.2-0.1,0.2-0.1c0.2-0.1,0.2-0.2,0.2-0.4c0-0.3-0.2-0.5-0.7-0.6
			c-0.5-0.1-1-0.2-1.6-0.2c-0.2,0-0.5,0-0.7,0c-0.2,0-0.4,0-0.6,0.1c-0.2,0-0.4,0-0.6,0c-0.3,0-0.5,0-0.7-0.1s-0.3-0.2-0.4-0.3
			c-0.1-0.1-0.1-0.3-0.2-0.4c0-0.1,0-0.3,0-0.3c0-0.1,0-0.2,0.1-0.4c0.1-0.2,0.2-0.4,0.4-0.6c0.2-0.2,0.5-0.4,1-0.5
			c0.4-0.1,1-0.2,1.7-0.2c0.5,0,1.1,0.1,1.8,0.2c0.7,0.1,1.4,0.3,2,0.6c0.6,0.3,1.2,0.6,1.6,1c0.5,0.4,0.7,0.9,0.7,1.5
			c0,0.4-0.2,0.9-0.6,1.2s-0.9,0.8-1.4,1.1c-0.6,0.4-1.2,0.7-1.9,1.1c-0.7,0.4-1.3,0.8-1.9,1.2c-0.6,0.4-1.1,0.9-1.4,1.4
			c-0.4,0.5-0.6,1.1-0.6,1.7c0,0.1,0,0.3,0.1,0.5c0.1,0.2,0.3,0.4,0.7,0.4c0.3,0,0.6-0.1,0.9-0.2c0.3-0.2,0.7-0.4,1-0.6
			s0.6-0.6,0.8-0.9c0.2-0.3,0.3-0.7,0.3-1c0,0,0-0.1,0-0.1V19c0-0.2,0-0.4,0.1-0.7c0.1-0.2,0.2-0.5,0.4-0.7c0.2-0.2,0.4-0.4,0.7-0.5
			s0.5-0.2,0.8-0.2c0.2,0,0.3,0,0.5,0.1s0.2,0.3,0.2,0.5c0.1,0.8,0.2,1.5,0.4,2.2c0.1,0.6,0.3,1.2,0.6,1.8c0.2,0.6,0.6,1.1,0.9,1.4
			c0.1,0.2,0.3,0.3,0.4,0.5c0.1,0.1,0.2,0.3,0.2,0.5S51.7,24.2,51.7,24.4z"/>
		<path class="st0" d="M67.1,19.6c0,1.4,0,2.8-0.1,4.3s-0.3,3-0.5,4.4c-0.2,1.4-0.5,2.8-0.9,4.1c-0.4,1.3-0.8,2.4-1.4,3.4
			c-0.5,1-1.2,1.7-1.9,2.3s-1.6,0.9-2.5,0.9c-0.3,0-0.5,0-0.7-0.1c-0.2-0.1-0.3-0.2-0.4-0.3c-0.1-0.1-0.2-0.3-0.2-0.5
			c0-0.2,0.1-0.4,0.2-0.7c0.2-0.2,0.3-0.4,0.5-0.6c0.2-0.2,0.5-0.4,0.8-0.6c0.9-0.8,1.7-1.8,2.3-3c0.6-1.2,1-2.5,1.4-3.8
			c0.3-1.3,0.6-2.7,0.7-4s0.2-2.5,0.2-3.5c0-0.3,0-0.6,0-0.8s0-0.5,0-0.7c0-0.5-0.1-0.9-0.2-1.1C64.1,19.1,64,19,63.9,19
			c-0.1,0-0.5,0.3-1.1,0.8c-0.6,0.5-1.3,1.1-2.1,1.7c-0.8,0.6-1.7,1.2-2.6,1.7c-0.9,0.5-1.8,0.8-2.6,0.8c-0.5,0-0.9-0.1-1.2-0.3
			c-0.3-0.2-0.5-0.5-0.7-0.7c-0.2-0.3-0.2-0.6-0.3-0.9c0-0.3,0-0.6,0-0.8c0-1.1,0.3-2.2,0.9-3.5c0.6-1.2,1.3-2.4,2.3-3.5
			c0.9-1.1,2-2,3.2-2.7c1.2-0.7,2.3-1.1,3.5-1.1c0.2,0,0.5,0,0.7,0.1c0.2,0.1,0.5,0.2,0.7,0.3c0.2,0.1,0.4,0.3,0.5,0.6
			c0.1,0.3,0.2,0.6,0.2,1c0,0.2,0,0.4,0,0.6c0,0.2,0,0.3,0,0.5c0,0.2,0,0.4-0.1,0.6c0,0.2-0.1,0.5-0.2,0.9l0,0v0.1
			c0,0.1,0,0.1,0.1,0.1l0.2-0.1c0.1-0.1,0.3-0.1,0.4-0.2c0.3-0.1,0.5-0.2,0.8-0.2c0.2,0,0.4,0.1,0.5,0.2c0.1,0.1,0.1,0.5,0.1,0.9
			c0,0.5,0,1.1,0.1,1.7C67.1,18.4,67.1,19,67.1,19.6z M62.5,15.2c0-0.2,0-0.4-0.1-0.6c-0.1-0.1-0.1-0.3-0.2-0.4S61.9,14,61.7,14
			c-0.7,0-1.4,0.3-2.1,0.8s-1.2,1.1-1.6,1.8c-0.5,0.7-0.8,1.4-1.1,2.1c-0.3,0.7-0.4,1.2-0.4,1.5c0,0.4,0.1,0.6,0.5,0.6
			c0.4,0,0.9-0.2,1.6-0.6c0.6-0.4,1.2-0.8,1.8-1.4c0.6-0.5,1.1-1.1,1.5-1.8C62.3,16.4,62.5,15.8,62.5,15.2z"/>
		<path class="st0" d="M82.6,22.5c0,0.4-0.1,0.7-0.2,0.9c-0.2,0.2-0.3,0.3-0.6,0.4C81.6,23.9,81.3,24,81,24c-0.5,0-0.9-0.1-1.2-0.4
			c-0.3-0.2-0.6-0.5-0.8-0.8c-0.2-0.3-0.3-0.6-0.4-0.9c-0.1-0.3-0.1-0.5-0.1-0.5c0-0.1,0-0.1-0.1-0.1c-0.1,0-0.1,0-0.2,0.1
			c0,0-0.1,0-0.1,0c-0.5,0.8-0.9,1.5-1.4,1.9c-0.5,0.5-0.9,0.8-1.4,1c-0.4,0.2-0.8,0.3-1.1,0.4c-0.3,0-0.5,0.1-0.5,0.1
			c-0.7,0-1.3-0.2-1.7-0.7c-0.5-0.5-0.9-1-1.2-1.7s-0.5-1.5-0.7-2.3c-0.1-0.8-0.2-1.6-0.2-2.3c0-0.7,0.1-1.5,0.2-2.3
			c0.1-0.9,0.3-1.7,0.6-2.4s0.6-1.4,1-1.9c0.4-0.5,0.9-0.8,1.5-0.8c0.1,0,0.2,0,0.4,0c0.1,0,0.3,0.1,0.4,0.2
			c0.1,0.1,0.3,0.2,0.3,0.4c0.1,0.2,0.1,0.5,0.1,0.8c0,0.3,0,0.6-0.1,0.9c-0.1,0.4-0.2,0.8-0.4,1.3c-0.2,0.5-0.4,1.1-0.5,1.6
			c-0.1,0.5-0.2,1-0.3,1.6s-0.1,1.1-0.1,1.6c0,0.6,0.1,1.2,0.3,1.6s0.6,0.7,1.1,0.7c0.4-0.1,0.8-0.3,1.2-0.7c0.3-0.3,0.7-0.8,1-1.4
			c0.4-0.7,0.6-1.6,0.9-2.7c0-0.2,0.1-0.4,0.1-0.6c0-0.2,0.1-0.4,0.1-0.7c0-0.2,0-0.5,0-0.7c0-0.1,0.1-0.3,0.2-0.5
			c0.1-0.2,0.3-0.4,0.4-0.6c0.2-0.2,0.4-0.4,0.7-0.5c0.3-0.1,0.6-0.2,0.9-0.2c0.3,0,0.6,0.1,0.8,0.2c0.2,0.1,0.3,0.4,0.3,0.9
			c0,0.2,0,0.7-0.1,1.2c-0.1,0.6-0.1,1.4-0.1,2.5c0,0.7,0.1,1.5,0.2,2.2s0.3,1.2,0.6,1.7c0.1,0.2,0.3,0.4,0.5,0.6
			C82.5,21.9,82.6,22.2,82.6,22.5z"/>
		<path class="st0" d="M97.1,24.4c0,0.3-0.1,0.6-0.2,0.8c-0.2,0.2-0.4,0.3-0.6,0.4c-0.2,0.1-0.5,0.2-0.8,0.2c-0.5,0-0.9-0.1-1.2-0.4
			c-0.3-0.3-0.6-0.6-0.8-1c-0.3-0.4-0.5-0.9-0.7-1.4c0-0.1-0.1-0.2-0.2-0.2c-0.1,0-0.1,0-0.2,0.1l-0.1,0.1c-0.4,0.5-0.8,0.8-1.3,1.1
			c-0.4,0.3-0.9,0.5-1.3,0.7c-0.4,0.1-0.8,0.2-1.1,0.3S88.1,25,87.9,25c-0.8,0-1.4-0.1-1.9-0.4c-0.5-0.3-0.8-0.6-1-1
			c-0.2-0.4-0.4-0.7-0.4-1.1c-0.1-0.4-0.1-0.6-0.1-0.8c0-0.5,0.1-1.1,0.3-1.6c0.2-0.5,0.5-1,0.8-1.4c0.3-0.5,0.7-0.9,1.1-1.2
			c0.4-0.4,0.8-0.7,1.3-1.1c1-0.7,2.2-1.4,3.5-2c0.1,0,0.2-0.1,0.2-0.1c0.2-0.1,0.2-0.2,0.2-0.4c0-0.3-0.2-0.5-0.7-0.6
			c-0.5-0.1-1-0.2-1.6-0.2c-0.2,0-0.5,0-0.7,0c-0.2,0-0.4,0-0.6,0.1c-0.2,0-0.4,0-0.6,0c-0.3,0-0.5,0-0.7-0.1s-0.3-0.2-0.4-0.3
			c-0.1-0.1-0.1-0.3-0.2-0.4c0-0.1,0-0.3,0-0.3c0-0.1,0-0.2,0.1-0.4c0.1-0.2,0.2-0.4,0.4-0.6c0.2-0.2,0.5-0.4,1-0.5
			c0.4-0.1,1-0.2,1.7-0.2c0.5,0,1.1,0.1,1.8,0.2c0.7,0.1,1.4,0.3,2,0.6c0.6,0.3,1.2,0.6,1.6,1c0.5,0.4,0.7,0.9,0.7,1.5
			c0,0.4-0.2,0.9-0.6,1.2s-0.9,0.8-1.4,1.1c-0.6,0.4-1.2,0.7-1.9,1.1c-0.7,0.4-1.3,0.8-1.9,1.2c-0.6,0.4-1.1,0.9-1.4,1.4
			c-0.4,0.5-0.6,1.1-0.6,1.7c0,0.1,0,0.3,0.1,0.5c0.1,0.2,0.3,0.4,0.7,0.4c0.3,0,0.6-0.1,0.9-0.2c0.3-0.2,0.7-0.4,1-0.6
			s0.6-0.6,0.8-0.9c0.2-0.3,0.3-0.7,0.3-1c0,0,0-0.1,0-0.1V19c0-0.2,0-0.4,0.1-0.7c0.1-0.2,0.2-0.5,0.4-0.7c0.2-0.2,0.4-0.4,0.7-0.5
			s0.5-0.2,0.8-0.2c0.2,0,0.3,0,0.5,0.1s0.2,0.3,0.2,0.5c0.1,0.8,0.2,1.5,0.4,2.2c0.1,0.6,0.3,1.2,0.6,1.8c0.2,0.6,0.6,1.1,0.9,1.4
			c0.1,0.2,0.3,0.3,0.4,0.5c0.1,0.1,0.2,0.3,0.2,0.5S97.1,24.2,97.1,24.4z"/>
		<path class="st0" d="M25.4,62.9c0,0.3-0.1,0.5-0.2,0.7c-0.1,0.2-0.3,0.4-0.5,0.5c-0.2,0.1-0.4,0.2-0.6,0.3s-0.4,0.1-0.5,0.1
			c-0.7,0-1.2-0.2-1.6-0.6s-0.7-1-0.9-1.6s-0.3-1.3-0.4-2.1s-0.1-1.5-0.1-2.1c0-0.5,0-1,0-1.4c0-0.4,0-0.7,0-0.9
			c0-0.4,0-0.7-0.1-0.8c-0.1-0.1-0.2-0.2-0.3-0.2c-0.1,0-0.2,0-0.3,0.1c-0.1,0.1-0.2,0.2-0.3,0.2c-0.1,0.1-0.2,0.2-0.3,0.3
			c-0.3,0.4-0.6,0.9-0.9,1.5c-0.3,0.6-0.6,1.2-0.9,1.7c-0.3,0.7-0.7,1.3-1,2c-0.2,0.4-0.5,0.7-0.7,1.1c-0.2,0.3-0.6,0.5-1.1,0.5
			c-0.5,0-1-0.3-1.3-0.8s-0.5-1.2-0.7-1.9c-0.2-0.7-0.3-1.4-0.3-2.1s-0.1-1.1-0.2-1.4c-0.1-0.4-0.2-0.6-0.5-0.6c-0.1,0-0.1,0-0.2,0
			c-0.1,0-0.1,0.1-0.2,0.1c-0.1,0.1-0.1,0.1-0.2,0.1c-0.5,0.5-0.9,1.1-1.3,1.9c-0.4,0.8-0.7,1.6-1,2.3C8.5,61,8.2,62,8,62.9
			c-0.1,0.5-0.3,0.8-0.5,0.9S7,63.9,6.7,63.9c-0.3,0-0.6-0.1-0.8-0.2c-0.2-0.1-0.4-0.3-0.5-0.5s-0.2-0.4-0.2-0.6
			C5.1,62.4,5,62.2,5,62c0-0.5,0-1.1,0.1-1.5c0-0.3,0.1-0.5,0.1-0.8c0.1-0.5,0.1-0.9,0.1-1.3c0-0.4,0-0.8,0-1.2c0-1-0.1-1.8-0.2-2.5
			C5.1,54,5,53.4,4.9,52.9c-0.2-0.5-0.3-1-0.5-1.4c0,0-0.1-0.1-0.1-0.2s0-0.2,0-0.5c0-0.2,0-0.3,0.1-0.6s0.2-0.4,0.3-0.6
			c0.1-0.2,0.3-0.3,0.5-0.5s0.5-0.2,0.7-0.2c0.3,0,0.6,0.1,0.9,0.3c0.4,0.2,0.6,0.8,0.9,1.6c0.1,0.3,0.1,0.6,0.2,1
			c0.1,0.4,0.1,0.9,0.1,1.4c0,0.6,0.1,1.2,0.1,2c0,0,0,0.1,0,0.1c0,0.1,0,0.1,0.1,0.1c0,0,0.1,0,0.1-0.1c0.1-0.2,0.3-0.5,0.5-1
			c0.3-0.5,0.6-1,1-1.5s0.9-1,1.5-1.4c0.5-0.4,1.1-0.6,1.7-0.6c0.5,0,0.9,0.2,1.1,0.6c0.2,0.4,0.4,1.2,0.5,2.4c0,0.5,0.1,1,0.2,1.4
			c0.1,0.3,0.1,0.6,0.2,0.9c0.1,0.3,0.2,0.4,0.3,0.4c0.1,0,0.1-0.1,0.2-0.2c0.2-0.2,0.4-0.6,0.6-1.1c0-0.1,0.2-0.5,0.5-1.1
			c0.3-0.6,0.7-1.2,1.1-1.9c0.5-0.7,1-1.3,1.6-1.8c0.6-0.5,1.2-0.8,1.9-0.8c0.5,0,0.8,0.1,1.1,0.4c0.3,0.2,0.5,0.6,0.7,0.9
			c0.1,0.4,0.2,0.8,0.3,1.2s0.1,0.9,0.1,1.3c0,2.3,0.1,4.2,0.2,5.6c0.1,1.4,0.6,2.4,1.3,2.9c0.1,0,0.1,0.1,0.2,0.2
			c0.1,0.1,0.1,0.1,0.1,0.2S25.4,62.7,25.4,62.9z"/>
		<path class="st0" d="M31.6,50.8c0,0.1-0.1,0.4-0.2,0.8c-0.1,0.4-0.2,0.9-0.2,1.5s-0.2,1.2-0.2,2s-0.1,1.5-0.1,2.3
			c0,0.6,0,1.2,0.1,1.7c0.1,0.5,0.1,1,0.2,1.4c0.1,0.5,0.2,0.9,0.2,1.3c-0.1,0.4-0.2,0.6-0.6,0.8c-0.3,0.1-0.6,0.2-0.8,0.2
			c-0.2,0-0.5-0.1-0.7-0.2c-0.1-0.1-0.2-0.1-0.2-0.2c-0.5-0.5-0.8-1.3-1-2.3c-0.2-1-0.3-2-0.3-3.2c0-0.8,0-1.7,0.1-2.5
			c0.1-0.8,0.1-1.6,0.2-2.2c0.1-0.8,0.2-1.5,0.3-2.2c0-0.1,0.1-0.2,0.2-0.3c0.1-0.1,0.2-0.2,0.4-0.2c0.2-0.1,0.5-0.1,0.8-0.1
			c0.1,0,0.3,0,0.5,0.1s0.4,0.1,0.6,0.2c0.2,0.1,0.3,0.2,0.5,0.4S31.6,50.6,31.6,50.8z M32.9,43.3c0,0.2,0,0.5-0.1,0.8
			c-0.1,0.3-0.3,0.7-0.5,1s-0.5,0.6-0.9,0.9s-0.8,0.4-1.4,0.4c-0.5,0-0.9-0.1-1-0.5c-0.2-0.3-0.3-0.6-0.3-1c0-0.3,0.1-0.6,0.2-0.9
			c0.2-0.3,0.4-0.6,0.6-0.9c0.3-0.3,0.6-0.5,1-0.7c0.4-0.2,0.8-0.3,1.2-0.3c0.2,0,0.4,0.1,0.7,0.2S32.9,42.7,32.9,43.3z"/>
		<path class="st0" d="M48.6,61.2c0,0.4-0.1,0.8-0.3,1s-0.4,0.4-0.7,0.5c-0.3,0.1-0.6,0.2-0.9,0.2c-0.7,0-1.2-0.2-1.6-0.7
			c-0.4-0.5-0.7-1.1-0.8-1.8c-0.2-0.7-0.3-1.4-0.3-2.2c0-0.8-0.1-1.4-0.1-2v-0.8c0-0.3-0.1-0.4-0.3-0.4c-0.4,0-0.7,0.2-1,0.6
			c-0.3,0.4-0.7,0.9-1,1.5c-0.3,0.6-0.7,1.3-1,2c-0.3,0.7-0.6,1.4-0.9,2c-0.3,0.6-0.6,1.2-0.8,1.6s-0.5,0.7-0.7,0.7
			c-0.1,0-0.3,0.1-0.4,0.1c-0.1,0-0.2,0-0.3,0c-0.4,0-0.7-0.2-1-0.5c-0.2-0.3-0.4-0.8-0.5-1.3c-0.1-0.5-0.2-1.1-0.2-1.8
			s-0.1-1.4-0.1-2.1c0-0.6,0-1.3,0.1-2.1c0.1-0.8,0.2-1.6,0.3-2.4c0.1-0.8,0.2-1.5,0.4-2.2c0.2-0.7,0.3-1.2,0.5-1.5
			c0.1-0.2,0.3-0.5,0.5-0.7c0.2-0.2,0.4-0.3,0.6-0.5c0.3-0.2,0.6-0.2,1-0.2c0.1,0,0.1,0,0.3,0c0.1,0,0.3,0.1,0.4,0.1
			s0.3,0.2,0.4,0.3c0.1,0.1,0.2,0.3,0.2,0.6c0,0.4-0.1,0.8-0.3,1.2c-0.2,0.6-0.4,1.2-0.5,1.8c-0.1,0.5-0.3,1.1-0.3,1.7
			s-0.1,1.2-0.1,1.7c0,0.4,0.1,0.5,0.2,0.5c0.1,0,0.1,0,0.1-0.1c0.1-0.2,0.4-0.6,0.7-1.2s0.9-1.3,1.4-1.9c0.6-0.7,1.2-1.3,1.8-1.8
			c0.7-0.5,1.3-0.8,2-0.8c0.8,0,1.3,0.3,1.5,0.8c0.2,0.5,0.3,1.4,0.3,2.7c0,0.3,0,0.6,0,0.9c0,0.3,0,0.6,0,1c0,0.3,0,0.6,0,1.1
			s0.1,0.9,0.2,1.4c0.1,0.5,0.2,0.9,0.4,1.3c0.2,0.4,0.4,0.7,0.7,0.8l0.2,0.2C48.5,60.9,48.6,61,48.6,61.2z"/>
		<path class="st0" d="M61.4,51.9c0,0.8-0.2,1.7-0.5,2.5c-0.4,0.8-0.8,1.5-1.4,2.2c-0.6,0.6-1.3,1.1-2,1.5c-0.8,0.4-1.6,0.6-2.4,0.6
			c-0.1,0-0.1,0-0.2,0.1c0,0,0,0.1,0,0.1c0.1,0.6,0.2,1.1,0.4,1.5c0.2,0.4,0.5,0.6,0.7,0.9c0.3,0.2,0.6,0.4,1,0.5
			c0.7,0.2,1.1,0.4,1.3,0.8c0.1,0.3,0.2,0.6,0.2,0.8c0,0.4-0.1,0.6-0.3,0.8c-0.2,0.2-0.4,0.3-0.6,0.4c-0.2,0.1-0.5,0.2-0.8,0.2
			c-0.9,0-1.7-0.2-2.3-0.6c-0.6-0.4-1.1-0.9-1.5-1.4c-0.4-0.6-0.8-1.3-1-2.1l-0.1-0.5c-0.1-0.2-0.1-0.4-0.1-0.6s-0.1-0.5-0.1-0.8
			c0,0,0-0.1,0-0.1c-0.1-0.1-0.1-0.1-0.2-0.1c-0.3-0.1-0.6-0.2-0.9-0.3c-0.2-0.1-0.4-0.3-0.6-0.6c-0.2-0.2-0.3-0.6-0.3-1.1
			c0-0.2,0.1-0.4,0.2-0.6c0.1-0.1,0.1-0.3,0.3-0.4s0.3-0.2,0.5-0.2c0.1,0,0.2,0,0.3,0.1s0.4,0.1,0.7,0.1c0.1,0,0.1,0,0.1,0
			c0,0,0,0,0,0c0.4-1.3,0.9-2.4,1.5-3.4c0.3-0.4,0.6-0.9,0.9-1.3c0.3-0.4,0.7-0.8,1.1-1.1s0.9-0.6,1.4-0.8c0.5-0.2,1-0.3,1.6-0.3
			c0.3,0,0.6,0,0.9,0.1c0.4,0.1,0.7,0.2,1,0.5c0.3,0.2,0.6,0.6,0.8,1C61.2,50.7,61.4,51.2,61.4,51.9z M58.4,52.3
			c0-0.2,0-0.3-0.1-0.4c-0.1-0.1-0.1-0.2-0.2-0.3c-0.1-0.1-0.2-0.1-0.4-0.1c-0.3,0-0.7,0.2-1,0.5s-0.7,0.7-1,1.1
			c-0.3,0.5-0.6,0.9-0.8,1.4c-0.2,0.5-0.3,1-0.3,1.4c0,0.1,0.1,0.2,0.2,0.2c0.2,0,0.5-0.1,0.9-0.2c0.4-0.2,0.8-0.4,1.2-0.7
			c0.4-0.3,0.8-0.7,1.1-1.1S58.4,53,58.4,52.3z"/>
		<path class="st0" d="M74.1,54.6c0,0.2-0.1,0.4-0.2,0.5s-0.3,0.2-0.5,0.3c-0.2,0.1-0.5,0.1-0.7,0.1c-0.5,0-1-0.1-1.2-0.3
			s-0.5-0.4-0.7-0.6s-0.3-0.4-0.4-0.6c-0.1-0.2-0.2-0.3-0.3-0.3c-0.2,0-0.4,0.3-0.8,0.9c-0.4,0.6-0.7,1.3-1.1,2.2
			c-0.4,0.9-0.7,1.9-1,3s-0.4,2.2-0.4,3.2c0,0.5-0.1,0.8-0.4,0.9c-0.3,0.2-0.6,0.2-1,0.2c-0.4,0-0.8-0.2-1-0.6
			c-0.2-0.4-0.4-0.9-0.5-1.4c-0.1-0.6-0.2-1.2-0.2-1.9c0-0.7,0-1.4,0-2c0-1.1,0-2.2,0.1-3.2c0.1-1.1,0.1-2,0.2-2.7
			c0.1-0.6,0.2-1.1,0.3-1.6c0.1-0.4,0.3-0.7,0.5-0.9s0.4-0.4,0.7-0.5c0.3-0.1,0.6-0.1,1-0.1c0.1,0,0.3,0.1,0.4,0.2
			c0.1,0.1,0.2,0.2,0.2,0.3c0.1,0.2,0.1,0.3,0.1,0.6c0,0.2,0,0.3,0,0.4C67.1,51,67,51.4,67,51.8c-0.1,0.4-0.1,0.8-0.2,1.2
			s-0.1,0.9-0.1,1.4c0,0.1,0,0.1,0,0.2c0,0.1,0.1,0.1,0.2,0.1s0.1-0.1,0.2-0.2c0.2-0.4,0.4-0.9,0.6-1.4c0.2-0.4,0.4-0.9,0.7-1.4
			c0.2-0.5,0.5-1,0.9-1.5c0.2-0.2,0.3-0.5,0.3-0.6c0.1-0.2,0.2-0.5,0.5-0.9c0.2-0.2,0.4-0.4,0.7-0.6c0.2-0.1,0.5-0.3,0.7-0.4
			c0.2-0.1,0.5-0.2,0.8-0.2c0.2,0,0.4,0.1,0.6,0.2c0.2,0.1,0.3,0.4,0.3,0.7c0,0.4,0,0.7-0.1,1c-0.1,0.3-0.1,0.7-0.1,1.2
			c0,0.8,0.1,1.4,0.2,1.8c0.1,0.4,0.3,0.8,0.5,1c0.2,0.3,0.3,0.5,0.5,0.6C74.1,54.3,74.1,54.5,74.1,54.6z"/>
		<path class="st0" d="M87.7,63.3c0,0.3-0.1,0.6-0.2,0.8s-0.4,0.3-0.6,0.4c-0.2,0.1-0.5,0.2-0.8,0.2c-0.5,0-0.9-0.1-1.2-0.4
			s-0.6-0.6-0.8-1c-0.3-0.4-0.5-0.9-0.7-1.4c0-0.1-0.1-0.2-0.2-0.2c-0.1,0-0.1,0-0.2,0.1l-0.1,0.1c-0.4,0.5-0.8,0.8-1.3,1.1
			c-0.4,0.3-0.9,0.5-1.3,0.7c-0.4,0.1-0.8,0.2-1.1,0.3s-0.6,0.1-0.8,0.1c-0.8,0-1.4-0.1-1.9-0.4c-0.5-0.3-0.8-0.6-1-1
			s-0.4-0.7-0.4-1.1c-0.1-0.4-0.1-0.6-0.1-0.8c0-0.5,0.1-1.1,0.3-1.6c0.2-0.5,0.5-1,0.8-1.4c0.3-0.5,0.7-0.9,1.1-1.2
			c0.4-0.4,0.8-0.7,1.3-1.1c1-0.7,2.2-1.4,3.5-2c0.1,0,0.2-0.1,0.2-0.1c0.2-0.1,0.2-0.2,0.2-0.4c0-0.3-0.2-0.5-0.7-0.6
			c-0.5-0.1-1-0.2-1.6-0.2c-0.2,0-0.5,0-0.7,0c-0.2,0-0.4,0-0.6,0.1c-0.2,0-0.4,0-0.6,0c-0.3,0-0.5,0-0.7-0.1s-0.3-0.2-0.4-0.3
			S77,51.3,77,51.2c0-0.2,0-0.3,0-0.3c0-0.1,0-0.2,0.1-0.4c0.1-0.2,0.2-0.4,0.4-0.6c0.2-0.2,0.5-0.4,1-0.5c0.4-0.1,1-0.2,1.7-0.2
			c0.5,0,1.1,0.1,1.8,0.2c0.7,0.1,1.4,0.3,2,0.6c0.6,0.3,1.2,0.6,1.6,1c0.5,0.4,0.7,0.9,0.7,1.5c0,0.4-0.2,0.9-0.6,1.2
			c-0.4,0.4-0.9,0.8-1.4,1.1c-0.6,0.4-1.2,0.7-1.9,1.1c-0.7,0.4-1.3,0.8-1.9,1.2c-0.6,0.4-1.1,0.9-1.4,1.4c-0.4,0.5-0.6,1.1-0.6,1.7
			c0,0.1,0,0.3,0.1,0.5s0.3,0.4,0.7,0.4c0.3,0,0.6-0.1,0.9-0.2s0.7-0.4,1-0.6s0.6-0.6,0.8-0.9c0.2-0.3,0.3-0.7,0.3-1
			c0,0,0-0.1,0-0.1v-0.2c0-0.2,0-0.4,0.1-0.7c0.1-0.2,0.2-0.5,0.4-0.7c0.2-0.2,0.4-0.4,0.7-0.5s0.5-0.2,0.8-0.2c0.2,0,0.3,0,0.5,0.1
			s0.2,0.3,0.2,0.5c0.1,0.8,0.2,1.5,0.4,2.2c0.1,0.6,0.3,1.2,0.6,1.8c0.2,0.6,0.6,1.1,0.9,1.4c0.1,0.2,0.3,0.3,0.4,0.5
			c0.1,0.1,0.2,0.3,0.2,0.5S87.7,63.1,87.7,63.3z"/>
		<path class="st0" d="M96,39.2c-0.4,1.8-0.8,3.7-1.1,5.6c-0.3,1.6-0.6,3.4-0.8,5.4c-0.2,2-0.3,3.9-0.3,5.7c0,1.4,0.1,2.7,0.2,3.9
			s0.5,2.2,0.9,3.1c0,0.1,0.1,0.2,0.1,0.3c0.1,0.2,0.2,0.5,0.2,0.7c0,0.2-0.1,0.5-0.4,0.9c-0.3,0.4-0.7,0.5-1.3,0.5
			c-0.3,0-0.5-0.1-0.7-0.2s-0.4-0.2-0.5-0.4c-0.2-0.2-0.3-0.4-0.5-0.6c-0.5-0.9-0.8-2-1-3.3s-0.3-2.7-0.3-4.3c0-1.4,0.1-2.9,0.2-4.4
			c0.1-1.5,0.3-3,0.5-4.4c0.2-1.5,0.4-2.9,0.7-4.2s0.5-2.6,0.8-3.8c0.1-0.2,0.2-0.5,0.3-0.7c0.1-0.2,0.3-0.4,0.6-0.5
			c0.3-0.1,0.6-0.3,1-0.3c0.3,0,0.6,0,0.8,0.1c0.3,0.1,0.4,0.3,0.4,0.6L96,39.2z"/>
	</g>
	<g>
		<path class="st1" d="M0,76c5.5,0,5.5,6.2,11,6.2c5.5,0,5.5-6.2,11-6.2c5.5,0,5.5,6.2,11,6.2c5.5,0,5.5-6.2,11-6.2
			c5.5,0,5.5,6.2,11,6.2c5.5,0,5.5-6.2,11-6.2c5.5,0,5.5,6.2,11,6.2c5.5,0,5.5-6.2,11-6.2c5.5,0,5.5,6.2,11,6.2s5.5-6.2,11-6.2"/>
	</g>
</g>
</svg>
