<?xml version="1.0" encoding="utf-8"?>
<!-- Generator: Adobe Illustrator 21.1.0, SVG Export Plug-In . SVG Version: 6.00 Build 0)  -->
<svg version="1.1" id="Capa_1" xmlns="http://www.w3.org/2000/svg" xmlns:xlink="http://www.w3.org/1999/xlink" x="0px" y="0px"
	 viewBox="0 0 307.5 132.6" style="enable-background:new 0 0 307.5 132.6;" xml:space="preserve">
<style type="text/css">
	.st0{fill:#FFFFFF;}
</style>
<g>
	<g>
		<path class="st0" d="M18.7,24.9c0,0.2,0,0.4,0,0.7s-0.1,0.6-0.2,0.8c-0.1,0.3-0.3,0.5-0.5,0.6s-0.6,0.3-1,0.3
			c-0.1,0-0.5,0-1.1,0.1c-0.6,0-1.3,0.1-2.1,0.3c-0.8,0.1-1.6,0.3-2.5,0.5c-0.9,0.2-1.6,0.5-2.3,0.9l0,0.1c0,0.1,0.1,0.1,0.2,0.2
			s0.2,0.1,0.4,0.2c0.1,0.1,0.3,0.2,0.4,0.3c0.1,0.1,0.2,0.2,0.2,0.4c-0.1,0.6-0.2,1.3-0.3,2.2c-0.1,0.9-0.3,1.9-0.4,3
			c-0.1,1.1-0.3,2.3-0.4,3.5c-0.1,1.3-0.2,2.6-0.2,3.9c0,1.3,0.1,2.5,0.2,3.7c0.1,1.2,0.4,2.2,0.8,3c0,0,0.1,0.1,0.1,0.2
			c0.1,0.2,0.1,0.4,0.1,0.5c0,0.1,0,0.2-0.1,0.4c0,0.2-0.2,0.4-0.3,0.6c-0.2,0.2-0.4,0.4-0.7,0.6C8.7,51.9,8.2,52,7.7,52
			c-0.5,0-1-0.2-1.4-0.5c-0.4-0.3-0.7-0.7-1-1.2c-0.3-0.5-0.4-1-0.6-1.6c-0.1-0.6-0.3-1.1-0.3-1.7c-0.1-0.5-0.1-1-0.1-1.4
			c0-0.4,0-0.7,0-0.9c0-1.5,0.1-3,0.3-4.8c0.2-1.7,0.4-3.3,0.7-4.9c0.3-1.7,0.6-3.5,0.9-5.3c0-0.2-0.1-0.2-0.2-0.2
			c-0.6,0.1-1.1,0.3-1.5,0.4c-0.4,0.2-0.8,0.3-1.2,0.5c-0.4,0.2-0.7,0.3-1,0.4c-0.3,0.1-0.6,0.2-0.9,0.2c-0.5,0-0.9-0.2-1.1-0.6
			C0.1,30.5,0,30.3,0,30.1c0-0.3,0.1-0.8,0.3-1.4c0.2-0.6,0.8-1.2,1.8-1.7c1.4-0.8,2.8-1.4,4.4-2c1.3-0.5,2.7-1,4.3-1.4
			c1.6-0.4,3.2-0.6,4.8-0.6c0.2,0,0.5,0,0.9,0c0.4,0,0.7,0.1,1,0.3c0.3,0.1,0.6,0.3,0.9,0.6C18.6,24.1,18.7,24.5,18.7,24.9z"/>
		<path class="st0" d="M29.2,51.1c0,0.4-0.1,0.7-0.3,0.9c-0.2,0.2-0.4,0.4-0.7,0.4c-0.3,0.1-0.6,0.2-0.9,0.2c-0.6,0-1-0.2-1.4-0.5
			c-0.4-0.3-0.7-0.7-1-1.1c-0.3-0.5-0.6-1-0.8-1.7c0-0.2-0.1-0.2-0.2-0.2c-0.1,0-0.1,0-0.2,0.1l-0.1,0.1c-0.5,0.5-1,1-1.5,1.3
			c-0.5,0.3-1,0.6-1.5,0.8c-0.5,0.2-0.9,0.3-1.3,0.3c-0.4,0-0.7,0.1-0.9,0.1c-0.9,0-1.6-0.2-2.2-0.5c-0.5-0.3-0.9-0.7-1.2-1.1
			c-0.3-0.4-0.4-0.9-0.5-1.3c-0.1-0.4-0.1-0.7-0.1-0.9c0-0.6,0.1-1.2,0.3-1.8c0.2-0.6,0.5-1.1,0.9-1.7c0.4-0.5,0.8-1,1.3-1.4
			c0.5-0.4,1-0.9,1.5-1.2c1.2-0.9,2.5-1.6,4-2.3c0.1,0,0.2-0.1,0.3-0.1c0.2-0.1,0.3-0.3,0.3-0.4c0-0.3-0.3-0.6-0.9-0.7
			c-0.6-0.1-1.2-0.2-1.8-0.2c-0.3,0-0.6,0-0.8,0c-0.3,0-0.5,0-0.7,0.1c-0.3,0-0.5,0-0.7,0c-0.3,0-0.6,0-0.8-0.1
			c-0.2-0.1-0.4-0.2-0.5-0.4c-0.1-0.2-0.2-0.3-0.2-0.5c0-0.2,0-0.3,0-0.4s0-0.2,0.1-0.4c0.1-0.2,0.2-0.4,0.5-0.7
			c0.3-0.2,0.6-0.4,1.1-0.6c0.5-0.2,1.2-0.3,2-0.3c0.6,0,1.3,0.1,2.1,0.2c0.8,0.1,1.6,0.3,2.3,0.6c0.7,0.3,1.4,0.7,1.9,1.2
			s0.8,1.1,0.8,1.8c0,0.5-0.2,1-0.7,1.4c-0.4,0.5-1,0.9-1.7,1.3c-0.7,0.4-1.4,0.8-2.2,1.3c-0.8,0.4-1.5,0.9-2.2,1.4s-1.2,1-1.7,1.6
			c-0.4,0.6-0.7,1.2-0.7,1.9c0,0.1,0.1,0.3,0.2,0.6c0.1,0.3,0.4,0.4,0.8,0.4c0.3,0,0.7-0.1,1.1-0.3c0.4-0.2,0.8-0.4,1.1-0.7
			c0.3-0.3,0.6-0.6,0.9-1c0.3-0.4,0.4-0.8,0.4-1.2c0,0,0-0.1,0-0.1v-0.3c0-0.2,0.1-0.5,0.2-0.8c0.1-0.3,0.3-0.5,0.5-0.8
			c0.2-0.2,0.5-0.4,0.8-0.6c0.3-0.2,0.6-0.2,0.9-0.2c0.2,0,0.4,0,0.5,0.1c0.2,0.1,0.3,0.3,0.3,0.6c0.1,0.9,0.2,1.7,0.4,2.6
			c0.2,0.7,0.4,1.4,0.7,2.1c0.3,0.7,0.6,1.2,1.1,1.6c0.2,0.2,0.3,0.4,0.4,0.5c0.1,0.2,0.2,0.3,0.3,0.5
			C29.1,50.7,29.2,50.9,29.2,51.1z"/>
		<path class="st0" d="M56.2,50.6c0,0.3-0.1,0.6-0.2,0.8c-0.2,0.2-0.3,0.4-0.6,0.6c-0.2,0.2-0.5,0.3-0.7,0.4
			c-0.3,0.1-0.5,0.1-0.6,0.1c-0.8,0-1.4-0.2-1.9-0.7c-0.5-0.5-0.8-1.1-1.1-1.8s-0.4-1.5-0.5-2.4c-0.1-0.9-0.1-1.7-0.1-2.4
			c0-0.6,0-1.2,0-1.6c0-0.4,0-0.8,0-1c0-0.5,0-0.8-0.1-0.9c-0.1-0.1-0.2-0.2-0.4-0.2c-0.1,0-0.2,0-0.4,0.1s-0.2,0.2-0.3,0.3
			c-0.1,0.1-0.2,0.3-0.3,0.4c-0.3,0.4-0.7,1-1.1,1.7c-0.4,0.7-0.7,1.4-1.1,2c-0.4,0.8-0.8,1.5-1.1,2.4c-0.3,0.4-0.5,0.9-0.8,1.3
			c-0.3,0.4-0.7,0.6-1.2,0.6c-0.6,0-1.1-0.3-1.5-0.9c-0.3-0.6-0.6-1.4-0.8-2.2c-0.2-0.8-0.3-1.6-0.4-2.4c-0.1-0.8-0.1-1.3-0.2-1.6
			c-0.1-0.4-0.3-0.7-0.5-0.7c-0.1,0-0.1,0-0.2,0c-0.1,0-0.2,0.1-0.2,0.1c-0.1,0.1-0.2,0.1-0.2,0.1c-0.6,0.6-1.1,1.3-1.5,2.2
			c-0.5,0.9-0.9,1.8-1.2,2.7c-0.4,1-0.7,2.1-1,3.3c-0.2,0.6-0.4,0.9-0.6,1c-0.3,0.1-0.5,0.1-0.9,0.1c-0.4,0-0.7-0.1-0.9-0.2
			c-0.3-0.2-0.4-0.3-0.6-0.6c-0.1-0.2-0.2-0.5-0.3-0.7c0-0.3-0.1-0.5-0.1-0.7c0-0.6,0-1.2,0.1-1.8c0-0.3,0.1-0.6,0.1-0.9
			c0.1-0.5,0.1-1,0.1-1.5c0-0.5,0-1,0-1.4c0-1.1-0.1-2.1-0.2-2.9c-0.1-0.8-0.3-1.5-0.4-2c-0.2-0.6-0.4-1.2-0.6-1.6
			c0,0-0.1-0.1-0.1-0.2c0-0.1,0-0.3,0-0.5c0-0.2,0-0.4,0.1-0.6c0.1-0.2,0.2-0.5,0.4-0.7c0.2-0.2,0.4-0.4,0.6-0.5
			c0.3-0.2,0.5-0.2,0.9-0.2c0.3,0,0.7,0.1,1.1,0.4c0.4,0.3,0.7,0.9,1,1.8c0.1,0.3,0.1,0.7,0.2,1.2c0.1,0.4,0.1,1,0.2,1.6
			c0,0.6,0.1,1.4,0.1,2.3c0,0,0,0.1,0,0.1c0,0.1,0,0.1,0.1,0.1c0,0,0.1,0,0.1-0.1c0.1-0.2,0.3-0.6,0.6-1.2c0.3-0.6,0.7-1.1,1.2-1.7
			c0.5-0.6,1-1.1,1.7-1.6c0.6-0.5,1.3-0.7,2-0.7c0.6,0,1.1,0.2,1.3,0.6c0.2,0.4,0.4,1.3,0.6,2.7c0,0.6,0.1,1.1,0.2,1.6
			c0.1,0.4,0.1,0.7,0.2,1c0.1,0.3,0.2,0.5,0.3,0.5c0.1,0,0.2-0.1,0.3-0.2c0.2-0.2,0.5-0.6,0.7-1.3c0-0.1,0.2-0.5,0.5-1.2
			s0.8-1.4,1.3-2.2s1.2-1.5,1.8-2.1c0.7-0.6,1.4-0.9,2.2-0.9c0.5,0,1,0.1,1.3,0.4c0.3,0.3,0.6,0.6,0.8,1.1c0.2,0.4,0.3,0.9,0.3,1.4
			c0,0.5,0.1,1,0.1,1.5c0,2.7,0.1,4.8,0.2,6.5c0.2,1.6,0.6,2.8,1.5,3.4c0.1,0,0.1,0.1,0.2,0.2c0.1,0.1,0.1,0.1,0.2,0.2
			S56.2,50.5,56.2,50.6z"/>
		<path class="st0" d="M73.4,39.2c0,1.3-0.2,2.6-0.5,4c-0.4,1.4-0.9,2.7-1.5,3.9c-0.7,1.2-1.5,2.2-2.4,3c-0.9,0.8-1.9,1.2-3,1.2
			c-0.6,0-1.1-0.2-1.5-0.5c-0.4-0.3-0.7-0.7-0.9-1.2c-0.3-0.5-0.5-1-0.7-1.7c-0.1-0.1-0.1-0.1-0.1-0.1c-0.2,0-0.3,0.1-0.4,0.2
			c-0.1,0.2-0.2,0.3-0.4,0.5c-0.1,0.2-0.3,0.3-0.5,0.5c-0.2,0.2-0.5,0.2-0.8,0.2c-0.3,0-0.4-0.1-0.6-0.3c-0.1-0.2-0.2-0.4-0.3-0.6
			c-0.1-0.2-0.1-0.5-0.1-0.7c0-0.2,0-0.4,0-0.6c0-1.6,0-3.5,0-5.6c0-2.1,0.1-4.2,0.3-6.4c0.1-2.2,0.3-4.4,0.6-6.5
			c0.3-2.1,0.6-4,1.1-5.7c0.1-0.2,0.2-0.4,0.3-0.6c0.1-0.2,0.3-0.3,0.5-0.4c0.2-0.1,0.4-0.2,0.8-0.2c0.4,0,0.8,0.1,1,0.3
			c0.3,0.2,0.4,0.4,0.6,0.7c0.1,0.3,0.2,0.6,0.2,1c-0.4,1.6-0.7,3.4-1,5.2c-0.3,1.6-0.5,3.4-0.7,5.4c-0.2,2-0.3,4.1-0.3,6.4
			c0,0.1,0,0.2,0,0.2c0,0.2,0.1,0.2,0.2,0.2c0.1,0,0.1-0.1,0.2-0.2c1.2-2,2.4-3.6,3.7-4.7c1.3-1.1,2.4-1.6,3.4-1.6
			c0.1,0,0.3,0,0.6,0.1c0.3,0,0.7,0.2,1,0.5c0.3,0.3,0.7,0.7,0.9,1.3C73.2,37.2,73.4,38.1,73.4,39.2z M69.8,40.8
			c0-0.9-0.1-1.4-0.4-1.5C69.2,39,69.1,39,68.9,39c-0.6,0-1.1,0.3-1.7,0.9c-0.5,0.6-1,1.3-1.5,2c-0.5,0.9-1,1.8-1.4,2.9
			c0.1,0.5,0.2,0.9,0.4,1.3c0.2,0.3,0.4,0.6,0.6,0.9c0.3,0.3,0.6,0.4,1.1,0.4c0.5,0,0.9-0.2,1.3-0.7c0.4-0.5,0.8-1.1,1-1.8
			c0.3-0.7,0.5-1.4,0.7-2.2C69.8,42,69.8,41.3,69.8,40.8z"/>
		<path class="st0" d="M88.8,38c0,1-0.2,1.9-0.6,2.9c-0.4,0.9-1,1.8-1.6,2.5c-0.7,0.7-1.5,1.3-2.3,1.8c-0.9,0.4-1.8,0.7-2.8,0.7
			c-0.1,0-0.1,0-0.2,0.1c0,0,0,0.1,0,0.1c0.1,0.7,0.2,1.3,0.5,1.7c0.3,0.4,0.5,0.7,0.8,1c0.3,0.3,0.7,0.5,1.1,0.6
			c0.8,0.2,1.3,0.5,1.5,0.9c0.2,0.4,0.3,0.7,0.3,0.9c0,0.4-0.1,0.7-0.3,0.9c-0.2,0.2-0.4,0.4-0.7,0.4c-0.3,0.1-0.6,0.2-0.9,0.2
			c-1.1,0-2-0.2-2.7-0.7c-0.7-0.5-1.3-1-1.7-1.6c-0.5-0.7-0.9-1.5-1.2-2.4l-0.1-0.6c-0.1-0.2-0.1-0.4-0.1-0.7s-0.1-0.6-0.1-0.9
			c0,0,0-0.1,0-0.1c-0.1-0.1-0.1-0.1-0.2-0.1c-0.4-0.1-0.7-0.2-1-0.3c-0.3-0.2-0.5-0.4-0.7-0.7c-0.2-0.3-0.3-0.7-0.3-1.2
			c0-0.3,0.1-0.5,0.2-0.7c0.1-0.2,0.2-0.3,0.3-0.4c0.1-0.1,0.3-0.2,0.5-0.2c0.1,0,0.2,0,0.4,0.1c0.2,0,0.5,0.1,0.8,0.2
			c0.1,0,0.1,0,0.1,0c0,0,0,0,0,0c0.4-1.5,1-2.8,1.8-4c0.3-0.5,0.7-1,1-1.5c0.4-0.5,0.8-0.9,1.3-1.3s1-0.7,1.6-0.9
			c0.6-0.2,1.2-0.3,1.9-0.3c0.3,0,0.7,0,1.1,0.1c0.4,0.1,0.8,0.3,1.2,0.6c0.4,0.3,0.7,0.7,0.9,1.2C88.6,36.6,88.8,37.2,88.8,38z
			 M85.4,38.5c0-0.2,0-0.3-0.1-0.5c-0.1-0.1-0.1-0.2-0.2-0.4c-0.1-0.1-0.2-0.2-0.4-0.2c-0.4,0-0.8,0.2-1.2,0.5
			c-0.4,0.3-0.8,0.8-1.2,1.3c-0.4,0.5-0.7,1.1-0.9,1.7c-0.2,0.6-0.3,1.1-0.3,1.6c0,0.2,0.1,0.2,0.2,0.2c0.2,0,0.6-0.1,1-0.3
			c0.5-0.2,0.9-0.4,1.4-0.8c0.5-0.3,0.9-0.8,1.2-1.3C85.2,39.9,85.4,39.2,85.4,38.5z M89.5,27.6c0,0.2,0,0.3-0.1,0.4
			c-0.1,0.1-0.2,0.2-0.2,0.3c-0.1,0.1-0.2,0.2-0.3,0.2c-0.6,0.3-1.2,0.6-1.7,1c-0.5,0.4-1,0.8-1.5,1.2c-0.5,0.4-0.9,0.7-1.3,1
			c-0.4,0.3-0.9,0.4-1.3,0.5c-0.3,0-0.5,0-0.5-0.2c-0.1-0.1-0.1-0.2,0-0.2c0-0.6,0.2-1.2,0.5-1.9c0.3-0.7,0.8-1.3,1.2-1.9
			c0.5-0.6,1-1.1,1.4-1.5c0.5-0.4,0.9-0.6,1.1-0.6c0.2,0,0.4,0,0.7,0.1c0.3,0.1,0.6,0.2,0.9,0.3c0.3,0.1,0.5,0.3,0.8,0.6
			C89.4,27,89.5,27.3,89.5,27.6z"/>
		<path class="st0" d="M115.7,50.6c0,0.3-0.1,0.6-0.2,0.8c-0.2,0.2-0.3,0.4-0.6,0.6c-0.2,0.2-0.5,0.3-0.7,0.4
			c-0.3,0.1-0.5,0.1-0.6,0.1c-0.8,0-1.4-0.2-1.9-0.7c-0.5-0.5-0.8-1.1-1.1-1.8s-0.4-1.5-0.5-2.4c-0.1-0.9-0.1-1.7-0.1-2.4
			c0-0.6,0-1.2,0-1.6c0-0.4,0-0.8,0-1c0-0.5,0-0.8-0.1-0.9c-0.1-0.1-0.2-0.2-0.4-0.2c-0.1,0-0.2,0-0.4,0.1s-0.2,0.2-0.3,0.3
			c-0.1,0.1-0.2,0.3-0.3,0.4c-0.3,0.4-0.7,1-1.1,1.7c-0.4,0.7-0.7,1.4-1.1,2c-0.4,0.8-0.8,1.5-1.1,2.4c-0.3,0.4-0.5,0.9-0.8,1.3
			c-0.3,0.4-0.7,0.6-1.2,0.6c-0.6,0-1.1-0.3-1.5-0.9c-0.3-0.6-0.6-1.4-0.8-2.2c-0.2-0.8-0.3-1.6-0.4-2.4c-0.1-0.8-0.1-1.3-0.2-1.6
			c-0.1-0.4-0.3-0.7-0.5-0.7c-0.1,0-0.1,0-0.2,0c-0.1,0-0.2,0.1-0.2,0.1c-0.1,0.1-0.2,0.1-0.2,0.1c-0.6,0.6-1.1,1.3-1.5,2.2
			c-0.5,0.9-0.9,1.8-1.2,2.7c-0.4,1-0.7,2.1-1,3.3c-0.2,0.6-0.4,0.9-0.6,1c-0.3,0.1-0.5,0.1-0.9,0.1c-0.4,0-0.7-0.1-0.9-0.2
			c-0.3-0.2-0.4-0.3-0.6-0.6c-0.1-0.2-0.2-0.5-0.3-0.7c0-0.3-0.1-0.5-0.1-0.7c0-0.6,0-1.2,0.1-1.8c0-0.3,0.1-0.6,0.1-0.9
			c0.1-0.5,0.1-1,0.1-1.5c0-0.5,0-1,0-1.4c0-1.1-0.1-2.1-0.2-2.9c-0.1-0.8-0.3-1.5-0.4-2c-0.2-0.6-0.4-1.2-0.6-1.6
			c0,0-0.1-0.1-0.1-0.2c0-0.1,0-0.3,0-0.5c0-0.2,0-0.4,0.1-0.6c0.1-0.2,0.2-0.5,0.4-0.7c0.2-0.2,0.4-0.4,0.6-0.5
			c0.3-0.2,0.5-0.2,0.9-0.2c0.3,0,0.7,0.1,1.1,0.4c0.4,0.3,0.7,0.9,1,1.8c0.1,0.3,0.1,0.7,0.2,1.2c0.1,0.4,0.1,1,0.2,1.6
			c0,0.6,0.1,1.4,0.1,2.3c0,0,0,0.1,0,0.1c0,0.1,0,0.1,0.1,0.1c0,0,0.1,0,0.1-0.1c0.1-0.2,0.3-0.6,0.6-1.2c0.3-0.6,0.7-1.1,1.2-1.7
			c0.5-0.6,1-1.1,1.7-1.6c0.6-0.5,1.3-0.7,2-0.7c0.6,0,1.1,0.2,1.3,0.6c0.2,0.4,0.4,1.3,0.6,2.7c0,0.6,0.1,1.1,0.2,1.6
			c0.1,0.4,0.1,0.7,0.2,1c0.1,0.3,0.2,0.5,0.3,0.5c0.1,0,0.2-0.1,0.3-0.2c0.2-0.2,0.5-0.6,0.7-1.3c0-0.1,0.2-0.5,0.5-1.2
			s0.8-1.4,1.3-2.2s1.2-1.5,1.8-2.1c0.7-0.6,1.4-0.9,2.2-0.9c0.5,0,1,0.1,1.3,0.4c0.3,0.3,0.6,0.6,0.8,1.1c0.2,0.4,0.3,0.9,0.3,1.4
			c0,0.5,0.1,1,0.1,1.5c0,2.7,0.1,4.8,0.2,6.5c0.2,1.6,0.6,2.8,1.5,3.4c0.1,0,0.1,0.1,0.2,0.2c0.1,0.1,0.1,0.1,0.2,0.2
			S115.7,50.5,115.7,50.6z"/>
		<path class="st0" d="M144.9,39.3c0,1.6-0.4,3.1-1.2,4.5c-0.8,1.4-1.7,2.6-2.9,3.6c-1.2,1-2.4,1.9-3.7,2.5c-1.3,0.6-2.6,1-3.7,1.2
			c-0.1,0-0.1,0-0.2,0.1c0,0.1-0.1,0.1-0.1,0.1c-0.1,1.9-0.1,3.8-0.1,5.9c0,0.7,0,1.4,0.1,2.1c0.1,0.6,0.1,1.2,0.2,1.8
			c0.1,0.6,0.2,1.2,0.4,1.6c0.2,0.5,0.3,0.9,0.4,1.2c0.1,0.3,0.1,0.5,0.1,0.6c0,0.6-0.2,1.1-0.6,1.3c-0.4,0.2-0.8,0.4-1.1,0.4
			c-0.3,0-0.4,0-0.5,0c-0.1,0-0.2,0-0.2,0c-0.5-0.2-0.9-0.6-1.2-1.3c-0.3-0.7-0.5-1.5-0.6-2.2c-0.1-0.8-0.2-1.5-0.2-2.2
			c0-0.7,0-1.1,0-1.2c0-1.1,0-2,0-2.8c0-0.8,0-1.5,0-2.1s0-1.2,0-1.6c0-0.5,0-0.9,0-1.4c0,0,0-0.1,0-0.1c-0.1-0.1-0.1-0.1-0.2-0.1
			c-0.6-0.1-1.2-0.3-1.7-0.6c-0.4-0.2-0.8-0.5-1.1-0.9c-0.3-0.4-0.5-0.8-0.5-1.4c0-0.5,0.2-0.9,0.5-1.1c0.3-0.3,0.6-0.4,0.9-0.4
			c0.3,0,0.7,0.1,1.1,0.3c0.4,0.2,0.7,0.3,1,0.3c0.1,0,0.2,0,0.3-0.1c0,0,0-0.1,0-0.1c0.2-2.2,0.3-4.1,0.6-5.7
			c0.2-1.6,0.4-2.9,0.7-3.9c0.2-1.2,0.5-2.2,0.7-3c0.1-0.3,0.2-0.5,0.4-0.7c0.2-0.2,0.4-0.3,0.7-0.5c0.3-0.2,0.6-0.2,1.1-0.2
			c0.2,0,0.5,0,0.8,0.1c0.3,0.1,0.4,0.3,0.4,0.8c0,0.1-0.1,0.4-0.2,0.9c-0.1,0.5-0.2,1.1-0.4,1.8c-0.1,0.7-0.2,1.3-0.4,2
			c-0.1,0.6-0.2,1.1-0.2,1.4c0,0.1,0,0.2,0.1,0.2c0,0,0.1-0.1,0.2-0.2c0.6-0.8,1.3-1.4,2.1-2c0.7-0.5,1.5-1,2.5-1.4
			c1-0.4,2.1-0.6,3.3-0.6c0.5,0.1,0.9,0.2,1.3,0.5c0.3,0.3,0.7,0.6,0.9,1C144.7,38,144.9,38.6,144.9,39.3z M141.2,40.8
			c0-0.3,0-0.5-0.1-0.6c-0.1-0.2-0.2-0.3-0.3-0.3c-0.1-0.1-0.3-0.1-0.5-0.1c-0.8,0-1.6,0.3-2.4,0.9c-0.8,0.6-1.6,1.3-2.3,2.1
			c-0.7,0.8-1.2,1.7-1.7,2.5c-0.4,0.9-0.6,1.5-0.6,2c0,0.2,0,0.3,0.1,0.3c0.1,0,0.1,0,0.2,0c0.9,0,1.7-0.3,2.6-0.8
			c0.9-0.5,1.7-1.1,2.5-1.8c0.7-0.7,1.3-1.5,1.8-2.2C141,42,141.2,41.4,141.2,40.8z"/>
		<path class="st0" d="M161.4,51.1c0,0.4-0.1,0.7-0.3,0.9c-0.2,0.2-0.4,0.4-0.7,0.4c-0.3,0.1-0.6,0.2-0.9,0.2c-0.6,0-1-0.2-1.4-0.5
			c-0.4-0.3-0.7-0.7-1-1.1c-0.3-0.5-0.6-1-0.8-1.7c0-0.2-0.1-0.2-0.2-0.2c-0.1,0-0.1,0-0.2,0.1l-0.1,0.1c-0.5,0.5-1,1-1.5,1.3
			c-0.5,0.3-1,0.6-1.5,0.8c-0.5,0.2-0.9,0.3-1.3,0.3c-0.4,0-0.7,0.1-0.9,0.1c-0.9,0-1.6-0.2-2.2-0.5c-0.5-0.3-0.9-0.7-1.2-1.1
			c-0.3-0.4-0.4-0.9-0.5-1.3c-0.1-0.4-0.1-0.7-0.1-0.9c0-0.6,0.1-1.2,0.3-1.8c0.2-0.6,0.5-1.1,0.9-1.7c0.4-0.5,0.8-1,1.3-1.4
			c0.5-0.4,1-0.9,1.5-1.2c1.2-0.9,2.5-1.6,4-2.3c0.1,0,0.2-0.1,0.3-0.1c0.2-0.1,0.3-0.3,0.3-0.4c0-0.3-0.3-0.6-0.9-0.7
			c-0.6-0.1-1.2-0.2-1.8-0.2c-0.3,0-0.6,0-0.8,0c-0.3,0-0.5,0-0.7,0.1c-0.3,0-0.5,0-0.7,0c-0.3,0-0.6,0-0.8-0.1
			c-0.2-0.1-0.4-0.2-0.5-0.4c-0.1-0.2-0.2-0.3-0.2-0.5c0-0.2,0-0.3,0-0.4s0-0.2,0.1-0.4c0.1-0.2,0.2-0.4,0.5-0.7
			c0.3-0.2,0.6-0.4,1.1-0.6c0.5-0.2,1.2-0.3,2-0.3c0.6,0,1.3,0.1,2.1,0.2c0.8,0.1,1.6,0.3,2.3,0.6c0.7,0.3,1.4,0.7,1.9,1.2
			s0.8,1.1,0.8,1.8c0,0.5-0.2,1-0.7,1.4c-0.4,0.5-1,0.9-1.7,1.3c-0.7,0.4-1.4,0.8-2.2,1.3c-0.8,0.4-1.5,0.9-2.2,1.4s-1.2,1-1.7,1.6
			c-0.4,0.6-0.7,1.2-0.7,1.9c0,0.1,0.1,0.3,0.2,0.6c0.1,0.3,0.4,0.4,0.8,0.4c0.3,0,0.7-0.1,1.1-0.3c0.4-0.2,0.8-0.4,1.1-0.7
			c0.3-0.3,0.6-0.6,0.9-1c0.3-0.4,0.4-0.8,0.4-1.2c0,0,0-0.1,0-0.1v-0.3c0-0.2,0.1-0.5,0.2-0.8c0.1-0.3,0.3-0.5,0.5-0.8
			c0.2-0.2,0.5-0.4,0.8-0.6c0.3-0.2,0.6-0.2,0.9-0.2c0.2,0,0.4,0,0.5,0.1c0.2,0.1,0.3,0.3,0.3,0.6c0.1,0.9,0.2,1.7,0.4,2.6
			c0.2,0.7,0.4,1.4,0.7,2.1c0.3,0.7,0.6,1.2,1.1,1.6c0.2,0.2,0.3,0.4,0.4,0.5c0.1,0.2,0.2,0.3,0.3,0.5
			C161.3,50.7,161.4,50.9,161.4,51.1z"/>
		<path class="st0" d="M176.5,41.1c0,0.3-0.1,0.4-0.3,0.6c-0.2,0.1-0.4,0.2-0.6,0.3c-0.3,0.1-0.5,0.1-0.9,0.1
			c-0.6,0-1.1-0.1-1.4-0.3c-0.3-0.2-0.6-0.4-0.8-0.7c-0.2-0.3-0.3-0.5-0.4-0.7c-0.1-0.2-0.2-0.3-0.3-0.3c-0.2,0-0.5,0.3-0.9,1
			c-0.4,0.7-0.9,1.5-1.3,2.6c-0.4,1-0.8,2.2-1.2,3.5c-0.3,1.3-0.5,2.5-0.5,3.7c0,0.5-0.2,0.9-0.4,1.1c-0.3,0.2-0.7,0.3-1.1,0.3
			c-0.5,0-0.9-0.2-1.2-0.7c-0.3-0.4-0.5-1-0.6-1.7c-0.1-0.7-0.2-1.4-0.2-2.2c0-0.8,0-1.6,0-2.4c0-1.3,0-2.5,0.1-3.7
			c0.1-1.2,0.2-2.3,0.3-3.2c0.1-0.7,0.2-1.3,0.4-1.8c0.2-0.5,0.4-0.8,0.6-1.1c0.2-0.3,0.5-0.4,0.8-0.5c0.3-0.1,0.7-0.2,1.1-0.2
			c0.2,0,0.3,0.1,0.4,0.2c0.1,0.1,0.2,0.2,0.3,0.4c0.1,0.2,0.1,0.4,0.1,0.7c0,0.2,0,0.3,0,0.4c-0.1,0.4-0.1,0.9-0.2,1.4
			c-0.1,0.4-0.1,0.9-0.2,1.4s-0.1,1.1-0.2,1.6c0,0.1,0,0.1,0,0.2c0,0.1,0.1,0.1,0.2,0.1s0.2-0.1,0.2-0.2c0.2-0.5,0.4-1,0.7-1.6
			c0.2-0.5,0.5-1,0.8-1.6c0.3-0.6,0.6-1.2,1-1.7c0.2-0.3,0.3-0.5,0.4-0.7c0.1-0.2,0.3-0.5,0.6-1c0.2-0.3,0.5-0.5,0.8-0.7
			c0.3-0.2,0.5-0.3,0.8-0.5c0.3-0.2,0.6-0.2,0.9-0.2c0.3,0,0.5,0.1,0.7,0.2c0.2,0.2,0.3,0.4,0.3,0.8c0,0.4,0,0.8-0.1,1.2
			c-0.1,0.4-0.1,0.9-0.1,1.4c0,0.9,0.1,1.6,0.2,2.1c0.2,0.5,0.3,0.9,0.5,1.2c0.2,0.3,0.4,0.5,0.5,0.7
			C176.5,40.8,176.5,40.9,176.5,41.1z"/>
		<path class="st0" d="M192.2,51.1c0,0.4-0.1,0.7-0.3,0.9c-0.2,0.2-0.4,0.4-0.7,0.4c-0.3,0.1-0.6,0.2-0.9,0.2c-0.6,0-1-0.2-1.4-0.5
			c-0.4-0.3-0.7-0.7-1-1.1c-0.3-0.5-0.6-1-0.8-1.7c0-0.2-0.1-0.2-0.2-0.2c-0.1,0-0.1,0-0.2,0.1l-0.1,0.1c-0.5,0.5-1,1-1.5,1.3
			c-0.5,0.3-1,0.6-1.5,0.8c-0.5,0.2-0.9,0.3-1.3,0.3c-0.4,0-0.7,0.1-0.9,0.1c-0.9,0-1.6-0.2-2.2-0.5c-0.5-0.3-0.9-0.7-1.2-1.1
			c-0.3-0.4-0.4-0.9-0.5-1.3c-0.1-0.4-0.1-0.7-0.1-0.9c0-0.6,0.1-1.2,0.3-1.8c0.2-0.6,0.5-1.1,0.9-1.7c0.4-0.5,0.8-1,1.3-1.4
			c0.5-0.4,1-0.9,1.5-1.2c1.2-0.9,2.5-1.6,4-2.3c0.1,0,0.2-0.1,0.3-0.1c0.2-0.1,0.3-0.3,0.3-0.4c0-0.3-0.3-0.6-0.9-0.7
			c-0.6-0.1-1.2-0.2-1.8-0.2c-0.3,0-0.6,0-0.8,0c-0.3,0-0.5,0-0.7,0.1c-0.3,0-0.5,0-0.7,0c-0.3,0-0.6,0-0.8-0.1
			c-0.2-0.1-0.4-0.2-0.5-0.4c-0.1-0.2-0.2-0.3-0.2-0.5c0-0.2,0-0.3,0-0.4s0-0.2,0.1-0.4c0.1-0.2,0.2-0.4,0.5-0.7
			c0.3-0.2,0.6-0.4,1.1-0.6c0.5-0.2,1.2-0.3,2-0.3c0.6,0,1.3,0.1,2.1,0.2c0.8,0.1,1.6,0.3,2.3,0.6c0.7,0.3,1.4,0.7,1.9,1.2
			s0.8,1.1,0.8,1.8c0,0.5-0.2,1-0.7,1.4c-0.4,0.5-1,0.9-1.7,1.3c-0.7,0.4-1.4,0.8-2.2,1.3c-0.8,0.4-1.5,0.9-2.2,1.4s-1.2,1-1.7,1.6
			c-0.4,0.6-0.7,1.2-0.7,1.9c0,0.1,0.1,0.3,0.2,0.6c0.1,0.3,0.4,0.4,0.8,0.4c0.3,0,0.7-0.1,1.1-0.3c0.4-0.2,0.8-0.4,1.1-0.7
			c0.3-0.3,0.6-0.6,0.9-1c0.3-0.4,0.4-0.8,0.4-1.2c0,0,0-0.1,0-0.1v-0.3c0-0.2,0.1-0.5,0.2-0.8c0.1-0.3,0.3-0.5,0.5-0.8
			c0.2-0.2,0.5-0.4,0.8-0.6c0.3-0.2,0.6-0.2,0.9-0.2c0.2,0,0.4,0,0.5,0.1c0.2,0.1,0.3,0.3,0.3,0.6c0.1,0.9,0.2,1.7,0.4,2.6
			c0.2,0.7,0.4,1.4,0.7,2.1c0.3,0.7,0.6,1.2,1.1,1.6c0.2,0.2,0.3,0.4,0.4,0.5c0.1,0.2,0.2,0.3,0.3,0.5
			C192.1,50.7,192.2,50.9,192.2,51.1z"/>
		<path class="st0" d="M217,40.9c0,1.5-0.2,2.9-0.7,4c-0.4,1.2-1,2.1-1.8,2.9c-0.7,0.8-1.5,1.4-2.4,1.8c-0.9,0.4-1.8,0.6-2.7,0.6
			c-1.2,0-2.2-0.3-2.8-0.9c-0.7-0.6-1.2-1.3-1.5-2c-0.3-0.9-0.6-1.8-0.6-2.9c0-0.7,0.1-1.4,0.2-2.1c0.2-0.6,0.3-1.2,0.6-1.8
			c0.3-0.6,0.5-1.2,0.9-1.7c0,0,0-0.1-0.1-0.2c0,0-0.1,0-0.1,0c-0.5,0-0.9-0.1-1.2-0.3c-0.3-0.2-0.4-0.5-0.4-0.8
			c0-0.4,0.2-0.8,0.5-1.2c0.3-0.4,0.8-0.8,1.3-1.1s1.2-0.5,1.8-0.7c0.7-0.2,1.3-0.3,2-0.3c0.6,0,1.2,0.1,2,0.3
			c0.8,0.2,1.6,0.5,2.3,1s1.4,1.2,1.9,2C216.8,38.4,217,39.5,217,40.9z M213.2,41.9c0-0.8-0.1-1.5-0.3-2.1c-0.2-0.5-0.4-1-0.7-1.4
			c-0.3-0.4-0.8-0.6-1.4-0.6c-0.2,0-0.4,0.1-0.7,0.3c-0.3,0.2-0.5,0.6-0.8,1c-0.2,0.4-0.4,1-0.6,1.7c-0.2,0.7-0.3,1.4-0.3,2.3
			c0,0.3,0,0.6,0,1s0.1,0.9,0.2,1.3c0.1,0.4,0.4,0.8,0.7,1.1c0.3,0.3,0.7,0.5,1.3,0.5c0.6,0,1.1-0.3,1.5-0.8s0.6-1.1,0.8-1.7
			C213,43.7,213.1,42.9,213.2,41.9z"/>
		<path class="st0" d="M231.8,45.9c0,1-0.3,1.8-0.9,2.5c-0.6,0.7-1.3,1.3-2.2,1.8s-1.7,0.8-2.6,1c-0.9,0.2-1.7,0.3-2.3,0.3
			c-1.4,0-2.4-0.3-3-0.9c-0.6-0.6-0.9-1.2-0.9-1.8c0-0.5,0.2-0.9,0.6-1.2c0.4-0.3,0.7-0.4,1-0.4c0.3,0,0.7,0.1,1.2,0.4
			c0.5,0.2,1.1,0.4,1.8,0.4c1,0,1.7-0.1,2.2-0.4c0.5-0.3,0.7-0.6,0.7-1c0-0.3-0.2-0.6-0.5-0.9c-0.4-0.2-0.8-0.4-1.4-0.6
			c-0.6-0.2-1.1-0.3-1.8-0.5c-0.6-0.2-1.2-0.4-1.8-0.7c-0.6-0.3-1-0.6-1.4-1c-0.4-0.4-0.5-0.9-0.5-1.5c0-0.8,0.2-1.6,0.7-2.4
			c0.5-0.9,1.1-1.6,1.9-2.3c0.8-0.7,1.7-1.3,2.7-1.8c1-0.5,2-0.7,3.1-0.7c0.9,0,1.6,0.3,2.2,0.8c0.5,0.5,0.8,1.3,0.8,2.4
			c0,0.5-0.1,1-0.4,1.4c-0.3,0.4-0.7,0.7-1.4,0.7c-0.4,0-0.6-0.1-0.8-0.3c-0.1-0.2-0.2-0.4-0.3-0.7c-0.1-0.2-0.2-0.5-0.4-0.7
			c-0.2-0.2-0.5-0.3-0.9-0.3c-0.2,0-0.5,0.1-0.8,0.2c-0.3,0.1-0.7,0.3-1.1,0.6c-0.4,0.3-0.7,0.6-0.9,0.9c-0.3,0.3-0.4,0.7-0.4,1.1
			c0,0.4,0.2,0.7,0.6,0.9c0.4,0.3,0.9,0.5,1.4,0.7c0.6,0.2,1.2,0.4,1.9,0.6c0.7,0.2,1.3,0.4,1.9,0.7c0.6,0.3,1,0.6,1.4,1
			C231.7,44.8,231.8,45.3,231.8,45.9z"/>
		<path class="st0" d="M26.6,95.5c0,0.3-0.1,0.6-0.2,0.8c-0.2,0.2-0.3,0.4-0.6,0.6s-0.5,0.3-0.7,0.4c-0.3,0.1-0.5,0.1-0.6,0.1
			c-0.8,0-1.4-0.2-1.9-0.7c-0.5-0.5-0.8-1.1-1.1-1.8s-0.4-1.5-0.5-2.4c-0.1-0.9-0.1-1.7-0.1-2.4c0-0.6,0-1.2,0-1.6c0-0.4,0-0.8,0-1
			c0-0.5,0-0.8-0.1-0.9c-0.1-0.1-0.2-0.2-0.4-0.2c-0.1,0-0.2,0-0.4,0.1c-0.1,0.1-0.2,0.2-0.3,0.3c-0.1,0.1-0.2,0.3-0.3,0.4
			c-0.3,0.4-0.7,1-1.1,1.7c-0.4,0.7-0.7,1.4-1.1,2c-0.4,0.8-0.8,1.5-1.1,2.4c-0.3,0.4-0.5,0.9-0.8,1.3c-0.3,0.4-0.7,0.6-1.2,0.6
			c-0.6,0-1.1-0.3-1.5-0.9c-0.3-0.6-0.6-1.4-0.8-2.2c-0.2-0.8-0.3-1.6-0.4-2.4c-0.1-0.8-0.1-1.3-0.2-1.6c-0.1-0.4-0.3-0.7-0.5-0.7
			c-0.1,0-0.1,0-0.2,0c-0.1,0-0.2,0.1-0.2,0.1c-0.1,0.1-0.2,0.1-0.2,0.1c-0.6,0.6-1.1,1.3-1.5,2.2c-0.5,0.9-0.9,1.8-1.2,2.7
			c-0.4,1-0.7,2.1-1,3.3c-0.2,0.6-0.4,0.9-0.6,1c-0.3,0.1-0.5,0.1-0.9,0.1c-0.4,0-0.7-0.1-0.9-0.2c-0.3-0.2-0.4-0.3-0.6-0.6
			c-0.1-0.2-0.2-0.5-0.3-0.7c0-0.3-0.1-0.5-0.1-0.7c0-0.6,0-1.2,0.1-1.8c0-0.3,0.1-0.6,0.1-0.9c0.1-0.5,0.1-1,0.1-1.5
			c0-0.5,0-1,0-1.4c0-1.1-0.1-2.1-0.2-2.9c-0.1-0.8-0.3-1.5-0.4-2c-0.2-0.6-0.4-1.2-0.6-1.6c0,0-0.1-0.1-0.1-0.2c0-0.1,0-0.3,0-0.5
			c0-0.2,0-0.4,0.1-0.6c0.1-0.2,0.2-0.5,0.4-0.7c0.2-0.2,0.4-0.4,0.6-0.5c0.3-0.2,0.5-0.2,0.9-0.2c0.3,0,0.7,0.1,1.1,0.4
			s0.7,0.9,1,1.8c0.1,0.3,0.1,0.7,0.2,1.2c0.1,0.4,0.1,1,0.2,1.6c0,0.6,0.1,1.4,0.1,2.3c0,0,0,0.1,0,0.1c0,0.1,0,0.1,0.1,0.1
			c0,0,0.1,0,0.1-0.1c0.1-0.2,0.3-0.6,0.6-1.2c0.3-0.6,0.7-1.1,1.2-1.7c0.5-0.6,1-1.1,1.7-1.6s1.3-0.7,2-0.7c0.6,0,1.1,0.2,1.3,0.6
			c0.2,0.4,0.4,1.3,0.6,2.7c0,0.6,0.1,1.1,0.2,1.6c0.1,0.4,0.1,0.7,0.2,1c0.1,0.3,0.2,0.5,0.3,0.5c0.1,0,0.2-0.1,0.3-0.2
			c0.2-0.2,0.5-0.6,0.7-1.3c0-0.1,0.2-0.5,0.5-1.2s0.8-1.4,1.3-2.2s1.2-1.5,1.8-2.1c0.7-0.6,1.4-0.9,2.2-0.9c0.5,0,1,0.1,1.3,0.4
			s0.6,0.6,0.8,1.1c0.2,0.4,0.3,0.9,0.3,1.4c0,0.5,0.1,1,0.1,1.5c0,2.7,0.1,4.8,0.2,6.5c0.2,1.6,0.6,2.8,1.5,3.4
			c0.1,0,0.1,0.1,0.2,0.2c0.1,0.1,0.1,0.1,0.2,0.2C26.6,95.2,26.6,95.4,26.6,95.5z"/>
		<path class="st0" d="M43.3,96c0,0.4-0.1,0.7-0.3,0.9c-0.2,0.2-0.4,0.4-0.7,0.4c-0.3,0.1-0.6,0.2-0.9,0.2c-0.6,0-1-0.2-1.4-0.5
			c-0.4-0.3-0.7-0.7-1-1.1c-0.3-0.5-0.6-1-0.8-1.7c0-0.2-0.1-0.2-0.2-0.2c-0.1,0-0.1,0-0.2,0.1l-0.1,0.1c-0.5,0.5-1,1-1.5,1.3
			c-0.5,0.3-1,0.6-1.5,0.8c-0.5,0.2-0.9,0.3-1.3,0.3c-0.4,0-0.7,0.1-0.9,0.1c-0.9,0-1.6-0.2-2.2-0.5c-0.5-0.3-0.9-0.7-1.2-1.1
			c-0.3-0.4-0.4-0.9-0.5-1.3s-0.1-0.7-0.1-0.9c0-0.6,0.1-1.2,0.3-1.8c0.2-0.6,0.5-1.1,0.9-1.7c0.4-0.5,0.8-1,1.3-1.4
			c0.5-0.4,1-0.9,1.5-1.2c1.2-0.9,2.5-1.6,4-2.3c0.1,0,0.2-0.1,0.3-0.1c0.2-0.1,0.3-0.3,0.3-0.4c0-0.3-0.3-0.6-0.9-0.7
			c-0.6-0.1-1.2-0.2-1.8-0.2c-0.3,0-0.6,0-0.8,0c-0.3,0-0.5,0-0.7,0.1c-0.3,0-0.5,0-0.7,0c-0.3,0-0.6,0-0.8-0.1
			c-0.2-0.1-0.4-0.2-0.5-0.4c-0.1-0.2-0.2-0.3-0.2-0.5c0-0.2,0-0.3,0-0.4s0-0.2,0.1-0.4c0.1-0.2,0.2-0.4,0.5-0.7
			c0.3-0.2,0.6-0.4,1.1-0.6s1.2-0.3,2-0.3c0.6,0,1.3,0.1,2.1,0.2s1.6,0.3,2.3,0.6c0.7,0.3,1.4,0.7,1.9,1.2s0.8,1.1,0.8,1.8
			c0,0.5-0.2,1-0.7,1.4c-0.4,0.5-1,0.9-1.7,1.3c-0.7,0.4-1.4,0.8-2.2,1.3c-0.8,0.4-1.5,0.9-2.2,1.4s-1.2,1-1.7,1.6
			c-0.4,0.6-0.7,1.2-0.7,1.9c0,0.1,0.1,0.3,0.2,0.6c0.1,0.3,0.4,0.4,0.8,0.4c0.3,0,0.7-0.1,1.1-0.3c0.4-0.2,0.8-0.4,1.1-0.7
			c0.3-0.3,0.6-0.6,0.9-1c0.3-0.4,0.4-0.8,0.4-1.2c0,0,0-0.1,0-0.1v-0.3c0-0.2,0.1-0.5,0.2-0.8c0.1-0.3,0.3-0.5,0.5-0.8
			s0.5-0.4,0.8-0.6c0.3-0.2,0.6-0.2,0.9-0.2c0.2,0,0.4,0,0.5,0.1c0.2,0.1,0.3,0.3,0.3,0.6c0.1,0.9,0.2,1.7,0.4,2.6
			c0.2,0.7,0.4,1.4,0.7,2.1c0.3,0.7,0.6,1.2,1.1,1.6c0.2,0.2,0.3,0.4,0.4,0.5c0.1,0.2,0.2,0.3,0.3,0.5C43.2,95.5,43.3,95.7,43.3,96z
			"/>
		<path class="st0" d="M50.5,81.6c0,0.2-0.1,0.5-0.2,1c-0.1,0.5-0.2,1.1-0.3,1.8c-0.1,0.7-0.2,1.4-0.3,2.3c-0.1,0.9-0.1,1.7-0.1,2.7
			c0,0.7,0,1.3,0.1,2c0.1,0.6,0.1,1.1,0.2,1.6c0.1,0.6,0.2,1.1,0.3,1.5c-0.1,0.4-0.3,0.7-0.6,0.9c-0.4,0.1-0.7,0.2-0.9,0.2
			c-0.3,0-0.6-0.1-0.8-0.2c-0.1-0.1-0.2-0.1-0.3-0.2c-0.5-0.6-0.9-1.5-1.1-2.6c-0.2-1.1-0.3-2.3-0.3-3.6c0-1,0-1.9,0.1-2.9
			c0.1-0.9,0.2-1.8,0.3-2.6c0.1-0.9,0.3-1.7,0.4-2.5c0-0.1,0.1-0.3,0.2-0.4c0.1-0.1,0.3-0.2,0.5-0.3c0.2-0.1,0.5-0.1,0.9-0.1
			c0.2,0,0.4,0,0.6,0.1c0.2,0,0.5,0.1,0.7,0.2c0.2,0.1,0.4,0.3,0.5,0.5C50.5,81,50.5,81.3,50.5,81.6z M52,72.9
			c0,0.2-0.1,0.5-0.2,0.9c-0.1,0.4-0.3,0.8-0.5,1.1c-0.3,0.4-0.6,0.7-1,1c-0.4,0.3-1,0.4-1.6,0.4c-0.6,0-1-0.2-1.2-0.5
			c-0.2-0.3-0.3-0.7-0.3-1.1c0-0.3,0.1-0.7,0.3-1.1c0.2-0.4,0.4-0.7,0.7-1.1c0.3-0.3,0.7-0.6,1.1-0.8s0.9-0.3,1.3-0.3
			c0.2,0,0.5,0.1,0.9,0.2C51.8,71.8,52,72.2,52,72.9z"/>
		<path class="st0" d="M66.3,90.7c0,1-0.3,1.8-0.9,2.5c-0.6,0.7-1.3,1.3-2.2,1.8s-1.7,0.8-2.6,1s-1.7,0.3-2.3,0.3
			c-1.4,0-2.4-0.3-3-0.9c-0.6-0.6-0.9-1.2-0.9-1.8c0-0.5,0.2-0.9,0.6-1.2c0.4-0.3,0.7-0.4,1-0.4c0.3,0,0.7,0.1,1.2,0.4
			c0.5,0.2,1.1,0.4,1.8,0.4c1,0,1.7-0.1,2.2-0.4s0.7-0.6,0.7-1c0-0.3-0.2-0.6-0.5-0.9c-0.4-0.2-0.8-0.4-1.4-0.6
			c-0.6-0.2-1.1-0.3-1.8-0.5c-0.6-0.2-1.2-0.4-1.8-0.7c-0.6-0.3-1-0.6-1.4-1c-0.4-0.4-0.5-0.9-0.5-1.5c0-0.8,0.2-1.6,0.7-2.4
			c0.5-0.9,1.1-1.6,1.9-2.3c0.8-0.7,1.7-1.3,2.7-1.8c1-0.5,2-0.7,3.1-0.7c0.9,0,1.6,0.3,2.2,0.8c0.5,0.5,0.8,1.3,0.8,2.4
			c0,0.5-0.1,1-0.4,1.4c-0.3,0.4-0.7,0.7-1.4,0.7c-0.4,0-0.6-0.1-0.8-0.3c-0.1-0.2-0.2-0.4-0.3-0.7c-0.1-0.2-0.2-0.5-0.4-0.7
			c-0.2-0.2-0.5-0.3-0.9-0.3c-0.2,0-0.5,0.1-0.8,0.2c-0.3,0.1-0.7,0.3-1.1,0.6c-0.4,0.3-0.7,0.6-0.9,0.9c-0.3,0.3-0.4,0.7-0.4,1.1
			c0,0.4,0.2,0.7,0.6,0.9c0.4,0.3,0.9,0.5,1.4,0.7c0.6,0.2,1.2,0.4,1.9,0.6c0.7,0.2,1.3,0.4,1.9,0.7c0.6,0.3,1,0.6,1.4,1
			C66.1,89.6,66.3,90.1,66.3,90.7z"/>
		<path class="st0" d="M95.9,84.2c0,1.6-0.4,3.1-1.2,4.5c-0.8,1.4-1.7,2.6-2.9,3.6c-1.2,1-2.4,1.9-3.7,2.5s-2.6,1-3.7,1.2
			c-0.1,0-0.1,0-0.2,0.1c0,0.1-0.1,0.1-0.1,0.1c-0.1,1.9-0.1,3.8-0.1,5.9c0,0.7,0,1.4,0.1,2.1c0.1,0.6,0.1,1.2,0.2,1.8
			s0.2,1.2,0.4,1.6c0.2,0.5,0.3,0.9,0.4,1.2s0.1,0.5,0.1,0.6c0,0.6-0.2,1.1-0.6,1.3c-0.4,0.2-0.8,0.4-1.1,0.4c-0.3,0-0.4,0-0.5,0
			c-0.1,0-0.2,0-0.2,0c-0.5-0.2-0.9-0.6-1.2-1.3c-0.3-0.7-0.5-1.5-0.6-2.2c-0.1-0.8-0.2-1.5-0.2-2.2c0-0.7,0-1.1,0-1.2
			c0-1.1,0-2,0-2.8c0-0.8,0-1.5,0-2.1s0-1.2,0-1.6c0-0.5,0-0.9,0-1.4c0,0,0-0.1,0-0.1c-0.1-0.1-0.1-0.1-0.2-0.1
			c-0.6-0.1-1.2-0.3-1.7-0.6c-0.4-0.2-0.8-0.5-1.1-0.9c-0.3-0.4-0.5-0.8-0.5-1.4c0-0.5,0.2-0.9,0.5-1.1c0.3-0.3,0.6-0.4,0.9-0.4
			c0.3,0,0.7,0.1,1.1,0.3c0.4,0.2,0.7,0.3,1,0.3c0.1,0,0.2,0,0.3-0.1c0,0,0-0.1,0-0.1c0.2-2.2,0.3-4.1,0.6-5.7
			c0.2-1.6,0.4-2.9,0.7-3.9c0.2-1.2,0.5-2.2,0.7-3c0.1-0.3,0.2-0.5,0.4-0.7c0.2-0.2,0.4-0.3,0.7-0.5c0.3-0.2,0.6-0.2,1.1-0.2
			c0.2,0,0.5,0,0.8,0.1c0.3,0.1,0.4,0.3,0.4,0.8c0,0.1-0.1,0.4-0.2,0.9c-0.1,0.5-0.2,1.1-0.4,1.8c-0.1,0.7-0.2,1.3-0.4,2
			c-0.1,0.6-0.2,1.1-0.2,1.4c0,0.1,0,0.2,0.1,0.2c0,0,0.1-0.1,0.2-0.2c0.6-0.8,1.3-1.4,2.1-2c0.7-0.5,1.5-1,2.5-1.4
			c1-0.4,2.1-0.6,3.3-0.6c0.5,0.1,0.9,0.2,1.3,0.5c0.3,0.3,0.7,0.6,0.9,1C95.7,82.8,95.9,83.4,95.9,84.2z M92.2,85.6
			c0-0.3,0-0.5-0.1-0.6c-0.1-0.2-0.2-0.3-0.3-0.3c-0.1-0.1-0.3-0.1-0.5-0.1c-0.8,0-1.6,0.3-2.4,0.9c-0.8,0.6-1.6,1.3-2.3,2.1
			c-0.7,0.8-1.2,1.7-1.7,2.5c-0.4,0.9-0.6,1.5-0.6,2c0,0.2,0,0.3,0.1,0.3c0.1,0,0.1,0,0.2,0c0.9,0,1.7-0.3,2.6-0.8
			c0.9-0.5,1.7-1.1,2.5-1.8c0.7-0.7,1.3-1.5,1.8-2.2C91.9,86.9,92.2,86.2,92.2,85.6z"/>
		<path class="st0" d="M110.5,82.8c0,1-0.2,1.9-0.6,2.9c-0.4,0.9-1,1.8-1.6,2.5c-0.7,0.7-1.5,1.3-2.3,1.8s-1.8,0.7-2.8,0.7
			c-0.1,0-0.1,0-0.2,0.1c0,0,0,0.1,0,0.1c0.1,0.7,0.2,1.3,0.5,1.7c0.3,0.4,0.5,0.7,0.8,1c0.3,0.3,0.7,0.5,1.1,0.6
			c0.8,0.2,1.3,0.5,1.5,0.9c0.2,0.4,0.3,0.7,0.3,0.9c0,0.4-0.1,0.7-0.3,0.9c-0.2,0.2-0.4,0.4-0.7,0.5c-0.3,0.1-0.6,0.2-0.9,0.2
			c-1.1,0-2-0.2-2.7-0.7c-0.7-0.5-1.3-1-1.7-1.6c-0.5-0.7-0.9-1.5-1.2-2.4l-0.1-0.6c-0.1-0.2-0.1-0.4-0.1-0.7c0-0.3-0.1-0.6-0.1-0.9
			c0,0,0-0.1,0-0.1c-0.1-0.1-0.1-0.1-0.2-0.1c-0.4-0.1-0.7-0.2-1-0.3c-0.3-0.2-0.5-0.4-0.7-0.7c-0.2-0.3-0.3-0.7-0.3-1.2
			c0-0.3,0.1-0.5,0.2-0.7c0.1-0.2,0.2-0.3,0.3-0.4c0.1-0.1,0.3-0.2,0.5-0.2c0.1,0,0.2,0,0.4,0.1c0.2,0,0.5,0.1,0.8,0.2
			c0.1,0,0.1,0,0.1,0c0,0,0,0,0,0c0.4-1.5,1-2.8,1.8-4c0.3-0.5,0.7-1,1-1.5c0.4-0.5,0.8-0.9,1.3-1.3c0.5-0.4,1-0.7,1.6-0.9
			c0.6-0.2,1.2-0.3,1.9-0.3c0.3,0,0.7,0,1.1,0.1c0.4,0.1,0.8,0.3,1.2,0.6c0.4,0.3,0.7,0.7,0.9,1.2C110.4,81.4,110.5,82.1,110.5,82.8
			z M107.1,83.3c0-0.2,0-0.3-0.1-0.5c-0.1-0.1-0.1-0.2-0.2-0.4c-0.1-0.1-0.2-0.2-0.4-0.2c-0.4,0-0.8,0.2-1.2,0.5
			c-0.4,0.3-0.8,0.8-1.2,1.3c-0.4,0.5-0.7,1.1-0.9,1.7c-0.2,0.6-0.3,1.1-0.3,1.6c0,0.2,0.1,0.2,0.2,0.2c0.2,0,0.6-0.1,1-0.3
			c0.5-0.2,0.9-0.4,1.4-0.8c0.5-0.3,0.9-0.8,1.2-1.3C106.9,84.7,107.1,84.1,107.1,83.3z"/>
		<path class="st0" d="M130.3,94.1c0,0.1,0,0.3-0.1,0.5c0,0.2-0.1,0.5-0.2,0.7c-0.1,0.2-0.2,0.4-0.4,0.6c-0.2,0.2-0.4,0.3-0.6,0.3
			c-0.3,0-0.4-0.1-0.5-0.2c-0.1-0.1-0.3-0.2-0.6-0.2c-0.2,0-0.4,0-0.7,0.1c-0.3,0.1-0.5,0.2-0.7,0.3s-0.4,0.2-0.6,0.3
			c-0.2,0.1-0.3,0.2-0.3,0.3c-0.2,1.5-0.4,3.2-0.6,5.1c-0.2,1.9-0.3,3.8-0.3,5.7c0,1,0,1.9,0.1,2.4c0,0.6,0.1,1.1,0.2,1.4
			c0.1,0.4,0.1,0.7,0.2,0.9c0,0.3,0.1,0.5,0.1,0.9c0,0.3-0.1,0.6-0.2,0.7c-0.1,0.2-0.3,0.3-0.5,0.4c-0.2,0.1-0.3,0.1-0.5,0.1
			c-0.2,0-0.3,0-0.3,0c-0.8,0-1.5-0.5-1.9-1.5c-0.5-1-0.7-2.4-0.7-4.2c0-0.5,0-1.1,0.1-2c0.1-0.9,0.2-1.8,0.3-2.7s0.2-1.9,0.3-2.7
			c0.1-0.9,0.2-1.5,0.3-2c0-0.1,0-0.1-0.1-0.1c-0.1,0-0.2,0.1-0.3,0.3c-0.2,0.2-0.3,0.3-0.5,0.5c-0.2,0.2-0.4,0.4-0.7,0.5
			c-0.3,0.2-0.5,0.2-0.8,0.2c-0.2,0-0.4-0.1-0.5-0.2c-0.1-0.1-0.2-0.2-0.3-0.4c-0.1-0.2-0.2-0.3-0.2-0.6c0-0.3,0-0.6,0.1-0.8
			c0.1-0.3,0.2-0.5,0.3-0.6c0.1-0.2,0.3-0.4,0.4-0.5c0.3-0.3,0.6-0.5,0.9-0.9c0.3-0.3,0.6-0.5,1-0.9c0.4-0.3,0.8-0.7,1.3-1
			c0.3-1,0.5-2,0.6-2.8s0.1-1.3,0.1-1.3c0-0.1,0-0.2-0.1-0.2c-0.2,0-0.5,0.3-1.1,0.9c-0.6,0.6-1.2,1.2-2,1.9
			c-0.8,0.7-1.6,1.3-2.6,1.9c-0.9,0.6-1.8,0.9-2.7,0.9c-0.7,0-1.2-0.2-1.5-0.5c-0.3-0.3-0.6-0.7-0.8-1.1c-0.2-0.4-0.3-1-0.3-1.7
			c0-1.1,0.3-2.4,0.9-3.9s1.4-2.8,2.4-4.1c1-1.3,2.1-2.4,3.4-3.2s2.5-1.3,3.8-1.3c0.3,0,0.5,0,0.8,0.1s0.6,0.2,0.9,0.4
			c0.3,0.2,0.5,0.6,0.7,1.1c0.2,0.5,0.3,1.1,0.3,1.9c0,0.3,0,0.7,0,1c0,0.4-0.1,0.8-0.2,1.3c0,0.1,0.1,0.2,0.2,0.2
			c0.1,0,0.2-0.1,0.3-0.1c0.1,0,0.2-0.1,0.3-0.1c0.1,0,0.2,0,0.4,0c0.5,0,0.7,0.4,0.7,1.2c0,0.4,0,0.7,0,0.9s-0.1,0.5-0.1,0.8
			c-0.1,0.3-0.1,0.8-0.2,1.4c-0.1,0.6-0.2,1.5-0.4,2.6c0,0,0,0.1,0,0.1c0,0,0.1,0,0.1,0c0.4-0.2,0.7-0.3,1.1-0.4
			c0.3-0.1,0.7-0.2,1.2-0.2c0.4,0,0.8,0.1,1.1,0.4C130.1,93,130.3,93.4,130.3,94.1z M122.1,87.3c0-0.3,0-0.6,0-1
			c0-0.3-0.1-0.6-0.2-0.9c-0.1-0.3-0.2-0.5-0.4-0.7s-0.4-0.3-0.7-0.3c-0.6,0-1.1,0.3-1.7,0.8c-0.6,0.5-1.1,1.1-1.6,1.9
			c-0.5,0.7-0.9,1.5-1.2,2.2s-0.4,1.4-0.4,1.9c0,0.3,0,0.5,0.1,0.7c0.1,0.2,0.3,0.4,0.6,0.4c0.3,0,0.8-0.2,1.4-0.7
			c0.6-0.5,1.2-1,1.8-1.6c0.6-0.6,1.1-1.2,1.5-1.7C121.8,87.8,122.1,87.4,122.1,87.3z"/>
		<path class="st0" d="M146.3,93.7c0,0.4-0.1,0.8-0.3,1c-0.2,0.2-0.4,0.4-0.6,0.5c-0.3,0.1-0.6,0.2-0.9,0.2c-0.5,0-1-0.1-1.3-0.4
			c-0.4-0.3-0.7-0.6-0.9-1c-0.2-0.4-0.4-0.7-0.5-1s-0.1-0.5-0.1-0.6c0-0.1,0-0.1-0.1-0.1c-0.1,0-0.1,0-0.2,0.1c0,0-0.1,0-0.1,0
			c-0.5,0.9-1.1,1.7-1.7,2.2c-0.6,0.5-1.1,0.9-1.6,1.1c-0.5,0.2-0.9,0.4-1.2,0.4s-0.5,0.1-0.6,0.1c-0.8,0-1.5-0.3-2-0.8
			c-0.6-0.5-1-1.2-1.3-2c-0.3-0.8-0.6-1.7-0.8-2.6c-0.2-0.9-0.2-1.8-0.2-2.7c0-0.8,0.1-1.7,0.2-2.7c0.1-1,0.4-1.9,0.7-2.8
			s0.7-1.6,1.2-2.2c0.5-0.6,1.1-0.9,1.8-0.9c0.1,0,0.3,0,0.4,0c0.2,0,0.3,0.1,0.5,0.2c0.2,0.1,0.3,0.3,0.4,0.5
			c0.1,0.2,0.2,0.5,0.2,0.9c0,0.3,0,0.7-0.1,1.1c-0.1,0.4-0.2,0.9-0.5,1.5c-0.2,0.6-0.4,1.2-0.6,1.8c-0.2,0.5-0.3,1.1-0.4,1.8
			c-0.1,0.7-0.1,1.3-0.1,1.9c0,0.7,0.1,1.3,0.4,1.9c0.3,0.5,0.7,0.8,1.3,0.8c0.5-0.1,1-0.3,1.4-0.8c0.4-0.3,0.8-0.9,1.2-1.7
			c0.4-0.8,0.7-1.8,1-3.2c0-0.2,0.1-0.5,0.1-0.7c0-0.2,0.1-0.5,0.1-0.8s0-0.6,0-0.9c0-0.2,0.1-0.4,0.2-0.6c0.1-0.2,0.3-0.5,0.5-0.7
			c0.2-0.2,0.5-0.4,0.8-0.6c0.3-0.2,0.6-0.2,1-0.2c0.3,0,0.7,0.1,0.9,0.2c0.3,0.2,0.4,0.5,0.4,1c0,0.3-0.1,0.8-0.2,1.4
			c-0.1,0.7-0.2,1.6-0.2,2.8c0,0.9,0.1,1.7,0.2,2.5c0.2,0.8,0.4,1.4,0.7,1.9c0.1,0.2,0.3,0.4,0.6,0.7
			C146.2,93.1,146.3,93.4,146.3,93.7z"/>
		<path class="st0" d="M161.2,82.8c0,1-0.2,1.9-0.6,2.9c-0.4,0.9-1,1.8-1.6,2.5c-0.7,0.7-1.5,1.3-2.3,1.8s-1.8,0.7-2.8,0.7
			c-0.1,0-0.1,0-0.2,0.1c0,0,0,0.1,0,0.1c0.1,0.7,0.2,1.3,0.5,1.7c0.3,0.4,0.5,0.7,0.8,1c0.3,0.3,0.7,0.5,1.1,0.6
			c0.8,0.2,1.3,0.5,1.5,0.9c0.2,0.4,0.3,0.7,0.3,0.9c0,0.4-0.1,0.7-0.3,0.9c-0.2,0.2-0.4,0.4-0.7,0.5c-0.3,0.1-0.6,0.2-0.9,0.2
			c-1.1,0-2-0.2-2.7-0.7c-0.7-0.5-1.3-1-1.7-1.6c-0.5-0.7-0.9-1.5-1.2-2.4l-0.1-0.6c-0.1-0.2-0.1-0.4-0.1-0.7c0-0.3-0.1-0.6-0.1-0.9
			c0,0,0-0.1,0-0.1c-0.1-0.1-0.1-0.1-0.2-0.1c-0.4-0.1-0.7-0.2-1-0.3c-0.3-0.2-0.5-0.4-0.7-0.7c-0.2-0.3-0.3-0.7-0.3-1.2
			c0-0.3,0.1-0.5,0.2-0.7c0.1-0.2,0.2-0.3,0.3-0.4c0.1-0.1,0.3-0.2,0.5-0.2c0.1,0,0.2,0,0.4,0.1c0.2,0,0.5,0.1,0.8,0.2
			c0.1,0,0.1,0,0.1,0c0,0,0,0,0,0c0.4-1.5,1-2.8,1.8-4c0.3-0.5,0.7-1,1-1.5c0.4-0.5,0.8-0.9,1.3-1.3c0.5-0.4,1-0.7,1.6-0.9
			c0.6-0.2,1.2-0.3,1.9-0.3c0.3,0,0.7,0,1.1,0.1c0.4,0.1,0.8,0.3,1.2,0.6c0.4,0.3,0.7,0.7,0.9,1.2C161.1,81.4,161.2,82.1,161.2,82.8
			z M157.8,83.3c0-0.2,0-0.3-0.1-0.5c-0.1-0.1-0.1-0.2-0.2-0.4c-0.1-0.1-0.2-0.2-0.4-0.2c-0.4,0-0.8,0.2-1.2,0.5
			c-0.4,0.3-0.8,0.8-1.2,1.3c-0.4,0.5-0.7,1.1-0.9,1.7c-0.2,0.6-0.3,1.1-0.3,1.6c0,0.2,0.1,0.2,0.2,0.2c0.2,0,0.6-0.1,1-0.3
			c0.5-0.2,0.9-0.4,1.4-0.8c0.5-0.3,0.9-0.8,1.2-1.3C157.7,84.7,157.8,84.1,157.8,83.3z"/>
		<path class="st0" d="M179.1,93.5c0,0.5-0.1,0.9-0.4,1.2s-0.5,0.5-0.8,0.6c-0.3,0.1-0.7,0.2-1.1,0.2c-0.8,0-1.4-0.3-1.8-0.8
			s-0.8-1.2-1-2s-0.3-1.6-0.4-2.5c0-0.9-0.1-1.6-0.1-2.3V87c0-0.3-0.1-0.5-0.4-0.5c-0.4,0-0.8,0.2-1.2,0.7c-0.4,0.5-0.8,1.1-1.2,1.8
			c-0.4,0.7-0.8,1.5-1.1,2.3c-0.4,0.8-0.7,1.6-1,2.3c-0.3,0.7-0.6,1.3-0.9,1.8c-0.3,0.5-0.6,0.8-0.8,0.9c-0.2,0-0.3,0.1-0.4,0.1
			c-0.1,0-0.3,0-0.4,0c-0.5,0-0.8-0.2-1.1-0.6c-0.3-0.4-0.5-0.9-0.6-1.5c-0.1-0.6-0.2-1.3-0.3-2.1c0-0.8-0.1-1.6-0.1-2.4
			c0-0.7,0-1.5,0.1-2.4c0.1-0.9,0.2-1.9,0.3-2.8c0.1-0.9,0.3-1.8,0.4-2.5c0.2-0.8,0.4-1.3,0.6-1.7c0.2-0.3,0.3-0.6,0.6-0.8
			c0.2-0.2,0.4-0.4,0.7-0.5c0.3-0.2,0.7-0.3,1.1-0.3c0.1,0,0.2,0,0.3,0c0.2,0,0.3,0.1,0.5,0.1c0.2,0.1,0.3,0.2,0.4,0.4
			c0.1,0.2,0.2,0.4,0.2,0.7c0,0.4-0.1,0.9-0.4,1.4c-0.3,0.7-0.5,1.4-0.6,2.1c-0.2,0.6-0.3,1.3-0.4,2c-0.1,0.7-0.2,1.4-0.2,2
			c0,0.4,0.1,0.6,0.2,0.6c0.1,0,0.1,0,0.1-0.1c0.1-0.2,0.4-0.6,0.9-1.3c0.4-0.7,1-1.5,1.6-2.2c0.6-0.8,1.3-1.5,2.1-2.1
			c0.8-0.6,1.5-0.9,2.4-0.9c0.9,0,1.5,0.3,1.7,0.9c0.2,0.6,0.3,1.7,0.3,3.1c0,0.3,0,0.6,0,1c0,0.3,0,0.7,0,1.2c0,0.3,0,0.7,0,1.3
			c0,0.5,0.1,1,0.2,1.6c0.1,0.5,0.3,1,0.5,1.5c0.2,0.5,0.5,0.8,0.8,1l0.3,0.2C179,93.2,179.1,93.4,179.1,93.5z"/>
		<path class="st0" d="M194.4,85.8c0,1.5-0.2,2.9-0.7,4c-0.4,1.2-1,2.1-1.8,2.9c-0.7,0.8-1.5,1.4-2.4,1.8c-0.9,0.4-1.8,0.6-2.7,0.6
			c-1.2,0-2.2-0.3-2.8-0.9c-0.7-0.6-1.2-1.3-1.5-2c-0.3-0.9-0.6-1.8-0.6-2.9c0-0.7,0.1-1.4,0.2-2.1c0.2-0.6,0.3-1.2,0.6-1.8
			c0.3-0.6,0.5-1.2,0.9-1.7c0,0,0-0.1-0.1-0.2c0,0-0.1,0-0.1,0c-0.5,0-0.9-0.1-1.2-0.3c-0.3-0.2-0.4-0.5-0.4-0.8
			c0-0.4,0.2-0.8,0.5-1.2c0.3-0.4,0.8-0.8,1.3-1.1s1.2-0.5,1.8-0.7c0.7-0.2,1.3-0.3,2-0.3c0.6,0,1.2,0.1,2,0.3
			c0.8,0.2,1.6,0.5,2.3,1s1.4,1.2,1.9,2C194.1,83.2,194.4,84.4,194.4,85.8z M190.5,86.8c0-0.8-0.1-1.5-0.3-2.1
			c-0.2-0.5-0.4-1-0.7-1.4c-0.3-0.4-0.8-0.6-1.4-0.6c-0.2,0-0.4,0.1-0.7,0.3c-0.3,0.2-0.5,0.6-0.8,1c-0.2,0.4-0.4,1-0.6,1.7
			c-0.2,0.7-0.3,1.4-0.3,2.3c0,0.3,0,0.6,0,1s0.1,0.9,0.2,1.3c0.1,0.4,0.4,0.8,0.7,1.1c0.3,0.3,0.7,0.5,1.3,0.5
			c0.6,0,1.1-0.3,1.5-0.8c0.3-0.5,0.6-1.1,0.8-1.7C190.3,88.6,190.5,87.7,190.5,86.8z"/>
		<path class="st0" d="M209.2,90.7c0,1-0.3,1.8-0.9,2.5c-0.6,0.7-1.3,1.3-2.2,1.8s-1.7,0.8-2.6,1s-1.7,0.3-2.3,0.3
			c-1.4,0-2.4-0.3-3-0.9c-0.6-0.6-0.9-1.2-0.9-1.8c0-0.5,0.2-0.9,0.6-1.2c0.4-0.3,0.7-0.4,1-0.4c0.3,0,0.7,0.1,1.2,0.4
			c0.5,0.2,1.1,0.4,1.8,0.4c1,0,1.7-0.1,2.2-0.4s0.7-0.6,0.7-1c0-0.3-0.2-0.6-0.5-0.9c-0.4-0.2-0.8-0.4-1.4-0.6
			c-0.6-0.2-1.1-0.3-1.8-0.5c-0.6-0.2-1.2-0.4-1.8-0.7c-0.6-0.3-1-0.6-1.4-1c-0.4-0.4-0.5-0.9-0.5-1.5c0-0.8,0.2-1.6,0.7-2.4
			c0.5-0.9,1.1-1.6,1.9-2.3c0.8-0.7,1.7-1.3,2.7-1.8c1-0.5,2-0.7,3.1-0.7c0.9,0,1.6,0.3,2.2,0.8c0.5,0.5,0.8,1.3,0.8,2.4
			c0,0.5-0.1,1-0.4,1.4c-0.3,0.4-0.7,0.7-1.4,0.7c-0.4,0-0.6-0.1-0.8-0.3c-0.1-0.2-0.2-0.4-0.3-0.7c-0.1-0.2-0.2-0.5-0.4-0.7
			c-0.2-0.2-0.5-0.3-0.9-0.3c-0.2,0-0.5,0.1-0.8,0.2c-0.3,0.1-0.7,0.3-1.1,0.6c-0.4,0.3-0.7,0.6-0.9,0.9c-0.3,0.3-0.4,0.7-0.4,1.1
			c0,0.4,0.2,0.7,0.6,0.9c0.4,0.3,0.9,0.5,1.4,0.7c0.6,0.2,1.2,0.4,1.9,0.6c0.7,0.2,1.3,0.4,1.9,0.7c0.6,0.3,1,0.6,1.4,1
			C209,89.6,209.2,90.1,209.2,90.7z"/>
		<path class="st0" d="M217.7,93.6c0,0.5-0.1,0.9-0.4,1.2s-0.5,0.6-0.8,0.9c-0.3,0.2-0.6,0.4-1,0.5c-0.3,0.1-0.6,0.2-0.9,0.2
			c-0.1,0-0.3,0-0.5,0c-0.2,0-0.4-0.1-0.6-0.2c-0.2-0.1-0.4-0.3-0.5-0.6c-0.1-0.3-0.2-0.6-0.2-1c0-0.3,0.1-0.6,0.2-0.9
			c0.1-0.3,0.3-0.6,0.6-0.9c0.3-0.3,0.6-0.5,0.9-0.7c0.4-0.2,0.8-0.3,1.3-0.3c0.5,0,0.9,0.2,1.3,0.5
			C217.5,92.4,217.7,92.9,217.7,93.6z M219,75c0,1.4-0.1,3.1-0.2,5.1c-0.2,2-0.5,4.2-1,6.8c-0.1,0.3-0.2,0.5-0.4,0.8
			c-0.2,0.2-0.4,0.4-0.7,0.5c-0.3,0.1-0.7,0.2-1.2,0.2c-0.5,0-0.8-0.1-0.9-0.4c-0.1-0.2-0.2-0.5-0.2-0.7V87c0,0,0-0.1,0-0.1
			c0.3-2.4,0.4-4.4,0.5-6.2c0-1.8,0-3.3,0-4.6c0-1,0-1.9,0-2.7s-0.1-1.3-0.1-1.8c-0.1-0.5-0.1-1-0.1-1.3c0-0.1,0-0.3,0-0.4
			c0-0.2,0.1-0.3,0.3-0.5c0.2-0.2,0.4-0.3,0.7-0.4c0.3-0.1,0.7-0.2,1.2-0.2c0.1,0,0.2,0,0.4,0c0.2,0,0.4,0.1,0.7,0.3
			s0.4,0.4,0.6,0.7c0.2,0.3,0.3,0.7,0.3,1.3c0,0.3,0.1,0.7,0.1,1c0,0.3,0.1,0.8,0.1,1.2C219,73.9,219,74.4,219,75z"/>
	</g>
	<g>
		<circle class="st0" cx="101.3" cy="3.9" r="3.9"/>
		<circle class="st0" cx="115.6" cy="3.9" r="3.9"/>
		<circle class="st0" cx="130" cy="3.9" r="3.9"/>
		<circle class="st0" cx="144.3" cy="3.9" r="3.9"/>
		<circle class="st0" cx="158.6" cy="3.9" r="3.9"/>
	</g>
	<g>
		<path class="st0" d="M254.8,113.4c4-2,1.3-8.2,1-11.3c-0.3-2.9,2.1-4.8,4.9-4.8c2,0,3,2.3,3.5,3.9c1.2,4.2,0.9,8.9,0.7,13.2
			c-0.1,2.8-0.7,6,0.1,8.8c0.9,2.9,2.4,6.8,5,8.6c2.4,1.6,5-0.5,4.5-3.2c-0.2-0.9-0.7-1.8-1.1-2.7c-0.5-1-0.6-1.7-0.4-2.9
			c0.5-2.2,2.4-0.1,2.9,0.3c1.7,1.8,2.3,4.5,3.7,6.5c2.3,3.5,6.1,3.6,9.2,1c2.8-2.4,0.7-6-1.3-8.2c-3.9-4.4-9.7-6.4-13.7-10.7
			c-1.8-1.9-4.8-6.7-3.7-9.3c1.5-3.4,4.5,0.2,5.2,1.5c0.6,1.1,1.1,2.3,1.6,3.5c1.5,3.3,3.9,6.4,7.7,4.2c2.9-1.7,2-4.5,0.2-6.6
			c-2.7-3.1-7.1-4.5-8.1-8.8c-0.5-2,0.3-4.2,2.4-5c1.9-0.7,4.2,0.3,5.7,1.3c3,1.8,5,5.1,6.7,8c2.1,3.8,5,8.5,9.8,8.8
			c5,0.3,7.1-5,5.8-9.1c-1.4-4.5-6.5-5.9-10.5-7c-4.9-1.4-11.6-2.3-14.5-7.1c-0.8-1.4-1-3.2-0.7-4.8c0.4-2,2.6-1.7,4.1-1.3
			c3.1,0.8,4.9,3.1,6.7,5.6c1.1,1.5,2.8,3.1,4.8,2.7c2.2-0.5,3.6-2.1,3.9-4.4c0.8-5.2-7.2-7.8-10.9-8.6c-6.8-1.4-13.7,1-20.5,0.5
			c-4-0.3-7.7-2-10.6-4.7c-2.2-2.1-4.2-4.6-7.3-5.3c-0.1,0-0.1,0-0.1,0c-0.2,0-0.4,0.1-0.5,0.4c-0.7,4.4,3.5,8.9,4.7,13
			c1.9,6.6-1.5,11.5-5.3,16.5c-2.9,3.8-5.5,7.9-4.5,12.8C246.6,112.5,251.2,115.2,254.8,113.4z"/>
		<path class="st0" d="M258.6,126.6c0.1,0,0.9-0.5,1.4-1.8c1-2.4,1.2-4.6,0.1-7c-1.4-3-4.7-2.7-6.9-0.9
			C248.5,120.6,253.4,129,258.6,126.6z"/>
		<path class="st0" d="M239.1,99.1c3-0.4,5.3-3.4,6.7-5.9c1.8-3.1,2.3-6.7,2.2-10.3c-0.2-7.2-3.8-15.1-10.5-18.4
			c-0.5-0.2-0.9,0.3-0.8,0.6c0,0.1,0,0.3,0.1,0.4c3,3.2,6.6,7.5,4.5,12c-1.8,3.8-5.5,6.5-7.5,10.3c-1.2,2.4-2.2,5.2-1.3,7.8
			C233.5,98.4,236.7,99.4,239.1,99.1z"/>
	</g>
</g>
</svg>
