<?xml version="1.0" encoding="utf-8"?>
<!-- Generator: Adobe Illustrator 21.1.0, SVG Export Plug-In . SVG Version: 6.00 Build 0)  -->
<svg version="1.1" id="Capa_1" xmlns="http://www.w3.org/2000/svg" xmlns:xlink="http://www.w3.org/1999/xlink" x="0px" y="0px"
	 viewBox="0 0 211.4 132.6" style="enable-background:new 0 0 211.4 132.6;" xml:space="preserve">
<style type="text/css">
	.st0{fill:#FFFFFF;}
</style>
<g>
	<g>
		<circle class="st0" cx="65.9" cy="3.9" r="3.9"/>
		<circle class="st0" cx="80.2" cy="3.9" r="3.9"/>
		<circle class="st0" cx="94.5" cy="3.9" r="3.9"/>
		<circle class="st0" cx="108.8" cy="3.9" r="3.9"/>
		<circle class="st0" cx="123.1" cy="3.9" r="3.9"/>
	</g>
	<g>
		<g>
			<path class="st0" d="M17.8,26.6c0,0.4-0.1,0.9-0.4,1.3c-0.3,0.5-0.7,0.7-1.3,0.7c-0.1,0-0.2,0-0.4,0c-0.1,0-0.2,0-0.4-0.1
				c-0.2,0-0.7,0.1-1.3,0.2c-0.6,0.1-1.3,0.4-2.1,0.9c-0.7,0.5-1.5,1.2-2.1,2.2c-0.7,1-1.2,2.4-1.4,4.2c0,0.1,0,0.2,0.1,0.2
				c0,0,0.1,0,0.1,0c0.5-0.1,1.1-0.2,1.7-0.3s1.1-0.1,1.7-0.1c1,0,1.8,0.1,2.4,0.4c0.6,0.3,0.9,0.8,0.9,1.6c0,0.4-0.1,0.7-0.3,0.9
				c-0.2,0.2-0.4,0.4-0.5,0.5c-0.3,0.1-0.5,0.2-0.8,0.2c-0.9,0.1-1.9,0.2-2.8,0.4c-0.9,0.2-1.8,0.4-2.7,0.6c-0.1,0-0.1,0.1-0.1,0.1
				c0,0-0.1,0.1-0.2,0.3c-0.1,0.8-0.1,1.5-0.1,2.2c0,0.7,0,1.4,0,2c0,1.1,0,2.2,0.1,3.1c0.1,0.9,0.1,1.7,0.2,2.3
				c0.1,0.8,0.3,1.4,0.4,2c0,0.4-0.1,0.7-0.3,1c-0.2,0.3-0.4,0.5-0.6,0.7c-0.3,0.2-0.5,0.3-0.8,0.4c-0.3,0.1-0.6,0.1-0.8,0.1
				c-0.4,0-0.8-0.1-1.1-0.4c-0.3-0.3-0.5-0.5-0.7-0.9c-0.2-0.3-0.3-0.8-0.4-1.2c-0.3-1.3-0.4-2.7-0.5-4.1c-0.1-1.4-0.1-3.2-0.1-5.4
				c0-0.2-0.1-0.2-0.2-0.2c-0.1,0-0.3,0.1-0.5,0.2c-0.2,0.1-0.5,0.2-0.9,0.2c-0.3,0-0.6-0.1-0.7-0.2c-0.2-0.1-0.3-0.3-0.4-0.4
				C0.1,42,0,41.7,0,41.5c0-0.6,0.2-1.2,0.5-1.6c0.3-0.4,0.7-0.8,1.1-1.1c0.4-0.3,1-0.6,1.6-0.9c0,0,0.1,0,0.1,0
				c0.1,0,0.2-0.1,0.2-0.3C3.6,35.7,4,34,4.7,32.4c0.7-1.6,1.6-3,2.6-4.2c1.1-1.2,2.3-2.1,3.6-2.8c1.3-0.7,2.7-1,4.1-1
				c0.7,0,1.4,0.2,1.9,0.5C17.5,25.1,17.8,25.7,17.8,26.6z"/>
			<path class="st0" d="M31.4,40.9c0,1.5-0.2,2.9-0.7,4c-0.4,1.2-1,2.1-1.8,2.9c-0.7,0.8-1.5,1.4-2.4,1.8c-0.9,0.4-1.8,0.6-2.7,0.6
				c-1.2,0-2.2-0.3-2.8-0.9c-0.7-0.6-1.2-1.3-1.5-2c-0.3-0.9-0.6-1.8-0.6-2.9c0-0.7,0.1-1.4,0.2-2.1c0.2-0.6,0.3-1.2,0.6-1.8
				c0.3-0.6,0.5-1.2,0.9-1.7c0,0,0-0.1-0.1-0.2c0,0-0.1,0-0.1,0c-0.5,0-0.9-0.1-1.2-0.3c-0.3-0.2-0.4-0.5-0.4-0.8
				c0-0.4,0.2-0.8,0.5-1.2c0.3-0.4,0.8-0.8,1.3-1.1s1.2-0.5,1.8-0.7c0.7-0.2,1.3-0.3,2-0.3c0.6,0,1.2,0.1,2,0.3
				c0.8,0.2,1.6,0.5,2.3,1s1.4,1.2,1.9,2C31.2,38.4,31.4,39.5,31.4,40.9z M27.6,41.9c0-0.8-0.1-1.5-0.3-2.1c-0.2-0.5-0.4-1-0.7-1.4
				c-0.3-0.4-0.8-0.6-1.4-0.6c-0.2,0-0.4,0.1-0.7,0.3c-0.3,0.2-0.5,0.6-0.8,1c-0.2,0.4-0.4,1-0.6,1.7c-0.2,0.7-0.3,1.4-0.3,2.3
				c0,0.3,0,0.6,0,1s0.1,0.9,0.2,1.3c0.1,0.4,0.4,0.8,0.7,1.1C24,46.8,24.4,47,25,47c0.6,0,1.1-0.3,1.5-0.8s0.6-1.1,0.8-1.7
				C27.4,43.7,27.5,42.9,27.6,41.9z"/>
			<path class="st0" d="M46.9,41.1c0,0.3-0.1,0.4-0.3,0.6c-0.2,0.1-0.4,0.2-0.6,0.3c-0.3,0.1-0.5,0.1-0.9,0.1
				c-0.6,0-1.1-0.1-1.4-0.3c-0.3-0.2-0.6-0.4-0.8-0.7c-0.2-0.3-0.3-0.5-0.4-0.7c-0.1-0.2-0.2-0.3-0.3-0.3c-0.2,0-0.5,0.3-0.9,1
				c-0.4,0.7-0.9,1.5-1.3,2.6c-0.4,1-0.8,2.2-1.2,3.5c-0.3,1.3-0.5,2.5-0.5,3.7c0,0.5-0.2,0.9-0.4,1.1c-0.3,0.2-0.7,0.3-1.1,0.3
				c-0.5,0-0.9-0.2-1.2-0.7c-0.3-0.4-0.5-1-0.6-1.7c-0.1-0.7-0.2-1.4-0.2-2.2c0-0.8,0-1.6,0-2.4c0-1.3,0-2.5,0.1-3.7
				c0.1-1.2,0.2-2.3,0.3-3.2c0.1-0.7,0.2-1.3,0.4-1.8c0.2-0.5,0.4-0.8,0.6-1.1c0.2-0.3,0.5-0.4,0.8-0.5c0.3-0.1,0.7-0.2,1.1-0.2
				c0.2,0,0.3,0.1,0.4,0.2c0.1,0.1,0.2,0.2,0.3,0.4c0.1,0.2,0.1,0.4,0.1,0.7c0,0.2,0,0.3,0,0.4c-0.1,0.4-0.1,0.9-0.2,1.4
				c-0.1,0.4-0.1,0.9-0.2,1.4s-0.1,1.1-0.2,1.6c0,0.1,0,0.1,0,0.2c0,0.1,0.1,0.1,0.2,0.1s0.2-0.1,0.2-0.2c0.2-0.5,0.4-1,0.7-1.6
				c0.2-0.5,0.5-1,0.8-1.6c0.3-0.6,0.6-1.2,1-1.7c0.2-0.3,0.3-0.5,0.4-0.7c0.1-0.2,0.3-0.5,0.6-1c0.2-0.3,0.5-0.5,0.8-0.7
				c0.3-0.2,0.5-0.3,0.8-0.5c0.3-0.2,0.6-0.2,0.9-0.2c0.3,0,0.5,0.1,0.7,0.2c0.2,0.2,0.3,0.4,0.3,0.8c0,0.4,0,0.8-0.1,1.2
				c-0.1,0.4-0.1,0.9-0.1,1.4c0,0.9,0.1,1.6,0.2,2.1c0.2,0.5,0.3,0.9,0.5,1.2c0.2,0.3,0.4,0.5,0.5,0.7
				C46.9,40.8,46.9,40.9,46.9,41.1z"/>
			<path class="st0" d="M69.6,31.6c0,0.3-0.1,0.6-0.2,0.7c-0.2,0.2-0.3,0.3-0.5,0.4c-0.2,0.1-0.4,0.1-0.7,0.1c-0.3,0-0.7,0-1.2,0.1
				c-0.5,0.1-1,0.1-1.5,0.3c-0.5,0.1-0.9,0.2-1.3,0.4c-0.4,0.1-0.6,0.2-0.6,0.3c-0.1,0.6-0.2,1.5-0.3,2.5c-0.1,0.9-0.1,1.9-0.2,3.3
				s-0.1,2.9-0.1,4.8c0.1,1.3,0.2,2.4,0.4,3.5c0.2,1,0.4,2,0.6,2.9c0.3,1,0.6,1.7,1.1,2.3c0.3,0.4,0.4,0.7,0.4,1
				c0,0.4-0.2,0.8-0.6,1s-0.8,0.3-1,0.3c-0.5,0-0.9-0.1-1.2-0.3c-0.2-0.1-0.3-0.2-0.5-0.3c-0.6-0.5-1-1.3-1.4-2.2
				c-0.3-0.9-0.6-1.9-0.8-2.9c-0.2-1.1-0.3-2.2-0.4-3.3c-0.1-1.2-0.1-2.2-0.1-3.3c0-0.9,0-1.8,0.1-2.8c0-1,0.1-2,0.2-2.8
				c0.1-1,0.2-2.1,0.3-3.1c0-0.1,0-0.1-0.1-0.1h-0.1c-1.6,0-2.7-0.1-3.3-0.4c-0.6-0.3-0.9-0.7-0.9-1.3c0-0.1,0-0.2,0-0.4
				c0-0.2,0.1-0.4,0.3-0.6c0.1-0.2,0.4-0.4,0.6-0.5c0.3-0.1,0.7-0.2,1.1-0.2c0.3,0,0.6,0,0.8,0.1c0.2,0.1,0.5,0.1,0.9,0.1
				c0.1,0,0.3,0,0.6,0c0.3,0,0.4-0.1,0.4-0.3c0.3-1.8,0.5-3.3,0.9-4.3c0.3-1,0.7-1.8,1-2.3c0.4-0.5,0.7-0.8,1.1-0.9
				c0.4-0.1,0.8-0.2,1.2-0.2c0.2,0,0.4,0,0.5,0.1c0.2,0.1,0.3,0.2,0.4,0.3c0.1,0.1,0.2,0.3,0.2,0.6c0,0.4,0,0.7-0.1,1.1
				c-0.1,0.3-0.2,0.7-0.4,1.2c-0.2,0.4-0.3,0.9-0.5,1.5c-0.2,0.6-0.4,1.3-0.5,2.2c0,0.1,0,0.2,0.1,0.2c0.1,0,0.5-0.1,1-0.2
				c0.6-0.1,1.1-0.2,1.6-0.2c0.6,0,1.1,0.1,1.4,0.3c0.3,0.2,0.6,0.4,0.8,0.6C69.4,31,69.5,31.3,69.6,31.6z"/>
			<path class="st0" d="M82.4,47.2c0,0.9,0,1.9-0.1,3c-0.1,1.1-0.2,2.2-0.4,3.3c0,0.3-0.1,0.5-0.3,0.6c-0.2,0.2-0.4,0.3-0.6,0.3
				c-0.3,0.1-0.5,0.2-0.9,0.2c-0.7,0-1.2-0.2-1.4-0.6c-0.2-0.4-0.3-0.8-0.3-1.3c0.1-1.4,0.1-2.6,0.2-3.6s0.1-2,0.1-2.8
				c0-2.1-0.1-3.6-0.3-4.5c-0.2-0.9-0.4-1.4-0.8-1.4c-0.4,0-0.9,0.4-1.4,1.1c-0.5,0.7-1.1,1.6-1.6,2.6c-0.5,1-1,2.1-1.4,3.2
				c-0.4,1.1-0.8,2-0.9,2.7c-0.1,0.3-0.2,0.6-0.4,0.8c-0.2,0.2-0.4,0.3-0.6,0.4c-0.2,0.1-0.4,0.1-0.6,0.2c-0.2,0-0.3,0-0.5,0
				c-0.3,0-0.6-0.2-0.9-0.7c-0.2-0.5-0.4-1-0.5-1.7c-0.1-0.7-0.2-1.4-0.2-2.2c0-0.8,0-1.5,0-2.2c0-2.1,0.1-4.2,0.3-6.5
				c0.2-2.3,0.4-4.4,0.6-6.4c0.2-2,0.5-3.8,0.7-5.3c0.3-1.5,0.4-2.7,0.6-3.4c0.1-0.6,0.2-1.1,0.4-1.6c0.2-0.5,0.6-0.7,1.3-0.7
				c0.5,0,0.9,0.2,1.2,0.5c0.3,0.4,0.5,1,0.5,1.8c0,0.3,0,0.8,0,1.2s-0.1,1.1-0.3,1.8c-0.3,1.9-0.7,3.7-0.9,5.6
				c-0.3,1.6-0.5,3.4-0.6,5.2c-0.2,1.9-0.3,3.6-0.3,5.2c0,0.1,0,0.2,0,0.3c0,0.2,0.1,0.3,0.2,0.3c0.1,0,0.2-0.1,0.3-0.3
				c0-0.1,0.2-0.4,0.6-1.2s0.9-1.5,1.4-2.3c0.6-0.8,1.2-1.6,2-2.3c0.7-0.7,1.5-1,2.2-1c1,0,1.9,0.9,2.6,2.8S82.4,43.3,82.4,47.2z"/>
			<path class="st0" d="M98.2,38c0,1-0.2,1.9-0.6,2.9c-0.4,0.9-1,1.8-1.6,2.5c-0.7,0.7-1.5,1.3-2.3,1.8c-0.9,0.4-1.8,0.7-2.8,0.7
				c-0.1,0-0.1,0-0.2,0.1c0,0,0,0.1,0,0.1c0.1,0.7,0.2,1.3,0.5,1.7c0.3,0.4,0.5,0.7,0.8,1c0.3,0.3,0.7,0.5,1.1,0.6
				c0.8,0.2,1.3,0.5,1.5,0.9c0.2,0.4,0.3,0.7,0.3,0.9c0,0.4-0.1,0.7-0.3,0.9c-0.2,0.2-0.4,0.4-0.7,0.4c-0.3,0.1-0.6,0.2-0.9,0.2
				c-1.1,0-2-0.2-2.7-0.7c-0.7-0.5-1.3-1-1.7-1.6c-0.5-0.7-0.9-1.5-1.2-2.4l-0.1-0.6C87,47.1,87,46.9,87,46.6s-0.1-0.6-0.1-0.9
				c0,0,0-0.1,0-0.1c-0.1-0.1-0.1-0.1-0.2-0.1c-0.4-0.1-0.7-0.2-1-0.3c-0.3-0.2-0.5-0.4-0.7-0.7c-0.2-0.3-0.3-0.7-0.3-1.2
				c0-0.3,0.1-0.5,0.2-0.7c0.1-0.2,0.2-0.3,0.3-0.4c0.1-0.1,0.3-0.2,0.5-0.2c0.1,0,0.2,0,0.4,0.1c0.2,0,0.5,0.1,0.8,0.2
				c0.1,0,0.1,0,0.1,0c0,0,0,0,0,0c0.4-1.5,1-2.8,1.8-4c0.3-0.5,0.7-1,1-1.5c0.4-0.5,0.8-0.9,1.3-1.3s1-0.7,1.6-0.9
				c0.6-0.2,1.2-0.3,1.9-0.3c0.3,0,0.7,0,1.1,0.1c0.4,0.1,0.8,0.3,1.2,0.6c0.4,0.3,0.7,0.7,0.9,1.2C98.1,36.6,98.2,37.2,98.2,38z
				 M94.8,38.5c0-0.2,0-0.3-0.1-0.5c-0.1-0.1-0.1-0.2-0.2-0.4c-0.1-0.1-0.2-0.2-0.4-0.2c-0.4,0-0.8,0.2-1.2,0.5
				c-0.4,0.3-0.8,0.8-1.2,1.3c-0.4,0.5-0.7,1.1-0.9,1.7c-0.2,0.6-0.3,1.1-0.3,1.6c0,0.2,0.1,0.2,0.2,0.2c0.2,0,0.6-0.1,1-0.3
				c0.5-0.2,0.9-0.4,1.4-0.8c0.5-0.3,0.9-0.8,1.2-1.3C94.6,39.9,94.8,39.2,94.8,38.5z"/>
			<path class="st0" d="M116.8,23.4c-0.5,2.1-0.9,4.2-1.3,6.4c-0.3,1.9-0.6,4-0.9,6.2c-0.3,2.3-0.4,4.5-0.4,6.6
				c0,1.6,0.1,3.1,0.3,4.5c0.2,1.4,0.5,2.6,1,3.5c0,0.1,0.1,0.2,0.1,0.3c0.1,0.3,0.2,0.5,0.2,0.8c0,0.3-0.2,0.6-0.5,1
				c-0.3,0.4-0.8,0.6-1.5,0.6c-0.3,0-0.6-0.1-0.8-0.2c-0.2-0.1-0.4-0.3-0.6-0.4c-0.2-0.2-0.4-0.4-0.5-0.7c-0.5-1-0.9-2.3-1.1-3.8
				s-0.3-3.2-0.3-4.9c0-1.6,0.1-3.3,0.2-5.1c0.1-1.7,0.3-3.4,0.6-5.1c0.2-1.7,0.5-3.3,0.8-4.9c0.3-1.6,0.6-3,1-4.4
				c0.1-0.3,0.2-0.6,0.4-0.8c0.2-0.2,0.4-0.4,0.7-0.6c0.3-0.2,0.7-0.3,1.2-0.4c0.3,0,0.7,0,1,0.1c0.3,0.1,0.5,0.3,0.5,0.6
				L116.8,23.4z"/>
			<path class="st0" d="M123.8,36.8c0,0.2-0.1,0.5-0.2,1c-0.1,0.5-0.2,1.1-0.3,1.8c-0.1,0.7-0.2,1.4-0.3,2.3
				c-0.1,0.9-0.1,1.7-0.1,2.6c0,0.7,0,1.3,0.1,2c0.1,0.6,0.1,1.1,0.2,1.6c0.1,0.6,0.2,1.1,0.3,1.5c-0.1,0.4-0.3,0.7-0.6,0.9
				c-0.4,0.1-0.7,0.2-0.9,0.2c-0.3,0-0.6-0.1-0.8-0.2c-0.1-0.1-0.2-0.1-0.3-0.2c-0.5-0.6-0.9-1.5-1.1-2.6c-0.2-1.1-0.3-2.3-0.3-3.6
				c0-1,0-1.9,0.1-2.9c0.1-0.9,0.2-1.8,0.3-2.6c0.1-0.9,0.3-1.7,0.4-2.5c0-0.1,0.1-0.3,0.2-0.4c0.1-0.1,0.3-0.2,0.5-0.3
				c0.2-0.1,0.5-0.1,0.9-0.1c0.2,0,0.4,0,0.6,0.1c0.2,0,0.5,0.1,0.7,0.2c0.2,0.1,0.4,0.3,0.5,0.5C123.7,36.2,123.8,36.5,123.8,36.8z
				 M125.2,28c0,0.2-0.1,0.5-0.2,0.9c-0.1,0.4-0.3,0.8-0.5,1.1c-0.3,0.4-0.6,0.7-1,1c-0.4,0.3-1,0.4-1.6,0.4c-0.6,0-1-0.2-1.2-0.5
				c-0.2-0.3-0.3-0.7-0.3-1.1c0-0.3,0.1-0.7,0.3-1.1c0.2-0.4,0.4-0.7,0.7-1.1c0.3-0.3,0.7-0.6,1.1-0.8c0.4-0.2,0.9-0.3,1.3-0.3
				c0.2,0,0.5,0.1,0.9,0.2C125.1,27,125.2,27.4,125.2,28z"/>
			<path class="st0" d="M138.9,31.6c0,0.3-0.1,0.6-0.2,0.7c-0.2,0.2-0.3,0.3-0.5,0.4c-0.2,0.1-0.4,0.1-0.7,0.1c-0.3,0-0.7,0-1.2,0.1
				c-0.5,0.1-1,0.1-1.5,0.3c-0.5,0.1-0.9,0.2-1.3,0.4c-0.4,0.1-0.6,0.2-0.6,0.3c-0.1,0.6-0.2,1.5-0.3,2.5c-0.1,0.9-0.1,1.9-0.2,3.3
				s-0.1,2.9-0.1,4.8c0.1,1.3,0.2,2.4,0.4,3.5c0.2,1,0.4,2,0.6,2.9c0.3,1,0.6,1.7,1.1,2.3c0.3,0.4,0.4,0.7,0.4,1
				c0,0.4-0.2,0.8-0.6,1s-0.8,0.3-1,0.3c-0.5,0-0.9-0.1-1.2-0.3c-0.2-0.1-0.3-0.2-0.5-0.3c-0.6-0.5-1-1.3-1.4-2.2
				c-0.3-0.9-0.6-1.9-0.8-2.9c-0.2-1.1-0.3-2.2-0.4-3.3c-0.1-1.2-0.1-2.2-0.1-3.3c0-0.9,0-1.8,0.1-2.8c0-1,0.1-2,0.2-2.8
				c0.1-1,0.2-2.1,0.3-3.1c0-0.1,0-0.1-0.1-0.1h-0.1c-1.6,0-2.7-0.1-3.3-0.4c-0.6-0.3-0.9-0.7-0.9-1.3c0-0.1,0-0.2,0-0.4
				c0-0.2,0.1-0.4,0.3-0.6c0.1-0.2,0.4-0.4,0.6-0.5c0.3-0.1,0.7-0.2,1.1-0.2c0.3,0,0.6,0,0.8,0.1c0.2,0.1,0.5,0.1,0.9,0.1
				c0.1,0,0.3,0,0.6,0c0.3,0,0.4-0.1,0.4-0.3c0.3-1.8,0.5-3.3,0.9-4.3c0.3-1,0.7-1.8,1-2.3c0.4-0.5,0.7-0.8,1.1-0.9
				c0.4-0.1,0.8-0.2,1.2-0.2c0.2,0,0.4,0,0.5,0.1c0.2,0.1,0.3,0.2,0.4,0.3c0.1,0.1,0.2,0.3,0.2,0.6c0,0.4,0,0.7-0.1,1.1
				c-0.1,0.3-0.2,0.7-0.4,1.2c-0.2,0.4-0.3,0.9-0.5,1.5c-0.2,0.6-0.4,1.3-0.5,2.2c0,0.1,0,0.2,0.1,0.2c0.1,0,0.5-0.1,1-0.2
				c0.6-0.1,1.1-0.2,1.6-0.2c0.6,0,1.1,0.1,1.4,0.3c0.3,0.2,0.6,0.4,0.8,0.6C138.7,31,138.9,31.3,138.9,31.6z"/>
			<path class="st0" d="M148.7,31.6c0,0.3-0.1,0.6-0.2,0.7c-0.2,0.2-0.3,0.3-0.5,0.4c-0.2,0.1-0.4,0.1-0.7,0.1c-0.3,0-0.7,0-1.2,0.1
				c-0.5,0.1-1,0.1-1.5,0.3c-0.5,0.1-0.9,0.2-1.3,0.4c-0.4,0.1-0.6,0.2-0.6,0.3c-0.1,0.6-0.2,1.5-0.3,2.5c-0.1,0.9-0.1,1.9-0.2,3.3
				s-0.1,2.9-0.1,4.8c0.1,1.3,0.2,2.4,0.4,3.5c0.2,1,0.4,2,0.6,2.9c0.3,1,0.6,1.7,1.1,2.3c0.3,0.4,0.4,0.7,0.4,1
				c0,0.4-0.2,0.8-0.6,1s-0.8,0.3-1,0.3c-0.5,0-0.9-0.1-1.2-0.3c-0.2-0.1-0.3-0.2-0.5-0.3c-0.6-0.5-1-1.3-1.4-2.2
				c-0.3-0.9-0.6-1.9-0.8-2.9c-0.2-1.1-0.3-2.2-0.4-3.3c-0.1-1.2-0.1-2.2-0.1-3.3c0-0.9,0-1.8,0.1-2.8c0-1,0.1-2,0.2-2.8
				c0.1-1,0.2-2.1,0.3-3.1c0-0.1,0-0.1-0.1-0.1H139c-1.6,0-2.7-0.1-3.3-0.4c-0.6-0.3-0.9-0.7-0.9-1.3c0-0.1,0-0.2,0-0.4
				c0-0.2,0.1-0.4,0.3-0.6c0.1-0.2,0.4-0.4,0.6-0.5c0.3-0.1,0.7-0.2,1.1-0.2c0.3,0,0.6,0,0.8,0.1c0.2,0.1,0.5,0.1,0.9,0.1
				c0.1,0,0.3,0,0.6,0c0.3,0,0.4-0.1,0.4-0.3c0.3-1.8,0.5-3.3,0.9-4.3c0.3-1,0.7-1.8,1-2.3c0.4-0.5,0.7-0.8,1.1-0.9
				c0.4-0.1,0.8-0.2,1.2-0.2c0.2,0,0.4,0,0.5,0.1c0.2,0.1,0.3,0.2,0.4,0.3c0.1,0.1,0.2,0.3,0.2,0.6c0,0.4,0,0.7-0.1,1.1
				c-0.1,0.3-0.2,0.7-0.4,1.2c-0.2,0.4-0.3,0.9-0.5,1.5c-0.2,0.6-0.4,1.3-0.5,2.2c0,0.1,0,0.2,0.1,0.2c0.1,0,0.5-0.1,1-0.2
				c0.6-0.1,1.1-0.2,1.6-0.2c0.6,0,1.1,0.1,1.4,0.3c0.3,0.2,0.6,0.4,0.8,0.6C148.5,31,148.6,31.3,148.7,31.6z"/>
			<path class="st0" d="M154.2,23.4c-0.5,2.1-0.9,4.2-1.3,6.4c-0.3,1.9-0.6,4-0.9,6.2c-0.3,2.3-0.4,4.5-0.4,6.6
				c0,1.6,0.1,3.1,0.3,4.5c0.2,1.4,0.5,2.6,1,3.5c0,0.1,0.1,0.2,0.1,0.3c0.1,0.3,0.2,0.5,0.2,0.8c0,0.3-0.2,0.6-0.5,1
				c-0.3,0.4-0.8,0.6-1.5,0.6c-0.3,0-0.6-0.1-0.8-0.2c-0.2-0.1-0.4-0.3-0.6-0.4c-0.2-0.2-0.4-0.4-0.5-0.7c-0.5-1-0.9-2.3-1.1-3.8
				s-0.3-3.2-0.3-4.9c0-1.6,0.1-3.3,0.2-5.1c0.1-1.7,0.3-3.4,0.6-5.1c0.2-1.7,0.5-3.3,0.8-4.9c0.3-1.6,0.6-3,1-4.4
				c0.1-0.3,0.2-0.6,0.4-0.8c0.2-0.2,0.4-0.4,0.7-0.6c0.3-0.2,0.7-0.3,1.2-0.4c0.3,0,0.7,0,1,0.1c0.3,0.1,0.5,0.3,0.5,0.6
				L154.2,23.4z"/>
			<path class="st0" d="M168.9,38c0,1-0.2,1.9-0.6,2.9c-0.4,0.9-1,1.8-1.6,2.5c-0.7,0.7-1.5,1.3-2.3,1.8c-0.9,0.4-1.8,0.7-2.8,0.7
				c-0.1,0-0.1,0-0.2,0.1c0,0,0,0.1,0,0.1c0.1,0.7,0.2,1.3,0.5,1.7c0.3,0.4,0.5,0.7,0.8,1c0.3,0.3,0.7,0.5,1.1,0.6
				c0.8,0.2,1.3,0.5,1.5,0.9c0.2,0.4,0.3,0.7,0.3,0.9c0,0.4-0.1,0.7-0.3,0.9c-0.2,0.2-0.4,0.4-0.7,0.4c-0.3,0.1-0.6,0.2-0.9,0.2
				c-1.1,0-2-0.2-2.7-0.7c-0.7-0.5-1.3-1-1.7-1.6c-0.5-0.7-0.9-1.5-1.2-2.4l-0.1-0.6c-0.1-0.2-0.1-0.4-0.1-0.7s-0.1-0.6-0.1-0.9
				c0,0,0-0.1,0-0.1c-0.1-0.1-0.1-0.1-0.2-0.1c-0.4-0.1-0.7-0.2-1-0.3c-0.3-0.2-0.5-0.4-0.7-0.7c-0.2-0.3-0.3-0.7-0.3-1.2
				c0-0.3,0.1-0.5,0.2-0.7c0.1-0.2,0.2-0.3,0.3-0.4c0.1-0.1,0.3-0.2,0.5-0.2c0.1,0,0.2,0,0.4,0.1c0.2,0,0.5,0.1,0.8,0.2
				c0.1,0,0.1,0,0.1,0c0,0,0,0,0,0c0.4-1.5,1-2.8,1.8-4c0.3-0.5,0.7-1,1-1.5c0.4-0.5,0.8-0.9,1.3-1.3s1-0.7,1.6-0.9
				c0.6-0.2,1.2-0.3,1.9-0.3c0.3,0,0.7,0,1.1,0.1c0.4,0.1,0.8,0.3,1.2,0.6c0.4,0.3,0.7,0.7,0.9,1.2C168.7,36.6,168.9,37.2,168.9,38z
				 M165.5,38.5c0-0.2,0-0.3-0.1-0.5c-0.1-0.1-0.1-0.2-0.2-0.4c-0.1-0.1-0.2-0.2-0.4-0.2c-0.4,0-0.8,0.2-1.2,0.5
				c-0.4,0.3-0.8,0.8-1.2,1.3c-0.4,0.5-0.7,1.1-0.9,1.7c-0.2,0.6-0.3,1.1-0.3,1.6c0,0.2,0.1,0.2,0.2,0.2c0.2,0,0.6-0.1,1-0.3
				c0.5-0.2,0.9-0.4,1.4-0.8c0.5-0.3,0.9-0.8,1.2-1.3C165.3,39.9,165.5,39.2,165.5,38.5z"/>
			<path class="st0" d="M13.9,85.8c0,1.5-0.2,2.9-0.7,4c-0.4,1.2-1,2.1-1.8,2.9c-0.7,0.8-1.5,1.4-2.4,1.8c-0.9,0.4-1.8,0.6-2.7,0.6
				c-1.2,0-2.2-0.3-2.8-0.9c-0.7-0.6-1.2-1.3-1.5-2c-0.3-0.9-0.6-1.8-0.6-2.9c0-0.7,0.1-1.4,0.2-2.1c0.2-0.6,0.3-1.2,0.6-1.8
				c0.3-0.6,0.5-1.2,0.9-1.7c0,0,0-0.1-0.1-0.2c0,0-0.1,0-0.1,0c-0.5,0-0.9-0.1-1.2-0.3c-0.3-0.2-0.4-0.5-0.4-0.8
				c0-0.4,0.2-0.8,0.5-1.2c0.3-0.4,0.8-0.8,1.3-1.1s1.2-0.5,1.8-0.7c0.7-0.2,1.3-0.3,2-0.3c0.6,0,1.2,0.1,2,0.3
				c0.8,0.2,1.6,0.5,2.3,1s1.4,1.2,1.9,2C13.7,83.2,13.9,84.4,13.9,85.8z M10.1,86.8c0-0.8-0.1-1.5-0.3-2.1c-0.2-0.5-0.4-1-0.7-1.4
				c-0.3-0.4-0.8-0.6-1.4-0.6c-0.2,0-0.4,0.1-0.7,0.3c-0.3,0.2-0.5,0.6-0.8,1c-0.2,0.4-0.4,1-0.6,1.7c-0.2,0.7-0.3,1.4-0.3,2.3
				c0,0.3,0,0.6,0,1s0.1,0.9,0.2,1.3c0.1,0.4,0.4,0.8,0.7,1.1c0.3,0.3,0.7,0.5,1.3,0.5c0.6,0,1.1-0.3,1.5-0.8
				c0.3-0.5,0.6-1.1,0.8-1.7C9.9,88.6,10,87.7,10.1,86.8z"/>
			<path class="st0" d="M32.6,93.5c0,0.5-0.1,0.9-0.4,1.2s-0.5,0.5-0.8,0.6c-0.3,0.1-0.7,0.2-1.1,0.2c-0.8,0-1.4-0.3-1.8-0.8
				s-0.8-1.2-1-2s-0.3-1.6-0.4-2.5c0-0.9-0.1-1.6-0.1-2.3V87c0-0.3-0.1-0.5-0.4-0.5c-0.4,0-0.8,0.2-1.2,0.7
				c-0.4,0.5-0.8,1.1-1.2,1.8c-0.4,0.7-0.8,1.5-1.1,2.3c-0.4,0.8-0.7,1.6-1,2.3c-0.3,0.7-0.6,1.3-0.9,1.8c-0.3,0.5-0.6,0.8-0.8,0.9
				c-0.2,0-0.3,0.1-0.4,0.1c-0.1,0-0.3,0-0.4,0c-0.5,0-0.8-0.2-1.1-0.6c-0.3-0.4-0.5-0.9-0.6-1.5c-0.1-0.6-0.2-1.3-0.3-2.1
				c0-0.8-0.1-1.6-0.1-2.4c0-0.7,0-1.5,0.1-2.4c0.1-0.9,0.2-1.9,0.3-2.8c0.1-0.9,0.3-1.8,0.4-2.5c0.2-0.8,0.4-1.3,0.6-1.7
				c0.2-0.3,0.3-0.6,0.6-0.8c0.2-0.2,0.4-0.4,0.7-0.5c0.3-0.2,0.7-0.3,1.1-0.3c0.1,0,0.2,0,0.3,0c0.2,0,0.3,0.1,0.5,0.1
				c0.2,0.1,0.3,0.2,0.4,0.4c0.1,0.2,0.2,0.4,0.2,0.7c0,0.4-0.1,0.9-0.4,1.4c-0.3,0.7-0.5,1.4-0.6,2.1c-0.2,0.6-0.3,1.3-0.4,2
				c-0.1,0.7-0.2,1.4-0.2,2c0,0.4,0.1,0.6,0.2,0.6c0.1,0,0.1,0,0.1-0.1c0.1-0.2,0.4-0.6,0.9-1.3c0.4-0.7,1-1.5,1.6-2.2
				c0.6-0.8,1.3-1.5,2.1-2.1c0.8-0.6,1.5-0.9,2.4-0.9c0.9,0,1.5,0.3,1.7,0.9c0.2,0.6,0.3,1.7,0.3,3.1c0,0.3,0,0.6,0,1
				c0,0.3,0,0.7,0,1.2c0,0.3,0,0.7,0,1.3c0,0.5,0.1,1,0.2,1.6c0.1,0.5,0.3,1,0.5,1.5c0.2,0.5,0.5,0.8,0.8,1l0.3,0.2
				C32.5,93.2,32.6,93.4,32.6,93.5z"/>
			<path class="st0" d="M47.3,82.8c0,1-0.2,1.9-0.6,2.9c-0.4,0.9-1,1.8-1.6,2.5c-0.7,0.7-1.5,1.3-2.3,1.8s-1.8,0.7-2.8,0.7
				c-0.1,0-0.1,0-0.2,0.1c0,0,0,0.1,0,0.1c0.1,0.7,0.2,1.3,0.5,1.7c0.3,0.4,0.5,0.7,0.8,1c0.3,0.3,0.7,0.5,1.1,0.6
				c0.8,0.2,1.3,0.5,1.5,0.9c0.2,0.4,0.3,0.7,0.3,0.9c0,0.4-0.1,0.7-0.3,0.9c-0.2,0.2-0.4,0.4-0.7,0.5c-0.3,0.1-0.6,0.2-0.9,0.2
				c-1.1,0-2-0.2-2.7-0.7c-0.7-0.5-1.3-1-1.7-1.6c-0.5-0.7-0.9-1.5-1.2-2.4l-0.1-0.6c-0.1-0.2-0.1-0.4-0.1-0.7
				c0-0.3-0.1-0.6-0.1-0.9c0,0,0-0.1,0-0.1c-0.1-0.1-0.1-0.1-0.2-0.1c-0.4-0.1-0.7-0.2-1-0.3c-0.3-0.2-0.5-0.4-0.7-0.7
				c-0.2-0.3-0.3-0.7-0.3-1.2c0-0.3,0.1-0.5,0.2-0.7c0.1-0.2,0.2-0.3,0.3-0.4c0.1-0.1,0.3-0.2,0.5-0.2c0.1,0,0.2,0,0.4,0.1
				c0.2,0,0.5,0.1,0.8,0.2c0.1,0,0.1,0,0.1,0c0,0,0,0,0,0c0.4-1.5,1-2.8,1.8-4c0.3-0.5,0.7-1,1-1.5c0.4-0.5,0.8-0.9,1.3-1.3
				c0.5-0.4,1-0.7,1.6-0.9c0.6-0.2,1.2-0.3,1.9-0.3c0.3,0,0.7,0,1.1,0.1c0.4,0.1,0.8,0.3,1.2,0.6c0.4,0.3,0.7,0.7,0.9,1.2
				C47.2,81.4,47.3,82.1,47.3,82.8z M43.9,83.3c0-0.2,0-0.3-0.1-0.5c-0.1-0.1-0.1-0.2-0.2-0.4c-0.1-0.1-0.2-0.2-0.4-0.2
				c-0.4,0-0.8,0.2-1.2,0.5c-0.4,0.3-0.8,0.8-1.2,1.3c-0.4,0.5-0.7,1.1-0.9,1.7c-0.2,0.6-0.3,1.1-0.3,1.6c0,0.2,0.1,0.2,0.2,0.2
				c0.2,0,0.6-0.1,1-0.3c0.5-0.2,0.9-0.4,1.4-0.8c0.5-0.3,0.9-0.8,1.2-1.3C43.7,84.7,43.9,84.1,43.9,83.3z"/>
			<path class="st0" d="M61.4,90.7c0,1-0.3,1.8-0.9,2.5c-0.6,0.7-1.3,1.3-2.2,1.8s-1.7,0.8-2.6,1s-1.7,0.3-2.3,0.3
				c-1.4,0-2.4-0.3-3-0.9c-0.6-0.6-0.9-1.2-0.9-1.8c0-0.5,0.2-0.9,0.6-1.2c0.4-0.3,0.7-0.4,1-0.4c0.3,0,0.7,0.1,1.2,0.4
				c0.5,0.2,1.1,0.4,1.8,0.4c1,0,1.7-0.1,2.2-0.4s0.7-0.6,0.7-1c0-0.3-0.2-0.6-0.5-0.9c-0.4-0.2-0.8-0.4-1.4-0.6
				c-0.6-0.2-1.1-0.3-1.8-0.5c-0.6-0.2-1.2-0.4-1.8-0.7c-0.6-0.3-1-0.6-1.4-1c-0.4-0.4-0.5-0.9-0.5-1.5c0-0.8,0.2-1.6,0.7-2.4
				c0.5-0.9,1.1-1.6,1.9-2.3c0.8-0.7,1.7-1.3,2.7-1.8c1-0.5,2-0.7,3.1-0.7c0.9,0,1.6,0.3,2.2,0.8c0.5,0.5,0.8,1.3,0.8,2.4
				c0,0.5-0.1,1-0.4,1.4c-0.3,0.4-0.7,0.7-1.4,0.7c-0.4,0-0.6-0.1-0.8-0.3c-0.1-0.2-0.2-0.4-0.3-0.7c-0.1-0.2-0.2-0.5-0.4-0.7
				c-0.2-0.2-0.5-0.3-0.9-0.3c-0.2,0-0.5,0.1-0.8,0.2c-0.3,0.1-0.7,0.3-1.1,0.6c-0.4,0.3-0.7,0.6-0.9,0.9c-0.3,0.3-0.4,0.7-0.4,1.1
				c0,0.4,0.2,0.7,0.6,0.9c0.4,0.3,0.9,0.5,1.4,0.7c0.6,0.2,1.2,0.4,1.9,0.6c0.7,0.2,1.3,0.4,1.9,0.7c0.6,0.3,1,0.6,1.4,1
				C61.2,89.6,61.4,90.1,61.4,90.7z"/>
			<path class="st0" d="M85,76.5c0,0.3-0.1,0.6-0.2,0.7c-0.2,0.2-0.3,0.3-0.5,0.4c-0.2,0.1-0.4,0.1-0.7,0.1c-0.3,0-0.7,0-1.2,0.1
				c-0.5,0.1-1,0.2-1.5,0.3c-0.5,0.1-0.9,0.2-1.3,0.4c-0.4,0.1-0.6,0.2-0.6,0.3c-0.1,0.6-0.2,1.5-0.3,2.5c-0.1,0.9-0.1,1.9-0.2,3.3
				c-0.1,1.3-0.1,2.9-0.1,4.8c0.1,1.3,0.2,2.4,0.4,3.5c0.2,1,0.4,2,0.6,2.9c0.3,1,0.6,1.7,1.1,2.3c0.3,0.4,0.4,0.7,0.4,1
				c0,0.4-0.2,0.8-0.6,1s-0.8,0.3-1,0.3c-0.5,0-0.9-0.1-1.2-0.3c-0.2-0.1-0.3-0.2-0.5-0.3c-0.6-0.5-1-1.3-1.4-2.2
				c-0.3-0.9-0.6-1.9-0.8-2.9c-0.2-1.1-0.3-2.2-0.4-3.3C75,90,74.9,89,74.9,87.9c0-0.9,0-1.8,0.1-2.8c0-1,0.1-2,0.2-2.8
				c0.1-1,0.2-2.1,0.3-3.1c0-0.1,0-0.1-0.1-0.1h-0.1c-1.6,0-2.7-0.1-3.3-0.4c-0.6-0.3-0.9-0.7-0.9-1.3c0-0.1,0-0.2,0-0.4
				c0-0.2,0.1-0.4,0.3-0.6c0.1-0.2,0.4-0.4,0.6-0.5c0.3-0.1,0.7-0.2,1.1-0.2c0.3,0,0.6,0,0.8,0.1c0.2,0.1,0.5,0.1,0.9,0.1
				c0.1,0,0.3,0,0.6,0c0.3,0,0.4-0.1,0.4-0.3c0.3-1.8,0.5-3.3,0.9-4.3s0.7-1.8,1-2.3c0.4-0.5,0.7-0.8,1.1-0.9
				c0.4-0.1,0.8-0.2,1.2-0.2c0.2,0,0.4,0,0.5,0.1c0.2,0.1,0.3,0.2,0.4,0.3c0.1,0.1,0.2,0.3,0.2,0.6c0,0.4,0,0.7-0.1,1.1
				s-0.2,0.7-0.4,1.2c-0.2,0.4-0.3,0.9-0.5,1.5c-0.2,0.6-0.4,1.3-0.5,2.2c0,0.1,0,0.2,0.1,0.2c0.1,0,0.5-0.1,1-0.2
				c0.6-0.1,1.1-0.2,1.6-0.2c0.6,0,1.1,0.1,1.4,0.3c0.3,0.2,0.6,0.4,0.8,0.6C84.8,75.8,84.9,76.1,85,76.5z"/>
			<path class="st0" d="M96.3,85.8c0,1.5-0.2,2.9-0.7,4c-0.4,1.2-1,2.1-1.8,2.9c-0.7,0.8-1.5,1.4-2.4,1.8c-0.9,0.4-1.8,0.6-2.7,0.6
				c-1.2,0-2.2-0.3-2.8-0.9c-0.7-0.6-1.2-1.3-1.5-2c-0.3-0.9-0.6-1.8-0.6-2.9c0-0.7,0.1-1.4,0.2-2.1c0.2-0.6,0.3-1.2,0.6-1.8
				c0.3-0.6,0.5-1.2,0.9-1.7c0,0,0-0.1-0.1-0.2c0,0-0.1,0-0.1,0c-0.5,0-0.9-0.1-1.2-0.3c-0.3-0.2-0.4-0.5-0.4-0.8
				c0-0.4,0.2-0.8,0.5-1.2c0.3-0.4,0.8-0.8,1.3-1.1s1.2-0.5,1.8-0.7c0.7-0.2,1.3-0.3,2-0.3c0.6,0,1.2,0.1,2,0.3
				c0.8,0.2,1.6,0.5,2.3,1s1.4,1.2,1.9,2C96.1,83.2,96.3,84.4,96.3,85.8z M92.5,86.8c0-0.8-0.1-1.5-0.3-2.1c-0.2-0.5-0.4-1-0.7-1.4
				c-0.3-0.4-0.8-0.6-1.4-0.6c-0.2,0-0.4,0.1-0.7,0.3c-0.3,0.2-0.5,0.6-0.8,1c-0.2,0.4-0.4,1-0.6,1.7c-0.2,0.7-0.3,1.4-0.3,2.3
				c0,0.3,0,0.6,0,1s0.1,0.9,0.2,1.3c0.1,0.4,0.4,0.8,0.7,1.1c0.3,0.3,0.7,0.5,1.3,0.5c0.6,0,1.1-0.3,1.5-0.8
				c0.3-0.5,0.6-1.1,0.8-1.7C92.3,88.6,92.4,87.7,92.5,86.8z"/>
			<path class="st0" d="M112.1,85.8c0,1.5-0.2,2.9-0.7,4c-0.4,1.2-1,2.1-1.8,2.9c-0.7,0.8-1.5,1.4-2.4,1.8c-0.9,0.4-1.8,0.6-2.7,0.6
				c-1.2,0-2.2-0.3-2.8-0.9c-0.7-0.6-1.2-1.3-1.5-2c-0.3-0.9-0.6-1.8-0.6-2.9c0-0.7,0.1-1.4,0.2-2.1c0.2-0.6,0.3-1.2,0.6-1.8
				c0.3-0.6,0.5-1.2,0.9-1.7c0,0,0-0.1-0.1-0.2c0,0-0.1,0-0.1,0c-0.5,0-0.9-0.1-1.2-0.3c-0.3-0.2-0.4-0.5-0.4-0.8
				c0-0.4,0.2-0.8,0.5-1.2c0.3-0.4,0.8-0.8,1.3-1.1s1.2-0.5,1.8-0.7c0.7-0.2,1.3-0.3,2-0.3c0.6,0,1.2,0.1,2,0.3
				c0.8,0.2,1.6,0.5,2.3,1s1.4,1.2,1.9,2C111.8,83.2,112.1,84.4,112.1,85.8z M108.3,86.8c0-0.8-0.1-1.5-0.3-2.1
				c-0.2-0.5-0.4-1-0.7-1.4c-0.3-0.4-0.8-0.6-1.4-0.6c-0.2,0-0.4,0.1-0.7,0.3c-0.3,0.2-0.5,0.6-0.8,1c-0.2,0.4-0.4,1-0.6,1.7
				c-0.2,0.7-0.3,1.4-0.3,2.3c0,0.3,0,0.6,0,1s0.1,0.9,0.2,1.3c0.1,0.4,0.4,0.8,0.7,1.1c0.3,0.3,0.7,0.5,1.3,0.5
				c0.6,0,1.1-0.3,1.5-0.8c0.3-0.5,0.6-1.1,0.8-1.7C108.1,88.6,108.2,87.7,108.3,86.8z"/>
			<path class="st0" d="M120.7,93.6c0,0.5-0.1,0.9-0.4,1.2s-0.5,0.6-0.8,0.9c-0.3,0.2-0.6,0.4-1,0.5c-0.3,0.1-0.6,0.2-0.9,0.2
				c-0.1,0-0.3,0-0.5,0c-0.2,0-0.4-0.1-0.6-0.2c-0.2-0.1-0.4-0.3-0.5-0.6c-0.1-0.3-0.2-0.6-0.2-1c0-0.3,0.1-0.6,0.2-0.9
				c0.1-0.3,0.3-0.6,0.6-0.9c0.3-0.3,0.6-0.5,0.9-0.7c0.4-0.2,0.8-0.3,1.3-0.3c0.5,0,0.9,0.2,1.3,0.5
				C120.5,92.4,120.7,92.9,120.7,93.6z M121.9,75c0,1.4-0.1,3.1-0.2,5.1c-0.2,2-0.5,4.2-1,6.8c-0.1,0.3-0.2,0.5-0.4,0.8
				c-0.2,0.2-0.4,0.4-0.7,0.5c-0.3,0.1-0.7,0.2-1.2,0.2c-0.5,0-0.8-0.1-0.9-0.4c-0.1-0.2-0.2-0.5-0.2-0.7V87c0,0,0-0.1,0-0.1
				c0.3-2.4,0.4-4.4,0.5-6.2c0-1.8,0-3.3,0-4.6c0-1,0-1.9,0-2.7s-0.1-1.3-0.1-1.8c-0.1-0.5-0.1-1-0.1-1.3c0-0.1,0-0.3,0-0.4
				c0-0.2,0.1-0.3,0.3-0.5c0.2-0.2,0.4-0.3,0.7-0.4c0.3-0.1,0.7-0.2,1.2-0.2c0.1,0,0.2,0,0.4,0c0.2,0,0.4,0.1,0.7,0.3
				s0.4,0.4,0.6,0.7c0.2,0.3,0.3,0.7,0.3,1.3c0,0.3,0.1,0.7,0.1,1c0,0.3,0.1,0.8,0.1,1.2C121.9,73.9,121.9,74.4,121.9,75z"/>
		</g>
		<g>
			<path class="st0" d="M158.7,113.4c4-2,1.3-8.2,1-11.3c-0.3-2.9,2.1-4.8,4.9-4.8c2,0,3,2.3,3.5,3.9c1.2,4.2,0.9,8.9,0.7,13.2
				c-0.1,2.8-0.7,6,0.1,8.8c0.9,2.9,2.4,6.8,5,8.6c2.4,1.6,5-0.5,4.5-3.2c-0.2-0.9-0.7-1.8-1.1-2.7c-0.5-1-0.6-1.7-0.4-2.9
				c0.5-2.2,2.4-0.1,2.9,0.3c1.7,1.8,2.3,4.5,3.7,6.5c2.3,3.5,6.1,3.6,9.2,1c2.8-2.4,0.7-6-1.3-8.2c-3.9-4.4-9.7-6.4-13.7-10.7
				c-1.8-1.9-4.8-6.7-3.7-9.3c1.5-3.4,4.5,0.2,5.2,1.5c0.6,1.1,1.1,2.3,1.6,3.5c1.5,3.3,3.9,6.4,7.7,4.2c2.9-1.7,2-4.5,0.2-6.6
				c-2.7-3.1-7.1-4.5-8.1-8.8c-0.5-2,0.3-4.2,2.4-5c1.9-0.7,4.2,0.3,5.7,1.3c3,1.8,5,5.1,6.7,8c2.1,3.8,5,8.5,9.8,8.8
				c5,0.3,7.1-5,5.8-9.1c-1.4-4.5-6.5-5.9-10.5-7c-4.9-1.4-11.6-2.3-14.5-7.1c-0.8-1.4-1-3.2-0.7-4.8c0.4-2,2.6-1.7,4.1-1.3
				c3.1,0.8,4.9,3.1,6.7,5.6c1.1,1.5,2.8,3.1,4.8,2.7c2.2-0.5,3.6-2.1,3.9-4.4c0.8-5.2-7.2-7.8-10.9-8.6c-6.8-1.4-13.7,1-20.5,0.5
				c-4-0.3-7.7-2-10.6-4.7c-2.2-2.1-4.2-4.6-7.3-5.3c-0.1,0-0.1,0-0.1,0c-0.2,0-0.4,0.1-0.5,0.4c-0.7,4.4,3.5,8.9,4.7,13
				c1.9,6.6-1.5,11.5-5.3,16.5c-2.9,3.8-5.5,7.9-4.5,12.8C150.5,112.5,155.1,115.2,158.7,113.4z"/>
			<path class="st0" d="M162.4,126.6c0.1,0,0.9-0.5,1.4-1.8c1-2.4,1.2-4.6,0.1-7c-1.4-3-4.7-2.7-6.9-0.9
				C152.4,120.6,157.3,129,162.4,126.6z"/>
			<path class="st0" d="M143,99.1c3-0.4,5.3-3.4,6.7-5.9c1.8-3.1,2.3-6.7,2.2-10.3c-0.2-7.2-3.8-15.1-10.5-18.4
				c-0.5-0.2-0.9,0.3-0.8,0.6c0,0.1,0,0.3,0.1,0.4c3,3.2,6.6,7.5,4.5,12c-1.8,3.8-5.5,6.5-7.5,10.3c-1.2,2.4-2.2,5.2-1.3,7.8
				C137.4,98.4,140.6,99.4,143,99.1z"/>
		</g>
	</g>
</g>
</svg>
