<?xml version="1.0" encoding="utf-8"?>
<!-- Generator: Adobe Illustrator 21.1.0, SVG Export Plug-In . SVG Version: 6.00 Build 0)  -->
<svg version="1.1" id="Capa_1" xmlns="http://www.w3.org/2000/svg" xmlns:xlink="http://www.w3.org/1999/xlink" x="0px" y="0px"
	 viewBox="0 0 206.6 120.4" style="enable-background:new 0 0 206.6 120.4;" xml:space="preserve">
<style type="text/css">
	.st0{fill:#FFFFFF;}
</style>
<g>
	<g>
		<path class="st0" d="M19.5,48.4c-0.1,2.9-0.4,5.5-1,7.7c-0.2,1-0.6,1.9-1,2.8c-0.4,0.9-0.9,1.7-1.4,2.5c-0.6,0.7-1.2,1.3-2,1.8
			c-0.8,0.4-1.7,0.7-2.7,0.7c-0.7,0-1.2-0.1-1.7-0.4c-0.5-0.2-0.9-0.5-1.3-0.9c-0.4-0.4-0.7-0.8-0.9-1.3c-0.2-0.5-0.5-1-0.6-1.5
			c-0.4-1.2-0.6-2.6-0.7-4.2c0-2,0.2-3.7,0.5-4.9c0.3-1.2,0.9-2.1,1.6-2.5c0.1,0,0.2-0.1,0.4-0.1c0.1,0,0.2-0.1,0.4-0.1
			c0.1,0,0.3,0,0.4,0c0.3,0,0.6,0.1,0.8,0.2s0.3,0.4,0.3,0.8c0,0.1-0.1,0.4-0.2,0.8c-0.1,0.4-0.3,0.9-0.4,1.6
			c-0.2,0.6-0.3,1.4-0.4,2.2s-0.2,1.8-0.2,2.7c0,0.5,0,1,0.1,1.5c0.1,0.5,0.2,1,0.3,1.4c0.2,0.4,0.4,0.7,0.6,1
			c0.3,0.3,0.6,0.4,1.1,0.4c0.7,0,1.4-0.3,2-1c0.6-0.7,1-1.5,1.4-2.5c0.4-1,0.6-2.1,0.8-3.3s0.3-2.4,0.3-3.5c0-0.7,0-1.6-0.1-2.5
			c-0.1-0.9-0.2-1.8-0.4-2.7c0-0.5,0.2-0.9,0.4-1.2c0.2-0.4,0.7-0.6,1.4-0.6c0.9,0,1.4,0.4,1.7,1.2C19.3,45.2,19.5,46.5,19.5,48.4z"
			/>
		<path class="st0" d="M32.3,61.7c0,0.4-0.1,0.6-0.3,0.8c-0.2,0.2-0.4,0.3-0.6,0.4c-0.2,0.1-0.5,0.1-0.8,0.2c-0.6,0-1-0.2-1.3-0.6
			s-0.5-0.9-0.7-1.5s-0.2-1.2-0.3-1.8s-0.1-1.2-0.1-1.6V57c0-0.2-0.1-0.3-0.3-0.3c-0.3,0-0.6,0.2-0.9,0.5c-0.3,0.3-0.6,0.8-0.8,1.3
			c-0.3,0.5-0.6,1.1-0.8,1.6c-0.3,0.6-0.5,1.1-0.7,1.7c-0.2,0.5-0.5,1-0.7,1.3c-0.2,0.4-0.4,0.6-0.6,0.6c-0.1,0-0.2,0-0.3,0.1
			c-0.1,0-0.2,0-0.3,0c-0.3,0-0.6-0.1-0.8-0.4c-0.2-0.3-0.3-0.6-0.4-1.1c-0.1-0.4-0.2-0.9-0.2-1.5c0-0.6-0.1-1.1-0.1-1.7
			c0-0.5,0-1,0.1-1.7c0.1-0.7,0.1-1.3,0.2-2c0.1-0.7,0.2-1.3,0.3-1.8c0.1-0.6,0.3-1,0.4-1.2c0.1-0.2,0.2-0.4,0.4-0.6
			c0.1-0.1,0.3-0.3,0.5-0.4c0.2-0.1,0.5-0.2,0.8-0.2c0,0,0.1,0,0.2,0c0.1,0,0.2,0,0.3,0.1c0.1,0.1,0.2,0.1,0.3,0.3
			c0.1,0.1,0.1,0.3,0.1,0.5c0,0.3-0.1,0.6-0.3,1c-0.2,0.5-0.3,1-0.4,1.5c-0.1,0.4-0.2,0.9-0.3,1.4c-0.1,0.5-0.1,1-0.1,1.4
			c0,0.3,0,0.4,0.1,0.4c0,0,0.1,0,0.1-0.1c0.1-0.1,0.3-0.5,0.6-1c0.3-0.5,0.7-1,1.2-1.6c0.5-0.6,1-1.1,1.5-1.5
			c0.5-0.4,1.1-0.7,1.7-0.7c0.7,0,1.1,0.2,1.2,0.7c0.2,0.5,0.2,1.2,0.2,2.2c0,0.2,0,0.5,0,0.7s0,0.5,0,0.9c0,0.2,0,0.5,0,0.9
			s0.1,0.8,0.1,1.1c0.1,0.4,0.2,0.7,0.3,1.1c0.1,0.3,0.3,0.6,0.6,0.7l0.2,0.1C32.3,61.5,32.3,61.6,32.3,61.7z"/>
	</g>
	<g>
		<path class="st0" d="M19.2,87c0,1.3-0.3,2.5-0.9,3.6s-1.4,2-2.3,2.8c-0.9,0.8-1.9,1.5-3,2c-1.1,0.5-2,0.8-2.9,1
			c-0.1,0-0.1,0-0.2,0.1c0,0,0,0.1-0.1,0.1c-0.1,1.5-0.1,3-0.1,4.7c0,0.6,0,1.1,0.1,1.6c0,0.5,0.1,1,0.2,1.5
			c0.1,0.5,0.2,0.9,0.3,1.3c0.1,0.4,0.2,0.7,0.3,1c0,0.2,0.1,0.4,0.1,0.5c0,0.5-0.2,0.8-0.5,1c-0.3,0.2-0.6,0.3-0.8,0.3
			c-0.2,0-0.3,0-0.4,0c-0.1,0-0.1,0-0.1,0c-0.4-0.2-0.7-0.5-1-1.1c-0.2-0.6-0.4-1.2-0.5-1.8s-0.2-1.2-0.2-1.7c0-0.5,0-0.8,0-0.9
			c0-0.8,0-1.6,0-2.2s0-1.2,0-1.7c0-0.5,0-0.9,0-1.3c0-0.4,0-0.7,0-1.1c0,0,0-0.1,0-0.1c0-0.1-0.1-0.1-0.2-0.1
			c-0.5-0.1-0.9-0.3-1.3-0.5c-0.3-0.2-0.6-0.4-0.9-0.7s-0.4-0.7-0.4-1.1c0-0.4,0.1-0.7,0.4-0.9C5,93,5.2,92.9,5.4,92.9
			c0.3,0,0.6,0.1,0.8,0.3c0.3,0.2,0.6,0.3,0.8,0.3c0.1,0,0.2,0,0.2-0.1c0,0,0-0.1,0-0.1c0.1-1.8,0.3-3.3,0.4-4.5
			c0.2-1.2,0.3-2.3,0.5-3.1c0.2-0.9,0.4-1.7,0.6-2.4c0.1-0.2,0.2-0.4,0.3-0.6c0.1-0.1,0.3-0.2,0.5-0.4c0.2-0.1,0.5-0.2,0.9-0.2
			c0.2,0,0.4,0,0.6,0.1s0.3,0.3,0.3,0.6c0,0,0,0.3-0.1,0.7c-0.1,0.4-0.2,0.9-0.3,1.4c-0.1,0.5-0.2,1.1-0.3,1.6
			c-0.1,0.5-0.1,0.9-0.1,1.1c0,0.1,0,0.1,0.1,0.1c0,0,0.1-0.1,0.2-0.2c0.4-0.6,1-1.1,1.6-1.6c0.5-0.4,1.2-0.8,1.9-1.1
			s1.6-0.5,2.6-0.5c0.4,0,0.7,0.2,1,0.4c0.3,0.2,0.5,0.5,0.7,0.8C19.1,85.9,19.2,86.4,19.2,87z M16.3,88.1c0-0.2,0-0.4-0.1-0.5
			c-0.1-0.1-0.2-0.2-0.3-0.3c-0.1-0.1-0.2-0.1-0.4-0.1c-0.6,0-1.3,0.2-1.9,0.7c-0.7,0.5-1.3,1-1.8,1.7c-0.5,0.6-1,1.3-1.3,2
			c-0.3,0.7-0.5,1.2-0.5,1.6c0,0.1,0,0.2,0.1,0.3c0,0,0.1,0,0.1,0c0.7,0,1.4-0.2,2.1-0.6s1.4-0.9,1.9-1.5c0.6-0.6,1.1-1.2,1.4-1.8
			C16.1,89.1,16.3,88.6,16.3,88.1z"/>
		<path class="st0" d="M31.5,96.3c0,0.3-0.1,0.5-0.2,0.7s-0.3,0.3-0.5,0.4c-0.2,0.1-0.5,0.1-0.7,0.1c-0.4,0-0.8-0.1-1.1-0.4
			c-0.3-0.3-0.6-0.6-0.8-0.9c-0.2-0.4-0.4-0.8-0.6-1.3c0-0.1-0.1-0.2-0.2-0.2c0,0-0.1,0-0.1,0.1l-0.1,0.1c-0.4,0.4-0.8,0.8-1.2,1
			s-0.8,0.5-1.2,0.6c-0.4,0.1-0.7,0.2-1,0.3c-0.3,0-0.5,0.1-0.7,0.1c-0.7,0-1.3-0.1-1.7-0.4c-0.4-0.3-0.7-0.6-0.9-0.9
			c-0.2-0.3-0.3-0.7-0.4-1C20,94.2,20,93.9,20,93.8c0-0.5,0.1-1,0.3-1.4s0.4-0.9,0.7-1.3c0.3-0.4,0.6-0.8,1-1.1
			c0.4-0.3,0.8-0.7,1.2-1c0.9-0.7,2-1.3,3.2-1.8c0.1,0,0.2-0.1,0.2-0.1c0.1-0.1,0.2-0.2,0.2-0.3c0-0.3-0.2-0.5-0.7-0.6
			c-0.4-0.1-0.9-0.1-1.5-0.1c-0.2,0-0.4,0-0.7,0c-0.2,0-0.4,0-0.5,0.1c-0.2,0-0.4,0-0.5,0c-0.3,0-0.5,0-0.7-0.1
			c-0.2-0.1-0.3-0.2-0.4-0.3c-0.1-0.1-0.1-0.3-0.2-0.4c0-0.1,0-0.2,0-0.3c0-0.1,0-0.2,0.1-0.4c0-0.2,0.2-0.3,0.4-0.5
			s0.5-0.3,0.9-0.5c0.4-0.1,0.9-0.2,1.6-0.2c0.4,0,1,0.1,1.6,0.1c0.6,0.1,1.3,0.3,1.9,0.5c0.6,0.2,1.1,0.5,1.5,0.9
			c0.4,0.4,0.6,0.8,0.6,1.4c0,0.4-0.2,0.8-0.5,1.1c-0.3,0.4-0.8,0.7-1.3,1c-0.5,0.3-1.1,0.7-1.7,1s-1.2,0.7-1.7,1.1
			c-0.5,0.4-1,0.8-1.3,1.3c-0.3,0.5-0.5,1-0.5,1.5c0,0.1,0,0.3,0.1,0.5c0.1,0.2,0.3,0.3,0.7,0.3c0.2,0,0.5-0.1,0.8-0.2
			s0.6-0.3,0.9-0.6c0.3-0.2,0.5-0.5,0.7-0.8c0.2-0.3,0.3-0.6,0.3-0.9c0,0,0-0.1,0-0.1v-0.2c0-0.2,0-0.4,0.1-0.6
			c0.1-0.2,0.2-0.4,0.4-0.6c0.2-0.2,0.4-0.3,0.6-0.5c0.2-0.1,0.5-0.2,0.7-0.2c0.1,0,0.3,0,0.4,0.1c0.1,0.1,0.2,0.2,0.2,0.5
			c0.1,0.7,0.2,1.4,0.3,2c0.1,0.5,0.3,1.1,0.5,1.6s0.5,1,0.9,1.3c0.1,0.2,0.2,0.3,0.3,0.4c0.1,0.1,0.1,0.3,0.2,0.4
			C31.5,96,31.5,96.1,31.5,96.3z"/>
		<path class="st0" d="M42.8,88.4c0,0.2-0.1,0.4-0.2,0.5s-0.3,0.2-0.5,0.2c-0.2,0.1-0.4,0.1-0.7,0.1c-0.5,0-0.9-0.1-1.1-0.2
			s-0.5-0.3-0.6-0.5s-0.3-0.4-0.3-0.5c-0.1-0.2-0.2-0.2-0.3-0.2c-0.1,0-0.4,0.3-0.7,0.8c-0.3,0.5-0.7,1.2-1,2
			c-0.3,0.8-0.7,1.7-0.9,2.7c-0.3,1-0.4,2-0.4,2.9c0,0.4-0.1,0.7-0.4,0.9c-0.2,0.1-0.5,0.2-0.9,0.2c-0.4,0-0.7-0.2-0.9-0.5
			c-0.2-0.3-0.4-0.8-0.5-1.3c-0.1-0.5-0.2-1.1-0.2-1.8c0-0.6,0-1.3,0-1.9c0-1,0-2,0.1-3c0.1-1,0.1-1.8,0.2-2.5
			c0.1-0.6,0.2-1,0.3-1.4c0.1-0.4,0.3-0.7,0.5-0.9c0.2-0.2,0.4-0.3,0.7-0.4c0.2-0.1,0.5-0.1,0.9-0.1c0.1,0,0.2,0.1,0.3,0.2
			c0.1,0,0.1,0.1,0.2,0.3c0.1,0.1,0.1,0.3,0.1,0.5c0,0.1,0,0.3,0,0.3c-0.1,0.3-0.1,0.7-0.2,1.1c0,0.3-0.1,0.7-0.2,1.1
			c-0.1,0.4-0.1,0.8-0.1,1.3c0,0.1,0,0.1,0,0.2c0,0.1,0.1,0.1,0.1,0.1c0.1,0,0.1-0.1,0.1-0.2c0.2-0.4,0.3-0.8,0.5-1.2
			c0.2-0.4,0.4-0.8,0.6-1.3c0.2-0.5,0.5-0.9,0.8-1.4c0.1-0.2,0.2-0.4,0.3-0.6c0-0.2,0.2-0.4,0.4-0.8c0.2-0.2,0.4-0.4,0.6-0.5
			c0.2-0.1,0.4-0.2,0.6-0.4c0.2-0.1,0.5-0.2,0.7-0.2c0.2,0,0.4,0.1,0.6,0.2c0.2,0.1,0.3,0.3,0.3,0.6c0,0.3,0,0.6-0.1,1
			c-0.1,0.3-0.1,0.7-0.1,1.1c0,0.7,0.1,1.2,0.2,1.6c0.1,0.4,0.3,0.7,0.4,1c0.2,0.2,0.3,0.4,0.4,0.6C42.7,88.1,42.8,88.3,42.8,88.4z"
			/>
		<path class="st0" d="M54.4,96.3c0,0.3-0.1,0.5-0.2,0.7s-0.3,0.3-0.5,0.4c-0.2,0.1-0.5,0.1-0.7,0.1c-0.4,0-0.8-0.1-1.1-0.4
			c-0.3-0.3-0.6-0.6-0.8-0.9c-0.2-0.4-0.4-0.8-0.6-1.3c0-0.1-0.1-0.2-0.2-0.2c0,0-0.1,0-0.1,0.1L50,94.9c-0.4,0.4-0.8,0.8-1.2,1
			s-0.8,0.5-1.2,0.6c-0.4,0.1-0.7,0.2-1,0.3c-0.3,0-0.5,0.1-0.7,0.1c-0.7,0-1.3-0.1-1.7-0.4c-0.4-0.3-0.7-0.6-0.9-0.9
			c-0.2-0.3-0.3-0.7-0.4-1c-0.1-0.3-0.1-0.6-0.1-0.7c0-0.5,0.1-1,0.3-1.4s0.4-0.9,0.7-1.3c0.3-0.4,0.6-0.8,1-1.1
			c0.4-0.3,0.8-0.7,1.2-1c0.9-0.7,2-1.3,3.2-1.8c0.1,0,0.2-0.1,0.2-0.1c0.1-0.1,0.2-0.2,0.2-0.3c0-0.3-0.2-0.5-0.7-0.6
			c-0.4-0.1-0.9-0.1-1.5-0.1c-0.2,0-0.4,0-0.7,0c-0.2,0-0.4,0-0.5,0.1c-0.2,0-0.4,0-0.5,0c-0.3,0-0.5,0-0.7-0.1
			c-0.2-0.1-0.3-0.2-0.4-0.3c-0.1-0.1-0.1-0.3-0.2-0.4c0-0.1,0-0.2,0-0.3c0-0.1,0-0.2,0.1-0.4c0-0.2,0.2-0.3,0.4-0.5
			s0.5-0.3,0.9-0.5c0.4-0.1,0.9-0.2,1.6-0.2c0.4,0,1,0.1,1.6,0.1c0.6,0.1,1.3,0.3,1.9,0.5c0.6,0.2,1.1,0.5,1.5,0.9
			c0.4,0.4,0.6,0.8,0.6,1.4c0,0.4-0.2,0.8-0.5,1.1c-0.3,0.4-0.8,0.7-1.3,1c-0.5,0.3-1.1,0.7-1.7,1s-1.2,0.7-1.7,1.1
			c-0.5,0.4-1,0.8-1.3,1.3c-0.3,0.5-0.5,1-0.5,1.5c0,0.1,0,0.3,0.1,0.5c0.1,0.2,0.3,0.3,0.7,0.3c0.2,0,0.5-0.1,0.8-0.2
			s0.6-0.3,0.9-0.6c0.3-0.2,0.5-0.5,0.7-0.8c0.2-0.3,0.3-0.6,0.3-0.9c0,0,0-0.1,0-0.1v-0.2c0-0.2,0-0.4,0.1-0.6
			c0.1-0.2,0.2-0.4,0.4-0.6c0.2-0.2,0.4-0.3,0.6-0.5c0.2-0.1,0.5-0.2,0.7-0.2c0.1,0,0.3,0,0.4,0.1c0.1,0.1,0.2,0.2,0.2,0.5
			c0.1,0.7,0.2,1.4,0.3,2c0.1,0.5,0.3,1.1,0.5,1.6s0.5,1,0.9,1.3c0.1,0.2,0.2,0.3,0.3,0.4c0.1,0.1,0.1,0.3,0.2,0.4
			C54.3,96,54.4,96.1,54.4,96.3z"/>
		<path class="st0" d="M71.9,92.1c0,0.6-0.2,1.1-0.5,1.7c-0.3,0.5-0.7,1-1.3,1.5c-0.5,0.4-1.2,0.8-1.9,1.1c-0.7,0.3-1.5,0.4-2.3,0.4
			c-0.8,0-1.5-0.2-2-0.6c-0.5-0.4-0.9-0.9-1.1-1.4c-0.3-0.5-0.4-1.1-0.5-1.6c-0.1-0.5-0.1-1-0.1-1.2c0-1,0.2-2,0.5-3
			c0.3-1,0.8-2,1.5-2.8c0.6-0.9,1.4-1.6,2.2-2.1c0.9-0.5,1.8-0.8,2.9-0.8c0.6,0,1.1,0.1,1.5,0.4c0.3,0.3,0.6,0.6,0.7,0.9
			c0.2,0.4,0.3,0.8,0.3,1.3c0,0.1,0,0.4-0.1,0.8c0,0.4-0.2,0.8-0.4,1.2c-0.2,0.4-0.5,0.8-0.8,1.1c-0.4,0.3-0.9,0.5-1.5,0.5
			c-0.3,0-0.5-0.1-0.6-0.4c-0.1-0.1-0.1-0.3-0.1-0.4s0-0.3,0.1-0.5c0.1-0.1,0.2-0.3,0.3-0.4c0.1-0.1,0.2-0.3,0.3-0.5
			s0.1-0.4,0.1-0.6c0-0.1,0-0.3-0.1-0.5s-0.2-0.3-0.5-0.3c-0.2,0-0.5,0.1-0.9,0.3c-0.4,0.2-0.8,0.5-1.1,1s-0.7,1-1,1.8
			s-0.4,1.6-0.4,2.6c0,0.3,0,0.7,0.1,1c0,0.3,0.1,0.6,0.2,0.9c0.1,0.3,0.3,0.5,0.5,0.7c0.2,0.2,0.5,0.3,0.8,0.3c0.1,0,0.3,0,0.6-0.1
			c0.2,0,0.5-0.1,0.7-0.3c0.3-0.2,0.6-0.4,0.9-0.7c0.3-0.3,0.6-0.8,0.9-1.4c0.1-0.2,0.3-0.4,0.5-0.6c0.2-0.1,0.4-0.2,0.7-0.2
			s0.4,0.1,0.5,0.2c0.1,0.1,0.2,0.2,0.3,0.4C71.9,91.7,71.9,91.9,71.9,92.1z"/>
		<path class="st0" d="M85.1,96.3c0,0.3-0.1,0.5-0.2,0.7s-0.3,0.3-0.5,0.4c-0.2,0.1-0.5,0.1-0.7,0.1c-0.4,0-0.8-0.1-1.1-0.4
			c-0.3-0.3-0.6-0.6-0.8-0.9c-0.2-0.4-0.4-0.8-0.6-1.3c0-0.1-0.1-0.2-0.2-0.2c0,0-0.1,0-0.1,0.1l-0.1,0.1c-0.4,0.4-0.8,0.8-1.2,1
			s-0.8,0.5-1.2,0.6c-0.4,0.1-0.7,0.2-1,0.3c-0.3,0-0.5,0.1-0.7,0.1c-0.7,0-1.3-0.1-1.7-0.4c-0.4-0.3-0.7-0.6-0.9-0.9
			c-0.2-0.3-0.3-0.7-0.4-1c-0.1-0.3-0.1-0.6-0.1-0.7c0-0.5,0.1-1,0.3-1.4s0.4-0.9,0.7-1.3c0.3-0.4,0.6-0.8,1-1.1
			c0.4-0.3,0.8-0.7,1.2-1c0.9-0.7,2-1.3,3.2-1.8c0.1,0,0.2-0.1,0.2-0.1c0.1-0.1,0.2-0.2,0.2-0.3c0-0.3-0.2-0.5-0.7-0.6
			c-0.4-0.1-0.9-0.1-1.5-0.1c-0.2,0-0.4,0-0.7,0c-0.2,0-0.4,0-0.5,0.1c-0.2,0-0.4,0-0.5,0c-0.3,0-0.5,0-0.7-0.1
			c-0.2-0.1-0.3-0.2-0.4-0.3c-0.1-0.1-0.1-0.3-0.2-0.4c0-0.1,0-0.2,0-0.3c0-0.1,0-0.2,0.1-0.4c0-0.2,0.2-0.3,0.4-0.5
			s0.5-0.3,0.9-0.5c0.4-0.1,0.9-0.2,1.6-0.2c0.4,0,1,0.1,1.6,0.1c0.6,0.1,1.3,0.3,1.9,0.5c0.6,0.2,1.1,0.5,1.5,0.9
			c0.4,0.4,0.6,0.8,0.6,1.4c0,0.4-0.2,0.8-0.5,1.1c-0.3,0.4-0.8,0.7-1.3,1c-0.5,0.3-1.1,0.7-1.7,1s-1.2,0.7-1.7,1.1
			c-0.5,0.4-1,0.8-1.3,1.3c-0.3,0.5-0.5,1-0.5,1.5c0,0.1,0,0.3,0.1,0.5c0.1,0.2,0.3,0.3,0.7,0.3c0.2,0,0.5-0.1,0.8-0.2
			s0.6-0.3,0.9-0.6c0.3-0.2,0.5-0.5,0.7-0.8c0.2-0.3,0.3-0.6,0.3-0.9c0,0,0-0.1,0-0.1v-0.2c0-0.2,0-0.4,0.1-0.6
			c0.1-0.2,0.2-0.4,0.4-0.6c0.2-0.2,0.4-0.3,0.6-0.5c0.2-0.1,0.5-0.2,0.7-0.2c0.1,0,0.3,0,0.4,0.1c0.1,0.1,0.2,0.2,0.2,0.5
			c0.1,0.7,0.2,1.4,0.3,2c0.1,0.5,0.3,1.1,0.5,1.6s0.5,1,0.9,1.3c0.1,0.2,0.2,0.3,0.3,0.4c0.1,0.1,0.1,0.3,0.2,0.4
			C85,96,85.1,96.1,85.1,96.3z"/>
		<path class="st0" d="M98.9,85.6c0,0.5-0.1,0.8-0.3,0.9c-0.2,0.1-0.4,0.2-0.7,0.2c-0.2,0-0.3,0-0.4,0c-0.1,0-0.1,0-0.2-0.1
			c0,0.3,0,0.6,0,1s0,0.7,0,1c0,0.6,0,1.3,0.1,1.9c0,0.6,0.1,1.2,0.2,1.7c0.1,0.5,0.2,0.9,0.3,1.3c0.1,0.3,0.3,0.6,0.5,0.7
			c0.1,0.1,0.2,0.2,0.3,0.4s0.1,0.2,0.1,0.3c0,0.3-0.1,0.5-0.2,0.7c-0.1,0.2-0.3,0.3-0.5,0.4c-0.2,0.1-0.4,0.2-0.7,0.2
			c-0.6,0-1.1-0.2-1.4-0.5c-0.3-0.3-0.6-0.7-0.7-1.1c-0.2-0.5-0.3-1-0.3-1.6c0-0.1,0-0.2-0.1-0.2c0,0-0.1,0-0.1,0.1l-0.1,0.1
			c-0.7,0.9-1.4,1.6-2,2.1c-0.7,0.5-1.3,0.8-1.9,1.1c-0.6,0.2-1,0.4-1.4,0.4c-0.4,0-0.6,0.1-0.7,0.1c-0.5,0-0.9-0.1-1.2-0.3
			c-0.3-0.2-0.5-0.5-0.7-0.8c-0.2-0.3-0.3-0.7-0.3-1c0-0.4-0.1-0.7-0.1-1c0-1.3,0.3-2.5,0.8-3.6c0.5-1.1,1.2-2,2-2.8
			c0.8-0.8,1.7-1.4,2.7-1.9c1-0.5,2.1-0.8,3.1-1c0,0,0,0,0.1,0c0,0,0,0,0.1-0.1c0,0,0,0,0-0.1c0-0.4,0-0.9,0.1-1.4
			c0-0.5,0-1.1,0.1-1.7c0-1.3,0.1-2.5,0.3-3.6c0-0.5,0.1-0.9,0.2-1.4c0.1-0.5,0.2-0.9,0.3-1.3c0.1-0.4,0.2-0.8,0.3-1.1
			c0.1-0.3,0.3-0.5,0.4-0.7c0.1-0.2,0.3-0.3,0.4-0.4c0.1-0.1,0.3-0.2,0.5-0.3c0.2-0.1,0.4-0.1,0.6-0.1s0.4,0.1,0.6,0.1
			c0.2,0.1,0.3,0.4,0.3,0.9c0,0.2,0,0.6-0.1,1c-0.2,0.9-0.4,1.9-0.5,2.8c-0.1,1-0.2,1.8-0.3,2.6c-0.1,0.9-0.2,1.9-0.3,2.7
			c0,0.2,0,0.4,0,0.6c0,0.2,0,0.4-0.1,0.6c0,0.2,0,0.5-0.1,0.8c0,0.1,0,0.1,0,0.1c0,0,0,0,0.1,0c0.3,0.1,0.6,0.3,0.9,0.5
			S98.9,85.2,98.9,85.6z M94.6,86.9c0-0.1-0.1-0.1-0.2-0.1c-0.6,0.1-1.3,0.3-1.9,0.7c-0.6,0.4-1.2,0.8-1.7,1.3
			c-0.5,0.5-0.9,1.1-1.2,1.8s-0.5,1.3-0.5,2c0,0.3,0,0.5,0.1,0.7s0.3,0.3,0.6,0.3c0.4,0,0.9-0.2,1.4-0.5c0.5-0.4,1.1-0.9,1.6-1.5
			c0.5-0.6,0.9-1.3,1.2-2.1C94.5,88.6,94.6,87.8,94.6,86.9z"/>
		<path class="st0" d="M111.5,96.3c0,0.3-0.1,0.5-0.2,0.7s-0.3,0.3-0.5,0.4c-0.2,0.1-0.5,0.1-0.7,0.1c-0.4,0-0.8-0.1-1.1-0.4
			c-0.3-0.3-0.6-0.6-0.8-0.9c-0.2-0.4-0.4-0.8-0.6-1.3c0-0.1-0.1-0.2-0.2-0.2c0,0-0.1,0-0.1,0.1l-0.1,0.1c-0.4,0.4-0.8,0.8-1.2,1
			s-0.8,0.5-1.2,0.6c-0.4,0.1-0.7,0.2-1,0.3c-0.3,0-0.5,0.1-0.7,0.1c-0.7,0-1.3-0.1-1.7-0.4c-0.4-0.3-0.7-0.6-0.9-0.9
			c-0.2-0.3-0.3-0.7-0.4-1c-0.1-0.3-0.1-0.6-0.1-0.7c0-0.5,0.1-1,0.3-1.4s0.4-0.9,0.7-1.3c0.3-0.4,0.6-0.8,1-1.1
			c0.4-0.3,0.8-0.7,1.2-1c0.9-0.7,2-1.3,3.2-1.8c0.1,0,0.2-0.1,0.2-0.1c0.1-0.1,0.2-0.2,0.2-0.3c0-0.3-0.2-0.5-0.7-0.6
			c-0.4-0.1-0.9-0.1-1.5-0.1c-0.2,0-0.4,0-0.7,0c-0.2,0-0.4,0-0.5,0.1c-0.2,0-0.4,0-0.5,0c-0.3,0-0.5,0-0.7-0.1
			c-0.2-0.1-0.3-0.2-0.4-0.3c-0.1-0.1-0.1-0.3-0.2-0.4c0-0.1,0-0.2,0-0.3c0-0.1,0-0.2,0.1-0.4c0-0.2,0.2-0.3,0.4-0.5
			s0.5-0.3,0.9-0.5c0.4-0.1,0.9-0.2,1.6-0.2c0.4,0,1,0.1,1.6,0.1c0.6,0.1,1.3,0.3,1.9,0.5c0.6,0.2,1.1,0.5,1.5,0.9
			c0.4,0.4,0.6,0.8,0.6,1.4c0,0.4-0.2,0.8-0.5,1.1c-0.3,0.4-0.8,0.7-1.3,1c-0.5,0.3-1.1,0.7-1.7,1s-1.2,0.7-1.7,1.1
			c-0.5,0.4-1,0.8-1.3,1.3c-0.3,0.5-0.5,1-0.5,1.5c0,0.1,0,0.3,0.1,0.5c0.1,0.2,0.3,0.3,0.7,0.3c0.2,0,0.5-0.1,0.8-0.2
			s0.6-0.3,0.9-0.6c0.3-0.2,0.5-0.5,0.7-0.8c0.2-0.3,0.3-0.6,0.3-0.9c0,0,0-0.1,0-0.1v-0.2c0-0.2,0-0.4,0.1-0.6
			c0.1-0.2,0.2-0.4,0.4-0.6c0.2-0.2,0.4-0.3,0.6-0.5c0.2-0.1,0.5-0.2,0.7-0.2c0.1,0,0.3,0,0.4,0.1c0.1,0.1,0.2,0.2,0.2,0.5
			c0.1,0.7,0.2,1.4,0.3,2c0.1,0.5,0.3,1.1,0.5,1.6s0.5,1,0.9,1.3c0.1,0.2,0.2,0.3,0.3,0.4c0.1,0.1,0.1,0.3,0.2,0.4
			C111.5,96,111.5,96.1,111.5,96.3z"/>
		<path class="st0" d="M129.7,88.3c0,1.2-0.2,2.3-0.5,3.2c-0.3,0.9-0.8,1.7-1.4,2.3c-0.6,0.6-1.2,1.1-1.9,1.4
			c-0.7,0.3-1.4,0.5-2.1,0.5c-1,0-1.7-0.2-2.2-0.7s-0.9-1-1.2-1.6c-0.3-0.7-0.4-1.4-0.5-2.3c0-0.6,0.1-1.1,0.2-1.6s0.3-1,0.4-1.4
			c0.2-0.5,0.4-0.9,0.7-1.3c0,0,0-0.1-0.1-0.1c0,0-0.1,0-0.1,0c-0.4,0-0.7-0.1-0.9-0.2c-0.2-0.2-0.3-0.4-0.3-0.6
			c0-0.3,0.1-0.6,0.4-1c0.3-0.3,0.6-0.6,1-0.8c0.4-0.2,0.9-0.4,1.5-0.6c0.5-0.1,1.1-0.2,1.6-0.2c0.4,0,1,0.1,1.6,0.2
			s1.2,0.4,1.8,0.8c0.6,0.4,1.1,0.9,1.5,1.6C129.5,86.2,129.7,87.1,129.7,88.3z M126.6,89c0-0.6-0.1-1.2-0.3-1.6
			c-0.1-0.4-0.3-0.8-0.6-1.1c-0.3-0.3-0.6-0.5-1.1-0.5c-0.1,0-0.3,0.1-0.5,0.3c-0.2,0.2-0.4,0.4-0.6,0.8c-0.2,0.3-0.3,0.8-0.5,1.3
			c-0.1,0.5-0.2,1.1-0.2,1.8c0,0.2,0,0.5,0,0.8s0.1,0.7,0.2,1c0.1,0.3,0.3,0.6,0.5,0.9c0.2,0.2,0.6,0.4,1,0.4c0.5,0,0.9-0.2,1.2-0.6
			c0.3-0.4,0.5-0.9,0.6-1.4C126.5,90.5,126.6,89.8,126.6,89z"/>
		<path class="st0" d="M140.8,92.1c0,0.6-0.2,1.1-0.5,1.7c-0.3,0.5-0.7,1-1.3,1.5c-0.5,0.4-1.2,0.8-1.9,1.1
			c-0.7,0.3-1.5,0.4-2.3,0.4c-0.8,0-1.5-0.2-2-0.6c-0.5-0.4-0.9-0.9-1.1-1.4c-0.3-0.5-0.4-1.1-0.5-1.6c-0.1-0.5-0.1-1-0.1-1.2
			c0-1,0.2-2,0.5-3c0.3-1,0.8-2,1.5-2.8c0.6-0.9,1.4-1.6,2.2-2.1c0.9-0.5,1.8-0.8,2.9-0.8c0.6,0,1.1,0.1,1.5,0.4
			c0.3,0.3,0.6,0.6,0.7,0.9c0.2,0.4,0.3,0.8,0.3,1.3c0,0.1,0,0.4-0.1,0.8c0,0.4-0.2,0.8-0.4,1.2c-0.2,0.4-0.5,0.8-0.8,1.1
			c-0.4,0.3-0.9,0.5-1.5,0.5c-0.3,0-0.5-0.1-0.6-0.4c-0.1-0.1-0.1-0.3-0.1-0.4s0-0.3,0.1-0.5c0.1-0.1,0.2-0.3,0.3-0.4
			c0.1-0.1,0.2-0.3,0.3-0.5s0.1-0.4,0.1-0.6c0-0.1,0-0.3-0.1-0.5s-0.2-0.3-0.5-0.3c-0.2,0-0.5,0.1-0.9,0.3c-0.4,0.2-0.8,0.5-1.1,1
			s-0.7,1-1,1.8s-0.4,1.6-0.4,2.6c0,0.3,0,0.7,0.1,1c0,0.3,0.1,0.6,0.2,0.9c0.1,0.3,0.3,0.5,0.5,0.7c0.2,0.2,0.5,0.3,0.8,0.3
			c0.1,0,0.3,0,0.6-0.1c0.2,0,0.5-0.1,0.7-0.3c0.3-0.2,0.6-0.4,0.9-0.7c0.3-0.3,0.6-0.8,0.9-1.4c0.1-0.2,0.3-0.4,0.5-0.6
			c0.2-0.1,0.4-0.2,0.7-0.2s0.4,0.1,0.5,0.2c0.1,0.1,0.2,0.2,0.3,0.4C140.7,91.7,140.8,91.9,140.8,92.1z"/>
		<path class="st0" d="M153.9,96.3c0,0.3-0.1,0.5-0.2,0.7s-0.3,0.3-0.5,0.4c-0.2,0.1-0.5,0.1-0.7,0.1c-0.4,0-0.8-0.1-1.1-0.4
			c-0.3-0.3-0.6-0.6-0.8-0.9c-0.2-0.4-0.4-0.8-0.6-1.3c0-0.1-0.1-0.2-0.2-0.2c0,0-0.1,0-0.1,0.1l-0.1,0.1c-0.4,0.4-0.8,0.8-1.2,1
			s-0.8,0.5-1.2,0.6c-0.4,0.1-0.7,0.2-1,0.3c-0.3,0-0.5,0.1-0.7,0.1c-0.7,0-1.3-0.1-1.7-0.4c-0.4-0.3-0.7-0.6-0.9-0.9
			c-0.2-0.3-0.3-0.7-0.4-1c-0.1-0.3-0.1-0.6-0.1-0.7c0-0.5,0.1-1,0.3-1.4s0.4-0.9,0.7-1.3c0.3-0.4,0.6-0.8,1-1.1
			c0.4-0.3,0.8-0.7,1.2-1c0.9-0.7,2-1.3,3.2-1.8c0.1,0,0.2-0.1,0.2-0.1c0.1-0.1,0.2-0.2,0.2-0.3c0-0.3-0.2-0.5-0.7-0.6
			c-0.4-0.1-0.9-0.1-1.5-0.1c-0.2,0-0.4,0-0.7,0c-0.2,0-0.4,0-0.5,0.1c-0.2,0-0.4,0-0.5,0c-0.3,0-0.5,0-0.7-0.1
			c-0.2-0.1-0.3-0.2-0.4-0.3c-0.1-0.1-0.1-0.3-0.2-0.4c0-0.1,0-0.2,0-0.3c0-0.1,0-0.2,0.1-0.4c0-0.2,0.2-0.3,0.4-0.5
			s0.5-0.3,0.9-0.5c0.4-0.1,0.9-0.2,1.6-0.2c0.4,0,1,0.1,1.6,0.1c0.6,0.1,1.3,0.3,1.9,0.5c0.6,0.2,1.1,0.5,1.5,0.9
			c0.4,0.4,0.6,0.8,0.6,1.4c0,0.4-0.2,0.8-0.5,1.1c-0.3,0.4-0.8,0.7-1.3,1c-0.5,0.3-1.1,0.7-1.7,1s-1.2,0.7-1.7,1.1
			c-0.5,0.4-1,0.8-1.3,1.3c-0.3,0.5-0.5,1-0.5,1.5c0,0.1,0,0.3,0.1,0.5c0.1,0.2,0.3,0.3,0.7,0.3c0.2,0,0.5-0.1,0.8-0.2
			s0.6-0.3,0.9-0.6c0.3-0.2,0.5-0.5,0.7-0.8c0.2-0.3,0.3-0.6,0.3-0.9c0,0,0-0.1,0-0.1v-0.2c0-0.2,0-0.4,0.1-0.6
			c0.1-0.2,0.2-0.4,0.4-0.6c0.2-0.2,0.4-0.3,0.6-0.5c0.2-0.1,0.5-0.2,0.7-0.2c0.1,0,0.3,0,0.4,0.1c0.1,0.1,0.2,0.2,0.2,0.5
			c0.1,0.7,0.2,1.4,0.3,2c0.1,0.5,0.3,1.1,0.5,1.6s0.5,1,0.9,1.3c0.1,0.2,0.2,0.3,0.3,0.4c0.1,0.1,0.1,0.3,0.2,0.4
			C153.9,96,153.9,96.1,153.9,96.3z"/>
		<path class="st0" d="M164.6,92.1c0,0.8-0.2,1.4-0.7,2c-0.5,0.6-1,1-1.7,1.4c-0.7,0.4-1.4,0.6-2.1,0.8c-0.7,0.2-1.3,0.3-1.8,0.3
			c-1.1,0-1.9-0.2-2.4-0.7c-0.5-0.4-0.7-0.9-0.7-1.4c0-0.4,0.1-0.7,0.4-0.9c0.3-0.2,0.6-0.3,0.8-0.3c0.2,0,0.6,0.1,1,0.3
			c0.4,0.2,0.9,0.3,1.5,0.3c0.8,0,1.4-0.1,1.7-0.4c0.4-0.2,0.6-0.5,0.6-0.8c0-0.3-0.1-0.5-0.4-0.7c-0.3-0.2-0.6-0.3-1.1-0.5
			c-0.4-0.1-0.9-0.3-1.4-0.4c-0.5-0.1-1-0.3-1.4-0.5c-0.4-0.2-0.8-0.5-1.1-0.8c-0.3-0.3-0.4-0.7-0.4-1.2c0-0.6,0.2-1.2,0.6-1.9
			c0.4-0.7,0.9-1.3,1.5-1.9s1.3-1,2.1-1.4s1.6-0.6,2.4-0.6c0.7,0,1.3,0.2,1.7,0.6c0.4,0.4,0.6,1.1,0.6,1.9c0,0.4-0.1,0.8-0.3,1.1
			c-0.2,0.3-0.6,0.5-1.1,0.5c-0.3,0-0.5-0.1-0.6-0.2c-0.1-0.2-0.2-0.3-0.3-0.5c-0.1-0.2-0.2-0.4-0.3-0.5c-0.1-0.2-0.4-0.2-0.7-0.2
			c-0.1,0-0.4,0.1-0.6,0.2c-0.3,0.1-0.6,0.3-0.8,0.5c-0.3,0.2-0.5,0.4-0.7,0.7c-0.2,0.3-0.3,0.6-0.3,0.9c0,0.3,0.1,0.5,0.4,0.7
			c0.3,0.2,0.7,0.4,1.1,0.6s0.9,0.3,1.5,0.5c0.5,0.2,1,0.3,1.5,0.6c0.4,0.2,0.8,0.5,1.1,0.8C164.4,91.3,164.6,91.7,164.6,92.1z"/>
		<path class="st0" d="M169.8,85c0,0.1-0.1,0.4-0.1,0.8c-0.1,0.4-0.1,0.8-0.2,1.4c-0.1,0.5-0.1,1.1-0.2,1.8
			c-0.1,0.7-0.1,1.4-0.1,2.1c0,0.5,0,1.1,0.1,1.6c0,0.5,0.1,0.9,0.1,1.3c0.1,0.4,0.1,0.8,0.2,1.2c-0.1,0.3-0.2,0.6-0.5,0.7
			c-0.3,0.1-0.5,0.2-0.7,0.2c-0.2,0-0.4,0-0.6-0.1c-0.1-0.1-0.2-0.1-0.2-0.1c-0.4-0.5-0.7-1.2-0.9-2.1c-0.2-0.9-0.2-1.9-0.2-2.9
			c0-0.8,0-1.5,0.1-2.3s0.1-1.4,0.2-2c0.1-0.7,0.2-1.4,0.3-2c0-0.1,0-0.2,0.1-0.3c0.1-0.1,0.2-0.1,0.4-0.2c0.2-0.1,0.4-0.1,0.7-0.1
			c0.1,0,0.3,0,0.5,0.1s0.4,0.1,0.5,0.2c0.2,0.1,0.3,0.2,0.4,0.4C169.8,84.5,169.8,84.7,169.8,85z M171,78.1c0,0.2,0,0.4-0.1,0.7
			c-0.1,0.3-0.2,0.6-0.4,0.9c-0.2,0.3-0.5,0.6-0.8,0.8c-0.3,0.2-0.8,0.3-1.3,0.3c-0.5,0-0.8-0.1-1-0.4s-0.2-0.6-0.2-0.9
			c0-0.3,0.1-0.6,0.2-0.9c0.1-0.3,0.3-0.6,0.6-0.8s0.5-0.5,0.9-0.6c0.3-0.2,0.7-0.2,1.1-0.2c0.2,0,0.4,0.1,0.7,0.2
			C170.8,77.2,171,77.5,171,78.1z"/>
		<path class="st0" d="M182.3,88.3c0,1.2-0.2,2.3-0.5,3.2c-0.3,0.9-0.8,1.7-1.4,2.3c-0.6,0.6-1.2,1.1-1.9,1.4
			c-0.7,0.3-1.4,0.5-2.1,0.5c-1,0-1.7-0.2-2.2-0.7s-0.9-1-1.2-1.6c-0.3-0.7-0.4-1.4-0.5-2.3c0-0.6,0.1-1.1,0.2-1.6s0.3-1,0.4-1.4
			c0.2-0.5,0.4-0.9,0.7-1.3c0,0,0-0.1-0.1-0.1c0,0-0.1,0-0.1,0c-0.4,0-0.7-0.1-0.9-0.2c-0.2-0.2-0.3-0.4-0.3-0.6
			c0-0.3,0.1-0.6,0.4-1c0.3-0.3,0.6-0.6,1-0.8c0.4-0.2,0.9-0.4,1.5-0.6c0.5-0.1,1.1-0.2,1.6-0.2c0.4,0,1,0.1,1.6,0.2
			s1.2,0.4,1.8,0.8c0.6,0.4,1.1,0.9,1.5,1.6C182.1,86.2,182.3,87.1,182.3,88.3z M179.2,89c0-0.6-0.1-1.2-0.3-1.6
			c-0.1-0.4-0.3-0.8-0.6-1.1c-0.3-0.3-0.6-0.5-1.1-0.5c-0.1,0-0.3,0.1-0.5,0.3c-0.2,0.2-0.4,0.4-0.6,0.8c-0.2,0.3-0.3,0.8-0.5,1.3
			c-0.1,0.5-0.2,1.1-0.2,1.8c0,0.2,0,0.5,0,0.8s0.1,0.7,0.2,1c0.1,0.3,0.3,0.6,0.5,0.9c0.2,0.2,0.6,0.4,1,0.4c0.5,0,0.9-0.2,1.2-0.6
			c0.3-0.4,0.5-0.9,0.6-1.4C179.1,90.5,179.2,89.8,179.2,89z M181.1,77.7c0,0.1,0,0.2-0.1,0.3c-0.1,0.1-0.1,0.2-0.2,0.2
			c-0.1,0.1-0.1,0.1-0.2,0.2c-0.5,0.2-1,0.5-1.4,0.8c-0.4,0.3-0.8,0.6-1.2,0.9s-0.7,0.6-1,0.8c-0.3,0.2-0.7,0.3-1,0.4
			c-0.2,0-0.4,0-0.4-0.2c0-0.1-0.1-0.1,0-0.2c0-0.4,0.1-0.9,0.4-1.5c0.3-0.5,0.6-1.1,1-1.5c0.4-0.5,0.8-0.9,1.1-1.2
			c0.4-0.3,0.7-0.5,0.9-0.5c0.1,0,0.3,0,0.6,0.1c0.2,0,0.5,0.1,0.7,0.2c0.2,0.1,0.4,0.3,0.6,0.4C181,77.2,181.1,77.4,181.1,77.7z"/>
		<path class="st0" d="M196.2,94.4c0,0.4-0.1,0.7-0.3,0.9c-0.2,0.2-0.4,0.4-0.6,0.5c-0.3,0.1-0.6,0.2-0.9,0.2
			c-0.6,0-1.1-0.2-1.5-0.7s-0.6-1-0.8-1.6c-0.2-0.6-0.3-1.3-0.3-2c0-0.7-0.1-1.3-0.1-1.8v-0.7c0-0.2-0.1-0.4-0.3-0.4
			c-0.3,0-0.6,0.2-1,0.6c-0.3,0.4-0.6,0.8-0.9,1.4c-0.3,0.6-0.6,1.2-0.9,1.8c-0.3,0.6-0.6,1.3-0.8,1.8c-0.3,0.6-0.5,1.1-0.7,1.5
			c-0.2,0.4-0.4,0.6-0.6,0.7c-0.1,0-0.2,0-0.3,0.1c-0.1,0-0.2,0-0.3,0c-0.4,0-0.7-0.1-0.9-0.4s-0.4-0.7-0.5-1.2s-0.2-1-0.2-1.7
			c0-0.6-0.1-1.3-0.1-1.9c0-0.5,0-1.2,0.1-1.9c0.1-0.7,0.1-1.5,0.2-2.2s0.2-1.4,0.4-2c0.1-0.6,0.3-1.1,0.5-1.4
			c0.1-0.2,0.3-0.4,0.4-0.6c0.1-0.1,0.3-0.3,0.6-0.4c0.2-0.1,0.5-0.2,0.9-0.2c0,0,0.1,0,0.3,0c0.1,0,0.2,0.1,0.4,0.1
			s0.2,0.2,0.3,0.3c0.1,0.1,0.1,0.3,0.1,0.5c0,0.3-0.1,0.7-0.3,1.1c-0.2,0.5-0.4,1.1-0.5,1.6c-0.1,0.5-0.2,1-0.3,1.6
			c-0.1,0.6-0.1,1.1-0.1,1.6c0,0.3,0,0.5,0.1,0.5c0,0,0.1,0,0.1-0.1c0.1-0.1,0.3-0.5,0.7-1.1c0.3-0.6,0.8-1.2,1.3-1.8
			s1.1-1.2,1.7-1.7c0.6-0.5,1.2-0.7,1.9-0.7c0.7,0,1.2,0.2,1.3,0.7c0.2,0.5,0.3,1.3,0.3,2.4c0,0.2,0,0.5,0,0.8c0,0.3,0,0.6,0,0.9
			c0,0.2,0,0.6,0,1s0.1,0.8,0.1,1.3s0.2,0.8,0.4,1.2c0.2,0.4,0.4,0.6,0.7,0.8L196,94C196.2,94.1,196.2,94.3,196.2,94.4z"/>
	</g>
	<g>
		<path class="st0" d="M66.8,49.6c0,0.5-0.1,1.2-0.4,2c-0.3,0.8-0.7,1.7-1.4,2.7c-0.6,1-1.5,1.9-2.5,2.9c-1,1-2.3,1.8-3.9,2.6
			c-1.5,0.8-3.3,1.4-5.4,1.9c-2.1,0.5-4.4,0.7-7.1,0.7c-0.5,0-0.9-0.3-1.2-0.8c-0.3-0.6-0.5-1.2-0.6-2.1c-0.1-0.8-0.2-1.7-0.2-2.5
			c0-0.9,0-1.6,0-2.3c0-2.1,0.1-4,0.4-5.9c0.3-1.9,0.5-3.5,0.8-5c0.4-1.7,0.8-3.2,1.2-4.6c0.5-1.3,1.1-2.1,1.8-2.4
			c0.7-0.3,1.2-0.5,1.7-0.5c0.7,0,1.2,0.2,1.3,0.5c0.1,0.3,0.2,0.5,0.2,0.7c-0.8,3.3-1.4,6.3-1.6,8.8c-0.3,2.6-0.4,4.7-0.4,6.3
			c0,0.5,0,1,0,1.4c0,0.4,0,0.7,0.1,1c0,0.3,0.1,0.6,0.1,0.9c0,0.5,0.2,0.8,0.4,1c0.1,0.1,0.2,0.1,0.3,0.1c1.2,0,2.5-0.2,3.7-0.6
			c1.2-0.4,2.4-0.9,3.4-1.6c1-0.6,1.8-1.4,2.5-2.2c0.6-0.8,1-1.6,1-2.4c0-1.1-0.4-1.9-1.2-2.5c-0.8-0.6-1.7-1.1-2.8-1.4
			c-1-0.3-2-0.5-2.8-0.6c-0.9-0.1-1.4-0.1-1.4-0.2c-0.3-0.3-0.4-0.7-0.4-1.2c0-0.8,0.2-1.4,0.5-1.8c0.3-0.4,0.7-0.7,1.1-0.9
			c1.4-0.6,2.4-1.2,3.2-1.7s1.3-1,1.6-1.4c0.4-0.5,0.6-0.9,0.6-1.4c0-0.8-0.3-1.5-0.9-2.1c-0.6-0.5-1.4-1-2.3-1.3
			c-0.9-0.3-1.9-0.5-2.9-0.7c-1-0.1-2-0.2-2.9-0.2c-1.4,0-2.6,0.1-3.6,0.2c-1,0.2-1.8,0.4-2.5,0.6c-0.7,0.2-1.3,0.4-1.7,0.6
			s-0.8,0.2-1.2,0.2c-0.5,0-0.8-0.1-0.9-0.4c-0.1-0.3-0.2-0.6-0.2-0.9c0-0.5,0.2-1,0.5-1.6c0.3-0.6,0.8-1.1,1.6-1.6
			c0.7-0.5,1.7-0.9,2.8-1.2c1.2-0.3,2.5-0.5,4.2-0.5c1.3,0,2.8,0.1,4.6,0.4c1.8,0.3,3.5,0.8,5.2,1.4c1.7,0.6,3.1,1.5,4.2,2.6
			c1.2,1.1,1.8,2.4,1.8,3.9c0,0.5-0.1,1-0.4,1.6c-0.2,0.6-0.6,1.1-1,1.7c-0.4,0.6-0.9,1.1-1.5,1.6c-0.6,0.5-1.3,0.9-2,1.2
			c-0.1,0-0.1,0.1-0.2,0.1c-0.1,0.1-0.1,0.2-0.1,0.3c0,0.1,0.1,0.2,0.2,0.2c1.4,0.5,2.6,1,3.5,1.6c0.9,0.6,1.6,1.2,2.1,1.8
			c0.5,0.6,0.8,1.2,1,1.7C66.7,48.7,66.8,49.1,66.8,49.6z"/>
		<path class="st0" d="M73.8,44.8c0,0.2-0.1,0.5-0.2,1.1c-0.1,0.6-0.2,1.2-0.3,2c-0.1,0.8-0.2,1.6-0.3,2.6c-0.1,1-0.1,2-0.1,3
			c0,0.8,0,1.5,0.1,2.2s0.1,1.3,0.2,1.8c0.1,0.6,0.2,1.2,0.3,1.7c-0.1,0.5-0.3,0.8-0.7,1s-0.8,0.2-1.1,0.2c-0.3,0-0.6-0.1-0.9-0.2
			c-0.1-0.1-0.3-0.1-0.3-0.2c-0.6-0.7-1-1.7-1.3-3c-0.2-1.3-0.4-2.7-0.4-4.2c0-1.1,0-2.2,0.1-3.3c0.1-1.1,0.2-2.1,0.3-2.9
			c0.1-1,0.3-2,0.4-2.9c0-0.1,0.1-0.3,0.2-0.4c0.1-0.1,0.3-0.2,0.5-0.3c0.3-0.1,0.6-0.1,1-0.1c0.2,0,0.4,0,0.7,0.1
			c0.3,0.1,0.5,0.1,0.8,0.3c0.2,0.1,0.4,0.3,0.6,0.5C73.7,44.1,73.8,44.4,73.8,44.8z M75.5,34.8c0,0.3-0.1,0.6-0.2,1
			c-0.1,0.4-0.3,0.9-0.6,1.3c-0.3,0.4-0.7,0.8-1.2,1.1s-1.1,0.5-1.8,0.5c-0.7,0-1.1-0.2-1.4-0.6c-0.2-0.4-0.4-0.8-0.4-1.3
			c0-0.4,0.1-0.8,0.3-1.2c0.2-0.4,0.5-0.8,0.8-1.2c0.4-0.4,0.8-0.7,1.3-0.9c0.5-0.2,1-0.4,1.5-0.4c0.3,0,0.6,0.1,1,0.3
			C75.3,33.5,75.5,34,75.5,34.8z"/>
		<path class="st0" d="M94.9,33.1c0,0.7-0.1,1.4-0.4,2.1c-0.2,0.7-0.5,1.3-0.9,1.8c-0.4,0.5-0.8,0.9-1.2,1.2
			c-0.4,0.3-0.8,0.5-1.2,0.5c-0.3,0-0.5-0.1-0.6-0.2c-0.1-0.1-0.2-0.3-0.2-0.4c0-0.3,0.1-0.6,0.2-1c0.1-0.4,0.2-1,0.2-1.7
			c0-1-0.1-1.6-0.4-1.9c-0.3-0.2-0.5-0.4-0.6-0.4c-0.9,0-1.8,0.8-2.7,2.4c-0.9,1.6-1.7,4.1-2.4,7.6v0.1c0,0,0.1,0.1,0.2,0.1
			c0.5-0.1,1.1-0.1,1.6-0.2C87,43,87.7,43,88.6,43c0.3,0,0.5,0.1,0.8,0.2c0.2,0.1,0.4,0.2,0.5,0.4s0.2,0.5,0.2,0.9
			c0,0.7-0.2,1.3-0.6,1.7c-0.4,0.4-0.8,0.6-1.3,0.6c-0.8,0-1.6,0-2.2,0.1c-0.7,0.1-1.3,0.2-1.9,0.3c-0.1,0-0.1,0.1-0.1,0.1
			c0,0,0,0.1-0.1,0.1c0,0-0.1,0.1-0.1,0.1c-0.2,1.2-0.3,2.5-0.4,3.8c-0.1,1.3-0.1,2.7-0.1,4.2c0,1.3,0,2.3,0.1,3
			c0.1,0.7,0.1,1.3,0.2,1.8c0.1,0.5,0.1,0.9,0.2,1.4c0.1,0.4,0.1,1,0.1,1.6c0,0.4-0.1,0.7-0.2,0.9c-0.2,0.2-0.4,0.4-0.6,0.5
			c-0.2,0.1-0.5,0.2-0.7,0.3c-0.3,0.1-0.5,0.1-0.6,0.1c-0.6,0-1.1-0.2-1.4-0.6s-0.6-0.9-0.7-1.6c-0.2-0.6-0.3-1.4-0.3-2.2
			c0-0.8-0.1-1.7-0.1-2.5c0-0.5,0-1.1,0-1.6c0-0.5,0-1,0.1-1.4c0-0.4,0.1-0.8,0.1-1.2c0-1.9,0.1-3.6,0.3-5.2v-0.1
			c0-0.1-0.1-0.1-0.2-0.1c0,0-0.1,0-0.3,0.1c-0.2,0.1-0.4,0.2-0.6,0.3c-0.2,0.1-0.4,0.2-0.7,0.3c-0.2,0.1-0.4,0.1-0.6,0.1
			c-0.4,0-0.7-0.2-0.8-0.6c-0.1-0.2-0.1-0.4-0.1-0.6c0-0.4,0.1-0.8,0.2-1.1s0.3-0.6,0.5-0.8c0.2-0.3,0.5-0.5,0.8-0.6
			c0.2-0.1,0.4-0.2,0.6-0.3c0.2-0.1,0.4-0.2,0.7-0.3s0.6-0.2,0.9-0.4c0.1,0,0.1,0,0.1-0.1c0,0,0-0.1,0.1-0.1c0,0,0-0.1,0.1-0.1
			c0.4-2.7,1.1-5.1,1.9-7.1c0.9-2,1.8-3.6,2.9-4.9c1-1.3,2.1-2.2,3.2-2.8c1.1-0.6,2.1-0.9,3-0.9c0.4,0,0.8,0.1,1.2,0.2
			c0.5,0.1,0.9,0.4,1.2,0.7c0.4,0.3,0.7,0.8,0.9,1.4C94.8,31.4,94.9,32.2,94.9,33.1z"/>
		<path class="st0" d="M105.8,49.7c0,0.3-0.1,0.5-0.3,0.7s-0.4,0.3-0.7,0.4c-0.3,0.1-0.6,0.2-1,0.2c-0.7,0-1.3-0.1-1.6-0.4
			c-0.4-0.2-0.7-0.5-0.9-0.8c-0.2-0.3-0.4-0.5-0.5-0.8c-0.1-0.2-0.2-0.4-0.4-0.4c-0.2,0-0.6,0.4-1.1,1.1c-0.5,0.8-1,1.7-1.5,2.9
			c-0.5,1.2-0.9,2.5-1.3,3.9c-0.4,1.4-0.6,2.8-0.6,4.2c0,0.6-0.2,1-0.5,1.2c-0.3,0.2-0.8,0.3-1.3,0.3c-0.6,0-1-0.3-1.3-0.8
			c-0.3-0.5-0.5-1.1-0.7-1.9C92,59,92,58.2,91.9,57.3c0-0.9-0.1-1.8-0.1-2.7c0-1.4,0-2.9,0.1-4.3c0.1-1.4,0.2-2.6,0.3-3.6
			c0.1-0.8,0.3-1.5,0.4-2.1c0.2-0.5,0.4-1,0.7-1.2c0.3-0.3,0.6-0.5,0.9-0.6c0.4-0.1,0.8-0.2,1.3-0.2c0.2,0,0.3,0.1,0.5,0.2
			c0.1,0.1,0.2,0.2,0.3,0.4c0.1,0.2,0.2,0.5,0.2,0.8c0,0.2,0,0.4-0.1,0.5c-0.1,0.5-0.2,1-0.3,1.6c-0.1,0.5-0.2,1-0.2,1.6
			c-0.1,0.6-0.2,1.2-0.2,1.9c0,0.1,0,0.1,0.1,0.2c0,0.1,0.1,0.2,0.2,0.2s0.2-0.1,0.2-0.3c0.2-0.5,0.5-1.1,0.8-1.8
			c0.3-0.5,0.5-1.1,0.9-1.8c0.3-0.7,0.7-1.3,1.2-2c0.2-0.3,0.4-0.6,0.4-0.8c0.1-0.2,0.3-0.6,0.6-1.2c0.3-0.3,0.5-0.5,0.9-0.8
			c0.3-0.2,0.6-0.4,0.9-0.5c0.3-0.2,0.7-0.3,1.1-0.3c0.3,0,0.6,0.1,0.8,0.3c0.3,0.2,0.4,0.5,0.4,0.9c0,0.5,0,0.9-0.1,1.4
			c-0.1,0.5-0.1,1-0.1,1.6c0,1,0.1,1.8,0.3,2.4c0.2,0.6,0.4,1,0.6,1.4c0.2,0.3,0.4,0.6,0.6,0.8C105.7,49.3,105.8,49.5,105.8,49.7z"
			/>
		<path class="st0" d="M123.8,58.6c0,0.5-0.1,0.9-0.3,1.2c-0.2,0.3-0.4,0.5-0.7,0.6c-0.3,0.1-0.7,0.2-1.1,0.2
			c-0.6,0-1.1-0.2-1.5-0.5c-0.4-0.3-0.7-0.7-1-1.1c-0.3-0.4-0.4-0.8-0.5-1.2c-0.1-0.4-0.2-0.6-0.2-0.7c0-0.1,0-0.2-0.1-0.2
			c-0.1,0-0.1,0-0.2,0.1c0,0-0.1,0.1-0.1,0.1c-0.6,1.1-1.2,1.9-1.9,2.5c-0.6,0.6-1.3,1-1.8,1.3c-0.6,0.3-1,0.4-1.4,0.5
			c-0.4,0.1-0.6,0.1-0.7,0.1c-0.9,0-1.7-0.3-2.3-0.9c-0.6-0.6-1.1-1.4-1.5-2.3c-0.4-0.9-0.7-1.9-0.9-3s-0.3-2.1-0.3-3.1
			c0-0.9,0.1-1.9,0.2-3.1s0.4-2.2,0.8-3.2c0.3-1,0.8-1.8,1.3-2.5c0.5-0.7,1.2-1,2-1c0.1,0,0.3,0,0.5,0c0.2,0,0.4,0.1,0.6,0.2
			c0.2,0.1,0.3,0.3,0.5,0.6c0.1,0.3,0.2,0.6,0.2,1.1c0,0.4,0,0.8-0.1,1.2c-0.1,0.5-0.3,1-0.6,1.7c-0.3,0.7-0.5,1.4-0.6,2.1
			c-0.2,0.6-0.3,1.3-0.4,2.1s-0.2,1.5-0.2,2.2c0,0.8,0.1,1.5,0.4,2.1c0.3,0.6,0.8,0.9,1.5,0.9c0.6-0.1,1.1-0.4,1.6-0.9
			c0.4-0.4,0.9-1,1.4-1.9c0.5-0.9,0.8-2.1,1.1-3.6c0-0.3,0.1-0.5,0.1-0.8c0-0.3,0.1-0.5,0.1-0.9s0.1-0.6,0.1-1
			c0-0.2,0.1-0.4,0.2-0.7c0.1-0.3,0.3-0.5,0.6-0.8c0.2-0.3,0.5-0.5,0.9-0.6c0.3-0.2,0.7-0.3,1.2-0.3c0.4,0,0.7,0.1,1.1,0.3
			c0.3,0.2,0.5,0.6,0.5,1.2c0,0.3-0.1,0.9-0.2,1.6c-0.1,0.8-0.2,1.8-0.2,3.2c0,1,0.1,1.9,0.3,2.8c0.2,0.9,0.5,1.6,0.8,2.2
			c0.1,0.2,0.4,0.5,0.6,0.8C123.7,57.8,123.8,58.2,123.8,58.6z"/>
		<path class="st0" d="M138.6,38.9c0,0.4-0.1,0.6-0.3,0.8c-0.2,0.2-0.4,0.3-0.5,0.4c-0.2,0.1-0.5,0.2-0.8,0.2c-0.4,0-0.8,0-1.4,0.1
			c-0.6,0.1-1.1,0.2-1.7,0.3c-0.6,0.1-1,0.3-1.5,0.4c-0.4,0.1-0.6,0.3-0.7,0.4c-0.1,0.7-0.2,1.7-0.3,2.8c-0.1,1-0.1,2.2-0.2,3.7
			c-0.1,1.5-0.1,3.3-0.1,5.5c0.1,1.4,0.3,2.8,0.5,4.1c0.2,1.1,0.4,2.2,0.7,3.4c0.3,1.1,0.7,2,1.2,2.6c0.3,0.4,0.5,0.8,0.5,1.1
			c0,0.5-0.2,0.9-0.7,1.1c-0.5,0.2-0.9,0.4-1.2,0.4c-0.6,0-1-0.1-1.4-0.4c-0.2-0.1-0.4-0.2-0.5-0.4c-0.6-0.6-1.2-1.4-1.6-2.5
			c-0.4-1-0.7-2.1-0.9-3.4c-0.2-1.2-0.4-2.5-0.5-3.8c-0.1-1.3-0.1-2.6-0.1-3.8c0-1,0-2,0.1-3.2c0.1-1.2,0.1-2.2,0.2-3.2
			c0.1-1.2,0.2-2.4,0.3-3.5c0-0.1,0-0.2-0.1-0.2h-0.1c-1.8,0-3-0.2-3.7-0.5c-0.7-0.3-1-0.8-1-1.5c0-0.1,0-0.3,0.1-0.5
			c0-0.2,0.1-0.4,0.3-0.6s0.4-0.4,0.7-0.6s0.8-0.2,1.3-0.2c0.4,0,0.7,0,0.9,0.1c0.2,0.1,0.6,0.1,1.1,0.1c0.1,0,0.3,0,0.6-0.1
			c0.3,0,0.5-0.1,0.5-0.3c0.3-2.1,0.6-3.7,1-4.9c0.4-1.2,0.8-2,1.2-2.6c0.4-0.6,0.8-0.9,1.3-1c0.5-0.1,0.9-0.2,1.3-0.2
			c0.2,0,0.4,0,0.6,0.1c0.2,0.1,0.3,0.2,0.5,0.4c0.1,0.2,0.2,0.4,0.2,0.7c0,0.4-0.1,0.8-0.2,1.2c-0.1,0.4-0.3,0.8-0.4,1.3
			c-0.2,0.5-0.4,1.1-0.6,1.7c-0.2,0.7-0.4,1.5-0.6,2.6c0,0.1,0.1,0.2,0.2,0.2c0.1,0,0.5-0.1,1.2-0.2s1.2-0.2,1.8-0.2
			c0.7,0,1.2,0.1,1.6,0.3c0.4,0.2,0.7,0.5,0.9,0.7C138.3,38.2,138.5,38.5,138.6,38.9z"/>
		<path class="st0" d="M152,61.1c0,0.4-0.1,0.8-0.3,1c-0.2,0.2-0.5,0.4-0.8,0.5c-0.3,0.1-0.7,0.2-1.1,0.2c-0.6,0-1.2-0.2-1.6-0.6
			c-0.5-0.4-0.8-0.8-1.1-1.3c-0.4-0.5-0.6-1.2-0.9-1.9c0-0.2-0.1-0.3-0.2-0.3c-0.1,0-0.1,0-0.2,0.1l-0.1,0.1
			c-0.5,0.6-1.1,1.1-1.7,1.5c-0.6,0.4-1.1,0.7-1.7,0.9c-0.5,0.2-1,0.3-1.5,0.4s-0.8,0.1-1.1,0.1c-1,0-1.9-0.2-2.5-0.6
			c-0.6-0.4-1.1-0.8-1.4-1.3s-0.5-1-0.5-1.5c-0.1-0.5-0.1-0.8-0.1-1.1c0-0.7,0.1-1.4,0.4-2.1c0.3-0.7,0.6-1.3,1-1.9s0.9-1.1,1.5-1.6
			c0.5-0.5,1.1-1,1.7-1.4c1.3-1,2.9-1.9,4.6-2.6c0.1,0,0.2-0.1,0.3-0.2c0.2-0.1,0.3-0.3,0.3-0.5c0-0.4-0.3-0.7-1-0.8
			c-0.6-0.1-1.4-0.2-2.1-0.2c-0.3,0-0.6,0-0.9,0c-0.3,0-0.6,0-0.8,0.1c-0.3,0-0.5,0.1-0.8,0.1c-0.4,0-0.7,0-0.9-0.1
			c-0.2-0.1-0.4-0.3-0.5-0.5c-0.1-0.2-0.2-0.4-0.2-0.6c0-0.2-0.1-0.4-0.1-0.5c0-0.1,0-0.3,0.1-0.5c0.1-0.2,0.3-0.5,0.5-0.8
			c0.3-0.3,0.7-0.5,1.3-0.7c0.6-0.2,1.3-0.3,2.3-0.3c0.6,0,1.4,0.1,2.4,0.2c0.9,0.1,1.8,0.4,2.7,0.7c0.8,0.3,1.6,0.8,2.2,1.3
			s0.9,1.2,0.9,2c0,0.6-0.3,1.1-0.8,1.6c-0.5,0.5-1.1,1-1.9,1.5c-0.8,0.5-1.6,1-2.5,1.5c-0.9,0.5-1.7,1-2.5,1.6s-1.4,1.1-1.9,1.8
			c-0.5,0.7-0.8,1.4-0.8,2.2c0,0.1,0.1,0.4,0.2,0.7c0.1,0.3,0.4,0.5,0.9,0.5c0.4,0,0.8-0.1,1.2-0.3c0.5-0.2,0.9-0.5,1.3-0.8
			c0.4-0.3,0.7-0.7,1-1.2c0.3-0.4,0.4-0.9,0.4-1.4c0,0-0.1-0.1-0.1-0.1V54c0-0.3,0.1-0.5,0.2-0.9c0.1-0.3,0.3-0.6,0.6-0.9
			c0.3-0.3,0.5-0.5,0.9-0.7c0.3-0.2,0.7-0.3,1.1-0.3c0.2,0,0.4,0.1,0.6,0.2c0.2,0.1,0.3,0.3,0.3,0.7c0.1,1,0.3,2,0.5,2.9
			c0.2,0.8,0.4,1.6,0.8,2.4c0.3,0.8,0.7,1.4,1.2,1.8c0.2,0.2,0.3,0.4,0.5,0.6c0.1,0.2,0.2,0.4,0.3,0.6C152,60.7,152,60.9,152,61.1z"
			/>
		<path class="st0" d="M167.4,55.1c0,1.1-0.3,2.1-1,2.9c-0.7,0.8-1.5,1.5-2.5,2c-1,0.5-2,0.9-3,1.2c-1,0.3-1.9,0.4-2.6,0.4
			c-1.6,0-2.7-0.3-3.4-1c-0.7-0.6-1-1.3-1-2.1c0-0.6,0.2-1.1,0.6-1.4c0.4-0.3,0.8-0.4,1.1-0.4c0.4,0,0.8,0.1,1.4,0.4
			c0.6,0.3,1.3,0.4,2.1,0.4c1.1,0,2-0.2,2.5-0.5c0.6-0.3,0.8-0.7,0.8-1.2c0-0.4-0.2-0.7-0.6-1c-0.4-0.3-0.9-0.5-1.6-0.7
			c-0.6-0.2-1.3-0.4-2-0.6c-0.7-0.2-1.4-0.5-2-0.8c-0.6-0.3-1.2-0.7-1.6-1.1c-0.4-0.5-0.6-1-0.6-1.7c0-0.9,0.3-1.8,0.8-2.8
			c0.6-1,1.3-1.9,2.2-2.7c0.9-0.8,1.9-1.5,3.1-2c1.2-0.5,2.3-0.8,3.5-0.8c1,0,1.9,0.3,2.5,0.9c0.6,0.6,0.9,1.5,0.9,2.8
			c0,0.6-0.1,1.1-0.4,1.6c-0.3,0.5-0.8,0.8-1.6,0.8c-0.4,0-0.7-0.1-0.9-0.4c-0.1-0.2-0.3-0.5-0.4-0.8c-0.1-0.3-0.3-0.5-0.4-0.8
			c-0.2-0.2-0.5-0.4-1.1-0.4c-0.2,0-0.5,0.1-0.9,0.2c-0.4,0.2-0.8,0.4-1.2,0.7c-0.4,0.3-0.8,0.6-1.1,1c-0.3,0.4-0.5,0.8-0.5,1.3
			c0,0.4,0.2,0.8,0.6,1.1c0.4,0.3,1,0.6,1.6,0.8c0.6,0.3,1.4,0.5,2.1,0.7c0.8,0.2,1.5,0.5,2.1,0.8c0.6,0.3,1.2,0.7,1.6,1.2
			C167.2,53.9,167.4,54.5,167.4,55.1z"/>
	</g>
	<path class="st0" d="M7.3,20.5c-3.6-2.4-4.4-5.2-4.4-6.6c5.1,3.1,9.5,4.1,13.9,3.2c1.1-0.2,2.2-0.6,3.4-1.1
		c0.9-1.1,1.5-2.6,1.9-4.3c-2.1,1.4-4,2.3-5.8,2.7c-3.9,0.8-7.9-0.2-12.6-3.3c-0.6-0.4-1.4-0.5-2-0.1c-0.8,0.4-1.4,1.5-1.4,2.9
		c-0.1,1.9,0.7,4.5,2.9,6.9C4.6,20.7,6,20.6,7.3,20.5z M33.3,2l-2-2l-4.9,4.9l0,0l-1.1,1.1l0,0.6c0.2,5.4-1,9.2-3.6,11.9
		c-3.4,3.5-9.4,5-18.8,4.9c-1.5,0-2.2,0.6-2.5,1.2C0,25-0.3,26,0.5,27.3c1.4,2.5,7,6,14.9,6c0,0,0.1,0,0.1,0
		c6.2,0,11.3-2.6,14.2-7.3c3.4-5.4,3.4-12.8,0-20.5L33.3,2z M27.3,24.5c-2.4,3.8-6.6,5.9-11.9,6c0,0-0.1,0-0.1,0
		c-6.8,0-11-2.8-12.2-4.2c10.1,0.1,16.6-1.7,20.5-5.7c2.7-2.8,4.2-6.6,4.4-11.6C30.1,14.9,29.9,20.4,27.3,24.5z"/>
	<path class="st0" d="M199.6,35.9c1.1-0.1,2.5-0.1,4.2-0.1h0.2v-2.5c0,0-4.6,0-6,0.3c-1,0.3-1.8,0.8-2.2,1.5c-1-0.1-2,0-2.9,0.2
		c-1.1-0.5-2.4-0.8-3.6-0.8c-3.4,0-6.3,1.2-8.6,3.4c-2.6,2.6-4,6.6-4,11.5c0,7.1,4.3,12.4,9.9,12.4c0.4,0,0.8,0,1.2-0.1
		c1.5,0.9,3.2,1.3,5,1.3c7.3,0,13.7-7,13.7-14.9C206.6,42.1,203.9,37.4,199.6,35.9z M192.9,60.6c-2.1,0-3.8-0.7-5.1-2
		c-1.6-1.7-2.5-4.4-2.5-7.6c-0.9-0.2-1.7-0.4-2.5-0.8l0,0c-0.1,3.5,0.7,6.7,2.3,9c-3.8-1-5.8-5.5-5.8-9.7c0-4.2,1.1-7.6,3.3-9.8
		c1.7-1.7,3.9-2.6,6.5-2.7c-1.7,1.2-3.2,3-4.3,5.2c0.8,0.1,1.7,0.3,2.4,0.7c1.4-2.6,5-7,11.5-4.7c4,1.4,5.4,6.1,5.4,10
		C204.1,54,199.3,60.6,192.9,60.6z"/>
	<circle class="st0" cx="65.8" cy="116.9" r="3.5"/>
	<circle class="st0" cx="78.4" cy="116.9" r="3.5"/>
	<circle class="st0" cx="91" cy="116.9" r="3.5"/>
	<circle class="st0" cx="103.6" cy="116.9" r="3.5"/>
	<circle class="st0" cx="116.2" cy="116.9" r="3.5"/>
</g>
</svg>
