<?xml version="1.0" encoding="utf-8"?>
<!-- Generator: Adobe Illustrator 21.1.0, SVG Export Plug-In . SVG Version: 6.00 Build 0)  -->
<svg version="1.1" id="Capa_1" xmlns="http://www.w3.org/2000/svg" xmlns:xlink="http://www.w3.org/1999/xlink" x="0px" y="0px"
	 viewBox="0 0 241.9 132.6" style="enable-background:new 0 0 241.9 132.6;" xml:space="preserve">
<style type="text/css">
	.st0{fill:#FFFFFF;}
</style>
<g>
	<g>
		<path class="st0" d="M5,40.4c0,0.1,0,0.5-0.1,1.3c-0.1,0.8-0.1,1.9-0.2,3.1c-0.1,1.3-0.2,2.6-0.2,4.1c-0.1,1.5-0.1,2.8-0.1,4.1
			c0,0.9,0,1.7,0.1,2.5c0,0.7,0.1,1.3,0.3,1.7c0,0.1,0,0.2,0,0.4c0,0.3-0.1,0.5-0.3,0.7c-0.2,0.2-0.4,0.3-0.6,0.3
			c-0.3,0.1-0.5,0.1-0.9,0.1c-0.6,0-1.1-0.1-1.5-0.4C1,58.2,0.7,57.7,0.5,57c-0.1-0.3-0.2-0.6-0.2-1.1c0-0.4-0.1-0.9-0.1-1.3
			c0-0.5,0-1,0-1.5c0-1.4,0.1-2.9,0.2-4.4s0.3-2.9,0.5-4.3C1,43,1.3,41.5,1.6,40c0-0.2,0.1-0.4,0.2-0.6c0.1-0.2,0.2-0.3,0.4-0.4
			C2.4,39,2.7,38.9,3,38.9c0.3,0,0.7,0.1,0.9,0.2c0.3,0.1,0.5,0.2,0.7,0.4C4.9,39.8,5,40,5,40.4z M6.3,32.9c0,0.3-0.1,0.6-0.2,0.9
			c-0.1,0.3-0.3,0.6-0.6,0.9C5.3,35,5,35.3,4.6,35.5c-0.4,0.2-0.8,0.3-1.3,0.3c-0.5,0-0.9-0.1-1.3-0.4c-0.3-0.3-0.5-0.8-0.5-1.5
			c0-0.5,0.1-0.9,0.4-1.2c0.2-0.3,0.5-0.6,0.8-0.9c0.3-0.2,0.6-0.4,1-0.5c0.3-0.1,0.6-0.2,0.9-0.2c0.1,0,0.3,0,0.5,0
			c0.2,0,0.4,0.1,0.6,0.2c0.2,0.1,0.4,0.3,0.5,0.6C6.3,32.2,6.3,32.5,6.3,32.9z"/>
		<path class="st0" d="M27.1,24.9c0,0.2,0,0.4,0,0.7s-0.1,0.6-0.2,0.8c-0.1,0.3-0.3,0.5-0.5,0.6s-0.6,0.3-1,0.3
			c-0.1,0-0.5,0-1.1,0.1c-0.6,0-1.3,0.1-2.1,0.3c-0.8,0.1-1.6,0.3-2.5,0.5c-0.9,0.2-1.6,0.5-2.3,0.9l0,0.1c0,0.1,0.1,0.1,0.2,0.2
			s0.2,0.1,0.4,0.2c0.1,0.1,0.3,0.2,0.4,0.3c0.1,0.1,0.2,0.2,0.2,0.4c-0.1,0.6-0.2,1.3-0.3,2.2c-0.1,0.9-0.3,1.9-0.4,3
			c-0.1,1.1-0.3,2.3-0.4,3.5c-0.1,1.3-0.2,2.6-0.2,3.9c0,1.3,0.1,2.5,0.2,3.7c0.1,1.2,0.4,2.2,0.8,3c0,0,0.1,0.1,0.1,0.2
			c0.1,0.2,0.1,0.4,0.1,0.5c0,0.1,0,0.2-0.1,0.4c0,0.2-0.2,0.4-0.3,0.6c-0.2,0.2-0.4,0.4-0.7,0.6C17,51.9,16.6,52,16.1,52
			c-0.5,0-1-0.2-1.4-0.5c-0.4-0.3-0.7-0.7-1-1.2c-0.3-0.5-0.4-1-0.6-1.6c-0.1-0.6-0.3-1.1-0.3-1.7c-0.1-0.5-0.1-1-0.1-1.4
			c0-0.4,0-0.7,0-0.9c0-1.5,0.1-3,0.3-4.8c0.2-1.7,0.4-3.3,0.7-4.9c0.3-1.7,0.6-3.5,0.9-5.3c0-0.2-0.1-0.2-0.2-0.2
			c-0.6,0.1-1.1,0.3-1.5,0.4c-0.4,0.2-0.8,0.3-1.2,0.5c-0.4,0.2-0.7,0.3-1,0.4c-0.3,0.1-0.6,0.2-0.9,0.2c-0.5,0-0.9-0.2-1.1-0.6
			c-0.1-0.2-0.2-0.4-0.2-0.6c0-0.3,0.1-0.8,0.3-1.4c0.2-0.6,0.8-1.2,1.8-1.7c1.4-0.8,2.8-1.4,4.4-2c1.3-0.5,2.7-1,4.3-1.4
			c1.6-0.4,3.2-0.6,4.8-0.6c0.2,0,0.5,0,0.9,0c0.4,0,0.7,0.1,1,0.3c0.3,0.1,0.6,0.3,0.9,0.6C27,24.1,27.1,24.5,27.1,24.9z"/>
		<path class="st0" d="M37.6,51.1c0,0.4-0.1,0.7-0.3,0.9c-0.2,0.2-0.4,0.4-0.7,0.4c-0.3,0.1-0.6,0.2-0.9,0.2c-0.6,0-1-0.2-1.4-0.5
			c-0.4-0.3-0.7-0.7-1-1.1c-0.3-0.5-0.6-1-0.8-1.7c0-0.2-0.1-0.2-0.2-0.2c-0.1,0-0.1,0-0.2,0.1L32,49.3c-0.5,0.5-1,1-1.5,1.3
			c-0.5,0.3-1,0.6-1.5,0.8c-0.5,0.2-0.9,0.3-1.3,0.3c-0.4,0-0.7,0.1-0.9,0.1c-0.9,0-1.6-0.2-2.2-0.5c-0.5-0.3-0.9-0.7-1.2-1.1
			c-0.3-0.4-0.4-0.9-0.5-1.3c-0.1-0.4-0.1-0.7-0.1-0.9c0-0.6,0.1-1.2,0.3-1.8c0.2-0.6,0.5-1.1,0.9-1.7c0.4-0.5,0.8-1,1.3-1.4
			c0.5-0.4,1-0.9,1.5-1.2c1.2-0.9,2.5-1.6,4-2.3c0.1,0,0.2-0.1,0.3-0.1c0.2-0.1,0.3-0.3,0.3-0.4c0-0.3-0.3-0.6-0.9-0.7
			c-0.6-0.1-1.2-0.2-1.8-0.2c-0.3,0-0.6,0-0.8,0c-0.3,0-0.5,0-0.7,0.1c-0.3,0-0.5,0-0.7,0c-0.3,0-0.6,0-0.8-0.1
			c-0.2-0.1-0.4-0.2-0.5-0.4c-0.1-0.2-0.2-0.3-0.2-0.5c0-0.2,0-0.3,0-0.4s0-0.2,0.1-0.4c0.1-0.2,0.2-0.4,0.5-0.7
			c0.3-0.2,0.6-0.4,1.1-0.6c0.5-0.2,1.2-0.3,2-0.3c0.6,0,1.3,0.1,2.1,0.2c0.8,0.1,1.6,0.3,2.3,0.6c0.7,0.3,1.4,0.7,1.9,1.2
			s0.8,1.1,0.8,1.8c0,0.5-0.2,1-0.7,1.4c-0.4,0.5-1,0.9-1.7,1.3c-0.7,0.4-1.4,0.8-2.2,1.3c-0.8,0.4-1.5,0.9-2.2,1.4s-1.2,1-1.7,1.6
			C27.2,46,27,46.7,27,47.4c0,0.1,0.1,0.3,0.2,0.6c0.1,0.3,0.4,0.4,0.8,0.4c0.3,0,0.7-0.1,1.1-0.3c0.4-0.2,0.8-0.4,1.1-0.7
			c0.3-0.3,0.6-0.6,0.9-1c0.3-0.4,0.4-0.8,0.4-1.2c0,0,0-0.1,0-0.1v-0.3c0-0.2,0.1-0.5,0.2-0.8c0.1-0.3,0.3-0.5,0.5-0.8
			c0.2-0.2,0.5-0.4,0.8-0.6c0.3-0.2,0.6-0.2,0.9-0.2c0.2,0,0.4,0,0.5,0.1c0.2,0.1,0.3,0.3,0.3,0.6c0.1,0.9,0.2,1.7,0.4,2.6
			c0.2,0.7,0.4,1.4,0.7,2.1c0.3,0.7,0.6,1.2,1.1,1.6c0.2,0.2,0.3,0.4,0.4,0.5c0.1,0.2,0.2,0.3,0.3,0.5
			C37.5,50.7,37.6,50.9,37.6,51.1z"/>
		<path class="st0" d="M64.6,50.6c0,0.3-0.1,0.6-0.2,0.8c-0.2,0.2-0.3,0.4-0.6,0.6c-0.2,0.2-0.5,0.3-0.7,0.4
			c-0.3,0.1-0.5,0.1-0.6,0.1c-0.8,0-1.4-0.2-1.9-0.7c-0.5-0.5-0.8-1.1-1.1-1.8s-0.4-1.5-0.5-2.4c-0.1-0.9-0.1-1.7-0.1-2.4
			c0-0.6,0-1.2,0-1.6c0-0.4,0-0.8,0-1c0-0.5,0-0.8-0.1-0.9c-0.1-0.1-0.2-0.2-0.4-0.2c-0.1,0-0.2,0-0.4,0.1s-0.2,0.2-0.3,0.3
			c-0.1,0.1-0.2,0.3-0.3,0.4c-0.3,0.4-0.7,1-1.1,1.7c-0.4,0.7-0.7,1.4-1.1,2c-0.4,0.8-0.8,1.5-1.1,2.4c-0.3,0.4-0.5,0.9-0.8,1.3
			c-0.3,0.4-0.7,0.6-1.2,0.6c-0.6,0-1.1-0.3-1.5-0.9c-0.3-0.6-0.6-1.4-0.8-2.2c-0.2-0.8-0.3-1.6-0.4-2.4c-0.1-0.8-0.1-1.3-0.2-1.6
			c-0.1-0.4-0.3-0.7-0.5-0.7c-0.1,0-0.1,0-0.2,0c-0.1,0-0.2,0.1-0.2,0.1c-0.1,0.1-0.2,0.1-0.2,0.1c-0.6,0.6-1.1,1.3-1.5,2.2
			c-0.5,0.9-0.9,1.8-1.2,2.7c-0.4,1-0.7,2.1-1,3.3c-0.2,0.6-0.4,0.9-0.6,1c-0.3,0.1-0.5,0.1-0.9,0.1c-0.4,0-0.7-0.1-0.9-0.2
			c-0.3-0.2-0.4-0.3-0.6-0.6c-0.1-0.2-0.2-0.5-0.3-0.7c0-0.3-0.1-0.5-0.1-0.7c0-0.6,0-1.2,0.1-1.8c0-0.3,0.1-0.6,0.1-0.9
			c0.1-0.5,0.1-1,0.1-1.5c0-0.5,0-1,0-1.4c0-1.1-0.1-2.1-0.2-2.9c-0.1-0.8-0.3-1.5-0.4-2c-0.2-0.6-0.4-1.2-0.6-1.6
			c0,0-0.1-0.1-0.1-0.2c0-0.1,0-0.3,0-0.5c0-0.2,0-0.4,0.1-0.6c0.1-0.2,0.2-0.5,0.4-0.7c0.2-0.2,0.4-0.4,0.6-0.5
			c0.3-0.2,0.5-0.2,0.9-0.2c0.3,0,0.7,0.1,1.1,0.4c0.4,0.3,0.7,0.9,1,1.8c0.1,0.3,0.1,0.7,0.2,1.2c0.1,0.4,0.1,1,0.2,1.6
			c0,0.6,0.1,1.4,0.1,2.3c0,0,0,0.1,0,0.1c0,0.1,0,0.1,0.1,0.1c0,0,0.1,0,0.1-0.1c0.1-0.2,0.3-0.6,0.6-1.2c0.3-0.6,0.7-1.1,1.2-1.7
			c0.5-0.6,1-1.1,1.7-1.6c0.6-0.5,1.3-0.7,2-0.7c0.6,0,1.1,0.2,1.3,0.6c0.2,0.4,0.4,1.3,0.6,2.7c0,0.6,0.1,1.1,0.2,1.6
			c0.1,0.4,0.1,0.7,0.2,1c0.1,0.3,0.2,0.5,0.3,0.5c0.1,0,0.2-0.1,0.3-0.2c0.2-0.2,0.5-0.6,0.7-1.3c0-0.1,0.2-0.5,0.5-1.2
			s0.8-1.4,1.3-2.2s1.2-1.5,1.8-2.1c0.7-0.6,1.4-0.9,2.2-0.9c0.5,0,1,0.1,1.3,0.4c0.3,0.3,0.6,0.6,0.8,1.1c0.2,0.4,0.3,0.9,0.3,1.4
			c0,0.5,0.1,1,0.1,1.5c0,2.7,0.1,4.8,0.2,6.5c0.2,1.6,0.6,2.8,1.5,3.4c0.1,0,0.1,0.1,0.2,0.2c0.1,0.1,0.1,0.1,0.2,0.2
			S64.6,50.5,64.6,50.6z"/>
		<path class="st0" d="M81.8,39.2c0,1.3-0.2,2.6-0.5,4c-0.4,1.4-0.9,2.7-1.5,3.9c-0.7,1.2-1.5,2.2-2.4,3c-0.9,0.8-1.9,1.2-3,1.2
			c-0.6,0-1.1-0.2-1.5-0.5c-0.4-0.3-0.7-0.7-0.9-1.2c-0.3-0.5-0.5-1-0.7-1.7c-0.1-0.1-0.1-0.1-0.1-0.1c-0.2,0-0.3,0.1-0.4,0.2
			c-0.1,0.2-0.2,0.3-0.4,0.5c-0.1,0.2-0.3,0.3-0.5,0.5c-0.2,0.2-0.5,0.2-0.8,0.2c-0.3,0-0.4-0.1-0.6-0.3c-0.1-0.2-0.2-0.4-0.3-0.6
			c-0.1-0.2-0.1-0.5-0.1-0.7c0-0.2,0-0.4,0-0.6c0-1.6,0-3.5,0-5.6c0-2.1,0.1-4.2,0.3-6.4c0.1-2.2,0.3-4.4,0.6-6.5
			c0.3-2.1,0.6-4,1.1-5.7c0.1-0.2,0.2-0.4,0.3-0.6c0.1-0.2,0.3-0.3,0.5-0.4c0.2-0.1,0.4-0.2,0.8-0.2c0.4,0,0.8,0.1,1,0.3
			c0.3,0.2,0.4,0.4,0.6,0.7c0.1,0.3,0.2,0.6,0.2,1c-0.4,1.6-0.7,3.4-1,5.2c-0.3,1.6-0.5,3.4-0.7,5.4c-0.2,2-0.3,4.1-0.3,6.4
			c0,0.1,0,0.2,0,0.2c0,0.2,0.1,0.2,0.2,0.2c0.1,0,0.1-0.1,0.2-0.2c1.2-2,2.4-3.6,3.7-4.7c1.3-1.1,2.4-1.6,3.4-1.6
			c0.1,0,0.3,0,0.6,0.1c0.3,0,0.7,0.2,1,0.5c0.3,0.3,0.7,0.7,0.9,1.3C81.6,37.2,81.8,38.1,81.8,39.2z M78.2,40.8
			c0-0.9-0.1-1.4-0.4-1.5C77.6,39,77.4,39,77.3,39c-0.6,0-1.1,0.3-1.7,0.9c-0.5,0.6-1,1.3-1.5,2c-0.5,0.9-1,1.8-1.4,2.9
			c0.1,0.5,0.2,0.9,0.4,1.3c0.2,0.3,0.4,0.6,0.6,0.9c0.3,0.3,0.6,0.4,1.1,0.4c0.5,0,0.9-0.2,1.3-0.7c0.4-0.5,0.8-1.1,1-1.8
			c0.3-0.7,0.5-1.4,0.7-2.2C78.1,42,78.2,41.3,78.2,40.8z"/>
		<path class="st0" d="M89.5,36.8c0,0.2-0.1,0.5-0.2,1c-0.1,0.5-0.2,1.1-0.3,1.8c-0.1,0.7-0.2,1.4-0.3,2.3c-0.1,0.9-0.1,1.7-0.1,2.6
			c0,0.7,0,1.3,0.1,2c0.1,0.6,0.1,1.1,0.2,1.6c0.1,0.6,0.2,1.1,0.3,1.5c-0.1,0.4-0.3,0.7-0.6,0.9c-0.4,0.1-0.7,0.2-0.9,0.2
			c-0.3,0-0.6-0.1-0.8-0.2c-0.1-0.1-0.2-0.1-0.3-0.2c-0.5-0.6-0.9-1.5-1.1-2.6c-0.2-1.1-0.3-2.3-0.3-3.6c0-1,0-1.9,0.1-2.9
			c0.1-0.9,0.2-1.8,0.3-2.6c0.1-0.9,0.3-1.7,0.4-2.5c0-0.1,0.1-0.3,0.2-0.4c0.1-0.1,0.3-0.2,0.5-0.3c0.2-0.1,0.5-0.1,0.9-0.1
			c0.2,0,0.4,0,0.6,0.1c0.2,0,0.5,0.1,0.7,0.2c0.2,0.1,0.4,0.3,0.5,0.5C89.4,36.2,89.5,36.5,89.5,36.8z M90.9,28
			c0,0.2-0.1,0.5-0.2,0.9c-0.1,0.4-0.3,0.8-0.5,1.1c-0.3,0.4-0.6,0.7-1,1c-0.4,0.3-1,0.4-1.6,0.4c-0.6,0-1-0.2-1.2-0.5
			c-0.2-0.3-0.3-0.7-0.3-1.1c0-0.3,0.1-0.7,0.3-1.1c0.2-0.4,0.4-0.7,0.7-1.1c0.3-0.3,0.7-0.6,1.1-0.8c0.4-0.2,0.9-0.3,1.3-0.3
			c0.2,0,0.5,0.1,0.9,0.2C90.8,27,90.9,27.4,90.9,28z"/>
		<path class="st0" d="M105.7,38c0,1-0.2,1.9-0.6,2.9c-0.4,0.9-1,1.8-1.6,2.5c-0.7,0.7-1.5,1.3-2.3,1.8c-0.9,0.4-1.8,0.7-2.8,0.7
			c-0.1,0-0.1,0-0.2,0.1c0,0,0,0.1,0,0.1c0.1,0.7,0.2,1.3,0.5,1.7c0.3,0.4,0.5,0.7,0.8,1c0.3,0.3,0.7,0.5,1.1,0.6
			c0.8,0.2,1.3,0.5,1.5,0.9c0.2,0.4,0.3,0.7,0.3,0.9c0,0.4-0.1,0.7-0.3,0.9c-0.2,0.2-0.4,0.4-0.7,0.4c-0.3,0.1-0.6,0.2-0.9,0.2
			c-1.1,0-2-0.2-2.7-0.7c-0.7-0.5-1.3-1-1.7-1.6c-0.5-0.7-0.9-1.5-1.2-2.4l-0.1-0.6c-0.1-0.2-0.1-0.4-0.1-0.7s-0.1-0.6-0.1-0.9
			c0,0,0-0.1,0-0.1c-0.1-0.1-0.1-0.1-0.2-0.1c-0.4-0.1-0.7-0.2-1-0.3c-0.3-0.2-0.5-0.4-0.7-0.7c-0.2-0.3-0.3-0.7-0.3-1.2
			c0-0.3,0.1-0.5,0.2-0.7c0.1-0.2,0.2-0.3,0.3-0.4c0.1-0.1,0.3-0.2,0.5-0.2c0.1,0,0.2,0,0.4,0.1c0.2,0,0.5,0.1,0.8,0.2
			c0.1,0,0.1,0,0.1,0c0,0,0,0,0,0c0.4-1.5,1-2.8,1.8-4c0.3-0.5,0.7-1,1-1.5c0.4-0.5,0.8-0.9,1.3-1.3s1-0.7,1.6-0.9
			c0.6-0.2,1.2-0.3,1.9-0.3c0.3,0,0.7,0,1.1,0.1c0.4,0.1,0.8,0.3,1.2,0.6c0.4,0.3,0.7,0.7,0.9,1.2C105.6,36.6,105.7,37.2,105.7,38z
			 M102.3,38.5c0-0.2,0-0.3-0.1-0.5c-0.1-0.1-0.1-0.2-0.2-0.4c-0.1-0.1-0.2-0.2-0.4-0.2c-0.4,0-0.8,0.2-1.2,0.5
			c-0.4,0.3-0.8,0.8-1.2,1.3c-0.4,0.5-0.7,1.1-0.9,1.7c-0.2,0.6-0.3,1.1-0.3,1.6c0,0.2,0.1,0.2,0.2,0.2c0.2,0,0.6-0.1,1-0.3
			c0.5-0.2,0.9-0.4,1.4-0.8c0.5-0.3,0.9-0.8,1.2-1.3C102.1,39.9,102.3,39.2,102.3,38.5z M106.4,27.6c0,0.2,0,0.3-0.1,0.4
			c-0.1,0.1-0.2,0.2-0.2,0.3c-0.1,0.1-0.2,0.2-0.3,0.2c-0.6,0.3-1.2,0.6-1.7,1c-0.5,0.4-1,0.8-1.5,1.2c-0.5,0.4-0.9,0.7-1.3,1
			c-0.4,0.3-0.9,0.4-1.3,0.5c-0.3,0-0.5,0-0.5-0.2c-0.1-0.1-0.1-0.2,0-0.2c0-0.6,0.2-1.2,0.5-1.9c0.3-0.7,0.8-1.3,1.2-1.9
			c0.5-0.6,1-1.1,1.4-1.5c0.5-0.4,0.9-0.6,1.1-0.6c0.2,0,0.4,0,0.7,0.1c0.3,0.1,0.6,0.2,0.9,0.3c0.3,0.1,0.5,0.3,0.8,0.6
			C106.3,27,106.4,27.3,106.4,27.6z"/>
		<path class="st0" d="M123.9,48.7c0,0.5-0.1,0.9-0.4,1.2s-0.5,0.5-0.8,0.6c-0.3,0.1-0.7,0.2-1.1,0.2c-0.8,0-1.4-0.3-1.8-0.8
			c-0.4-0.6-0.8-1.2-1-2c-0.2-0.8-0.3-1.6-0.4-2.5c0-0.9-0.1-1.6-0.1-2.3v-0.9c0-0.3-0.1-0.5-0.4-0.5c-0.4,0-0.8,0.2-1.2,0.7
			c-0.4,0.5-0.8,1.1-1.2,1.8c-0.4,0.7-0.8,1.5-1.1,2.3c-0.4,0.8-0.7,1.6-1,2.3c-0.3,0.7-0.6,1.3-0.9,1.8c-0.3,0.5-0.6,0.8-0.8,0.9
			c-0.2,0-0.3,0.1-0.4,0.1c-0.1,0-0.3,0-0.4,0c-0.5,0-0.8-0.2-1.1-0.6c-0.3-0.4-0.5-0.9-0.6-1.5c-0.1-0.6-0.2-1.3-0.3-2.1
			c0-0.8-0.1-1.6-0.1-2.4c0-0.7,0-1.5,0.1-2.4c0.1-0.9,0.2-1.9,0.3-2.8c0.1-0.9,0.3-1.8,0.4-2.5c0.2-0.8,0.4-1.3,0.6-1.7
			c0.2-0.3,0.3-0.6,0.6-0.8c0.2-0.2,0.4-0.4,0.7-0.5s0.7-0.3,1.1-0.3c0.1,0,0.2,0,0.3,0c0.2,0,0.3,0.1,0.5,0.1
			c0.2,0.1,0.3,0.2,0.4,0.4c0.1,0.2,0.2,0.4,0.2,0.7c0,0.4-0.1,0.9-0.4,1.4c-0.3,0.7-0.5,1.4-0.6,2.1c-0.2,0.6-0.3,1.3-0.4,2
			c-0.1,0.7-0.2,1.4-0.2,2c0,0.4,0.1,0.6,0.2,0.6c0.1,0,0.1,0,0.1-0.1c0.1-0.2,0.4-0.6,0.9-1.3c0.4-0.7,1-1.5,1.6-2.2
			c0.6-0.8,1.3-1.5,2.1-2.1c0.8-0.6,1.5-0.9,2.4-0.9c0.9,0,1.5,0.3,1.7,0.9c0.2,0.6,0.3,1.7,0.3,3.1c0,0.3,0,0.6,0,1
			c0,0.3,0,0.7,0,1.2c0,0.3,0,0.7,0,1.3c0,0.5,0.1,1,0.2,1.6c0.1,0.5,0.3,1,0.5,1.5c0.2,0.5,0.5,0.8,0.8,1l0.3,0.2
			C123.8,48.4,123.9,48.5,123.9,48.7z"/>
		<path class="st0" d="M153,39.3c0,1.6-0.4,3.1-1.2,4.5c-0.8,1.4-1.7,2.6-2.9,3.6c-1.2,1-2.4,1.9-3.7,2.5c-1.3,0.6-2.6,1-3.7,1.2
			c-0.1,0-0.1,0-0.2,0.1c0,0.1-0.1,0.1-0.1,0.1c-0.1,1.9-0.1,3.8-0.1,5.9c0,0.7,0,1.4,0.1,2.1c0.1,0.6,0.1,1.2,0.2,1.8
			c0.1,0.6,0.2,1.2,0.4,1.6c0.2,0.5,0.3,0.9,0.4,1.2c0.1,0.3,0.1,0.5,0.1,0.6c0,0.6-0.2,1.1-0.6,1.3c-0.4,0.2-0.8,0.4-1.1,0.4
			c-0.3,0-0.4,0-0.5,0c-0.1,0-0.2,0-0.2,0c-0.5-0.2-0.9-0.6-1.2-1.3c-0.3-0.7-0.5-1.5-0.6-2.2c-0.1-0.8-0.2-1.5-0.2-2.2
			c0-0.7,0-1.1,0-1.2c0-1.1,0-2,0-2.8c0-0.8,0-1.5,0-2.1s0-1.2,0-1.6c0-0.5,0-0.9,0-1.4c0,0,0-0.1,0-0.1c-0.1-0.1-0.1-0.1-0.2-0.1
			c-0.6-0.1-1.2-0.3-1.7-0.6c-0.4-0.2-0.8-0.5-1.1-0.9c-0.3-0.4-0.5-0.8-0.5-1.4c0-0.5,0.2-0.9,0.5-1.1c0.3-0.3,0.6-0.4,0.9-0.4
			c0.3,0,0.7,0.1,1.1,0.3c0.4,0.2,0.7,0.3,1,0.3c0.1,0,0.2,0,0.3-0.1c0,0,0-0.1,0-0.1c0.2-2.2,0.3-4.1,0.6-5.7
			c0.2-1.6,0.4-2.9,0.7-3.9c0.2-1.2,0.5-2.2,0.7-3c0.1-0.3,0.2-0.5,0.4-0.7c0.2-0.2,0.4-0.3,0.7-0.5c0.3-0.2,0.6-0.2,1.1-0.2
			c0.2,0,0.5,0,0.8,0.1c0.3,0.1,0.4,0.3,0.4,0.8c0,0.1-0.1,0.4-0.2,0.9c-0.1,0.5-0.2,1.1-0.4,1.8c-0.1,0.7-0.2,1.3-0.4,2
			c-0.1,0.6-0.2,1.1-0.2,1.4c0,0.1,0,0.2,0.1,0.2c0,0,0.1-0.1,0.2-0.2c0.6-0.8,1.3-1.4,2.1-2c0.7-0.5,1.5-1,2.5-1.4
			c1-0.4,2.1-0.6,3.3-0.6c0.5,0.1,0.9,0.2,1.3,0.5c0.3,0.3,0.7,0.6,0.9,1C152.8,38,153,38.6,153,39.3z M149.3,40.8
			c0-0.3,0-0.5-0.1-0.6c-0.1-0.2-0.2-0.3-0.3-0.3c-0.1-0.1-0.3-0.1-0.5-0.1c-0.8,0-1.6,0.3-2.4,0.9c-0.8,0.6-1.6,1.3-2.3,2.1
			c-0.7,0.8-1.2,1.7-1.7,2.5c-0.4,0.9-0.6,1.5-0.6,2c0,0.2,0,0.3,0.1,0.3c0.1,0,0.1,0,0.2,0c0.9,0,1.7-0.3,2.6-0.8
			c0.9-0.5,1.7-1.1,2.5-1.8c0.7-0.7,1.3-1.5,1.8-2.2C149,42,149.3,41.4,149.3,40.8z"/>
		<path class="st0" d="M169.5,51.1c0,0.4-0.1,0.7-0.3,0.9c-0.2,0.2-0.4,0.4-0.7,0.4c-0.3,0.1-0.6,0.2-0.9,0.2c-0.6,0-1-0.2-1.4-0.5
			c-0.4-0.3-0.7-0.7-1-1.1c-0.3-0.5-0.6-1-0.8-1.7c0-0.2-0.1-0.2-0.2-0.2c-0.1,0-0.1,0-0.2,0.1l-0.1,0.1c-0.5,0.5-1,1-1.5,1.3
			c-0.5,0.3-1,0.6-1.5,0.8c-0.5,0.2-0.9,0.3-1.3,0.3c-0.4,0-0.7,0.1-0.9,0.1c-0.9,0-1.6-0.2-2.2-0.5c-0.5-0.3-0.9-0.7-1.2-1.1
			c-0.3-0.4-0.4-0.9-0.5-1.3c-0.1-0.4-0.1-0.7-0.1-0.9c0-0.6,0.1-1.2,0.3-1.8c0.2-0.6,0.5-1.1,0.9-1.7c0.4-0.5,0.8-1,1.3-1.4
			c0.5-0.4,1-0.9,1.5-1.2c1.2-0.9,2.5-1.6,4-2.3c0.1,0,0.2-0.1,0.3-0.1c0.2-0.1,0.3-0.3,0.3-0.4c0-0.3-0.3-0.6-0.9-0.7
			c-0.6-0.1-1.2-0.2-1.8-0.2c-0.3,0-0.6,0-0.8,0c-0.3,0-0.5,0-0.7,0.1c-0.3,0-0.5,0-0.7,0c-0.3,0-0.6,0-0.8-0.1
			c-0.2-0.1-0.4-0.2-0.5-0.4c-0.1-0.2-0.2-0.3-0.2-0.5c0-0.2,0-0.3,0-0.4s0-0.2,0.1-0.4c0.1-0.2,0.2-0.4,0.5-0.7
			c0.3-0.2,0.6-0.4,1.1-0.6c0.5-0.2,1.2-0.3,2-0.3c0.6,0,1.3,0.1,2.1,0.2c0.8,0.1,1.6,0.3,2.3,0.6c0.7,0.3,1.4,0.7,1.9,1.2
			s0.8,1.1,0.8,1.8c0,0.5-0.2,1-0.7,1.4c-0.4,0.5-1,0.9-1.7,1.3c-0.7,0.4-1.4,0.8-2.2,1.3c-0.8,0.4-1.5,0.9-2.2,1.4s-1.2,1-1.7,1.6
			c-0.4,0.6-0.7,1.2-0.7,1.9c0,0.1,0.1,0.3,0.2,0.6c0.1,0.3,0.4,0.4,0.8,0.4c0.3,0,0.7-0.1,1.1-0.3c0.4-0.2,0.8-0.4,1.1-0.7
			c0.3-0.3,0.6-0.6,0.9-1c0.3-0.4,0.4-0.8,0.4-1.2c0,0,0-0.1,0-0.1v-0.3c0-0.2,0.1-0.5,0.2-0.8c0.1-0.3,0.3-0.5,0.5-0.8
			c0.2-0.2,0.5-0.4,0.8-0.6c0.3-0.2,0.6-0.2,0.9-0.2c0.2,0,0.4,0,0.5,0.1c0.2,0.1,0.3,0.3,0.3,0.6c0.1,0.9,0.2,1.7,0.4,2.6
			c0.2,0.7,0.4,1.4,0.7,2.1c0.3,0.7,0.6,1.2,1.1,1.6c0.2,0.2,0.3,0.4,0.4,0.5c0.1,0.2,0.2,0.3,0.3,0.5
			C169.4,50.7,169.5,50.9,169.5,51.1z"/>
		<path class="st0" d="M184.6,41.1c0,0.3-0.1,0.4-0.3,0.6c-0.2,0.1-0.4,0.2-0.6,0.3c-0.3,0.1-0.5,0.1-0.9,0.1
			c-0.6,0-1.1-0.1-1.4-0.3c-0.3-0.2-0.6-0.4-0.8-0.7c-0.2-0.3-0.3-0.5-0.4-0.7c-0.1-0.2-0.2-0.3-0.3-0.3c-0.2,0-0.5,0.3-0.9,1
			c-0.4,0.7-0.9,1.5-1.3,2.6c-0.4,1-0.8,2.2-1.2,3.5c-0.3,1.3-0.5,2.5-0.5,3.7c0,0.5-0.2,0.9-0.4,1.1c-0.3,0.2-0.7,0.3-1.1,0.3
			c-0.5,0-0.9-0.2-1.2-0.7c-0.3-0.4-0.5-1-0.6-1.7c-0.1-0.7-0.2-1.4-0.2-2.2c0-0.8,0-1.6,0-2.4c0-1.3,0-2.5,0.1-3.7
			c0.1-1.2,0.2-2.3,0.3-3.2c0.1-0.7,0.2-1.3,0.4-1.8c0.2-0.5,0.4-0.8,0.6-1.1c0.2-0.3,0.5-0.4,0.8-0.5c0.3-0.1,0.7-0.2,1.1-0.2
			c0.2,0,0.3,0.1,0.4,0.2c0.1,0.1,0.2,0.2,0.3,0.4c0.1,0.2,0.1,0.4,0.1,0.7c0,0.2,0,0.3,0,0.4c-0.1,0.4-0.1,0.9-0.2,1.4
			c-0.1,0.4-0.1,0.9-0.2,1.4s-0.1,1.1-0.2,1.6c0,0.1,0,0.1,0,0.2c0,0.1,0.1,0.1,0.2,0.1s0.2-0.1,0.2-0.2c0.2-0.5,0.4-1,0.7-1.6
			c0.2-0.5,0.5-1,0.8-1.6c0.3-0.6,0.6-1.2,1-1.7c0.2-0.3,0.3-0.5,0.4-0.7c0.1-0.2,0.3-0.5,0.6-1c0.2-0.3,0.5-0.5,0.8-0.7
			c0.3-0.2,0.5-0.3,0.8-0.5c0.3-0.2,0.6-0.2,0.9-0.2c0.3,0,0.5,0.1,0.7,0.2c0.2,0.2,0.3,0.4,0.3,0.8c0,0.4,0,0.8-0.1,1.2
			c-0.1,0.4-0.1,0.9-0.1,1.4c0,0.9,0.1,1.6,0.2,2.1c0.2,0.5,0.3,0.9,0.5,1.2c0.2,0.3,0.4,0.5,0.5,0.7
			C184.5,40.8,184.6,40.9,184.6,41.1z"/>
		<path class="st0" d="M200.3,51.1c0,0.4-0.1,0.7-0.3,0.9c-0.2,0.2-0.4,0.4-0.7,0.4c-0.3,0.1-0.6,0.2-0.9,0.2c-0.6,0-1-0.2-1.4-0.5
			c-0.4-0.3-0.7-0.7-1-1.1c-0.3-0.5-0.6-1-0.8-1.7c0-0.2-0.1-0.2-0.2-0.2c-0.1,0-0.1,0-0.2,0.1l-0.1,0.1c-0.5,0.5-1,1-1.5,1.3
			c-0.5,0.3-1,0.6-1.5,0.8c-0.5,0.2-0.9,0.3-1.3,0.3c-0.4,0-0.7,0.1-0.9,0.1c-0.9,0-1.6-0.2-2.2-0.5c-0.5-0.3-0.9-0.7-1.2-1.1
			c-0.3-0.4-0.4-0.9-0.5-1.3c-0.1-0.4-0.1-0.7-0.1-0.9c0-0.6,0.1-1.2,0.3-1.8c0.2-0.6,0.5-1.1,0.9-1.7c0.4-0.5,0.8-1,1.3-1.4
			c0.5-0.4,1-0.9,1.5-1.2c1.2-0.9,2.5-1.6,4-2.3c0.1,0,0.2-0.1,0.3-0.1c0.2-0.1,0.3-0.3,0.3-0.4c0-0.3-0.3-0.6-0.9-0.7
			c-0.6-0.1-1.2-0.2-1.8-0.2c-0.3,0-0.6,0-0.8,0c-0.3,0-0.5,0-0.7,0.1c-0.3,0-0.5,0-0.7,0c-0.3,0-0.6,0-0.8-0.1
			c-0.2-0.1-0.4-0.2-0.5-0.4c-0.1-0.2-0.2-0.3-0.2-0.5c0-0.2,0-0.3,0-0.4s0-0.2,0.1-0.4c0.1-0.2,0.2-0.4,0.5-0.7
			c0.3-0.2,0.6-0.4,1.1-0.6c0.5-0.2,1.2-0.3,2-0.3c0.6,0,1.3,0.1,2.1,0.2c0.8,0.1,1.6,0.3,2.3,0.6c0.7,0.3,1.4,0.7,1.9,1.2
			s0.8,1.1,0.8,1.8c0,0.5-0.2,1-0.7,1.4c-0.4,0.5-1,0.9-1.7,1.3c-0.7,0.4-1.4,0.8-2.2,1.3c-0.8,0.4-1.5,0.9-2.2,1.4s-1.2,1-1.7,1.6
			c-0.4,0.6-0.7,1.2-0.7,1.9c0,0.1,0.1,0.3,0.2,0.6c0.1,0.3,0.4,0.4,0.8,0.4c0.3,0,0.7-0.1,1.1-0.3c0.4-0.2,0.8-0.4,1.1-0.7
			c0.3-0.3,0.6-0.6,0.9-1c0.3-0.4,0.4-0.8,0.4-1.2c0,0,0-0.1,0-0.1v-0.3c0-0.2,0.1-0.5,0.2-0.8c0.1-0.3,0.3-0.5,0.5-0.8
			c0.2-0.2,0.5-0.4,0.8-0.6c0.3-0.2,0.6-0.2,0.9-0.2c0.2,0,0.4,0,0.5,0.1c0.2,0.1,0.3,0.3,0.3,0.6c0.1,0.9,0.2,1.7,0.4,2.6
			c0.2,0.7,0.4,1.4,0.7,2.1c0.3,0.7,0.6,1.2,1.1,1.6c0.2,0.2,0.3,0.4,0.4,0.5c0.1,0.2,0.2,0.3,0.3,0.5
			C200.2,50.7,200.3,50.9,200.3,51.1z"/>
		<path class="st0" d="M6.2,68.2c-0.5,2.1-0.9,4.2-1.3,6.4c-0.3,1.9-0.6,4-0.9,6.2c-0.3,2.3-0.4,4.5-0.4,6.6c0,1.6,0.1,3.1,0.3,4.5
			c0.2,1.4,0.5,2.6,1,3.5c0,0.1,0.1,0.2,0.1,0.3c0.1,0.3,0.2,0.5,0.2,0.8c0,0.3-0.2,0.6-0.5,1S4,98.4,3.4,98.4
			c-0.3,0-0.6-0.1-0.8-0.2c-0.2-0.1-0.4-0.3-0.6-0.4c-0.2-0.2-0.4-0.4-0.5-0.7c-0.5-1-0.9-2.3-1.1-3.8S0,90.2,0,88.4
			c0-1.6,0.1-3.3,0.2-5.1c0.1-1.7,0.3-3.4,0.6-5.1c0.2-1.7,0.5-3.3,0.8-4.9s0.6-3,1-4.4c0.1-0.3,0.2-0.6,0.4-0.8
			c0.2-0.2,0.4-0.4,0.7-0.6c0.3-0.2,0.7-0.3,1.2-0.4c0.3,0,0.7,0,1,0.1c0.3,0.1,0.5,0.3,0.5,0.6L6.2,68.2z"/>
		<path class="st0" d="M21.3,85.8c0,1.5-0.2,2.9-0.7,4c-0.4,1.2-1,2.1-1.8,2.9c-0.7,0.8-1.5,1.4-2.4,1.8c-0.9,0.4-1.8,0.6-2.7,0.6
			c-1.2,0-2.2-0.3-2.8-0.9c-0.7-0.6-1.2-1.3-1.5-2c-0.3-0.9-0.6-1.8-0.6-2.9c0-0.7,0.1-1.4,0.2-2.1c0.2-0.6,0.3-1.2,0.6-1.8
			c0.3-0.6,0.5-1.2,0.9-1.7c0,0,0-0.1-0.1-0.2c0,0-0.1,0-0.1,0c-0.5,0-0.9-0.1-1.2-0.3c-0.3-0.2-0.4-0.5-0.4-0.8
			c0-0.4,0.2-0.8,0.5-1.2c0.3-0.4,0.8-0.8,1.3-1.1s1.2-0.5,1.8-0.7c0.7-0.2,1.3-0.3,2-0.3c0.6,0,1.2,0.1,2,0.3
			c0.8,0.2,1.6,0.5,2.3,1s1.4,1.2,1.9,2C21,83.2,21.3,84.4,21.3,85.8z M17.5,86.8c0-0.8-0.1-1.5-0.3-2.1c-0.2-0.5-0.4-1-0.7-1.4
			c-0.3-0.4-0.8-0.6-1.4-0.6c-0.2,0-0.4,0.1-0.7,0.3c-0.3,0.2-0.5,0.6-0.8,1c-0.2,0.4-0.4,1-0.6,1.7c-0.2,0.7-0.3,1.4-0.3,2.3
			c0,0.3,0,0.6,0,1s0.1,0.9,0.2,1.3c0.1,0.4,0.4,0.8,0.7,1.1c0.3,0.3,0.7,0.5,1.3,0.5c0.6,0,1.1-0.3,1.5-0.8
			c0.3-0.5,0.6-1.1,0.8-1.7C17.3,88.6,17.4,87.7,17.5,86.8z"/>
		<path class="st0" d="M36.1,90.7c0,1-0.3,1.8-0.9,2.5c-0.6,0.7-1.3,1.3-2.2,1.8s-1.7,0.8-2.6,1s-1.7,0.3-2.3,0.3
			c-1.4,0-2.4-0.3-3-0.9c-0.6-0.6-0.9-1.2-0.9-1.8c0-0.5,0.2-0.9,0.6-1.2c0.4-0.3,0.7-0.4,1-0.4c0.3,0,0.7,0.1,1.2,0.4
			c0.5,0.2,1.1,0.4,1.8,0.4c1,0,1.7-0.1,2.2-0.4s0.7-0.6,0.7-1c0-0.3-0.2-0.6-0.5-0.9c-0.4-0.2-0.8-0.4-1.4-0.6
			c-0.6-0.2-1.1-0.3-1.8-0.5c-0.6-0.2-1.2-0.4-1.8-0.7c-0.6-0.3-1-0.6-1.4-1c-0.4-0.4-0.5-0.9-0.5-1.5c0-0.8,0.2-1.6,0.7-2.4
			c0.5-0.9,1.1-1.6,1.9-2.3c0.8-0.7,1.7-1.3,2.7-1.8c1-0.5,2-0.7,3.1-0.7c0.9,0,1.6,0.3,2.2,0.8c0.5,0.5,0.8,1.3,0.8,2.4
			c0,0.5-0.1,1-0.4,1.4c-0.3,0.4-0.7,0.7-1.4,0.7c-0.4,0-0.6-0.1-0.8-0.3c-0.1-0.2-0.2-0.4-0.3-0.7c-0.1-0.2-0.2-0.5-0.4-0.7
			c-0.2-0.2-0.5-0.3-0.9-0.3c-0.2,0-0.5,0.1-0.8,0.2c-0.3,0.1-0.7,0.3-1.1,0.6c-0.4,0.3-0.7,0.6-0.9,0.9c-0.3,0.3-0.4,0.7-0.4,1.1
			c0,0.4,0.2,0.7,0.6,0.9c0.4,0.3,0.9,0.5,1.4,0.7c0.6,0.2,1.2,0.4,1.9,0.6c0.7,0.2,1.3,0.4,1.9,0.7c0.6,0.3,1,0.6,1.4,1
			C35.9,89.6,36.1,90.1,36.1,90.7z"/>
		<path class="st0" d="M65.7,84.2c0,1.6-0.4,3.1-1.2,4.5c-0.8,1.4-1.7,2.6-2.9,3.6c-1.2,1-2.4,1.9-3.7,2.5s-2.6,1-3.7,1.2
			c-0.1,0-0.1,0-0.2,0.1c0,0.1-0.1,0.1-0.1,0.1c-0.1,1.9-0.1,3.8-0.1,5.9c0,0.7,0,1.4,0.1,2.1c0.1,0.6,0.1,1.2,0.2,1.8
			s0.2,1.2,0.4,1.6c0.2,0.5,0.3,0.9,0.4,1.2s0.1,0.5,0.1,0.6c0,0.6-0.2,1.1-0.6,1.3c-0.4,0.2-0.8,0.4-1.1,0.4c-0.3,0-0.4,0-0.5,0
			c-0.1,0-0.2,0-0.2,0c-0.5-0.2-0.9-0.6-1.2-1.3c-0.3-0.7-0.5-1.5-0.6-2.2c-0.1-0.8-0.2-1.5-0.2-2.2c0-0.7,0-1.1,0-1.2
			c0-1.1,0-2,0-2.8c0-0.8,0-1.5,0-2.1s0-1.2,0-1.6c0-0.5,0-0.9,0-1.4c0,0,0-0.1,0-0.1c-0.1-0.1-0.1-0.1-0.2-0.1
			c-0.6-0.1-1.2-0.3-1.7-0.6c-0.4-0.2-0.8-0.5-1.1-0.9c-0.3-0.4-0.5-0.8-0.5-1.4c0-0.5,0.2-0.9,0.5-1.1c0.3-0.3,0.6-0.4,0.9-0.4
			c0.3,0,0.7,0.1,1.1,0.3c0.4,0.2,0.7,0.3,1,0.3c0.1,0,0.2,0,0.3-0.1c0,0,0-0.1,0-0.1c0.2-2.2,0.3-4.1,0.6-5.7
			c0.2-1.6,0.4-2.9,0.7-3.9c0.2-1.2,0.5-2.2,0.7-3c0.1-0.3,0.2-0.5,0.4-0.7c0.2-0.2,0.4-0.3,0.7-0.5c0.3-0.2,0.6-0.2,1.1-0.2
			c0.2,0,0.5,0,0.8,0.1c0.3,0.1,0.4,0.3,0.4,0.8c0,0.1-0.1,0.4-0.2,0.9c-0.1,0.5-0.2,1.1-0.4,1.8c-0.1,0.7-0.2,1.3-0.4,2
			c-0.1,0.6-0.2,1.1-0.2,1.4c0,0.1,0,0.2,0.1,0.2c0,0,0.1-0.1,0.2-0.2c0.6-0.8,1.3-1.4,2.1-2c0.7-0.5,1.5-1,2.5-1.4
			c1-0.4,2.1-0.6,3.3-0.6c0.5,0.1,0.9,0.2,1.3,0.5c0.3,0.3,0.7,0.6,0.9,1C65.5,82.8,65.7,83.4,65.7,84.2z M62,85.6
			c0-0.3,0-0.5-0.1-0.6c-0.1-0.2-0.2-0.3-0.3-0.3c-0.1-0.1-0.3-0.1-0.5-0.1c-0.8,0-1.6,0.3-2.4,0.9c-0.8,0.6-1.6,1.3-2.3,2.1
			c-0.7,0.8-1.2,1.7-1.7,2.5c-0.4,0.9-0.6,1.5-0.6,2c0,0.2,0,0.3,0.1,0.3c0.1,0,0.1,0,0.2,0c0.9,0,1.7-0.3,2.6-0.8
			c0.9-0.5,1.7-1.1,2.5-1.8c0.7-0.7,1.3-1.5,1.8-2.2C61.7,86.9,62,86.2,62,85.6z"/>
		<path class="st0" d="M80.3,82.8c0,1-0.2,1.9-0.6,2.9c-0.4,0.9-1,1.8-1.6,2.5c-0.7,0.7-1.5,1.3-2.3,1.8s-1.8,0.7-2.8,0.7
			c-0.1,0-0.1,0-0.2,0.1c0,0,0,0.1,0,0.1c0.1,0.7,0.2,1.3,0.5,1.7c0.3,0.4,0.5,0.7,0.8,1c0.3,0.3,0.7,0.5,1.1,0.6
			c0.8,0.2,1.3,0.5,1.5,0.9c0.2,0.4,0.3,0.7,0.3,0.9c0,0.4-0.1,0.7-0.3,0.9c-0.2,0.2-0.4,0.4-0.7,0.5c-0.3,0.1-0.6,0.2-0.9,0.2
			c-1.1,0-2-0.2-2.7-0.7c-0.7-0.5-1.3-1-1.7-1.6c-0.5-0.7-0.9-1.5-1.2-2.4l-0.1-0.6c-0.1-0.2-0.1-0.4-0.1-0.7c0-0.3-0.1-0.6-0.1-0.9
			c0,0,0-0.1,0-0.1c-0.1-0.1-0.1-0.1-0.2-0.1c-0.4-0.1-0.7-0.2-1-0.3c-0.3-0.2-0.5-0.4-0.7-0.7c-0.2-0.3-0.3-0.7-0.3-1.2
			c0-0.3,0.1-0.5,0.2-0.7c0.1-0.2,0.2-0.3,0.3-0.4c0.1-0.1,0.3-0.2,0.5-0.2c0.1,0,0.2,0,0.4,0.1c0.2,0,0.5,0.1,0.8,0.2
			c0.1,0,0.1,0,0.1,0c0,0,0,0,0,0c0.4-1.5,1-2.8,1.8-4c0.3-0.5,0.7-1,1-1.5c0.4-0.5,0.8-0.9,1.3-1.3c0.5-0.4,1-0.7,1.6-0.9
			c0.6-0.2,1.2-0.3,1.9-0.3c0.3,0,0.7,0,1.1,0.1c0.4,0.1,0.8,0.3,1.2,0.6c0.4,0.3,0.7,0.7,0.9,1.2C80.2,81.4,80.3,82.1,80.3,82.8z
			 M76.9,83.3c0-0.2,0-0.3-0.1-0.5c-0.1-0.1-0.1-0.2-0.2-0.4c-0.1-0.1-0.2-0.2-0.4-0.2c-0.4,0-0.8,0.2-1.2,0.5
			c-0.4,0.3-0.8,0.8-1.2,1.3c-0.4,0.5-0.7,1.1-0.9,1.7c-0.2,0.6-0.3,1.1-0.3,1.6c0,0.2,0.1,0.2,0.2,0.2c0.2,0,0.6-0.1,1-0.3
			c0.5-0.2,0.9-0.4,1.4-0.8c0.5-0.3,0.9-0.8,1.2-1.3C76.8,84.7,76.9,84.1,76.9,83.3z"/>
		<path class="st0" d="M100.1,94.1c0,0.1,0,0.3-0.1,0.5c0,0.2-0.1,0.5-0.2,0.7c-0.1,0.2-0.2,0.4-0.4,0.6c-0.2,0.2-0.4,0.3-0.6,0.3
			c-0.3,0-0.4-0.1-0.5-0.2c-0.1-0.1-0.3-0.2-0.6-0.2c-0.2,0-0.4,0-0.7,0.1c-0.3,0.1-0.5,0.2-0.7,0.3s-0.4,0.2-0.6,0.3
			c-0.2,0.1-0.3,0.2-0.3,0.3c-0.2,1.5-0.4,3.2-0.6,5.1c-0.2,1.9-0.3,3.8-0.3,5.7c0,1,0,1.9,0.1,2.4c0,0.6,0.1,1.1,0.2,1.4
			c0.1,0.4,0.1,0.7,0.2,0.9c0,0.3,0.1,0.5,0.1,0.9c0,0.3-0.1,0.6-0.2,0.7c-0.1,0.2-0.3,0.3-0.5,0.4c-0.2,0.1-0.3,0.1-0.5,0.1
			c-0.2,0-0.3,0-0.3,0c-0.8,0-1.5-0.5-1.9-1.5c-0.5-1-0.7-2.4-0.7-4.2c0-0.5,0-1.1,0.1-2c0.1-0.9,0.2-1.8,0.3-2.7s0.2-1.9,0.3-2.7
			c0.1-0.9,0.2-1.5,0.3-2c0-0.1,0-0.1-0.1-0.1c-0.1,0-0.2,0.1-0.3,0.3c-0.2,0.2-0.3,0.3-0.5,0.5c-0.2,0.2-0.4,0.4-0.7,0.5
			c-0.3,0.2-0.5,0.2-0.8,0.2c-0.2,0-0.4-0.1-0.5-0.2c-0.1-0.1-0.2-0.2-0.3-0.4c-0.1-0.2-0.2-0.3-0.2-0.6c0-0.3,0-0.6,0.1-0.8
			c0.1-0.3,0.2-0.5,0.3-0.6c0.1-0.2,0.3-0.4,0.4-0.5c0.3-0.3,0.6-0.5,0.9-0.9c0.3-0.3,0.6-0.5,1-0.9c0.4-0.3,0.8-0.7,1.3-1
			c0.3-1,0.5-2,0.6-2.8s0.1-1.3,0.1-1.3c0-0.1,0-0.2-0.1-0.2c-0.2,0-0.5,0.3-1.1,0.9c-0.6,0.6-1.2,1.2-2,1.9
			c-0.8,0.7-1.6,1.3-2.6,1.9c-0.9,0.6-1.8,0.9-2.7,0.9c-0.7,0-1.2-0.2-1.5-0.5c-0.3-0.3-0.6-0.7-0.8-1.1c-0.2-0.4-0.3-1-0.3-1.7
			c0-1.1,0.3-2.4,0.9-3.9s1.4-2.8,2.4-4.1c1-1.3,2.1-2.4,3.4-3.2s2.5-1.3,3.8-1.3c0.3,0,0.5,0,0.8,0.1s0.6,0.2,0.9,0.4
			c0.3,0.2,0.5,0.6,0.7,1.1c0.2,0.5,0.3,1.1,0.3,1.9c0,0.3,0,0.7,0,1c0,0.4-0.1,0.8-0.2,1.3c0,0.1,0.1,0.2,0.2,0.2
			c0.1,0,0.2-0.1,0.3-0.1c0.1,0,0.2-0.1,0.3-0.1c0.1,0,0.2,0,0.4,0c0.5,0,0.7,0.4,0.7,1.2c0,0.4,0,0.7,0,0.9s-0.1,0.5-0.1,0.8
			c-0.1,0.3-0.1,0.8-0.2,1.4c-0.1,0.6-0.2,1.5-0.4,2.6c0,0,0,0.1,0,0.1c0,0,0.1,0,0.1,0c0.4-0.2,0.7-0.3,1.1-0.4
			c0.3-0.1,0.7-0.2,1.2-0.2c0.4,0,0.8,0.1,1.1,0.4C99.9,93,100.1,93.4,100.1,94.1z M91.9,87.3c0-0.3,0-0.6,0-1
			c0-0.3-0.1-0.6-0.2-0.9c-0.1-0.3-0.2-0.5-0.4-0.7s-0.4-0.3-0.7-0.3c-0.6,0-1.1,0.3-1.7,0.8c-0.6,0.5-1.1,1.1-1.6,1.9
			c-0.5,0.7-0.9,1.5-1.2,2.2s-0.4,1.4-0.4,1.9c0,0.3,0,0.5,0.1,0.7c0.1,0.2,0.3,0.4,0.6,0.4c0.3,0,0.8-0.2,1.4-0.7
			c0.6-0.5,1.2-1,1.8-1.6c0.6-0.6,1.1-1.2,1.5-1.7C91.7,87.8,91.9,87.4,91.9,87.3z"/>
		<path class="st0" d="M116.1,93.7c0,0.4-0.1,0.8-0.3,1c-0.2,0.2-0.4,0.4-0.6,0.5c-0.3,0.1-0.6,0.2-0.9,0.2c-0.5,0-1-0.1-1.3-0.4
			c-0.4-0.3-0.7-0.6-0.9-1c-0.2-0.4-0.4-0.7-0.5-1s-0.1-0.5-0.1-0.6c0-0.1,0-0.1-0.1-0.1c-0.1,0-0.1,0-0.2,0.1c0,0-0.1,0-0.1,0
			c-0.5,0.9-1.1,1.7-1.7,2.2c-0.6,0.5-1.1,0.9-1.6,1.1c-0.5,0.2-0.9,0.4-1.2,0.4s-0.5,0.1-0.6,0.1c-0.8,0-1.5-0.3-2-0.8
			c-0.6-0.5-1-1.2-1.3-2c-0.3-0.8-0.6-1.7-0.8-2.6c-0.2-0.9-0.2-1.8-0.2-2.7c0-0.8,0.1-1.7,0.2-2.7c0.1-1,0.4-1.9,0.7-2.8
			s0.7-1.6,1.2-2.2c0.5-0.6,1.1-0.9,1.8-0.9c0.1,0,0.3,0,0.4,0c0.2,0,0.3,0.1,0.5,0.2c0.2,0.1,0.3,0.3,0.4,0.5
			c0.1,0.2,0.2,0.5,0.2,0.9c0,0.3,0,0.7-0.1,1.1c-0.1,0.4-0.2,0.9-0.5,1.5c-0.2,0.6-0.4,1.2-0.6,1.8c-0.2,0.5-0.3,1.1-0.4,1.8
			c-0.1,0.7-0.1,1.3-0.1,1.9c0,0.7,0.1,1.3,0.4,1.9c0.3,0.5,0.7,0.8,1.3,0.8c0.5-0.1,1-0.3,1.4-0.8c0.4-0.3,0.8-0.9,1.2-1.7
			c0.4-0.8,0.7-1.8,1-3.2c0-0.2,0.1-0.5,0.1-0.7c0-0.2,0.1-0.5,0.1-0.8s0-0.6,0-0.9c0-0.2,0.1-0.4,0.2-0.6c0.1-0.2,0.3-0.5,0.5-0.7
			c0.2-0.2,0.5-0.4,0.8-0.6c0.3-0.2,0.6-0.2,1-0.2c0.3,0,0.7,0.1,0.9,0.2c0.3,0.2,0.4,0.5,0.4,1c0,0.3-0.1,0.8-0.2,1.4
			c-0.1,0.7-0.2,1.6-0.2,2.8c0,0.9,0.1,1.7,0.2,2.5c0.2,0.8,0.4,1.4,0.7,1.9c0.1,0.2,0.3,0.4,0.6,0.7
			C116,93.1,116.1,93.4,116.1,93.7z"/>
		<path class="st0" d="M131.1,82.8c0,1-0.2,1.9-0.6,2.9c-0.4,0.9-1,1.8-1.6,2.5c-0.7,0.7-1.5,1.3-2.3,1.8s-1.8,0.7-2.8,0.7
			c-0.1,0-0.1,0-0.2,0.1c0,0,0,0.1,0,0.1c0.1,0.7,0.2,1.3,0.5,1.7c0.3,0.4,0.5,0.7,0.8,1c0.3,0.3,0.7,0.5,1.1,0.6
			c0.8,0.2,1.3,0.5,1.5,0.9c0.2,0.4,0.3,0.7,0.3,0.9c0,0.4-0.1,0.7-0.3,0.9c-0.2,0.2-0.4,0.4-0.7,0.5c-0.3,0.1-0.6,0.2-0.9,0.2
			c-1.1,0-2-0.2-2.7-0.7c-0.7-0.5-1.3-1-1.7-1.6c-0.5-0.7-0.9-1.5-1.2-2.4l-0.1-0.6c-0.1-0.2-0.1-0.4-0.1-0.7c0-0.3-0.1-0.6-0.1-0.9
			c0,0,0-0.1,0-0.1c-0.1-0.1-0.1-0.1-0.2-0.1c-0.4-0.1-0.7-0.2-1-0.3c-0.3-0.2-0.5-0.4-0.7-0.7c-0.2-0.3-0.3-0.7-0.3-1.2
			c0-0.3,0.1-0.5,0.2-0.7c0.1-0.2,0.2-0.3,0.3-0.4c0.1-0.1,0.3-0.2,0.5-0.2c0.1,0,0.2,0,0.4,0.1c0.2,0,0.5,0.1,0.8,0.2
			c0.1,0,0.1,0,0.1,0c0,0,0,0,0,0c0.4-1.5,1-2.8,1.8-4c0.3-0.5,0.7-1,1-1.5c0.4-0.5,0.8-0.9,1.3-1.3c0.5-0.4,1-0.7,1.6-0.9
			c0.6-0.2,1.2-0.3,1.9-0.3c0.3,0,0.7,0,1.1,0.1c0.4,0.1,0.8,0.3,1.2,0.6c0.4,0.3,0.7,0.7,0.9,1.2C130.9,81.4,131.1,82.1,131.1,82.8
			z M127.7,83.3c0-0.2,0-0.3-0.1-0.5c-0.1-0.1-0.1-0.2-0.2-0.4c-0.1-0.1-0.2-0.2-0.4-0.2c-0.4,0-0.8,0.2-1.2,0.5
			c-0.4,0.3-0.8,0.8-1.2,1.3c-0.4,0.5-0.7,1.1-0.9,1.7c-0.2,0.6-0.3,1.1-0.3,1.6c0,0.2,0.1,0.2,0.2,0.2c0.2,0,0.6-0.1,1-0.3
			c0.5-0.2,0.9-0.4,1.4-0.8c0.5-0.3,0.9-0.8,1.2-1.3C127.5,84.7,127.7,84.1,127.7,83.3z"/>
		<path class="st0" d="M145.1,90.7c0,1-0.3,1.8-0.9,2.5c-0.6,0.7-1.3,1.3-2.2,1.8s-1.7,0.8-2.6,1s-1.7,0.3-2.3,0.3
			c-1.4,0-2.4-0.3-3-0.9c-0.6-0.6-0.9-1.2-0.9-1.8c0-0.5,0.2-0.9,0.6-1.2c0.4-0.3,0.7-0.4,1-0.4c0.3,0,0.7,0.1,1.2,0.4
			c0.5,0.2,1.1,0.4,1.8,0.4c1,0,1.7-0.1,2.2-0.4s0.7-0.6,0.7-1c0-0.3-0.2-0.6-0.5-0.9c-0.4-0.2-0.8-0.4-1.4-0.6
			c-0.6-0.2-1.1-0.3-1.8-0.5c-0.6-0.2-1.2-0.4-1.8-0.7c-0.6-0.3-1-0.6-1.4-1c-0.4-0.4-0.5-0.9-0.5-1.5c0-0.8,0.2-1.6,0.7-2.4
			c0.5-0.9,1.1-1.6,1.9-2.3c0.8-0.7,1.7-1.3,2.7-1.8c1-0.5,2-0.7,3.1-0.7c0.9,0,1.6,0.3,2.2,0.8c0.5,0.5,0.8,1.3,0.8,2.4
			c0,0.5-0.1,1-0.4,1.4c-0.3,0.4-0.7,0.7-1.4,0.7c-0.4,0-0.6-0.1-0.8-0.3c-0.1-0.2-0.2-0.4-0.3-0.7c-0.1-0.2-0.2-0.5-0.4-0.7
			c-0.2-0.2-0.5-0.3-0.9-0.3c-0.2,0-0.5,0.1-0.8,0.2c-0.3,0.1-0.7,0.3-1.1,0.6c-0.4,0.3-0.7,0.6-0.9,0.9c-0.3,0.3-0.4,0.7-0.4,1.1
			c0,0.4,0.2,0.7,0.6,0.9c0.4,0.3,0.9,0.5,1.4,0.7c0.6,0.2,1.2,0.4,1.9,0.6c0.7,0.2,1.3,0.4,1.9,0.7c0.6,0.3,1,0.6,1.4,1
			C144.9,89.6,145.1,90.1,145.1,90.7z"/>
		<path class="st0" d="M153.6,93.6c0,0.5-0.1,0.9-0.4,1.2s-0.5,0.6-0.8,0.9c-0.3,0.2-0.6,0.4-1,0.5c-0.3,0.1-0.6,0.2-0.9,0.2
			c-0.1,0-0.3,0-0.5,0c-0.2,0-0.4-0.1-0.6-0.2c-0.2-0.1-0.4-0.3-0.5-0.6c-0.1-0.3-0.2-0.6-0.2-1c0-0.3,0.1-0.6,0.2-0.9
			c0.1-0.3,0.3-0.6,0.6-0.9c0.3-0.3,0.6-0.5,0.9-0.7c0.4-0.2,0.8-0.3,1.3-0.3c0.5,0,0.9,0.2,1.3,0.5
			C153.5,92.4,153.6,92.9,153.6,93.6z M154.9,75c0,1.4-0.1,3.1-0.2,5.1c-0.2,2-0.5,4.2-1,6.8c-0.1,0.3-0.2,0.5-0.4,0.8
			c-0.2,0.2-0.4,0.4-0.7,0.5c-0.3,0.1-0.7,0.2-1.2,0.2c-0.5,0-0.8-0.1-0.9-0.4c-0.1-0.2-0.2-0.5-0.2-0.7V87c0,0,0-0.1,0-0.1
			c0.3-2.4,0.4-4.4,0.5-6.2c0-1.8,0-3.3,0-4.6c0-1,0-1.9,0-2.7s-0.1-1.3-0.1-1.8c-0.1-0.5-0.1-1-0.1-1.3c0-0.1,0-0.3,0-0.4
			c0-0.2,0.1-0.3,0.3-0.5c0.2-0.2,0.4-0.3,0.7-0.4c0.3-0.1,0.7-0.2,1.2-0.2c0.1,0,0.2,0,0.4,0c0.2,0,0.4,0.1,0.7,0.3
			s0.4,0.4,0.6,0.7c0.2,0.3,0.3,0.7,0.3,1.3c0,0.3,0.1,0.7,0.1,1c0,0.3,0.1,0.8,0.1,1.2C154.9,73.9,154.9,74.4,154.9,75z"/>
	</g>
	<circle class="st0" cx="73" cy="3.9" r="3.9"/>
	<circle class="st0" cx="87.4" cy="3.9" r="3.9"/>
	<circle class="st0" cx="101.7" cy="3.9" r="3.9"/>
	<circle class="st0" cx="116" cy="3.9" r="3.9"/>
	<circle class="st0" cx="130.3" cy="3.9" r="3.9"/>
	<g>
		<path class="st0" d="M189.2,113.4c4-2,1.3-8.2,1-11.3c-0.3-2.9,2.1-4.8,4.9-4.8c2,0,3,2.3,3.5,3.9c1.2,4.2,0.9,8.9,0.7,13.2
			c-0.1,2.8-0.7,6,0.1,8.8c0.9,2.9,2.4,6.8,5,8.6c2.4,1.6,5-0.5,4.5-3.2c-0.2-0.9-0.7-1.8-1.1-2.7c-0.5-1-0.6-1.7-0.4-2.9
			c0.5-2.2,2.4-0.1,2.9,0.3c1.7,1.8,2.3,4.5,3.7,6.5c2.3,3.5,6.1,3.6,9.2,1c2.8-2.4,0.7-6-1.3-8.2c-3.9-4.4-9.7-6.4-13.7-10.7
			c-1.8-1.9-4.8-6.7-3.7-9.3c1.5-3.4,4.5,0.2,5.2,1.5c0.6,1.1,1.1,2.3,1.6,3.5c1.5,3.3,3.9,6.4,7.7,4.2c2.9-1.7,2-4.5,0.2-6.6
			c-2.7-3.1-7.1-4.5-8.1-8.8c-0.5-2,0.3-4.2,2.4-5c1.9-0.7,4.2,0.3,5.7,1.3c3,1.8,5,5.1,6.7,8c2.1,3.8,5,8.5,9.8,8.8
			c5,0.3,7.1-5,5.8-9.1c-1.4-4.5-6.5-5.9-10.5-7c-4.9-1.4-11.6-2.3-14.5-7.1c-0.8-1.4-1-3.2-0.7-4.8c0.4-2,2.6-1.7,4.1-1.3
			c3.1,0.8,4.9,3.1,6.7,5.6c1.1,1.5,2.8,3.1,4.8,2.7c2.2-0.5,3.6-2.1,3.9-4.4c0.8-5.2-7.2-7.8-10.9-8.6c-6.8-1.4-13.7,1-20.5,0.5
			c-4-0.3-7.7-2-10.6-4.7c-2.2-2.1-4.2-4.6-7.3-5.3c-0.1,0-0.1,0-0.1,0c-0.2,0-0.4,0.1-0.5,0.4c-0.7,4.4,3.5,8.9,4.7,13
			c1.9,6.6-1.5,11.5-5.3,16.5c-2.9,3.8-5.5,7.9-4.5,12.8C181,112.5,185.5,115.2,189.2,113.4z"/>
		<path class="st0" d="M192.9,126.6c0.1,0,0.9-0.5,1.4-1.8c1-2.4,1.2-4.6,0.1-7c-1.4-3-4.7-2.7-6.9-0.9
			C182.8,120.6,187.8,129,192.9,126.6z"/>
		<path class="st0" d="M173.5,99.1c3-0.4,5.3-3.4,6.7-5.9c1.8-3.1,2.3-6.7,2.2-10.3c-0.2-7.2-3.8-15.1-10.5-18.4
			c-0.5-0.2-0.9,0.3-0.8,0.6c0,0.1,0,0.3,0.1,0.4c3,3.2,6.6,7.5,4.5,12c-1.8,3.8-5.5,6.5-7.5,10.3c-1.2,2.4-2.2,5.2-1.3,7.8
			C167.8,98.4,171.1,99.4,173.5,99.1z"/>
	</g>
</g>
</svg>
