<?xml version="1.0" encoding="utf-8"?>
<!-- Generator: Adobe Illustrator 21.1.0, SVG Export Plug-In . SVG Version: 6.00 Build 0)  -->
<svg version="1.1" id="Capa_1" xmlns="http://www.w3.org/2000/svg" xmlns:xlink="http://www.w3.org/1999/xlink" x="0px" y="0px"
	 viewBox="0 0 241 152.5" style="enable-background:new 0 0 241 152.5;" xml:space="preserve">
<style type="text/css">
	.st0{fill:#FFFFFF;}
	.st1{fill:none;stroke:#FFFFFF;stroke-width:2.6501;stroke-miterlimit:10;}
</style>
<g>
	<g>
		<g>
			<path class="st0" d="M19.3,94.4c0,0.8-0.1,1.5-0.4,2.2c-0.2,0.7-0.6,1.3-0.9,1.9c-0.4,0.5-0.8,1-1.2,1.3
				c-0.5,0.3-0.9,0.5-1.3,0.5c-0.3,0-0.5-0.1-0.6-0.2c-0.1-0.1-0.2-0.3-0.2-0.5c0-0.3,0.1-0.7,0.2-1.1c0.1-0.4,0.2-1,0.2-1.7
				c0-1.1-0.1-1.7-0.4-1.9c-0.3-0.2-0.5-0.4-0.6-0.4c-0.9,0-1.9,0.8-2.8,2.5c-0.9,1.7-1.8,4.3-2.5,7.9v0.1c0,0,0.1,0.1,0.2,0.1
				c0.5-0.1,1.1-0.1,1.7-0.2s1.4-0.1,2.2-0.1c0.3,0,0.6,0.1,0.8,0.2c0.2,0.1,0.4,0.2,0.5,0.5s0.3,0.5,0.3,0.9c0,0.8-0.2,1.4-0.6,1.8
				c-0.4,0.5-0.8,0.7-1.3,0.7c-0.9,0-1.6,0-2.3,0.1c-0.7,0.1-1.4,0.2-2,0.3c-0.1,0-0.1,0.1-0.1,0.1c0,0,0,0.1-0.1,0.1
				c0,0-0.1,0.1-0.1,0.1c-0.2,1.3-0.3,2.6-0.4,4c-0.1,1.4-0.1,2.9-0.1,4.4c0,1.3,0,2.3,0.1,3.1s0.1,1.4,0.2,1.9
				c0.1,0.5,0.1,1,0.2,1.4c0.1,0.5,0.1,1,0.1,1.7c0,0.4-0.1,0.7-0.3,0.9c-0.2,0.2-0.4,0.4-0.6,0.6c-0.2,0.1-0.5,0.2-0.7,0.3
				c-0.3,0.1-0.5,0.1-0.7,0.1c-0.6,0-1.1-0.2-1.5-0.6c-0.3-0.4-0.6-1-0.8-1.7s-0.3-1.4-0.3-2.3c0-0.9-0.1-1.7-0.1-2.6
				c0-0.6,0-1.1,0-1.6s0-1,0.1-1.4c0-0.5,0.1-0.9,0.1-1.3c0-2,0.1-3.8,0.3-5.4v-0.1c0-0.1-0.1-0.1-0.2-0.1c0,0-0.2,0-0.3,0.1
				c-0.2,0.1-0.4,0.2-0.6,0.3c-0.2,0.1-0.5,0.2-0.7,0.3c-0.2,0.1-0.4,0.1-0.6,0.1c-0.4,0-0.7-0.2-0.8-0.6C0,110.7,0,110.5,0,110.2
				c0-0.5,0.1-0.8,0.2-1.2c0.2-0.3,0.3-0.6,0.5-0.8c0.2-0.3,0.5-0.5,0.8-0.7c0.2-0.1,0.4-0.2,0.6-0.3c0.2-0.1,0.4-0.2,0.7-0.3
				c0.3-0.1,0.6-0.2,0.9-0.4c0.1,0,0.1,0,0.1-0.1c0,0,0-0.1,0.1-0.1c0,0,0-0.1,0.1-0.1c0.5-2.9,1.1-5.3,2-7.4s1.9-3.8,3-5.1
				s2.2-2.3,3.3-3c1.1-0.6,2.2-1,3.1-1c0.4,0,0.8,0.1,1.3,0.2c0.5,0.1,0.9,0.4,1.3,0.7c0.4,0.4,0.7,0.8,1,1.5
				C19.2,92.7,19.3,93.5,19.3,94.4z"/>
			<path class="st0" d="M31,111.6c0,1.8-0.3,3.4-0.8,4.8c-0.5,1.4-1.2,2.5-2.1,3.4c-0.9,0.9-1.8,1.6-2.9,2.1
				c-1.1,0.5-2.2,0.7-3.2,0.7c-1.5,0-2.6-0.4-3.4-1.1c-0.8-0.7-1.4-1.5-1.7-2.4c-0.4-1-0.7-2.2-0.7-3.5c0-0.9,0.1-1.7,0.3-2.5
				c0.2-0.8,0.4-1.5,0.7-2.1c0.3-0.7,0.6-1.4,1-2c0,0-0.1-0.1-0.2-0.2c0,0-0.1-0.1-0.1-0.1c-0.6,0-1.1-0.1-1.4-0.4
				c-0.3-0.2-0.5-0.6-0.5-0.9c0-0.5,0.2-1,0.6-1.5c0.4-0.5,0.9-0.9,1.6-1.3c0.7-0.4,1.4-0.6,2.2-0.9c0.8-0.2,1.6-0.3,2.4-0.3
				c0.7,0,1.5,0.1,2.4,0.3c0.9,0.2,1.9,0.6,2.7,1.2c0.9,0.6,1.6,1.4,2.3,2.4C30.7,108.5,31,109.9,31,111.6z M26.4,112.8
				c0-0.9-0.2-1.8-0.4-2.5c-0.2-0.6-0.5-1.2-0.9-1.7c-0.4-0.5-1-0.7-1.7-0.7c-0.2,0-0.5,0.1-0.8,0.4s-0.6,0.7-0.9,1.2
				c-0.3,0.5-0.5,1.2-0.7,2c-0.2,0.8-0.3,1.7-0.3,2.7c0,0.3,0,0.7,0,1.2c0,0.5,0.1,1,0.3,1.6c0.2,0.5,0.4,1,0.8,1.4
				c0.4,0.4,0.9,0.6,1.6,0.6c0.8,0,1.3-0.3,1.7-0.9c0.4-0.6,0.7-1.3,0.9-2.1C26.2,114.9,26.3,113.9,26.4,112.8z"/>
			<path class="st0" d="M48.3,111.8c0,0.3-0.1,0.5-0.3,0.7c-0.2,0.2-0.4,0.3-0.7,0.4c-0.3,0.1-0.6,0.2-1,0.2c-0.8,0-1.3-0.1-1.7-0.4
				c-0.4-0.2-0.7-0.5-0.9-0.8s-0.4-0.6-0.5-0.8c-0.1-0.2-0.2-0.4-0.4-0.4c-0.2,0-0.6,0.4-1.1,1.2c-0.5,0.8-1,1.8-1.6,3
				c-0.5,1.2-1,2.6-1.4,4.1s-0.6,3-0.6,4.4c0,0.6-0.2,1.1-0.5,1.3c-0.4,0.2-0.8,0.3-1.3,0.3c-0.6,0-1.1-0.3-1.4-0.8
				c-0.3-0.5-0.6-1.2-0.7-2c-0.2-0.8-0.2-1.7-0.3-2.7c0-1-0.1-1.9-0.1-2.8c0-1.5,0-3,0.1-4.5c0.1-1.5,0.2-2.7,0.3-3.8
				c0.1-0.9,0.3-1.6,0.5-2.1c0.2-0.6,0.4-1,0.7-1.3c0.3-0.3,0.6-0.5,1-0.6c0.4-0.1,0.8-0.2,1.4-0.2c0.2,0,0.4,0.1,0.5,0.2
				c0.1,0.1,0.2,0.2,0.3,0.4c0.1,0.2,0.2,0.5,0.2,0.8c0,0.2,0,0.4-0.1,0.5c-0.1,0.5-0.2,1.1-0.3,1.6c-0.1,0.5-0.2,1-0.3,1.7
				c-0.1,0.6-0.2,1.3-0.2,1.9c0,0.1,0,0.2,0.1,0.2c0,0.1,0.1,0.2,0.2,0.2c0.1,0,0.2-0.1,0.2-0.3c0.2-0.6,0.5-1.2,0.8-1.9
				c0.3-0.6,0.6-1.2,0.9-1.9c0.3-0.7,0.8-1.4,1.2-2.1c0.2-0.3,0.4-0.6,0.5-0.9c0.1-0.2,0.3-0.6,0.7-1.2c0.3-0.3,0.6-0.6,0.9-0.8
				c0.3-0.2,0.6-0.4,1-0.6c0.3-0.2,0.7-0.3,1.1-0.3c0.3,0,0.6,0.1,0.8,0.3c0.3,0.2,0.4,0.5,0.4,0.9c0,0.5,0,1-0.1,1.4
				c-0.1,0.5-0.1,1-0.1,1.7c0,1.1,0.1,1.9,0.3,2.5c0.2,0.6,0.4,1.1,0.6,1.4c0.2,0.4,0.4,0.6,0.6,0.8
				C48.2,111.4,48.3,111.6,48.3,111.8z"/>
			<path class="st0" d="M73.8,117.4c0,1.2-0.4,2.2-1.1,3c-0.7,0.8-1.6,1.6-2.6,2.1c-1,0.6-2.1,1-3.2,1.2c-1.1,0.3-2,0.4-2.8,0.4
				c-1.7,0-2.8-0.3-3.6-1c-0.7-0.7-1.1-1.4-1.1-2.1c0-0.6,0.2-1.1,0.7-1.4c0.5-0.3,0.8-0.5,1.2-0.5c0.4,0,0.9,0.1,1.5,0.4
				s1.3,0.4,2.2,0.4c1.2,0,2-0.2,2.6-0.5c0.6-0.4,0.9-0.8,0.9-1.2c0-0.4-0.2-0.8-0.6-1c-0.4-0.3-1-0.5-1.6-0.7
				c-0.7-0.2-1.4-0.4-2.1-0.6c-0.8-0.2-1.5-0.5-2.1-0.8c-0.7-0.3-1.2-0.7-1.6-1.2c-0.4-0.5-0.6-1.1-0.6-1.8c0-0.9,0.3-1.9,0.9-2.9
				c0.6-1,1.3-1.9,2.3-2.8c0.9-0.8,2-1.6,3.2-2.1c1.2-0.6,2.4-0.8,3.7-0.8c1.1,0,2,0.3,2.6,0.9c0.6,0.6,1,1.6,1,2.9
				c0,0.6-0.2,1.2-0.5,1.7c-0.3,0.5-0.8,0.8-1.6,0.8c-0.5,0-0.8-0.1-0.9-0.4c-0.2-0.2-0.3-0.5-0.4-0.8c-0.1-0.3-0.3-0.5-0.5-0.8
				c-0.2-0.2-0.6-0.4-1.1-0.4c-0.2,0-0.5,0.1-1,0.3c-0.4,0.2-0.8,0.4-1.3,0.7c-0.4,0.3-0.8,0.7-1.1,1.1c-0.3,0.4-0.5,0.9-0.5,1.4
				c0,0.5,0.2,0.8,0.7,1.1s1,0.6,1.7,0.8c0.7,0.3,1.4,0.5,2.2,0.7s1.6,0.5,2.2,0.8c0.7,0.3,1.2,0.7,1.7,1.2
				C73.6,116.1,73.8,116.7,73.8,117.4z"/>
			<path class="st0" d="M93.1,123.7c0,0.5-0.1,0.8-0.3,1s-0.5,0.4-0.8,0.5c-0.3,0.1-0.7,0.2-1.1,0.2c-0.7,0-1.3-0.2-1.7-0.6
				c-0.5-0.4-0.9-0.8-1.2-1.3c-0.4-0.6-0.7-1.2-0.9-2c0-0.2-0.1-0.3-0.2-0.3c-0.1,0-0.2,0-0.2,0.1l-0.1,0.1
				c-0.6,0.6-1.1,1.2-1.7,1.6c-0.6,0.4-1.2,0.7-1.7,0.9c-0.6,0.2-1.1,0.3-1.5,0.4s-0.8,0.1-1.1,0.1c-1.1,0-2-0.2-2.6-0.6
				c-0.6-0.4-1.1-0.8-1.4-1.4c-0.3-0.5-0.5-1-0.6-1.5s-0.1-0.9-0.1-1.1c0-0.8,0.1-1.5,0.4-2.2c0.3-0.7,0.6-1.4,1.1-2s1-1.2,1.5-1.7
				c0.6-0.5,1.1-1,1.7-1.5c1.4-1,3-1.9,4.8-2.8c0.1,0,0.2-0.1,0.3-0.2c0.2-0.1,0.3-0.3,0.3-0.5c0-0.4-0.3-0.7-1-0.8
				c-0.7-0.1-1.4-0.2-2.2-0.2c-0.3,0-0.7,0-1,0c-0.3,0-0.6,0-0.8,0.1c-0.3,0-0.6,0.1-0.8,0.1c-0.4,0-0.7,0-1-0.1
				c-0.2-0.1-0.4-0.3-0.5-0.5c-0.1-0.2-0.2-0.4-0.2-0.6c0-0.2-0.1-0.4-0.1-0.5c0-0.1,0-0.3,0.1-0.5c0.1-0.2,0.3-0.5,0.6-0.8
				s0.7-0.5,1.3-0.7c0.6-0.2,1.4-0.3,2.4-0.3c0.7,0,1.5,0.1,2.5,0.2c1,0.2,1.9,0.4,2.8,0.8c0.9,0.4,1.6,0.8,2.3,1.4
				c0.6,0.6,0.9,1.3,0.9,2.1c0,0.6-0.3,1.2-0.8,1.7c-0.5,0.5-1.2,1.1-2,1.6c-0.8,0.5-1.6,1-2.6,1.5c-0.9,0.5-1.8,1.1-2.6,1.6
				c-0.8,0.6-1.4,1.2-2,1.9c-0.5,0.7-0.8,1.5-0.8,2.3c0,0.2,0.1,0.4,0.2,0.7c0.1,0.3,0.5,0.5,1,0.5c0.4,0,0.8-0.1,1.3-0.3
				c0.5-0.2,0.9-0.5,1.3-0.9c0.4-0.4,0.8-0.8,1.1-1.2s0.5-0.9,0.5-1.4c0,0-0.1-0.1-0.1-0.1v-0.3c0-0.3,0.1-0.6,0.2-0.9
				c0.1-0.3,0.3-0.6,0.6-0.9c0.3-0.3,0.6-0.5,0.9-0.7c0.3-0.2,0.7-0.3,1.1-0.3c0.2,0,0.4,0.1,0.6,0.2c0.2,0.1,0.3,0.4,0.3,0.7
				c0.1,1.1,0.3,2.1,0.5,3c0.2,0.8,0.5,1.7,0.8,2.5c0.3,0.8,0.8,1.5,1.3,1.9c0.2,0.2,0.4,0.4,0.5,0.6c0.1,0.2,0.2,0.4,0.3,0.6
				C93,123.2,93.1,123.4,93.1,123.7z"/>
			<path class="st0" d="M113.6,105.3c0,0.2-0.1,0.5-0.3,0.8c-0.2,0.4-0.5,0.9-1.1,1.5c-0.5,0.5-1.1,1.2-1.7,2.1
				c-0.6,0.9-1.2,1.9-1.9,3.1c-0.6,1.2-1.3,2.5-1.8,3.9c-0.6,1.4-1.1,2.9-1.6,4.5c-0.2,0.7-0.4,1.3-0.7,1.9
				c-0.3,0.5-0.6,0.9-1.1,1.2c-0.5,0.4-1,0.6-1.6,0.6c-0.8,0-1.5-0.3-2.1-0.9c-0.6-0.6-1.2-1.3-1.7-2.3c-0.5-0.9-0.9-1.9-1.3-3.1
				s-0.6-2.2-0.9-3.4c-0.2-1.1-0.4-2.1-0.5-3.1c-0.1-0.9-0.2-1.7-0.2-2.3c0-1.2,0.1-2.1,0.4-2.8s0.9-1,1.8-1c0.2,0,0.3,0,0.6,0.1
				c0.2,0,0.5,0.1,0.7,0.3c0.2,0.2,0.4,0.4,0.5,0.6s0.2,0.7,0.2,1.2c0,0.8,0.1,1.9,0.2,3.1c0.2,1.3,0.3,2.5,0.5,3.7
				c0.2,1.2,0.4,2.2,0.7,3.1c0.3,0.9,0.5,1.3,0.8,1.3c0.2,0,0.3-0.1,0.5-0.5c0.6-2,1.3-3.9,2-5.7c0.3-0.8,0.6-1.6,1-2.4
				c0.4-0.8,0.8-1.6,1.2-2.3s0.8-1.5,1.3-2.1s0.9-1.3,1.4-1.7c0.2-0.2,0.5-0.4,0.7-0.6c0.2-0.1,0.5-0.3,0.8-0.4
				c0.3-0.1,0.7-0.2,1.1-0.2c0.5,0,0.9,0.1,1.4,0.4C113.4,104,113.6,104.5,113.6,105.3z"/>
			<path class="st0" d="M130,111.6c0,1.8-0.3,3.4-0.8,4.8c-0.5,1.4-1.2,2.5-2.1,3.4c-0.9,0.9-1.8,1.6-2.9,2.1
				c-1.1,0.5-2.2,0.7-3.2,0.7c-1.5,0-2.6-0.4-3.4-1.1c-0.8-0.7-1.4-1.5-1.7-2.4c-0.4-1-0.7-2.2-0.7-3.5c0-0.9,0.1-1.7,0.3-2.5
				c0.2-0.8,0.4-1.5,0.7-2.1c0.3-0.7,0.6-1.4,1-2c0,0-0.1-0.1-0.2-0.2c0,0-0.1-0.1-0.1-0.1c-0.6,0-1.1-0.1-1.4-0.4
				c-0.3-0.2-0.5-0.6-0.5-0.9c0-0.5,0.2-1,0.6-1.5c0.4-0.5,0.9-0.9,1.6-1.3c0.7-0.4,1.4-0.6,2.2-0.9c0.8-0.2,1.6-0.3,2.4-0.3
				c0.7,0,1.5,0.1,2.4,0.3c0.9,0.2,1.9,0.6,2.7,1.2c0.9,0.6,1.6,1.4,2.3,2.4C129.7,108.5,130,109.9,130,111.6z M125.5,112.8
				c0-0.9-0.2-1.8-0.4-2.5c-0.2-0.6-0.5-1.2-0.9-1.7c-0.4-0.5-1-0.7-1.7-0.7c-0.2,0-0.5,0.1-0.8,0.4s-0.6,0.7-0.9,1.2
				c-0.3,0.5-0.5,1.2-0.7,2c-0.2,0.8-0.3,1.7-0.3,2.7c0,0.3,0,0.7,0,1.2c0,0.5,0.1,1,0.3,1.6c0.2,0.5,0.4,1,0.8,1.4
				c0.4,0.4,0.9,0.6,1.6,0.6c0.8,0,1.3-0.3,1.7-0.9c0.4-0.6,0.7-1.3,0.9-2.1C125.3,114.9,125.4,113.9,125.5,112.8z"/>
			<path class="st0" d="M150.1,121.1c0,0.5-0.1,0.9-0.3,1.2c-0.2,0.3-0.5,0.5-0.8,0.6c-0.3,0.1-0.7,0.2-1.1,0.2
				c-0.6,0-1.2-0.2-1.6-0.5c-0.4-0.3-0.8-0.7-1-1.2c-0.3-0.4-0.5-0.8-0.6-1.2c-0.1-0.4-0.2-0.6-0.2-0.7c0-0.1,0-0.2-0.1-0.2
				c-0.1,0-0.2,0-0.2,0.1c0,0-0.1,0.1-0.1,0.1c-0.6,1.1-1.3,2-2,2.6s-1.3,1.1-1.9,1.4s-1.1,0.5-1.5,0.5s-0.6,0.1-0.7,0.1
				c-0.9,0-1.7-0.3-2.4-1c-0.7-0.6-1.2-1.4-1.6-2.4c-0.4-1-0.7-2-0.9-3.1c-0.2-1.1-0.3-2.2-0.3-3.2c0-0.9,0.1-2,0.3-3.2
				c0.2-1.2,0.4-2.3,0.8-3.3c0.4-1,0.8-1.9,1.4-2.6c0.6-0.7,1.3-1,2.1-1c0.1,0,0.3,0,0.5,0c0.2,0,0.4,0.1,0.6,0.2
				c0.2,0.1,0.3,0.3,0.5,0.6c0.1,0.3,0.2,0.6,0.2,1.1c0,0.4,0,0.8-0.1,1.3c-0.1,0.5-0.3,1.1-0.6,1.8c-0.3,0.7-0.5,1.4-0.7,2.2
				c-0.2,0.6-0.3,1.4-0.5,2.1c-0.1,0.8-0.2,1.5-0.2,2.3c0,0.9,0.1,1.6,0.5,2.2c0.3,0.6,0.8,0.9,1.6,0.9c0.6-0.1,1.2-0.4,1.7-0.9
				c0.5-0.4,0.9-1.1,1.4-2c0.5-0.9,0.9-2.2,1.2-3.8c0-0.3,0.1-0.5,0.1-0.8c0-0.3,0.1-0.6,0.1-0.9c0-0.3,0.1-0.7,0.1-1
				c0-0.2,0.1-0.4,0.2-0.7c0.1-0.3,0.3-0.6,0.6-0.8c0.2-0.3,0.5-0.5,0.9-0.7c0.4-0.2,0.8-0.3,1.2-0.3c0.4,0,0.8,0.1,1.1,0.3
				c0.3,0.2,0.5,0.6,0.5,1.2c0,0.3-0.1,0.9-0.2,1.7c-0.1,0.8-0.2,1.9-0.2,3.4c0,1,0.1,2,0.3,3c0.2,1,0.5,1.7,0.8,2.3
				c0.2,0.2,0.4,0.5,0.7,0.9S150.1,120.6,150.1,121.1z"/>
			<path class="st0" d="M167,111.8c0,0.3-0.1,0.5-0.3,0.7c-0.2,0.2-0.4,0.3-0.7,0.4c-0.3,0.1-0.6,0.2-1,0.2c-0.8,0-1.3-0.1-1.7-0.4
				c-0.4-0.2-0.7-0.5-0.9-0.8s-0.4-0.6-0.5-0.8c-0.1-0.2-0.2-0.4-0.4-0.4c-0.2,0-0.6,0.4-1.1,1.2c-0.5,0.8-1,1.8-1.6,3
				c-0.5,1.2-1,2.6-1.4,4.1s-0.6,3-0.6,4.4c0,0.6-0.2,1.1-0.5,1.3c-0.4,0.2-0.8,0.3-1.3,0.3c-0.6,0-1.1-0.3-1.4-0.8
				c-0.3-0.5-0.6-1.2-0.7-2c-0.2-0.8-0.2-1.7-0.3-2.7c0-1-0.1-1.9-0.1-2.8c0-1.5,0-3,0.1-4.5c0.1-1.5,0.2-2.7,0.3-3.8
				c0.1-0.9,0.3-1.6,0.5-2.1c0.2-0.6,0.4-1,0.7-1.3c0.3-0.3,0.6-0.5,1-0.6c0.4-0.1,0.8-0.2,1.4-0.2c0.2,0,0.4,0.1,0.5,0.2
				c0.1,0.1,0.2,0.2,0.3,0.4c0.1,0.2,0.2,0.5,0.2,0.8c0,0.2,0,0.4-0.1,0.5c-0.1,0.5-0.2,1.1-0.3,1.6c-0.1,0.5-0.2,1-0.3,1.7
				c-0.1,0.6-0.2,1.3-0.2,1.9c0,0.1,0,0.2,0.1,0.2c0,0.1,0.1,0.2,0.2,0.2c0.1,0,0.2-0.1,0.2-0.3c0.2-0.6,0.5-1.2,0.8-1.9
				c0.3-0.6,0.6-1.2,0.9-1.9c0.3-0.7,0.8-1.4,1.2-2.1c0.2-0.3,0.4-0.6,0.5-0.9c0.1-0.2,0.3-0.6,0.7-1.2c0.3-0.3,0.6-0.6,0.9-0.8
				c0.3-0.2,0.6-0.4,1-0.6c0.3-0.2,0.7-0.3,1.1-0.3c0.3,0,0.6,0.1,0.8,0.3c0.3,0.2,0.4,0.5,0.4,0.9c0,0.5,0,1-0.1,1.4
				c-0.1,0.5-0.1,1-0.1,1.7c0,1.1,0.1,1.9,0.3,2.5c0.2,0.6,0.4,1.1,0.6,1.4c0.2,0.4,0.4,0.6,0.6,0.8
				C166.9,111.4,167,111.6,167,111.8z"/>
			<path class="st0" d="M173.8,106.6c0,0.2-0.1,0.6-0.2,1.2c-0.1,0.6-0.2,1.3-0.3,2.1c-0.1,0.8-0.2,1.7-0.3,2.7
				c-0.1,1-0.1,2.1-0.1,3.2c0,0.8,0,1.6,0.1,2.3c0.1,0.7,0.1,1.4,0.2,1.9c0.1,0.7,0.2,1.3,0.3,1.8c-0.1,0.5-0.3,0.9-0.8,1
				c-0.4,0.2-0.8,0.3-1.1,0.3c-0.3,0-0.7-0.1-1-0.2c-0.2-0.1-0.3-0.2-0.3-0.2c-0.6-0.8-1.1-1.8-1.3-3.2s-0.4-2.8-0.4-4.3
				c0-1.2,0-2.3,0.1-3.4s0.2-2.1,0.3-3c0.1-1.1,0.3-2,0.5-3c0-0.1,0.1-0.3,0.2-0.5c0.1-0.1,0.3-0.2,0.6-0.3s0.6-0.1,1.1-0.1
				c0.2,0,0.4,0,0.7,0.1c0.3,0.1,0.5,0.2,0.8,0.3c0.2,0.1,0.5,0.3,0.6,0.6C173.7,105.9,173.8,106.2,173.8,106.6z M175.6,96.2
				c0,0.3-0.1,0.6-0.2,1.1s-0.3,0.9-0.6,1.4c-0.3,0.5-0.7,0.8-1.2,1.2c-0.5,0.3-1.1,0.5-1.9,0.5c-0.7,0-1.2-0.2-1.4-0.6
				c-0.2-0.4-0.4-0.9-0.4-1.4c0-0.4,0.1-0.8,0.3-1.3c0.2-0.5,0.5-0.9,0.9-1.3s0.8-0.7,1.3-1c0.5-0.2,1-0.4,1.6-0.4
				c0.3,0,0.6,0.1,1,0.3C175.3,94.9,175.6,95.4,175.6,96.2z"/>
			<path class="st0" d="M196,120.8c0,0.6-0.1,1.1-0.4,1.4c-0.3,0.3-0.6,0.6-0.9,0.7c-0.4,0.2-0.8,0.2-1.3,0.3c-0.9,0-1.7-0.3-2.2-1
				c-0.5-0.7-0.9-1.5-1.2-2.4c-0.2-1-0.4-2-0.5-3c-0.1-1-0.1-1.9-0.1-2.7V113c0-0.4-0.2-0.6-0.5-0.6c-0.5,0-1,0.3-1.4,0.8
				c-0.5,0.6-0.9,1.3-1.4,2.1c-0.5,0.8-0.9,1.8-1.4,2.7c-0.4,1-0.8,1.9-1.2,2.8s-0.8,1.6-1.1,2.2c-0.4,0.6-0.7,0.9-0.9,1
				c-0.2,0-0.4,0.1-0.5,0.1c-0.2,0-0.3,0.1-0.5,0.1c-0.6,0-1-0.2-1.3-0.7s-0.6-1-0.7-1.8c-0.2-0.7-0.3-1.6-0.3-2.5s-0.1-1.9-0.1-2.9
				c0-0.8,0-1.7,0.1-2.8c0.1-1.1,0.2-2.2,0.4-3.3c0.1-1.1,0.3-2.1,0.5-3c0.2-0.9,0.4-1.6,0.7-2.1c0.2-0.3,0.4-0.7,0.7-1
				c0.2-0.2,0.5-0.4,0.9-0.6c0.4-0.2,0.8-0.3,1.3-0.3c0.1,0,0.2,0,0.4,0c0.2,0,0.4,0.1,0.6,0.2s0.4,0.2,0.5,0.4
				c0.2,0.2,0.2,0.5,0.2,0.8c0,0.5-0.2,1.1-0.5,1.7c-0.3,0.8-0.5,1.7-0.7,2.5c-0.2,0.7-0.3,1.5-0.5,2.3c-0.1,0.8-0.2,1.6-0.2,2.3
				c0,0.5,0.1,0.7,0.2,0.7c0.1,0,0.1,0,0.2-0.1c0.1-0.2,0.5-0.8,1-1.6c0.5-0.8,1.2-1.7,1.9-2.7c0.8-0.9,1.6-1.8,2.5-2.5
				c0.9-0.7,1.8-1.1,2.8-1.1c1.1,0,1.8,0.4,2,1.1c0.3,0.8,0.4,2,0.4,3.7c0,0.4,0,0.8-0.1,1.2c0,0.4-0.1,0.9-0.1,1.4
				c0,0.4,0,0.9,0,1.5s0.1,1.2,0.2,1.9s0.3,1.2,0.6,1.8c0.2,0.5,0.6,0.9,1,1.2l0.3,0.2C195.9,120.4,196,120.6,196,120.8z"/>
			<path class="st0" d="M215.9,117.1c0,1.9-0.1,3.8-0.2,5.9c-0.1,2-0.3,4.1-0.6,6c-0.3,2-0.7,3.9-1.2,5.6c-0.5,1.8-1.1,3.3-1.9,4.7
				c-0.8,1.3-1.6,2.4-2.7,3.2c-1,0.8-2.2,1.2-3.5,1.2c-0.4,0-0.7-0.1-1-0.2c-0.2-0.1-0.4-0.3-0.6-0.5c-0.2-0.2-0.3-0.4-0.3-0.6
				c0-0.3,0.1-0.6,0.3-0.9c0.2-0.3,0.4-0.6,0.7-0.8c0.3-0.3,0.7-0.5,1.1-0.8c1.3-1.1,2.3-2.5,3.1-4.2c0.8-1.7,1.4-3.4,1.9-5.2
				c0.5-1.8,0.8-3.7,0.9-5.5c0.2-1.8,0.3-3.4,0.3-4.9c0-0.4,0-0.8,0-1.1c0-0.3,0-0.7-0.1-1c0-0.8-0.1-1.2-0.3-1.5s-0.3-0.3-0.4-0.3
				c-0.2,0-0.7,0.4-1.5,1.1c-0.8,0.7-1.7,1.5-2.8,2.4c-1.1,0.9-2.3,1.7-3.6,2.4c-1.3,0.7-2.5,1.1-3.6,1.1c-0.7,0-1.2-0.1-1.6-0.4
				s-0.7-0.6-0.9-1c-0.2-0.4-0.3-0.8-0.4-1.3s-0.1-0.8-0.1-1.1c0-1.5,0.4-3.1,1.2-4.8c0.8-1.7,1.9-3.3,3.1-4.8s2.7-2.7,4.3-3.7
				c1.6-1,3.2-1.5,4.8-1.5c0.3,0,0.7,0,1,0.1c0.3,0.1,0.7,0.2,1,0.4c0.3,0.2,0.5,0.5,0.7,0.8c0.2,0.4,0.3,0.8,0.3,1.4
				c0,0.3,0,0.6,0,0.8c0,0.2,0,0.5-0.1,0.7c0,0.2-0.1,0.5-0.1,0.8c-0.1,0.3-0.1,0.7-0.3,1.2l-0.1,0.1v0.1c0,0.1,0,0.2,0.1,0.2
				l0.2-0.1c0.2-0.1,0.4-0.2,0.5-0.2c0.4-0.2,0.7-0.2,1.1-0.2c0.3,0,0.6,0.1,0.6,0.3s0.2,0.6,0.2,1.3c0,0.8,0.1,1.5,0.1,2.3
				C215.9,115.4,215.9,116.2,215.9,117.1z M209.6,111.1c0-0.3-0.1-0.6-0.2-0.8c-0.1-0.2-0.2-0.4-0.3-0.6c-0.2-0.2-0.4-0.3-0.6-0.3
				c-1,0-2,0.4-2.8,1.1c-0.9,0.7-1.6,1.6-2.3,2.5c-0.6,1-1.1,1.9-1.5,2.8c-0.4,0.9-0.5,1.6-0.5,2.1c0,0.5,0.2,0.8,0.6,0.8
				c0.6,0,1.3-0.3,2.1-0.8c0.9-0.5,1.7-1.1,2.5-1.9c0.8-0.8,1.5-1.6,2.1-2.5C209.3,112.7,209.6,111.9,209.6,111.1z"/>
		</g>
	</g>
	<g>
		<g>
			<path class="st0" d="M17.8,70.3c0,0.4-0.1,0.8-0.3,1c-0.2,0.2-0.4,0.4-0.7,0.5c-0.3,0.1-0.6,0.2-1,0.2c-0.3,0-0.6,0-0.9-0.1
				c-0.3-0.1-0.6-0.1-1-0.1c-1.1,0-2.1,0.1-3.1,0.4s-1.9,0.6-2.7,1S6.6,74,6,74.3c-0.6,0.3-1.1,0.4-1.4,0.4c-0.5,0-0.9-0.2-1.1-0.5
				c-0.2-0.3-0.3-0.6-0.3-1c0-0.4,0.1-0.7,0.3-1.1c0.2-0.3,0.5-0.6,0.7-0.9c0.3-0.3,0.6-0.5,0.9-0.7c0.3-0.2,0.6-0.4,0.8-0.5
				C5.9,70.2,6,70.1,6,70c0-0.1,0-0.1,0-0.2c-0.1-1.3-0.1-2.5-0.1-3.6c0-1.9,0.1-3.6,0.3-5.1s0.4-2.8,0.6-3.8
				c0.2-1.2,0.5-2.2,0.8-3.1c0.1-0.4,0.3-0.8,0.6-1.2c0.2-0.3,0.5-0.6,0.9-0.8c0.4-0.3,0.9-0.4,1.4-0.4c0.1,0,0.3,0,0.5,0
				c0.2,0,0.4,0.1,0.5,0.2s0.3,0.2,0.4,0.4c0.1,0.2,0.2,0.4,0.2,0.7c0,0.4-0.1,0.9-0.3,1.4c-0.4,1.1-0.8,2.2-1.1,3.5
				c-0.3,1.1-0.5,2.3-0.7,3.7c-0.2,1.4-0.3,2.9-0.3,4.4c0,0.4,0,0.9,0,1.4c0,0.5,0.1,0.9,0.1,1.4c0,0.1,0,0.1,0,0.1
				C9.8,69,9.9,69,9.9,69c0,0,0.2,0,0.5-0.1c0.3-0.1,0.7-0.2,1.1-0.3c0.4-0.1,0.9-0.2,1.5-0.3c0.6-0.1,1.1-0.1,1.6-0.1
				c0.3,0,0.6,0,1,0.1c0.4,0,0.7,0.1,1.1,0.3s0.6,0.3,0.8,0.6C17.7,69.4,17.8,69.8,17.8,70.3z"/>
			<path class="st0" d="M21.1,61.5c0,0.1-0.1,0.4-0.2,0.8c-0.1,0.4-0.2,0.9-0.2,1.4c-0.1,0.6-0.1,1.2-0.2,1.9
				c-0.1,0.7-0.1,1.4-0.1,2.2c0,0.6,0,1.1,0.1,1.6c0.1,0.5,0.1,0.9,0.2,1.3c0.1,0.5,0.2,0.9,0.2,1.2c-0.1,0.4-0.2,0.6-0.5,0.7
				s-0.6,0.2-0.8,0.2c-0.2,0-0.5-0.1-0.7-0.2c-0.1-0.1-0.2-0.1-0.2-0.2c-0.4-0.5-0.7-1.2-0.9-2.2c-0.2-0.9-0.3-1.9-0.3-3
				c0-0.8,0-1.6,0.1-2.4c0.1-0.8,0.1-1.5,0.2-2.1c0.1-0.7,0.2-1.4,0.3-2.1c0-0.1,0.1-0.2,0.2-0.3c0.1-0.1,0.2-0.1,0.4-0.2
				c0.2-0.1,0.4-0.1,0.7-0.1c0.1,0,0.3,0,0.5,0.1c0.2,0,0.4,0.1,0.5,0.2c0.2,0.1,0.3,0.2,0.4,0.4C21.1,61,21.1,61.2,21.1,61.5z
				 M22.3,54.3c0,0.2,0,0.4-0.1,0.7c-0.1,0.3-0.2,0.6-0.4,0.9c-0.2,0.3-0.5,0.6-0.8,0.8c-0.4,0.2-0.8,0.4-1.3,0.4
				c-0.5,0-0.8-0.1-1-0.4c-0.2-0.3-0.3-0.6-0.3-0.9c0-0.3,0.1-0.6,0.2-0.9c0.1-0.3,0.3-0.6,0.6-0.9c0.3-0.3,0.6-0.5,0.9-0.7
				c0.4-0.2,0.7-0.3,1.1-0.3c0.2,0,0.4,0.1,0.7,0.2C22.2,53.4,22.3,53.7,22.3,54.3z"/>
			<path class="st0" d="M36.3,53.1c0,0.5-0.1,1-0.3,1.5c-0.2,0.5-0.4,0.9-0.6,1.3c-0.3,0.4-0.5,0.7-0.9,0.9
				c-0.3,0.2-0.6,0.3-0.9,0.3c-0.2,0-0.4-0.1-0.4-0.2c-0.1-0.1-0.1-0.2-0.1-0.3c0-0.2,0-0.5,0.1-0.7s0.1-0.7,0.1-1.2
				c0-0.7-0.1-1.2-0.3-1.3c-0.2-0.2-0.3-0.3-0.4-0.3c-0.7,0-1.3,0.6-2,1.8c-0.7,1.2-1.2,3-1.8,5.5v0.1c0,0,0,0,0.1,0
				c0.4-0.1,0.8-0.1,1.2-0.1c0.4,0,0.9-0.1,1.5-0.1c0.2,0,0.4,0,0.5,0.1c0.1,0.1,0.3,0.2,0.4,0.3c0.1,0.2,0.2,0.4,0.2,0.6
				c0,0.5-0.1,0.9-0.4,1.2c-0.3,0.3-0.6,0.5-0.9,0.5c-0.6,0-1.1,0-1.6,0.1c-0.5,0.1-0.9,0.1-1.4,0.2c-0.1,0-0.1,0.1-0.1,0.1
				c0,0,0,0.1-0.1,0.1c0,0,0,0.1,0,0.1c-0.1,0.9-0.2,1.8-0.3,2.8c-0.1,1-0.1,2-0.1,3c0,0.9,0,1.6,0.1,2.1c0,0.5,0.1,1,0.1,1.3
				c0,0.4,0.1,0.7,0.1,1c0,0.3,0.1,0.7,0.1,1.2c0,0.3-0.1,0.5-0.2,0.6c-0.1,0.2-0.3,0.3-0.4,0.4c-0.2,0.1-0.3,0.2-0.5,0.2
				s-0.3,0.1-0.5,0.1c-0.4,0-0.8-0.2-1-0.4c-0.2-0.3-0.4-0.7-0.5-1.2c-0.1-0.5-0.2-1-0.2-1.6c0-0.6,0-1.2,0-1.8c0-0.4,0-0.8,0-1.1
				c0-0.4,0-0.7,0-1c0-0.3,0.1-0.6,0.1-0.9c0-1.4,0.1-2.6,0.2-3.7v-0.1c0-0.1,0-0.1-0.1-0.1c0,0-0.1,0-0.2,0.1
				c-0.1,0.1-0.3,0.1-0.4,0.2s-0.3,0.1-0.5,0.2c-0.2,0.1-0.3,0.1-0.4,0.1c-0.3,0-0.5-0.1-0.6-0.4C23,64.3,23,64.2,23,64
				c0-0.3,0.1-0.6,0.2-0.8s0.2-0.4,0.4-0.6c0.2-0.2,0.3-0.3,0.5-0.5c0.1-0.1,0.3-0.1,0.4-0.2c0.1-0.1,0.3-0.2,0.5-0.2
				c0.2-0.1,0.4-0.2,0.6-0.3c0.1,0,0.1,0,0.1,0c0,0,0-0.1,0-0.1c0,0,0-0.1,0-0.1c0.3-2,0.8-3.7,1.4-5.1s1.3-2.6,2.1-3.5
				c0.8-0.9,1.5-1.6,2.3-2c0.8-0.4,1.5-0.7,2.1-0.7c0.3,0,0.6,0,0.9,0.1c0.3,0.1,0.6,0.3,0.9,0.5s0.5,0.6,0.7,1S36.3,52.4,36.3,53.1
				z"/>
			<path class="st0" d="M44,62.5c0,0.8-0.2,1.6-0.5,2.4c-0.3,0.8-0.8,1.5-1.3,2c-0.6,0.6-1.2,1.1-1.9,1.4c-0.7,0.4-1.5,0.5-2.3,0.5
				c-0.1,0-0.1,0-0.2,0.1c0,0,0,0.1,0,0.1c0.1,0.6,0.2,1.1,0.4,1.4s0.4,0.6,0.7,0.8c0.3,0.2,0.6,0.4,0.9,0.5
				c0.7,0.2,1.1,0.4,1.2,0.7c0.1,0.3,0.2,0.6,0.2,0.8c0,0.3-0.1,0.6-0.3,0.8c-0.2,0.2-0.4,0.3-0.6,0.4c-0.2,0.1-0.5,0.2-0.8,0.2
				c-0.9,0-1.6-0.2-2.2-0.6s-1.1-0.9-1.4-1.3c-0.4-0.6-0.7-1.2-1-2l-0.1-0.5c-0.1-0.2-0.1-0.3-0.1-0.5s-0.1-0.5-0.1-0.7
				c0,0,0-0.1,0-0.1c-0.1-0.1-0.1-0.1-0.2-0.1c-0.3-0.1-0.6-0.1-0.9-0.3c-0.2-0.1-0.4-0.3-0.6-0.5c-0.2-0.2-0.3-0.6-0.3-1
				c0-0.2,0.1-0.4,0.2-0.5c0.1-0.1,0.1-0.3,0.3-0.4c0.1-0.1,0.3-0.2,0.4-0.2c0.1,0,0.2,0,0.3,0.1s0.4,0.1,0.7,0.1c0.1,0,0.1,0,0.1,0
				c0,0,0,0,0,0c0.4-1.2,0.8-2.3,1.4-3.3c0.3-0.4,0.5-0.8,0.9-1.2c0.3-0.4,0.7-0.7,1.1-1.1c0.4-0.3,0.8-0.6,1.3-0.7
				c0.5-0.2,1-0.3,1.6-0.3c0.3,0,0.6,0,0.9,0.1s0.7,0.2,1,0.5c0.3,0.2,0.6,0.6,0.8,1C43.9,61.3,44,61.8,44,62.5z M41.2,62.9
				c0-0.2,0-0.3-0.1-0.4c-0.1-0.1-0.1-0.2-0.2-0.3c-0.1-0.1-0.2-0.1-0.4-0.1c-0.3,0-0.6,0.1-1,0.4c-0.4,0.3-0.7,0.6-1,1.1
				c-0.3,0.4-0.5,0.9-0.7,1.4c-0.2,0.5-0.3,0.9-0.3,1.3c0,0.1,0.1,0.2,0.2,0.2c0.2,0,0.5-0.1,0.8-0.2c0.4-0.1,0.8-0.4,1.2-0.6
				c0.4-0.3,0.7-0.6,1-1.1S41.2,63.5,41.2,62.9z"/>
			<path class="st0" d="M55.9,61.5c0,0.1-0.1,0.4-0.2,0.8c-0.1,0.4-0.2,0.9-0.2,1.4c-0.1,0.6-0.1,1.2-0.2,1.9
				c-0.1,0.7-0.1,1.4-0.1,2.2c0,0.6,0,1.1,0.1,1.6c0.1,0.5,0.1,0.9,0.2,1.3c0.1,0.5,0.2,0.9,0.2,1.2c-0.1,0.4-0.2,0.6-0.5,0.7
				s-0.6,0.2-0.8,0.2c-0.2,0-0.5-0.1-0.7-0.2c-0.1-0.1-0.2-0.1-0.2-0.2c-0.4-0.5-0.7-1.2-0.9-2.2c-0.2-0.9-0.3-1.9-0.3-3
				c0-0.8,0-1.6,0.1-2.4c0.1-0.8,0.1-1.5,0.2-2.1c0.1-0.7,0.2-1.4,0.3-2.1c0-0.1,0.1-0.2,0.2-0.3c0.1-0.1,0.2-0.1,0.4-0.2
				c0.2-0.1,0.4-0.1,0.7-0.1c0.1,0,0.3,0,0.5,0.1c0.2,0,0.4,0.1,0.5,0.2c0.2,0.1,0.3,0.2,0.4,0.4C55.8,61,55.9,61.2,55.9,61.5z
				 M57.1,54.3c0,0.2,0,0.4-0.1,0.7c-0.1,0.3-0.2,0.6-0.4,0.9c-0.2,0.3-0.5,0.6-0.8,0.8c-0.4,0.2-0.8,0.4-1.3,0.4
				c-0.5,0-0.8-0.1-1-0.4c-0.2-0.3-0.3-0.6-0.3-0.9c0-0.3,0.1-0.6,0.2-0.9c0.1-0.3,0.3-0.6,0.6-0.9c0.3-0.3,0.6-0.5,0.9-0.7
				c0.4-0.2,0.7-0.3,1.1-0.3c0.2,0,0.4,0.1,0.7,0.2C56.9,53.4,57.1,53.7,57.1,54.3z"/>
			<path class="st0" d="M68.1,69c0,0.8-0.2,1.5-0.7,2.1c-0.5,0.6-1.1,1.1-1.8,1.5c-0.7,0.4-1.4,0.7-2.2,0.9
				c-0.8,0.2-1.4,0.3-1.9,0.3c-1.1,0-2-0.2-2.5-0.7c-0.5-0.5-0.7-1-0.7-1.5c0-0.4,0.2-0.8,0.5-1c0.3-0.2,0.6-0.3,0.8-0.3
				c0.3,0,0.6,0.1,1,0.3c0.4,0.2,0.9,0.3,1.5,0.3c0.8,0,1.4-0.1,1.8-0.4s0.6-0.5,0.6-0.8c0-0.3-0.1-0.5-0.4-0.7
				c-0.3-0.2-0.7-0.4-1.1-0.5c-0.5-0.1-0.9-0.3-1.5-0.4c-0.5-0.1-1-0.3-1.5-0.5c-0.5-0.2-0.8-0.5-1.1-0.8c-0.3-0.3-0.4-0.7-0.4-1.2
				c0-0.6,0.2-1.3,0.6-2c0.4-0.7,0.9-1.3,1.6-1.9c0.6-0.6,1.4-1.1,2.2-1.5c0.8-0.4,1.7-0.6,2.5-0.6c0.8,0,1.4,0.2,1.8,0.6
				c0.4,0.4,0.7,1.1,0.7,2c0,0.4-0.1,0.8-0.3,1.2c-0.2,0.4-0.6,0.5-1.1,0.5c-0.3,0-0.5-0.1-0.6-0.3c-0.1-0.2-0.2-0.4-0.3-0.5
				c-0.1-0.2-0.2-0.4-0.3-0.5c-0.1-0.2-0.4-0.3-0.8-0.3c-0.2,0-0.4,0.1-0.7,0.2s-0.6,0.3-0.9,0.5c-0.3,0.2-0.6,0.5-0.8,0.7
				c-0.2,0.3-0.3,0.6-0.3,0.9c0,0.3,0.2,0.6,0.5,0.8c0.3,0.2,0.7,0.4,1.2,0.6s1,0.4,1.5,0.5c0.6,0.2,1.1,0.4,1.5,0.6
				c0.5,0.2,0.9,0.5,1.2,0.8C67.9,68.1,68.1,68.5,68.1,69z"/>
			<path class="st0" d="M96.9,72.9c0,0.3-0.1,0.5-0.2,0.7c-0.1,0.2-0.3,0.4-0.5,0.5c-0.2,0.1-0.4,0.2-0.6,0.3
				c-0.2,0.1-0.4,0.1-0.5,0.1c-0.6,0-1.2-0.2-1.6-0.6c-0.4-0.4-0.7-0.9-0.9-1.5c-0.2-0.6-0.3-1.3-0.4-2c-0.1-0.7-0.1-1.4-0.1-2
				c0-0.5,0-1,0-1.3c0-0.4,0-0.6,0-0.8c0-0.4,0-0.7-0.1-0.8c-0.1-0.1-0.2-0.2-0.3-0.2c-0.1,0-0.2,0-0.3,0.1
				c-0.1,0.1-0.2,0.2-0.3,0.2c-0.1,0.1-0.2,0.2-0.3,0.3c-0.3,0.4-0.6,0.8-0.9,1.4c-0.3,0.6-0.6,1.1-0.9,1.6c-0.3,0.6-0.6,1.3-0.9,2
				c-0.2,0.4-0.4,0.7-0.7,1c-0.2,0.3-0.6,0.5-1,0.5c-0.5,0-0.9-0.3-1.2-0.8c-0.3-0.5-0.5-1.1-0.6-1.8s-0.2-1.3-0.3-2
				c-0.1-0.7-0.1-1.1-0.2-1.3c-0.1-0.4-0.2-0.5-0.4-0.5c-0.1,0-0.1,0-0.2,0c-0.1,0-0.1,0.1-0.2,0.1c-0.1,0.1-0.1,0.1-0.2,0.1
				c-0.5,0.5-0.9,1.1-1.3,1.8c-0.4,0.8-0.7,1.5-1,2.2c-0.3,0.9-0.6,1.8-0.9,2.7c-0.1,0.5-0.3,0.7-0.5,0.8c-0.2,0.1-0.4,0.1-0.7,0.1
				c-0.3,0-0.6-0.1-0.8-0.2c-0.2-0.1-0.4-0.3-0.5-0.5s-0.2-0.4-0.2-0.6s-0.1-0.4-0.1-0.5c0-0.5,0-1,0.1-1.4c0-0.3,0.1-0.5,0.1-0.8
				c0.1-0.4,0.1-0.9,0.1-1.3c0-0.4,0-0.8,0-1.2c0-0.9-0.1-1.7-0.2-2.4s-0.2-1.2-0.4-1.7c-0.2-0.5-0.3-1-0.5-1.3c0,0-0.1-0.1-0.1-0.2
				c0-0.1,0-0.2,0-0.4c0-0.2,0-0.3,0.1-0.5c0.1-0.2,0.2-0.4,0.3-0.5c0.1-0.2,0.3-0.3,0.5-0.4s0.4-0.2,0.7-0.2s0.6,0.1,0.9,0.3
				c0.3,0.2,0.6,0.7,0.8,1.5c0.1,0.3,0.1,0.6,0.2,1c0.1,0.4,0.1,0.8,0.1,1.3c0,0.5,0.1,1.2,0.1,1.9c0,0,0,0.1,0,0.1
				c0,0.1,0,0.1,0.1,0.1c0,0,0.1,0,0.1-0.1c0.1-0.2,0.2-0.5,0.5-1c0.3-0.5,0.6-0.9,1-1.4c0.4-0.5,0.9-0.9,1.4-1.3
				c0.5-0.4,1.1-0.6,1.6-0.6c0.5,0,0.9,0.2,1.1,0.5c0.2,0.4,0.4,1.1,0.5,2.2c0,0.5,0.1,0.9,0.2,1.3c0.1,0.3,0.1,0.6,0.2,0.9
				c0.1,0.3,0.1,0.4,0.3,0.4c0.1,0,0.1-0.1,0.2-0.2c0.2-0.2,0.4-0.5,0.6-1.1c0-0.1,0.2-0.4,0.4-1c0.3-0.6,0.6-1.2,1.1-1.8
				c0.4-0.6,0.9-1.2,1.5-1.7s1.2-0.8,1.8-0.8c0.4,0,0.8,0.1,1.1,0.4c0.3,0.2,0.5,0.5,0.6,0.9c0.1,0.4,0.2,0.7,0.3,1.2
				c0,0.4,0.1,0.9,0.1,1.2c0,2.2,0.1,4,0.2,5.3c0.1,1.3,0.5,2.3,1.2,2.8c0.1,0,0.1,0.1,0.2,0.2c0.1,0.1,0.1,0.1,0.1,0.2
				S96.9,72.8,96.9,72.9z"/>
			<path class="st0" d="M109.9,73.3c0,0.3-0.1,0.6-0.2,0.7s-0.3,0.3-0.5,0.4c-0.2,0.1-0.5,0.2-0.8,0.2c-0.5,0-0.9-0.1-1.2-0.4
				s-0.6-0.6-0.8-0.9c-0.3-0.4-0.5-0.8-0.6-1.4c0-0.1-0.1-0.2-0.2-0.2c-0.1,0-0.1,0-0.2,0.1l-0.1,0.1c-0.4,0.4-0.8,0.8-1.2,1.1
				c-0.4,0.3-0.8,0.5-1.2,0.6c-0.4,0.1-0.7,0.2-1.1,0.3c-0.3,0-0.6,0.1-0.8,0.1c-0.8,0-1.4-0.1-1.8-0.4c-0.4-0.3-0.8-0.6-1-0.9
				c-0.2-0.4-0.3-0.7-0.4-1.1c-0.1-0.4-0.1-0.6-0.1-0.8c0-0.5,0.1-1,0.3-1.5c0.2-0.5,0.4-0.9,0.7-1.4c0.3-0.4,0.7-0.8,1.1-1.2
				s0.8-0.7,1.2-1c1-0.7,2.1-1.3,3.3-1.9c0.1,0,0.2-0.1,0.2-0.1c0.2-0.1,0.2-0.2,0.2-0.4c0-0.3-0.2-0.5-0.7-0.6
				c-0.5-0.1-1-0.2-1.5-0.2c-0.2,0-0.5,0-0.7,0c-0.2,0-0.4,0-0.6,0.1c-0.2,0-0.4,0-0.5,0c-0.3,0-0.5,0-0.7-0.1
				c-0.2-0.1-0.3-0.2-0.4-0.3c-0.1-0.1-0.1-0.3-0.2-0.4c0-0.1,0-0.3,0-0.3c0-0.1,0-0.2,0.1-0.4c0.1-0.2,0.2-0.4,0.4-0.5
				c0.2-0.2,0.5-0.4,0.9-0.5s1-0.2,1.7-0.2c0.5,0,1,0.1,1.7,0.2c0.7,0.1,1.3,0.3,1.9,0.5s1.1,0.6,1.6,1c0.4,0.4,0.6,0.9,0.6,1.4
				c0,0.4-0.2,0.8-0.5,1.2c-0.4,0.4-0.8,0.7-1.4,1.1s-1.1,0.7-1.8,1.1c-0.6,0.4-1.2,0.7-1.8,1.1c-0.5,0.4-1,0.8-1.4,1.3
				c-0.4,0.5-0.5,1-0.5,1.6c0,0.1,0,0.3,0.1,0.5c0.1,0.2,0.3,0.4,0.7,0.4c0.3,0,0.6-0.1,0.9-0.2c0.3-0.2,0.6-0.4,0.9-0.6
				s0.5-0.5,0.7-0.8c0.2-0.3,0.3-0.6,0.3-1c0,0,0-0.1,0-0.1v-0.2c0-0.2,0-0.4,0.1-0.6c0.1-0.2,0.2-0.4,0.4-0.6
				c0.2-0.2,0.4-0.4,0.6-0.5c0.2-0.1,0.5-0.2,0.8-0.2c0.2,0,0.3,0,0.4,0.1c0.1,0.1,0.2,0.2,0.2,0.5c0.1,0.7,0.2,1.4,0.4,2.1
				c0.1,0.6,0.3,1.1,0.5,1.7c0.2,0.6,0.5,1,0.9,1.3c0.1,0.2,0.2,0.3,0.4,0.4c0.1,0.1,0.2,0.3,0.2,0.4S109.9,73.1,109.9,73.3z"/>
			<path class="st0" d="M124.3,62.1c0,0.5-0.1,0.8-0.4,1s-0.5,0.2-0.7,0.2c-0.2,0-0.4,0-0.4,0s-0.1-0.1-0.2-0.1c0,0.3,0,0.7,0,1
				c0,0.4,0,0.7,0,1.1c0,0.7,0,1.3,0.1,2c0,0.6,0.1,1.2,0.2,1.7c0.1,0.5,0.2,1,0.3,1.3s0.3,0.6,0.5,0.8c0.2,0.1,0.3,0.3,0.3,0.4
				c0,0.1,0.1,0.2,0.1,0.3c0,0.3-0.1,0.6-0.2,0.7c-0.2,0.2-0.3,0.3-0.5,0.4c-0.2,0.1-0.4,0.2-0.7,0.2c-0.6,0-1.1-0.2-1.4-0.5
				c-0.3-0.4-0.6-0.7-0.8-1.2c-0.2-0.5-0.3-1.1-0.4-1.7c0-0.1,0-0.2-0.1-0.2c0,0-0.1,0-0.1,0.1l-0.1,0.1c-0.7,0.9-1.4,1.7-2.1,2.2
				c-0.7,0.5-1.4,0.9-2,1.1c-0.6,0.2-1.1,0.4-1.5,0.4s-0.7,0.1-0.7,0.1c-0.5,0-1-0.1-1.3-0.4c-0.3-0.2-0.6-0.5-0.7-0.9
				s-0.3-0.7-0.4-1.1c-0.1-0.4-0.1-0.7-0.1-1c0-1.4,0.3-2.6,0.8-3.7c0.5-1.1,1.2-2.1,2.1-2.9c0.8-0.8,1.8-1.5,2.9-2
				c1.1-0.5,2.1-0.9,3.2-1.1c0,0,0.1,0,0.1,0c0,0,0.1,0,0.1-0.1c0,0,0,0,0-0.1c0-0.5,0.1-1,0.1-1.5c0-0.5,0.1-1.1,0.1-1.8
				c0.1-1.4,0.1-2.6,0.3-3.7c0.1-0.5,0.1-1,0.2-1.5c0.1-0.5,0.2-0.9,0.3-1.4c0.1-0.4,0.2-0.8,0.4-1.1c0.1-0.3,0.3-0.5,0.4-0.7
				c0.2-0.2,0.3-0.3,0.5-0.4c0.1-0.1,0.3-0.2,0.5-0.3c0.2-0.1,0.4-0.1,0.6-0.1s0.4,0.1,0.6,0.2c0.2,0.1,0.3,0.4,0.3,0.9
				c0,0.3,0,0.6-0.1,1c-0.2,1-0.4,1.9-0.5,2.9c-0.1,1-0.2,1.9-0.4,2.8c-0.1,1-0.2,1.9-0.3,2.8c0,0.2,0,0.4,0,0.6
				c0,0.2,0,0.4-0.1,0.7c0,0.3,0,0.5-0.1,0.9c0,0.1,0,0.1,0,0.1c0,0,0.1,0,0.1,0c0.3,0.1,0.7,0.3,1,0.5S124.3,61.7,124.3,62.1z
				 M119.8,63.5c0-0.1-0.1-0.2-0.2-0.2c-0.7,0.1-1.3,0.3-2,0.7c-0.7,0.4-1.2,0.8-1.7,1.4c-0.5,0.6-0.9,1.2-1.2,1.9
				c-0.3,0.7-0.5,1.4-0.5,2.1c0,0.3,0.1,0.5,0.2,0.8c0.1,0.2,0.3,0.4,0.6,0.4c0.4,0,0.9-0.2,1.5-0.6c0.6-0.4,1.1-0.9,1.6-1.5
				c0.5-0.6,0.9-1.4,1.3-2.2C119.7,65.3,119.8,64.4,119.8,63.5z"/>
			<path class="st0" d="M135.9,62.5c0,0.8-0.2,1.6-0.5,2.4c-0.3,0.8-0.8,1.5-1.3,2c-0.6,0.6-1.2,1.1-1.9,1.4
				c-0.7,0.4-1.5,0.5-2.3,0.5c-0.1,0-0.1,0-0.2,0.1c0,0,0,0.1,0,0.1c0.1,0.6,0.2,1.1,0.4,1.4s0.4,0.6,0.7,0.8
				c0.3,0.2,0.6,0.4,0.9,0.5c0.7,0.2,1.1,0.4,1.2,0.7c0.1,0.3,0.2,0.6,0.2,0.8c0,0.3-0.1,0.6-0.3,0.8c-0.2,0.2-0.4,0.3-0.6,0.4
				c-0.2,0.1-0.5,0.2-0.8,0.2c-0.9,0-1.6-0.2-2.2-0.6s-1.1-0.9-1.4-1.3c-0.4-0.6-0.7-1.2-1-2l-0.1-0.5c-0.1-0.2-0.1-0.3-0.1-0.5
				s-0.1-0.5-0.1-0.7c0,0,0-0.1,0-0.1c-0.1-0.1-0.1-0.1-0.2-0.1c-0.3-0.1-0.6-0.1-0.9-0.3c-0.2-0.1-0.4-0.3-0.6-0.5
				c-0.2-0.2-0.3-0.6-0.3-1c0-0.2,0.1-0.4,0.2-0.5c0.1-0.1,0.1-0.3,0.3-0.4c0.1-0.1,0.3-0.2,0.4-0.2c0.1,0,0.2,0,0.3,0.1
				s0.4,0.1,0.7,0.1c0.1,0,0.1,0,0.1,0c0,0,0,0,0,0c0.4-1.2,0.8-2.3,1.4-3.3c0.3-0.4,0.5-0.8,0.9-1.2c0.3-0.4,0.7-0.7,1.1-1.1
				c0.4-0.3,0.8-0.6,1.3-0.7c0.5-0.2,1-0.3,1.6-0.3c0.3,0,0.6,0,0.9,0.1s0.7,0.2,1,0.5c0.3,0.2,0.6,0.6,0.8,1
				C135.8,61.3,135.9,61.8,135.9,62.5z M133.1,62.9c0-0.2,0-0.3-0.1-0.4c-0.1-0.1-0.1-0.2-0.2-0.3c-0.1-0.1-0.2-0.1-0.4-0.1
				c-0.3,0-0.6,0.1-1,0.4c-0.4,0.3-0.7,0.6-1,1.1c-0.3,0.4-0.5,0.9-0.7,1.4c-0.2,0.5-0.3,0.9-0.3,1.3c0,0.1,0.1,0.2,0.2,0.2
				c0.2,0,0.5-0.1,0.8-0.2c0.4-0.1,0.8-0.4,1.2-0.6c0.4-0.3,0.7-0.6,1-1.1S133.1,63.5,133.1,62.9z"/>
		</g>
	</g>
	<g>
		<path class="st1" d="M65.9,146.3c8,0,8,4.9,15.9,4.9c8,0,8-4.9,15.9-4.9c8,0,8,4.9,15.9,4.9c8,0,8-4.9,15.9-4.9
			c8,0,8,4.9,15.9,4.9s8-4.9,15.9-4.9"/>
	</g>
	<g>
		<path class="st0" d="M239.5,49C239.5,49,239.5,48.9,239.5,49c-0.2,0-0.3-0.1-0.4-0.1c-0.2-0.1-0.4-0.2-0.6-0.4
			c-0.1-0.1-0.2-0.2-0.4-0.3c-1.3-1.2-3.2,0.3-2.4,1.9c0.1,0.3,0.3,0.6,0.4,0.9c0,0-0.1,0-0.1,0c-0.1-0.1-0.2-0.2-0.3-0.3
			c-0.1-0.2-0.3-0.4-0.4-0.6c0-0.1-0.1-0.2-0.1-0.3c0-0.2,0-0.4,0-0.6c0.1-1-0.6-1.5-1.4-1.5c-0.8,0-1.6,0.5-1.8,1.5
			c-0.2,1.5,0.4,2.7,1.4,3.8c-0.1,0.1-0.1,0.1-0.2,0.2c-0.9,0.7-1.9,1.2-2.9,1.6c-2,0.8-4,1.2-6.1,1.5c-5,0.6-10.1,0.3-15.1-0.3
			c-6.9-1-13.6-2.7-20.1-5.4c-5-2.2-9.7-4.8-14-8.1c-3-2.4-5.7-5-8.1-8c-1.7-2.2-3.1-4.6-4.2-7.2c0-0.1-0.1-0.2-0.1-0.3
			c0-0.1-0.1-0.1-0.1-0.2c0.7-0.7,1.4-1.5,2-2.3c0.9-1.1,0.2-2.6-1.1-2.6c-0.1,0-0.3,0-0.4,0c-2.4,0.5-4.3,2.2-6.5,3.3
			c-0.2,0.1-0.4,0.1-0.7,0.2c-1.4,0.4-1.3,2.1-0.4,2.8c-0.4,0.2-0.8,0.4-1.1,0.5c-1.8,0.8-0.2,3.5,1.6,2.7c1.6-0.7,2.9-1.5,4.2-2.5
			c3,6.6,7.8,12,13.4,16.4c-4.3,5.9-7,13.7-6.5,21c0.5,6.4,4.9,11.1,10.8,13.1c6.6,2.3,13.6,0.5,18.8-3.9c2.6-2.2,4.6-5.1,6.4-7.9
			c1.6-2.6,3.2-5.7,3.5-8.8c4.2,0.7,8.4,1,12.6,1c5.6,0,12.3-0.8,16.7-4.8c0.8,0.5,1.5,1.1,2.2,1.5c0,0,0,0,0,0c0,0,0,0,0.1,0
			c0,0,0,0,0,0c1.2,0.8,2.9,0,2.5-1.6c-0.2-1-0.5-1.9-0.8-2.9C241.5,51.9,241.4,49.2,239.5,49z M203.5,58.5c-0.2,1.2-0.5,2.3-1,3.4
			c-1.2,2.7-2.8,5.3-4.6,7.7c-1.3,1.6-2.7,3.1-4.4,4.5c-1.1,0.8-2.2,1.5-3.4,2c-1.2,0.5-2.4,0.8-3.7,1c-1.5,0.2-3,0.1-4.5,0
			c-1.5-0.2-3-0.6-4.4-1.2c-1.1-0.5-2.1-1.1-3-1.8c-0.7-0.6-1.4-1.3-2-2c-0.6-0.8-1-1.6-1.4-2.4c-0.4-1-0.6-2-0.8-3
			c-0.2-1.7-0.1-3.4,0.1-5.1c0.5-3.1,1.3-6,2.5-8.9c0.9-2,2-3.9,3.3-5.7c3.7,2.5,7.6,4.6,11.7,6.3c-2.3,3.3-4,6.8-5.5,10.4
			c-0.5,0.3-0.9,0.9-0.6,1.7c0,0,0,0.1,0.1,0.1c0.3,0.9,1.4,1.5,2.3,0.9c1-0.6,1.3-1.9,1.6-2.9c1.5-3.2,3.1-6.2,5.1-9.1
			c2.5,0.9,4.9,1.7,7.4,2.4c1.8,0.5,3.5,0.9,5.4,1.2C203.5,58.3,203.5,58.4,203.5,58.5z"/>
		<path class="st0" d="M212.3,13.5c0,0.1,0.1,0.1,0.1,0.2c0.3,0.4,0.8,0.6,1.5,0.5c0.4-0.1,0.7-0.1,1.1-0.2c1-0.1,2-0.1,3,0
			c0.6,0.1,1.2,0.3,1.8,0.5c0.7,0.3,1.3,0.7,1.9,1.1c0.9,0.8,1.7,1.6,2.4,2.5c0.2,0.3,0.4,0.6,0.6,0.9c1.1,1.6,3.8,0.1,2.7-1.6
			c-1.6-2.2-3.3-4.3-5.8-5.6c-0.8-0.4-1.6-0.7-2.4-0.8c0.2,0,0.4-0.1,0.7-0.1c0.6,0,1.1-0.1,1.7,0c0.3,0.1,0.7,0.1,1,0.3
			c0.2,0.1,0.3,0.2,0.5,0.3c0.1,0.1,0.2,0.2,0.3,0.3c0,0.1,0.1,0.1,0.1,0.2c1.2,1.6,3.9,0.1,2.7-1.6c-1.3-1.8-3.4-2.6-5.6-2.6
			c-3.1,0-6.5,1.5-8.3,3.7C211.6,12.1,211.8,12.9,212.3,13.5C212.2,13.5,212.3,13.5,212.3,13.5z"/>
		<path class="st0" d="M194.6,8.4c-0.1,0-0.1,0.1-0.2,0.1c-0.4,0.3-1,0.3-1.5,0c-0.3-0.2-0.7-0.3-1-0.5c-0.9-0.4-1.9-0.7-2.9-0.9
			C188.3,7,187.7,7,187.1,7c-0.7,0.1-1.4,0.3-2.1,0.5c-1.1,0.5-2.1,1.1-3,1.7c-0.3,0.2-0.6,0.4-0.9,0.7c-1.6,1.2-3.7-1.1-2.1-2.3
			c2.2-1.7,4.4-3.1,7.2-3.6c0.9-0.1,1.7-0.2,2.5-0.1c-0.2-0.1-0.4-0.2-0.6-0.3c-0.5-0.2-1-0.4-1.6-0.5c-0.4,0-0.7-0.1-1,0
			c-0.2,0-0.3,0.1-0.5,0.1c-0.1,0.1-0.2,0.1-0.4,0.2c-0.1,0-0.1,0.1-0.2,0.1c-1.6,1.2-3.7-1.1-2.1-2.3c1.8-1.4,4-1.5,6.1-0.8
			c3,0.9,5.8,3.4,6.9,6C195.6,7.2,195.2,7.9,194.6,8.4C194.6,8.3,194.6,8.4,194.6,8.4z"/>
	</g>
</g>
</svg>
