<?xml version="1.0" encoding="utf-8"?>
<!-- Generator: Adobe Illustrator 21.1.0, SVG Export Plug-In . SVG Version: 6.00 Build 0)  -->
<svg version="1.1" id="Capa_1" xmlns="http://www.w3.org/2000/svg" xmlns:xlink="http://www.w3.org/1999/xlink" x="0px" y="0px"
	 viewBox="0 0 254.7 152.5" style="enable-background:new 0 0 254.7 152.5;" xml:space="preserve">
<style type="text/css">
	.st0{fill:#FFFFFF;}
	.st1{fill:none;stroke:#FFFFFF;stroke-width:2.6501;stroke-miterlimit:10;}
</style>
<g>
	<g>
		<g>
			<path class="st0" d="M22.4,109.7c0,2-0.5,3.8-1.4,5.4c-0.9,1.6-2.1,3.1-3.4,4.3c-1.4,1.2-2.9,2.2-4.5,3c-1.6,0.8-3.1,1.2-4.4,1.5
				c-0.1,0-0.2,0.1-0.3,0.2c0,0.1-0.1,0.1-0.1,0.2c-0.1,2.2-0.2,4.6-0.2,7c0,0.9,0,1.7,0.1,2.5c0.1,0.7,0.2,1.4,0.3,2.2
				c0.1,0.8,0.2,1.4,0.4,1.9c0.2,0.6,0.4,1.1,0.5,1.5c0.1,0.3,0.1,0.6,0.1,0.7c0,0.8-0.3,1.3-0.8,1.6c-0.5,0.3-0.9,0.4-1.3,0.4
				c-0.3,0-0.5,0-0.6-0.1c-0.1,0-0.2,0-0.2-0.1c-0.6-0.2-1.1-0.8-1.5-1.6c-0.3-0.8-0.6-1.7-0.7-2.7c-0.2-0.9-0.2-1.8-0.3-2.6
				c0-0.8-0.1-1.3-0.1-1.4c0-1.3,0-2.4,0-3.4c0-1,0-1.8,0-2.5c0-0.7,0-1.4,0.1-1.9c0-0.6,0-1.1,0-1.6c0,0,0-0.1-0.1-0.1
				c-0.1-0.1-0.2-0.1-0.3-0.2c-0.8-0.2-1.4-0.4-2-0.7c-0.5-0.3-0.9-0.6-1.3-1.1c-0.4-0.5-0.6-1-0.6-1.6c0-0.6,0.2-1.1,0.6-1.4
				c0.4-0.3,0.7-0.5,1-0.5c0.4,0,0.8,0.1,1.3,0.4c0.4,0.3,0.8,0.4,1.2,0.4c0.1,0,0.3-0.1,0.3-0.2c0,0,0.1-0.1,0.1-0.2
				c0.2-2.7,0.4-4.9,0.7-6.8c0.3-1.9,0.5-3.4,0.8-4.7c0.3-1.4,0.5-2.6,0.8-3.6c0.1-0.3,0.3-0.6,0.5-0.8c0.2-0.2,0.5-0.4,0.8-0.6
				c0.3-0.2,0.8-0.3,1.3-0.3c0.3,0,0.6,0,0.9,0.1c0.3,0.1,0.5,0.4,0.5,0.9c0,0.1-0.1,0.4-0.2,1.1c-0.1,0.6-0.3,1.4-0.4,2.2
				c-0.2,0.8-0.3,1.6-0.4,2.4c-0.1,0.8-0.2,1.3-0.2,1.7c0,0.2,0,0.2,0.1,0.2c0,0,0.1-0.1,0.3-0.3c0.7-0.9,1.5-1.7,2.5-2.4
				c0.8-0.6,1.8-1.2,2.9-1.7c1.2-0.5,2.5-0.8,3.9-0.8c0.6,0.1,1.1,0.3,1.6,0.6c0.4,0.3,0.8,0.7,1.1,1.2
				C22.3,108,22.4,108.8,22.4,109.7z M18,111.4c0-0.3-0.1-0.5-0.2-0.7c-0.1-0.2-0.2-0.3-0.4-0.4c-0.2-0.1-0.3-0.2-0.6-0.2
				c-0.9,0-1.9,0.4-2.9,1.1c-1,0.7-1.9,1.6-2.7,2.5c-0.8,1-1.5,2-2,3c-0.5,1-0.8,1.8-0.8,2.4c0,0.2,0.1,0.4,0.2,0.4
				c0.1,0,0.1,0.1,0.2,0.1c1,0,2.1-0.3,3.1-0.9c1.1-0.6,2-1.3,2.9-2.2c0.9-0.9,1.6-1.8,2.2-2.7C17.8,112.9,18,112.1,18,111.4z"/>
			<path class="st0" d="M41,123.7c0,0.5-0.1,0.8-0.3,1s-0.5,0.4-0.8,0.5c-0.3,0.1-0.7,0.2-1.1,0.2c-0.7,0-1.3-0.2-1.7-0.6
				c-0.5-0.4-0.9-0.8-1.2-1.3c-0.4-0.6-0.7-1.2-0.9-2c0-0.2-0.1-0.3-0.2-0.3c-0.1,0-0.2,0-0.2,0.1l-0.1,0.1
				c-0.6,0.6-1.1,1.2-1.7,1.6c-0.6,0.4-1.2,0.7-1.7,0.9c-0.6,0.2-1.1,0.3-1.5,0.4s-0.8,0.1-1.1,0.1c-1.1,0-2-0.2-2.6-0.6
				c-0.6-0.4-1.1-0.8-1.4-1.4c-0.3-0.5-0.5-1-0.6-1.5c-0.1-0.5-0.1-0.9-0.1-1.1c0-0.8,0.1-1.5,0.4-2.2c0.3-0.7,0.6-1.4,1.1-2
				s1-1.2,1.5-1.7s1.1-1,1.7-1.5c1.4-1,3-1.9,4.8-2.8c0.1,0,0.2-0.1,0.3-0.2c0.2-0.1,0.3-0.3,0.3-0.5c0-0.4-0.3-0.7-1-0.8
				c-0.7-0.1-1.4-0.2-2.2-0.2c-0.3,0-0.7,0-1,0c-0.3,0-0.6,0-0.8,0.1c-0.3,0-0.6,0.1-0.8,0.1c-0.4,0-0.7,0-1-0.1
				c-0.2-0.1-0.4-0.3-0.5-0.5c-0.1-0.2-0.2-0.4-0.2-0.6c0-0.2-0.1-0.4-0.1-0.5c0-0.1,0-0.3,0.1-0.5c0.1-0.2,0.3-0.5,0.6-0.8
				c0.3-0.3,0.7-0.5,1.3-0.7c0.6-0.2,1.4-0.3,2.4-0.3c0.7,0,1.5,0.1,2.5,0.2c1,0.2,1.9,0.4,2.8,0.8c0.9,0.4,1.6,0.8,2.3,1.4
				c0.6,0.6,0.9,1.3,0.9,2.1c0,0.6-0.3,1.2-0.8,1.7c-0.5,0.5-1.2,1.1-2,1.6c-0.8,0.5-1.6,1-2.6,1.5c-0.9,0.5-1.8,1.1-2.6,1.6
				c-0.8,0.6-1.4,1.2-2,1.9c-0.5,0.7-0.8,1.5-0.8,2.3c0,0.2,0.1,0.4,0.2,0.7c0.1,0.3,0.5,0.5,1,0.5c0.4,0,0.8-0.1,1.3-0.3
				c0.5-0.2,0.9-0.5,1.3-0.9c0.4-0.4,0.8-0.8,1.1-1.2c0.3-0.5,0.5-0.9,0.5-1.4c0,0-0.1-0.1-0.1-0.1v-0.3c0-0.3,0.1-0.6,0.2-0.9
				c0.1-0.3,0.3-0.6,0.6-0.9c0.3-0.3,0.6-0.5,0.9-0.7s0.7-0.3,1.1-0.3c0.2,0,0.4,0.1,0.6,0.2c0.2,0.1,0.3,0.4,0.3,0.7
				c0.1,1.1,0.3,2.1,0.5,3c0.2,0.8,0.5,1.7,0.8,2.5c0.3,0.8,0.8,1.5,1.3,1.9c0.2,0.2,0.4,0.4,0.5,0.6c0.1,0.2,0.2,0.4,0.3,0.6
				S41,123.4,41,123.7z"/>
			<path class="st0" d="M57.9,111.8c0,0.3-0.1,0.5-0.3,0.7c-0.2,0.2-0.4,0.3-0.7,0.4c-0.3,0.1-0.6,0.2-1,0.2c-0.8,0-1.3-0.1-1.7-0.4
				c-0.4-0.2-0.7-0.5-0.9-0.8s-0.4-0.6-0.5-0.8c-0.1-0.2-0.2-0.4-0.4-0.4c-0.2,0-0.6,0.4-1.1,1.2c-0.5,0.8-1,1.8-1.6,3
				c-0.5,1.2-1,2.6-1.4,4.1c-0.4,1.5-0.6,3-0.6,4.4c0,0.6-0.2,1.1-0.5,1.3c-0.4,0.2-0.8,0.3-1.3,0.3c-0.6,0-1.1-0.3-1.4-0.8
				c-0.3-0.5-0.6-1.2-0.7-2c-0.2-0.8-0.2-1.7-0.3-2.7c0-1-0.1-1.9-0.1-2.8c0-1.5,0-3,0.1-4.5c0.1-1.5,0.2-2.7,0.3-3.8
				c0.1-0.9,0.3-1.6,0.5-2.1c0.2-0.6,0.4-1,0.7-1.3c0.3-0.3,0.6-0.5,1-0.6c0.4-0.1,0.8-0.2,1.4-0.2c0.2,0,0.4,0.1,0.5,0.2
				c0.1,0.1,0.2,0.2,0.3,0.4c0.1,0.2,0.2,0.5,0.2,0.8c0,0.2,0,0.4-0.1,0.5c-0.1,0.5-0.2,1.1-0.3,1.6c-0.1,0.5-0.2,1-0.3,1.7
				c-0.1,0.6-0.2,1.3-0.2,1.9c0,0.1,0,0.2,0.1,0.2c0,0.1,0.1,0.2,0.2,0.2s0.2-0.1,0.2-0.3c0.2-0.6,0.5-1.2,0.8-1.9
				c0.3-0.6,0.6-1.2,0.9-1.9c0.3-0.7,0.8-1.4,1.2-2.1c0.2-0.3,0.4-0.6,0.5-0.9c0.1-0.2,0.3-0.6,0.7-1.2c0.3-0.3,0.6-0.6,0.9-0.8
				c0.3-0.2,0.6-0.4,1-0.6s0.7-0.3,1.1-0.3c0.3,0,0.6,0.1,0.8,0.3c0.3,0.2,0.4,0.5,0.4,0.9c0,0.5,0,1-0.1,1.4
				c-0.1,0.5-0.1,1-0.1,1.7c0,1.1,0.1,1.9,0.3,2.5c0.2,0.6,0.4,1.1,0.6,1.4c0.2,0.4,0.4,0.6,0.6,0.8
				C57.8,111.4,57.9,111.6,57.9,111.8z"/>
			<path class="st0" d="M75.5,123.7c0,0.5-0.1,0.8-0.3,1c-0.2,0.2-0.5,0.4-0.8,0.5c-0.3,0.1-0.7,0.2-1.1,0.2c-0.7,0-1.3-0.2-1.7-0.6
				c-0.5-0.4-0.9-0.8-1.2-1.3c-0.4-0.6-0.7-1.2-0.9-2c0-0.2-0.1-0.3-0.2-0.3c-0.1,0-0.2,0-0.2,0.1l-0.1,0.1
				c-0.6,0.6-1.1,1.2-1.7,1.6c-0.6,0.4-1.2,0.7-1.7,0.9c-0.6,0.2-1.1,0.3-1.5,0.4s-0.8,0.1-1.1,0.1c-1.1,0-2-0.2-2.6-0.6
				c-0.6-0.4-1.1-0.8-1.4-1.4c-0.3-0.5-0.5-1-0.6-1.5c-0.1-0.5-0.1-0.9-0.1-1.1c0-0.8,0.1-1.5,0.4-2.2c0.3-0.7,0.6-1.4,1.1-2
				s1-1.2,1.5-1.7s1.1-1,1.7-1.5c1.4-1,3-1.9,4.8-2.8c0.1,0,0.2-0.1,0.3-0.2c0.2-0.1,0.3-0.3,0.3-0.5c0-0.4-0.3-0.7-1-0.8
				c-0.7-0.1-1.4-0.2-2.2-0.2c-0.3,0-0.7,0-1,0c-0.3,0-0.6,0-0.8,0.1c-0.3,0-0.6,0.1-0.8,0.1c-0.4,0-0.7,0-1-0.1
				c-0.2-0.1-0.4-0.3-0.5-0.5c-0.1-0.2-0.2-0.4-0.2-0.6c0-0.2-0.1-0.4-0.1-0.5c0-0.1,0-0.3,0.1-0.5c0.1-0.2,0.3-0.5,0.6-0.8
				c0.3-0.3,0.7-0.5,1.3-0.7c0.6-0.2,1.4-0.3,2.4-0.3c0.7,0,1.5,0.1,2.5,0.2c1,0.2,1.9,0.4,2.8,0.8c0.9,0.4,1.6,0.8,2.3,1.4
				c0.6,0.6,0.9,1.3,0.9,2.1c0,0.6-0.3,1.2-0.8,1.7c-0.5,0.5-1.2,1.1-2,1.6c-0.8,0.5-1.6,1-2.6,1.5c-0.9,0.5-1.8,1.1-2.6,1.6
				c-0.8,0.6-1.4,1.2-2,1.9c-0.5,0.7-0.8,1.5-0.8,2.3c0,0.2,0.1,0.4,0.2,0.7c0.1,0.3,0.5,0.5,1,0.5c0.4,0,0.8-0.1,1.3-0.3
				c0.5-0.2,0.9-0.5,1.3-0.9c0.4-0.4,0.8-0.8,1.1-1.2c0.3-0.5,0.5-0.9,0.5-1.4c0,0-0.1-0.1-0.1-0.1v-0.3c0-0.3,0.1-0.6,0.2-0.9
				c0.1-0.3,0.3-0.6,0.6-0.9c0.3-0.3,0.6-0.5,0.9-0.7s0.7-0.3,1.1-0.3c0.2,0,0.4,0.1,0.6,0.2c0.2,0.1,0.3,0.4,0.3,0.7
				c0.1,1.1,0.3,2.1,0.5,3c0.2,0.8,0.5,1.7,0.8,2.5c0.3,0.8,0.8,1.5,1.3,1.9c0.2,0.2,0.4,0.4,0.5,0.6c0.1,0.2,0.2,0.4,0.3,0.6
				S75.5,123.4,75.5,123.7z"/>
			<path class="st0" d="M101.7,117.4c0,1.2-0.4,2.2-1.1,3c-0.7,0.8-1.6,1.6-2.6,2.1c-1,0.6-2.1,1-3.2,1.2c-1.1,0.3-2,0.4-2.8,0.4
				c-1.7,0-2.8-0.3-3.6-1c-0.7-0.7-1.1-1.4-1.1-2.1c0-0.6,0.2-1.1,0.7-1.4c0.5-0.3,0.8-0.5,1.2-0.5c0.4,0,0.9,0.1,1.5,0.4
				s1.3,0.4,2.2,0.4c1.2,0,2-0.2,2.6-0.5c0.6-0.4,0.9-0.8,0.9-1.2c0-0.4-0.2-0.8-0.6-1c-0.4-0.3-1-0.5-1.6-0.7
				c-0.7-0.2-1.4-0.4-2.1-0.6c-0.8-0.2-1.5-0.5-2.1-0.8c-0.7-0.3-1.2-0.7-1.6-1.2c-0.4-0.5-0.6-1.1-0.6-1.8c0-0.9,0.3-1.9,0.9-2.9
				c0.6-1,1.3-1.9,2.3-2.8c0.9-0.8,2-1.6,3.2-2.1c1.2-0.6,2.4-0.8,3.7-0.8c1.1,0,2,0.3,2.6,0.9c0.6,0.6,1,1.6,1,2.9
				c0,0.6-0.2,1.2-0.5,1.7c-0.3,0.5-0.8,0.8-1.6,0.8c-0.5,0-0.8-0.1-0.9-0.4c-0.2-0.2-0.3-0.5-0.4-0.8c-0.1-0.3-0.3-0.5-0.5-0.8
				c-0.2-0.2-0.6-0.4-1.1-0.4c-0.2,0-0.5,0.1-1,0.3c-0.4,0.2-0.8,0.4-1.3,0.7c-0.4,0.3-0.8,0.7-1.1,1.1c-0.3,0.4-0.5,0.9-0.5,1.4
				c0,0.5,0.2,0.8,0.7,1.1s1,0.6,1.7,0.8c0.7,0.3,1.4,0.5,2.2,0.7s1.6,0.5,2.2,0.8c0.7,0.3,1.2,0.7,1.7,1.2
				C101.5,116.1,101.7,116.7,101.7,117.4z"/>
			<path class="st0" d="M120.9,123.7c0,0.5-0.1,0.8-0.3,1s-0.5,0.4-0.8,0.5c-0.3,0.1-0.7,0.2-1.1,0.2c-0.7,0-1.3-0.2-1.7-0.6
				c-0.5-0.4-0.9-0.8-1.2-1.3c-0.4-0.6-0.7-1.2-0.9-2c0-0.2-0.1-0.3-0.2-0.3c-0.1,0-0.2,0-0.2,0.1l-0.1,0.1
				c-0.6,0.6-1.1,1.2-1.7,1.6c-0.6,0.4-1.2,0.7-1.7,0.9c-0.6,0.2-1.1,0.3-1.5,0.4s-0.8,0.1-1.1,0.1c-1.1,0-2-0.2-2.6-0.6
				c-0.6-0.4-1.1-0.8-1.4-1.4c-0.3-0.5-0.5-1-0.6-1.5s-0.1-0.9-0.1-1.1c0-0.8,0.1-1.5,0.4-2.2c0.3-0.7,0.6-1.4,1.1-2s1-1.2,1.5-1.7
				c0.6-0.5,1.1-1,1.7-1.5c1.4-1,3-1.9,4.8-2.8c0.1,0,0.2-0.1,0.3-0.2c0.2-0.1,0.3-0.3,0.3-0.5c0-0.4-0.3-0.7-1-0.8
				c-0.7-0.1-1.4-0.2-2.2-0.2c-0.3,0-0.7,0-1,0c-0.3,0-0.6,0-0.8,0.1c-0.3,0-0.6,0.1-0.8,0.1c-0.4,0-0.7,0-1-0.1
				c-0.2-0.1-0.4-0.3-0.5-0.5c-0.1-0.2-0.2-0.4-0.2-0.6c0-0.2-0.1-0.4-0.1-0.5c0-0.1,0-0.3,0.1-0.5c0.1-0.2,0.3-0.5,0.6-0.8
				s0.7-0.5,1.3-0.7c0.6-0.2,1.4-0.3,2.4-0.3c0.7,0,1.5,0.1,2.5,0.2c1,0.2,1.9,0.4,2.8,0.8c0.9,0.4,1.6,0.8,2.3,1.4
				c0.6,0.6,0.9,1.3,0.9,2.1c0,0.6-0.3,1.2-0.8,1.7c-0.5,0.5-1.2,1.1-2,1.6c-0.8,0.5-1.6,1-2.6,1.5c-0.9,0.5-1.8,1.1-2.6,1.6
				c-0.8,0.6-1.4,1.2-2,1.9c-0.5,0.7-0.8,1.5-0.8,2.3c0,0.2,0.1,0.4,0.2,0.7c0.1,0.3,0.5,0.5,1,0.5c0.4,0,0.8-0.1,1.3-0.3
				c0.5-0.2,0.9-0.5,1.3-0.9c0.4-0.4,0.8-0.8,1.1-1.2s0.5-0.9,0.5-1.4c0,0-0.1-0.1-0.1-0.1v-0.3c0-0.3,0.1-0.6,0.2-0.9
				c0.1-0.3,0.3-0.6,0.6-0.9c0.3-0.3,0.6-0.5,0.9-0.7c0.3-0.2,0.7-0.3,1.1-0.3c0.2,0,0.4,0.1,0.6,0.2c0.2,0.1,0.3,0.4,0.3,0.7
				c0.1,1.1,0.3,2.1,0.5,3c0.2,0.8,0.5,1.7,0.8,2.5c0.3,0.8,0.8,1.5,1.3,1.9c0.2,0.2,0.4,0.4,0.5,0.6c0.1,0.2,0.2,0.4,0.3,0.6
				C120.9,123.2,120.9,123.4,120.9,123.7z"/>
			<path class="st0" d="M140.3,109.5c0,1.5-0.2,3.1-0.6,4.8c-0.4,1.7-1,3.2-1.8,4.7c-0.8,1.4-1.7,2.6-2.8,3.5
				c-1.1,0.9-2.3,1.4-3.6,1.4c-0.8,0-1.4-0.2-1.8-0.6s-0.8-0.9-1.1-1.4c-0.3-0.6-0.6-1.2-0.8-2c-0.1-0.1-0.1-0.2-0.2-0.2
				c-0.2,0-0.3,0.1-0.5,0.3c-0.1,0.2-0.3,0.4-0.5,0.6s-0.4,0.4-0.6,0.6c-0.3,0.2-0.6,0.3-1,0.3c-0.3,0-0.5-0.1-0.7-0.3
				c-0.2-0.2-0.3-0.5-0.3-0.7c-0.1-0.3-0.1-0.6-0.1-0.8s0-0.5,0-0.7c0-2,0-4.2,0.1-6.7c0-2.5,0.1-5.1,0.3-7.7
				c0.2-2.6,0.4-5.2,0.7-7.7c0.3-2.5,0.7-4.8,1.3-6.9c0.1-0.3,0.2-0.5,0.4-0.7c0.2-0.2,0.3-0.4,0.6-0.5c0.2-0.1,0.5-0.2,0.9-0.2
				c0.5,0,0.9,0.1,1.2,0.4c0.3,0.2,0.5,0.5,0.7,0.8c0.2,0.4,0.2,0.8,0.3,1.2c-0.5,2-0.9,4-1.2,6.2c-0.3,1.9-0.6,4.1-0.8,6.5
				c-0.3,2.4-0.4,4.9-0.4,7.6c0,0.1,0,0.2,0,0.3c0,0.2,0.1,0.3,0.2,0.3c0.1,0,0.2-0.1,0.3-0.2c1.4-2.4,2.9-4.3,4.4-5.6
				s2.9-1.9,4.1-1.9c0.1,0,0.4,0,0.8,0.1c0.4,0.1,0.8,0.3,1.2,0.6c0.4,0.3,0.8,0.9,1.1,1.6C140.1,107.1,140.3,108.1,140.3,109.5z
				 M136.1,111.4c0-1-0.1-1.6-0.4-1.8c-0.3-0.2-0.5-0.3-0.6-0.3c-0.7,0-1.3,0.4-2,1.1c-0.6,0.8-1.2,1.6-1.7,2.4
				c-0.6,1-1.1,2.2-1.6,3.5c0.1,0.6,0.3,1.1,0.5,1.6c0.2,0.4,0.4,0.8,0.8,1.1c0.3,0.3,0.7,0.5,1.3,0.5c0.6,0,1.1-0.3,1.6-0.9
				c0.5-0.6,0.9-1.3,1.2-2.1c0.3-0.8,0.6-1.7,0.8-2.6C136,112.8,136.1,112,136.1,111.4z"/>
			<path class="st0" d="M158.1,111.6c0,1.8-0.3,3.4-0.8,4.8c-0.5,1.4-1.2,2.5-2.1,3.4c-0.9,0.9-1.8,1.6-2.9,2.1
				c-1.1,0.5-2.2,0.7-3.2,0.7c-1.5,0-2.6-0.4-3.4-1.1c-0.8-0.7-1.4-1.5-1.7-2.4c-0.4-1-0.7-2.2-0.7-3.5c0-0.9,0.1-1.7,0.3-2.5
				c0.2-0.8,0.4-1.5,0.7-2.1c0.3-0.7,0.6-1.4,1-2c0,0-0.1-0.1-0.2-0.2c0,0-0.1-0.1-0.1-0.1c-0.6,0-1.1-0.1-1.4-0.4
				c-0.3-0.2-0.5-0.6-0.5-0.9c0-0.5,0.2-1,0.6-1.5c0.4-0.5,0.9-0.9,1.6-1.3c0.7-0.4,1.4-0.6,2.2-0.9c0.8-0.2,1.6-0.3,2.4-0.3
				c0.7,0,1.5,0.1,2.4,0.3c0.9,0.2,1.9,0.6,2.7,1.2c0.9,0.6,1.6,1.4,2.3,2.4C157.8,108.5,158.1,109.9,158.1,111.6z M153.5,112.8
				c0-0.9-0.2-1.8-0.4-2.5c-0.2-0.6-0.5-1.2-0.9-1.7c-0.4-0.5-1-0.7-1.7-0.7c-0.2,0-0.5,0.1-0.8,0.4s-0.6,0.7-0.9,1.2
				c-0.3,0.5-0.5,1.2-0.7,2c-0.2,0.8-0.3,1.7-0.3,2.7c0,0.3,0,0.7,0,1.2c0,0.5,0.1,1,0.3,1.6c0.2,0.5,0.4,1,0.8,1.4
				c0.4,0.4,0.9,0.6,1.6,0.6c0.8,0,1.3-0.3,1.7-0.9c0.4-0.6,0.7-1.3,0.9-2.1C153.3,114.9,153.4,113.9,153.5,112.8z"/>
			<path class="st0" d="M175.4,111.8c0,0.3-0.1,0.5-0.3,0.7c-0.2,0.2-0.4,0.3-0.7,0.4c-0.3,0.1-0.6,0.2-1,0.2
				c-0.8,0-1.3-0.1-1.7-0.4c-0.4-0.2-0.7-0.5-0.9-0.8s-0.4-0.6-0.5-0.8c-0.1-0.2-0.2-0.4-0.4-0.4c-0.2,0-0.6,0.4-1.1,1.2
				c-0.5,0.8-1,1.8-1.6,3c-0.5,1.2-1,2.6-1.4,4.1s-0.6,3-0.6,4.4c0,0.6-0.2,1.1-0.5,1.3c-0.4,0.2-0.8,0.3-1.3,0.3
				c-0.6,0-1.1-0.3-1.4-0.8c-0.3-0.5-0.6-1.2-0.7-2c-0.2-0.8-0.2-1.7-0.3-2.7c0-1-0.1-1.9-0.1-2.8c0-1.5,0-3,0.1-4.5
				c0.1-1.5,0.2-2.7,0.3-3.8c0.1-0.9,0.3-1.6,0.5-2.1c0.2-0.6,0.4-1,0.7-1.3c0.3-0.3,0.6-0.5,1-0.6c0.4-0.1,0.8-0.2,1.4-0.2
				c0.2,0,0.4,0.1,0.5,0.2c0.1,0.1,0.2,0.2,0.3,0.4c0.1,0.2,0.2,0.5,0.2,0.8c0,0.2,0,0.4-0.1,0.5c-0.1,0.5-0.2,1.1-0.3,1.6
				c-0.1,0.5-0.2,1-0.3,1.7c-0.1,0.6-0.2,1.3-0.2,1.9c0,0.1,0,0.2,0.1,0.2c0,0.1,0.1,0.2,0.2,0.2c0.1,0,0.2-0.1,0.2-0.3
				c0.2-0.6,0.5-1.2,0.8-1.9c0.3-0.6,0.6-1.2,0.9-1.9c0.3-0.7,0.8-1.4,1.2-2.1c0.2-0.3,0.4-0.6,0.5-0.9c0.1-0.2,0.3-0.6,0.7-1.2
				c0.3-0.3,0.6-0.6,0.9-0.8c0.3-0.2,0.6-0.4,1-0.6c0.3-0.2,0.7-0.3,1.1-0.3c0.3,0,0.6,0.1,0.8,0.3c0.3,0.2,0.4,0.5,0.4,0.9
				c0,0.5,0,1-0.1,1.4c-0.1,0.5-0.1,1-0.1,1.7c0,1.1,0.1,1.9,0.3,2.5c0.2,0.6,0.4,1.1,0.6,1.4c0.2,0.4,0.4,0.6,0.6,0.8
				C175.4,111.4,175.4,111.6,175.4,111.8z"/>
			<path class="st0" d="M191.3,108.1c0,1.2-0.2,2.3-0.7,3.4c-0.5,1.1-1.1,2.1-1.9,3c-0.8,0.9-1.7,1.6-2.8,2.1
				c-1.1,0.5-2.2,0.8-3.3,0.8c-0.1,0-0.2,0-0.2,0.1c0,0-0.1,0.1-0.1,0.1c0.1,0.9,0.3,1.5,0.6,2c0.3,0.5,0.6,0.9,1,1.2
				c0.4,0.3,0.9,0.6,1.4,0.7c1,0.3,1.6,0.6,1.8,1c0.2,0.4,0.3,0.8,0.3,1.1c0,0.5-0.1,0.9-0.4,1.1c-0.2,0.2-0.5,0.4-0.8,0.5
				c-0.3,0.2-0.7,0.2-1.1,0.3c-1.3,0-2.3-0.3-3.2-0.9c-0.8-0.6-1.5-1.2-2.1-1.9c-0.6-0.8-1.1-1.8-1.4-2.9l-0.2-0.7
				c-0.1-0.2-0.1-0.5-0.2-0.8c0-0.3-0.1-0.7-0.1-1.1c0,0,0-0.1-0.1-0.1c-0.1-0.1-0.2-0.1-0.2-0.1c-0.5-0.1-0.9-0.2-1.2-0.4
				c-0.3-0.2-0.6-0.5-0.8-0.8c-0.2-0.3-0.4-0.8-0.4-1.5c0-0.3,0.1-0.6,0.2-0.8c0.1-0.2,0.2-0.4,0.4-0.5c0.2-0.2,0.4-0.3,0.6-0.3
				c0.1,0,0.2,0,0.5,0.1c0.2,0.1,0.6,0.1,1,0.2c0.1,0,0.1,0,0.2-0.1c0,0,0.1,0,0.1-0.1c0.5-1.8,1.2-3.3,2.1-4.7
				c0.4-0.6,0.8-1.2,1.2-1.7c0.5-0.6,1-1.1,1.6-1.5c0.6-0.5,1.2-0.8,1.9-1.1c0.7-0.3,1.4-0.4,2.3-0.4c0.4,0,0.8,0.1,1.3,0.2
				c0.5,0.1,0.9,0.3,1.4,0.7c0.4,0.3,0.8,0.8,1.1,1.4S191.3,107.1,191.3,108.1z M187.3,108.7c0-0.2,0-0.4-0.1-0.6
				c-0.1-0.1-0.2-0.3-0.3-0.4c-0.1-0.1-0.3-0.2-0.5-0.2c-0.5,0-0.9,0.2-1.4,0.6c-0.5,0.4-1,0.9-1.4,1.6c-0.4,0.6-0.8,1.3-1,2
				c-0.3,0.7-0.4,1.3-0.4,1.9c0,0.2,0.1,0.3,0.2,0.3c0.3,0,0.7-0.1,1.2-0.3c0.5-0.2,1.1-0.5,1.7-0.9c0.6-0.4,1.1-0.9,1.5-1.6
				C187.1,110.3,187.3,109.6,187.3,108.7z"/>
			<path class="st0" d="M209.7,123.7c0,0.5-0.1,0.8-0.3,1s-0.5,0.4-0.8,0.5c-0.3,0.1-0.7,0.2-1.1,0.2c-0.7,0-1.3-0.2-1.7-0.6
				c-0.5-0.4-0.9-0.8-1.2-1.3c-0.4-0.6-0.7-1.2-0.9-2c0-0.2-0.1-0.3-0.2-0.3c-0.1,0-0.2,0-0.2,0.1l-0.1,0.1
				c-0.6,0.6-1.1,1.2-1.7,1.6c-0.6,0.4-1.2,0.7-1.7,0.9c-0.6,0.2-1.1,0.3-1.5,0.4s-0.8,0.1-1.1,0.1c-1.1,0-2-0.2-2.6-0.6
				c-0.6-0.4-1.1-0.8-1.4-1.4c-0.3-0.5-0.5-1-0.6-1.5s-0.1-0.9-0.1-1.1c0-0.8,0.1-1.5,0.4-2.2c0.3-0.7,0.6-1.4,1.1-2s1-1.2,1.5-1.7
				c0.6-0.5,1.1-1,1.7-1.5c1.4-1,3-1.9,4.8-2.8c0.1,0,0.2-0.1,0.3-0.2c0.2-0.1,0.3-0.3,0.3-0.5c0-0.4-0.3-0.7-1-0.8
				c-0.7-0.1-1.4-0.2-2.2-0.2c-0.3,0-0.7,0-1,0c-0.3,0-0.6,0-0.8,0.1c-0.3,0-0.6,0.1-0.8,0.1c-0.4,0-0.7,0-1-0.1
				c-0.2-0.1-0.4-0.3-0.5-0.5c-0.1-0.2-0.2-0.4-0.2-0.6c0-0.2-0.1-0.4-0.1-0.5c0-0.1,0-0.3,0.1-0.5c0.1-0.2,0.3-0.5,0.6-0.8
				s0.7-0.5,1.3-0.7c0.6-0.2,1.4-0.3,2.4-0.3c0.7,0,1.5,0.1,2.5,0.2c1,0.2,1.9,0.4,2.8,0.8c0.9,0.4,1.6,0.8,2.3,1.4
				c0.6,0.6,0.9,1.3,0.9,2.1c0,0.6-0.3,1.2-0.8,1.7c-0.5,0.5-1.2,1.1-2,1.6c-0.8,0.5-1.6,1-2.6,1.5c-0.9,0.5-1.8,1.1-2.6,1.6
				c-0.8,0.6-1.4,1.2-2,1.9c-0.5,0.7-0.8,1.5-0.8,2.3c0,0.2,0.1,0.4,0.2,0.7c0.1,0.3,0.5,0.5,1,0.5c0.4,0,0.8-0.1,1.3-0.3
				c0.5-0.2,0.9-0.5,1.3-0.9c0.4-0.4,0.8-0.8,1.1-1.2s0.5-0.9,0.5-1.4c0,0-0.1-0.1-0.1-0.1v-0.3c0-0.3,0.1-0.6,0.2-0.9
				c0.1-0.3,0.3-0.6,0.6-0.9c0.3-0.3,0.6-0.5,0.9-0.7c0.3-0.2,0.7-0.3,1.1-0.3c0.2,0,0.4,0.1,0.6,0.2c0.2,0.1,0.3,0.4,0.3,0.7
				c0.1,1.1,0.3,2.1,0.5,3c0.2,0.8,0.5,1.7,0.8,2.5c0.3,0.8,0.8,1.5,1.3,1.9c0.2,0.2,0.4,0.4,0.5,0.6c0.1,0.2,0.2,0.4,0.3,0.6
				C209.7,123.2,209.7,123.4,209.7,123.7z"/>
			<path class="st0" d="M226.7,111.8c0,0.3-0.1,0.5-0.3,0.7c-0.2,0.2-0.4,0.3-0.7,0.4c-0.3,0.1-0.6,0.2-1,0.2
				c-0.8,0-1.3-0.1-1.7-0.4c-0.4-0.2-0.7-0.5-0.9-0.8s-0.4-0.6-0.5-0.8c-0.1-0.2-0.2-0.4-0.4-0.4c-0.2,0-0.6,0.4-1.1,1.2
				c-0.5,0.8-1,1.8-1.6,3c-0.5,1.2-1,2.6-1.4,4.1s-0.6,3-0.6,4.4c0,0.6-0.2,1.1-0.5,1.3c-0.4,0.2-0.8,0.3-1.3,0.3
				c-0.6,0-1.1-0.3-1.4-0.8c-0.3-0.5-0.6-1.2-0.7-2c-0.2-0.8-0.2-1.7-0.3-2.7c0-1-0.1-1.9-0.1-2.8c0-1.5,0-3,0.1-4.5
				c0.1-1.5,0.2-2.7,0.3-3.8c0.1-0.9,0.3-1.6,0.5-2.1c0.2-0.6,0.4-1,0.7-1.3c0.3-0.3,0.6-0.5,1-0.6c0.4-0.1,0.8-0.2,1.4-0.2
				c0.2,0,0.4,0.1,0.5,0.2c0.1,0.1,0.2,0.2,0.3,0.4c0.1,0.2,0.2,0.5,0.2,0.8c0,0.2,0,0.4-0.1,0.5c-0.1,0.5-0.2,1.1-0.3,1.6
				c-0.1,0.5-0.2,1-0.3,1.7c-0.1,0.6-0.2,1.3-0.2,1.9c0,0.1,0,0.2,0.1,0.2c0,0.1,0.1,0.2,0.2,0.2c0.1,0,0.2-0.1,0.2-0.3
				c0.2-0.6,0.5-1.2,0.8-1.9c0.3-0.6,0.6-1.2,0.9-1.9c0.3-0.7,0.8-1.4,1.2-2.1c0.2-0.3,0.4-0.6,0.5-0.9c0.1-0.2,0.3-0.6,0.7-1.2
				c0.3-0.3,0.6-0.6,0.9-0.8c0.3-0.2,0.6-0.4,1-0.6c0.3-0.2,0.7-0.3,1.1-0.3c0.3,0,0.6,0.1,0.8,0.3c0.3,0.2,0.4,0.5,0.4,0.9
				c0,0.5,0,1-0.1,1.4c-0.1,0.5-0.1,1-0.1,1.7c0,1.1,0.1,1.9,0.3,2.5c0.2,0.6,0.4,1.1,0.6,1.4c0.2,0.4,0.4,0.6,0.6,0.8
				C226.6,111.4,226.7,111.6,226.7,111.8z"/>
			<path class="st0" d="M236.2,90.7c-0.6,2.5-1.1,5-1.5,7.7c-0.4,2.3-0.8,4.7-1.1,7.4s-0.5,5.3-0.5,7.9c0,1.9,0.1,3.7,0.3,5.4
				s0.6,3.1,1.2,4.2c0,0.1,0.1,0.2,0.2,0.4c0.2,0.3,0.2,0.6,0.2,1c0,0.3-0.2,0.8-0.6,1.2c-0.4,0.5-1,0.7-1.7,0.7
				c-0.4,0-0.7-0.1-1-0.2s-0.5-0.3-0.7-0.5c-0.2-0.2-0.4-0.5-0.6-0.8c-0.6-1.2-1.1-2.7-1.3-4.5c-0.2-1.8-0.4-3.8-0.4-5.9
				c0-2,0.1-4,0.3-6c0.2-2.1,0.4-4.1,0.7-6.1c0.3-2,0.6-4,1-5.8c0.4-1.9,0.7-3.6,1.2-5.2c0.1-0.3,0.2-0.7,0.5-1
				c0.2-0.3,0.5-0.5,0.8-0.7c0.4-0.2,0.8-0.3,1.4-0.4c0.4,0,0.8,0,1.2,0.1c0.4,0.1,0.5,0.3,0.5,0.8L236.2,90.7z"/>
			<path class="st0" d="M254.7,123.7c0,0.5-0.1,0.8-0.3,1s-0.5,0.4-0.8,0.5c-0.3,0.1-0.7,0.2-1.1,0.2c-0.7,0-1.3-0.2-1.7-0.6
				c-0.5-0.4-0.9-0.8-1.2-1.3c-0.4-0.6-0.7-1.2-0.9-2c0-0.2-0.1-0.3-0.2-0.3c-0.1,0-0.2,0-0.2,0.1l-0.1,0.1
				c-0.6,0.6-1.1,1.2-1.7,1.6c-0.6,0.4-1.2,0.7-1.7,0.9c-0.6,0.2-1.1,0.3-1.5,0.4s-0.8,0.1-1.1,0.1c-1.1,0-2-0.2-2.6-0.6
				c-0.6-0.4-1.1-0.8-1.4-1.4c-0.3-0.5-0.5-1-0.6-1.5s-0.1-0.9-0.1-1.1c0-0.8,0.1-1.5,0.4-2.2c0.3-0.7,0.6-1.4,1.1-2s1-1.2,1.5-1.7
				c0.6-0.5,1.1-1,1.7-1.5c1.4-1,3-1.9,4.8-2.8c0.1,0,0.2-0.1,0.3-0.2c0.2-0.1,0.3-0.3,0.3-0.5c0-0.4-0.3-0.7-1-0.8
				c-0.7-0.1-1.4-0.2-2.2-0.2c-0.3,0-0.7,0-1,0c-0.3,0-0.6,0-0.8,0.1c-0.3,0-0.6,0.1-0.8,0.1c-0.4,0-0.7,0-1-0.1
				c-0.2-0.1-0.4-0.3-0.5-0.5c-0.1-0.2-0.2-0.4-0.2-0.6c0-0.2-0.1-0.4-0.1-0.5c0-0.1,0-0.3,0.1-0.5c0.1-0.2,0.3-0.5,0.6-0.8
				s0.7-0.5,1.3-0.7c0.6-0.2,1.4-0.3,2.4-0.3c0.7,0,1.5,0.1,2.5,0.2c1,0.2,1.9,0.4,2.8,0.8c0.9,0.4,1.6,0.8,2.3,1.4
				c0.6,0.6,0.9,1.3,0.9,2.1c0,0.6-0.3,1.2-0.8,1.7c-0.5,0.5-1.2,1.1-2,1.6c-0.8,0.5-1.6,1-2.6,1.5c-0.9,0.5-1.8,1.1-2.6,1.6
				c-0.8,0.6-1.4,1.2-2,1.9c-0.5,0.7-0.8,1.5-0.8,2.3c0,0.2,0.1,0.4,0.2,0.7c0.1,0.3,0.5,0.5,1,0.5c0.4,0,0.8-0.1,1.3-0.3
				c0.5-0.2,0.9-0.5,1.3-0.9c0.4-0.4,0.8-0.8,1.1-1.2s0.5-0.9,0.5-1.4c0,0-0.1-0.1-0.1-0.1v-0.3c0-0.3,0.1-0.6,0.2-0.9
				c0.1-0.3,0.3-0.6,0.6-0.9c0.3-0.3,0.6-0.5,0.9-0.7c0.3-0.2,0.7-0.3,1.1-0.3c0.2,0,0.4,0.1,0.6,0.2c0.2,0.1,0.3,0.4,0.3,0.7
				c0.1,1.1,0.3,2.1,0.5,3c0.2,0.8,0.5,1.7,0.8,2.5c0.3,0.8,0.8,1.5,1.3,1.9c0.2,0.2,0.4,0.4,0.5,0.6c0.1,0.2,0.2,0.4,0.3,0.6
				C254.6,123.2,254.7,123.4,254.7,123.7z"/>
		</g>
	</g>
	<g>
		<g>
			<path class="st0" d="M18.9,70.3c0,0.4-0.1,0.8-0.3,1c-0.2,0.2-0.4,0.4-0.7,0.5c-0.3,0.1-0.6,0.2-1,0.2c-0.3,0-0.6,0-0.9-0.1
				c-0.3-0.1-0.6-0.1-1-0.1c-1.1,0-2.1,0.1-3.1,0.4c-1,0.3-1.9,0.6-2.7,1c-0.8,0.4-1.6,0.7-2.2,1c-0.6,0.3-1.1,0.4-1.4,0.4
				c-0.5,0-0.9-0.2-1.1-0.5c-0.2-0.3-0.3-0.6-0.3-1c0-0.4,0.1-0.7,0.3-1.1c0.2-0.3,0.5-0.6,0.7-0.9c0.3-0.3,0.6-0.5,0.9-0.7
				c0.3-0.2,0.6-0.4,0.8-0.5C7,70.2,7,70.1,7.1,70c0-0.1,0-0.1,0-0.2C7,68.5,7,67.3,7,66.2c0-1.9,0.1-3.6,0.3-5.1
				c0.2-1.5,0.4-2.8,0.6-3.8c0.2-1.2,0.5-2.2,0.8-3.1c0.1-0.4,0.3-0.8,0.6-1.2c0.2-0.3,0.5-0.6,0.9-0.8c0.4-0.3,0.9-0.4,1.4-0.4
				c0.1,0,0.3,0,0.5,0c0.2,0,0.4,0.1,0.5,0.2c0.2,0.1,0.3,0.2,0.4,0.4c0.1,0.2,0.2,0.4,0.2,0.7c0,0.4-0.1,0.9-0.3,1.4
				c-0.4,1.1-0.8,2.2-1.1,3.5c-0.3,1.1-0.5,2.3-0.7,3.7c-0.2,1.4-0.3,2.9-0.3,4.4c0,0.4,0,0.9,0,1.4c0,0.5,0.1,0.9,0.1,1.4
				c0,0.1,0,0.1,0,0.1C10.9,69,10.9,69,11,69c0,0,0.2,0,0.5-0.1c0.3-0.1,0.7-0.2,1.1-0.3c0.4-0.1,0.9-0.2,1.5-0.3
				c0.6-0.1,1.1-0.1,1.6-0.1c0.3,0,0.6,0,1,0.1s0.7,0.1,1.1,0.3c0.3,0.1,0.6,0.3,0.8,0.6C18.8,69.4,18.9,69.8,18.9,70.3z"/>
			<path class="st0" d="M30,73.3c0,0.3-0.1,0.6-0.2,0.7c-0.2,0.2-0.3,0.3-0.5,0.4c-0.2,0.1-0.5,0.2-0.8,0.2c-0.5,0-0.9-0.1-1.2-0.4
				c-0.3-0.3-0.6-0.6-0.8-0.9c-0.3-0.4-0.5-0.8-0.6-1.4c0-0.1-0.1-0.2-0.2-0.2c-0.1,0-0.1,0-0.2,0.1l-0.1,0.1
				c-0.4,0.4-0.8,0.8-1.2,1.1c-0.4,0.3-0.8,0.5-1.2,0.6c-0.4,0.1-0.7,0.2-1.1,0.3s-0.6,0.1-0.8,0.1c-0.8,0-1.4-0.1-1.8-0.4
				c-0.4-0.3-0.8-0.6-1-0.9c-0.2-0.4-0.3-0.7-0.4-1.1C18,71.1,18,70.8,18,70.7c0-0.5,0.1-1,0.3-1.5c0.2-0.5,0.4-0.9,0.7-1.4
				c0.3-0.4,0.7-0.8,1.1-1.2s0.8-0.7,1.2-1c1-0.7,2.1-1.3,3.3-1.9c0.1,0,0.2-0.1,0.2-0.1c0.2-0.1,0.2-0.2,0.2-0.4
				c0-0.3-0.2-0.5-0.7-0.6s-1-0.2-1.5-0.2c-0.2,0-0.5,0-0.7,0c-0.2,0-0.4,0-0.6,0.1c-0.2,0-0.4,0-0.5,0c-0.3,0-0.5,0-0.7-0.1
				c-0.2-0.1-0.3-0.2-0.4-0.3c-0.1-0.1-0.1-0.3-0.2-0.4c0-0.1,0-0.3,0-0.3c0-0.1,0-0.2,0.1-0.4c0.1-0.2,0.2-0.4,0.4-0.5
				c0.2-0.2,0.5-0.4,0.9-0.5c0.4-0.1,1-0.2,1.7-0.2c0.5,0,1,0.1,1.7,0.2c0.7,0.1,1.3,0.3,1.9,0.5s1.1,0.6,1.6,1
				c0.4,0.4,0.6,0.9,0.6,1.4c0,0.4-0.2,0.8-0.5,1.2c-0.4,0.4-0.8,0.7-1.4,1.1c-0.5,0.3-1.1,0.7-1.8,1.1c-0.6,0.4-1.2,0.7-1.8,1.1
				c-0.5,0.4-1,0.8-1.4,1.3c-0.4,0.5-0.5,1-0.5,1.6c0,0.1,0,0.3,0.1,0.5c0.1,0.2,0.3,0.4,0.7,0.4c0.3,0,0.6-0.1,0.9-0.2
				c0.3-0.2,0.6-0.4,0.9-0.6s0.5-0.5,0.7-0.8c0.2-0.3,0.3-0.6,0.3-1c0,0,0-0.1,0-0.1v-0.2c0-0.2,0-0.4,0.1-0.6
				c0.1-0.2,0.2-0.4,0.4-0.6c0.2-0.2,0.4-0.4,0.6-0.5c0.2-0.1,0.5-0.2,0.8-0.2c0.2,0,0.3,0,0.4,0.1c0.1,0.1,0.2,0.2,0.2,0.5
				c0.1,0.7,0.2,1.4,0.4,2.1c0.1,0.6,0.3,1.1,0.5,1.7c0.2,0.6,0.5,1,0.9,1.3c0.1,0.2,0.2,0.3,0.4,0.4c0.1,0.1,0.2,0.3,0.2,0.4
				S30,73.1,30,73.3z"/>
			<path class="st0" d="M51.3,60.5c0,0.1-0.1,0.3-0.2,0.6c-0.1,0.3-0.4,0.6-0.7,1c-0.4,0.4-0.8,0.9-1.2,1.5
				c-0.4,0.6-0.9,1.3-1.3,2.1c-0.4,0.8-0.9,1.7-1.3,2.7c-0.4,1-0.8,2-1.1,3.1c-0.1,0.5-0.3,0.9-0.5,1.3c-0.2,0.3-0.4,0.6-0.7,0.9
				C44,73.9,43.6,74,43.1,74c-0.5,0-1-0.2-1.5-0.6c-0.4-0.4-0.8-0.9-1.2-1.6c-0.4-0.6-0.7-1.3-0.9-2.1c-0.2-0.8-0.4-1.6-0.6-2.3
				c-0.2-0.8-0.3-1.5-0.4-2.1c-0.1-0.7-0.1-1.2-0.1-1.6c0-0.8,0.1-1.5,0.3-2c0.2-0.5,0.6-0.7,1.2-0.7c0.1,0,0.2,0,0.4,0
				c0.2,0,0.3,0.1,0.5,0.2c0.1,0.1,0.3,0.3,0.4,0.4c0.1,0.2,0.2,0.5,0.2,0.8c0,0.6,0.1,1.3,0.2,2.2c0.1,0.9,0.2,1.7,0.4,2.5
				c0.1,0.8,0.3,1.5,0.5,2.1c0.2,0.6,0.4,0.9,0.5,0.9c0.1,0,0.2-0.1,0.3-0.3c0.4-1.4,0.9-2.7,1.4-3.9c0.2-0.5,0.4-1.1,0.7-1.7
				c0.3-0.6,0.5-1.1,0.8-1.6c0.3-0.5,0.6-1,0.9-1.5s0.6-0.9,1-1.2c0.2-0.2,0.3-0.3,0.5-0.4c0.2-0.1,0.3-0.2,0.5-0.3
				c0.2-0.1,0.5-0.1,0.7-0.1c0.3,0,0.7,0.1,1,0.3C51.1,59.7,51.3,60,51.3,60.5z"/>
			<path class="st0" d="M55.9,61.5c0,0.1-0.1,0.4-0.2,0.8c-0.1,0.4-0.2,0.9-0.2,1.4c-0.1,0.6-0.1,1.2-0.2,1.9s-0.1,1.4-0.1,2.2
				c0,0.6,0,1.1,0.1,1.6c0.1,0.5,0.1,0.9,0.2,1.3c0.1,0.5,0.2,0.9,0.2,1.2c-0.1,0.4-0.2,0.6-0.5,0.7c-0.3,0.1-0.6,0.2-0.8,0.2
				c-0.2,0-0.5-0.1-0.7-0.2c-0.1-0.1-0.2-0.1-0.2-0.2c-0.4-0.5-0.7-1.2-0.9-2.2c-0.2-0.9-0.3-1.9-0.3-3c0-0.8,0-1.6,0.1-2.4
				s0.1-1.5,0.2-2.1c0.1-0.7,0.2-1.4,0.3-2.1c0-0.1,0.1-0.2,0.2-0.3c0.1-0.1,0.2-0.1,0.4-0.2c0.2-0.1,0.4-0.1,0.7-0.1
				c0.1,0,0.3,0,0.5,0.1c0.2,0,0.4,0.1,0.5,0.2c0.2,0.1,0.3,0.2,0.4,0.4C55.9,61,55.9,61.2,55.9,61.5z M57.1,54.3
				c0,0.2,0,0.4-0.1,0.7c-0.1,0.3-0.2,0.6-0.4,0.9c-0.2,0.3-0.5,0.6-0.8,0.8c-0.4,0.2-0.8,0.4-1.3,0.4c-0.5,0-0.8-0.1-1-0.4
				c-0.2-0.3-0.3-0.6-0.3-0.9c0-0.3,0.1-0.6,0.2-0.9c0.1-0.3,0.3-0.6,0.6-0.9c0.3-0.3,0.6-0.5,0.9-0.7c0.4-0.2,0.7-0.3,1.1-0.3
				c0.2,0,0.4,0.1,0.7,0.2C57,53.4,57.1,53.7,57.1,54.3z"/>
			<path class="st0" d="M71.5,62.1c0,0.5-0.1,0.8-0.4,1c-0.2,0.2-0.5,0.2-0.7,0.2c-0.2,0-0.4,0-0.4,0c-0.1,0-0.1-0.1-0.2-0.1
				c0,0.3,0,0.7,0,1c0,0.4,0,0.7,0,1.1c0,0.7,0,1.3,0.1,2c0,0.6,0.1,1.2,0.2,1.7c0.1,0.5,0.2,1,0.3,1.3c0.1,0.4,0.3,0.6,0.5,0.8
				c0.2,0.1,0.3,0.3,0.3,0.4c0,0.1,0.1,0.2,0.1,0.3c0,0.3-0.1,0.6-0.2,0.7c-0.2,0.2-0.3,0.3-0.5,0.4c-0.2,0.1-0.4,0.2-0.7,0.2
				c-0.6,0-1.1-0.2-1.4-0.5c-0.3-0.4-0.6-0.7-0.8-1.2c-0.2-0.5-0.3-1.1-0.4-1.7c0-0.1,0-0.2-0.1-0.2c0,0-0.1,0-0.1,0.1l-0.1,0.1
				c-0.7,0.9-1.4,1.7-2.1,2.2c-0.7,0.5-1.4,0.9-2,1.1c-0.6,0.2-1.1,0.4-1.5,0.4s-0.7,0.1-0.7,0.1c-0.5,0-1-0.1-1.3-0.4
				c-0.3-0.2-0.6-0.5-0.7-0.9c-0.2-0.3-0.3-0.7-0.4-1.1c-0.1-0.4-0.1-0.7-0.1-1c0-1.4,0.3-2.6,0.8-3.7c0.5-1.1,1.2-2.1,2.1-2.9
				c0.8-0.8,1.8-1.5,2.9-2c1.1-0.5,2.1-0.9,3.2-1.1c0,0,0.1,0,0.1,0c0,0,0.1,0,0.1-0.1c0,0,0,0,0-0.1c0-0.5,0.1-1,0.1-1.5
				c0-0.5,0.1-1.1,0.1-1.8c0.1-1.4,0.1-2.6,0.3-3.7c0.1-0.5,0.1-1,0.2-1.5c0.1-0.5,0.2-0.9,0.3-1.4c0.1-0.4,0.2-0.8,0.4-1.1
				c0.1-0.3,0.3-0.5,0.4-0.7c0.2-0.2,0.3-0.3,0.5-0.4c0.1-0.1,0.3-0.2,0.5-0.3c0.2-0.1,0.4-0.1,0.6-0.1c0.2,0,0.4,0.1,0.6,0.2
				c0.2,0.1,0.3,0.4,0.3,0.9c0,0.3,0,0.6-0.1,1c-0.2,1-0.4,1.9-0.5,2.9c-0.1,1-0.2,1.9-0.4,2.8c-0.1,1-0.2,1.9-0.3,2.8
				c0,0.2,0,0.4,0,0.6c0,0.2,0,0.4-0.1,0.7c0,0.3,0,0.5-0.1,0.9c0,0.1,0,0.1,0,0.1c0,0,0.1,0,0.1,0c0.3,0.1,0.7,0.3,1,0.5
				C71.3,61.4,71.5,61.7,71.5,62.1z M67,63.5c0-0.1-0.1-0.2-0.2-0.2c-0.7,0.1-1.3,0.3-2,0.7c-0.7,0.4-1.2,0.8-1.7,1.4
				c-0.5,0.6-0.9,1.2-1.2,1.9c-0.3,0.7-0.5,1.4-0.5,2.1c0,0.3,0.1,0.5,0.2,0.8c0.1,0.2,0.3,0.4,0.6,0.4c0.4,0,0.9-0.2,1.5-0.6
				c0.6-0.4,1.1-0.9,1.6-1.5c0.5-0.6,0.9-1.4,1.3-2.2C66.8,65.3,67,64.4,67,63.5z"/>
			<path class="st0" d="M84.6,73.3c0,0.3-0.1,0.6-0.2,0.7s-0.3,0.3-0.5,0.4c-0.2,0.1-0.5,0.2-0.8,0.2c-0.5,0-0.9-0.1-1.2-0.4
				s-0.6-0.6-0.8-0.9c-0.3-0.4-0.5-0.8-0.6-1.4c0-0.1-0.1-0.2-0.2-0.2c-0.1,0-0.1,0-0.2,0.1l-0.1,0.1c-0.4,0.4-0.8,0.8-1.2,1.1
				c-0.4,0.3-0.8,0.5-1.2,0.6c-0.4,0.1-0.7,0.2-1.1,0.3c-0.3,0-0.6,0.1-0.8,0.1c-0.8,0-1.4-0.1-1.8-0.4c-0.4-0.3-0.8-0.6-1-0.9
				c-0.2-0.4-0.3-0.7-0.4-1.1c-0.1-0.4-0.1-0.6-0.1-0.8c0-0.5,0.1-1,0.3-1.5c0.2-0.5,0.4-0.9,0.7-1.4c0.3-0.4,0.7-0.8,1.1-1.2
				s0.8-0.7,1.2-1c1-0.7,2.1-1.3,3.3-1.9c0.1,0,0.2-0.1,0.2-0.1c0.2-0.1,0.2-0.2,0.2-0.4c0-0.3-0.2-0.5-0.7-0.6
				c-0.5-0.1-1-0.2-1.5-0.2c-0.2,0-0.5,0-0.7,0c-0.2,0-0.4,0-0.6,0.1c-0.2,0-0.4,0-0.5,0c-0.3,0-0.5,0-0.7-0.1
				c-0.2-0.1-0.3-0.2-0.4-0.3c-0.1-0.1-0.1-0.3-0.2-0.4c0-0.1,0-0.3,0-0.3c0-0.1,0-0.2,0.1-0.4c0.1-0.2,0.2-0.4,0.4-0.5
				c0.2-0.2,0.5-0.4,0.9-0.5s1-0.2,1.7-0.2c0.5,0,1,0.1,1.7,0.2c0.7,0.1,1.3,0.3,1.9,0.5s1.1,0.6,1.6,1c0.4,0.4,0.6,0.9,0.6,1.4
				c0,0.4-0.2,0.8-0.5,1.2c-0.4,0.4-0.8,0.7-1.4,1.1s-1.1,0.7-1.8,1.1c-0.6,0.4-1.2,0.7-1.8,1.1c-0.5,0.4-1,0.8-1.4,1.3
				c-0.4,0.5-0.5,1-0.5,1.6c0,0.1,0,0.3,0.1,0.5c0.1,0.2,0.3,0.4,0.7,0.4c0.3,0,0.6-0.1,0.9-0.2c0.3-0.2,0.6-0.4,0.9-0.6
				s0.5-0.5,0.7-0.8c0.2-0.3,0.3-0.6,0.3-1c0,0,0-0.1,0-0.1v-0.2c0-0.2,0-0.4,0.1-0.6c0.1-0.2,0.2-0.4,0.4-0.6
				c0.2-0.2,0.4-0.4,0.6-0.5c0.2-0.1,0.5-0.2,0.8-0.2c0.2,0,0.3,0,0.4,0.1c0.1,0.1,0.2,0.2,0.2,0.5c0.1,0.7,0.2,1.4,0.4,2.1
				c0.1,0.6,0.3,1.1,0.5,1.7c0.2,0.6,0.5,1,0.9,1.3c0.1,0.2,0.2,0.3,0.4,0.4c0.1,0.1,0.2,0.3,0.2,0.4S84.6,73.1,84.6,73.3z"/>
			<path class="st0" d="M103.2,62.5c0,0.8-0.2,1.6-0.5,2.4c-0.3,0.8-0.8,1.5-1.3,2c-0.6,0.6-1.2,1.1-1.9,1.4
				c-0.7,0.4-1.5,0.5-2.3,0.5c-0.1,0-0.1,0-0.2,0.1c0,0,0,0.1,0,0.1c0.1,0.6,0.2,1.1,0.4,1.4s0.4,0.6,0.7,0.8
				c0.3,0.2,0.6,0.4,0.9,0.5c0.7,0.2,1.1,0.4,1.2,0.7c0.1,0.3,0.2,0.6,0.2,0.8c0,0.3-0.1,0.6-0.3,0.8c-0.2,0.2-0.4,0.3-0.6,0.4
				c-0.2,0.1-0.5,0.2-0.8,0.2c-0.9,0-1.6-0.2-2.2-0.6s-1.1-0.9-1.4-1.3c-0.4-0.6-0.7-1.2-1-2L94,70.1c-0.1-0.2-0.1-0.3-0.1-0.5
				s-0.1-0.5-0.1-0.7c0,0,0-0.1,0-0.1c-0.1-0.1-0.1-0.1-0.2-0.1c-0.3-0.1-0.6-0.1-0.9-0.3c-0.2-0.1-0.4-0.3-0.6-0.5
				c-0.2-0.2-0.3-0.6-0.3-1c0-0.2,0.1-0.4,0.2-0.5c0.1-0.1,0.1-0.3,0.3-0.4c0.1-0.1,0.3-0.2,0.4-0.2c0.1,0,0.2,0,0.3,0.1
				s0.4,0.1,0.7,0.1c0.1,0,0.1,0,0.1,0c0,0,0,0,0,0c0.4-1.2,0.8-2.3,1.4-3.3c0.3-0.4,0.5-0.8,0.9-1.2c0.3-0.4,0.7-0.7,1.1-1.1
				c0.4-0.3,0.8-0.6,1.3-0.7c0.5-0.2,1-0.3,1.6-0.3c0.3,0,0.6,0,0.9,0.1s0.7,0.2,1,0.5c0.3,0.2,0.6,0.6,0.8,1
				C103.1,61.3,103.2,61.8,103.2,62.5z M100.4,62.9c0-0.2,0-0.3-0.1-0.4c-0.1-0.1-0.1-0.2-0.2-0.3c-0.1-0.1-0.2-0.1-0.4-0.1
				c-0.3,0-0.6,0.1-1,0.4c-0.4,0.3-0.7,0.6-1,1.1c-0.3,0.4-0.5,0.9-0.7,1.4c-0.2,0.5-0.3,0.9-0.3,1.3c0,0.1,0.1,0.2,0.2,0.2
				c0.2,0,0.5-0.1,0.8-0.2c0.4-0.1,0.8-0.4,1.2-0.6c0.4-0.3,0.7-0.6,1-1.1S100.4,63.5,100.4,62.9z"/>
			<path class="st0" d="M114,69c0,0.8-0.2,1.5-0.7,2.1c-0.5,0.6-1.1,1.1-1.8,1.5c-0.7,0.4-1.4,0.7-2.2,0.9c-0.8,0.2-1.4,0.3-1.9,0.3
				c-1.1,0-2-0.2-2.5-0.7c-0.5-0.5-0.7-1-0.7-1.5c0-0.4,0.2-0.8,0.5-1c0.3-0.2,0.6-0.3,0.8-0.3c0.3,0,0.6,0.1,1,0.3
				c0.4,0.2,0.9,0.3,1.5,0.3c0.8,0,1.4-0.1,1.8-0.4s0.6-0.5,0.6-0.8c0-0.3-0.1-0.5-0.4-0.7c-0.3-0.2-0.7-0.4-1.1-0.5
				c-0.5-0.1-0.9-0.3-1.5-0.4c-0.5-0.1-1-0.3-1.5-0.5c-0.5-0.2-0.8-0.5-1.1-0.8c-0.3-0.3-0.4-0.7-0.4-1.2c0-0.6,0.2-1.3,0.6-2
				c0.4-0.7,0.9-1.3,1.6-1.9c0.6-0.6,1.4-1.1,2.2-1.5c0.8-0.4,1.7-0.6,2.5-0.6c0.8,0,1.4,0.2,1.8,0.6c0.4,0.4,0.7,1.1,0.7,2
				c0,0.4-0.1,0.8-0.3,1.2c-0.2,0.4-0.6,0.5-1.1,0.5c-0.3,0-0.5-0.1-0.6-0.3c-0.1-0.2-0.2-0.4-0.3-0.5c-0.1-0.2-0.2-0.4-0.3-0.5
				c-0.1-0.2-0.4-0.3-0.8-0.3c-0.2,0-0.4,0.1-0.7,0.2s-0.6,0.3-0.9,0.5c-0.3,0.2-0.6,0.5-0.8,0.7c-0.2,0.3-0.3,0.6-0.3,0.9
				c0,0.3,0.2,0.6,0.5,0.8c0.3,0.2,0.7,0.4,1.2,0.6s1,0.4,1.5,0.5c0.6,0.2,1.1,0.4,1.5,0.6c0.5,0.2,0.9,0.5,1.2,0.8
				C113.8,68.1,114,68.5,114,69z"/>
			<path class="st0" d="M124.9,57.2c0,0.3-0.1,0.5-0.2,0.6c-0.1,0.1-0.3,0.2-0.4,0.3c-0.2,0.1-0.3,0.1-0.5,0.1c-0.3,0-0.6,0-1,0.1
				c-0.4,0.1-0.8,0.1-1.2,0.2c-0.4,0.1-0.8,0.2-1.1,0.3c-0.3,0.1-0.5,0.2-0.5,0.3c-0.1,0.5-0.2,1.2-0.2,2c-0.1,0.7-0.1,1.6-0.2,2.7
				c-0.1,1.1-0.1,2.4-0.1,3.9c0.1,1,0.2,2,0.4,2.9c0.1,0.8,0.3,1.6,0.5,2.4c0.2,0.8,0.5,1.4,0.9,1.9c0.2,0.3,0.4,0.6,0.4,0.8
				c0,0.4-0.2,0.6-0.5,0.8c-0.4,0.2-0.6,0.3-0.8,0.3c-0.4,0-0.8-0.1-1-0.3c-0.2-0.1-0.3-0.2-0.4-0.3c-0.5-0.4-0.8-1-1.1-1.8
				c-0.3-0.7-0.5-1.5-0.7-2.4c-0.2-0.9-0.3-1.8-0.3-2.7c-0.1-0.9-0.1-1.9-0.1-2.7c0-0.7,0-1.5,0.1-2.3c0-0.8,0.1-1.6,0.1-2.3
				c0.1-0.9,0.2-1.7,0.2-2.5c0-0.1,0-0.1-0.1-0.1h-0.1c-1.3,0-2.2-0.1-2.7-0.3c-0.5-0.2-0.7-0.6-0.7-1.1c0-0.1,0-0.2,0-0.4
				c0-0.2,0.1-0.3,0.2-0.5c0.1-0.2,0.3-0.3,0.5-0.4c0.2-0.1,0.5-0.2,0.9-0.2c0.3,0,0.5,0,0.7,0.1c0.2,0.1,0.4,0.1,0.8,0.1
				c0.1,0,0.2,0,0.5,0c0.2,0,0.4-0.1,0.4-0.2c0.2-1.5,0.4-2.7,0.7-3.5c0.3-0.8,0.6-1.5,0.9-1.9s0.6-0.7,0.9-0.7s0.6-0.1,1-0.1
				c0.2,0,0.3,0,0.4,0.1c0.1,0.1,0.2,0.1,0.3,0.3c0.1,0.1,0.1,0.3,0.1,0.5c0,0.3,0,0.6-0.1,0.9c-0.1,0.3-0.2,0.6-0.3,1
				c-0.1,0.4-0.3,0.8-0.4,1.2c-0.1,0.5-0.3,1.1-0.4,1.9c0,0.1,0,0.2,0.1,0.2c0.1,0,0.4-0.1,0.9-0.2c0.5-0.1,0.9-0.2,1.3-0.2
				c0.5,0,0.9,0.1,1.2,0.2s0.5,0.3,0.6,0.5C124.7,56.7,124.8,57,124.9,57.2z"/>
			<path class="st0" d="M134.6,73.3c0,0.3-0.1,0.6-0.2,0.7s-0.3,0.3-0.5,0.4c-0.2,0.1-0.5,0.2-0.8,0.2c-0.5,0-0.9-0.1-1.2-0.4
				s-0.6-0.6-0.8-0.9c-0.3-0.4-0.5-0.8-0.6-1.4c0-0.1-0.1-0.2-0.2-0.2c-0.1,0-0.1,0-0.2,0.1l-0.1,0.1c-0.4,0.4-0.8,0.8-1.2,1.1
				c-0.4,0.3-0.8,0.5-1.2,0.6c-0.4,0.1-0.7,0.2-1.1,0.3c-0.3,0-0.6,0.1-0.8,0.1c-0.8,0-1.4-0.1-1.8-0.4c-0.4-0.3-0.8-0.6-1-0.9
				c-0.2-0.4-0.3-0.7-0.4-1.1c-0.1-0.4-0.1-0.6-0.1-0.8c0-0.5,0.1-1,0.3-1.5c0.2-0.5,0.4-0.9,0.7-1.4c0.3-0.4,0.7-0.8,1.1-1.2
				s0.8-0.7,1.2-1c1-0.7,2.1-1.3,3.3-1.9c0.1,0,0.2-0.1,0.2-0.1c0.2-0.1,0.2-0.2,0.2-0.4c0-0.3-0.2-0.5-0.7-0.6
				c-0.5-0.1-1-0.2-1.5-0.2c-0.2,0-0.5,0-0.7,0c-0.2,0-0.4,0-0.6,0.1c-0.2,0-0.4,0-0.5,0c-0.3,0-0.5,0-0.7-0.1
				c-0.2-0.1-0.3-0.2-0.4-0.3c-0.1-0.1-0.1-0.3-0.2-0.4c0-0.1,0-0.3,0-0.3c0-0.1,0-0.2,0.1-0.4c0.1-0.2,0.2-0.4,0.4-0.5
				c0.2-0.2,0.5-0.4,0.9-0.5s1-0.2,1.7-0.2c0.5,0,1,0.1,1.7,0.2c0.7,0.1,1.3,0.3,1.9,0.5s1.1,0.6,1.6,1c0.4,0.4,0.6,0.9,0.6,1.4
				c0,0.4-0.2,0.8-0.5,1.2c-0.4,0.4-0.8,0.7-1.4,1.1s-1.1,0.7-1.8,1.1c-0.6,0.4-1.2,0.7-1.8,1.1c-0.5,0.4-1,0.8-1.4,1.3
				c-0.4,0.5-0.5,1-0.5,1.6c0,0.1,0,0.3,0.1,0.5c0.1,0.2,0.3,0.4,0.7,0.4c0.3,0,0.6-0.1,0.9-0.2c0.3-0.2,0.6-0.4,0.9-0.6
				s0.5-0.5,0.7-0.8c0.2-0.3,0.3-0.6,0.3-1c0,0,0-0.1,0-0.1v-0.2c0-0.2,0-0.4,0.1-0.6c0.1-0.2,0.2-0.4,0.4-0.6
				c0.2-0.2,0.4-0.4,0.6-0.5c0.2-0.1,0.5-0.2,0.8-0.2c0.2,0,0.3,0,0.4,0.1c0.1,0.1,0.2,0.2,0.2,0.5c0.1,0.7,0.2,1.4,0.4,2.1
				c0.1,0.6,0.3,1.1,0.5,1.7c0.2,0.6,0.5,1,0.9,1.3c0.1,0.2,0.2,0.3,0.4,0.4c0.1,0.1,0.2,0.3,0.2,0.4S134.6,73.1,134.6,73.3z
				 M133,53.9c0,0.1,0,0.2-0.1,0.4s-0.1,0.2-0.2,0.2c-0.1,0.1-0.2,0.1-0.2,0.2c-0.5,0.2-1,0.5-1.4,0.8c-0.4,0.3-0.8,0.6-1.2,1
				c-0.4,0.3-0.7,0.6-1.1,0.8c-0.4,0.2-0.7,0.4-1.1,0.4c-0.2,0-0.4,0-0.4-0.2c-0.1-0.1-0.1-0.1,0-0.2c0-0.5,0.1-1,0.4-1.6
				c0.3-0.6,0.6-1.1,1-1.6c0.4-0.5,0.8-0.9,1.2-1.2s0.7-0.5,0.9-0.5c0.2,0,0.4,0,0.6,0.1c0.2,0.1,0.5,0.1,0.7,0.3
				c0.2,0.1,0.4,0.3,0.6,0.5C132.9,53.4,133,53.6,133,53.9z"/>
		</g>
	</g>
	<g>
		<path class="st1" d="M81.5,146.3c8,0,8,4.9,15.9,4.9c8,0,8-4.9,15.9-4.9c8,0,8,4.9,15.9,4.9c8,0,8-4.9,15.9-4.9
			c8,0,8,4.9,15.9,4.9s8-4.9,15.9-4.9"/>
	</g>
	<g>
		<path class="st0" d="M240.6,49C240.6,49,240.5,48.9,240.6,49c-0.2,0-0.3-0.1-0.4-0.1c-0.2-0.1-0.4-0.2-0.6-0.4
			c-0.1-0.1-0.2-0.2-0.4-0.3c-1.3-1.2-3.2,0.3-2.4,1.9c0.1,0.3,0.3,0.6,0.4,0.9c0,0-0.1,0-0.1,0c-0.1-0.1-0.2-0.2-0.3-0.3
			c-0.1-0.2-0.3-0.4-0.4-0.6c0-0.1-0.1-0.2-0.1-0.3c0-0.2,0-0.4,0-0.6c0.1-1-0.6-1.5-1.4-1.5c-0.8,0-1.6,0.5-1.8,1.5
			c-0.2,1.5,0.4,2.7,1.4,3.8c-0.1,0.1-0.1,0.1-0.2,0.2c-0.9,0.7-1.9,1.2-2.9,1.6c-2,0.8-4,1.2-6.1,1.5c-5,0.6-10.1,0.3-15.1-0.3
			c-6.9-1-13.6-2.7-20.1-5.4c-5-2.2-9.7-4.8-14-8.1c-3-2.4-5.7-5-8.1-8c-1.7-2.2-3.1-4.6-4.2-7.2c0-0.1-0.1-0.2-0.1-0.3
			c0-0.1-0.1-0.1-0.1-0.2c0.7-0.7,1.4-1.5,2-2.3c0.9-1.1,0.2-2.6-1.1-2.6c-0.1,0-0.3,0-0.4,0c-2.4,0.5-4.3,2.2-6.5,3.3
			c-0.2,0.1-0.4,0.1-0.7,0.2c-1.4,0.4-1.3,2.1-0.4,2.8c-0.4,0.2-0.8,0.4-1.1,0.5c-1.8,0.8-0.2,3.5,1.6,2.7c1.6-0.7,2.9-1.5,4.2-2.5
			c3,6.6,7.8,12,13.4,16.4c-4.3,5.9-7,13.7-6.5,21c0.5,6.4,4.9,11.1,10.8,13.1c6.6,2.3,13.6,0.5,18.8-3.9c2.6-2.2,4.6-5.1,6.4-7.9
			c1.6-2.6,3.2-5.7,3.5-8.8c4.2,0.7,8.4,1,12.6,1c5.6,0,12.3-0.8,16.7-4.8c0.8,0.5,1.5,1.1,2.2,1.5c0,0,0,0,0,0c0,0,0,0,0.1,0
			c0,0,0,0,0,0c1.2,0.8,2.9,0,2.5-1.6c-0.2-1-0.5-1.9-0.8-2.9C242.6,51.9,242.4,49.2,240.6,49z M204.6,58.5c-0.2,1.2-0.5,2.3-1,3.4
			c-1.2,2.7-2.8,5.3-4.6,7.7c-1.3,1.6-2.7,3.1-4.4,4.5c-1.1,0.8-2.2,1.5-3.4,2c-1.2,0.5-2.4,0.8-3.7,1c-1.5,0.2-3,0.1-4.5,0
			c-1.5-0.2-3-0.6-4.4-1.2c-1.1-0.5-2.1-1.1-3-1.8c-0.7-0.6-1.4-1.3-2-2c-0.6-0.8-1-1.6-1.4-2.4c-0.4-1-0.6-2-0.8-3
			c-0.2-1.7-0.1-3.4,0.1-5.1c0.5-3.1,1.3-6,2.5-8.9c0.9-2,2-3.9,3.3-5.7c3.7,2.5,7.6,4.6,11.7,6.3c-2.3,3.3-4,6.8-5.5,10.4
			c-0.5,0.3-0.9,0.9-0.6,1.7c0,0,0,0.1,0.1,0.1c0.3,0.9,1.4,1.5,2.3,0.9c1-0.6,1.3-1.9,1.6-2.9c1.5-3.2,3.1-6.2,5.1-9.1
			c2.5,0.9,4.9,1.7,7.4,2.4c1.8,0.5,3.5,0.9,5.4,1.2C204.6,58.3,204.6,58.4,204.6,58.5z"/>
		<path class="st0" d="M213.3,13.5c0,0.1,0.1,0.1,0.1,0.2c0.3,0.4,0.8,0.6,1.5,0.5c0.4-0.1,0.7-0.1,1.1-0.2c1-0.1,2-0.1,3,0
			c0.6,0.1,1.2,0.3,1.8,0.5c0.7,0.3,1.3,0.7,1.9,1.1c0.9,0.8,1.7,1.6,2.4,2.5c0.2,0.3,0.4,0.6,0.6,0.9c1.1,1.6,3.8,0.1,2.7-1.6
			c-1.6-2.2-3.3-4.3-5.8-5.6c-0.8-0.4-1.6-0.7-2.4-0.8c0.2,0,0.4-0.1,0.7-0.1c0.6,0,1.1-0.1,1.7,0c0.3,0.1,0.7,0.1,1,0.3
			c0.2,0.1,0.3,0.2,0.5,0.3c0.1,0.1,0.2,0.2,0.3,0.3c0,0.1,0.1,0.1,0.1,0.2c1.2,1.6,3.9,0.1,2.7-1.6c-1.3-1.8-3.4-2.6-5.6-2.6
			c-3.1,0-6.5,1.5-8.3,3.7C212.7,12.1,212.9,12.9,213.3,13.5C213.3,13.5,213.3,13.5,213.3,13.5z"/>
		<path class="st0" d="M195.6,8.4c-0.1,0-0.1,0.1-0.2,0.1c-0.4,0.3-1,0.3-1.5,0c-0.3-0.2-0.7-0.3-1-0.5C192,7.6,191,7.3,190,7.1
			C189.4,7,188.8,7,188.1,7c-0.7,0.1-1.4,0.3-2.1,0.5C185,8,184,8.6,183,9.2c-0.3,0.2-0.6,0.4-0.9,0.7c-1.6,1.2-3.7-1.1-2.1-2.3
			c2.2-1.7,4.4-3.1,7.2-3.6c0.9-0.1,1.7-0.2,2.5-0.1c-0.2-0.1-0.4-0.2-0.6-0.3c-0.5-0.2-1-0.4-1.6-0.5c-0.4,0-0.7-0.1-1,0
			c-0.2,0-0.3,0.1-0.5,0.1c-0.1,0.1-0.2,0.1-0.4,0.2c-0.1,0-0.1,0.1-0.2,0.1c-1.6,1.2-3.7-1.1-2.1-2.3c1.8-1.4,4-1.5,6.1-0.8
			c3,0.9,5.8,3.4,6.9,6C196.7,7.2,196.3,7.9,195.6,8.4C195.7,8.3,195.6,8.4,195.6,8.4z"/>
	</g>
</g>
</svg>
