<?xml version="1.0" encoding="utf-8"?>
<!-- Generator: Adobe Illustrator 21.1.0, SVG Export Plug-In . SVG Version: 6.00 Build 0)  -->
<svg version="1.1" id="Capa_1" xmlns="http://www.w3.org/2000/svg" xmlns:xlink="http://www.w3.org/1999/xlink" x="0px" y="0px"
	 viewBox="0 0 245.8 152.5" style="enable-background:new 0 0 245.8 152.5;" xml:space="preserve">
<style type="text/css">
	.st0{fill:#FFFFFF;}
	.st1{fill:none;stroke:#FFFFFF;stroke-width:2.6501;stroke-miterlimit:10;}
</style>
<g>
	<g>
		<g>
			<path class="st0" d="M14.2,117.4c0,1.2-0.4,2.2-1.1,3c-0.7,0.8-1.6,1.6-2.6,2.1c-1,0.6-2.1,1-3.2,1.2c-1.1,0.3-2,0.4-2.8,0.4
				c-1.7,0-2.8-0.3-3.6-1c-0.7-0.7-1.1-1.4-1.1-2.1c0-0.6,0.2-1.1,0.7-1.4c0.5-0.3,0.8-0.5,1.2-0.5c0.4,0,0.9,0.1,1.5,0.4
				s1.3,0.4,2.2,0.4c1.2,0,2-0.2,2.6-0.5c0.6-0.4,0.9-0.8,0.9-1.2c0-0.4-0.2-0.8-0.6-1c-0.4-0.3-1-0.5-1.6-0.7
				c-0.7-0.2-1.4-0.4-2.1-0.6c-0.8-0.2-1.5-0.5-2.1-0.8c-0.7-0.3-1.2-0.7-1.6-1.2c-0.4-0.5-0.6-1.1-0.6-1.8c0-0.9,0.3-1.9,0.9-2.9
				c0.6-1,1.3-1.9,2.3-2.8c0.9-0.8,2-1.6,3.2-2.1c1.2-0.6,2.4-0.8,3.7-0.8c1.1,0,2,0.3,2.6,0.9c0.6,0.6,1,1.6,1,2.9
				c0,0.6-0.2,1.2-0.5,1.7c-0.3,0.5-0.8,0.8-1.6,0.8c-0.5,0-0.8-0.1-0.9-0.4c-0.2-0.2-0.3-0.5-0.4-0.8c-0.1-0.3-0.3-0.5-0.5-0.8
				c-0.2-0.2-0.6-0.4-1.1-0.4c-0.2,0-0.5,0.1-1,0.3c-0.4,0.2-0.8,0.4-1.3,0.7c-0.4,0.3-0.8,0.7-1.1,1.1C5.2,110,5,110.4,5,110.9
				c0,0.5,0.2,0.8,0.7,1.1s1,0.6,1.7,0.8c0.7,0.3,1.4,0.5,2.2,0.7s1.6,0.5,2.2,0.8c0.7,0.3,1.2,0.7,1.7,1.2
				C14,116.1,14.2,116.7,14.2,117.4z"/>
			<path class="st0" d="M31.2,108.1c0,1.2-0.2,2.3-0.7,3.4c-0.5,1.1-1.1,2.1-1.9,3c-0.8,0.9-1.7,1.6-2.8,2.1
				c-1.1,0.5-2.2,0.8-3.3,0.8c-0.1,0-0.2,0-0.2,0.1c0,0-0.1,0.1-0.1,0.1c0.1,0.9,0.3,1.5,0.6,2c0.3,0.5,0.6,0.9,1,1.2
				c0.4,0.3,0.9,0.6,1.4,0.7c1,0.3,1.6,0.6,1.8,1c0.2,0.4,0.3,0.8,0.3,1.1c0,0.5-0.1,0.9-0.4,1.1c-0.2,0.2-0.5,0.4-0.8,0.5
				c-0.3,0.2-0.7,0.2-1.1,0.3c-1.3,0-2.3-0.3-3.2-0.9c-0.8-0.6-1.5-1.2-2.1-1.9c-0.6-0.8-1.1-1.8-1.4-2.9l-0.2-0.7
				c-0.1-0.2-0.1-0.5-0.2-0.8c0-0.3-0.1-0.7-0.1-1.1c0,0,0-0.1-0.1-0.1c-0.1-0.1-0.2-0.1-0.2-0.1c-0.5-0.1-0.9-0.2-1.2-0.4
				c-0.3-0.2-0.6-0.5-0.8-0.8c-0.2-0.3-0.4-0.8-0.4-1.5c0-0.3,0.1-0.6,0.2-0.8c0.1-0.2,0.2-0.4,0.4-0.5c0.2-0.2,0.4-0.3,0.6-0.3
				c0.1,0,0.2,0,0.5,0.1c0.2,0.1,0.6,0.1,1,0.2c0.1,0,0.1,0,0.2-0.1c0,0,0.1,0,0.1-0.1c0.5-1.8,1.2-3.3,2.1-4.7
				c0.4-0.6,0.8-1.2,1.2-1.7c0.5-0.6,1-1.1,1.6-1.5c0.6-0.5,1.2-0.8,1.9-1.1c0.7-0.3,1.4-0.4,2.3-0.4c0.4,0,0.8,0.1,1.3,0.2
				c0.5,0.1,0.9,0.3,1.4,0.7c0.4,0.3,0.8,0.8,1.1,1.4S31.2,107.1,31.2,108.1z M27.2,108.7c0-0.2,0-0.4-0.1-0.6
				c-0.1-0.1-0.2-0.3-0.3-0.4c-0.1-0.1-0.3-0.2-0.5-0.2c-0.5,0-0.9,0.2-1.4,0.6c-0.5,0.4-1,0.9-1.4,1.6c-0.4,0.6-0.8,1.3-1,2
				c-0.3,0.7-0.4,1.3-0.4,1.9c0,0.2,0.1,0.3,0.2,0.3c0.3,0,0.7-0.1,1.2-0.3c0.5-0.2,1.1-0.5,1.7-0.9c0.6-0.4,1.1-0.9,1.5-1.6
				C27,110.3,27.2,109.6,27.2,108.7z"/>
			<path class="st0" d="M47.7,111.8c0,0.3-0.1,0.5-0.3,0.7c-0.2,0.2-0.4,0.3-0.7,0.4c-0.3,0.1-0.6,0.2-1,0.2c-0.8,0-1.3-0.1-1.7-0.4
				c-0.4-0.2-0.7-0.5-0.9-0.8s-0.4-0.6-0.5-0.8c-0.1-0.2-0.2-0.4-0.4-0.4c-0.2,0-0.6,0.4-1.1,1.2c-0.5,0.8-1,1.8-1.6,3
				c-0.5,1.2-1,2.6-1.4,4.1s-0.6,3-0.6,4.4c0,0.6-0.2,1.1-0.5,1.3c-0.4,0.2-0.8,0.3-1.3,0.3c-0.6,0-1.1-0.3-1.4-0.8
				c-0.3-0.5-0.6-1.2-0.7-2c-0.2-0.8-0.2-1.7-0.3-2.7c0-1-0.1-1.9-0.1-2.8c0-1.5,0-3,0.1-4.5c0.1-1.5,0.2-2.7,0.3-3.8
				c0.1-0.9,0.3-1.6,0.5-2.1c0.2-0.6,0.4-1,0.7-1.3c0.3-0.3,0.6-0.5,1-0.6c0.4-0.1,0.8-0.2,1.4-0.2c0.2,0,0.4,0.1,0.5,0.2
				c0.1,0.1,0.2,0.2,0.3,0.4c0.1,0.2,0.2,0.5,0.2,0.8c0,0.2,0,0.4-0.1,0.5c-0.1,0.5-0.2,1.1-0.3,1.6c-0.1,0.5-0.2,1-0.3,1.7
				c-0.1,0.6-0.2,1.3-0.2,1.9c0,0.1,0,0.2,0.1,0.2c0,0.1,0.1,0.2,0.2,0.2c0.1,0,0.2-0.1,0.2-0.3c0.2-0.6,0.5-1.2,0.8-1.9
				c0.3-0.6,0.6-1.2,0.9-1.9c0.3-0.7,0.8-1.4,1.2-2.1c0.2-0.3,0.4-0.6,0.5-0.9c0.1-0.2,0.3-0.6,0.7-1.2c0.3-0.3,0.6-0.6,0.9-0.8
				c0.3-0.2,0.6-0.4,1-0.6c0.3-0.2,0.7-0.3,1.1-0.3c0.3,0,0.6,0.1,0.8,0.3c0.3,0.2,0.4,0.5,0.4,0.9c0,0.5,0,1-0.1,1.4
				c-0.1,0.5-0.1,1-0.1,1.7c0,1.1,0.1,1.9,0.3,2.5c0.2,0.6,0.4,1.1,0.6,1.4c0.2,0.4,0.4,0.6,0.6,0.8
				C47.6,111.4,47.7,111.6,47.7,111.8z"/>
			<path class="st0" d="M73.2,117.4c0,1.2-0.4,2.2-1.1,3c-0.7,0.8-1.6,1.6-2.6,2.1c-1,0.6-2.1,1-3.2,1.2c-1.1,0.3-2,0.4-2.8,0.4
				c-1.7,0-2.8-0.3-3.6-1c-0.7-0.7-1.1-1.4-1.1-2.1c0-0.6,0.2-1.1,0.7-1.4c0.5-0.3,0.8-0.5,1.2-0.5c0.4,0,0.9,0.1,1.5,0.4
				s1.3,0.4,2.2,0.4c1.2,0,2-0.2,2.6-0.5c0.6-0.4,0.9-0.8,0.9-1.2c0-0.4-0.2-0.8-0.6-1c-0.4-0.3-1-0.5-1.6-0.7
				c-0.7-0.2-1.4-0.4-2.1-0.6c-0.8-0.2-1.5-0.5-2.1-0.8c-0.7-0.3-1.2-0.7-1.6-1.2c-0.4-0.5-0.6-1.1-0.6-1.8c0-0.9,0.3-1.9,0.9-2.9
				c0.6-1,1.3-1.9,2.3-2.8c0.9-0.8,2-1.6,3.2-2.1c1.2-0.6,2.4-0.8,3.7-0.8c1.1,0,2,0.3,2.6,0.9c0.6,0.6,1,1.6,1,2.9
				c0,0.6-0.2,1.2-0.5,1.7c-0.3,0.5-0.8,0.8-1.6,0.8c-0.5,0-0.8-0.1-0.9-0.4c-0.2-0.2-0.3-0.5-0.4-0.8c-0.1-0.3-0.3-0.5-0.5-0.8
				c-0.2-0.2-0.6-0.4-1.1-0.4c-0.2,0-0.5,0.1-1,0.3c-0.4,0.2-0.8,0.4-1.3,0.7c-0.4,0.3-0.8,0.7-1.1,1.1c-0.3,0.4-0.5,0.9-0.5,1.4
				c0,0.5,0.2,0.8,0.7,1.1s1,0.6,1.7,0.8c0.7,0.3,1.4,0.5,2.2,0.7s1.6,0.5,2.2,0.8c0.7,0.3,1.2,0.7,1.7,1.2
				C73,116.1,73.2,116.7,73.2,117.4z"/>
			<path class="st0" d="M92.4,123.7c0,0.5-0.1,0.8-0.3,1s-0.5,0.4-0.8,0.5c-0.3,0.1-0.7,0.2-1.1,0.2c-0.7,0-1.3-0.2-1.7-0.6
				c-0.5-0.4-0.9-0.8-1.2-1.3c-0.4-0.6-0.7-1.2-0.9-2c0-0.2-0.1-0.3-0.2-0.3c-0.1,0-0.2,0-0.2,0.1l-0.1,0.1
				c-0.6,0.6-1.1,1.2-1.7,1.6c-0.6,0.4-1.2,0.7-1.7,0.9c-0.6,0.2-1.1,0.3-1.5,0.4s-0.8,0.1-1.1,0.1c-1.1,0-2-0.2-2.6-0.6
				c-0.6-0.4-1.1-0.8-1.4-1.4c-0.3-0.5-0.5-1-0.6-1.5s-0.1-0.9-0.1-1.1c0-0.8,0.1-1.5,0.4-2.2c0.3-0.7,0.6-1.4,1.1-2s1-1.2,1.5-1.7
				c0.6-0.5,1.1-1,1.7-1.5c1.4-1,3-1.9,4.8-2.8c0.1,0,0.2-0.1,0.3-0.2c0.2-0.1,0.3-0.3,0.3-0.5c0-0.4-0.3-0.7-1-0.8
				c-0.7-0.1-1.4-0.2-2.2-0.2c-0.3,0-0.7,0-1,0c-0.3,0-0.6,0-0.8,0.1c-0.3,0-0.6,0.1-0.8,0.1c-0.4,0-0.7,0-1-0.1
				c-0.2-0.1-0.4-0.3-0.5-0.5c-0.1-0.2-0.2-0.4-0.2-0.6c0-0.2-0.1-0.4-0.1-0.5c0-0.1,0-0.3,0.1-0.5c0.1-0.2,0.3-0.5,0.6-0.8
				s0.7-0.5,1.3-0.7c0.6-0.2,1.4-0.3,2.4-0.3c0.7,0,1.5,0.1,2.5,0.2c1,0.2,1.9,0.4,2.8,0.8c0.9,0.4,1.6,0.8,2.3,1.4
				c0.6,0.6,0.9,1.3,0.9,2.1c0,0.6-0.3,1.2-0.8,1.7c-0.5,0.5-1.2,1.1-2,1.6c-0.8,0.5-1.6,1-2.6,1.5c-0.9,0.5-1.8,1.1-2.6,1.6
				c-0.8,0.6-1.4,1.2-2,1.9c-0.5,0.7-0.8,1.5-0.8,2.3c0,0.2,0.1,0.4,0.2,0.7c0.1,0.3,0.5,0.5,1,0.5c0.4,0,0.8-0.1,1.3-0.3
				c0.5-0.2,0.9-0.5,1.3-0.9c0.4-0.4,0.8-0.8,1.1-1.2s0.5-0.9,0.5-1.4c0,0-0.1-0.1-0.1-0.1v-0.3c0-0.3,0.1-0.6,0.2-0.9
				c0.1-0.3,0.3-0.6,0.6-0.9c0.3-0.3,0.6-0.5,0.9-0.7c0.3-0.2,0.7-0.3,1.1-0.3c0.2,0,0.4,0.1,0.6,0.2c0.2,0.1,0.3,0.4,0.3,0.7
				c0.1,1.1,0.3,2.1,0.5,3c0.2,0.8,0.5,1.7,0.8,2.5c0.3,0.8,0.8,1.5,1.3,1.9c0.2,0.2,0.4,0.4,0.5,0.6c0.1,0.2,0.2,0.4,0.3,0.6
				C92.4,123.2,92.4,123.4,92.4,123.7z"/>
			<path class="st0" d="M111.8,109.5c0,1.5-0.2,3.1-0.6,4.8c-0.4,1.7-1,3.2-1.8,4.7c-0.8,1.4-1.7,2.6-2.8,3.5
				c-1.1,0.9-2.3,1.4-3.6,1.4c-0.8,0-1.4-0.2-1.8-0.6s-0.8-0.9-1.1-1.4c-0.3-0.6-0.6-1.2-0.8-2c-0.1-0.1-0.1-0.2-0.2-0.2
				c-0.2,0-0.3,0.1-0.5,0.3c-0.1,0.2-0.3,0.4-0.5,0.6s-0.4,0.4-0.6,0.6c-0.3,0.2-0.6,0.3-1,0.3c-0.3,0-0.5-0.1-0.7-0.3
				c-0.2-0.2-0.3-0.5-0.3-0.7c-0.1-0.3-0.1-0.6-0.1-0.8s0-0.5,0-0.7c0-2,0-4.2,0.1-6.7c0-2.5,0.1-5.1,0.3-7.7
				c0.2-2.6,0.4-5.2,0.7-7.7c0.3-2.5,0.7-4.8,1.3-6.9c0.1-0.3,0.2-0.5,0.4-0.7c0.2-0.2,0.3-0.4,0.6-0.5c0.2-0.1,0.5-0.2,0.9-0.2
				c0.5,0,0.9,0.1,1.2,0.4c0.3,0.2,0.5,0.5,0.7,0.8c0.2,0.4,0.2,0.8,0.3,1.2c-0.5,2-0.9,4-1.2,6.2c-0.3,1.9-0.6,4.1-0.8,6.5
				c-0.3,2.4-0.4,4.9-0.4,7.6c0,0.1,0,0.2,0,0.3c0,0.2,0.1,0.3,0.2,0.3c0.1,0,0.2-0.1,0.3-0.2c1.4-2.4,2.9-4.3,4.4-5.6
				s2.9-1.9,4.1-1.9c0.1,0,0.4,0,0.8,0.1c0.4,0.1,0.8,0.3,1.2,0.6c0.4,0.3,0.8,0.9,1.1,1.6C111.7,107.1,111.8,108.1,111.8,109.5z
				 M107.6,111.4c0-1-0.1-1.6-0.4-1.8c-0.3-0.2-0.5-0.3-0.6-0.3c-0.7,0-1.3,0.4-2,1.1c-0.6,0.8-1.2,1.6-1.7,2.4
				c-0.6,1-1.1,2.2-1.6,3.5c0.1,0.6,0.3,1.1,0.5,1.6c0.2,0.4,0.4,0.8,0.8,1.1c0.3,0.3,0.7,0.5,1.3,0.5c0.6,0,1.1-0.3,1.6-0.9
				c0.5-0.6,0.9-1.3,1.2-2.1c0.3-0.8,0.6-1.7,0.8-2.6C107.5,112.8,107.6,112,107.6,111.4z"/>
			<path class="st0" d="M129.6,111.6c0,1.8-0.3,3.4-0.8,4.8c-0.5,1.4-1.2,2.5-2.1,3.4c-0.9,0.9-1.8,1.6-2.9,2.1
				c-1.1,0.5-2.2,0.7-3.2,0.7c-1.5,0-2.6-0.4-3.4-1.1c-0.8-0.7-1.4-1.5-1.7-2.4c-0.4-1-0.7-2.2-0.7-3.5c0-0.9,0.1-1.7,0.3-2.5
				c0.2-0.8,0.4-1.5,0.7-2.1c0.3-0.7,0.6-1.4,1-2c0,0-0.1-0.1-0.2-0.2c0,0-0.1-0.1-0.1-0.1c-0.6,0-1.1-0.1-1.4-0.4
				c-0.3-0.2-0.5-0.6-0.5-0.9c0-0.5,0.2-1,0.6-1.5c0.4-0.5,0.9-0.9,1.6-1.3c0.7-0.4,1.4-0.6,2.2-0.9c0.8-0.2,1.6-0.3,2.4-0.3
				c0.7,0,1.5,0.1,2.4,0.3c0.9,0.2,1.9,0.6,2.7,1.2c0.9,0.6,1.6,1.4,2.3,2.4C129.3,108.5,129.6,109.9,129.6,111.6z M125,112.8
				c0-0.9-0.2-1.8-0.4-2.5c-0.2-0.6-0.5-1.2-0.9-1.7c-0.4-0.5-1-0.7-1.7-0.7c-0.2,0-0.5,0.1-0.8,0.4s-0.6,0.7-0.9,1.2
				c-0.3,0.5-0.5,1.2-0.7,2c-0.2,0.8-0.3,1.7-0.3,2.7c0,0.3,0,0.7,0,1.2c0,0.5,0.1,1,0.3,1.6c0.2,0.5,0.4,1,0.8,1.4
				c0.4,0.4,0.9,0.6,1.6,0.6c0.8,0,1.3-0.3,1.7-0.9c0.4-0.6,0.7-1.3,0.9-2.1C124.8,114.9,125,113.9,125,112.8z"/>
			<path class="st0" d="M147,111.8c0,0.3-0.1,0.5-0.3,0.7c-0.2,0.2-0.4,0.3-0.7,0.4c-0.3,0.1-0.6,0.2-1,0.2c-0.8,0-1.3-0.1-1.7-0.4
				c-0.4-0.2-0.7-0.5-0.9-0.8s-0.4-0.6-0.5-0.8c-0.1-0.2-0.2-0.4-0.4-0.4c-0.2,0-0.6,0.4-1.1,1.2c-0.5,0.8-1,1.8-1.6,3
				c-0.5,1.2-1,2.6-1.4,4.1s-0.6,3-0.6,4.4c0,0.6-0.2,1.1-0.5,1.3c-0.4,0.2-0.8,0.3-1.3,0.3c-0.6,0-1.1-0.3-1.4-0.8
				c-0.3-0.5-0.6-1.2-0.7-2c-0.2-0.8-0.2-1.7-0.3-2.7c0-1-0.1-1.9-0.1-2.8c0-1.5,0-3,0.1-4.5c0.1-1.5,0.2-2.7,0.3-3.8
				c0.1-0.9,0.3-1.6,0.5-2.1c0.2-0.6,0.4-1,0.7-1.3c0.3-0.3,0.6-0.5,1-0.6c0.4-0.1,0.8-0.2,1.4-0.2c0.2,0,0.4,0.1,0.5,0.2
				c0.1,0.1,0.2,0.2,0.3,0.4c0.1,0.2,0.2,0.5,0.2,0.8c0,0.2,0,0.4-0.1,0.5c-0.1,0.5-0.2,1.1-0.3,1.6c-0.1,0.5-0.2,1-0.3,1.7
				c-0.1,0.6-0.2,1.3-0.2,1.9c0,0.1,0,0.2,0.1,0.2c0,0.1,0.1,0.2,0.2,0.2c0.1,0,0.2-0.1,0.2-0.3c0.2-0.6,0.5-1.2,0.8-1.9
				c0.3-0.6,0.6-1.2,0.9-1.9c0.3-0.7,0.8-1.4,1.2-2.1c0.2-0.3,0.4-0.6,0.5-0.9c0.1-0.2,0.3-0.6,0.7-1.2c0.3-0.3,0.6-0.6,0.9-0.8
				c0.3-0.2,0.6-0.4,1-0.6c0.3-0.2,0.7-0.3,1.1-0.3c0.3,0,0.6,0.1,0.8,0.3c0.3,0.2,0.4,0.5,0.4,0.9c0,0.5,0,1-0.1,1.4
				c-0.1,0.5-0.1,1-0.1,1.7c0,1.1,0.1,1.9,0.3,2.5c0.2,0.6,0.4,1.1,0.6,1.4c0.2,0.4,0.4,0.6,0.6,0.8
				C146.9,111.4,147,111.6,147,111.8z"/>
			<path class="st0" d="M162.9,108.1c0,1.2-0.2,2.3-0.7,3.4c-0.5,1.1-1.1,2.1-1.9,3c-0.8,0.9-1.7,1.6-2.8,2.1
				c-1.1,0.5-2.2,0.8-3.3,0.8c-0.1,0-0.2,0-0.2,0.1c0,0-0.1,0.1-0.1,0.1c0.1,0.9,0.3,1.5,0.6,2c0.3,0.5,0.6,0.9,1,1.2
				c0.4,0.3,0.9,0.6,1.4,0.7c1,0.3,1.6,0.6,1.8,1c0.2,0.4,0.3,0.8,0.3,1.1c0,0.5-0.1,0.9-0.4,1.1c-0.2,0.2-0.5,0.4-0.8,0.5
				c-0.3,0.2-0.7,0.2-1.1,0.3c-1.3,0-2.3-0.3-3.2-0.9c-0.8-0.6-1.5-1.2-2.1-1.9c-0.6-0.8-1.1-1.8-1.4-2.9l-0.2-0.7
				c-0.1-0.2-0.1-0.5-0.2-0.8c0-0.3-0.1-0.7-0.1-1.1c0,0,0-0.1-0.1-0.1c-0.1-0.1-0.2-0.1-0.2-0.1c-0.5-0.1-0.9-0.2-1.2-0.4
				c-0.3-0.2-0.6-0.5-0.8-0.8c-0.2-0.3-0.4-0.8-0.4-1.5c0-0.3,0.1-0.6,0.2-0.8c0.1-0.2,0.2-0.4,0.4-0.5c0.2-0.2,0.4-0.3,0.6-0.3
				c0.1,0,0.2,0,0.5,0.1c0.2,0.1,0.6,0.1,1,0.2c0.1,0,0.1,0,0.2-0.1c0,0,0.1,0,0.1-0.1c0.5-1.8,1.2-3.3,2.1-4.7
				c0.4-0.6,0.8-1.2,1.2-1.7c0.5-0.6,1-1.1,1.6-1.5c0.6-0.5,1.2-0.8,1.9-1.1c0.7-0.3,1.4-0.4,2.3-0.4c0.4,0,0.8,0.1,1.3,0.2
				c0.5,0.1,0.9,0.3,1.4,0.7c0.4,0.3,0.8,0.8,1.1,1.4S162.9,107.1,162.9,108.1z M158.8,108.7c0-0.2,0-0.4-0.1-0.6
				c-0.1-0.1-0.2-0.3-0.3-0.4c-0.1-0.1-0.3-0.2-0.5-0.2c-0.5,0-0.9,0.2-1.4,0.6c-0.5,0.4-1,0.9-1.4,1.6c-0.4,0.6-0.8,1.3-1,2
				c-0.3,0.7-0.4,1.3-0.4,1.9c0,0.2,0.1,0.3,0.2,0.3c0.3,0,0.7-0.1,1.2-0.3c0.5-0.2,1.1-0.5,1.7-0.9c0.6-0.4,1.1-0.9,1.5-1.6
				C158.6,110.3,158.8,109.6,158.8,108.7z"/>
			<path class="st0" d="M181.3,123.7c0,0.5-0.1,0.8-0.3,1s-0.5,0.4-0.8,0.5c-0.3,0.1-0.7,0.2-1.1,0.2c-0.7,0-1.3-0.2-1.7-0.6
				c-0.5-0.4-0.9-0.8-1.2-1.3c-0.4-0.6-0.7-1.2-0.9-2c0-0.2-0.1-0.3-0.2-0.3c-0.1,0-0.2,0-0.2,0.1l-0.1,0.1
				c-0.6,0.6-1.1,1.2-1.7,1.6c-0.6,0.4-1.2,0.7-1.7,0.9c-0.6,0.2-1.1,0.3-1.5,0.4s-0.8,0.1-1.1,0.1c-1.1,0-2-0.2-2.6-0.6
				c-0.6-0.4-1.1-0.8-1.4-1.4c-0.3-0.5-0.5-1-0.6-1.5s-0.1-0.9-0.1-1.1c0-0.8,0.1-1.5,0.4-2.2c0.3-0.7,0.6-1.4,1.1-2s1-1.2,1.5-1.7
				c0.6-0.5,1.1-1,1.7-1.5c1.4-1,3-1.9,4.8-2.8c0.1,0,0.2-0.1,0.3-0.2c0.2-0.1,0.3-0.3,0.3-0.5c0-0.4-0.3-0.7-1-0.8
				c-0.7-0.1-1.4-0.2-2.2-0.2c-0.3,0-0.7,0-1,0c-0.3,0-0.6,0-0.8,0.1c-0.3,0-0.6,0.1-0.8,0.1c-0.4,0-0.7,0-1-0.1
				c-0.2-0.1-0.4-0.3-0.5-0.5c-0.1-0.2-0.2-0.4-0.2-0.6c0-0.2-0.1-0.4-0.1-0.5c0-0.1,0-0.3,0.1-0.5c0.1-0.2,0.3-0.5,0.6-0.8
				s0.7-0.5,1.3-0.7c0.6-0.2,1.4-0.3,2.4-0.3c0.7,0,1.5,0.1,2.5,0.2c1,0.2,1.9,0.4,2.8,0.8c0.9,0.4,1.6,0.8,2.3,1.4
				c0.6,0.6,0.9,1.3,0.9,2.1c0,0.6-0.3,1.2-0.8,1.7c-0.5,0.5-1.2,1.1-2,1.6c-0.8,0.5-1.6,1-2.6,1.5c-0.9,0.5-1.8,1.1-2.6,1.6
				c-0.8,0.6-1.4,1.2-2,1.9c-0.5,0.7-0.8,1.5-0.8,2.3c0,0.2,0.1,0.4,0.2,0.7c0.1,0.3,0.5,0.5,1,0.5c0.4,0,0.8-0.1,1.3-0.3
				c0.5-0.2,0.9-0.5,1.3-0.9c0.4-0.4,0.8-0.8,1.1-1.2s0.5-0.9,0.5-1.4c0,0-0.1-0.1-0.1-0.1v-0.3c0-0.3,0.1-0.6,0.2-0.9
				c0.1-0.3,0.3-0.6,0.6-0.9c0.3-0.3,0.6-0.5,0.9-0.7c0.3-0.2,0.7-0.3,1.1-0.3c0.2,0,0.4,0.1,0.6,0.2c0.2,0.1,0.3,0.4,0.3,0.7
				c0.1,1.1,0.3,2.1,0.5,3c0.2,0.8,0.5,1.7,0.8,2.5c0.3,0.8,0.8,1.5,1.3,1.9c0.2,0.2,0.4,0.4,0.5,0.6c0.1,0.2,0.2,0.4,0.3,0.6
				C181.2,123.2,181.3,123.4,181.3,123.7z"/>
			<path class="st0" d="M202.1,107.6c0,0.7-0.2,1.2-0.5,1.4c-0.3,0.2-0.7,0.3-1,0.3c-0.3,0-0.5,0-0.6-0.1c-0.1,0-0.2-0.1-0.3-0.1
				c0,0.5-0.1,0.9-0.1,1.5c0,0.5,0,1.1,0,1.6c0,1,0,1.9,0.1,2.8c0.1,0.9,0.1,1.8,0.3,2.5c0.1,0.8,0.3,1.4,0.5,1.9
				c0.2,0.5,0.5,0.9,0.8,1.1c0.2,0.2,0.4,0.4,0.4,0.6c0.1,0.2,0.1,0.3,0.1,0.5c0,0.5-0.1,0.8-0.3,1.1s-0.5,0.5-0.7,0.6
				c-0.3,0.1-0.6,0.2-1.1,0.3c-0.9,0-1.6-0.3-2.1-0.8c-0.5-0.5-0.9-1.1-1.1-1.7c-0.3-0.7-0.5-1.5-0.5-2.5c0-0.2,0-0.3-0.1-0.3
				c0,0-0.1,0-0.2,0.1l-0.1,0.1c-1,1.4-2,2.4-3.1,3.1c-1,0.7-2,1.3-2.8,1.6c-0.8,0.3-1.6,0.5-2.2,0.6c-0.6,0.1-1,0.1-1.1,0.1
				c-0.8,0-1.4-0.2-1.9-0.5c-0.5-0.3-0.8-0.8-1.1-1.2c-0.3-0.5-0.4-1-0.5-1.6c-0.1-0.5-0.1-1-0.1-1.4c0-2,0.4-3.8,1.2-5.4
				c0.8-1.6,1.8-3,3-4.2s2.6-2.2,4.1-2.9c1.5-0.8,3.1-1.3,4.7-1.6c0,0,0.1,0,0.1-0.1c0,0,0.1-0.1,0.1-0.1c0,0,0.1-0.1,0.1-0.1
				c0-0.7,0.1-1.4,0.1-2.2c0-0.8,0.1-1.6,0.1-2.6c0.1-2,0.2-3.8,0.4-5.4c0.1-0.7,0.2-1.4,0.3-2.1c0.1-0.7,0.2-1.4,0.4-2
				c0.1-0.6,0.3-1.2,0.5-1.6c0.2-0.5,0.4-0.8,0.6-1s0.5-0.4,0.7-0.6c0.2-0.1,0.4-0.3,0.7-0.4c0.3-0.1,0.6-0.2,0.9-0.2
				c0.3,0,0.6,0.1,0.8,0.2c0.3,0.2,0.4,0.6,0.4,1.3c0,0.4-0.1,0.9-0.2,1.5c-0.3,1.4-0.5,2.8-0.7,4.3s-0.4,2.8-0.5,4
				c-0.2,1.4-0.3,2.8-0.4,4.1c0,0.3,0,0.5-0.1,0.8c0,0.3-0.1,0.6-0.1,1c0,0.4,0,0.8-0.1,1.2c0,0.1,0,0.1,0.1,0.2
				c0,0,0.1,0.1,0.1,0.1c0.5,0.2,0.9,0.5,1.4,0.8C201.9,106.5,202.1,107,202.1,107.6z M195.7,109.5c0-0.1-0.1-0.2-0.3-0.2
				c-1,0.1-1.9,0.4-2.9,1s-1.8,1.2-2.5,2c-0.7,0.8-1.3,1.7-1.8,2.7c-0.5,1-0.7,2-0.7,3c0,0.4,0.1,0.8,0.2,1.1
				c0.1,0.3,0.5,0.5,0.9,0.5c0.6,0,1.3-0.3,2.1-0.8s1.6-1.3,2.3-2.2s1.4-2,1.9-3.2C195.4,112.1,195.7,110.9,195.7,109.5z"/>
			<path class="st0" d="M221.2,123.7c0,0.5-0.1,0.8-0.3,1s-0.5,0.4-0.8,0.5c-0.3,0.1-0.7,0.2-1.1,0.2c-0.7,0-1.3-0.2-1.7-0.6
				c-0.5-0.4-0.9-0.8-1.2-1.3c-0.4-0.6-0.7-1.2-0.9-2c0-0.2-0.1-0.3-0.2-0.3c-0.1,0-0.2,0-0.2,0.1l-0.1,0.1
				c-0.6,0.6-1.1,1.2-1.7,1.6c-0.6,0.4-1.2,0.7-1.7,0.9c-0.6,0.2-1.1,0.3-1.5,0.4s-0.8,0.1-1.1,0.1c-1.1,0-2-0.2-2.6-0.6
				c-0.6-0.4-1.1-0.8-1.4-1.4c-0.3-0.5-0.5-1-0.6-1.5s-0.1-0.9-0.1-1.1c0-0.8,0.1-1.5,0.4-2.2c0.3-0.7,0.6-1.4,1.1-2s1-1.2,1.5-1.7
				c0.6-0.5,1.1-1,1.7-1.5c1.4-1,3-1.9,4.8-2.8c0.1,0,0.2-0.1,0.3-0.2c0.2-0.1,0.3-0.3,0.3-0.5c0-0.4-0.3-0.7-1-0.8
				c-0.7-0.1-1.4-0.2-2.2-0.2c-0.3,0-0.7,0-1,0c-0.3,0-0.6,0-0.8,0.1c-0.3,0-0.6,0.1-0.8,0.1c-0.4,0-0.7,0-1-0.1
				c-0.2-0.1-0.4-0.3-0.5-0.5c-0.1-0.2-0.2-0.4-0.2-0.6c0-0.2-0.1-0.4-0.1-0.5c0-0.1,0-0.3,0.1-0.5c0.1-0.2,0.3-0.5,0.6-0.8
				s0.7-0.5,1.3-0.7c0.6-0.2,1.4-0.3,2.4-0.3c0.7,0,1.5,0.1,2.5,0.2c1,0.2,1.9,0.4,2.8,0.8c0.9,0.4,1.6,0.8,2.3,1.4
				c0.6,0.6,0.9,1.3,0.9,2.1c0,0.6-0.3,1.2-0.8,1.7c-0.5,0.5-1.2,1.1-2,1.6c-0.8,0.5-1.6,1-2.6,1.5c-0.9,0.5-1.8,1.1-2.6,1.6
				c-0.8,0.6-1.4,1.2-2,1.9c-0.5,0.7-0.8,1.5-0.8,2.3c0,0.2,0.1,0.4,0.2,0.7c0.1,0.3,0.5,0.5,1,0.5c0.4,0,0.8-0.1,1.3-0.3
				c0.5-0.2,0.9-0.5,1.3-0.9c0.4-0.4,0.8-0.8,1.1-1.2s0.5-0.9,0.5-1.4c0,0-0.1-0.1-0.1-0.1v-0.3c0-0.3,0.1-0.6,0.2-0.9
				c0.1-0.3,0.3-0.6,0.6-0.9c0.3-0.3,0.6-0.5,0.9-0.7c0.3-0.2,0.7-0.3,1.1-0.3c0.2,0,0.4,0.1,0.6,0.2c0.2,0.1,0.3,0.4,0.3,0.7
				c0.1,1.1,0.3,2.1,0.5,3c0.2,0.8,0.5,1.7,0.8,2.5c0.3,0.8,0.8,1.5,1.3,1.9c0.2,0.2,0.4,0.4,0.5,0.6c0.1,0.2,0.2,0.4,0.3,0.6
				C221.1,123.2,221.2,123.4,221.2,123.7z"/>
		</g>
	</g>
	<g>
		<g>
			<path class="st0" d="M21.6,70.5c0,0.4-0.1,0.7-0.3,0.9c-0.2,0.2-0.4,0.4-0.7,0.5c-0.3,0.1-0.6,0.2-1,0.2c-0.8,0-1.4-0.3-1.9-1
				c-0.5-0.7-0.9-1.4-1.2-2.2c-0.3-0.9-0.6-2-0.8-3.2c0-0.1,0-0.2-0.1-0.2c-0.1,0-0.2,0-0.2,0c-1,0.1-1.8,0.2-2.6,0.4
				c-0.8,0.2-1.4,0.3-1.9,0.5c-0.6,0.2-1.2,0.4-1.6,0.6C9.1,67,9,67.2,8.9,67.3c-0.1,0.1-0.1,0.2-0.1,0.3c-0.3,1.1-0.5,2.1-0.7,2.7
				C8,71,7.9,71.6,7.8,72c-0.1,0.4-0.1,0.7-0.2,1c0,0.3-0.1,0.5-0.2,0.9c-0.1,0.4-0.3,0.7-0.5,0.9S6.4,75,6.1,75.1
				c-0.3,0.1-0.5,0.1-0.7,0.2s-0.4,0-0.5,0c-0.3,0-0.5-0.1-0.7-0.2C4.1,74.9,4,74.7,4,74.5s-0.1-0.4-0.1-0.6c0-0.2,0-0.4,0-0.5
				c0-0.5,0.1-1.1,0.2-1.7s0.2-1.2,0.4-1.8c0.2-0.7,0.3-1.3,0.5-2c0-0.1,0-0.2-0.1-0.3c0,0-0.1,0-0.1,0C4.3,67.5,4,67.3,3.9,67
				s-0.2-0.5-0.2-0.6c0.1-0.5,0.3-1,0.6-1.3c0.3-0.3,0.6-0.6,0.9-0.7c0.3-0.2,0.7-0.3,1.1-0.4c0.1,0,0.2-0.1,0.3-0.2
				c0-0.1,0.1-0.1,0.1-0.1c0.2-0.6,0.5-1.3,0.9-2.2c0.4-0.9,0.8-1.8,1.3-2.8c0.5-1,1-1.9,1.6-2.9c0.6-1,1.1-1.8,1.7-2.6
				c0.6-0.8,1.1-1.4,1.7-1.9c0.5-0.5,1-0.7,1.5-0.7c0.3,0,0.4,0,0.5,0.1s0.2,0.1,0.4,0.1c0.1,0,0.2-0.1,0.3-0.2
				c0.1-0.1,0.2-0.2,0.4-0.3c0.1-0.1,0.3-0.2,0.5-0.4c0.2-0.1,0.5-0.2,0.8-0.2c0.2,0,0.5,0,0.8,0.2c0.3,0.2,0.4,0.6,0.4,1.4
				c0,0.3,0,0.6,0,0.8c0,0.2,0,0.5-0.1,0.9c0,0.3,0,0.8-0.1,1.3c0,0.5,0,1.2,0,2c0,1,0,2.1,0.1,3.2c0.1,1.2,0.2,2.3,0.3,3.5
				c0.2,1.2,0.4,2.3,0.7,3.4s0.7,2,1.1,2.8C21.5,69.8,21.6,70.2,21.6,70.5z M15.7,61.5c0-0.6,0-1.3-0.1-2c0-0.8,0-1.5,0-2.1V55
				c0-0.1,0-0.1,0-0.2c-0.1-0.1-0.1-0.2-0.2-0.2c-0.3,0.1-0.6,0.3-1,0.7s-0.7,0.9-1,1.4c-0.3,0.6-0.6,1.2-0.9,1.8s-0.6,1.2-0.8,1.7
				c-0.2,0.5-0.4,1-0.5,1.3c-0.1,0.4-0.2,0.6-0.2,0.6c0,0.3,0.1,0.4,0.2,0.4c0.5-0.1,1-0.2,1.4-0.3s0.9-0.2,1.4-0.2
				c0.5-0.1,1-0.1,1.4-0.2c0.1,0,0.1,0,0.2-0.1C15.6,61.7,15.7,61.6,15.7,61.5z"/>
			<path class="st0" d="M43,60.5c0,0.1-0.1,0.3-0.2,0.6c-0.1,0.3-0.4,0.6-0.7,1c-0.4,0.4-0.8,0.9-1.2,1.5c-0.4,0.6-0.9,1.3-1.3,2.1
				c-0.4,0.8-0.9,1.7-1.3,2.7c-0.4,1-0.8,2-1.1,3.1c-0.1,0.5-0.3,0.9-0.5,1.3c-0.2,0.3-0.4,0.6-0.7,0.9c-0.3,0.3-0.7,0.4-1.1,0.4
				c-0.5,0-1-0.2-1.5-0.6c-0.4-0.4-0.8-0.9-1.2-1.6c-0.4-0.6-0.7-1.3-0.9-2.1s-0.4-1.6-0.6-2.3c-0.2-0.8-0.3-1.5-0.4-2.1
				c-0.1-0.7-0.1-1.2-0.1-1.6c0-0.8,0.1-1.5,0.3-2s0.6-0.7,1.2-0.7c0.1,0,0.2,0,0.4,0c0.2,0,0.3,0.1,0.5,0.2
				c0.1,0.1,0.3,0.3,0.4,0.4s0.2,0.5,0.2,0.8c0,0.6,0.1,1.3,0.2,2.2c0.1,0.9,0.2,1.7,0.4,2.5c0.1,0.8,0.3,1.5,0.5,2.1
				c0.2,0.6,0.4,0.9,0.5,0.9c0.1,0,0.2-0.1,0.3-0.3c0.4-1.4,0.9-2.7,1.4-3.9c0.2-0.5,0.4-1.1,0.7-1.7c0.3-0.6,0.5-1.1,0.8-1.6
				c0.3-0.5,0.6-1,0.9-1.5c0.3-0.5,0.6-0.9,1-1.2c0.2-0.2,0.3-0.3,0.5-0.4c0.2-0.1,0.3-0.2,0.5-0.3s0.5-0.1,0.7-0.1
				c0.3,0,0.7,0.1,1,0.3C42.8,59.7,43,60,43,60.5z"/>
			<path class="st0" d="M47.6,61.5c0,0.1-0.1,0.4-0.2,0.8c-0.1,0.4-0.2,0.9-0.2,1.4c-0.1,0.6-0.1,1.2-0.2,1.9
				c-0.1,0.7-0.1,1.4-0.1,2.2c0,0.6,0,1.1,0.1,1.6c0.1,0.5,0.1,0.9,0.2,1.3c0.1,0.5,0.2,0.9,0.2,1.2c-0.1,0.4-0.2,0.6-0.5,0.7
				s-0.6,0.2-0.8,0.2c-0.2,0-0.5-0.1-0.7-0.2c-0.1-0.1-0.2-0.1-0.2-0.2c-0.4-0.5-0.7-1.2-0.9-2.2c-0.2-0.9-0.3-1.9-0.3-3
				c0-0.8,0-1.6,0.1-2.4c0.1-0.8,0.1-1.5,0.2-2.1c0.1-0.7,0.2-1.4,0.3-2.1c0-0.1,0.1-0.2,0.2-0.3c0.1-0.1,0.2-0.1,0.4-0.2
				c0.2-0.1,0.4-0.1,0.7-0.1c0.1,0,0.3,0,0.5,0.1c0.2,0,0.4,0.1,0.5,0.2c0.2,0.1,0.3,0.2,0.4,0.4C47.6,61,47.6,61.2,47.6,61.5z
				 M48.8,54.3c0,0.2,0,0.4-0.1,0.7c-0.1,0.3-0.2,0.6-0.4,0.9c-0.2,0.3-0.5,0.6-0.8,0.8c-0.4,0.2-0.8,0.4-1.3,0.4
				c-0.5,0-0.8-0.1-1-0.4c-0.2-0.3-0.3-0.6-0.3-0.9c0-0.3,0.1-0.6,0.2-0.9c0.1-0.3,0.3-0.6,0.6-0.9c0.3-0.3,0.6-0.5,0.9-0.7
				c0.4-0.2,0.7-0.3,1.1-0.3c0.2,0,0.4,0.1,0.7,0.2C48.7,53.4,48.8,53.7,48.8,54.3z"/>
			<path class="st0" d="M63.2,62.1c0,0.5-0.1,0.8-0.4,1s-0.5,0.2-0.7,0.2c-0.2,0-0.4,0-0.4,0s-0.1-0.1-0.2-0.1c0,0.3,0,0.7,0,1
				c0,0.4,0,0.7,0,1.1c0,0.7,0,1.3,0.1,2c0,0.6,0.1,1.2,0.2,1.7c0.1,0.5,0.2,1,0.3,1.3s0.3,0.6,0.5,0.8c0.2,0.1,0.3,0.3,0.3,0.4
				c0,0.1,0.1,0.2,0.1,0.3c0,0.3-0.1,0.6-0.2,0.7c-0.2,0.2-0.3,0.3-0.5,0.4c-0.2,0.1-0.4,0.2-0.7,0.2c-0.6,0-1.1-0.2-1.4-0.5
				c-0.3-0.4-0.6-0.7-0.8-1.2c-0.2-0.5-0.3-1.1-0.4-1.7c0-0.1,0-0.2-0.1-0.2c0,0-0.1,0-0.1,0.1l-0.1,0.1c-0.7,0.9-1.4,1.7-2.1,2.2
				c-0.7,0.5-1.4,0.9-2,1.1c-0.6,0.2-1.1,0.4-1.5,0.4s-0.7,0.1-0.7,0.1c-0.5,0-1-0.1-1.3-0.4c-0.3-0.2-0.6-0.5-0.7-0.9
				s-0.3-0.7-0.4-1.1c-0.1-0.4-0.1-0.7-0.1-1c0-1.4,0.3-2.6,0.8-3.7c0.5-1.1,1.2-2.1,2.1-2.9c0.8-0.8,1.8-1.5,2.9-2
				c1.1-0.5,2.1-0.9,3.2-1.1c0,0,0.1,0,0.1,0c0,0,0.1,0,0.1-0.1c0,0,0,0,0-0.1c0-0.5,0.1-1,0.1-1.5c0-0.5,0.1-1.1,0.1-1.8
				c0.1-1.4,0.1-2.6,0.3-3.7c0.1-0.5,0.1-1,0.2-1.5c0.1-0.5,0.2-0.9,0.3-1.4c0.1-0.4,0.2-0.8,0.4-1.1c0.1-0.3,0.3-0.5,0.4-0.7
				c0.2-0.2,0.3-0.3,0.5-0.4c0.1-0.1,0.3-0.2,0.5-0.3c0.2-0.1,0.4-0.1,0.6-0.1s0.4,0.1,0.6,0.2C63,48,63,48.3,63,48.8
				c0,0.3,0,0.6-0.1,1c-0.2,1-0.4,1.9-0.5,2.9c-0.1,1-0.2,1.9-0.4,2.8c-0.1,1-0.2,1.9-0.3,2.8c0,0.2,0,0.4,0,0.6
				c0,0.2,0,0.4-0.1,0.7c0,0.3,0,0.5-0.1,0.9c0,0.1,0,0.1,0,0.1c0,0,0.1,0,0.1,0c0.3,0.1,0.7,0.3,1,0.5S63.2,61.7,63.2,62.1z
				 M58.7,63.5c0-0.1-0.1-0.2-0.2-0.2c-0.7,0.1-1.3,0.3-2,0.7c-0.7,0.4-1.2,0.8-1.7,1.4c-0.5,0.6-0.9,1.2-1.2,1.9
				C53.2,68,53,68.7,53,69.4c0,0.3,0.1,0.5,0.2,0.8c0.1,0.2,0.3,0.4,0.6,0.4c0.4,0,0.9-0.2,1.5-0.6c0.6-0.4,1.1-0.9,1.6-1.5
				c0.5-0.6,0.9-1.4,1.3-2.2C58.5,65.3,58.7,64.4,58.7,63.5z"/>
			<path class="st0" d="M76.3,73.3c0,0.3-0.1,0.6-0.2,0.7s-0.3,0.3-0.5,0.4c-0.2,0.1-0.5,0.2-0.8,0.2c-0.5,0-0.9-0.1-1.2-0.4
				s-0.6-0.6-0.8-0.9c-0.3-0.4-0.5-0.8-0.6-1.4c0-0.1-0.1-0.2-0.2-0.2c-0.1,0-0.1,0-0.2,0.1l-0.1,0.1c-0.4,0.4-0.8,0.8-1.2,1.1
				c-0.4,0.3-0.8,0.5-1.2,0.6c-0.4,0.1-0.7,0.2-1.1,0.3c-0.3,0-0.6,0.1-0.8,0.1c-0.8,0-1.4-0.1-1.8-0.4c-0.4-0.3-0.8-0.6-1-0.9
				c-0.2-0.4-0.3-0.7-0.4-1.1c-0.1-0.4-0.1-0.6-0.1-0.8c0-0.5,0.1-1,0.3-1.5c0.2-0.5,0.4-0.9,0.7-1.4c0.3-0.4,0.7-0.8,1.1-1.2
				s0.8-0.7,1.2-1c1-0.7,2.1-1.3,3.3-1.9c0.1,0,0.2-0.1,0.2-0.1c0.2-0.1,0.2-0.2,0.2-0.4c0-0.3-0.2-0.5-0.7-0.6
				c-0.5-0.1-1-0.2-1.5-0.2c-0.2,0-0.5,0-0.7,0c-0.2,0-0.4,0-0.6,0.1c-0.2,0-0.4,0-0.5,0c-0.3,0-0.5,0-0.7-0.1
				c-0.2-0.1-0.3-0.2-0.4-0.3c-0.1-0.1-0.1-0.3-0.2-0.4c0-0.1,0-0.3,0-0.3c0-0.1,0-0.2,0.1-0.4c0.1-0.2,0.2-0.4,0.4-0.5
				c0.2-0.2,0.5-0.4,0.9-0.5s1-0.2,1.7-0.2c0.5,0,1,0.1,1.7,0.2c0.7,0.1,1.3,0.3,1.9,0.5s1.1,0.6,1.6,1c0.4,0.4,0.6,0.9,0.6,1.4
				c0,0.4-0.2,0.8-0.5,1.2c-0.4,0.4-0.8,0.7-1.4,1.1s-1.1,0.7-1.8,1.1c-0.6,0.4-1.2,0.7-1.8,1.1c-0.5,0.4-1,0.8-1.4,1.3
				c-0.4,0.5-0.5,1-0.5,1.6c0,0.1,0,0.3,0.1,0.5c0.1,0.2,0.3,0.4,0.7,0.4c0.3,0,0.6-0.1,0.9-0.2c0.3-0.2,0.6-0.4,0.9-0.6
				s0.5-0.5,0.7-0.8c0.2-0.3,0.3-0.6,0.3-1c0,0,0-0.1,0-0.1v-0.2c0-0.2,0-0.4,0.1-0.6c0.1-0.2,0.2-0.4,0.4-0.6
				c0.2-0.2,0.4-0.4,0.6-0.5c0.2-0.1,0.5-0.2,0.8-0.2c0.2,0,0.3,0,0.4,0.1c0.1,0.1,0.2,0.2,0.2,0.5c0.1,0.7,0.2,1.4,0.4,2.1
				c0.1,0.6,0.3,1.1,0.5,1.7c0.2,0.6,0.5,1,0.9,1.3c0.1,0.2,0.2,0.3,0.4,0.4c0.1,0.1,0.2,0.3,0.2,0.4S76.3,73.1,76.3,73.3z"/>
			<path class="st0" d="M94.9,62.5c0,0.8-0.2,1.6-0.5,2.4c-0.3,0.8-0.8,1.5-1.3,2c-0.6,0.6-1.2,1.1-1.9,1.4
				c-0.7,0.4-1.5,0.5-2.3,0.5c-0.1,0-0.1,0-0.2,0.1c0,0,0,0.1,0,0.1c0.1,0.6,0.2,1.1,0.4,1.4s0.4,0.6,0.7,0.8
				c0.3,0.2,0.6,0.4,0.9,0.5c0.7,0.2,1.1,0.4,1.2,0.7c0.1,0.3,0.2,0.6,0.2,0.8c0,0.3-0.1,0.6-0.3,0.8c-0.2,0.2-0.4,0.3-0.6,0.4
				c-0.2,0.1-0.5,0.2-0.8,0.2c-0.9,0-1.6-0.2-2.2-0.6s-1.1-0.9-1.4-1.3c-0.4-0.6-0.7-1.2-1-2l-0.1-0.5c-0.1-0.2-0.1-0.3-0.1-0.5
				s-0.1-0.5-0.1-0.7c0,0,0-0.1,0-0.1c-0.1-0.1-0.1-0.1-0.2-0.1c-0.3-0.1-0.6-0.1-0.9-0.3c-0.2-0.1-0.4-0.3-0.6-0.5
				c-0.2-0.2-0.3-0.6-0.3-1c0-0.2,0.1-0.4,0.2-0.5c0.1-0.1,0.1-0.3,0.3-0.4c0.1-0.1,0.3-0.2,0.4-0.2c0.1,0,0.2,0,0.3,0.1
				s0.4,0.1,0.7,0.1c0.1,0,0.1,0,0.1,0c0,0,0,0,0,0c0.4-1.2,0.8-2.3,1.4-3.3c0.3-0.4,0.5-0.8,0.9-1.2c0.3-0.4,0.7-0.7,1.1-1.1
				c0.4-0.3,0.8-0.6,1.3-0.7c0.5-0.2,1-0.3,1.6-0.3c0.3,0,0.6,0,0.9,0.1s0.7,0.2,1,0.5c0.3,0.2,0.6,0.6,0.8,1
				C94.8,61.3,94.9,61.8,94.9,62.5z M92.1,62.9c0-0.2,0-0.3-0.1-0.4c-0.1-0.1-0.1-0.2-0.2-0.3c-0.1-0.1-0.2-0.1-0.4-0.1
				c-0.3,0-0.6,0.1-1,0.4c-0.4,0.3-0.7,0.6-1,1.1c-0.3,0.4-0.5,0.9-0.7,1.4c-0.2,0.5-0.3,0.9-0.3,1.3c0,0.1,0.1,0.2,0.2,0.2
				c0.2,0,0.5-0.1,0.8-0.2c0.4-0.1,0.8-0.4,1.2-0.6c0.4-0.3,0.7-0.6,1-1.1S92.1,63.5,92.1,62.9z M95.5,53.9c0,0.1,0,0.2-0.1,0.4
				s-0.1,0.2-0.2,0.2c-0.1,0.1-0.2,0.1-0.2,0.2c-0.5,0.2-1,0.5-1.4,0.8s-0.8,0.6-1.2,1c-0.4,0.3-0.7,0.6-1.1,0.8
				c-0.4,0.2-0.7,0.4-1.1,0.4c-0.2,0-0.4,0-0.4-0.2c-0.1-0.1-0.1-0.1,0-0.2c0-0.5,0.1-1,0.4-1.6c0.3-0.6,0.6-1.1,1-1.6
				c0.4-0.5,0.8-0.9,1.2-1.2s0.7-0.5,0.9-0.5c0.2,0,0.4,0,0.6,0.1c0.2,0.1,0.5,0.1,0.7,0.3c0.2,0.1,0.4,0.3,0.6,0.5
				C95.4,53.4,95.5,53.6,95.5,53.9z"/>
			<path class="st0" d="M117.3,63.6c0,1.4-0.3,2.6-1,3.7c-0.6,1.1-1.4,2.1-2.4,3c-0.9,0.8-2,1.5-3.1,2c-1.1,0.5-2.1,0.9-3.1,1
				c-0.1,0-0.1,0-0.2,0.1c0,0.1-0.1,0.1-0.1,0.1c-0.1,1.5-0.1,3.2-0.1,4.9c0,0.6,0,1.2,0.1,1.7c0.1,0.5,0.1,1,0.2,1.5
				c0.1,0.5,0.2,1,0.3,1.3c0.2,0.4,0.3,0.8,0.3,1c0.1,0.2,0.1,0.4,0.1,0.5c0,0.5-0.2,0.9-0.5,1.1c-0.4,0.2-0.6,0.3-0.9,0.3
				c-0.2,0-0.4,0-0.4,0c-0.1,0-0.1,0-0.2,0c-0.4-0.2-0.8-0.5-1-1.1c-0.2-0.6-0.4-1.2-0.5-1.9c-0.1-0.7-0.2-1.2-0.2-1.8
				c0-0.5,0-0.9,0-1c0-0.9,0-1.7,0-2.3s0-1.2,0-1.8s0-1,0-1.3c0-0.4,0-0.8,0-1.1c0,0,0-0.1,0-0.1c-0.1-0.1-0.1-0.1-0.2-0.1
				c-0.5-0.1-1-0.3-1.4-0.5c-0.3-0.2-0.6-0.4-0.9-0.7c-0.3-0.3-0.4-0.7-0.4-1.1c0-0.4,0.1-0.7,0.4-0.9c0.3-0.2,0.5-0.3,0.7-0.3
				c0.3,0,0.6,0.1,0.9,0.3c0.3,0.2,0.6,0.3,0.8,0.3c0.1,0,0.2,0,0.2-0.1c0,0,0-0.1,0-0.1c0.1-1.8,0.3-3.4,0.5-4.7s0.4-2.4,0.5-3.2
				c0.2-1,0.4-1.8,0.6-2.5c0.1-0.2,0.2-0.4,0.4-0.6c0.1-0.1,0.3-0.3,0.5-0.4c0.2-0.1,0.5-0.2,0.9-0.2c0.2,0,0.4,0,0.6,0.1
				c0.2,0.1,0.4,0.3,0.4,0.6c0,0.1,0,0.3-0.1,0.7c-0.1,0.4-0.2,0.9-0.3,1.5c-0.1,0.6-0.2,1.1-0.3,1.6c-0.1,0.5-0.1,0.9-0.1,1.2
				c0,0.1,0,0.2,0.1,0.2c0,0,0.1-0.1,0.2-0.2c0.5-0.6,1-1.2,1.7-1.6c0.5-0.4,1.2-0.8,2-1.2c0.8-0.4,1.7-0.5,2.7-0.5
				c0.4,0.1,0.8,0.2,1.1,0.4c0.3,0.2,0.5,0.5,0.8,0.9S117.3,63,117.3,63.6z M114.3,64.8c0-0.2,0-0.4-0.1-0.5
				c-0.1-0.1-0.2-0.2-0.3-0.3c-0.1-0.1-0.2-0.1-0.4-0.1c-0.7,0-1.3,0.2-2,0.7c-0.7,0.5-1.3,1.1-1.9,1.8c-0.6,0.7-1,1.4-1.4,2.1
				c-0.4,0.7-0.5,1.3-0.5,1.7c0,0.2,0,0.2,0.1,0.3c0.1,0,0.1,0,0.2,0c0.7,0,1.4-0.2,2.2-0.6s1.4-0.9,2-1.5c0.6-0.6,1.1-1.2,1.5-1.9
				C114.1,65.8,114.3,65.3,114.3,64.8z"/>
			<path class="st0" d="M130.2,73.3c0,0.3-0.1,0.6-0.2,0.7s-0.3,0.3-0.5,0.4c-0.2,0.1-0.5,0.2-0.8,0.2c-0.5,0-0.9-0.1-1.2-0.4
				s-0.6-0.6-0.8-0.9c-0.3-0.4-0.5-0.8-0.6-1.4c0-0.1-0.1-0.2-0.2-0.2c-0.1,0-0.1,0-0.2,0.1l-0.1,0.1c-0.4,0.4-0.8,0.8-1.2,1.1
				c-0.4,0.3-0.8,0.5-1.2,0.6c-0.4,0.1-0.7,0.2-1.1,0.3c-0.3,0-0.6,0.1-0.8,0.1c-0.8,0-1.4-0.1-1.8-0.4c-0.4-0.3-0.8-0.6-1-0.9
				c-0.2-0.4-0.3-0.7-0.4-1.1c-0.1-0.4-0.1-0.6-0.1-0.8c0-0.5,0.1-1,0.3-1.5c0.2-0.5,0.4-0.9,0.7-1.4c0.3-0.4,0.7-0.8,1.1-1.2
				s0.8-0.7,1.2-1c1-0.7,2.1-1.3,3.3-1.9c0.1,0,0.2-0.1,0.2-0.1c0.2-0.1,0.2-0.2,0.2-0.4c0-0.3-0.2-0.5-0.7-0.6
				c-0.5-0.1-1-0.2-1.5-0.2c-0.2,0-0.5,0-0.7,0c-0.2,0-0.4,0-0.6,0.1c-0.2,0-0.4,0-0.5,0c-0.3,0-0.5,0-0.7-0.1
				c-0.2-0.1-0.3-0.2-0.4-0.3c-0.1-0.1-0.1-0.3-0.2-0.4c0-0.1,0-0.3,0-0.3c0-0.1,0-0.2,0.1-0.4c0.1-0.2,0.2-0.4,0.4-0.5
				c0.2-0.2,0.5-0.4,0.9-0.5s1-0.2,1.7-0.2c0.5,0,1,0.1,1.7,0.2c0.7,0.1,1.3,0.3,1.9,0.5s1.1,0.6,1.6,1c0.4,0.4,0.6,0.9,0.6,1.4
				c0,0.4-0.2,0.8-0.5,1.2c-0.4,0.4-0.8,0.7-1.4,1.1s-1.1,0.7-1.8,1.1c-0.6,0.4-1.2,0.7-1.8,1.1c-0.5,0.4-1,0.8-1.4,1.3
				c-0.4,0.5-0.5,1-0.5,1.6c0,0.1,0,0.3,0.1,0.5c0.1,0.2,0.3,0.4,0.7,0.4c0.3,0,0.6-0.1,0.9-0.2c0.3-0.2,0.6-0.4,0.9-0.6
				s0.5-0.5,0.7-0.8c0.2-0.3,0.3-0.6,0.3-1c0,0,0-0.1,0-0.1v-0.2c0-0.2,0-0.4,0.1-0.6c0.1-0.2,0.2-0.4,0.4-0.6
				c0.2-0.2,0.4-0.4,0.6-0.5c0.2-0.1,0.5-0.2,0.8-0.2c0.2,0,0.3,0,0.4,0.1c0.1,0.1,0.2,0.2,0.2,0.5c0.1,0.7,0.2,1.4,0.4,2.1
				c0.1,0.6,0.3,1.1,0.5,1.7c0.2,0.6,0.5,1,0.9,1.3c0.1,0.2,0.2,0.3,0.4,0.4c0.1,0.1,0.2,0.3,0.2,0.4S130.2,73.1,130.2,73.3z"/>
			<path class="st0" d="M141.9,65.1c0,0.2-0.1,0.4-0.2,0.5c-0.1,0.1-0.3,0.2-0.5,0.3c-0.2,0.1-0.4,0.1-0.7,0.1
				c-0.5,0-0.9-0.1-1.2-0.3c-0.3-0.2-0.5-0.4-0.6-0.6s-0.3-0.4-0.4-0.6s-0.2-0.3-0.3-0.3c-0.2,0-0.4,0.3-0.8,0.8
				c-0.4,0.5-0.7,1.2-1.1,2.1c-0.4,0.9-0.7,1.8-1,2.8c-0.3,1-0.4,2.1-0.4,3c0,0.4-0.1,0.7-0.4,0.9s-0.6,0.2-0.9,0.2
				c-0.4,0-0.7-0.2-1-0.5c-0.2-0.4-0.4-0.8-0.5-1.4c-0.1-0.5-0.2-1.2-0.2-1.8c0-0.7,0-1.3,0-2c0-1,0-2.1,0.1-3.1
				c0.1-1,0.1-1.9,0.2-2.6c0.1-0.6,0.2-1.1,0.3-1.5c0.1-0.4,0.3-0.7,0.5-0.9c0.2-0.2,0.4-0.4,0.7-0.4s0.6-0.1,0.9-0.1
				c0.1,0,0.2,0.1,0.4,0.2c0.1,0.1,0.2,0.1,0.2,0.3c0.1,0.1,0.1,0.3,0.1,0.6c0,0.2,0,0.3,0,0.4c-0.1,0.4-0.1,0.7-0.2,1.1
				c-0.1,0.3-0.1,0.7-0.2,1.2c-0.1,0.4-0.1,0.9-0.1,1.3c0,0.1,0,0.1,0,0.2c0,0.1,0.1,0.1,0.2,0.1c0.1,0,0.1-0.1,0.2-0.2
				c0.2-0.4,0.3-0.8,0.5-1.3c0.2-0.4,0.4-0.8,0.6-1.3c0.2-0.5,0.5-1,0.9-1.4c0.2-0.2,0.3-0.4,0.3-0.6c0.1-0.2,0.2-0.4,0.5-0.8
				c0.2-0.2,0.4-0.4,0.6-0.5c0.2-0.1,0.4-0.3,0.7-0.4c0.2-0.1,0.5-0.2,0.8-0.2c0.2,0,0.4,0.1,0.6,0.2c0.2,0.1,0.3,0.3,0.3,0.6
				c0,0.3,0,0.7-0.1,1c-0.1,0.3-0.1,0.7-0.1,1.2c0,0.7,0.1,1.3,0.2,1.7s0.3,0.7,0.4,1c0.2,0.2,0.3,0.4,0.4,0.6
				S141.9,64.9,141.9,65.1z"/>
			<path class="st0" d="M154,73.3c0,0.3-0.1,0.6-0.2,0.7s-0.3,0.3-0.5,0.4c-0.2,0.1-0.5,0.2-0.8,0.2c-0.5,0-0.9-0.1-1.2-0.4
				s-0.6-0.6-0.8-0.9c-0.3-0.4-0.5-0.8-0.6-1.4c0-0.1-0.1-0.2-0.2-0.2c-0.1,0-0.1,0-0.2,0.1l-0.1,0.1c-0.4,0.4-0.8,0.8-1.2,1.1
				c-0.4,0.3-0.8,0.5-1.2,0.6c-0.4,0.1-0.7,0.2-1.1,0.3c-0.3,0-0.6,0.1-0.8,0.1c-0.8,0-1.4-0.1-1.8-0.4c-0.4-0.3-0.8-0.6-1-0.9
				c-0.2-0.4-0.3-0.7-0.4-1.1c-0.1-0.4-0.1-0.6-0.1-0.8c0-0.5,0.1-1,0.3-1.5c0.2-0.5,0.4-0.9,0.7-1.4c0.3-0.4,0.7-0.8,1.1-1.2
				s0.8-0.7,1.2-1c1-0.7,2.1-1.3,3.3-1.9c0.1,0,0.2-0.1,0.2-0.1c0.2-0.1,0.2-0.2,0.2-0.4c0-0.3-0.2-0.5-0.7-0.6
				c-0.5-0.1-1-0.2-1.5-0.2c-0.2,0-0.5,0-0.7,0c-0.2,0-0.4,0-0.6,0.1c-0.2,0-0.4,0-0.5,0c-0.3,0-0.5,0-0.7-0.1
				c-0.2-0.1-0.3-0.2-0.4-0.3c-0.1-0.1-0.1-0.3-0.2-0.4c0-0.1,0-0.3,0-0.3c0-0.1,0-0.2,0.1-0.4c0.1-0.2,0.2-0.4,0.4-0.5
				c0.2-0.2,0.5-0.4,0.9-0.5s1-0.2,1.7-0.2c0.5,0,1,0.1,1.7,0.2c0.7,0.1,1.3,0.3,1.9,0.5s1.1,0.6,1.6,1c0.4,0.4,0.6,0.9,0.6,1.4
				c0,0.4-0.2,0.8-0.5,1.2c-0.4,0.4-0.8,0.7-1.4,1.1s-1.1,0.7-1.8,1.1c-0.6,0.4-1.2,0.7-1.8,1.1c-0.5,0.4-1,0.8-1.4,1.3
				c-0.4,0.5-0.5,1-0.5,1.6c0,0.1,0,0.3,0.1,0.5c0.1,0.2,0.3,0.4,0.7,0.4c0.3,0,0.6-0.1,0.9-0.2c0.3-0.2,0.6-0.4,0.9-0.6
				s0.5-0.5,0.7-0.8c0.2-0.3,0.3-0.6,0.3-1c0,0,0-0.1,0-0.1v-0.2c0-0.2,0-0.4,0.1-0.6c0.1-0.2,0.2-0.4,0.4-0.6
				c0.2-0.2,0.4-0.4,0.6-0.5c0.2-0.1,0.5-0.2,0.8-0.2c0.2,0,0.3,0,0.4,0.1c0.1,0.1,0.2,0.2,0.2,0.5c0.1,0.7,0.2,1.4,0.4,2.1
				c0.1,0.6,0.3,1.1,0.5,1.7c0.2,0.6,0.5,1,0.9,1.3c0.1,0.2,0.2,0.3,0.4,0.4c0.1,0.1,0.2,0.3,0.2,0.4S154,73.1,154,73.3z"/>
		</g>
	</g>
	<g>
		<path class="st1" d="M68.7,146.3c8,0,8,4.9,15.9,4.9c8,0,8-4.9,15.9-4.9c8,0,8,4.9,15.9,4.9c8,0,8-4.9,15.9-4.9
			c8,0,8,4.9,15.9,4.9s8-4.9,15.9-4.9"/>
	</g>
	<g>
		<path class="st0" d="M244.4,49C244.3,49,244.3,48.9,244.4,49c-0.2,0-0.3-0.1-0.4-0.1c-0.2-0.1-0.4-0.2-0.6-0.4
			c-0.1-0.1-0.2-0.2-0.4-0.3c-1.3-1.2-3.2,0.3-2.4,1.9c0.1,0.3,0.3,0.6,0.4,0.9c0,0-0.1,0-0.1,0c-0.1-0.1-0.2-0.2-0.3-0.3
			c-0.1-0.2-0.3-0.4-0.4-0.6c0-0.1-0.1-0.2-0.1-0.3c0-0.2,0-0.4,0-0.6c0.1-1-0.6-1.5-1.4-1.5c-0.8,0-1.6,0.5-1.8,1.5
			c-0.2,1.5,0.4,2.7,1.4,3.8c-0.1,0.1-0.1,0.1-0.2,0.2c-0.9,0.7-1.9,1.2-2.9,1.6c-2,0.8-4,1.2-6.1,1.5c-5,0.6-10.1,0.3-15.1-0.3
			c-6.9-1-13.6-2.7-20.1-5.4c-5-2.2-9.7-4.8-14-8.1c-3-2.4-5.7-5-8.1-8c-1.7-2.2-3.1-4.6-4.2-7.2c0-0.1-0.1-0.2-0.1-0.3
			c0-0.1-0.1-0.1-0.1-0.2c0.7-0.7,1.4-1.5,2-2.3c0.9-1.1,0.2-2.6-1.1-2.6c-0.1,0-0.3,0-0.4,0c-2.4,0.5-4.3,2.2-6.5,3.3
			c-0.2,0.1-0.4,0.1-0.7,0.2c-1.4,0.4-1.3,2.1-0.4,2.8c-0.4,0.2-0.8,0.4-1.1,0.5c-1.8,0.8-0.2,3.5,1.6,2.7c1.6-0.7,2.9-1.5,4.2-2.5
			c3,6.6,7.8,12,13.4,16.4c-4.3,5.9-7,13.7-6.5,21c0.5,6.4,4.9,11.1,10.8,13.1c6.6,2.3,13.6,0.5,18.8-3.9c2.6-2.2,4.6-5.1,6.4-7.9
			c1.6-2.6,3.2-5.7,3.5-8.8c4.2,0.7,8.4,1,12.6,1c5.6,0,12.3-0.8,16.7-4.8c0.8,0.5,1.5,1.1,2.2,1.5c0,0,0,0,0,0c0,0,0,0,0.1,0
			c0,0,0,0,0,0c1.2,0.8,2.9,0,2.5-1.6c-0.2-1-0.5-1.9-0.8-2.9C246.3,51.9,246.2,49.2,244.4,49z M208.4,58.5c-0.2,1.2-0.5,2.3-1,3.4
			c-1.2,2.7-2.8,5.3-4.6,7.7c-1.3,1.6-2.7,3.1-4.4,4.5c-1.1,0.8-2.2,1.5-3.4,2c-1.2,0.5-2.4,0.8-3.7,1c-1.5,0.2-3,0.1-4.5,0
			c-1.5-0.2-3-0.6-4.4-1.2c-1.1-0.5-2.1-1.1-3-1.8c-0.7-0.6-1.4-1.3-2-2c-0.6-0.8-1-1.6-1.4-2.4c-0.4-1-0.6-2-0.8-3
			c-0.2-1.7-0.1-3.4,0.1-5.1c0.5-3.1,1.3-6,2.5-8.9c0.9-2,2-3.9,3.3-5.7c3.7,2.5,7.6,4.6,11.7,6.3c-2.3,3.3-4,6.8-5.5,10.4
			c-0.5,0.3-0.9,0.9-0.6,1.7c0,0,0,0.1,0.1,0.1c0.3,0.9,1.4,1.5,2.3,0.9c1-0.6,1.3-1.9,1.6-2.9c1.5-3.2,3.1-6.2,5.1-9.1
			c2.5,0.9,4.9,1.7,7.4,2.4c1.8,0.5,3.5,0.9,5.4,1.2C208.4,58.3,208.4,58.4,208.4,58.5z"/>
		<path class="st0" d="M217.1,13.5c0,0.1,0.1,0.1,0.1,0.2c0.3,0.4,0.8,0.6,1.5,0.5c0.4-0.1,0.7-0.1,1.1-0.2c1-0.1,2-0.1,3,0
			c0.6,0.1,1.2,0.3,1.8,0.5c0.7,0.3,1.3,0.7,1.9,1.1c0.9,0.8,1.7,1.6,2.4,2.5c0.2,0.3,0.4,0.6,0.6,0.9c1.1,1.6,3.8,0.1,2.7-1.6
			c-1.6-2.2-3.3-4.3-5.8-5.6c-0.8-0.4-1.6-0.7-2.4-0.8c0.2,0,0.4-0.1,0.7-0.1c0.6,0,1.1-0.1,1.7,0c0.3,0.1,0.7,0.1,1,0.3
			c0.2,0.1,0.3,0.2,0.5,0.3c0.1,0.1,0.2,0.2,0.3,0.3c0,0.1,0.1,0.1,0.1,0.2c1.2,1.6,3.9,0.1,2.7-1.6c-1.3-1.8-3.4-2.6-5.6-2.6
			c-3.1,0-6.5,1.5-8.3,3.7C216.5,12.1,216.6,12.9,217.1,13.5C217.1,13.5,217.1,13.5,217.1,13.5z"/>
		<path class="st0" d="M199.4,8.4c-0.1,0-0.1,0.1-0.2,0.1c-0.4,0.3-1,0.3-1.5,0c-0.3-0.2-0.7-0.3-1-0.5c-0.9-0.4-1.9-0.7-2.9-0.9
			C193.2,7,192.6,7,191.9,7c-0.7,0.1-1.4,0.3-2.1,0.5c-1.1,0.5-2.1,1.1-3,1.7c-0.3,0.2-0.6,0.4-0.9,0.7c-1.6,1.2-3.7-1.1-2.1-2.3
			c2.2-1.7,4.4-3.1,7.2-3.6c0.9-0.1,1.7-0.2,2.5-0.1c-0.2-0.1-0.4-0.2-0.6-0.3c-0.5-0.2-1-0.4-1.6-0.5c-0.4,0-0.7-0.1-1,0
			c-0.2,0-0.3,0.1-0.5,0.1c-0.1,0.1-0.2,0.1-0.4,0.2c-0.1,0-0.1,0.1-0.2,0.1c-1.6,1.2-3.7-1.1-2.1-2.3c1.8-1.4,4-1.5,6.1-0.8
			c3,0.9,5.8,3.4,6.9,6C200.4,7.2,200.1,7.9,199.4,8.4C199.4,8.3,199.4,8.4,199.4,8.4z"/>
	</g>
</g>
</svg>
