<?xml version="1.0" encoding="utf-8"?>
<!-- Generator: Adobe Illustrator 21.1.0, SVG Export Plug-In . SVG Version: 6.00 Build 0)  -->
<svg version="1.1" id="Capa_1" xmlns="http://www.w3.org/2000/svg" xmlns:xlink="http://www.w3.org/1999/xlink" x="0px" y="0px"
	 viewBox="0 0 227.5 137.5" style="enable-background:new 0 0 227.5 137.5;" xml:space="preserve">
<style type="text/css">
	.st0{fill:#F6EEDE;}
	.st1{fill:#EED7B3;}
	.st2{fill:none;}
</style>
<g>
	<path class="st0" d="M216,124.3l11.6-69l-35.1-26.1L18.2,0L0,108.3l174.2,29.2L216,124.3z M187.2,84c0.7-4.1,4.5-6.8,8.6-6.2
		c4.1,0.7,6.9,4.5,6.2,8.6c-0.7,4.1-4.6,6.9-8.7,6.2C189.3,92,186.5,88.1,187.2,84z"/>
	<path class="st1" d="M210.6,87.8c1.5-8.8-4.5-17.1-13.3-18.6c-8.8-1.5-17.1,4.5-18.6,13.3c-1.5,8.8,4.5,17.1,13.3,18.6
		C200.8,102.5,209.1,96.6,210.6,87.8L210.6,87.8z M202,86.4c-0.7,4.1-4.6,6.9-8.7,6.2c-4.1-0.7-6.8-4.6-6.2-8.6
		c0.7-4.1,4.5-6.8,8.6-6.2C200,78.4,202.7,82.3,202,86.4L202,86.4z"/>
	<g>
		<path d="M40.7,49.6c-0.1,0.5-0.2,1-0.4,1.2c-0.2,0.3-0.3,0.5-0.5,0.6c-0.2,0.1-0.4,0.2-0.5,0.2c-0.2,0-0.3,0-0.4,0
			c-0.2,0-0.4-0.1-0.5-0.3c-0.1-0.1-0.2-0.3-0.2-0.4c-0.1-0.2-0.1-0.4,0-0.6c0.1-0.5,0.1-0.9,0-1.3c-0.1-0.3-0.1-0.6-0.2-0.8
			c-0.1-0.2-0.3-0.4-0.4-0.6c0,0,0,0,0,0c0,0,0,0,0,0l0,0c-0.2,0.2-0.5,0.4-0.9,0.6c-0.4,0.2-0.8,0.4-1.3,0.6
			c-0.5,0.2-1.1,0.3-1.8,0.4c-0.7,0.1-1.4,0.1-2.2-0.1c-0.7-0.2-1.2-0.4-1.7-0.8c-0.4-0.3-0.8-0.7-1-1.3s-0.3-1.3-0.2-2.2
			c0.1-0.3,0.2-0.7,0.4-1c0.2-0.3,0.4-0.7,0.6-1c0.3-0.4,0.6-0.7,1-1c0,0,0.1-0.1,0.1-0.1c0,0,0-0.1,0-0.1l0,0
			c-0.5-0.4-0.8-0.8-1.1-1.1c-0.2-0.4-0.4-0.7-0.5-1.1s-0.1-0.6-0.1-0.9c0-0.3,0-0.5,0.1-0.7c0.1-0.5,0.4-1.1,0.8-1.8
			c0.4-0.7,1-1.3,1.8-1.9c0.7-0.6,1.6-1.1,2.5-1.4c1-0.3,2-0.4,3.1-0.2c0.5,0.1,1.1,0.3,1.6,0.6c0.5,0.3,1,0.8,1.4,1.5
			c0.4,0.7,0.7,1.5,0.8,2.6c0.2,1,0.1,2.3-0.1,3.8c-0.1,0.6-0.2,1.1-0.4,1.6c-0.2,0.5-0.3,1-0.5,1.3c-0.2,0.5-0.4,0.9-0.5,1.2
			c0,0.1,0,0.1,0,0.2l0,0.1c0.3,0.4,0.6,0.8,0.8,1.2c0.2,0.4,0.3,0.8,0.5,1.3S40.8,49,40.7,49.6z M35.8,45.5c0-0.1,0-0.1-0.1-0.2
			c-0.4-0.4-0.8-0.7-1.2-1s-0.8-0.6-1.1-0.8c-0.4-0.3-0.8-0.5-1.1-0.7l0,0c0,0,0,0-0.1,0c0,0,0,0-0.1,0c-0.1,0-0.1,0-0.2,0.1
			c-0.1,0.2-0.2,0.3-0.3,0.5c-0.1,0.2-0.2,0.4-0.3,0.6c-0.1,0.2-0.2,0.4-0.2,0.7c0,0.2,0,0.5,0,0.7c0,0.2,0.1,0.5,0.2,0.7
			c0.1,0.2,0.3,0.4,0.5,0.5c0.2,0.2,0.5,0.3,0.9,0.3c0.4,0.1,0.8,0,1.2-0.1c0.4-0.1,0.7-0.3,1-0.5C35.3,46.1,35.6,45.8,35.8,45.5z
			 M38.2,40.2c0.2-0.9,0.2-1.7,0.1-2.3c-0.1-0.6-0.2-1.2-0.4-1.6c-0.2-0.4-0.4-0.8-0.7-1c-0.3-0.2-0.6-0.4-1-0.4
			c-0.4-0.1-0.9,0-1.3,0.1c-0.5,0.1-0.9,0.3-1.3,0.6c-0.4,0.3-0.7,0.6-1,1c-0.3,0.4-0.5,0.8-0.5,1.3c-0.1,0.5,0,1.1,0.3,1.5
			c0.3,0.5,0.7,0.9,1.3,1.3c0.5,0.4,1.1,0.8,1.7,1.2c0.6,0.4,1.2,0.8,1.8,1.3l0.1,0c0.1,0,0.1,0,0.1-0.1c0.1-0.3,0.2-0.6,0.3-0.9
			c0.1-0.3,0.2-0.6,0.3-0.9C38,41,38.1,40.6,38.2,40.2z"/>
		<path d="M51,50.4c0,0.3-0.1,0.5-0.3,0.6c-0.1,0.1-0.3,0.2-0.4,0.2c-0.2,0-0.4,0.1-0.6,0c-0.3-0.1-0.6-0.2-0.8-0.4
			c-0.2-0.2-0.3-0.4-0.4-0.7c-0.1-0.2-0.2-0.5-0.2-0.7c0-0.2,0-0.3,0-0.4c0-0.1,0-0.1,0-0.1c0,0-0.1,0-0.1,0c0,0,0,0-0.1,0
			c-0.4,0.5-0.9,0.9-1.3,1.2c-0.4,0.3-0.8,0.4-1.1,0.5c-0.3,0.1-0.6,0.1-0.8,0.1s-0.3,0-0.4,0c-0.5-0.1-0.9-0.3-1.2-0.7
			c-0.3-0.4-0.5-0.9-0.6-1.4c-0.1-0.5-0.2-1.1-0.2-1.7c0-0.6,0-1.2,0.1-1.7c0.1-0.5,0.2-1,0.4-1.6s0.4-1.2,0.7-1.7
			c0.3-0.5,0.6-0.9,0.9-1.2c0.4-0.3,0.7-0.4,1.2-0.4c0.1,0,0.2,0,0.3,0.1c0.1,0,0.2,0.1,0.3,0.2c0.1,0.1,0.2,0.2,0.2,0.4
			s0,0.4,0,0.6c0,0.2-0.1,0.4-0.2,0.7c-0.1,0.2-0.2,0.5-0.5,0.9c-0.2,0.3-0.4,0.7-0.5,1.1c-0.2,0.3-0.3,0.7-0.4,1.1
			c-0.1,0.4-0.2,0.8-0.3,1.2c-0.1,0.5-0.1,0.9,0,1.2c0.1,0.4,0.3,0.6,0.7,0.6c0.3,0,0.6-0.1,1-0.3c0.3-0.2,0.6-0.5,0.9-0.9
			c0.3-0.4,0.6-1.1,0.9-1.9c0-0.1,0.1-0.3,0.1-0.4c0-0.1,0.1-0.3,0.1-0.5s0.1-0.3,0.1-0.5c0-0.1,0.1-0.2,0.2-0.3s0.2-0.3,0.4-0.4
			c0.2-0.1,0.3-0.2,0.5-0.3c0.2-0.1,0.4-0.1,0.7,0c0.2,0,0.4,0.1,0.5,0.2c0.2,0.1,0.2,0.4,0.1,0.7c0,0.2-0.1,0.5-0.3,0.9
			c-0.1,0.4-0.3,1-0.4,1.8c-0.1,0.5-0.1,1.1-0.1,1.6c0,0.5,0.1,0.9,0.2,1.3c0.1,0.1,0.2,0.3,0.3,0.5C51,50,51,50.2,51,50.4z"/>
		<path d="M61.4,45.2c-0.1,0.6-0.3,1.2-0.7,1.7c-0.4,0.5-0.8,1-1.3,1.4c-0.5,0.4-1,0.7-1.6,0.8s-1.2,0.2-1.8,0.1c0,0-0.1,0-0.1,0
			c0,0,0,0,0,0.1c0,0.5,0,0.8,0.1,1.1c0.1,0.3,0.3,0.5,0.4,0.7c0.2,0.2,0.4,0.4,0.6,0.5c0.5,0.2,0.8,0.5,0.8,0.7
			c0.1,0.2,0.1,0.4,0.1,0.6c0,0.3-0.1,0.4-0.3,0.5c-0.1,0.1-0.3,0.2-0.5,0.2c-0.2,0-0.4,0.1-0.6,0c-0.7-0.1-1.2-0.4-1.6-0.7
			c-0.4-0.4-0.7-0.8-0.9-1.2c-0.2-0.5-0.4-1-0.5-1.6l0-0.4c0-0.1,0-0.3,0-0.4c0-0.2,0-0.4,0-0.6c0,0,0,0,0-0.1c0,0-0.1-0.1-0.1-0.1
			c-0.2-0.1-0.4-0.2-0.6-0.3c-0.1-0.1-0.3-0.3-0.4-0.5c-0.1-0.2-0.1-0.5-0.1-0.8c0-0.2,0.1-0.3,0.2-0.4c0.1-0.1,0.1-0.2,0.2-0.2
			c0.1-0.1,0.2-0.1,0.4-0.1c0,0,0.1,0,0.2,0.1c0.1,0.1,0.3,0.1,0.5,0.2c0,0,0.1,0,0.1,0c0,0,0,0,0,0c0.4-0.9,0.9-1.6,1.5-2.3
			c0.2-0.3,0.5-0.5,0.8-0.8c0.3-0.3,0.6-0.5,0.9-0.7c0.3-0.2,0.7-0.3,1.1-0.4c0.4-0.1,0.8-0.1,1.2,0c0.2,0,0.4,0.1,0.7,0.2
			c0.2,0.1,0.5,0.3,0.7,0.5c0.2,0.2,0.3,0.5,0.4,0.8C61.5,44.3,61.5,44.7,61.4,45.2z M59.3,45.1c0-0.1,0-0.2,0-0.3
			c0-0.1-0.1-0.2-0.1-0.2c0-0.1-0.1-0.1-0.2-0.1c-0.2,0-0.5,0-0.8,0.2c-0.3,0.2-0.6,0.4-0.9,0.7c-0.3,0.3-0.5,0.6-0.7,0.9
			c-0.2,0.3-0.3,0.7-0.4,1c0,0.1,0,0.2,0.1,0.2c0.1,0,0.4,0,0.7-0.1s0.6-0.2,1-0.3c0.3-0.2,0.6-0.4,0.9-0.7
			C59,46,59.2,45.6,59.3,45.1z"/>
		<path d="M76.3,43.6c0,0.2-0.1,0.3-0.2,0.4c-0.1,0.1-0.2,0.1-0.3,0.2c-0.1,0-0.3,0-0.4,0c-0.2,0-0.5-0.1-0.8-0.1c-0.3,0-0.6,0-1,0
			s-0.6,0-0.8,0.1s-0.4,0.1-0.4,0.1c-0.1,0.4-0.3,0.9-0.4,1.5c-0.1,0.5-0.3,1.2-0.5,2c-0.2,0.8-0.4,1.8-0.6,3
			c-0.1,0.8-0.1,1.5-0.1,2.3c0,0.6,0,1.3,0.1,1.9c0.1,0.6,0.2,1.1,0.4,1.5c0.1,0.3,0.2,0.5,0.2,0.7c0,0.3-0.2,0.5-0.5,0.5
			c-0.3,0.1-0.5,0.1-0.7,0.1c-0.3-0.1-0.6-0.2-0.7-0.3c-0.1-0.1-0.2-0.2-0.3-0.3c-0.3-0.4-0.5-0.9-0.6-1.5c-0.1-0.6-0.2-1.2-0.2-1.9
			c0-0.7,0-1.4,0.1-2.1c0.1-0.7,0.2-1.4,0.3-2.1c0.1-0.5,0.2-1.1,0.3-1.7c0.1-0.6,0.3-1.2,0.4-1.8c0.2-0.6,0.3-1.3,0.5-1.9
			c0-0.1,0-0.1,0-0.1l-0.1,0c-1-0.2-1.6-0.4-2-0.6c-0.3-0.2-0.5-0.5-0.4-0.9c0-0.1,0-0.1,0.1-0.3c0-0.1,0.1-0.2,0.2-0.3
			c0.1-0.1,0.3-0.2,0.4-0.2c0.2-0.1,0.4-0.1,0.7,0c0.2,0,0.4,0.1,0.5,0.1c0.1,0.1,0.3,0.1,0.6,0.2c0.1,0,0.2,0,0.4,0
			c0.2,0,0.3,0,0.3-0.1c0.3-1.1,0.7-2,1-2.6c0.3-0.6,0.6-1,0.9-1.3c0.3-0.3,0.5-0.4,0.8-0.4c0.3,0,0.5,0,0.7,0
			c0.1,0,0.2,0.1,0.3,0.1c0.1,0.1,0.2,0.1,0.2,0.2c0.1,0.1,0.1,0.2,0,0.4c0,0.2-0.1,0.5-0.2,0.7c-0.1,0.2-0.2,0.4-0.4,0.7
			c-0.1,0.2-0.3,0.5-0.5,0.9c-0.2,0.3-0.4,0.8-0.6,1.3c0,0.1,0,0.1,0.1,0.1c0.1,0,0.3,0,0.7,0c0.4,0,0.7,0,1,0
			c0.4,0.1,0.7,0.2,0.9,0.3c0.2,0.2,0.3,0.3,0.4,0.5C76.3,43.2,76.3,43.4,76.3,43.6z"/>
		<path d="M82.5,48.7c-0.1,0.6-0.3,1.2-0.7,1.7c-0.4,0.5-0.8,1-1.3,1.4c-0.5,0.4-1,0.7-1.6,0.8s-1.2,0.2-1.8,0.1c0,0-0.1,0-0.1,0
			c0,0,0,0,0,0.1c0,0.5,0,0.8,0.1,1.1c0.1,0.3,0.3,0.5,0.4,0.7c0.2,0.2,0.4,0.4,0.6,0.5c0.5,0.2,0.8,0.5,0.8,0.7
			c0.1,0.2,0.1,0.4,0.1,0.6c0,0.3-0.1,0.4-0.3,0.5c-0.1,0.1-0.3,0.2-0.5,0.2c-0.2,0-0.4,0.1-0.6,0c-0.7-0.1-1.2-0.4-1.6-0.7
			c-0.4-0.4-0.7-0.8-0.9-1.2c-0.2-0.5-0.4-1-0.5-1.6l0-0.4c0-0.1,0-0.3,0-0.4c0-0.2,0-0.3,0-0.6c0,0,0,0,0-0.1c0,0-0.1-0.1-0.1-0.1
			c-0.2-0.1-0.4-0.2-0.6-0.3c-0.1-0.1-0.3-0.3-0.4-0.5c-0.1-0.2-0.1-0.5-0.1-0.8c0-0.2,0.1-0.3,0.2-0.4c0.1-0.1,0.1-0.2,0.2-0.2
			c0.1-0.1,0.2-0.1,0.4-0.1c0,0,0.1,0,0.2,0.1s0.3,0.1,0.5,0.2c0,0,0.1,0,0.1,0c0,0,0,0,0,0c0.4-0.9,0.9-1.6,1.5-2.3
			c0.2-0.3,0.5-0.5,0.8-0.8c0.3-0.3,0.6-0.5,0.9-0.7c0.3-0.2,0.7-0.3,1.1-0.4c0.4-0.1,0.8-0.1,1.2,0c0.2,0,0.4,0.1,0.7,0.2
			c0.2,0.1,0.5,0.3,0.7,0.5c0.2,0.2,0.3,0.5,0.5,0.8C82.5,47.8,82.5,48.2,82.5,48.7z M80.3,48.7c0-0.1,0-0.2,0-0.3
			c0-0.1-0.1-0.2-0.1-0.2c0-0.1-0.1-0.1-0.2-0.1c-0.2,0-0.5,0-0.8,0.2s-0.6,0.4-0.9,0.7c-0.3,0.3-0.5,0.6-0.7,0.9
			c-0.2,0.3-0.3,0.7-0.4,1c0,0.1,0,0.2,0.1,0.2c0.1,0,0.4,0,0.7-0.1c0.3-0.1,0.6-0.2,0.9-0.3c0.3-0.2,0.6-0.4,0.9-0.7
			C80,49.5,80.2,49.1,80.3,48.7z"/>
		<path d="M92.5,57.2c-0.1,0.3-0.2,0.5-0.3,0.7c-0.2,0.1-0.4,0.2-0.5,0.3c-0.2,0-0.5,0.1-0.7,0c-0.5-0.1-0.8-0.3-1.1-0.7
			c-0.2-0.4-0.3-0.8-0.4-1.4c0-0.5,0-1.1,0-1.6c0.1-0.5,0.1-1,0.2-1.4l0.1-0.6c0-0.2,0-0.3-0.2-0.3c-0.3,0-0.5,0.1-0.8,0.3
			c-0.3,0.3-0.6,0.6-0.9,1c-0.3,0.4-0.6,0.8-0.9,1.3c-0.3,0.5-0.6,0.9-0.9,1.3c-0.3,0.4-0.5,0.8-0.8,1.1c-0.2,0.3-0.4,0.4-0.6,0.4
			c-0.1,0-0.2,0-0.3,0c-0.1,0-0.2,0-0.2,0c-0.3,0-0.5-0.2-0.6-0.5c-0.1-0.3-0.2-0.6-0.2-1s0-0.8,0-1.3c0.1-0.5,0.1-1,0.2-1.5
			c0.1-0.4,0.2-0.9,0.3-1.5c0.1-0.6,0.3-1.1,0.5-1.7c0.2-0.6,0.4-1.1,0.5-1.5c0.2-0.5,0.4-0.8,0.5-1c0.1-0.2,0.3-0.3,0.4-0.4
			c0.1-0.1,0.3-0.2,0.5-0.3c0.2-0.1,0.4-0.1,0.7,0c0,0,0.1,0,0.2,0c0.1,0,0.2,0.1,0.3,0.1c0.1,0.1,0.2,0.2,0.2,0.3
			c0.1,0.1,0.1,0.3,0,0.4c0,0.3-0.2,0.5-0.4,0.8c-0.2,0.4-0.4,0.8-0.6,1.2c-0.2,0.4-0.3,0.8-0.5,1.2c-0.1,0.4-0.2,0.8-0.3,1.2
			c0,0.3,0,0.4,0.1,0.4c0,0,0.1,0,0.1,0c0.1-0.1,0.3-0.4,0.7-0.8c0.3-0.4,0.8-0.8,1.3-1.2c0.5-0.4,1-0.8,1.5-1.1
			c0.5-0.3,1.1-0.4,1.6-0.3c0.6,0.1,0.9,0.4,1,0.8c0.1,0.4,0,1.1-0.1,1.9c0,0.2-0.1,0.4-0.1,0.6c-0.1,0.2-0.1,0.5-0.2,0.7
			c0,0.2-0.1,0.5-0.1,0.8c0,0.3-0.1,0.7,0,1c0,0.3,0.1,0.7,0.1,1c0.1,0.3,0.2,0.5,0.4,0.7l0.2,0.1C92.4,57,92.5,57.1,92.5,57.2z"/>
		<path d="M103,58.1c-0.1,0.6-0.2,1.2-0.4,1.8c-0.2,0.6-0.4,1.3-0.6,2c0,0.2-0.1,0.3-0.2,0.4c-0.1,0.1-0.3,0.1-0.4,0.1
			c-0.2,0-0.4,0-0.6,0c-0.4-0.1-0.7-0.2-0.8-0.5c-0.1-0.3-0.1-0.6-0.1-0.8c0.2-0.8,0.4-1.6,0.5-2.2c0.2-0.6,0.3-1.2,0.4-1.7
			c0.2-1.3,0.3-2.2,0.3-2.8c0-0.6-0.1-0.9-0.3-0.9c-0.3,0-0.6,0.1-1,0.5s-0.8,0.9-1.3,1.5c-0.4,0.6-0.8,1.2-1.2,1.8
			c-0.4,0.6-0.7,1.2-0.9,1.6c-0.1,0.2-0.2,0.4-0.3,0.5c-0.1,0.1-0.3,0.2-0.4,0.2c-0.1,0-0.3,0-0.4,0s-0.2,0-0.3,0
			c-0.2,0-0.4-0.2-0.5-0.5c-0.1-0.3-0.1-0.7-0.1-1.1c0-0.4,0-0.9,0.1-1.4c0.1-0.5,0.1-1,0.2-1.4c0.2-1.3,0.5-2.6,0.8-4
			c0.3-1.4,0.7-2.7,1-3.9c0.4-1.2,0.7-2.3,1-3.2c0.3-0.9,0.6-1.6,0.7-2c0.1-0.3,0.3-0.7,0.4-0.9c0.2-0.3,0.5-0.4,0.9-0.3
			c0.3,0.1,0.6,0.2,0.7,0.5s0.2,0.6,0.1,1.2c0,0.2-0.1,0.5-0.2,0.8s-0.2,0.6-0.4,1.1c-0.4,1.1-0.8,2.3-1.2,3.4c-0.3,1-0.6,2-0.9,3.2
			c-0.3,1.2-0.5,2.2-0.7,3.2c0,0.1,0,0.1,0,0.2c0,0.1,0,0.2,0.1,0.2c0,0,0.1-0.1,0.2-0.2c0,0,0.2-0.3,0.5-0.7
			c0.3-0.4,0.7-0.8,1.1-1.3s0.9-0.9,1.5-1.2c0.5-0.3,1-0.5,1.5-0.4c0.6,0.1,1.1,0.8,1.3,2C103.5,53.7,103.4,55.6,103,58.1z"/>
		<path d="M113.6,62.3c0,0.2-0.1,0.4-0.3,0.5c-0.1,0.1-0.3,0.2-0.5,0.2c-0.2,0-0.4,0.1-0.6,0c-0.4-0.1-0.6-0.2-0.8-0.5
			c-0.2-0.2-0.4-0.5-0.5-0.8c-0.1-0.3-0.2-0.7-0.3-1.1c0-0.1,0-0.2-0.1-0.2c0,0-0.1,0-0.1,0l-0.1,0c-0.3,0.3-0.7,0.5-1,0.7
			c-0.3,0.2-0.7,0.3-1,0.3c-0.3,0.1-0.6,0.1-0.8,0.1c-0.2,0-0.4,0-0.6-0.1c-0.6-0.1-1-0.3-1.3-0.5c-0.3-0.3-0.5-0.5-0.6-0.8
			c-0.1-0.3-0.2-0.6-0.2-0.8c0-0.3,0-0.5,0-0.6c0.1-0.4,0.2-0.8,0.4-1.1s0.4-0.7,0.7-0.9c0.3-0.3,0.6-0.5,0.9-0.8
			c0.3-0.2,0.7-0.4,1-0.6c0.8-0.4,1.7-0.7,2.7-1c0.1,0,0.1,0,0.2-0.1c0.1-0.1,0.2-0.1,0.2-0.2c0-0.2-0.1-0.4-0.5-0.5
			c-0.3-0.1-0.7-0.2-1.1-0.3c-0.2,0-0.3-0.1-0.5-0.1c-0.2,0-0.3,0-0.4,0c-0.2,0-0.3,0-0.4,0c-0.2,0-0.4-0.1-0.5-0.2
			c-0.1-0.1-0.2-0.2-0.2-0.3c0-0.1-0.1-0.2-0.1-0.3c0-0.1,0-0.2,0-0.3c0-0.1,0-0.1,0.1-0.3c0.1-0.1,0.2-0.2,0.4-0.4
			c0.2-0.1,0.4-0.2,0.8-0.3c0.3-0.1,0.8,0,1.3,0c0.4,0.1,0.8,0.2,1.3,0.3c0.5,0.2,1,0.4,1.4,0.6c0.4,0.3,0.8,0.6,1.1,0.9
			c0.3,0.3,0.4,0.7,0.3,1.2c-0.1,0.3-0.2,0.6-0.6,0.8c-0.3,0.2-0.7,0.5-1.2,0.6c-0.5,0.2-0.9,0.4-1.5,0.6c-0.5,0.2-1,0.4-1.5,0.6
			c-0.5,0.2-0.9,0.5-1.2,0.8c-0.3,0.3-0.5,0.7-0.6,1.1c0,0.1,0,0.2,0,0.4c0,0.2,0.2,0.3,0.5,0.4c0.2,0,0.4,0,0.7-0.1
			c0.3-0.1,0.5-0.2,0.8-0.3c0.2-0.2,0.5-0.3,0.7-0.5c0.2-0.2,0.3-0.4,0.4-0.7c0,0,0,0,0-0.1l0-0.2c0-0.1,0.1-0.3,0.2-0.5
			c0.1-0.2,0.2-0.3,0.4-0.4c0.2-0.1,0.3-0.2,0.5-0.3c0.2-0.1,0.4-0.1,0.6,0c0.1,0,0.2,0.1,0.3,0.1c0.1,0.1,0.1,0.2,0.1,0.4
			c0,0.6,0,1.1,0,1.6c0,0.4,0.1,0.9,0.2,1.4c0.1,0.5,0.3,0.8,0.5,1.1c0.1,0.1,0.1,0.3,0.2,0.4c0,0.1,0.1,0.2,0.1,0.4
			C113.6,62,113.6,62.2,113.6,62.3z"/>
		<path d="M130.5,63.7c0,0.3-0.1,0.5-0.3,0.6c-0.1,0.1-0.3,0.2-0.4,0.2c-0.2,0-0.4,0.1-0.6,0c-0.3-0.1-0.6-0.2-0.8-0.4
			c-0.2-0.2-0.3-0.4-0.4-0.7c-0.1-0.2-0.2-0.5-0.2-0.7c0-0.2,0-0.3,0-0.4c0-0.1,0-0.1,0-0.1c0,0-0.1,0-0.1,0c0,0,0,0-0.1,0
			c-0.4,0.5-0.9,0.9-1.3,1.2c-0.4,0.3-0.8,0.4-1.1,0.5c-0.3,0.1-0.6,0.1-0.8,0.1s-0.3,0-0.4,0c-0.5-0.1-0.9-0.3-1.2-0.7
			c-0.3-0.4-0.5-0.9-0.6-1.4c-0.1-0.5-0.2-1.1-0.2-1.7c0-0.6,0-1.2,0.1-1.7c0.1-0.5,0.2-1,0.4-1.6c0.2-0.6,0.4-1.2,0.7-1.7
			c0.3-0.5,0.6-0.9,0.9-1.2s0.7-0.4,1.2-0.4c0.1,0,0.2,0,0.3,0.1c0.1,0,0.2,0.1,0.3,0.2c0.1,0.1,0.2,0.2,0.2,0.4c0,0.1,0,0.4,0,0.6
			c0,0.2-0.1,0.4-0.2,0.7c-0.1,0.2-0.2,0.5-0.5,0.9c-0.2,0.4-0.4,0.7-0.5,1.1c-0.2,0.3-0.3,0.7-0.4,1.1c-0.1,0.4-0.2,0.8-0.3,1.2
			c-0.1,0.5-0.1,0.9,0,1.2c0.1,0.4,0.4,0.6,0.7,0.6c0.3,0,0.6-0.1,1-0.3c0.3-0.2,0.6-0.5,0.9-0.9c0.3-0.4,0.7-1.1,0.9-1.9
			c0-0.1,0.1-0.3,0.1-0.4c0-0.1,0.1-0.3,0.1-0.5s0.1-0.3,0.1-0.5c0-0.1,0.1-0.2,0.2-0.3c0.1-0.1,0.2-0.3,0.4-0.4
			c0.1-0.1,0.3-0.2,0.5-0.3c0.2-0.1,0.4-0.1,0.7,0c0.2,0,0.4,0.1,0.5,0.2c0.2,0.1,0.2,0.4,0.1,0.7c0,0.2-0.1,0.5-0.3,0.9
			c-0.1,0.4-0.3,1-0.4,1.8c-0.1,0.5-0.1,1.1-0.1,1.6c0,0.5,0.1,0.9,0.2,1.3c0.1,0.1,0.2,0.3,0.3,0.5S130.5,63.5,130.5,63.7z"/>
		<path d="M147.2,67.6c0,0.2-0.1,0.4-0.2,0.5c-0.1,0.1-0.3,0.2-0.4,0.3c-0.2,0.1-0.3,0.1-0.5,0.1c-0.2,0-0.3,0-0.4,0
			c-0.5-0.1-0.9-0.3-1.1-0.7c-0.2-0.4-0.4-0.8-0.5-1.3c-0.1-0.5-0.1-1,0-1.6c0-0.5,0.1-1.1,0.2-1.5c0.1-0.4,0.1-0.7,0.2-1
			c0.1-0.3,0.1-0.5,0.1-0.6c0.1-0.3,0.1-0.5,0-0.6c0-0.1-0.1-0.1-0.2-0.2c-0.1,0-0.2,0-0.2,0.1s-0.2,0.1-0.2,0.1
			c-0.1,0.1-0.2,0.1-0.2,0.2c-0.3,0.2-0.5,0.6-0.8,0.9c-0.3,0.4-0.6,0.8-0.9,1.1c-0.3,0.4-0.6,0.9-1,1.4c-0.2,0.2-0.4,0.5-0.6,0.7
			c-0.2,0.2-0.5,0.3-0.8,0.2c-0.4-0.1-0.7-0.3-0.8-0.7c-0.1-0.4-0.2-0.9-0.3-1.4c0-0.5,0-1,0-1.5c0-0.5,0.1-0.8,0.1-1
			c0-0.3-0.1-0.4-0.3-0.5c0,0-0.1,0-0.1,0c-0.1,0-0.1,0-0.1,0c-0.1,0-0.1,0.1-0.1,0.1c-0.4,0.3-0.8,0.7-1.2,1.2
			c-0.4,0.5-0.7,1-1,1.6c-0.3,0.6-0.7,1.2-1,1.9c-0.2,0.3-0.3,0.5-0.5,0.6c-0.2,0-0.3,0-0.5,0c-0.2,0-0.4-0.1-0.6-0.2
			c-0.1-0.1-0.2-0.3-0.3-0.4c-0.1-0.2-0.1-0.3-0.1-0.5c0-0.2,0-0.3,0-0.4c0.1-0.4,0.2-0.8,0.3-1.1c0.1-0.2,0.1-0.4,0.2-0.6
			c0.1-0.3,0.2-0.6,0.2-0.9c0.1-0.3,0.1-0.6,0.2-0.9c0.1-0.7,0.2-1.3,0.2-1.8c0-0.5,0-0.9-0.1-1.3c-0.1-0.4-0.1-0.8-0.2-1.1
			c0,0,0-0.1,0-0.1c0-0.1,0-0.2,0-0.3c0-0.1,0.1-0.2,0.2-0.4c0.1-0.1,0.2-0.3,0.3-0.4c0.1-0.1,0.3-0.2,0.4-0.3
			c0.2-0.1,0.4-0.1,0.6-0.1c0.2,0,0.4,0.2,0.6,0.4c0.2,0.2,0.4,0.6,0.4,1.2c0,0.2,0,0.5,0,0.8c0,0.3,0,0.6-0.1,1
			c0,0.4-0.1,0.9-0.2,1.5c0,0,0,0,0,0.1c0,0,0,0.1,0,0.1c0,0,0.1,0,0.1-0.1c0.1-0.1,0.3-0.3,0.5-0.7c0.3-0.3,0.6-0.6,0.9-0.9
			c0.4-0.3,0.8-0.6,1.2-0.8c0.4-0.2,0.9-0.3,1.3-0.2c0.4,0.1,0.6,0.2,0.7,0.5c0.1,0.3,0.1,0.9,0.1,1.8c0,0.4-0.1,0.7,0,1
			c0,0.2,0,0.5,0,0.7c0,0.2,0.1,0.3,0.1,0.3c0,0,0.1,0,0.2-0.1c0.2-0.1,0.4-0.4,0.6-0.7c0-0.1,0.2-0.3,0.5-0.7
			c0.3-0.4,0.6-0.8,1-1.2c0.4-0.4,0.9-0.8,1.4-1.1c0.5-0.3,1-0.4,1.5-0.3c0.3,0.1,0.6,0.2,0.8,0.4c0.2,0.2,0.3,0.5,0.4,0.7
			s0.1,0.6,0.1,0.9c0,0.3-0.1,0.7-0.1,0.9c-0.3,1.7-0.5,3-0.5,4c-0.1,1,0.1,1.8,0.6,2.3c0,0,0.1,0.1,0.1,0.1c0,0,0.1,0.1,0.1,0.2
			C147.2,67.5,147.2,67.6,147.2,67.6z"/>
		<path d="M54.5,74.1c-0.1,0.8-0.4,1.6-0.8,2.4c-0.4,0.8-0.8,1.6-1.4,2.3c-0.5,0.7-1.1,1.2-1.8,1.6c-0.7,0.4-1.3,0.5-2,0.4
			c-0.4-0.1-0.7-0.2-0.9-0.5c-0.2-0.2-0.4-0.5-0.5-0.8c-0.1-0.3-0.2-0.7-0.2-1.1c0-0.1-0.1-0.1-0.1-0.1c-0.1,0-0.2,0-0.3,0.1
			c-0.1,0.1-0.2,0.2-0.3,0.3c-0.1,0.1-0.2,0.2-0.4,0.3c-0.2,0.1-0.3,0.1-0.5,0.1c-0.2,0-0.3-0.1-0.3-0.2c-0.1-0.1-0.1-0.3-0.1-0.4
			c0-0.2,0-0.3,0-0.5c0-0.1,0-0.3,0-0.4c0.2-1,0.4-2.2,0.6-3.5c0.2-1.3,0.5-2.6,0.8-4c0.3-1.3,0.7-2.7,1-4c0.4-1.3,0.8-2.5,1.3-3.5
			c0.1-0.1,0.2-0.2,0.3-0.3c0.1-0.1,0.2-0.2,0.3-0.2c0.1-0.1,0.3-0.1,0.5,0c0.3,0,0.5,0.1,0.6,0.3c0.1,0.2,0.2,0.3,0.3,0.5
			c0,0.2,0.1,0.4,0,0.6c-0.4,1-0.8,2-1.2,3.1c-0.3,1-0.7,2.1-1,3.3c-0.3,1.2-0.6,2.5-0.9,3.9c0,0.1,0,0.1,0,0.1c0,0.1,0,0.2,0.1,0.2
			c0,0,0.1,0,0.2-0.1c1-1.2,1.9-2,2.8-2.5s1.7-0.7,2.3-0.6c0.1,0,0.2,0,0.4,0.1c0.2,0.1,0.4,0.2,0.6,0.4c0.2,0.2,0.3,0.5,0.5,0.9
			C54.6,72.8,54.6,73.4,54.5,74.1z M52.2,74.7c0.1-0.5,0.1-0.9-0.1-1c-0.1-0.1-0.2-0.2-0.3-0.2c-0.4-0.1-0.7,0.1-1.1,0.4
			c-0.4,0.3-0.8,0.7-1.1,1.1c-0.4,0.5-0.8,1-1.2,1.7c0,0.3,0,0.6,0.1,0.9c0.1,0.2,0.2,0.4,0.3,0.6c0.1,0.2,0.3,0.3,0.6,0.3
			c0.3,0,0.6-0.1,0.9-0.3c0.3-0.3,0.6-0.6,0.8-1s0.5-0.8,0.6-1.3C52,75.4,52.1,75,52.2,74.7z"/>
		<path d="M64.2,76.8c-0.2,1-0.4,1.8-0.8,2.4C63,80,62.5,80.5,62,80.9c-0.5,0.4-1.1,0.7-1.7,0.8c-0.6,0.2-1.2,0.2-1.8,0.1
			c-0.8-0.1-1.3-0.4-1.7-0.9s-0.6-0.9-0.7-1.4C56,79,56,78.4,56.1,77.7c0.1-0.5,0.2-0.9,0.4-1.3c0.2-0.4,0.3-0.7,0.5-1
			c0.2-0.3,0.5-0.7,0.7-1c0,0,0-0.1-0.1-0.1c0,0,0,0-0.1,0c-0.3-0.1-0.5-0.2-0.7-0.3c-0.2-0.2-0.2-0.3-0.2-0.5
			c0-0.3,0.2-0.5,0.4-0.7c0.2-0.2,0.6-0.4,0.9-0.5s0.8-0.2,1.2-0.3s0.9,0,1.3,0c0.4,0.1,0.8,0.2,1.2,0.4c0.5,0.2,0.9,0.5,1.3,0.8
			c0.4,0.4,0.7,0.9,1,1.5S64.4,75.9,64.2,76.8z M61.7,77.1c0.1-0.5,0.1-0.9,0-1.3c0-0.3-0.1-0.7-0.3-1c-0.2-0.3-0.4-0.5-0.8-0.5
			c-0.1,0-0.3,0-0.5,0.1c-0.2,0.1-0.4,0.3-0.6,0.5c-0.2,0.2-0.4,0.6-0.6,1c-0.2,0.4-0.3,0.9-0.4,1.4c0,0.2-0.1,0.4-0.1,0.6
			c0,0.3,0,0.5,0,0.8c0,0.3,0.1,0.5,0.3,0.8c0.2,0.2,0.4,0.4,0.8,0.4c0.4,0.1,0.7,0,1-0.3c0.3-0.3,0.5-0.6,0.7-1
			C61.4,78.2,61.6,77.6,61.7,77.1z"/>
		<path d="M80.2,85.7c0,0.2-0.1,0.4-0.2,0.5c-0.1,0.1-0.3,0.2-0.4,0.3c-0.2,0.1-0.3,0.1-0.5,0.1c-0.2,0-0.3,0-0.4,0
			c-0.5-0.1-0.9-0.3-1.1-0.7c-0.2-0.4-0.4-0.8-0.5-1.3c-0.1-0.5-0.1-1,0-1.6c0-0.5,0.1-1.1,0.2-1.5c0.1-0.4,0.1-0.7,0.2-1
			c0.1-0.3,0.1-0.5,0.1-0.6c0.1-0.3,0.1-0.5,0-0.6c0-0.1-0.1-0.1-0.2-0.2c-0.1,0-0.2,0-0.2,0.1S77,79.5,77,79.5
			c-0.1,0.1-0.2,0.1-0.2,0.2c-0.3,0.2-0.5,0.6-0.8,0.9c-0.3,0.4-0.6,0.8-0.9,1.1c-0.3,0.4-0.6,0.9-1,1.4c-0.2,0.2-0.4,0.5-0.6,0.7
			c-0.2,0.2-0.5,0.3-0.8,0.2c-0.4-0.1-0.7-0.3-0.8-0.7c-0.1-0.4-0.2-0.9-0.3-1.4c0-0.5,0-1,0-1.5c0-0.5,0.1-0.8,0.1-1
			c0-0.3-0.1-0.4-0.3-0.5c0,0-0.1,0-0.1,0s-0.1,0-0.1,0C71,79,71,79,70.9,79c-0.4,0.3-0.8,0.7-1.2,1.2s-0.7,1-1,1.6
			c-0.3,0.6-0.7,1.2-1,1.9c-0.2,0.3-0.3,0.5-0.5,0.6c-0.2,0-0.3,0-0.5,0c-0.2,0-0.4-0.1-0.6-0.2s-0.2-0.3-0.3-0.4
			c-0.1-0.2-0.1-0.3-0.1-0.5s0-0.3,0-0.4c0.1-0.4,0.2-0.8,0.3-1.1c0.1-0.2,0.1-0.4,0.2-0.6c0.1-0.3,0.2-0.6,0.2-0.9
			c0.1-0.3,0.1-0.6,0.2-0.9c0.1-0.7,0.2-1.3,0.2-1.8c0-0.5,0-0.9-0.1-1.3c-0.1-0.4-0.1-0.8-0.2-1.1c0,0,0-0.1,0-0.1
			c0-0.1,0-0.2,0-0.3c0-0.1,0.1-0.2,0.2-0.4c0.1-0.1,0.2-0.3,0.3-0.4s0.3-0.2,0.4-0.3c0.2-0.1,0.4-0.1,0.6-0.1
			c0.2,0,0.4,0.2,0.6,0.4c0.2,0.2,0.4,0.6,0.4,1.2c0,0.2,0,0.5,0,0.8c0,0.3,0,0.6-0.1,1s-0.1,0.9-0.2,1.5c0,0,0,0,0,0.1
			c0,0,0,0.1,0,0.1c0,0,0.1,0,0.1-0.1c0.1-0.1,0.2-0.3,0.5-0.7c0.3-0.3,0.6-0.6,0.9-1c0.4-0.3,0.8-0.6,1.2-0.8
			c0.4-0.2,0.9-0.3,1.3-0.2c0.4,0.1,0.6,0.2,0.7,0.5c0.1,0.3,0.1,0.9,0.1,1.8c0,0.4-0.1,0.7,0,1c0,0.2,0,0.5,0,0.7
			c0,0.2,0.1,0.3,0.1,0.3c0,0,0.1,0,0.2-0.1c0.2-0.1,0.4-0.4,0.6-0.7c0-0.1,0.2-0.3,0.5-0.7c0.3-0.4,0.6-0.8,1-1.2
			c0.4-0.4,0.9-0.8,1.4-1.1s1-0.4,1.5-0.3c0.3,0.1,0.6,0.2,0.8,0.4c0.2,0.2,0.3,0.5,0.4,0.7c0.1,0.3,0.1,0.6,0.1,0.9
			c0,0.3-0.1,0.7-0.1,1c-0.3,1.7-0.5,3-0.5,4c-0.1,1,0.1,1.8,0.6,2.3c0,0,0.1,0.1,0.1,0.1c0,0,0.1,0.1,0.1,0.2
			C80.3,85.6,80.3,85.7,80.2,85.7z"/>
		<path d="M99,80.5c-0.1,0.4-0.2,0.6-0.4,0.7c-0.2,0.1-0.4,0.1-0.6,0.1c-0.2,0-0.3-0.1-0.3-0.1c-0.1,0-0.1-0.1-0.1-0.1
			c-0.1,0.2-0.1,0.5-0.2,0.8c0,0.3-0.1,0.6-0.1,0.8c-0.1,0.5-0.2,1-0.2,1.5C97,84.7,97,85.1,97,85.5c0,0.4,0,0.8,0.1,1
			s0.2,0.5,0.3,0.7c0.1,0.1,0.2,0.2,0.2,0.3c0,0.1,0,0.2,0,0.2c0,0.2-0.1,0.4-0.3,0.5c-0.1,0.1-0.3,0.2-0.4,0.2s-0.3,0.1-0.6,0.1
			c-0.5-0.1-0.8-0.3-1-0.6c-0.2-0.3-0.4-0.6-0.4-1c-0.1-0.4-0.1-0.8,0-1.3c0-0.1,0-0.2,0-0.2c0,0-0.1,0-0.1,0l-0.1,0
			c-0.6,0.6-1.3,1.1-1.9,1.4c-0.6,0.3-1.1,0.5-1.6,0.6c-0.5,0.1-0.9,0.1-1.2,0.1s-0.5,0-0.6,0c-0.4-0.1-0.7-0.2-0.9-0.4
			c-0.2-0.2-0.4-0.5-0.5-0.7c-0.1-0.3-0.1-0.6-0.1-0.9c0-0.3,0-0.5,0.1-0.8c0.2-1,0.5-1.9,1.1-2.7c0.5-0.8,1.2-1.4,1.9-1.9
			c0.7-0.5,1.6-0.9,2.4-1.2s1.7-0.4,2.6-0.4c0,0,0,0,0.1,0c0,0,0,0,0.1,0c0,0,0,0,0-0.1c0.1-0.4,0.2-0.7,0.2-1.1
			c0.1-0.4,0.2-0.8,0.3-1.3c0.2-1,0.4-1.9,0.7-2.8c0.1-0.4,0.2-0.7,0.3-1.1c0.1-0.4,0.2-0.7,0.4-1c0.1-0.3,0.3-0.6,0.4-0.8
			c0.1-0.2,0.3-0.4,0.4-0.5c0.1-0.1,0.3-0.2,0.4-0.2c0.1-0.1,0.2-0.1,0.4-0.2c0.2,0,0.3-0.1,0.5,0c0.2,0,0.3,0.1,0.4,0.2
			c0.1,0.1,0.2,0.3,0.1,0.7c0,0.2-0.1,0.4-0.2,0.8c-0.3,0.7-0.5,1.4-0.8,2.2c-0.2,0.7-0.4,1.4-0.6,2c-0.2,0.7-0.4,1.4-0.6,2.1
			c0,0.1-0.1,0.3-0.1,0.4c0,0.1-0.1,0.3-0.1,0.5c0,0.2-0.1,0.4-0.2,0.6c0,0,0,0.1,0,0.1c0,0,0,0,0.1,0c0.2,0.1,0.5,0.3,0.7,0.5
			S99,80.2,99,80.5z M95.4,80.9c0-0.1,0-0.1-0.2-0.1c-0.5,0-1.1,0.1-1.6,0.3c-0.5,0.2-1,0.5-1.5,0.8c-0.5,0.4-0.8,0.8-1.2,1.3
			c-0.3,0.5-0.5,1-0.6,1.5c0,0.2,0,0.4,0,0.6c0,0.2,0.2,0.3,0.4,0.3c0.3,0.1,0.7,0,1.2-0.2c0.5-0.2,1-0.5,1.4-1
			c0.5-0.4,0.9-0.9,1.3-1.5C95.1,82.3,95.3,81.7,95.4,80.9z"/>
		<path d="M103.7,80.8c0,0.1-0.1,0.3-0.2,0.6c-0.1,0.3-0.2,0.6-0.4,1.1c-0.1,0.4-0.3,0.9-0.4,1.4c-0.1,0.5-0.3,1.1-0.4,1.6
			c-0.1,0.4-0.1,0.8-0.1,1.2c0,0.4,0,0.7,0,1c0,0.4,0,0.7,0,1c-0.1,0.3-0.2,0.4-0.5,0.5c-0.2,0-0.4,0.1-0.6,0
			c-0.2,0-0.3-0.1-0.5-0.2c-0.1-0.1-0.1-0.1-0.2-0.1c-0.3-0.4-0.4-1-0.4-1.8c0-0.7,0.1-1.5,0.2-2.3c0.1-0.6,0.2-1.2,0.4-1.8
			c0.1-0.6,0.3-1.1,0.4-1.6c0.2-0.5,0.3-1,0.5-1.5c0-0.1,0.1-0.2,0.2-0.2c0.1,0,0.2-0.1,0.3-0.1c0.1,0,0.3,0,0.6,0
			c0.1,0,0.2,0.1,0.4,0.1c0.1,0.1,0.3,0.1,0.4,0.2c0.1,0.1,0.2,0.2,0.3,0.4C103.7,80.4,103.7,80.6,103.7,80.8z M105.5,75.5
			c0,0.1-0.1,0.3-0.2,0.5c-0.1,0.2-0.3,0.4-0.5,0.6c-0.2,0.2-0.4,0.4-0.7,0.5c-0.3,0.1-0.6,0.2-1,0.1c-0.4-0.1-0.6-0.2-0.7-0.5
			c-0.1-0.2-0.1-0.5-0.1-0.7c0-0.2,0.1-0.4,0.3-0.7c0.1-0.2,0.3-0.4,0.6-0.6c0.2-0.2,0.5-0.3,0.8-0.4c0.3-0.1,0.6-0.1,0.9-0.1
			c0.1,0,0.3,0.1,0.5,0.2S105.6,75.1,105.5,75.5z"/>
		<path d="M113.4,91.6c0,0.2-0.1,0.4-0.3,0.5c-0.1,0.1-0.3,0.2-0.5,0.2c-0.2,0-0.4,0.1-0.6,0c-0.4-0.1-0.6-0.2-0.8-0.5
			c-0.2-0.2-0.4-0.5-0.5-0.8c-0.1-0.3-0.2-0.7-0.3-1.1c0-0.1,0-0.2-0.1-0.2c0,0-0.1,0-0.1,0l-0.1,0c-0.3,0.3-0.7,0.5-1,0.7
			c-0.3,0.2-0.7,0.3-1,0.3c-0.3,0.1-0.6,0.1-0.8,0.1s-0.4,0-0.6-0.1c-0.6-0.1-1-0.3-1.3-0.5c-0.3-0.3-0.5-0.5-0.6-0.8
			c-0.1-0.3-0.2-0.6-0.2-0.8c0-0.3,0-0.5,0-0.6c0.1-0.4,0.2-0.8,0.4-1.1c0.2-0.3,0.4-0.7,0.7-0.9c0.3-0.3,0.6-0.5,0.9-0.8
			c0.3-0.2,0.7-0.4,1-0.6c0.8-0.4,1.7-0.8,2.7-1c0.1,0,0.1,0,0.2-0.1c0.1-0.1,0.2-0.1,0.2-0.2c0-0.2-0.1-0.4-0.5-0.5
			c-0.3-0.1-0.7-0.2-1.1-0.3c-0.2,0-0.3-0.1-0.5-0.1c-0.2,0-0.3,0-0.4,0c-0.2,0-0.3,0-0.4,0c-0.2,0-0.4-0.1-0.5-0.2
			c-0.1-0.1-0.2-0.2-0.2-0.3c0-0.1-0.1-0.2-0.1-0.3c0-0.1,0-0.2,0-0.3c0-0.1,0-0.1,0.1-0.3s0.2-0.2,0.4-0.4s0.4-0.2,0.8-0.3
			c0.3-0.1,0.8,0,1.3,0c0.4,0.1,0.8,0.2,1.3,0.3c0.5,0.2,1,0.4,1.4,0.6c0.4,0.3,0.8,0.6,1.1,0.9c0.3,0.3,0.4,0.7,0.3,1.2
			c-0.1,0.3-0.2,0.6-0.6,0.8c-0.3,0.2-0.7,0.5-1.2,0.6s-0.9,0.4-1.5,0.6c-0.5,0.2-1,0.4-1.5,0.6c-0.5,0.2-0.9,0.5-1.2,0.8
			c-0.3,0.3-0.5,0.7-0.6,1.1c0,0.1,0,0.2,0,0.4s0.2,0.3,0.5,0.4c0.2,0,0.4,0,0.7-0.1c0.3-0.1,0.5-0.2,0.8-0.3
			c0.2-0.1,0.5-0.3,0.7-0.5c0.2-0.2,0.3-0.4,0.4-0.7c0,0,0,0,0-0.1l0-0.2c0-0.1,0.1-0.3,0.2-0.5s0.2-0.3,0.4-0.4
			c0.2-0.1,0.3-0.2,0.5-0.3s0.4-0.1,0.6,0c0.1,0,0.2,0.1,0.3,0.1c0.1,0.1,0.1,0.2,0.1,0.4c0,0.6,0,1.1,0,1.6c0,0.4,0.1,0.9,0.2,1.4
			c0.1,0.5,0.3,0.8,0.5,1.1c0.1,0.1,0.1,0.3,0.2,0.4c0,0.1,0.1,0.2,0.1,0.4C113.4,91.3,113.4,91.5,113.4,91.6z"/>
		<path d="M118.8,91c0,0.3-0.2,0.5-0.3,0.7c-0.2,0.2-0.4,0.3-0.6,0.5c-0.2,0.1-0.4,0.2-0.7,0.2c-0.2,0-0.4,0-0.5,0
			c-0.1,0-0.2,0-0.3-0.1c-0.1,0-0.2-0.1-0.3-0.2c-0.1-0.1-0.2-0.2-0.3-0.4c-0.1-0.2-0.1-0.4,0-0.6c0-0.2,0.1-0.4,0.2-0.6
			c0.1-0.2,0.3-0.4,0.5-0.5c0.2-0.2,0.4-0.3,0.7-0.4c0.3-0.1,0.5-0.1,0.8-0.1c0.3,0.1,0.6,0.2,0.7,0.4
			C118.8,90.2,118.8,90.6,118.8,91z M121.5,79.6c-0.1,0.9-0.4,1.9-0.7,3.1c-0.3,1.2-0.7,2.6-1.3,4.1c-0.1,0.2-0.2,0.3-0.3,0.4
			c-0.1,0.1-0.3,0.2-0.5,0.2c-0.2,0.1-0.5,0.1-0.8,0c-0.3-0.1-0.5-0.2-0.6-0.3c-0.1-0.2-0.1-0.3,0-0.4l0-0.2c0,0,0,0,0-0.1
			c0.4-1.4,0.7-2.7,0.9-3.8c0.2-1.1,0.4-2,0.5-2.8c0.1-0.6,0.2-1.2,0.2-1.7c0.1-0.5,0.1-0.8,0.1-1.1c0-0.3,0-0.6,0-0.8
			c0-0.1,0-0.2,0.1-0.3c0-0.1,0.1-0.2,0.2-0.3c0.1-0.1,0.3-0.2,0.5-0.2c0.2,0,0.4,0,0.8,0c0,0,0.1,0,0.3,0.1c0.1,0,0.3,0.1,0.4,0.2
			c0.1,0.1,0.2,0.3,0.3,0.5c0.1,0.2,0.1,0.5,0.1,0.8c0,0.2,0,0.4,0,0.7c0,0.2,0,0.5-0.1,0.8C121.6,78.8,121.6,79.2,121.5,79.6z"/>
	</g>
	<g>
		<path class="st2" d="M147.3,110.1c-1.3,1.3-2.4,2.8-3.4,4.3c-0.3,0.5-0.6,1.2-1.1,1.4c-0.5,0.2-1-0.2-1.1-0.7c0,0,0-0.1,0-0.1
			c-0.1-0.4,0.1-0.7,0.5-0.8c1.1-1.8,2.3-3.4,3.8-4.9c-2-1.3-3.8-2.7-5.5-4.3c-0.8,0.8-1.5,1.7-2.2,2.7c-0.9,1.4-1.5,2.8-2,4.4
			c-0.2,0.9-0.4,1.7-0.5,2.6c0,0.6,0.1,1.1,0.2,1.6c0.1,0.5,0.3,0.9,0.5,1.4c0.3,0.4,0.5,0.8,0.9,1.2c0.4,0.4,0.9,0.8,1.4,1.2
			c0.7,0.4,1.4,0.7,2.2,1c0.8,0.2,1.5,0.3,2.3,0.4c0.7,0,1.4-0.1,2-0.2c0.7-0.2,1.3-0.4,2-0.8c1-0.5,1.8-1.2,2.7-1.9
			c1.1-1.1,2.2-2.3,3-3.6c0.3-0.5,0.6-1.1,0.8-1.7c0-0.1,0-0.1,0-0.2c-0.9-0.3-1.8-0.7-2.7-1.1C149.7,111.4,148.5,110.8,147.3,110.1
			z"/>
		<path d="M173,111.4C173,111.4,173,111.4,173,111.4c-0.1,0-0.2-0.1-0.2-0.1c-0.1-0.1-0.2-0.2-0.3-0.3c-0.1-0.1-0.1-0.1-0.2-0.2
			c-0.6-0.8-1.7-0.1-1.4,0.8c0.1,0.2,0.1,0.3,0.1,0.5c0,0,0,0,0,0c0-0.1-0.1-0.1-0.1-0.2c-0.1-0.1-0.1-0.2-0.1-0.3
			c0-0.1,0-0.1,0-0.2c0-0.1,0-0.2,0.1-0.3c0.2-0.5-0.2-0.8-0.6-0.9c-0.4-0.1-0.9,0.1-1,0.6c-0.2,0.8,0,1.5,0.4,2.1
			c0,0-0.1,0.1-0.1,0.1c-0.5,0.3-1.1,0.4-1.6,0.6c-1.1,0.2-2.2,0.3-3.3,0.3c-2.7-0.1-5.3-0.7-7.8-1.5c-3.5-1.1-6.8-2.6-9.9-4.5
			c-2.4-1.6-4.6-3.3-6.6-5.4c-1.4-1.5-2.5-3.1-3.5-4.9c-0.7-1.3-1.2-2.7-1.6-4.1c0-0.1,0-0.1,0-0.2c0,0,0-0.1,0-0.1
			c0.4-0.3,0.8-0.6,1.3-1c0.6-0.5,0.3-1.3-0.4-1.5c-0.1,0-0.1,0-0.2,0c-1.3,0-2.4,0.8-3.6,1.1c-0.1,0-0.2,0-0.4,0.1
			c-0.8,0.1-0.9,1-0.5,1.4c-0.2,0.1-0.4,0.1-0.6,0.2c-1,0.2-0.4,1.8,0.6,1.5c0.9-0.2,1.7-0.5,2.4-0.9c1,3.7,3,6.9,5.5,9.7
			c-2.7,2.7-4.8,6.5-5.2,10.4c-0.3,3.3,1.6,6.2,4.4,7.7c3.2,1.8,7,1.5,10.1-0.4c1.5-0.9,2.8-2.2,4-3.6c1.1-1.2,2.1-2.7,2.6-4.3
			c2.1,0.7,4.3,1.3,6.5,1.6c2.9,0.5,6.5,0.6,9.1-1c0.4,0.3,0.7,0.7,1,1c0,0,0,0,0,0c0,0,0,0,0,0c0,0,0,0,0,0
			c0.5,0.5,1.5,0.3,1.4-0.6c0-0.5-0.1-1.1-0.2-1.6C173.8,113.1,174,111.7,173,111.4z M153.5,113.3c-0.2,0.6-0.5,1.1-0.8,1.7
			c-0.9,1.3-1.9,2.5-3,3.6c-0.8,0.7-1.7,1.4-2.7,1.9c-0.6,0.3-1.3,0.6-2,0.8c-0.7,0.1-1.3,0.2-2,0.2c-0.8,0-1.5-0.2-2.3-0.4
			c-0.8-0.3-1.5-0.6-2.2-1c-0.5-0.3-1-0.7-1.4-1.2c-0.3-0.4-0.6-0.8-0.9-1.2c-0.2-0.5-0.4-0.9-0.5-1.4c-0.1-0.5-0.2-1.1-0.2-1.6
			c0.1-0.9,0.2-1.8,0.5-2.6c0.5-1.6,1.2-3,2-4.4c0.6-1,1.4-1.9,2.2-2.7c1.7,1.6,3.5,3.1,5.5,4.3c-1.5,1.5-2.7,3.2-3.8,4.9
			c-0.3,0.1-0.5,0.4-0.5,0.8c0,0,0,0.1,0,0.1c0.1,0.5,0.6,0.9,1.1,0.7c0.5-0.2,0.8-0.9,1.1-1.4c1-1.5,2.1-3,3.4-4.3
			c1.2,0.7,2.4,1.3,3.6,1.9c0.9,0.4,1.8,0.8,2.7,1.1C153.6,113.2,153.6,113.2,153.5,113.3z"/>
		<path d="M162,90.7C162,90.7,162,90.8,162,90.7c0.2,0.3,0.4,0.5,0.8,0.5c0.2,0,0.4,0,0.6,0c0.5,0,1,0.1,1.6,0.2
			c0.3,0.1,0.6,0.2,0.9,0.4c0.3,0.2,0.6,0.5,0.9,0.7c0.4,0.5,0.7,1,1,1.5c0.1,0.2,0.2,0.3,0.3,0.5c0.5,0.9,2,0.4,1.5-0.6
			c-0.6-1.3-1.4-2.5-2.5-3.4c-0.4-0.3-0.8-0.5-1.2-0.6c0.1,0,0.2,0,0.4,0c0.3,0,0.6,0.1,0.9,0.1c0.2,0.1,0.3,0.1,0.5,0.2
			c0.1,0.1,0.1,0.1,0.2,0.2c0,0.1,0.1,0.1,0.1,0.2c0,0,0,0.1,0,0.1c0.5,0.9,2,0.4,1.5-0.6c-0.5-1.1-1.5-1.6-2.7-1.8
			c-1.6-0.3-3.5,0.2-4.6,1.2C161.8,89.9,161.8,90.3,162,90.7C162,90.7,162,90.7,162,90.7z"/>
		<path d="M150.4,85.2c0,0.6,0.9,1.1,1.5,0.5c1-0.9,1.8-2.4,1.8-3.8c0-0.5-0.3-0.7-0.7-0.7c-0.1-0.2-0.4-0.4-0.6-0.4
			c-0.3-0.1-0.6,0.1-0.8,0.5c-0.3,0.8-0.6,1.5-1,2.2c-0.2,0.2-0.3,0.5-0.4,0.7C149.9,84.6,150.1,85,150.4,85.2z"/>
	</g>
</g>
</svg>
