<?xml version="1.0" encoding="utf-8"?>
<!-- Generator: Adobe Illustrator 21.1.0, SVG Export Plug-In . SVG Version: 6.00 Build 0)  -->
<svg version="1.1" id="Capa_1" xmlns="http://www.w3.org/2000/svg" xmlns:xlink="http://www.w3.org/1999/xlink" x="0px" y="0px"
	 viewBox="0 0 227.5 137.5" style="enable-background:new 0 0 227.5 137.5;" xml:space="preserve">
<style type="text/css">
	.st0{fill:#F6EEDE;}
	.st1{fill:#EED7B3;}
	.st2{fill:none;}
</style>
<g>
	<path class="st0" d="M216,124.3l11.6-69l-35.1-26.1L18.2,0L0,108.3l174.2,29.2L216,124.3z M187.2,84c0.7-4.1,4.5-6.8,8.6-6.2
		c4.1,0.7,6.9,4.5,6.2,8.6c-0.7,4.1-4.6,6.9-8.7,6.2C189.3,92,186.5,88.1,187.2,84z"/>
	<path class="st1" d="M210.6,87.8c1.5-8.8-4.5-17.1-13.3-18.6c-8.8-1.5-17.1,4.5-18.6,13.3c-1.5,8.8,4.5,17.1,13.3,18.6
		C200.8,102.5,209.1,96.6,210.6,87.8L210.6,87.8z M202,86.4c-0.7,4.1-4.6,6.9-8.7,6.2c-4.1-0.7-6.8-4.6-6.2-8.6
		c0.7-4.1,4.5-6.8,8.6-6.2C200,78.4,202.7,82.3,202,86.4L202,86.4z"/>
	<g>
		<path d="M31.8,37.6c0,0-0.1,0.3-0.2,0.8c-0.1,0.5-0.3,1.1-0.5,1.8c-0.2,0.7-0.4,1.5-0.5,2.4c-0.2,0.9-0.3,1.7-0.5,2.4
			c-0.1,0.5-0.2,1-0.2,1.5c0,0.4-0.1,0.8,0,1c0,0.1,0,0.1,0,0.2c0,0.2-0.1,0.3-0.2,0.4c-0.1,0.1-0.3,0.1-0.4,0.1c-0.2,0-0.3,0-0.5,0
			c-0.4-0.1-0.7-0.2-0.9-0.4c-0.2-0.2-0.3-0.5-0.4-0.9c0-0.2,0-0.4,0-0.7c0-0.3,0-0.5,0.1-0.8c0-0.3,0.1-0.6,0.1-0.9
			c0.1-0.8,0.3-1.7,0.6-2.6c0.2-0.9,0.5-1.7,0.7-2.5c0.3-0.9,0.6-1.7,0.9-2.5c0-0.1,0.1-0.2,0.2-0.3c0.1-0.1,0.2-0.1,0.3-0.2
			c0.1,0,0.3-0.1,0.5,0c0.2,0,0.4,0.1,0.5,0.2c0.1,0.1,0.3,0.2,0.4,0.3C31.8,37.3,31.9,37.4,31.8,37.6z M33.4,33.4
			c0,0.2-0.1,0.3-0.2,0.5c-0.1,0.2-0.2,0.3-0.4,0.5c-0.2,0.1-0.4,0.3-0.6,0.3s-0.5,0.1-0.8,0.1c-0.3,0-0.5-0.2-0.7-0.4
			c-0.2-0.2-0.2-0.5-0.2-0.9c0-0.3,0.2-0.5,0.3-0.7c0.2-0.2,0.4-0.3,0.6-0.4c0.2-0.1,0.4-0.2,0.6-0.2c0.2,0,0.4,0,0.5,0
			c0.1,0,0.2,0,0.3,0.1c0.1,0,0.2,0.1,0.3,0.2c0.1,0.1,0.2,0.2,0.2,0.4C33.4,32.9,33.4,33.1,33.4,33.4z"/>
		<path d="M47.1,46.2c-0.1,0.5-0.2,0.9-0.4,1.2c-0.2,0.3-0.3,0.4-0.5,0.5c-0.2,0.1-0.3,0.2-0.5,0.1s-0.3,0-0.3,0
			c-0.2,0-0.4-0.1-0.5-0.2c-0.1-0.1-0.2-0.3-0.2-0.4c0-0.2-0.1-0.3,0-0.5c0.1-0.5,0.1-0.9,0-1.2c-0.1-0.3-0.1-0.6-0.2-0.8
			c-0.1-0.2-0.2-0.4-0.4-0.6c0,0,0,0,0,0c0,0,0,0,0,0l0,0c-0.2,0.2-0.5,0.4-0.8,0.6c-0.3,0.2-0.8,0.4-1.2,0.6
			c-0.5,0.2-1,0.3-1.7,0.4c-0.6,0.1-1.3,0-2.1-0.1c-0.6-0.2-1.2-0.4-1.6-0.8c-0.4-0.3-0.7-0.7-1-1.2c-0.3-0.5-0.3-1.2-0.2-2.1
			c0.1-0.3,0.2-0.7,0.4-1c0.1-0.3,0.3-0.6,0.6-0.9c0.2-0.3,0.6-0.7,1-1c0,0,0.1-0.1,0.1-0.1c0,0,0,0,0-0.1l0,0
			c-0.4-0.4-0.8-0.7-1-1.1c-0.2-0.4-0.4-0.7-0.5-1s-0.1-0.6-0.1-0.9c0-0.3,0-0.5,0-0.6c0.1-0.5,0.3-1.1,0.8-1.7
			c0.4-0.7,1-1.3,1.7-1.8c0.7-0.6,1.5-1,2.4-1.3c0.9-0.3,1.9-0.4,3-0.2c0.5,0.1,1,0.3,1.6,0.6s1,0.8,1.3,1.4
			c0.4,0.6,0.6,1.5,0.8,2.4c0.1,1,0.1,2.2-0.1,3.6c-0.1,0.5-0.2,1.1-0.4,1.5c-0.1,0.5-0.3,0.9-0.5,1.3c-0.2,0.4-0.3,0.8-0.5,1.1
			c0,0.1,0,0.1,0,0.1l0,0.1c0.3,0.3,0.5,0.7,0.8,1.1c0.2,0.4,0.3,0.8,0.4,1.3C47.1,45.1,47.2,45.6,47.1,46.2z M42.4,42.4
			c0-0.1,0-0.1-0.1-0.2c-0.4-0.3-0.8-0.7-1.2-1c-0.4-0.3-0.8-0.6-1.1-0.8c-0.4-0.3-0.7-0.5-1.1-0.7l0,0c0,0,0,0-0.1,0c0,0,0,0-0.1,0
			c-0.1,0-0.1,0-0.2,0.1c-0.1,0.2-0.2,0.3-0.3,0.5c-0.1,0.2-0.2,0.3-0.2,0.5c-0.1,0.2-0.1,0.4-0.2,0.7c0,0.2,0,0.5,0,0.7
			s0.1,0.4,0.2,0.6c0.1,0.2,0.3,0.4,0.5,0.5c0.2,0.2,0.5,0.3,0.9,0.3c0.4,0.1,0.8,0,1.1-0.1c0.4-0.1,0.7-0.3,0.9-0.5
			C41.9,42.9,42.2,42.7,42.4,42.4z M44.6,37.3c0.1-0.9,0.2-1.6,0.1-2.2c-0.1-0.6-0.2-1.1-0.3-1.5c-0.2-0.4-0.4-0.7-0.7-0.9
			c-0.3-0.2-0.6-0.3-0.9-0.4c-0.4-0.1-0.8,0-1.3,0.1c-0.4,0.1-0.9,0.3-1.2,0.6c-0.4,0.3-0.7,0.6-1,1c-0.3,0.4-0.4,0.8-0.5,1.2
			c-0.1,0.5,0,1,0.3,1.4c0.3,0.4,0.7,0.9,1.2,1.3c0.5,0.4,1,0.8,1.7,1.2c0.6,0.4,1.2,0.8,1.7,1.2l0.1,0c0.1,0,0.1,0,0.1-0.1
			c0.1-0.3,0.2-0.5,0.3-0.8c0.1-0.3,0.2-0.6,0.3-0.9C44.5,38.1,44.6,37.7,44.6,37.3z"/>
		<path d="M56.8,47c0,0.3-0.1,0.5-0.3,0.6c-0.1,0.1-0.3,0.2-0.4,0.2c-0.2,0-0.4,0.1-0.6,0c-0.3-0.1-0.6-0.2-0.8-0.4
			c-0.2-0.2-0.3-0.4-0.4-0.7c-0.1-0.2-0.2-0.5-0.2-0.7c0-0.2,0-0.3,0-0.4c0-0.1,0-0.1,0-0.1s-0.1,0-0.1,0c0,0,0,0-0.1,0
			c-0.4,0.5-0.8,0.9-1.2,1.1c-0.4,0.3-0.7,0.4-1,0.5c-0.3,0.1-0.6,0.1-0.8,0.1c-0.2,0-0.3,0-0.4,0c-0.5-0.1-0.8-0.3-1.1-0.7
			c-0.3-0.4-0.5-0.8-0.6-1.3c-0.1-0.5-0.2-1.1-0.2-1.6s0-1.1,0.1-1.6c0.1-0.5,0.2-1,0.4-1.6s0.4-1.1,0.7-1.6
			c0.3-0.5,0.6-0.9,0.9-1.2c0.3-0.3,0.7-0.4,1.1-0.3c0.1,0,0.2,0,0.3,0.1c0.1,0,0.2,0.1,0.3,0.2c0.1,0.1,0.1,0.2,0.2,0.3
			c0,0.1,0,0.3,0,0.6c0,0.2-0.1,0.4-0.2,0.6c-0.1,0.2-0.2,0.5-0.4,0.8c-0.2,0.3-0.4,0.7-0.5,1c-0.1,0.3-0.3,0.6-0.4,1
			c-0.1,0.4-0.2,0.7-0.3,1.1c-0.1,0.4-0.1,0.8,0,1.1c0.1,0.3,0.3,0.5,0.7,0.6c0.3,0,0.6-0.1,0.9-0.3c0.3-0.2,0.5-0.5,0.9-0.9
			c0.3-0.4,0.6-1,0.9-1.8c0-0.1,0.1-0.3,0.1-0.4c0-0.1,0.1-0.3,0.1-0.4c0-0.2,0.1-0.3,0.1-0.5c0-0.1,0.1-0.2,0.2-0.3
			c0.1-0.1,0.2-0.2,0.4-0.4c0.1-0.1,0.3-0.2,0.5-0.3c0.2-0.1,0.4-0.1,0.6,0c0.2,0,0.4,0.1,0.5,0.2c0.1,0.1,0.2,0.3,0.1,0.7
			c0,0.2-0.1,0.4-0.2,0.8c-0.1,0.4-0.3,0.9-0.4,1.7c-0.1,0.5-0.1,1-0.1,1.5c0,0.5,0.1,0.9,0.2,1.2c0.1,0.1,0.1,0.3,0.3,0.5
			C56.8,46.6,56.8,46.8,56.8,47z"/>
		<path d="M66.7,42c-0.1,0.6-0.3,1.1-0.6,1.6c-0.3,0.5-0.7,0.9-1.2,1.3c-0.5,0.4-1,0.6-1.6,0.8c-0.6,0.2-1.1,0.2-1.7,0.1
			c0,0-0.1,0-0.1,0c0,0,0,0,0,0.1c0,0.4,0,0.8,0.1,1.1c0.1,0.3,0.2,0.5,0.4,0.7c0.2,0.2,0.4,0.4,0.6,0.4c0.5,0.2,0.7,0.4,0.8,0.7
			c0.1,0.2,0.1,0.4,0.1,0.6c0,0.2-0.1,0.4-0.3,0.5c-0.1,0.1-0.3,0.2-0.4,0.2c-0.2,0-0.4,0.1-0.6,0c-0.6-0.1-1.1-0.3-1.5-0.7
			c-0.4-0.4-0.7-0.7-0.9-1.1c-0.2-0.5-0.4-1-0.5-1.5l0-0.3c0-0.1,0-0.3,0-0.4c0-0.2,0-0.3,0-0.5c0,0,0,0,0-0.1c0,0-0.1-0.1-0.1-0.1
			c-0.2-0.1-0.4-0.2-0.6-0.3c-0.1-0.1-0.2-0.3-0.3-0.5c-0.1-0.2-0.1-0.4-0.1-0.8c0-0.1,0.1-0.3,0.2-0.4c0.1-0.1,0.1-0.2,0.2-0.2
			c0.1-0.1,0.2-0.1,0.3-0.1c0,0,0.1,0,0.2,0.1s0.3,0.1,0.5,0.2c0,0,0.1,0,0.1,0c0,0,0,0,0,0c0.4-0.8,0.9-1.6,1.4-2.2
			c0.2-0.3,0.5-0.5,0.8-0.8c0.3-0.2,0.6-0.4,0.9-0.6c0.3-0.2,0.7-0.3,1-0.4c0.4-0.1,0.7-0.1,1.1,0c0.2,0,0.4,0.1,0.6,0.2
			c0.2,0.1,0.4,0.2,0.6,0.4c0.2,0.2,0.3,0.5,0.4,0.8C66.7,41.2,66.7,41.6,66.7,42z M64.6,42c0-0.1,0-0.2,0-0.3
			c0-0.1-0.1-0.2-0.1-0.2c0-0.1-0.1-0.1-0.2-0.1c-0.2,0-0.5,0-0.8,0.2c-0.3,0.2-0.6,0.4-0.8,0.7c-0.3,0.3-0.5,0.6-0.7,0.9
			c-0.2,0.3-0.3,0.6-0.4,0.9c0,0.1,0,0.1,0.1,0.2c0.1,0,0.3,0,0.6-0.1c0.3-0.1,0.6-0.2,0.9-0.3c0.3-0.2,0.6-0.4,0.9-0.7
			C64.4,42.8,64.5,42.4,64.6,42z"/>
		<path d="M80.8,40.5c0,0.2-0.1,0.3-0.2,0.4c-0.1,0.1-0.2,0.1-0.3,0.2c-0.1,0-0.3,0-0.4,0c-0.2,0-0.4-0.1-0.7-0.1
			c-0.3,0-0.6,0-0.9,0c-0.3,0-0.6,0-0.8,0.1c-0.2,0-0.4,0.1-0.4,0.1c-0.1,0.4-0.3,0.8-0.4,1.4c-0.1,0.5-0.3,1.1-0.4,1.9
			c-0.2,0.8-0.3,1.7-0.5,2.8c-0.1,0.8-0.1,1.5-0.1,2.1c0,0.6,0,1.2,0.1,1.8c0.1,0.6,0.2,1.1,0.4,1.4c0.1,0.3,0.2,0.5,0.2,0.6
			c0,0.3-0.2,0.4-0.5,0.5C75.5,54,75.3,54,75.1,54c-0.3,0-0.5-0.2-0.7-0.3c-0.1-0.1-0.2-0.2-0.2-0.2c-0.3-0.4-0.5-0.8-0.6-1.4
			c-0.1-0.6-0.2-1.2-0.2-1.8c0-0.6,0-1.3,0.1-2c0.1-0.7,0.2-1.3,0.3-2c0.1-0.5,0.2-1,0.3-1.6c0.1-0.6,0.3-1.1,0.4-1.7
			c0.2-0.6,0.3-1.2,0.5-1.8c0-0.1,0-0.1,0-0.1l-0.1,0c-0.9-0.2-1.6-0.3-1.9-0.6c-0.3-0.2-0.5-0.5-0.4-0.9c0-0.1,0-0.1,0.1-0.2
			c0-0.1,0.1-0.2,0.2-0.3c0.1-0.1,0.2-0.2,0.4-0.2c0.2-0.1,0.4-0.1,0.7,0c0.2,0,0.4,0.1,0.5,0.1c0.1,0.1,0.3,0.1,0.5,0.1
			c0.1,0,0.2,0,0.3,0c0.2,0,0.3,0,0.3-0.1c0.3-1.1,0.6-1.9,0.9-2.4c0.3-0.6,0.6-1,0.8-1.2c0.3-0.3,0.5-0.4,0.8-0.4
			c0.2,0,0.5,0,0.7,0c0.1,0,0.2,0.1,0.3,0.1c0.1,0.1,0.2,0.1,0.2,0.2c0.1,0.1,0.1,0.2,0,0.4c0,0.2-0.1,0.4-0.2,0.6
			c-0.1,0.2-0.2,0.4-0.3,0.6c-0.1,0.2-0.3,0.5-0.4,0.8c-0.2,0.3-0.3,0.8-0.5,1.3c0,0.1,0,0.1,0.1,0.1c0.1,0,0.3,0,0.6,0s0.7,0,0.9,0
			c0.4,0.1,0.6,0.2,0.8,0.3c0.2,0.1,0.3,0.3,0.4,0.4C80.8,40.2,80.8,40.4,80.8,40.5z"/>
		<path d="M86.6,45.4c-0.1,0.6-0.3,1.1-0.6,1.6c-0.3,0.5-0.7,0.9-1.2,1.3c-0.5,0.4-1,0.6-1.6,0.8c-0.6,0.2-1.1,0.2-1.7,0.1
			c0,0-0.1,0-0.1,0c0,0,0,0,0,0.1c0,0.4,0,0.8,0.1,1.1c0.1,0.3,0.2,0.5,0.4,0.7c0.2,0.2,0.4,0.4,0.6,0.4c0.5,0.2,0.7,0.4,0.8,0.7
			c0.1,0.2,0.1,0.4,0.1,0.6c0,0.2-0.1,0.4-0.3,0.5c-0.1,0.1-0.3,0.2-0.4,0.2c-0.2,0-0.4,0.1-0.6,0c-0.6-0.1-1.1-0.3-1.5-0.7
			c-0.4-0.4-0.7-0.7-0.9-1.1c-0.2-0.5-0.4-1-0.5-1.5l0-0.3c0-0.1,0-0.3,0-0.4c0-0.2,0-0.3,0-0.5c0,0,0,0,0-0.1c0,0-0.1-0.1-0.1-0.1
			c-0.2-0.1-0.4-0.2-0.6-0.3c-0.1-0.1-0.2-0.3-0.3-0.5c-0.1-0.2-0.1-0.4-0.1-0.8c0-0.1,0.1-0.3,0.2-0.4c0.1-0.1,0.1-0.2,0.2-0.2
			c0.1-0.1,0.2-0.1,0.3-0.1c0,0,0.1,0,0.2,0.1c0.1,0,0.3,0.1,0.5,0.2c0,0,0.1,0,0.1,0c0,0,0,0,0,0c0.4-0.8,0.9-1.6,1.4-2.2
			c0.2-0.3,0.5-0.5,0.8-0.8c0.3-0.2,0.6-0.4,0.9-0.6c0.3-0.2,0.7-0.3,1-0.4c0.4-0.1,0.7-0.1,1.1,0c0.2,0,0.4,0.1,0.6,0.2
			c0.2,0.1,0.4,0.2,0.6,0.4c0.2,0.2,0.3,0.5,0.4,0.8C86.7,44.5,86.7,44.9,86.6,45.4z M84.5,45.3c0-0.1,0-0.2,0-0.3
			c0-0.1-0.1-0.2-0.1-0.2c0-0.1-0.1-0.1-0.2-0.1c-0.2,0-0.5,0-0.8,0.2c-0.3,0.2-0.6,0.4-0.8,0.7c-0.3,0.3-0.5,0.6-0.7,0.9
			c-0.2,0.3-0.3,0.6-0.4,0.9c0,0.1,0,0.1,0.1,0.2c0.1,0,0.3,0,0.6-0.1c0.3-0.1,0.6-0.2,0.9-0.3c0.3-0.2,0.6-0.4,0.9-0.7
			C84.3,46.1,84.5,45.8,84.5,45.3z"/>
		<path d="M96.1,53.5c0,0.3-0.2,0.5-0.3,0.6c-0.2,0.1-0.3,0.2-0.5,0.3c-0.2,0-0.4,0.1-0.7,0c-0.5-0.1-0.8-0.3-1-0.7
			c-0.2-0.4-0.3-0.8-0.4-1.3c0-0.5,0-1,0-1.5c0.1-0.5,0.1-1,0.2-1.4l0.1-0.5c0-0.2,0-0.3-0.2-0.3c-0.2,0-0.5,0.1-0.8,0.3
			c-0.3,0.2-0.6,0.6-0.9,0.9c-0.3,0.4-0.6,0.8-0.9,1.2s-0.6,0.9-0.8,1.3c-0.3,0.4-0.5,0.7-0.7,1c-0.2,0.3-0.4,0.4-0.5,0.4
			c-0.1,0-0.2,0-0.3,0c-0.1,0-0.2,0-0.2,0c-0.3,0-0.5-0.2-0.6-0.4c-0.1-0.2-0.2-0.6-0.2-0.9c0-0.4,0-0.8,0-1.3
			c0.1-0.5,0.1-0.9,0.2-1.4c0.1-0.4,0.2-0.9,0.3-1.4c0.1-0.5,0.3-1.1,0.5-1.6c0.2-0.5,0.3-1,0.5-1.4c0.2-0.4,0.4-0.8,0.5-1
			c0.1-0.2,0.3-0.3,0.4-0.4c0.1-0.1,0.3-0.2,0.5-0.2c0.2-0.1,0.4-0.1,0.7,0c0,0,0.1,0,0.2,0c0.1,0,0.2,0.1,0.3,0.1
			c0.1,0.1,0.2,0.1,0.2,0.3c0.1,0.1,0.1,0.2,0,0.4c0,0.2-0.2,0.5-0.4,0.8c-0.2,0.4-0.4,0.8-0.6,1.2c-0.2,0.3-0.3,0.7-0.4,1.1
			c-0.1,0.4-0.2,0.8-0.3,1.1c0,0.2,0,0.4,0.1,0.4c0,0,0.1,0,0.1,0c0.1-0.1,0.3-0.3,0.6-0.7s0.7-0.8,1.2-1.2c0.5-0.4,0.9-0.7,1.4-1
			c0.5-0.3,1-0.4,1.5-0.3c0.5,0.1,0.8,0.3,0.9,0.7c0.1,0.4,0,1-0.1,1.8c0,0.2-0.1,0.4-0.1,0.6c-0.1,0.2-0.1,0.4-0.1,0.7
			c0,0.2-0.1,0.4-0.1,0.7s-0.1,0.6,0,1c0,0.3,0.1,0.6,0.1,0.9c0.1,0.3,0.2,0.5,0.4,0.7l0.1,0.1C96.1,53.3,96.1,53.4,96.1,53.5z"/>
		<path d="M106.8,53.3c-0.2,0.9-0.4,1.9-0.6,2.9c-0.2,1-0.5,2-0.8,2.9c-0.3,1-0.7,1.8-1.1,2.7c-0.4,0.8-0.8,1.6-1.3,2.2
			c-0.5,0.6-1,1.1-1.6,1.4c-0.6,0.3-1.2,0.4-1.8,0.3c-0.2,0-0.4-0.1-0.5-0.2c-0.1-0.1-0.2-0.2-0.3-0.3c-0.1-0.1-0.1-0.2-0.1-0.3
			c0-0.1,0.1-0.3,0.2-0.4c0.1-0.1,0.3-0.3,0.4-0.4c0.2-0.1,0.4-0.2,0.6-0.3c0.7-0.5,1.4-1.1,1.9-1.8s1-1.6,1.4-2.4
			c0.4-0.9,0.7-1.8,0.9-2.6c0.2-0.9,0.4-1.7,0.5-2.4c0-0.2,0.1-0.4,0.1-0.6c0-0.2,0-0.3,0.1-0.5c0-0.4,0-0.6,0-0.8
			c-0.1-0.1-0.1-0.2-0.2-0.2c-0.1,0-0.4,0.1-0.8,0.4c-0.5,0.3-1,0.6-1.6,0.9c-0.6,0.3-1.3,0.6-2,0.9c-0.7,0.3-1.3,0.3-1.9,0.2
			c-0.3-0.1-0.6-0.2-0.8-0.3c-0.2-0.2-0.3-0.4-0.4-0.6c-0.1-0.2-0.1-0.4-0.1-0.7c0-0.2,0-0.4,0.1-0.6c0.1-0.7,0.5-1.5,1-2.3
			c0.5-0.8,1.2-1.5,1.9-2.1c0.8-0.6,1.6-1.1,2.5-1.5c0.9-0.3,1.7-0.5,2.5-0.3c0.2,0,0.3,0.1,0.5,0.1c0.2,0.1,0.3,0.2,0.4,0.3
			c0.1,0.1,0.2,0.3,0.3,0.5s0.1,0.4,0,0.7c0,0.1-0.1,0.3-0.1,0.4c0,0.1-0.1,0.2-0.1,0.3c0,0.1-0.1,0.2-0.1,0.4
			c-0.1,0.2-0.1,0.3-0.2,0.6l0,0l0,0.1c0,0.1,0,0.1,0,0.1l0.1,0c0.1,0,0.2,0,0.3-0.1c0.2,0,0.4-0.1,0.5,0c0.2,0,0.3,0.1,0.3,0.2
			c0,0.1,0,0.3,0,0.7c0,0.4-0.1,0.8-0.1,1.2C106.9,52.5,106.9,52.9,106.8,53.3z M104.2,49.9c0-0.1,0-0.3,0-0.4
			c0-0.1-0.1-0.2-0.1-0.3c-0.1-0.1-0.2-0.2-0.3-0.2c-0.5-0.1-1,0-1.5,0.3c-0.5,0.3-0.9,0.6-1.3,1.1c-0.4,0.4-0.7,0.9-1,1.3
			c-0.3,0.4-0.4,0.8-0.4,1c0,0.3,0,0.4,0.2,0.4c0.3,0,0.7,0,1.1-0.2c0.5-0.2,0.9-0.4,1.4-0.7c0.5-0.3,0.9-0.7,1.2-1
			C103.9,50.6,104.1,50.2,104.2,49.9z"/>
		<path d="M116.4,58.3c0,0.2-0.1,0.4-0.3,0.5c-0.1,0.1-0.3,0.2-0.4,0.2c-0.2,0-0.4,0.1-0.6,0c-0.3-0.1-0.6-0.2-0.8-0.4
			c-0.2-0.2-0.4-0.5-0.5-0.8c-0.1-0.3-0.2-0.7-0.3-1.1c0-0.1,0-0.1-0.1-0.2c0,0-0.1,0-0.1,0l-0.1,0c-0.3,0.3-0.7,0.5-1,0.6
			c-0.3,0.1-0.6,0.2-0.9,0.3c-0.3,0.1-0.6,0.1-0.8,0.1c-0.2,0-0.4,0-0.6-0.1c-0.5-0.1-1-0.3-1.2-0.5c-0.3-0.2-0.5-0.5-0.6-0.8
			s-0.2-0.5-0.2-0.8c0-0.3,0-0.4,0-0.6c0.1-0.4,0.2-0.7,0.4-1c0.2-0.3,0.4-0.6,0.7-0.9c0.3-0.3,0.6-0.5,0.9-0.7
			c0.3-0.2,0.7-0.4,1-0.6c0.8-0.4,1.6-0.7,2.6-1c0.1,0,0.1,0,0.2-0.1c0.1-0.1,0.2-0.1,0.2-0.2c0-0.2-0.1-0.4-0.4-0.5
			c-0.3-0.1-0.7-0.2-1.1-0.3c-0.2,0-0.3-0.1-0.5-0.1c-0.2,0-0.3,0-0.4,0c-0.2,0-0.3,0-0.4,0c-0.2,0-0.4-0.1-0.5-0.2
			c-0.1-0.1-0.2-0.2-0.2-0.3c0-0.1-0.1-0.2-0.1-0.3c0-0.1,0-0.2,0-0.2c0-0.1,0-0.1,0.1-0.3c0.1-0.1,0.2-0.2,0.3-0.3
			c0.2-0.1,0.4-0.2,0.7-0.3c0.3-0.1,0.7,0,1.2,0c0.3,0.1,0.7,0.2,1.2,0.3c0.5,0.2,0.9,0.4,1.3,0.6c0.4,0.2,0.7,0.5,1,0.9
			c0.3,0.3,0.4,0.7,0.3,1.1c0,0.3-0.2,0.6-0.5,0.8c-0.3,0.2-0.7,0.4-1.1,0.6c-0.4,0.2-0.9,0.4-1.4,0.5c-0.5,0.2-1,0.4-1.4,0.6
			c-0.4,0.2-0.8,0.5-1.1,0.8c-0.3,0.3-0.5,0.7-0.6,1.1c0,0.1,0,0.2,0,0.4c0,0.2,0.2,0.3,0.4,0.3c0.2,0,0.4,0,0.7-0.1
			c0.3-0.1,0.5-0.2,0.7-0.3c0.2-0.1,0.4-0.3,0.6-0.5c0.2-0.2,0.3-0.4,0.3-0.7c0,0,0,0,0-0.1l0-0.2c0-0.1,0.1-0.3,0.2-0.4
			c0.1-0.2,0.2-0.3,0.4-0.4c0.2-0.1,0.3-0.2,0.5-0.3c0.2-0.1,0.4-0.1,0.6,0c0.1,0,0.2,0.1,0.3,0.1c0.1,0.1,0.1,0.2,0.1,0.4
			c0,0.5,0,1,0,1.5c0,0.4,0.1,0.9,0.2,1.3c0.1,0.4,0.3,0.8,0.5,1.1c0.1,0.1,0.1,0.2,0.2,0.3c0,0.1,0.1,0.2,0.1,0.3
			C116.4,58.1,116.4,58.2,116.4,58.3z"/>
		<path d="M125.4,56.7c-0.1,0.6-0.4,1-0.8,1.4c-0.4,0.4-0.9,0.6-1.5,0.8c-0.5,0.2-1.1,0.3-1.7,0.4c-0.6,0-1,0-1.4,0
			c-0.8-0.1-1.4-0.4-1.7-0.8c-0.3-0.4-0.4-0.8-0.4-1.1c0.1-0.3,0.2-0.5,0.5-0.6c0.2-0.1,0.5-0.2,0.6-0.1c0.2,0,0.4,0.1,0.7,0.3
			c0.3,0.2,0.6,0.3,1.1,0.4c0.6,0.1,1,0.1,1.3,0c0.3-0.1,0.5-0.3,0.5-0.5c0-0.2,0-0.4-0.2-0.6c-0.2-0.2-0.4-0.3-0.7-0.5
			c-0.3-0.2-0.6-0.3-1-0.5s-0.7-0.4-1-0.6c-0.3-0.2-0.5-0.5-0.7-0.7c-0.2-0.3-0.2-0.6-0.2-0.9c0.1-0.4,0.3-0.9,0.7-1.4
			c0.4-0.5,0.8-0.9,1.4-1.2c0.5-0.3,1.1-0.6,1.8-0.8c0.6-0.2,1.3-0.2,1.9-0.1c0.5,0.1,0.9,0.3,1.2,0.7c0.3,0.4,0.3,0.9,0.2,1.5
			c0,0.3-0.2,0.6-0.4,0.8c-0.2,0.2-0.5,0.3-0.9,0.3c-0.2,0-0.4-0.1-0.4-0.3c-0.1-0.1-0.1-0.3-0.1-0.4s-0.1-0.3-0.2-0.4
			c-0.1-0.1-0.2-0.2-0.5-0.3c-0.1,0-0.3,0-0.5,0c-0.2,0-0.4,0.1-0.7,0.2c-0.2,0.1-0.5,0.3-0.6,0.4c-0.2,0.2-0.3,0.4-0.4,0.6
			c0,0.2,0,0.4,0.2,0.6c0.2,0.2,0.5,0.4,0.8,0.6c0.3,0.2,0.7,0.4,1,0.5c0.4,0.2,0.7,0.4,1,0.6c0.3,0.2,0.6,0.5,0.7,0.7
			C125.4,56,125.5,56.3,125.4,56.7z"/>
		<path d="M31.8,70c0,0.3-0.1,0.5-0.3,0.6c-0.1,0.1-0.3,0.2-0.4,0.2c-0.2,0-0.4,0.1-0.6,0c-0.3-0.1-0.6-0.2-0.8-0.4
			c-0.2-0.2-0.3-0.4-0.4-0.7c-0.1-0.2-0.2-0.5-0.2-0.7c0-0.2,0-0.3,0-0.4c0-0.1,0-0.1,0-0.1c0,0-0.1,0-0.1,0c0,0,0,0-0.1,0
			c-0.4,0.5-0.8,0.9-1.2,1.1c-0.4,0.3-0.7,0.4-1,0.5c-0.3,0.1-0.6,0.1-0.8,0.1c-0.2,0-0.3,0-0.4,0c-0.5-0.1-0.8-0.3-1.1-0.7
			c-0.3-0.4-0.5-0.8-0.6-1.3c-0.1-0.5-0.2-1-0.2-1.6c0-0.6,0-1.1,0.1-1.6c0.1-0.5,0.2-1,0.4-1.6c0.2-0.6,0.4-1.1,0.7-1.6
			c0.3-0.5,0.6-0.9,0.9-1.2c0.3-0.3,0.7-0.4,1.1-0.3c0.1,0,0.2,0,0.3,0.1c0.1,0,0.2,0.1,0.3,0.2c0.1,0.1,0.1,0.2,0.2,0.3
			s0,0.3,0,0.6c0,0.2-0.1,0.4-0.2,0.6c-0.1,0.2-0.2,0.5-0.4,0.8c-0.2,0.3-0.4,0.7-0.5,1c-0.1,0.3-0.3,0.6-0.4,1
			c-0.1,0.4-0.2,0.7-0.3,1.1c-0.1,0.4-0.1,0.8,0,1.1c0.1,0.3,0.3,0.5,0.7,0.6c0.3,0,0.6-0.1,0.9-0.3c0.3-0.2,0.5-0.5,0.9-0.9
			c0.3-0.4,0.6-1,0.9-1.8c0-0.1,0.1-0.3,0.1-0.4c0-0.1,0.1-0.3,0.1-0.4c0-0.2,0.1-0.3,0.1-0.5c0-0.1,0.1-0.2,0.2-0.3
			c0.1-0.1,0.2-0.2,0.4-0.4c0.1-0.1,0.3-0.2,0.5-0.3c0.2-0.1,0.4-0.1,0.6,0c0.2,0,0.4,0.1,0.5,0.2s0.2,0.3,0.1,0.7
			c0,0.2-0.1,0.4-0.2,0.8c-0.1,0.4-0.3,0.9-0.4,1.7c-0.1,0.5-0.1,1-0.1,1.5c0,0.5,0.1,0.9,0.2,1.2c0.1,0.1,0.1,0.3,0.3,0.5
			C31.8,69.6,31.9,69.8,31.8,70z"/>
		<path d="M42.7,71.7c0,0.3-0.2,0.5-0.3,0.6c-0.2,0.1-0.3,0.2-0.5,0.3c-0.2,0-0.4,0-0.7,0c-0.5-0.1-0.8-0.3-1-0.7
			c-0.2-0.4-0.3-0.8-0.4-1.3c0-0.5,0-1,0-1.5c0.1-0.5,0.1-1,0.2-1.4l0.1-0.5c0-0.2,0-0.3-0.2-0.3c-0.2,0-0.5,0.1-0.8,0.3
			c-0.3,0.2-0.6,0.5-0.9,0.9s-0.6,0.8-0.9,1.2c-0.3,0.4-0.6,0.9-0.8,1.3c-0.3,0.4-0.5,0.7-0.7,1c-0.2,0.3-0.4,0.4-0.5,0.4
			c-0.1,0-0.2,0-0.3,0c-0.1,0-0.2,0-0.2,0c-0.3,0-0.5-0.2-0.6-0.4s-0.2-0.6-0.2-0.9c0-0.4,0-0.8,0-1.3c0-0.5,0.1-0.9,0.2-1.4
			c0.1-0.4,0.2-0.9,0.3-1.4c0.1-0.5,0.3-1.1,0.5-1.6c0.2-0.5,0.3-1,0.5-1.4c0.2-0.4,0.4-0.8,0.5-1c0.1-0.2,0.3-0.3,0.4-0.4
			c0.1-0.1,0.3-0.2,0.5-0.2c0.2-0.1,0.4-0.1,0.7,0c0,0,0.1,0,0.2,0c0.1,0,0.2,0.1,0.3,0.1c0.1,0.1,0.2,0.1,0.2,0.3
			c0.1,0.1,0.1,0.2,0,0.4c0,0.2-0.2,0.5-0.4,0.8c-0.2,0.4-0.4,0.8-0.6,1.2c-0.2,0.3-0.3,0.7-0.4,1.1c-0.1,0.4-0.2,0.8-0.3,1.1
			c0,0.2,0,0.4,0.1,0.4c0,0,0.1,0,0.1,0c0.1-0.1,0.3-0.3,0.6-0.7c0.3-0.4,0.7-0.8,1.2-1.2c0.5-0.4,0.9-0.7,1.4-1
			c0.5-0.3,1-0.4,1.5-0.3c0.5,0.1,0.8,0.3,0.9,0.7c0.1,0.4,0,1-0.1,1.8c0,0.2-0.1,0.4-0.1,0.6c-0.1,0.2-0.1,0.4-0.1,0.7
			c0,0.2-0.1,0.4-0.1,0.7c0,0.3-0.1,0.6,0,1c0,0.3,0.1,0.6,0.1,0.9c0.1,0.3,0.2,0.5,0.4,0.7l0.1,0.1C42.6,71.5,42.7,71.6,42.7,71.7z
			"/>
		<path d="M59.3,68.7c-0.1,0.7-0.4,1.5-0.7,2.3s-0.8,1.5-1.3,2.2c-0.5,0.6-1.1,1.1-1.7,1.5c-0.6,0.4-1.3,0.5-1.9,0.4
			c-0.4-0.1-0.7-0.2-0.8-0.4c-0.2-0.2-0.3-0.5-0.4-0.8c-0.1-0.3-0.2-0.7-0.2-1c0-0.1-0.1-0.1-0.1-0.1c-0.1,0-0.2,0-0.3,0.1
			c-0.1,0.1-0.2,0.2-0.3,0.3c-0.1,0.1-0.2,0.2-0.4,0.2c-0.1,0.1-0.3,0.1-0.5,0.1c-0.1,0-0.3-0.1-0.3-0.2c-0.1-0.1-0.1-0.2-0.1-0.4
			c0-0.1,0-0.3,0-0.4s0-0.3,0-0.4c0.2-1,0.4-2.1,0.6-3.3c0.2-1.2,0.5-2.5,0.8-3.8c0.3-1.3,0.6-2.5,1-3.8s0.8-2.3,1.2-3.3
			c0.1-0.1,0.2-0.2,0.3-0.3c0.1-0.1,0.2-0.1,0.3-0.2s0.3-0.1,0.5,0c0.3,0,0.5,0.1,0.6,0.3c0.1,0.1,0.2,0.3,0.3,0.5
			c0,0.2,0.1,0.4,0,0.6c-0.4,0.9-0.8,1.9-1.1,3c-0.3,0.9-0.6,2-1,3.1c-0.3,1.2-0.6,2.4-0.8,3.7c0,0.1,0,0.1,0,0.1
			c0,0.1,0,0.1,0.1,0.2c0,0,0.1,0,0.2-0.1c0.9-1.1,1.8-1.9,2.6-2.4c0.8-0.5,1.6-0.7,2.2-0.6c0.1,0,0.2,0,0.4,0.1
			c0.2,0.1,0.4,0.2,0.6,0.4c0.2,0.2,0.3,0.5,0.4,0.9C59.4,67.5,59.4,68,59.3,68.7z M57,69.3c0.1-0.5,0.1-0.8-0.1-0.9
			c-0.1-0.1-0.2-0.2-0.3-0.2c-0.3-0.1-0.7,0.1-1.1,0.4c-0.4,0.3-0.7,0.7-1.1,1.1c-0.4,0.5-0.7,1-1.1,1.6c0,0.3,0,0.6,0.1,0.8
			c0.1,0.2,0.2,0.4,0.3,0.6c0.1,0.2,0.3,0.3,0.6,0.3c0.3,0,0.6-0.1,0.9-0.3c0.3-0.2,0.6-0.6,0.8-1s0.4-0.8,0.6-1.2
			C56.8,70,57,69.6,57,69.3z"/>
		<path d="M68.8,76.2c0,0.3-0.1,0.5-0.3,0.6c-0.1,0.1-0.3,0.2-0.4,0.2c-0.2,0-0.4,0.1-0.6,0c-0.3-0.1-0.6-0.2-0.8-0.4
			c-0.2-0.2-0.3-0.4-0.4-0.7c-0.1-0.2-0.2-0.5-0.2-0.7c0-0.2,0-0.3,0-0.4c0-0.1,0-0.1,0-0.1c0,0-0.1,0-0.1,0c0,0,0,0-0.1,0
			c-0.4,0.5-0.8,0.9-1.2,1.1c-0.4,0.3-0.7,0.4-1,0.5c-0.3,0.1-0.6,0.1-0.8,0.1s-0.3,0-0.4,0c-0.5-0.1-0.8-0.3-1.1-0.7
			c-0.3-0.4-0.5-0.8-0.6-1.3c-0.1-0.5-0.2-1-0.2-1.6c0-0.6,0-1.1,0.1-1.6c0.1-0.5,0.2-1,0.4-1.6c0.2-0.6,0.4-1.1,0.7-1.6
			c0.3-0.5,0.6-0.9,0.9-1.2c0.3-0.3,0.7-0.4,1.1-0.3c0.1,0,0.2,0,0.3,0.1c0.1,0,0.2,0.1,0.3,0.2c0.1,0.1,0.1,0.2,0.2,0.3
			c0,0.1,0,0.3,0,0.6c0,0.2-0.1,0.4-0.2,0.6c-0.1,0.2-0.2,0.5-0.4,0.8c-0.2,0.3-0.4,0.7-0.5,1c-0.1,0.3-0.3,0.6-0.4,1
			c-0.1,0.4-0.2,0.7-0.3,1.1c-0.1,0.4-0.1,0.8,0,1.1c0.1,0.3,0.3,0.5,0.7,0.6c0.3,0,0.6-0.1,0.9-0.3c0.3-0.2,0.5-0.5,0.9-0.9
			c0.3-0.4,0.6-1,0.9-1.8c0-0.1,0.1-0.3,0.1-0.4c0-0.1,0.1-0.3,0.1-0.4c0-0.2,0.1-0.3,0.1-0.5c0-0.1,0.1-0.2,0.2-0.3
			c0.1-0.1,0.2-0.2,0.4-0.4c0.1-0.1,0.3-0.2,0.5-0.3c0.2-0.1,0.4-0.1,0.6,0c0.2,0,0.4,0.1,0.5,0.2c0.1,0.1,0.2,0.3,0.1,0.7
			c0,0.2-0.1,0.4-0.2,0.8c-0.1,0.4-0.3,0.9-0.4,1.7c-0.1,0.5-0.1,1-0.1,1.5c0,0.5,0.1,0.9,0.2,1.2c0.1,0.1,0.1,0.3,0.3,0.5
			C68.8,75.8,68.8,76,68.8,76.2z"/>
		<path d="M78.7,71.3c-0.1,0.6-0.3,1.1-0.6,1.6c-0.3,0.5-0.7,0.9-1.2,1.3c-0.5,0.4-1,0.6-1.6,0.8c-0.6,0.2-1.1,0.2-1.7,0.1
			c0,0-0.1,0-0.1,0c0,0,0,0,0,0.1c0,0.4,0,0.8,0.1,1.1c0.1,0.3,0.2,0.5,0.4,0.7c0.2,0.2,0.4,0.4,0.6,0.4c0.5,0.2,0.7,0.4,0.8,0.7
			c0.1,0.2,0.1,0.4,0.1,0.6c0,0.2-0.1,0.4-0.3,0.5c-0.1,0.1-0.3,0.2-0.4,0.2c-0.2,0-0.4,0.1-0.6,0c-0.6-0.1-1.1-0.3-1.5-0.7
			c-0.4-0.4-0.7-0.7-0.9-1.1c-0.2-0.5-0.4-1-0.5-1.5l0-0.3c0-0.1,0-0.3,0-0.4c0-0.2,0-0.3,0-0.5c0,0,0,0,0-0.1c0,0-0.1-0.1-0.1-0.1
			c-0.2-0.1-0.4-0.2-0.6-0.3c-0.1-0.1-0.2-0.3-0.3-0.5c-0.1-0.2-0.1-0.4-0.1-0.8c0-0.1,0.1-0.3,0.2-0.4c0.1-0.1,0.1-0.2,0.2-0.2
			c0.1-0.1,0.2-0.1,0.3-0.1c0,0,0.1,0,0.2,0.1c0.1,0,0.3,0.1,0.5,0.2c0,0,0.1,0,0.1,0c0,0,0,0,0,0c0.4-0.8,0.9-1.6,1.4-2.2
			c0.2-0.3,0.5-0.5,0.8-0.8c0.3-0.2,0.6-0.4,0.9-0.6c0.3-0.2,0.7-0.3,1-0.4c0.4-0.1,0.7-0.1,1.1,0c0.2,0,0.4,0.1,0.6,0.2
			c0.2,0.1,0.4,0.2,0.6,0.4c0.2,0.2,0.3,0.5,0.4,0.8C78.8,70.4,78.8,70.8,78.7,71.3z M76.7,71.2c0-0.1,0-0.2,0-0.3
			c0-0.1-0.1-0.2-0.1-0.2c0-0.1-0.1-0.1-0.2-0.1c-0.2,0-0.5,0-0.8,0.2c-0.3,0.2-0.6,0.4-0.8,0.7c-0.3,0.3-0.5,0.6-0.7,0.9
			c-0.2,0.3-0.3,0.6-0.4,0.9c0,0.1,0,0.1,0.1,0.2c0.1,0,0.3,0,0.6-0.1c0.3-0.1,0.6-0.2,0.9-0.3c0.3-0.2,0.6-0.4,0.9-0.7
			C76.4,72,76.6,71.6,76.7,71.2z"/>
		<path d="M88.2,79.3c0,0.3-0.2,0.5-0.3,0.6c-0.2,0.1-0.3,0.2-0.5,0.3c-0.2,0-0.4,0.1-0.7,0c-0.5-0.1-0.8-0.3-1-0.7
			c-0.2-0.4-0.3-0.8-0.4-1.3c0-0.5,0-1,0-1.5s0.1-1,0.2-1.4l0.1-0.5c0-0.2,0-0.3-0.2-0.3c-0.2,0-0.5,0.1-0.8,0.3
			c-0.3,0.2-0.6,0.5-0.9,0.9c-0.3,0.4-0.6,0.8-0.9,1.2s-0.6,0.9-0.8,1.3c-0.3,0.4-0.5,0.7-0.7,1c-0.2,0.3-0.4,0.4-0.5,0.4
			c-0.1,0-0.2,0-0.3,0c-0.1,0-0.2,0-0.2,0c-0.3,0-0.5-0.2-0.6-0.4c-0.1-0.2-0.2-0.6-0.2-0.9c0-0.4,0-0.8,0-1.3
			c0-0.5,0.1-0.9,0.2-1.4c0.1-0.4,0.2-0.9,0.3-1.4c0.1-0.5,0.3-1.1,0.5-1.6s0.3-1,0.5-1.4c0.2-0.4,0.4-0.8,0.5-1
			c0.1-0.2,0.3-0.3,0.4-0.4c0.1-0.1,0.3-0.2,0.5-0.2c0.2-0.1,0.4-0.1,0.7,0c0,0,0.1,0,0.2,0c0.1,0,0.2,0.1,0.3,0.1
			c0.1,0.1,0.2,0.1,0.2,0.3c0.1,0.1,0.1,0.2,0,0.4c0,0.2-0.2,0.5-0.4,0.8c-0.2,0.4-0.4,0.8-0.6,1.2c-0.2,0.3-0.3,0.7-0.4,1.1
			c-0.1,0.4-0.2,0.8-0.3,1.1c0,0.2,0,0.4,0.1,0.4c0,0,0.1,0,0.1,0c0.1-0.1,0.3-0.3,0.6-0.7c0.3-0.4,0.7-0.8,1.2-1.2
			c0.5-0.4,0.9-0.7,1.4-1c0.5-0.3,1-0.4,1.5-0.3c0.5,0.1,0.8,0.3,0.9,0.7c0.1,0.4,0,1-0.1,1.8c0,0.2-0.1,0.4-0.1,0.6
			c-0.1,0.2-0.1,0.4-0.1,0.7c0,0.2-0.1,0.4-0.1,0.7c0,0.3-0.1,0.6,0,1s0.1,0.6,0.1,0.9c0.1,0.3,0.2,0.5,0.4,0.7l0.1,0.1
			C88.2,79.1,88.2,79.2,88.2,79.3z"/>
		<path d="M105.7,75.5c-0.1,0.4-0.2,0.6-0.4,0.7s-0.4,0.1-0.5,0.1c-0.1,0-0.2-0.1-0.3-0.1c-0.1,0-0.1-0.1-0.1-0.1
			c-0.1,0.2-0.1,0.5-0.2,0.7c0,0.3-0.1,0.5-0.1,0.8c-0.1,0.5-0.1,1-0.2,1.4c0,0.5-0.1,0.9-0.1,1.3s0,0.7,0.1,1
			c0.1,0.3,0.2,0.5,0.3,0.6c0.1,0.1,0.2,0.2,0.2,0.3c0,0.1,0,0.2,0,0.2c0,0.2-0.1,0.4-0.3,0.5c-0.1,0.1-0.3,0.2-0.4,0.2
			c-0.1,0-0.3,0.1-0.6,0.1c-0.4-0.1-0.8-0.3-1-0.5c-0.2-0.3-0.3-0.6-0.4-0.9c-0.1-0.4-0.1-0.8,0-1.3c0-0.1,0-0.1,0-0.1
			c0,0,0,0-0.1,0l-0.1,0c-0.6,0.6-1.2,1-1.8,1.3c-0.6,0.3-1.1,0.5-1.5,0.6c-0.4,0.1-0.8,0.1-1.1,0.1s-0.5,0-0.5,0
			c-0.4-0.1-0.7-0.2-0.9-0.4c-0.2-0.2-0.3-0.4-0.4-0.7c-0.1-0.3-0.1-0.5-0.1-0.8c0-0.3,0-0.5,0.1-0.7c0.2-1,0.5-1.8,1-2.6
			c0.5-0.7,1.1-1.4,1.8-1.8c0.7-0.5,1.5-0.9,2.3-1.1s1.6-0.4,2.4-0.4c0,0,0,0,0.1,0c0,0,0,0,0.1,0c0,0,0,0,0-0.1
			c0.1-0.3,0.2-0.7,0.2-1.1c0.1-0.4,0.2-0.8,0.3-1.3c0.2-1,0.4-1.8,0.6-2.6c0.1-0.3,0.2-0.7,0.3-1c0.1-0.3,0.2-0.6,0.4-0.9
			c0.1-0.3,0.3-0.5,0.4-0.8s0.3-0.4,0.4-0.5c0.1-0.1,0.3-0.2,0.4-0.2c0.1-0.1,0.2-0.1,0.4-0.2c0.2,0,0.3-0.1,0.4,0
			c0.1,0,0.3,0.1,0.4,0.2c0.1,0.1,0.1,0.3,0.1,0.7c0,0.2-0.1,0.4-0.2,0.7c-0.3,0.7-0.5,1.3-0.7,2c-0.2,0.7-0.4,1.3-0.6,1.9
			c-0.2,0.7-0.4,1.4-0.5,2c0,0.1-0.1,0.3-0.1,0.4c0,0.1-0.1,0.3-0.1,0.5s-0.1,0.4-0.1,0.6c0,0,0,0.1,0,0.1c0,0,0,0,0.1,0
			c0.2,0.1,0.4,0.3,0.6,0.5C105.7,75,105.7,75.2,105.7,75.5z M102.3,75.9c0-0.1,0-0.1-0.1-0.1c-0.5,0-1,0.1-1.5,0.2
			c-0.5,0.2-1,0.5-1.4,0.8c-0.4,0.3-0.8,0.7-1.1,1.2c-0.3,0.5-0.5,0.9-0.6,1.4c0,0.2,0,0.4,0,0.6c0,0.2,0.2,0.3,0.4,0.3
			c0.3,0,0.7,0,1.1-0.2s0.9-0.5,1.3-0.9s0.8-0.9,1.2-1.5C102,77.2,102.2,76.6,102.3,75.9z"/>
		<path d="M110.4,75.8c0,0.1-0.1,0.3-0.2,0.6c-0.1,0.3-0.2,0.6-0.3,1s-0.2,0.8-0.4,1.3c-0.1,0.5-0.2,1-0.3,1.5
			c-0.1,0.4-0.1,0.8-0.1,1.2c0,0.4,0,0.7,0,1c0,0.3,0,0.7,0,0.9c-0.1,0.3-0.2,0.4-0.5,0.5c-0.2,0-0.4,0.1-0.6,0
			c-0.2,0-0.3-0.1-0.5-0.2c-0.1,0-0.1-0.1-0.1-0.1c-0.3-0.4-0.4-1-0.4-1.7c0-0.7,0.1-1.4,0.2-2.2c0.1-0.6,0.2-1.1,0.4-1.7
			c0.1-0.6,0.3-1,0.4-1.5c0.2-0.5,0.3-1,0.5-1.4c0-0.1,0.1-0.1,0.2-0.2c0.1,0,0.2-0.1,0.3-0.1c0.1,0,0.3,0,0.5,0
			c0.1,0,0.2,0,0.3,0.1c0.1,0.1,0.3,0.1,0.4,0.2c0.1,0.1,0.2,0.2,0.3,0.3C110.4,75.5,110.4,75.6,110.4,75.8z M113,70.7
			c0,0.1-0.1,0.2-0.1,0.2c-0.1,0.1-0.1,0.1-0.2,0.1c-0.1,0-0.1,0.1-0.2,0.1c-0.4,0.1-0.8,0.2-1.1,0.4c-0.3,0.2-0.7,0.4-1,0.5
			s-0.6,0.3-0.9,0.5c-0.3,0.1-0.5,0.2-0.8,0.1c-0.2,0-0.3-0.1-0.3-0.2c0-0.1,0-0.1,0-0.1c0.1-0.3,0.2-0.7,0.5-1.1
			c0.3-0.4,0.6-0.7,0.9-1c0.3-0.3,0.7-0.6,1-0.7c0.3-0.2,0.6-0.3,0.7-0.2c0.1,0,0.3,0.1,0.4,0.1c0.2,0.1,0.3,0.2,0.5,0.3
			s0.3,0.2,0.4,0.4C113,70.3,113.1,70.5,113,70.7z"/>
		<path d="M119.7,86.1c0,0.2-0.1,0.4-0.3,0.5c-0.1,0.1-0.3,0.2-0.4,0.2c-0.2,0-0.4,0.1-0.6,0c-0.3-0.1-0.6-0.2-0.8-0.4
			c-0.2-0.2-0.4-0.5-0.5-0.8c-0.1-0.3-0.2-0.7-0.3-1.1c0-0.1,0-0.1-0.1-0.2c0,0-0.1,0-0.1,0l-0.1,0c-0.3,0.3-0.7,0.5-1,0.6
			s-0.6,0.2-0.9,0.3c-0.3,0.1-0.6,0.1-0.8,0.1c-0.2,0-0.4,0-0.6-0.1c-0.5-0.1-1-0.3-1.2-0.5c-0.3-0.2-0.5-0.5-0.6-0.8
			c-0.1-0.3-0.2-0.5-0.2-0.8c0-0.3,0-0.4,0-0.6c0.1-0.4,0.2-0.7,0.4-1c0.2-0.3,0.4-0.6,0.7-0.9s0.6-0.5,0.9-0.7
			c0.3-0.2,0.7-0.4,1-0.6c0.8-0.4,1.6-0.7,2.6-1c0.1,0,0.1,0,0.2-0.1c0.1-0.1,0.2-0.1,0.2-0.2c0-0.2-0.1-0.4-0.4-0.5
			c-0.3-0.1-0.7-0.2-1.1-0.3c-0.2,0-0.3-0.1-0.5-0.1c-0.2,0-0.3,0-0.4,0c-0.2,0-0.3,0-0.4,0c-0.2,0-0.4-0.1-0.5-0.2
			c-0.1-0.1-0.2-0.2-0.2-0.3c0-0.1-0.1-0.2-0.1-0.3c0-0.1,0-0.2,0-0.2c0-0.1,0-0.1,0.1-0.3c0.1-0.1,0.2-0.2,0.3-0.3
			c0.2-0.1,0.4-0.2,0.7-0.3c0.3-0.1,0.7,0,1.2,0c0.3,0.1,0.7,0.2,1.2,0.3c0.5,0.2,0.9,0.4,1.3,0.6s0.7,0.5,1,0.9
			c0.3,0.3,0.4,0.7,0.3,1.1c0,0.3-0.2,0.6-0.5,0.8c-0.3,0.2-0.7,0.4-1.1,0.6c-0.4,0.2-0.9,0.4-1.4,0.5c-0.5,0.2-1,0.4-1.4,0.6
			c-0.4,0.2-0.8,0.5-1.1,0.8c-0.3,0.3-0.5,0.7-0.6,1.1c0,0.1,0,0.2,0,0.4c0,0.2,0.2,0.3,0.4,0.3c0.2,0,0.4,0,0.7-0.1
			c0.3-0.1,0.5-0.2,0.7-0.3c0.2-0.1,0.4-0.3,0.6-0.5c0.2-0.2,0.3-0.4,0.3-0.7c0,0,0,0,0-0.1l0-0.2c0-0.1,0.1-0.3,0.2-0.4
			c0.1-0.2,0.2-0.3,0.4-0.4s0.3-0.2,0.5-0.3c0.2-0.1,0.4-0.1,0.6,0c0.1,0,0.2,0.1,0.3,0.1s0.1,0.2,0.1,0.4c0,0.5,0,1,0,1.5
			c0,0.4,0.1,0.9,0.2,1.3c0.1,0.4,0.3,0.8,0.5,1.1c0.1,0.1,0.1,0.2,0.2,0.3c0,0.1,0.1,0.2,0.1,0.3C119.7,85.8,119.7,86,119.7,86.1z"
			/>
		<path d="M124.8,85.5c0,0.3-0.2,0.5-0.3,0.7c-0.2,0.2-0.4,0.3-0.6,0.4c-0.2,0.1-0.4,0.2-0.6,0.2c-0.2,0-0.4,0-0.5,0
			c-0.1,0-0.2,0-0.3-0.1c-0.1,0-0.2-0.1-0.3-0.2c-0.1-0.1-0.2-0.2-0.2-0.4c-0.1-0.2-0.1-0.4,0-0.6c0-0.2,0.1-0.3,0.2-0.5
			c0.1-0.2,0.2-0.3,0.4-0.5s0.4-0.3,0.6-0.3c0.2-0.1,0.5-0.1,0.8-0.1c0.3,0,0.5,0.2,0.7,0.4C124.8,84.8,124.8,85.1,124.8,85.5z
			 M127.4,74.7c-0.1,0.8-0.4,1.8-0.6,3c-0.3,1.2-0.7,2.5-1.3,3.9c-0.1,0.2-0.2,0.3-0.3,0.4c-0.1,0.1-0.3,0.2-0.5,0.2
			c-0.2,0.1-0.4,0.1-0.7,0s-0.5-0.2-0.5-0.3s-0.1-0.3,0-0.4l0-0.2c0,0,0,0,0-0.1c0.4-1.4,0.7-2.6,0.9-3.6c0.2-1,0.4-1.9,0.5-2.7
			c0.1-0.6,0.2-1.1,0.2-1.6s0.1-0.8,0.1-1.1c0-0.3,0-0.6,0-0.8c0-0.1,0-0.2,0.1-0.3c0-0.1,0.1-0.2,0.2-0.3c0.1-0.1,0.3-0.1,0.4-0.2
			c0.2,0,0.4,0,0.7,0c0,0,0.1,0,0.2,0.1c0.1,0,0.2,0.1,0.4,0.2c0.1,0.1,0.2,0.3,0.3,0.5c0.1,0.2,0.1,0.5,0.1,0.8c0,0.2,0,0.4,0,0.6
			c0,0.2,0,0.4-0.1,0.7C127.5,74,127.4,74.3,127.4,74.7z"/>
	</g>
	<g>
		<path class="st2" d="M147.3,110.1c-1.3,1.3-2.4,2.8-3.4,4.3c-0.3,0.5-0.6,1.2-1.1,1.4c-0.5,0.2-1-0.2-1.1-0.7c0,0,0-0.1,0-0.1
			c-0.1-0.4,0.1-0.7,0.5-0.8c1.1-1.8,2.3-3.4,3.8-4.9c-2-1.3-3.8-2.7-5.5-4.3c-0.8,0.8-1.5,1.7-2.2,2.7c-0.9,1.4-1.5,2.8-2,4.4
			c-0.2,0.9-0.4,1.7-0.5,2.6c0,0.6,0.1,1.1,0.2,1.6c0.1,0.5,0.3,0.9,0.5,1.4c0.3,0.4,0.5,0.8,0.9,1.2c0.4,0.4,0.9,0.8,1.4,1.2
			c0.7,0.4,1.4,0.7,2.2,1c0.8,0.2,1.5,0.3,2.3,0.4c0.7,0,1.4-0.1,2-0.2c0.7-0.2,1.3-0.4,2-0.8c1-0.5,1.8-1.2,2.7-1.9
			c1.1-1.1,2.2-2.3,3-3.6c0.3-0.5,0.6-1.1,0.8-1.7c0-0.1,0-0.1,0-0.2c-0.9-0.3-1.8-0.7-2.7-1.1C149.7,111.4,148.5,110.8,147.3,110.1
			z"/>
		<path d="M173,111.4C173,111.4,173,111.4,173,111.4c-0.1,0-0.2-0.1-0.2-0.1c-0.1-0.1-0.2-0.2-0.3-0.3c-0.1-0.1-0.1-0.1-0.2-0.2
			c-0.6-0.8-1.7-0.1-1.4,0.8c0.1,0.2,0.1,0.3,0.1,0.5c0,0,0,0,0,0c0-0.1-0.1-0.1-0.1-0.2c-0.1-0.1-0.1-0.2-0.1-0.3
			c0-0.1,0-0.1,0-0.2c0-0.1,0-0.2,0.1-0.3c0.2-0.5-0.2-0.8-0.6-0.9c-0.4-0.1-0.9,0.1-1,0.6c-0.2,0.8,0,1.5,0.4,2.1
			c0,0-0.1,0.1-0.1,0.1c-0.5,0.3-1.1,0.4-1.6,0.6c-1.1,0.2-2.2,0.3-3.3,0.3c-2.7-0.1-5.3-0.7-7.8-1.5c-3.5-1.1-6.8-2.6-9.9-4.5
			c-2.4-1.6-4.6-3.3-6.6-5.4c-1.4-1.5-2.5-3.1-3.5-4.9c-0.7-1.3-1.2-2.7-1.6-4.1c0-0.1,0-0.1,0-0.2c0,0,0-0.1,0-0.1
			c0.4-0.3,0.8-0.6,1.3-1c0.6-0.5,0.3-1.3-0.4-1.5c-0.1,0-0.1,0-0.2,0c-1.3,0-2.4,0.8-3.6,1.1c-0.1,0-0.2,0-0.4,0.1
			c-0.8,0.1-0.9,1-0.5,1.4c-0.2,0.1-0.4,0.1-0.6,0.2c-1,0.2-0.4,1.8,0.6,1.5c0.9-0.2,1.7-0.5,2.4-0.9c1,3.7,3,6.9,5.5,9.7
			c-2.7,2.7-4.8,6.5-5.2,10.4c-0.3,3.3,1.6,6.2,4.4,7.7c3.2,1.8,7,1.5,10.1-0.4c1.5-0.9,2.8-2.2,4-3.6c1.1-1.2,2.1-2.7,2.6-4.3
			c2.1,0.7,4.3,1.3,6.5,1.6c2.9,0.5,6.5,0.6,9.1-1c0.4,0.3,0.7,0.7,1,1c0,0,0,0,0,0c0,0,0,0,0,0c0,0,0,0,0,0
			c0.5,0.5,1.5,0.3,1.4-0.6c0-0.5-0.1-1.1-0.2-1.6C173.8,113.1,174,111.7,173,111.4z M153.5,113.3c-0.2,0.6-0.5,1.1-0.8,1.7
			c-0.9,1.3-1.9,2.5-3,3.6c-0.8,0.7-1.7,1.4-2.7,1.9c-0.6,0.3-1.3,0.6-2,0.8c-0.7,0.1-1.3,0.2-2,0.2c-0.8,0-1.5-0.2-2.3-0.4
			c-0.8-0.3-1.5-0.6-2.2-1c-0.5-0.3-1-0.7-1.4-1.2c-0.3-0.4-0.6-0.8-0.9-1.2c-0.2-0.5-0.4-0.9-0.5-1.4c-0.1-0.5-0.2-1.1-0.2-1.6
			c0.1-0.9,0.2-1.8,0.5-2.6c0.5-1.6,1.2-3,2-4.4c0.6-1,1.4-1.9,2.2-2.7c1.7,1.6,3.5,3.1,5.5,4.3c-1.5,1.5-2.7,3.2-3.8,4.9
			c-0.3,0.1-0.5,0.4-0.5,0.8c0,0,0,0.1,0,0.1c0.1,0.5,0.6,0.9,1.1,0.7c0.5-0.2,0.8-0.9,1.1-1.4c1-1.5,2.1-3,3.4-4.3
			c1.2,0.7,2.4,1.3,3.6,1.9c0.9,0.4,1.8,0.8,2.7,1.1C153.6,113.2,153.6,113.2,153.5,113.3z"/>
		<path d="M162,90.7C162,90.7,162,90.8,162,90.7c0.2,0.3,0.4,0.5,0.8,0.5c0.2,0,0.4,0,0.6,0c0.5,0,1,0.1,1.6,0.2
			c0.3,0.1,0.6,0.2,0.9,0.4c0.3,0.2,0.6,0.5,0.9,0.7c0.4,0.5,0.7,1,1,1.5c0.1,0.2,0.2,0.3,0.3,0.5c0.5,0.9,2,0.4,1.5-0.6
			c-0.6-1.3-1.4-2.5-2.5-3.4c-0.4-0.3-0.8-0.5-1.2-0.6c0.1,0,0.2,0,0.4,0c0.3,0,0.6,0.1,0.9,0.1c0.2,0.1,0.3,0.1,0.5,0.2
			c0.1,0.1,0.1,0.1,0.2,0.2c0,0.1,0.1,0.1,0.1,0.2c0,0,0,0.1,0,0.1c0.5,0.9,2,0.4,1.5-0.6c-0.5-1.1-1.5-1.6-2.7-1.8
			c-1.6-0.3-3.5,0.2-4.6,1.2C161.8,89.9,161.8,90.3,162,90.7C162,90.7,162,90.7,162,90.7z"/>
		<path d="M150.4,85.2c0,0.6,0.9,1.1,1.5,0.5c1-0.9,1.8-2.4,1.8-3.8c0-0.5-0.3-0.7-0.7-0.7c-0.1-0.2-0.4-0.4-0.6-0.4
			c-0.3-0.1-0.6,0.1-0.8,0.5c-0.3,0.8-0.6,1.5-1,2.2c-0.2,0.2-0.3,0.5-0.4,0.7C149.9,84.6,150.1,85,150.4,85.2z"/>
	</g>
</g>
</svg>
