<?xml version="1.0" encoding="UTF-8"?>
<svg width="154px" height="81px" viewBox="0 0 154 81" version="1.1" xmlns="http://www.w3.org/2000/svg" xmlns:xlink="http://www.w3.org/1999/xlink">
    <!-- Generator: Sketch 46.2 (44496) - http://www.bohemiancoding.com/sketch -->
    <title>Page 1</title>
    <desc>Created with Sketch.</desc>
    <defs></defs>
    <g id="Visual-Marcas-1280" stroke="none" stroke-width="1" fill="none" fill-rule="evenodd">
        <g id="Marcas-1280_5-ON" transform="translate(-392.000000, -990.000000)">
            <g id="linea-productos" transform="translate(0.000000, 635.000000)">
                <g id="Group-Copy-2" transform="translate(263.000000, 355.000000)">
                    <g id="Page-1" transform="translate(129.000000, 0.000000)">
                        <path d="M115.379054,67.6249057 C115.379054,69.0684992 116.549704,70.2378976 117.992046,70.2378976 L151.084517,70.2378976 C152.525607,70.2378976 153.697509,69.0684992 153.697509,67.6249057 L153.697509,52.273735 L153.691249,15.3087268 C153.691249,13.8663854 152.525607,12.7007431 151.083265,12.7007431 L117.984533,12.7007431 C116.543444,12.7007431 115.372793,13.8663854 115.372793,15.3087268 L115.372793,21.8030195 L38.7484033,21.8080276 L38.7484033,15.3087268 C38.7484033,13.8663854 37.5777528,12.7007431 36.1354114,12.7007431 L3.0416878,12.7007431 C1.60059837,12.7007431 0.428695935,13.8663854 0.428695935,15.3087268 L0.434956098,67.6249057 C0.434956098,69.0684992 1.60310244,70.2378976 3.0454439,70.2378976 L36.1391675,70.2378976 C37.5790049,70.2378976 38.7521593,69.0684992 38.7521593,67.6249057 L38.7521593,61.130613 L115.374046,61.1331171 L115.379054,67.6249057 Z" id="Fill-1" fill="#E20714"></path>
                        <path d="M140.474668,22.9368602 C140.474668,22.2632667 140.092798,22.1355593 139.633302,22.1781285 L136.21901,22.6426325 C135.544164,22.7265187 135.376392,23.1058846 135.376392,23.779478 L135.376392,51.3004049 C135.376392,52.0153154 135.755758,52.3120472 136.341709,52.3120472 L139.548164,52.3120472 C140.13662,52.3120472 140.474668,51.9752504 140.474668,51.2603398 L140.474668,22.9368602 Z M132.551807,51.5107463 C132.551807,52.0153154 132.213758,52.3132992 131.707937,52.3132992 L129.685904,52.3132992 C127.494847,52.3132992 126.525774,51.2603398 126.22779,49.8242585 L126.146408,49.8242585 C124.880603,51.5107463 122.436636,52.8178683 120.033985,52.8178683 C114.093091,52.8178683 111.394961,47.9299333 111.394961,42.448535 C111.394961,35.1592016 115.775823,31.324226 120.498489,31.324226 C122.730863,31.324226 124.840538,32.3371203 125.889741,33.7669415 L125.977384,32.6326 C126.019953,32.1668439 126.355498,31.8713642 126.863823,31.8713642 L129.809855,31.8713642 C130.359498,31.8713642 130.697546,32.1668439 130.697546,32.7978683 L130.697546,47.6770228 C130.697546,48.4345024 130.866571,48.8151203 131.45753,48.8151203 L131.791823,48.8151203 C132.297644,48.8151203 132.551807,48.9816407 132.551807,49.5312829 L132.551807,51.5107463 Z M125.596766,37.6457382 C124.754148,36.4237545 123.023839,35.4972504 121.427498,35.4972504 C118.852067,35.4972504 116.662262,37.6883073 116.662262,42.1104862 C116.662262,45.6537382 118.010701,48.6460959 121.132018,48.6460959 C123.194115,48.6460959 124.965741,47.0848114 125.596766,45.7789415 L125.596766,37.6457382 Z M107.959384,32.8391854 C107.959384,32.0829577 107.578766,31.8713642 106.905172,31.8713642 L103.914067,31.8713642 C103.240473,31.8713642 102.859855,32.1267789 102.859855,32.8391854 L102.859855,46.2847626 C101.595302,47.4228602 99.574522,48.3092992 97.9719203,48.3092992 C95.4440667,48.3092992 94.8556114,46.7054455 94.8556114,44.3879333 L94.8556114,32.8391854 C94.8556114,32.0829577 94.4749935,31.8713642 93.800148,31.8713642 L90.8491073,31.8713642 C90.1742618,31.8713642 89.7523268,32.1267789 89.7523268,32.8391854 L89.7523268,45.2743724 C89.7523268,49.8267626 91.6917252,52.8178683 96.4106358,52.8178683 C98.8571073,52.8178683 101.17462,51.9727463 103.114018,50.4152179 L103.152831,51.4681772 C103.197904,52.0153154 103.619839,52.3120472 104.166977,52.3120472 L106.862603,52.3120472 C107.706473,52.3120472 107.959384,52.0153154 107.959384,51.1313805 L107.959384,32.8391854 Z M85.5404894,47.9286813 C84.0630911,48.5183886 82.9274976,48.8564374 81.1133024,48.8564374 C77.4899203,48.8564374 75.6344081,46.0731691 75.6344081,42.027852 C75.6344081,37.8999008 77.6977577,35.326974 81.3236439,35.326974 C82.7997902,35.326974 84.1507333,35.7063398 85.368961,36.2547301 C85.9198553,36.5076407 86.2140829,36.3373642 86.3405382,35.8728602 L86.8864244,33.6016732 C87.0141317,33.0507789 87.0141317,32.7552992 86.4644894,32.5036407 C84.6966195,31.7023398 82.714652,31.324226 80.8190748,31.324226 C74.2847171,31.324226 70.3583431,35.7476569 70.3583431,42.2820146 C70.3583431,48.7712992 73.9479203,52.8166163 80.4397089,52.8166163 C82.6720829,52.8166163 84.5275951,52.4798195 86.5508797,51.5508114 C87.1819041,51.2590878 87.2219691,50.9636081 87.0567008,50.3300797 L86.4644894,48.265478 C86.3405382,47.8435431 86.0012374,47.7596569 85.5404894,47.9286813 L85.5404894,47.9286813 Z M60.1442618,52.8178683 C64.4399854,52.8178683 68.2799691,50.7119496 68.2799691,46.2847626 C68.2799691,43.5453154 66.5070911,41.8162585 64.273465,40.8910065 L60.4798065,39.332226 C58.8772049,38.6986976 58.4164569,38.1102423 58.4164569,37.1812341 C58.4164569,36.213413 59.3016439,35.2443398 61.0707659,35.2443398 C62.4154488,35.2443398 64.1883268,35.7063398 65.6219041,36.2547301 C66.042587,36.4237545 66.465774,36.3811854 66.6335463,35.8741122 L67.3484569,33.6004211 C67.4749122,33.0946 67.4749122,32.8404374 66.927774,32.5887789 C64.8631724,31.6610228 62.8411398,31.324226 60.8191073,31.324226 C57.0667659,31.324226 53.1892211,33.2223073 53.1892211,37.3502585 C53.1892211,40.218665 55.1261154,42.0704211 57.5300179,42.9556081 L60.8604244,44.221413 C62.5869772,44.8962585 63.3895301,45.5272829 63.3895301,46.7066976 C63.3895301,48.0977057 62.1224732,48.9415756 60.266961,48.9415756 C58.7945707,48.9415756 56.9390585,48.4770715 54.9583431,47.6344537 C54.453774,47.4228602 54.1157252,47.5505675 53.9479528,48.0551366 L53.1892211,50.3739008 C53.0201967,50.8371528 53.1892211,51.1313805 53.6524732,51.341722 C55.5480504,52.1843398 57.9519528,52.8178683 60.1442618,52.8178683 L60.1442618,52.8178683 Z M50.9956602,51.5107463 C50.9956602,52.0153154 50.6588634,52.3132992 50.1505382,52.3132992 L48.1297577,52.3132992 C45.9387008,52.3132992 44.9708797,51.2603398 44.6728959,49.8242585 L44.5902618,49.8242585 C43.3244569,51.5107463 40.8817415,52.8178683 38.4803431,52.8178683 C32.5369447,52.8178683 29.8413187,47.9299333 29.8413187,42.448535 C29.8413187,35.1592016 34.2234325,31.324226 38.9423431,31.324226 C41.1747171,31.324226 43.2831398,32.3371203 44.3360992,33.7669415 L44.4199854,32.6326 C44.4625545,32.1668439 44.8043593,31.8713642 45.3064244,31.8713642 L48.256213,31.8713642 C48.8020992,31.8713642 49.1439041,32.1668439 49.1439041,32.7978683 L49.1439041,47.6770228 C49.1439041,48.4345024 49.3104244,48.8151203 49.8963756,48.8151203 L50.2356764,48.8151203 C50.7427496,48.8151203 50.9956602,48.9816407 50.9956602,49.5312829 L50.9956602,51.5107463 Z M44.0418715,37.6457382 C43.1992537,36.4237545 41.4714488,35.4972504 39.8700992,35.4972504 C37.3009285,35.4972504 35.1086195,37.6883073 35.1086195,42.1104862 C35.1086195,45.6537382 36.4558065,48.6460959 39.5758715,48.6460959 C41.6404732,48.6460959 43.4095951,47.0848114 44.0418715,45.7789415 L44.0418715,37.6457382 Z M25.1612211,39.7516569 C23.0127333,41.3968276 20.2319691,42.0691691 16.7350423,42.0691691 L14.8357089,42.0691691 L14.8357089,51.3004049 C14.8357089,51.9326813 14.5840504,52.3120472 13.7840016,52.3120472 L10.412278,52.3120472 C9.73743252,52.3120472 9.4018878,52.0153154 9.4018878,51.1739496 L9.4018878,24.2865512 C9.4018878,23.4439333 9.65354634,23.1472016 10.4548472,23.1472016 L16.5647659,23.1472016 C21.0320179,23.1472016 24.3186033,23.9923236 26.3857089,26.3499008 C27.7328959,27.9111854 28.4903756,30.0584211 28.4903756,32.3346163 C28.4903756,35.6650228 27.2270748,38.1077382 25.1612211,39.7516569 L25.1612211,39.7516569 Z M17.0267659,27.3615431 L14.8357089,27.3615431 L14.8357089,37.8999008 L15.9750585,37.8999008 C18.420278,37.8999008 20.4423106,37.7283724 21.7494325,36.3386163 C22.5482293,35.4546813 23.0127333,34.1901285 23.0127333,32.5462098 C23.0127333,28.7112341 20.6514,27.3615431 17.0267659,27.3615431 L17.0267659,27.3615431 Z M144.041709,23.2348439 C144.041709,24.0937382 144.736587,24.7911203 145.600489,24.7911203 C146.45688,24.7911203 147.155514,24.0937382 147.155514,23.2348439 C147.155514,22.3759496 146.45688,21.6785675 145.600489,21.6785675 C144.736587,21.6785675 144.041709,22.3759496 144.041709,23.2348439 L144.041709,23.2348439 Z M146.84501,23.2348439 C146.84501,23.9347301 146.285351,24.5069089 145.600489,24.5069089 C144.911872,24.5069089 144.353465,23.9347301 144.353465,23.2348439 C144.353465,22.5349577 144.911872,21.9615268 145.600489,21.9615268 C146.285351,21.9615268 146.84501,22.5349577 146.84501,23.2348439 L146.84501,23.2348439 Z M145.008278,24.1425675 L145.294993,24.1425675 L145.294993,23.355039 L145.510343,23.355039 L146.032441,24.1425675 L146.375498,24.1425675 L145.857156,23.3462748 C146.110067,23.314974 146.319156,23.1785024 146.319156,22.8392016 C146.319156,22.4948927 146.113823,22.3283724 145.698148,22.3283724 L145.008278,22.3283724 L145.008278,24.1425675 Z M145.294993,22.5875431 L145.706912,22.5875431 C145.902229,22.5875431 146.037449,22.661413 146.037449,22.8266813 C146.037449,23.0182423 145.895969,23.0983724 145.614262,23.0983724 L145.294993,23.0983724 L145.294993,22.5875431 Z" id="Fill-3" fill="#FFFFFF"></path>
                        <path d="M101.872002,9.61936585 C101.872002,8.92573984 101.79062,8.2696748 101.627855,7.6461626 C101.465091,7.02265041 101.147075,6.46549593 100.672554,5.97845528 C100.319481,5.5978374 99.8925382,5.29985366 99.3904732,5.08325203 C98.8871561,4.86414634 98.3249935,4.75647154 97.7014813,4.75647154 C96.9414976,4.75647154 96.2541317,4.88292683 95.6368797,5.13458537 C95.0183756,5.38373984 94.4900179,5.73556098 94.0505545,6.19130081 C93.608587,6.64578862 93.2667821,7.19292683 93.0226358,7.82770732 C92.7772374,8.4662439 92.6570423,9.16487805 92.6570423,9.92360976 C92.6570423,10.7249106 92.7709772,11.4435772 93.0026033,12.0808618 C93.2329772,12.7181463 93.5635138,13.2627805 93.9992211,13.7172683 C94.4336764,14.1730081 94.9645382,14.5223252 95.5955626,14.7652195 C96.225335,15.0106179 96.9414976,15.132065 97.7415463,15.132065 C98.2711561,15.132065 98.8470911,15.0794797 99.4718553,14.978065 C100.095367,14.8766504 100.65753,14.7113821 101.159595,14.4810081 C101.376197,14.3871057 101.483872,14.2719187 101.483872,14.1341951 C101.483872,14.1079024 101.471351,14.0265203 101.443807,13.8900488 L101.159595,12.8533659 C101.118278,12.6893496 101.023124,12.6104715 100.875384,12.6104715 C100.834067,12.6104715 100.796506,12.6167317 100.761449,12.629252 C100.730148,12.6442764 100.692587,12.6567967 100.650018,12.6705691 C100.271904,12.820813 99.8662455,12.937252 99.4405545,13.0273984 C99.0136114,13.1150407 98.5829122,13.1576098 98.1484569,13.1576098 C97.3358878,13.1576098 96.6673024,12.9159675 96.1452049,12.4251707 C95.6231073,11.9381301 95.3213675,11.3008455 95.2399854,10.5145691 L101.200912,10.5145691 C101.458831,10.5145691 101.635367,10.4770081 101.72927,10.4031382 C101.824424,10.3267642 101.872002,10.1677561 101.872002,9.92360976 L101.872002,9.61936585 Z M95.2800504,8.90695935 C95.3213675,8.60772358 95.3989935,8.32476423 95.5154325,8.05307317 C95.6293675,7.78013008 95.7858715,7.5422439 95.9824407,7.33065041 C96.1790098,7.12030894 96.4093837,6.95378862 96.6748146,6.83108943 C96.9389935,6.70964228 97.2332211,6.64954472 97.5587496,6.64954472 C97.8717577,6.64954472 98.1421967,6.70713821 98.3725707,6.8223252 C98.6029447,6.93626016 98.7970098,7.08650407 98.9535138,7.27055285 C99.1087659,7.45334959 99.2277089,7.66869919 99.3090911,7.92035772 C99.3904732,8.17201626 99.4367984,8.42617886 99.4505707,8.68409756 L99.4505707,8.90695935 L95.2800504,8.90695935 Z M90.681335,8.39863415 C90.681335,7.30060163 90.4309285,6.41917073 89.9301154,5.75434146 C89.4280504,5.09076423 88.6067171,4.75772358 87.4686195,4.75772358 C86.9252374,4.75772358 86.3618228,4.85162602 85.7783756,5.04318699 C85.1961805,5.2322439 84.6866033,5.50518699 84.254652,5.8557561 L84.254652,0.751219512 C84.254652,0.493300813 84.138213,0.363089431 83.906587,0.363089431 L83.7763756,0.363089431 C83.7287984,0.363089431 83.6849772,0.369349593 83.6424081,0.384373984 L82.2388797,0.567170732 C82.0898878,0.59596748 81.9772049,0.638536585 81.904587,0.699886179 C81.828213,0.761235772 81.7931561,0.885186992 81.7931561,1.07674797 L81.7931561,14.5223252 C81.7931561,14.7664715 81.9008309,14.8891707 82.1186846,14.8891707 L83.866522,14.8891707 C84.0155138,14.8891707 84.1169285,14.859122 84.1720179,14.7977724 C84.2258553,14.7364228 84.254652,14.6325041 84.254652,14.4822602 L84.254652,7.89030894 C84.5651561,7.61986992 84.9507821,7.38949593 85.4127821,7.19793496 C85.8747821,7.01013008 86.3004732,6.91497561 86.6948634,6.91497561 C87.3046033,6.91497561 87.7115138,7.09401626 87.9168472,7.45334959 C88.1196764,7.81393496 88.2210911,8.27092683 88.2210911,8.82557724 L88.2210911,14.4822602 C88.2210911,14.6450244 88.2398715,14.7539512 88.2824407,14.8077886 C88.3225057,14.861626 88.4176602,14.8891707 88.566652,14.8891707 L90.3570585,14.8891707 C90.491026,14.8891707 90.5799203,14.859122 90.6212374,14.7977724 C90.6625545,14.7364228 90.681335,14.6325041 90.681335,14.4822602 L90.681335,8.39863415 Z M80.1254488,14.1955447 C80.1254488,14.1154146 80.1041642,14.0002276 80.0640992,13.8512358 L79.7999203,12.9547805 C79.7598553,12.7920163 79.6772211,12.7118862 79.555774,12.7118862 C79.5269772,12.7118862 79.4944244,12.7193984 79.4543593,12.7306667 C79.4130423,12.744439 79.3792374,12.7594634 79.3529447,12.7732358 C78.9986195,12.9222276 78.6643268,13.0349106 78.3450585,13.1075285 C78.0270423,13.1826504 77.6489285,13.2202114 77.2157252,13.2202114 C76.3342943,13.2202114 75.6719691,12.9159675 75.2325057,12.3049756 C74.7917902,11.6939837 74.5701805,10.9001951 74.5701805,9.92360976 C74.5701805,8.92073171 74.8080667,8.13195122 75.283839,7.55476423 C75.7583593,6.97882927 76.4357089,6.68960976 77.3183919,6.68960976 C77.670213,6.68960976 78.0082618,6.73343089 78.3337902,6.82357724 C78.6605707,6.91121951 78.9723268,7.01639024 79.2703106,7.1378374 C79.3792374,7.19292683 79.4543593,7.21921951 79.4944244,7.21921951 C79.6171236,7.21921951 79.6985057,7.12531707 79.7373187,6.9337561 L80.0014976,5.85450407 C80.0302943,5.77437398 80.0428146,5.69299187 80.0428146,5.61286179 C80.0428146,5.53022764 80.0240341,5.47263415 79.9827171,5.43757724 C79.9414,5.40627642 79.8813024,5.36746341 79.7999203,5.32614634 C79.364213,5.13834146 78.9184894,4.99560976 78.4564894,4.89920325 C77.9957415,4.80404878 77.5349935,4.75647154 77.0729935,4.75647154 C76.285465,4.75647154 75.5818228,4.88668293 74.9583106,5.14460163 C74.3347984,5.40252033 73.8051886,5.76185366 73.3707333,6.22134959 C72.9375301,6.68209756 72.6044894,7.24050407 72.3728634,7.88905691 C72.1437415,8.54261789 72.0285545,9.26003252 72.0285545,10.047561 C72.0285545,11.6213659 72.4454813,12.8621301 73.279335,13.7686016 C74.1131886,14.6788293 75.3176439,15.132065 76.8914488,15.132065 C77.4323268,15.132065 77.938148,15.0869919 78.4064081,15.0006016 C78.8746683,14.9129593 79.3529447,14.7539512 79.8387333,14.5223252 C80.0302943,14.4409431 80.1254488,14.3332683 80.1254488,14.1955447 L80.1254488,14.1955447 Z M70.8478878,9.61936585 C70.8478878,8.92573984 70.7652537,8.2696748 70.6024894,7.6461626 C70.4409772,7.02265041 70.122961,6.46549593 69.6484407,5.97845528 C69.2941154,5.5978374 68.8684244,5.29985366 68.3651073,5.08325203 C67.8642943,4.86414634 67.3008797,4.75647154 66.6773675,4.75647154 C65.9161317,4.75647154 65.2287659,4.88292683 64.6115138,5.13458537 C63.9955138,5.38373984 63.4671561,5.73556098 63.0264407,6.19130081 C62.5857252,6.64578862 62.2426683,7.19292683 61.9972699,7.82770732 C61.7556276,8.4662439 61.6316764,9.16487805 61.6316764,9.92360976 C61.6316764,10.7249106 61.7481154,11.4435772 61.9784894,12.0808618 C62.2076114,12.7181463 62.540652,13.2627805 62.9751073,13.7172683 C63.4083106,14.1730081 63.9416764,14.5223252 64.5727008,14.7652195 C65.2024732,15.0106179 65.9161317,15.132065 66.7186846,15.132065 C67.2482943,15.132065 67.8229772,15.0794797 68.4477415,14.978065 C69.0712537,14.8766504 69.6346683,14.7113821 70.1342293,14.4810081 C70.3508309,14.3871057 70.4610098,14.2719187 70.4610098,14.1341951 C70.4610098,14.1079024 70.4459854,14.0265203 70.4209447,13.8900488 L70.1342293,12.8533659 C70.0954163,12.6893496 70.0002618,12.6104715 69.8512699,12.6104715 C69.8099528,12.6104715 69.7723919,12.6167317 69.739839,12.629252 C69.7060341,12.6442764 69.6672211,12.6567967 69.6271561,12.6705691 C69.2465382,12.820813 68.8446358,12.937252 68.4164407,13.0273984 C67.9894976,13.1150407 67.5587984,13.1576098 67.1255951,13.1576098 C66.311774,13.1576098 65.6419366,12.9159675 65.119839,12.4251707 C64.5977415,11.9381301 64.2960016,11.3008455 64.2158715,10.5145691 L70.1767984,10.5145691 C70.4347171,10.5145691 70.6100016,10.4770081 70.7039041,10.4031382 C70.8003106,10.3267642 70.8478878,10.1677561 70.8478878,9.92360976 L70.8478878,9.61936585 Z M64.2571886,8.90695935 C64.2960016,8.60772358 64.3748797,8.32476423 64.4913187,8.05307317 C64.6052537,7.78013008 64.7605057,7.5422439 64.9583268,7.33065041 C65.1548959,7.12030894 65.3840179,6.95378862 65.6494488,6.83108943 C65.9136276,6.70964228 66.2091073,6.64954472 66.5333837,6.64954472 C66.8463919,6.64954472 67.1180829,6.70713821 67.3497089,6.8223252 C67.5775789,6.93626016 67.7728959,7.08650407 67.9294,7.27055285 C68.084652,7.45334959 68.2023431,7.66869919 68.2849772,7.92035772 C68.3651073,8.17201626 68.4126846,8.42617886 68.4277089,8.68409756 L68.4277089,8.90695935 L64.2571886,8.90695935 Z M60.6575951,14.399626 C60.6575951,14.591187 60.613774,14.7188943 60.5248797,14.7877561 C60.4359854,14.8553659 60.3182943,14.8891707 60.1680504,14.8891707 L52.9262943,14.8891707 C52.7372374,14.8891707 52.6007659,14.8516098 52.5206358,14.7764878 C52.4392537,14.7026179 52.3979366,14.5498699 52.3979366,14.3194959 L52.3979366,1.31839024 C52.3979366,0.981593496 52.5607008,0.811317073 52.8862293,0.811317073 L54.5138715,0.811317073 C54.8519203,0.811317073 55.0221967,0.986601626 55.0221967,1.34092683 L55.0221967,12.7118862 L60.1680504,12.7118862 C60.4935789,12.7118862 60.6575951,12.8683902 60.6575951,13.1801463 L60.6575951,14.399626 Z" id="Fill-19" fill="#FFFFFF"></path>
                        <path d="M107.725003,76.2815837 C107.725003,76.1188195 107.638613,76.0386894 107.465833,76.0386894 L107.351898,76.0386894 C107.274272,76.0386894 107.216678,76.0186569 107.177865,75.9810959 C107.121524,75.9134862 107.092727,75.7757626 107.092727,75.5654211 L107.092727,70.5810797 C107.092727,70.3707382 106.992564,70.2655675 106.790987,70.2655675 L105.786857,70.2655675 C105.60406,70.2655675 105.503898,70.3532098 105.485117,70.5234862 L105.45632,70.9116163 C105.273524,70.6637138 105.018109,70.4633886 104.687572,70.3081366 C104.357036,70.1553886 103.998954,70.0790146 103.618337,70.0790146 C103.21393,70.0790146 102.828304,70.1591447 102.455198,70.323161 C102.082093,70.4859252 101.751556,70.7263154 101.464841,71.0405756 C101.176873,71.3573398 100.947751,71.7517301 100.774971,72.2275024 C100.60219,72.7007707 100.5158,73.2479089 100.5158,73.8689171 C100.5158,74.3384293 100.573393,74.7879089 100.68858,75.212348 C100.803767,75.638039 100.982808,76.0136488 101.226954,76.3391772 C101.471101,76.6659577 101.777849,76.9251285 102.145946,77.1141854 C102.514044,77.3057463 102.951003,77.4034049 103.46058,77.4034049 C103.660906,77.4034049 103.863735,77.3733561 104.07032,77.3157626 C104.275654,77.2581691 104.470971,77.1855512 104.658776,77.0929008 C104.845328,77.0015024 105.018109,76.8950797 105.175865,76.7711285 C105.333621,76.6459252 105.45632,76.5169659 105.542711,76.3829984 L105.571507,76.3829984 C105.617833,76.6309008 105.73302,76.8349821 105.915816,76.9927382 C106.097361,77.1504943 106.375312,77.2306244 106.748418,77.2306244 L107.438288,77.2306244 C107.629849,77.2306244 107.725003,77.140478 107.725003,76.9564293 L107.725003,76.2815837 Z M105.354906,75.0032585 C105.297312,75.1184455 105.220938,75.2336325 105.125784,75.3475675 C105.029377,75.4640065 104.915442,75.5679252 104.780223,75.6568195 C104.647507,75.7482179 104.498515,75.8258439 104.335751,75.8884455 C104.172987,75.9497951 104.006467,75.9810959 103.833686,75.9810959 C103.564499,75.9810959 103.335377,75.9209984 103.143816,75.8008033 C102.951003,75.6818602 102.794499,75.5216 102.670548,75.3200228 C102.545345,75.1184455 102.455198,74.8855675 102.397605,74.6163805 C102.340011,74.3484455 102.311215,74.0629821 102.311215,73.7549821 C102.311215,73.3831285 102.355036,73.0550959 102.440174,72.7708846 C102.526564,72.4904293 102.643003,72.2550472 102.791995,72.0684943 C102.940987,71.8806894 103.111263,71.7392098 103.309085,71.6440553 C103.505654,71.5489008 103.713491,71.5013236 103.933849,71.5013236 C104.2118,71.5013236 104.482239,71.5701854 104.745166,71.710413 C105.008093,71.8468846 105.212174,72.0234211 105.354906,72.2337626 L105.354906,75.0032585 Z M99.1949057,67.2494211 C99.1949057,67.0591122 99.1185317,66.9639577 98.9645317,66.9639577 C98.9545154,66.9639577 98.9319789,66.9664618 98.8931659,66.9702179 C98.8556049,66.973974 98.8305642,66.976478 98.8218,66.976478 L97.7588244,67.1204618 C97.6436374,67.1392423 97.5647593,67.1768033 97.5221902,67.2293886 C97.4771171,67.281974 97.4570846,67.3746244 97.4570846,67.5085919 L97.4570846,70.7388358 C97.2567593,70.5284943 97.0000927,70.363226 96.6895886,70.2442829 C96.3778325,70.1240878 96.0598163,70.0639902 95.7342878,70.0639902 C95.2272146,70.0639902 94.7764829,70.1666569 94.3845967,70.3719902 C93.9914585,70.5785756 93.663426,70.8540228 93.4004992,71.1983317 C93.1375724,71.5438927 92.9347431,71.9432911 92.7970195,72.3965268 C92.6592959,72.8535187 92.5891821,73.3292911 92.5891821,73.826348 C92.5891821,74.3058764 92.6492797,74.7616163 92.7694748,75.1985756 C92.8871659,75.6330309 93.0724667,76.0136488 93.3216211,76.3404293 C93.5707756,76.6659577 93.8862878,76.9238764 94.2694098,77.1141854 C94.6525317,77.3057463 95.1020114,77.4034049 95.6191008,77.4034049 C95.9922065,77.4034049 96.3615561,77.3170146 96.7246455,77.1479902 C97.088987,76.9802179 97.3694423,76.7773886 97.5722715,76.5457626 L97.6010683,76.9338927 C97.6198488,77.1267057 97.7350358,77.2206081 97.9441252,77.2206081 L98.8793935,77.2206081 C98.9645317,77.2206081 99.0396537,77.1930634 99.1010033,77.1354699 C99.1636049,77.0778764 99.1949057,76.986478 99.1949057,76.8612748 L99.1949057,67.2494211 Z M97.4570846,75.2649333 C97.3143528,75.446478 97.1002553,75.6117463 96.818548,75.7582341 C96.5343366,75.905974 96.2601415,75.9810959 95.9922065,75.9810959 C95.704239,75.9810959 95.4588407,75.9184943 95.2535073,75.7932911 C95.046922,75.6718439 94.8816537,75.5028195 94.7577024,75.292478 C94.6337512,75.0833886 94.5423528,74.8429984 94.4847593,74.5713073 C94.4271659,74.2983642 94.3971171,74.0141528 94.3971171,73.7186732 C94.3971171,73.4231935 94.432174,73.1389821 94.4997837,72.866039 C94.5661415,72.5956 94.6663041,72.3539577 94.8002715,72.1436163 C94.934239,71.9345268 95.1095236,71.7680065 95.3248732,71.6428033 C95.5402228,71.518852 95.7918813,71.4575024 96.0785967,71.4575024 C96.356548,71.4575024 96.6194748,71.5251122 96.8686293,71.6640878 C97.1177837,71.8030634 97.3143528,71.9683317 97.4570846,72.1586407 L97.4570846,75.2649333 Z M91.7565805,76.2815837 C91.7565805,76.1188195 91.6701902,76.0386894 91.4986618,76.0386894 L91.3834748,76.0386894 C91.3071008,76.0386894 91.2495073,76.0186569 91.2106943,75.9810959 C91.1531008,75.9134862 91.1243041,75.7757626 91.1243041,75.5654211 L91.1243041,70.5810797 C91.1243041,70.3707382 91.0241415,70.2655675 90.8225642,70.2655675 L89.8184341,70.2655675 C89.6356374,70.2655675 89.5354748,70.3532098 89.5166943,70.5234862 L89.4878976,70.9116163 C89.3063528,70.6637138 89.0496862,70.4633886 88.7191496,70.3081366 C88.389865,70.1553886 88.0317837,70.0790146 87.6499138,70.0790146 C87.2480114,70.0790146 86.8598813,70.1591447 86.4867756,70.323161 C86.1136699,70.4859252 85.7831333,70.7263154 85.4964179,71.0405756 C85.2084504,71.3573398 84.9793285,71.7517301 84.8052959,72.2275024 C84.6350195,72.7007707 84.5473772,73.2479089 84.5473772,73.8689171 C84.5473772,74.3384293 84.6062228,74.7879089 84.7201577,75.212348 C84.8353447,75.638039 85.0143854,76.0136488 85.2597837,76.3391772 C85.502678,76.6659577 85.809426,76.9251285 86.1775236,77.1141854 C86.5456211,77.3057463 86.9838325,77.4034049 87.4921577,77.4034049 C87.6924829,77.4034049 87.8965642,77.3733561 88.1018976,77.3157626 C88.3072309,77.2581691 88.502548,77.1855512 88.6903528,77.0929008 C88.8781577,77.0015024 89.0496862,76.8950797 89.2074423,76.7711285 C89.3664504,76.6459252 89.4878976,76.5169659 89.5742878,76.3829984 L89.6030846,76.3829984 C89.6494098,76.6309008 89.7645967,76.8349821 89.9473935,76.9927382 C90.1289382,77.1504943 90.4068894,77.2306244 90.7799951,77.2306244 L91.469865,77.2306244 C91.661426,77.2306244 91.7565805,77.140478 91.7565805,76.9564293 L91.7565805,76.2815837 Z M89.387735,75.0032585 C89.3301415,75.1184455 89.2537675,75.2336325 89.157361,75.3475675 C89.0622065,75.4640065 88.9457675,75.5679252 88.813052,75.6568195 C88.6790846,75.7482179 88.5300927,75.8258439 88.3673285,75.8884455 C88.2045642,75.9497951 88.0380439,75.9810959 87.8652634,75.9810959 C87.5973285,75.9810959 87.3669545,75.9209984 87.1766455,75.8008033 C86.9838325,75.6818602 86.8260764,75.5216 86.7021252,75.3200228 C86.578174,75.1184455 86.4867756,74.8855675 86.4291821,74.6163805 C86.3715886,74.3484455 86.3427919,74.0629821 86.3427919,73.7549821 C86.3427919,73.3831285 86.386613,73.0550959 86.4704992,72.7708846 C86.5581415,72.4904293 86.6758325,72.2550472 86.8248244,72.0684943 C86.9725642,71.8806894 87.1453447,71.7392098 87.3406618,71.6440553 C87.5372309,71.5489008 87.7450683,71.5013236 87.965426,71.5013236 C88.2421252,71.5013236 88.5125642,71.5701854 88.7767431,71.710413 C89.0396699,71.8468846 89.2437512,72.0234211 89.387735,72.2337626 L89.387735,75.0032585 Z M83.7298,75.176039 C83.7298,74.7065268 83.5970846,74.3259089 83.3354098,74.0266732 C83.0712309,73.7299415 82.7482065,73.5008195 82.3650846,73.3380553 L81.072987,72.8071935 C80.7950358,72.7032748 80.6084829,72.594348 80.5133285,72.4841691 C80.4156699,72.3727382 80.3693447,72.2387707 80.3693447,72.0747545 C80.3693447,71.9119902 80.4432146,71.7617463 80.5922065,71.6215187 C80.7411984,71.4837951 80.9678163,71.4136813 81.2745642,71.4136813 C81.5036862,71.4136813 81.7603528,71.4474862 82.0420602,71.5138439 C82.3250195,71.5814537 82.5854423,71.6640878 82.8245805,71.7592423 C82.882174,71.7780228 82.9310033,71.786787 82.9685642,71.786787 C83.073735,71.786787 83.1413447,71.7342016 83.1701415,71.6290309 L83.4142878,70.8540228 C83.4330683,70.7776488 83.4418325,70.7288195 83.4418325,70.7112911 C83.4418325,70.632413 83.3854911,70.5673073 83.2703041,70.5097138 C82.9059626,70.3469496 82.5541415,70.2330146 82.2148407,70.171665 C81.8755398,70.1090634 81.5324829,70.0777626 81.186922,70.0777626 C80.8726618,70.0777626 80.5584016,70.1190797 80.2466455,70.2017138 C79.9361415,70.2818439 79.6594423,70.4070472 79.4152959,70.5735675 C79.1686455,70.7413398 78.9708244,70.9541854 78.8193285,71.2121041 C78.6653285,71.4700228 78.5889545,71.7780228 78.5889545,72.132348 C78.5889545,72.6193886 78.7329382,73.0225431 79.0196537,73.3380553 C79.3076211,73.6535675 79.6569382,73.8902016 80.0676049,74.0416976 L81.2006943,74.4736488 C81.498678,74.5875837 81.7165317,74.7065268 81.8555073,74.8317301 C81.9944829,74.9556813 82.0645967,75.1184455 82.0645967,75.3187707 C82.0645967,75.559161 81.9656862,75.7457138 81.7691171,75.8796813 C81.5738,76.0136488 81.3171333,76.0812585 81.0016211,76.0812585 C80.7524667,76.0812585 80.4670033,76.0411935 80.1464829,75.9585593 C79.8259626,75.8784293 79.5079463,75.7707545 79.1911821,75.635535 C79.1436049,75.6167545 79.0910195,75.6067382 79.034678,75.6067382 C78.9382715,75.6067382 78.8706618,75.674348 78.8331008,75.8083154 L78.6027268,76.5395024 C78.5839463,76.5970959 78.5751821,76.6409171 78.5751821,76.6709659 C78.5751821,76.7761366 78.6315236,76.8512585 78.7454585,76.8988358 C79.072239,77.0415675 79.4278163,77.1617626 79.8171984,77.2581691 C80.2040764,77.3533236 80.5846943,77.4034049 80.9578,77.4034049 C81.3221415,77.4034049 81.6702065,77.3558276 82.0070033,77.2644293 C82.3412959,77.1742829 82.6355236,77.0378114 82.8896862,76.8562667 C83.1425967,76.674722 83.346678,76.4418439 83.499426,76.1588846 C83.650922,75.8784293 83.7298,75.5491447 83.7298,75.176039 L83.7298,75.176039 Z M77.2818325,68.4413561 C77.2818325,68.1558927 77.1816699,67.9317789 76.9876049,67.7740228 C76.7910358,67.6162667 76.568174,67.5386407 76.3202715,67.5386407 C76.0711171,67.5386407 75.8457512,67.6187707 75.645426,67.7802829 C75.4438488,67.9455512 75.3436862,68.169665 75.3436862,68.4551285 C75.3436862,68.7430959 75.4463528,68.9634537 75.6516862,69.1162016 C75.8582715,69.2689496 76.0798813,69.3453236 76.3202715,69.3453236 C76.5581577,69.3453236 76.7785154,69.2651935 76.9800927,69.1036813 C77.1804179,68.9409171 77.2818325,68.7193073 77.2818325,68.4413561 L77.2818325,68.4413561 Z M77.1954423,70.594852 C77.1954423,70.4633886 77.1641415,70.3732423 77.1027919,70.3294211 C77.0401902,70.286852 76.9512959,70.2655675 76.837361,70.2655675 L75.8307268,70.2655675 C75.5828244,70.2655675 75.4576211,70.3757463 75.4576211,70.594852 L75.4576211,76.8725431 C75.4576211,77.1104293 75.5828244,77.2306244 75.8307268,77.2306244 L76.837361,77.2306244 C77.0764992,77.2306244 77.1954423,77.1104293 77.1954423,76.8725431 L77.1954423,70.594852 Z M74.3245317,70.323161 C74.3245317,70.2280065 74.2769545,70.1654049 74.180548,70.1378602 C74.1141902,70.1165756 74.0440764,70.1028033 73.9727106,70.094039 C73.9013447,70.0852748 73.836239,70.0802667 73.7786455,70.0802667 C73.3754911,70.0802667 73.0411984,70.1629008 72.7732634,70.3294211 C72.5053285,70.4984455 72.2611821,70.7213073 72.0420764,70.9967545 L72.027052,70.5385106 C72.027052,70.3569659 71.9068569,70.2655675 71.6677187,70.2655675 L70.7487268,70.2655675 C70.6435561,70.2655675 70.5559138,70.2906081 70.4908081,70.3369333 C70.4231984,70.3845106 70.3906455,70.4809171 70.3906455,70.6236488 L70.3906455,72.3915187 L70.3906455,76.8725431 C70.3906455,77.1104293 70.5033285,77.2306244 70.7349545,77.2306244 L71.7829057,77.2306244 C72.0132797,77.2306244 72.1259626,77.1104293 72.1259626,76.8725431 L72.1259626,72.3038764 C72.3087593,72.0847707 72.5228569,71.9157463 72.7670033,71.7942992 C73.0098976,71.6753561 73.256548,71.6152585 73.5057024,71.6152585 C73.6496862,71.6152585 73.7786455,71.6290309 73.8938325,71.6590797 L73.950174,71.6590797 C74.0753772,71.6590797 74.142987,71.5977301 74.1530033,71.4712748 L74.3107593,70.4533724 C74.3195236,70.4233236 74.3245317,70.3795024 74.3245317,70.323161 L74.3245317,70.323161 Z M69.0835236,73.5095837 C69.0835236,73.0212911 69.0259301,72.558039 68.9107431,72.1173236 C68.7968081,71.6766081 68.5714423,71.285974 68.2358976,70.939161 C67.9867431,70.672478 67.6862553,70.4621366 67.3319301,70.3081366 C66.9763528,70.1553886 66.5794585,70.0777626 66.1399951,70.0777626 C65.6028732,70.0777626 65.1183366,70.1666569 64.6826293,70.3444455 C64.2444179,70.5209821 63.8725642,70.7713886 63.5620602,71.0906569 C63.2515561,71.4111772 63.0099138,71.7955512 62.8358813,72.2462829 C62.6643528,72.6970146 62.5767106,73.1890634 62.5767106,73.7249333 C62.5767106,74.2896 62.6593447,74.7979252 62.8221089,75.2486569 C62.9848732,75.6981366 63.2190033,76.0837626 63.5270033,76.4042829 C63.8312472,76.7248033 64.2081089,76.9714537 64.6538325,77.1429821 C65.0983041,77.3157626 65.6028732,77.4034049 66.1687919,77.4034049 C66.5406455,77.4034049 66.9488081,77.3645919 67.3895236,77.294478 C67.828987,77.2218602 68.2258813,77.1041691 68.5802065,76.9426569 C68.7329545,76.8762992 68.8105805,76.793665 68.8105805,76.6972585 C68.8105805,76.678478 68.8005642,76.6208846 68.7817837,76.524478 L68.5802065,75.7932911 C68.5514098,75.6793561 68.485052,75.6217626 68.3798813,75.6217626 C68.3510846,75.6217626 68.3247919,75.6267707 68.3010033,75.635535 C68.2772146,75.6442992 68.250922,75.6543154 68.2221252,75.6655837 C67.9541902,75.7707545 67.6687268,75.8521366 67.366987,75.9147382 C67.0639951,75.9785919 66.7622553,76.0086407 66.4555073,76.0086407 C65.8808244,76.0086407 65.4088081,75.8383642 65.0407106,75.4915512 C64.672613,75.1484943 64.4597675,74.6965106 64.400922,74.1418602 L68.6090033,74.1418602 C68.7918,74.1418602 68.9157512,74.1168195 68.983361,74.0642341 C69.0497187,74.0116488 69.0835236,73.8989659 69.0835236,73.7249333 L69.0835236,73.5095837 Z M64.4309707,73.0087707 C64.4597675,72.7984293 64.5148569,72.596852 64.596239,72.404039 C64.6776211,72.212478 64.7878,72.0434537 64.9267756,71.8944618 C65.0644992,71.746722 65.2285154,71.6290309 65.4150683,71.5438927 C65.6003691,71.4562504 65.8082065,71.4136813 66.0398325,71.4136813 C66.2589382,71.4136813 66.4504992,71.4549984 66.6132634,71.5351285 C66.7760276,71.6165106 66.9124992,71.7229333 67.022678,71.8506407 C67.1328569,71.980852 67.2167431,72.1336 67.2743366,72.3101366 C67.3319301,72.4891772 67.3644829,72.6669659 67.3732472,72.8510146 L67.3732472,73.0087707 L64.4309707,73.0087707 Z M61.6026293,73.6548195 C61.6026293,73.1464943 61.5275073,72.6569496 61.3785154,72.1836813 C61.2307756,71.710413 61.0029057,71.3047545 60.6949057,70.9704618 C60.4557675,70.7125431 60.1678,70.5009496 59.8310033,70.3381854 C59.4954585,70.1741691 59.0872959,70.094039 58.6077675,70.094039 C58.2133772,70.094039 57.8315073,70.171665 57.4609057,70.3294211 C57.0928081,70.4884293 56.8023366,70.6875024 56.5919951,70.9266407 L56.5769707,70.5385106 C56.5682065,70.4333398 56.5318976,70.361974 56.4692959,70.323161 C56.4091984,70.284348 56.3152959,70.2655675 56.1925967,70.2655675 L55.3387106,70.2655675 C55.1108407,70.2655675 54.9969057,70.3757463 54.9969057,70.5961041 L54.9969057,79.9600553 C54.9969057,80.2079577 55.1108407,80.3319089 55.3387106,80.3319089 L56.3353285,80.3319089 C56.4592797,80.3319089 56.5519301,80.3068683 56.6132797,80.2542829 C56.6746293,80.2016976 56.7059301,80.102787 56.7059301,79.9600553 L56.7059301,76.7423317 C56.9175236,76.9614374 57.1754423,77.1304618 57.4834423,77.2456488 C57.7901902,77.3595837 58.1119626,77.4171772 58.4475073,77.4171772 C58.9182715,77.4171772 59.3389545,77.330787 59.707052,77.1580065 C60.0776537,76.985226 60.396922,76.7473398 60.6661089,76.4393398 C60.9728569,76.0875187 61.205735,75.6705919 61.3647431,75.1910634 C61.5237512,74.712787 61.6026293,74.2007057 61.6026293,73.6548195 L61.6026293,73.6548195 Z M59.7934423,73.7412098 C59.7934423,74.0942829 59.7521252,74.4210634 59.6707431,74.7177951 C59.5881089,75.0132748 59.4566455,75.2724455 59.2738488,75.4928033 C59.1486455,75.6455512 58.9871333,75.7732585 58.7905642,75.8746732 C58.5927431,75.9735837 58.3698813,76.023665 58.1194748,76.023665 C57.8402715,76.023665 57.5698325,75.9535512 57.3119138,75.8158276 C57.050239,75.6781041 56.8499138,75.5128358 56.7059301,75.3200228 L56.7059301,72.1899415 C56.8499138,72.0071447 57.0665154,71.8456325 57.3544829,71.7029008 C57.6437024,71.5589171 57.9216537,71.4850472 58.1908407,71.4850472 C58.7016699,71.4850472 59.0960602,71.6828683 59.3740114,72.0760065 C59.5192472,72.2775837 59.6244179,72.520478 59.6920276,72.8084455 C59.7583854,73.095161 59.7934423,73.405665 59.7934423,73.7412098 L59.7934423,73.7412098 Z M53.2014911,76.828722 C53.2014911,76.9814699 53.1751984,77.0866407 53.122613,77.1429821 C53.0700276,77.2005756 52.9711171,77.2306244 52.8283854,77.2306244 L51.9093935,77.2306244 C51.699052,77.2306244 51.583865,77.1354699 51.5650846,76.9426569 L51.5500602,76.5833236 C50.8702065,77.1304618 50.1077187,77.4034049 49.2676049,77.4034049 C48.462548,77.4034049 47.8841089,77.1680228 47.5297837,76.6985106 C47.1754585,76.2289984 46.9976699,75.6067382 46.9976699,74.8317301 L46.9976699,70.594852 C46.9976699,70.3757463 47.1228732,70.2655675 47.3720276,70.2655675 L48.3761577,70.2655675 C48.4900927,70.2655675 48.580239,70.286852 48.6428407,70.3294211 C48.7041902,70.3719902 48.7354911,70.4621366 48.7354911,70.594852 L48.7354911,74.5312423 C48.7354911,74.9331447 48.8043528,75.2561691 48.9445805,75.4990634 C49.0823041,75.7432098 49.3665154,75.8646569 49.7972146,75.8646569 C50.0764179,75.8646569 50.3668894,75.7982992 50.6736374,75.6655837 C50.9803854,75.5303642 51.2433122,75.368852 51.4636699,75.176039 L51.4636699,70.594852 C51.4636699,70.3757463 51.583865,70.2655675 51.8230033,70.2655675 L52.8421577,70.2655675 C52.9573447,70.2655675 53.046239,70.286852 53.1088407,70.3294211 C53.1701902,70.3719902 53.2014911,70.4621366 53.2014911,70.594852 L53.2014911,76.828722 Z" id="Fill-21" fill="#FFFFFF"></path>
                    </g>
                </g>
            </g>
        </g>
    </g>
</svg>