<?xml version="1.0" encoding="utf-8"?>
<!-- Generator: Adobe Illustrator 21.1.0, SVG Export Plug-In . SVG Version: 6.00 Build 0)  -->
<svg version="1.1" id="Capa_1" xmlns="http://www.w3.org/2000/svg" xmlns:xlink="http://www.w3.org/1999/xlink" x="0px" y="0px"
	 viewBox="0 0 227.5 137.5" style="enable-background:new 0 0 227.5 137.5;" xml:space="preserve">
<style type="text/css">
	.st0{fill:#F6EEDE;}
	.st1{fill:#EED7B3;}
	.st2{enable-background:new    ;}
	.st3{fill:none;}
</style>
<g>
	<path class="st0" d="M216,124.3l11.6-69l-35.1-26.1L18.2,0L0,108.3l174.2,29.2L216,124.3z M187.2,84c0.7-4.1,4.5-6.8,8.6-6.2
		c4.1,0.7,6.9,4.5,6.2,8.6s-4.6,6.9-8.7,6.2C189.3,92,186.5,88.1,187.2,84z"/>
	<path class="st1" d="M210.6,87.8c1.5-8.8-4.5-17.1-13.3-18.6s-17.1,4.5-18.6,13.3s4.5,17.1,13.3,18.6
		C200.8,102.5,209.1,96.6,210.6,87.8L210.6,87.8z M202,86.4c-0.7,4.1-4.6,6.9-8.7,6.2c-4.1-0.7-6.8-4.6-6.2-8.6
		c0.7-4.1,4.5-6.8,8.6-6.2C200,78.4,202.7,82.3,202,86.4L202,86.4z"/>
	<g class="st2">
		<path d="M65.2,31.6c0,0.2-0.1,0.3-0.2,0.5c-0.1,0.2-0.2,0.3-0.3,0.6c-0.4,0.4-0.9,0.9-1.3,1.5c-0.4,0.5-0.8,1.1-1.3,1.8
			c-0.4,0.7-0.9,1.5-1.2,2.5c-0.2,0.5-0.4,1.1-0.6,1.8c-0.2,0.5-0.4,1.2-0.5,1.9c-0.2,0.7-0.3,1.5-0.5,2.3c-0.1,0.5-0.2,1.1-0.2,1.6
			C59,46.5,59,47.1,59,47.6c0,0,0,0.1,0,0.2c0,0.1,0,0.3,0,0.4c-0.1,0.3-0.1,0.5-0.3,0.7c-0.1,0.2-0.3,0.3-0.5,0.4
			c-0.2,0.1-0.4,0.1-0.6,0.2c-0.2,0-0.4,0-0.5,0c-0.5-0.1-0.8-0.3-1-0.7c-0.2-0.4-0.3-0.8-0.4-1.3c0-0.5,0-1,0-1.5
			c0.1-0.5,0.1-1,0.2-1.4c0.1-0.7,0.3-1.4,0.4-2.1c0.2-0.7,0.3-1.4,0.5-2.1c0-0.1-0.1-0.2-0.2-0.2c-0.2,0-0.4-0.1-0.5-0.1
			c-0.5-0.1-1-0.1-1.6-0.1c-0.6,0-1.1,0-1.7,0.1c-0.1,0-0.2,0.1-0.2,0.1c0,0,0,0,0,0.1c-0.5,1.4-1,2.6-1.6,3.6
			c-0.2,0.4-0.5,0.9-0.7,1.3c-0.3,0.4-0.6,0.8-0.8,1.1s-0.6,0.6-0.9,0.7c-0.3,0.2-0.6,0.2-0.9,0.2c-0.4-0.1-0.7-0.2-0.8-0.5
			c-0.1-0.2-0.2-0.5-0.1-0.8c0-0.3,0.1-0.5,0.2-0.6c0-0.1,0.1-0.2,0.1-0.3c0.4-0.6,0.7-1.1,1-1.7c0.3-0.5,0.5-0.9,0.7-1.4
			c0.2-0.5,0.4-0.9,0.4-1.2c0,0,0,0-0.2-0.1c-0.2,0-0.4,0.1-0.6,0.1c-0.2,0.1-0.3,0.1-0.4,0.1c-0.1,0-0.2,0.1-0.4,0.1
			c-0.1,0-0.3,0-0.5,0c-0.2,0-0.4-0.1-0.5-0.2c-0.1-0.1-0.2-0.2-0.2-0.3c0-0.1-0.1-0.2-0.1-0.3c0-0.1,0-0.2,0-0.3
			c0.1-0.3,0.2-0.5,0.3-0.7c0.2-0.2,0.3-0.4,0.5-0.5c0.2-0.2,0.5-0.3,0.7-0.4c0.1-0.1,0.3-0.1,0.5-0.2c0.2-0.1,0.4-0.1,0.7-0.2
			c0.3-0.1,0.6-0.1,0.9-0.2l0.1-0.1c0.1,0,0.1-0.1,0.1-0.1c0.1-0.2,0.1-0.5,0.1-0.7c0-0.2,0.1-0.4,0.1-0.7c0.1-0.7,0.2-1.4,0.2-1.9
			c0-0.6,0-1,0-1.4c0-0.4,0-0.8-0.1-1.2c0,0,0-0.1,0-0.2c0-0.1,0-0.2,0-0.4c0.1-0.4,0.2-0.7,0.5-0.9c0.3-0.2,0.7-0.3,1.2-0.2
			c0.3,0,0.6,0.2,0.9,0.5c0.3,0.3,0.6,0.8,0.7,1.6c0,0.3,0,0.6,0,1c0,0.3,0,0.7-0.1,1.2s-0.1,1-0.2,1.6c0,0.2-0.1,0.4-0.1,0.6
			c0,0.2-0.1,0.4-0.1,0.7c0,0,0,0,0,0.1c0,0,0.1,0.1,0.1,0.1c0.6,0,1.2,0,1.9,0c0.7,0,1.4,0.1,2.2,0.1c0.1,0,0.1,0,0.2-0.1
			c0.4-1,0.8-1.9,1.3-2.8c0.5-0.9,1-1.6,1.5-2.2c0.5-0.6,1.1-1.1,1.7-1.4c0.6-0.3,1.2-0.4,1.8-0.3c0.1,0,0.2,0,0.3,0.1
			c0.1,0,0.2,0.1,0.4,0.2c0.1,0.1,0.2,0.2,0.3,0.4C65.2,31.2,65.3,31.4,65.2,31.6z"/>
		<path d="M71.3,50.9c0,0.3-0.1,0.4-0.3,0.6c-0.2,0.1-0.3,0.2-0.5,0.2c-0.2,0.1-0.4,0.1-0.7,0c-0.4-0.1-0.7-0.2-0.9-0.5
			c-0.2-0.3-0.4-0.6-0.5-0.9c-0.2-0.4-0.3-0.8-0.3-1.2c0-0.1,0-0.2-0.1-0.2c0,0-0.1,0-0.1,0L67.7,49c-0.4,0.3-0.8,0.6-1.1,0.7
			c-0.4,0.2-0.7,0.3-1.1,0.3c-0.3,0.1-0.6,0.1-0.9,0.1c-0.3,0-0.5,0-0.7-0.1c-0.6-0.1-1.1-0.3-1.4-0.6c-0.3-0.3-0.6-0.6-0.7-0.9
			c-0.1-0.3-0.2-0.6-0.2-0.9c0-0.3,0-0.5,0-0.6c0.1-0.4,0.2-0.8,0.4-1.2c0.2-0.4,0.5-0.7,0.8-1c0.3-0.3,0.7-0.6,1-0.8
			c0.4-0.2,0.8-0.5,1.1-0.7c0.9-0.4,1.9-0.8,3-1.1c0.1,0,0.1,0,0.2-0.1c0.1-0.1,0.2-0.1,0.2-0.3c0-0.2-0.1-0.4-0.5-0.6
			c-0.4-0.2-0.8-0.3-1.2-0.3c-0.2,0-0.4-0.1-0.6-0.1c-0.2,0-0.3,0-0.5,0c-0.2,0-0.3,0-0.5,0c-0.2,0-0.4-0.1-0.6-0.2
			c-0.1-0.1-0.2-0.2-0.3-0.3c0-0.1-0.1-0.2-0.1-0.4c0-0.1,0-0.2,0-0.3s0-0.2,0.1-0.3c0.1-0.1,0.2-0.3,0.4-0.4
			c0.2-0.1,0.5-0.2,0.8-0.3c0.4-0.1,0.8,0,1.4,0.1c0.4,0.1,0.9,0.2,1.4,0.4s1.1,0.4,1.5,0.7c0.5,0.3,0.9,0.6,1.2,1
			c0.3,0.4,0.4,0.8,0.3,1.3c-0.1,0.3-0.3,0.6-0.6,0.9c-0.4,0.3-0.8,0.5-1.3,0.7s-1,0.4-1.6,0.6c-0.6,0.2-1.1,0.4-1.6,0.7
			c-0.5,0.2-0.9,0.5-1.3,0.9c-0.4,0.3-0.6,0.8-0.7,1.2c0,0.1,0,0.2,0,0.4c0,0.2,0.2,0.3,0.5,0.4c0.2,0,0.5,0,0.8-0.1
			c0.3-0.1,0.6-0.2,0.8-0.4c0.3-0.2,0.5-0.4,0.7-0.6c0.2-0.2,0.3-0.5,0.4-0.8c0,0,0,0,0-0.1l0-0.2c0-0.2,0.1-0.3,0.2-0.5
			c0.1-0.2,0.3-0.3,0.4-0.5c0.2-0.1,0.4-0.2,0.6-0.3c0.2-0.1,0.4-0.1,0.7-0.1c0.1,0,0.2,0.1,0.4,0.2c0.1,0.1,0.1,0.2,0.1,0.4
			c0,0.6,0,1.2,0,1.8c0,0.5,0.1,1,0.2,1.5c0.1,0.5,0.3,0.9,0.6,1.2c0.1,0.1,0.2,0.3,0.2,0.4c0,0.1,0.1,0.2,0.1,0.4
			S71.3,50.7,71.3,50.9z"/>
		<path d="M84.9,42.3c0,0.1-0.1,0.3-0.2,0.5c-0.1,0.2-0.4,0.4-0.8,0.7c-0.4,0.3-0.7,0.6-1.2,1c-0.4,0.4-0.9,1-1.4,1.6
			c-0.5,0.6-1,1.3-1.4,2c-0.5,0.8-0.9,1.6-1.3,2.4c-0.2,0.4-0.4,0.7-0.6,1c-0.2,0.2-0.4,0.4-0.7,0.6c-0.3,0.2-0.6,0.2-1,0.2
			c-0.5-0.1-0.8-0.3-1.1-0.7c-0.3-0.4-0.6-0.9-0.8-1.5c-0.2-0.6-0.4-1.2-0.4-1.9c-0.1-0.7-0.2-1.3-0.2-2c0-0.7,0-1.3,0-1.8
			c0-0.5,0.1-1,0.1-1.3c0.1-0.7,0.3-1.2,0.5-1.6c0.2-0.4,0.6-0.5,1.1-0.4c0.1,0,0.2,0,0.3,0.1c0.1,0,0.3,0.1,0.4,0.2
			c0.1,0.1,0.2,0.2,0.2,0.4c0.1,0.2,0.1,0.4,0,0.7c-0.1,0.5-0.1,1.1-0.2,1.8c0,0.7-0.1,1.5,0,2.2c0,0.7,0,1.3,0.1,1.8
			c0.1,0.5,0.2,0.8,0.3,0.8c0.1,0,0.2-0.1,0.3-0.2c0.6-1.1,1.1-2.1,1.7-3.1c0.2-0.4,0.5-0.8,0.8-1.3c0.3-0.4,0.6-0.8,0.9-1.2
			c0.3-0.4,0.6-0.8,0.9-1.1c0.3-0.3,0.6-0.6,1-0.9c0.2-0.1,0.3-0.2,0.5-0.3c0.1-0.1,0.3-0.1,0.5-0.2c0.2,0,0.4,0,0.6,0
			c0.3,0,0.5,0.2,0.8,0.3C84.9,41.6,84.9,41.9,84.9,42.3z"/>
		<path d="M92.7,45.3c-0.1,0.7-0.4,1.3-0.7,1.9c-0.4,0.6-0.9,1.1-1.4,1.5s-1.1,0.7-1.8,0.9c-0.7,0.2-1.3,0.2-2,0.1c0,0-0.1,0-0.1,0
			c0,0,0,0,0,0.1c0,0.5,0,0.9,0.1,1.2c0.1,0.3,0.3,0.6,0.5,0.8c0.2,0.2,0.4,0.4,0.7,0.5c0.5,0.2,0.8,0.5,0.9,0.8
			c0.1,0.3,0.1,0.5,0.1,0.7c0,0.3-0.2,0.5-0.3,0.6c-0.2,0.1-0.3,0.2-0.5,0.2c-0.2,0.1-0.4,0.1-0.7,0.1c-0.7-0.1-1.3-0.4-1.7-0.8
			c-0.4-0.4-0.8-0.9-1-1.3c-0.3-0.5-0.4-1.1-0.5-1.8l0-0.4c0-0.1,0-0.3,0-0.5c0-0.2,0-0.4,0-0.6c0,0,0,0,0-0.1c0,0-0.1-0.1-0.1-0.1
			c-0.3-0.1-0.5-0.2-0.7-0.3c-0.2-0.1-0.3-0.3-0.4-0.5c-0.1-0.2-0.1-0.5-0.1-0.9c0.1-0.2,0.1-0.3,0.2-0.4c0.1-0.1,0.1-0.2,0.3-0.3
			c0.1-0.1,0.2-0.1,0.4-0.1c0,0,0.1,0,0.3,0.1c0.1,0.1,0.3,0.1,0.5,0.2c0,0,0.1,0,0.1,0c0,0,0,0,0,0c0.5-1,1-1.8,1.7-2.5
			c0.3-0.3,0.6-0.6,0.9-0.9c0.3-0.3,0.7-0.5,1-0.7c0.4-0.2,0.8-0.3,1.2-0.4c0.4-0.1,0.9-0.1,1.3,0c0.2,0,0.5,0.1,0.7,0.2
			c0.3,0.1,0.5,0.3,0.7,0.5c0.2,0.2,0.4,0.5,0.5,0.9C92.8,44.3,92.8,44.7,92.7,45.3z M90.3,45.2c0-0.1,0-0.2,0-0.3
			c0-0.1-0.1-0.2-0.1-0.3c-0.1-0.1-0.1-0.1-0.3-0.2c-0.3,0-0.6,0-0.9,0.2c-0.3,0.2-0.6,0.4-1,0.8c-0.3,0.3-0.6,0.7-0.8,1
			c-0.2,0.4-0.4,0.7-0.4,1c0,0.1,0,0.2,0.1,0.2c0.2,0,0.4,0,0.7-0.1c0.3-0.1,0.7-0.2,1-0.4c0.4-0.2,0.7-0.4,1-0.8
			C90,46.1,90.2,45.7,90.3,45.2z"/>
		<path d="M107.6,57c0,0.3-0.1,0.4-0.3,0.6s-0.3,0.2-0.5,0.2c-0.2,0.1-0.4,0.1-0.7,0c-0.4-0.1-0.7-0.2-0.9-0.5
			c-0.2-0.3-0.4-0.6-0.5-0.9c-0.2-0.4-0.3-0.8-0.3-1.2c0-0.1,0-0.2-0.1-0.2c0,0-0.1,0-0.1,0l-0.1,0.1c-0.4,0.3-0.8,0.6-1.2,0.7
			c-0.4,0.2-0.7,0.3-1.1,0.3c-0.3,0.1-0.6,0.1-0.9,0.1c-0.3,0-0.5,0-0.7-0.1c-0.6-0.1-1.1-0.3-1.4-0.6c-0.3-0.3-0.6-0.6-0.7-0.9
			c-0.1-0.3-0.2-0.6-0.2-0.9c0-0.3,0-0.5,0-0.6c0.1-0.4,0.2-0.8,0.4-1.2s0.5-0.7,0.8-1c0.3-0.3,0.7-0.6,1-0.8
			c0.4-0.2,0.8-0.5,1.1-0.7c0.9-0.4,1.9-0.8,3-1.1c0.1,0,0.1,0,0.2-0.1c0.1-0.1,0.2-0.2,0.2-0.3c0-0.2-0.1-0.4-0.5-0.6
			c-0.4-0.2-0.8-0.3-1.2-0.3c-0.2,0-0.4-0.1-0.6-0.1c-0.2,0-0.3,0-0.5,0c-0.2,0-0.3,0-0.5,0c-0.2,0-0.4-0.1-0.6-0.2
			c-0.1-0.1-0.2-0.2-0.3-0.3c0-0.1-0.1-0.2-0.1-0.4c0-0.1,0-0.2,0-0.3s0-0.2,0.1-0.3c0.1-0.1,0.2-0.3,0.4-0.4
			c0.2-0.1,0.5-0.2,0.8-0.3c0.4-0.1,0.8,0,1.4,0.1c0.4,0.1,0.9,0.2,1.4,0.4c0.5,0.2,1.1,0.4,1.5,0.7c0.5,0.3,0.9,0.6,1.2,1
			c0.3,0.4,0.4,0.8,0.3,1.3c-0.1,0.3-0.3,0.6-0.6,0.9c-0.4,0.3-0.8,0.5-1.3,0.7c-0.5,0.2-1,0.4-1.6,0.6c-0.6,0.2-1.1,0.4-1.6,0.7
			c-0.5,0.2-0.9,0.5-1.3,0.9c-0.4,0.3-0.6,0.8-0.7,1.2c0,0.1,0,0.2,0,0.4c0,0.2,0.2,0.3,0.5,0.4c0.2,0,0.5,0,0.8-0.1
			s0.6-0.2,0.8-0.4c0.3-0.2,0.5-0.4,0.7-0.6c0.2-0.2,0.3-0.5,0.4-0.8c0,0,0,0,0-0.1l0-0.2c0-0.2,0.1-0.3,0.2-0.5
			c0.1-0.2,0.3-0.3,0.4-0.5s0.4-0.2,0.6-0.3c0.2-0.1,0.4-0.1,0.7-0.1c0.1,0,0.2,0.1,0.4,0.2c0.1,0.1,0.1,0.2,0.1,0.4
			c0,0.6,0,1.2,0,1.8c0,0.5,0.1,1,0.2,1.5c0.1,0.5,0.3,0.9,0.6,1.2c0.1,0.1,0.2,0.3,0.2,0.4c0,0.1,0.1,0.2,0.1,0.4
			S107.6,56.8,107.6,57z"/>
	</g>
	<g class="st2">
		<path d="M41.9,73.6c-0.1,0.3-0.2,0.6-0.4,0.7c-0.2,0.2-0.4,0.3-0.6,0.3c-0.3,0-0.5,0.1-0.8,0c-0.5-0.1-0.9-0.3-1.2-0.8
			c-0.2-0.4-0.4-0.9-0.4-1.5c0-0.6,0-1.2,0-1.8c0.1-0.6,0.1-1.1,0.2-1.6l0.1-0.6c0-0.2,0-0.3-0.2-0.4c-0.3,0-0.6,0.1-0.9,0.3
			c-0.3,0.3-0.7,0.6-1,1.1c-0.4,0.4-0.7,0.9-1,1.4s-0.7,1-1,1.5c-0.3,0.5-0.6,0.8-0.9,1.2c-0.3,0.3-0.5,0.5-0.6,0.5
			c-0.1,0-0.2,0-0.3,0c-0.1,0-0.2,0-0.3,0c-0.3-0.1-0.6-0.2-0.7-0.5c-0.1-0.3-0.2-0.7-0.2-1.1s0-0.9,0-1.5c0.1-0.5,0.1-1.1,0.2-1.7
			c0.1-0.5,0.2-1,0.4-1.6c0.2-0.6,0.3-1.2,0.5-1.9s0.4-1.2,0.6-1.7c0.2-0.5,0.4-0.9,0.6-1.1c0.1-0.2,0.3-0.3,0.5-0.5
			c0.2-0.1,0.3-0.2,0.6-0.3c0.2-0.1,0.5-0.1,0.8,0c0,0,0.1,0,0.2,0.1c0.1,0,0.2,0.1,0.3,0.2c0.1,0.1,0.2,0.2,0.2,0.3
			c0.1,0.1,0.1,0.3,0.1,0.5c0,0.3-0.2,0.6-0.4,0.9c-0.3,0.4-0.5,0.9-0.7,1.4c-0.2,0.4-0.3,0.8-0.5,1.3c-0.2,0.5-0.3,0.9-0.3,1.3
			c0,0.3,0,0.4,0.1,0.4c0,0,0.1,0,0.1,0c0.1-0.1,0.4-0.4,0.7-0.8c0.4-0.4,0.8-0.9,1.4-1.3c0.5-0.5,1.1-0.9,1.7-1.2
			c0.6-0.3,1.2-0.5,1.7-0.4c0.6,0.1,1,0.4,1.1,0.8s0,1.2-0.1,2.1c0,0.2-0.1,0.4-0.1,0.7c-0.1,0.2-0.1,0.5-0.2,0.8
			c0,0.2-0.1,0.5-0.1,0.9S41,70.8,41,71.2c0,0.4,0.1,0.7,0.2,1.1c0.1,0.3,0.2,0.6,0.5,0.8l0.2,0.2C41.9,73.3,41.9,73.5,41.9,73.6z"
			/>
		<path d="M47.5,66.1c0,0.1-0.1,0.3-0.2,0.6c-0.1,0.3-0.3,0.7-0.4,1.2c-0.1,0.5-0.3,1-0.4,1.5c-0.2,0.6-0.3,1.2-0.4,1.8
			c-0.1,0.5-0.1,0.9-0.2,1.4c0,0.4,0,0.8-0.1,1.1c0,0.4,0,0.8,0,1.1c-0.1,0.3-0.3,0.5-0.5,0.5c-0.3,0.1-0.5,0.1-0.7,0
			c-0.2,0-0.4-0.1-0.5-0.2C44,75.1,44,75,43.9,75c-0.3-0.5-0.4-1.1-0.5-1.9s0.1-1.6,0.2-2.5c0.1-0.7,0.2-1.3,0.4-2
			c0.2-0.6,0.3-1.2,0.5-1.7c0.2-0.6,0.4-1.1,0.5-1.7c0-0.1,0.1-0.2,0.2-0.2c0.1-0.1,0.2-0.1,0.4-0.1c0.2,0,0.4,0,0.6,0
			c0.1,0,0.2,0.1,0.4,0.1c0.2,0.1,0.3,0.1,0.4,0.2c0.1,0.1,0.2,0.2,0.3,0.4S47.5,65.9,47.5,66.1z M49.5,60.3c0,0.2-0.1,0.3-0.2,0.6
			c-0.1,0.2-0.3,0.5-0.5,0.7c-0.2,0.2-0.5,0.4-0.8,0.6c-0.3,0.1-0.7,0.2-1.1,0.1c-0.4-0.1-0.7-0.2-0.8-0.5C46,61.5,45.9,61.3,46,61
			c0-0.2,0.1-0.5,0.3-0.7s0.4-0.5,0.6-0.6c0.3-0.2,0.5-0.3,0.9-0.4c0.3-0.1,0.6-0.1,1-0.1c0.2,0,0.3,0.1,0.6,0.3
			C49.5,59.6,49.6,59.9,49.5,60.3z"/>
		<path d="M56.7,74c-0.1,0.5-0.3,1-0.6,1.4c-0.3,0.4-0.8,0.8-1.3,1.1c-0.5,0.3-1.1,0.5-1.8,0.7c-0.7,0.1-1.3,0.1-2,0
			c-0.7-0.1-1.3-0.4-1.6-0.8c-0.4-0.4-0.6-0.9-0.8-1.4c-0.1-0.5-0.2-1-0.2-1.5c0-0.5,0-0.8,0.1-1.1c0.1-0.8,0.4-1.7,0.9-2.5
			c0.5-0.8,1-1.6,1.7-2.2c0.7-0.7,1.4-1.2,2.2-1.5c0.8-0.3,1.7-0.4,2.6-0.3c0.6,0.1,1,0.3,1.2,0.5s0.4,0.6,0.5,0.9
			c0.1,0.3,0.1,0.7,0.1,1.1c0,0.1-0.1,0.3-0.2,0.7c-0.1,0.3-0.3,0.7-0.5,1c-0.2,0.3-0.5,0.6-0.9,0.9c-0.4,0.2-0.8,0.3-1.4,0.2
			c-0.2,0-0.4-0.2-0.4-0.4c0-0.1,0-0.2,0-0.4c0-0.2,0.1-0.3,0.2-0.4c0.1-0.1,0.2-0.2,0.3-0.3s0.2-0.2,0.3-0.4
			c0.1-0.1,0.1-0.3,0.2-0.5c0-0.1,0-0.3,0-0.5c0-0.2-0.2-0.3-0.4-0.3c-0.2,0-0.5,0-0.8,0.1c-0.4,0.1-0.7,0.4-1.1,0.7
			c-0.4,0.3-0.7,0.8-1.1,1.4c-0.3,0.6-0.6,1.3-0.7,2.2c0,0.3-0.1,0.6-0.1,0.9c0,0.3,0,0.6,0.1,0.8s0.2,0.5,0.3,0.7
			c0.1,0.2,0.4,0.3,0.7,0.4c0.1,0,0.3,0,0.5,0c0.2,0,0.4,0,0.7-0.2c0.3-0.1,0.5-0.3,0.8-0.5c0.3-0.2,0.6-0.6,1-1.1
			c0.1-0.2,0.3-0.3,0.5-0.4c0.2-0.1,0.4-0.1,0.6-0.1c0.2,0,0.3,0.1,0.4,0.2s0.1,0.2,0.2,0.4C56.7,73.6,56.7,73.8,56.7,74z"/>
		<path d="M67.7,70.4c-0.1,0.7-0.4,1.3-0.7,1.9c-0.4,0.6-0.9,1.1-1.4,1.5c-0.5,0.4-1.1,0.7-1.8,0.9c-0.7,0.2-1.3,0.2-2,0.1
			c0,0-0.1,0-0.1,0c0,0,0,0,0,0.1c0,0.5,0,0.9,0.1,1.2c0.1,0.3,0.3,0.6,0.5,0.8c0.2,0.2,0.4,0.4,0.7,0.5c0.5,0.2,0.8,0.5,0.9,0.8
			c0.1,0.3,0.1,0.5,0.1,0.7c0,0.3-0.2,0.5-0.3,0.6c-0.2,0.1-0.3,0.2-0.5,0.2c-0.2,0.1-0.4,0.1-0.7,0.1c-0.7-0.1-1.3-0.4-1.7-0.8
			c-0.4-0.4-0.8-0.9-1-1.3c-0.3-0.5-0.4-1.1-0.5-1.8l0-0.4c0-0.1,0-0.3,0-0.5c0-0.2,0-0.4,0-0.6c0,0,0,0,0-0.1c0,0-0.1-0.1-0.1-0.1
			c-0.3-0.1-0.5-0.2-0.7-0.3c-0.2-0.1-0.3-0.3-0.4-0.5c-0.1-0.2-0.1-0.5-0.1-0.9c0.1-0.2,0.1-0.3,0.2-0.4c0.1-0.1,0.1-0.2,0.3-0.3
			c0.1-0.1,0.2-0.1,0.4-0.1c0,0,0.1,0,0.3,0.1c0.1,0.1,0.3,0.1,0.5,0.2c0,0,0.1,0,0.1,0c0,0,0,0,0,0c0.5-1,1-1.8,1.7-2.5
			c0.3-0.3,0.6-0.6,0.9-0.9c0.3-0.3,0.7-0.5,1-0.7c0.4-0.2,0.8-0.3,1.2-0.4c0.4-0.1,0.9-0.1,1.3,0c0.2,0,0.5,0.1,0.7,0.2
			c0.3,0.1,0.5,0.3,0.7,0.5c0.2,0.2,0.4,0.5,0.5,0.9C67.8,69.4,67.8,69.8,67.7,70.4z M65.3,70.3c0-0.1,0-0.2,0-0.3
			c0-0.1-0.1-0.2-0.1-0.3c-0.1-0.1-0.1-0.1-0.3-0.2c-0.3,0-0.6,0-0.9,0.2c-0.3,0.2-0.6,0.4-1,0.8c-0.3,0.3-0.6,0.7-0.8,1
			c-0.2,0.4-0.4,0.7-0.4,1c0,0.1,0,0.2,0.1,0.2c0.1,0,0.4,0,0.7-0.1c0.3-0.1,0.7-0.2,1-0.4c0.4-0.2,0.7-0.4,1-0.8
			C65,71.2,65.2,70.8,65.3,70.3z"/>
		<path d="M85.2,73c-0.1,0.4-0.2,0.7-0.4,0.8s-0.4,0.1-0.6,0.1c-0.2,0-0.3-0.1-0.4-0.1c-0.1,0-0.1-0.1-0.2-0.1
			c-0.1,0.3-0.1,0.5-0.2,0.8c-0.1,0.3-0.1,0.6-0.1,0.9c-0.1,0.6-0.2,1.1-0.2,1.6s-0.1,1-0.1,1.5c0,0.4,0,0.8,0.1,1.1
			c0.1,0.3,0.2,0.6,0.3,0.7c0.1,0.1,0.2,0.3,0.2,0.4c0,0.1,0,0.2,0,0.3c0,0.3-0.1,0.5-0.3,0.6c-0.2,0.1-0.3,0.2-0.5,0.3
			c-0.2,0-0.4,0.1-0.6,0.1c-0.5-0.1-0.9-0.3-1.1-0.6c-0.2-0.3-0.4-0.7-0.5-1.1c-0.1-0.4-0.1-0.9-0.1-1.5c0-0.1,0-0.2,0-0.2
			c0,0-0.1,0-0.1,0l-0.1,0.1c-0.7,0.7-1.4,1.2-2.1,1.5c-0.7,0.3-1.3,0.5-1.8,0.6c-0.5,0.1-1,0.2-1.3,0.1c-0.4,0-0.6,0-0.6-0.1
			c-0.5-0.1-0.8-0.2-1-0.5c-0.2-0.2-0.4-0.5-0.5-0.8S73,79,73,78.7c0-0.3,0-0.6,0.1-0.8c0.2-1.1,0.6-2.1,1.2-3
			c0.6-0.9,1.3-1.6,2.1-2.1c0.8-0.6,1.7-1,2.7-1.3c1-0.3,1.9-0.4,2.8-0.5c0,0,0,0,0.1,0c0,0,0,0,0.1,0c0,0,0,0,0-0.1
			c0.1-0.4,0.2-0.8,0.3-1.2c0.1-0.4,0.2-0.9,0.3-1.5c0.2-1.1,0.5-2.1,0.7-3.1c0.1-0.4,0.2-0.8,0.4-1.2c0.1-0.4,0.3-0.8,0.4-1.1
			c0.1-0.3,0.3-0.6,0.4-0.9c0.2-0.2,0.3-0.4,0.5-0.5c0.2-0.1,0.3-0.2,0.4-0.3c0.1-0.1,0.3-0.1,0.4-0.2c0.2,0,0.3-0.1,0.5,0
			c0.2,0,0.3,0.1,0.5,0.2s0.2,0.4,0.1,0.8c0,0.2-0.1,0.5-0.2,0.8c-0.3,0.8-0.6,1.6-0.8,2.4c-0.2,0.8-0.5,1.6-0.7,2.2
			c-0.2,0.8-0.4,1.6-0.6,2.3c0,0.2-0.1,0.3-0.1,0.5c0,0.1-0.1,0.3-0.1,0.5c0,0.2-0.1,0.4-0.2,0.7c0,0,0,0.1,0,0.1c0,0,0,0,0.1,0
			c0.3,0.2,0.5,0.3,0.7,0.6C85.2,72.4,85.3,72.7,85.2,73z M81.4,73.5c0-0.1,0-0.1-0.2-0.2c-0.6,0-1.2,0.1-1.7,0.3
			c-0.6,0.2-1.1,0.5-1.6,0.9c-0.5,0.4-0.9,0.9-1.3,1.4c-0.4,0.5-0.6,1.1-0.7,1.7c0,0.2,0,0.5,0,0.7c0.1,0.2,0.2,0.3,0.5,0.4
			c0.3,0.1,0.8,0,1.3-0.3c0.5-0.2,1-0.6,1.6-1c0.5-0.5,1-1,1.4-1.7C81,75,81.2,74.3,81.4,73.5z"/>
		<path d="M94.6,84.1c0,0.3-0.1,0.4-0.3,0.6c-0.2,0.1-0.3,0.2-0.5,0.2c-0.2,0.1-0.4,0.1-0.7,0c-0.4-0.1-0.7-0.2-0.9-0.5
			c-0.2-0.3-0.4-0.6-0.5-0.9c-0.2-0.4-0.3-0.8-0.3-1.2c0-0.1,0-0.2-0.1-0.2c0,0-0.1,0-0.1,0L91,82.2c-0.4,0.3-0.8,0.6-1.1,0.7
			c-0.4,0.2-0.7,0.3-1.1,0.3c-0.3,0.1-0.6,0.1-0.9,0.1c-0.3,0-0.5,0-0.7-0.1c-0.6-0.1-1.1-0.3-1.4-0.6c-0.3-0.3-0.6-0.6-0.7-0.9
			c-0.1-0.3-0.2-0.6-0.2-0.9s0-0.5,0-0.6c0.1-0.4,0.2-0.8,0.4-1.2c0.2-0.4,0.5-0.7,0.8-1c0.3-0.3,0.7-0.6,1-0.8
			c0.4-0.2,0.8-0.5,1.1-0.7c0.9-0.4,1.9-0.8,3-1.1c0.1,0,0.1,0,0.2-0.1c0.1-0.1,0.2-0.2,0.2-0.3c0-0.2-0.1-0.4-0.5-0.6
			c-0.4-0.2-0.8-0.3-1.2-0.3c-0.2,0-0.4-0.1-0.6-0.1c-0.2,0-0.3,0-0.5,0c-0.2,0-0.3,0-0.5,0c-0.2,0-0.4-0.1-0.6-0.2
			c-0.1-0.1-0.2-0.2-0.3-0.3c0-0.1-0.1-0.2-0.1-0.4c0-0.1,0-0.2,0-0.3s0-0.2,0.1-0.3c0.1-0.1,0.2-0.3,0.4-0.4
			c0.2-0.1,0.5-0.2,0.8-0.3c0.4-0.1,0.8,0,1.4,0.1c0.4,0.1,0.9,0.2,1.4,0.4c0.5,0.2,1.1,0.4,1.5,0.7c0.5,0.3,0.9,0.6,1.2,1
			c0.3,0.4,0.4,0.8,0.3,1.3c-0.1,0.3-0.3,0.6-0.6,0.9c-0.4,0.3-0.8,0.5-1.3,0.7c-0.5,0.2-1,0.4-1.6,0.6s-1.1,0.4-1.6,0.7
			c-0.5,0.2-0.9,0.5-1.3,0.9s-0.6,0.8-0.7,1.2c0,0.1,0,0.2,0,0.4c0,0.2,0.2,0.3,0.5,0.4c0.2,0,0.5,0,0.8-0.1
			c0.3-0.1,0.6-0.2,0.8-0.4c0.3-0.2,0.5-0.4,0.7-0.6c0.2-0.2,0.3-0.5,0.4-0.8c0,0,0,0,0-0.1l0-0.2c0-0.2,0.1-0.3,0.2-0.5
			c0.1-0.2,0.3-0.3,0.4-0.5c0.2-0.1,0.4-0.2,0.6-0.3c0.2-0.1,0.4-0.1,0.7-0.1c0.1,0,0.2,0.1,0.4,0.2c0.1,0.1,0.1,0.2,0.1,0.4
			c0,0.6,0,1.2,0,1.8c0,0.5,0.1,1,0.2,1.5c0.1,0.5,0.3,0.9,0.6,1.2c0.1,0.1,0.2,0.3,0.2,0.4c0,0.1,0.1,0.2,0.1,0.4
			C94.6,83.8,94.6,83.9,94.6,84.1z"/>
		<path d="M106.2,77.3c-0.1,0.3-0.1,0.7-0.3,1c-0.1,0.4-0.3,0.8-0.4,1.3c-0.2,0.5-0.3,1.1-0.5,1.8c-0.2,0.7-0.3,1.6-0.5,2.6
			c-0.3,2-0.8,3.8-1.5,5.3c-0.7,1.5-1.4,2.7-2.2,3.7c-0.8,1-1.6,1.6-2.3,2.1c-0.8,0.4-1.4,0.6-2,0.5c-0.2,0-0.3-0.1-0.4-0.1
			c-0.1-0.1-0.1-0.1-0.2-0.2c0-0.1-0.1-0.2,0-0.3c0-0.2,0.1-0.3,0.2-0.5c0.1-0.1,0.2-0.3,0.3-0.4c0.1-0.1,0.3-0.3,0.5-0.4
			c1-0.7,1.8-1.6,2.4-2.6s1.2-2.1,1.6-3.2c0.4-1.1,0.8-2.2,1-3.2c0.2-1,0.4-1.8,0.5-2.5c0-0.1,0-0.2,0-0.2c0,0-0.1,0-0.1,0l0,0
			c-0.6,0.7-1.1,1.3-1.6,1.6c-0.5,0.4-0.9,0.6-1.3,0.8c-0.4,0.2-0.8,0.2-1.2,0.2c-0.6-0.1-1-0.4-1.3-0.8c-0.3-0.5-0.5-1-0.6-1.6
			c-0.1-0.6-0.2-1.3-0.1-2c0-0.7,0.1-1.3,0.2-1.9c0.3-1.7,0.8-3.1,1.4-4s1.3-1.3,2.1-1.2c0,0,0.1,0,0.2,0.1s0.2,0.1,0.3,0.1
			c0.1,0.1,0.2,0.2,0.2,0.3c0.1,0.1,0.1,0.3,0,0.5c0,0.2-0.2,0.5-0.4,0.8c-0.2,0.4-0.5,0.8-0.7,1.2c-0.2,0.4-0.4,0.8-0.5,1.3
			c-0.2,0.5-0.3,1.1-0.4,1.6c0,0.1-0.1,0.3-0.1,0.6c0,0.3-0.1,0.6,0,0.9c0,0.3,0,0.6,0.1,0.8c0.1,0.2,0.2,0.4,0.4,0.4
			c0.2,0,0.3,0,0.6-0.1c0.2-0.1,0.5-0.3,0.8-0.6c0.3-0.3,0.7-0.8,1.2-1.4c0.5-0.6,1-1.4,1.6-2.4c0.2-0.3,0.3-0.6,0.6-0.8
			c0.2-0.2,0.4-0.4,0.7-0.5c0.3-0.1,0.5-0.2,0.9-0.1c0.1,0,0.1,0,0.3,0.1c0.1,0,0.2,0.1,0.3,0.2c0.1,0.1,0.1,0.2,0.2,0.4
			C106.3,76.7,106.3,77,106.2,77.3z"/>
		<path d="M110.5,85.1c-0.1,0.3-0.2,0.6-0.4,0.8c-0.2,0.2-0.4,0.4-0.7,0.5c-0.2,0.1-0.5,0.2-0.7,0.2c-0.3,0-0.5,0-0.6,0
			c-0.1,0-0.2,0-0.3-0.1c-0.1,0-0.2-0.1-0.4-0.2c-0.1-0.1-0.2-0.3-0.3-0.4s-0.1-0.4,0-0.7c0-0.2,0.1-0.4,0.2-0.6
			c0.1-0.2,0.3-0.4,0.5-0.6c0.2-0.2,0.4-0.3,0.7-0.4c0.3-0.1,0.6-0.1,0.9-0.1c0.3,0.1,0.6,0.2,0.8,0.5
			C110.6,84.3,110.6,84.7,110.5,85.1z M113.5,72.6c-0.2,0.9-0.4,2.1-0.7,3.4c-0.3,1.3-0.8,2.8-1.5,4.5c-0.1,0.2-0.2,0.3-0.3,0.5
			c-0.1,0.1-0.3,0.2-0.5,0.3c-0.2,0.1-0.5,0.1-0.8,0c-0.3-0.1-0.5-0.2-0.6-0.4c-0.1-0.2-0.1-0.3-0.1-0.5l0-0.2c0,0,0,0,0-0.1
			c0.5-1.6,0.8-3,1-4.2c0.2-1.2,0.4-2.2,0.6-3.1c0.1-0.7,0.2-1.3,0.3-1.8c0.1-0.5,0.1-0.9,0.1-1.2c0-0.4,0-0.7,0.1-0.9
			c0-0.1,0-0.2,0.1-0.3c0-0.1,0.1-0.2,0.3-0.3c0.1-0.1,0.3-0.2,0.5-0.2c0.2,0,0.5,0,0.8,0c0,0,0.1,0,0.3,0.1c0.1,0,0.3,0.1,0.4,0.3
			c0.1,0.1,0.2,0.3,0.3,0.5c0.1,0.2,0.1,0.5,0.1,0.9c0,0.2,0,0.5-0.1,0.7c0,0.2,0,0.5-0.1,0.8C113.7,71.8,113.6,72.2,113.5,72.6z"/>
	</g>
	<g>
		<path class="st3" d="M147.3,110.1c-1.3,1.3-2.4,2.8-3.4,4.3c-0.3,0.5-0.6,1.2-1.1,1.4c-0.5,0.2-1-0.2-1.1-0.7V115
			c-0.1-0.4,0.1-0.7,0.5-0.8c1.1-1.8,2.3-3.4,3.8-4.9c-2-1.3-3.8-2.7-5.5-4.3c-0.8,0.8-1.5,1.7-2.2,2.7c-0.9,1.4-1.5,2.8-2,4.4
			c-0.2,0.9-0.4,1.7-0.5,2.6c0,0.6,0.1,1.1,0.2,1.6c0.1,0.5,0.3,0.9,0.5,1.4c0.3,0.4,0.5,0.8,0.9,1.2c0.4,0.4,0.9,0.8,1.4,1.2
			c0.7,0.4,1.4,0.7,2.2,1c0.8,0.2,1.5,0.3,2.3,0.4c0.7,0,1.4-0.1,2-0.2c0.7-0.2,1.3-0.4,2-0.8c1-0.5,1.8-1.2,2.7-1.9
			c1.1-1.1,2.2-2.3,3-3.6c0.3-0.5,0.6-1.1,0.8-1.7c0-0.1,0-0.1,0-0.2c-0.9-0.3-1.8-0.7-2.7-1.1C149.7,111.4,148.5,110.8,147.3,110.1
			z"/>
		<path d="M173,111.4L173,111.4c-0.1,0-0.2-0.1-0.2-0.1c-0.1-0.1-0.2-0.2-0.3-0.3c-0.1-0.1-0.1-0.1-0.2-0.2
			c-0.6-0.8-1.7-0.1-1.4,0.8c0.1,0.2,0.1,0.3,0.1,0.5l0,0c0-0.1-0.1-0.1-0.1-0.2c-0.1-0.1-0.1-0.2-0.1-0.3c0-0.1,0-0.1,0-0.2
			s0-0.2,0.1-0.3c0.2-0.5-0.2-0.8-0.6-0.9c-0.4-0.1-0.9,0.1-1,0.6c-0.2,0.8,0,1.5,0.4,2.1l-0.1,0.1c-0.5,0.3-1.1,0.4-1.6,0.6
			c-1.1,0.2-2.2,0.3-3.3,0.3c-2.7-0.1-5.3-0.7-7.8-1.5c-3.5-1.1-6.8-2.6-9.9-4.5c-2.4-1.6-4.6-3.3-6.6-5.4c-1.4-1.5-2.5-3.1-3.5-4.9
			c-0.7-1.3-1.2-2.7-1.6-4.1c0-0.1,0-0.1,0-0.2v-0.1c0.4-0.3,0.8-0.6,1.3-1c0.6-0.5,0.3-1.3-0.4-1.5c-0.1,0-0.1,0-0.2,0
			c-1.3,0-2.4,0.8-3.6,1.1c-0.1,0-0.2,0-0.4,0.1c-0.8,0.1-0.9,1-0.5,1.4c-0.2,0.1-0.4,0.1-0.6,0.2c-1,0.2-0.4,1.8,0.6,1.5
			c0.9-0.2,1.7-0.5,2.4-0.9c1,3.7,3,6.9,5.5,9.7c-2.7,2.7-4.8,6.5-5.2,10.4c-0.3,3.3,1.6,6.2,4.4,7.7c3.2,1.8,7,1.5,10.1-0.4
			c1.5-0.9,2.8-2.2,4-3.6c1.1-1.2,2.1-2.7,2.6-4.3c2.1,0.7,4.3,1.3,6.5,1.6c2.9,0.5,6.5,0.6,9.1-1c0.4,0.3,0.7,0.7,1,1l0,0l0,0l0,0
			c0.5,0.5,1.5,0.3,1.4-0.6c0-0.5-0.1-1.1-0.2-1.6C173.8,113.1,174,111.7,173,111.4z M153.5,113.3c-0.2,0.6-0.5,1.1-0.8,1.7
			c-0.9,1.3-1.9,2.5-3,3.6c-0.8,0.7-1.7,1.4-2.7,1.9c-0.6,0.3-1.3,0.6-2,0.8c-0.7,0.1-1.3,0.2-2,0.2c-0.8,0-1.5-0.2-2.3-0.4
			c-0.8-0.3-1.5-0.6-2.2-1c-0.5-0.3-1-0.7-1.4-1.2c-0.3-0.4-0.6-0.8-0.9-1.2c-0.2-0.5-0.4-0.9-0.5-1.4s-0.2-1.1-0.2-1.6
			c0.1-0.9,0.2-1.8,0.5-2.6c0.5-1.6,1.2-3,2-4.4c0.6-1,1.4-1.9,2.2-2.7c1.7,1.6,3.5,3.1,5.5,4.3c-1.5,1.5-2.7,3.2-3.8,4.9
			c-0.3,0.1-0.5,0.4-0.5,0.8v0.1c0.1,0.5,0.6,0.9,1.1,0.7c0.5-0.2,0.8-0.9,1.1-1.4c1-1.5,2.1-3,3.4-4.3c1.2,0.7,2.4,1.3,3.6,1.9
			c0.9,0.4,1.8,0.8,2.7,1.1C153.6,113.2,153.6,113.2,153.5,113.3z"/>
		<path d="M162,90.7C162,90.7,162,90.8,162,90.7c0.2,0.3,0.4,0.5,0.8,0.5c0.2,0,0.4,0,0.6,0c0.5,0,1,0.1,1.6,0.2
			c0.3,0.1,0.6,0.2,0.9,0.4c0.3,0.2,0.6,0.5,0.9,0.7c0.4,0.5,0.7,1,1,1.5c0.1,0.2,0.2,0.3,0.3,0.5c0.5,0.9,2,0.4,1.5-0.6
			c-0.6-1.3-1.4-2.5-2.5-3.4c-0.4-0.3-0.8-0.5-1.2-0.6c0.1,0,0.2,0,0.4,0c0.3,0,0.6,0.1,0.9,0.1c0.2,0.1,0.3,0.1,0.5,0.2
			c0.1,0.1,0.1,0.1,0.2,0.2c0,0.1,0.1,0.1,0.1,0.2v0.1c0.5,0.9,2,0.4,1.5-0.6c-0.5-1.1-1.5-1.6-2.7-1.8c-1.6-0.3-3.5,0.2-4.6,1.2
			C161.8,89.9,161.8,90.3,162,90.7L162,90.7z"/>
		<path d="M150.4,85.2c0,0.6,0.9,1.1,1.5,0.5c1-0.9,1.8-2.4,1.8-3.8c0-0.5-0.3-0.7-0.7-0.7c-0.1-0.2-0.4-0.4-0.6-0.4
			c-0.3-0.1-0.6,0.1-0.8,0.5c-0.3,0.8-0.6,1.5-1,2.2c-0.2,0.2-0.3,0.5-0.4,0.7C149.9,84.6,150.1,85,150.4,85.2z"/>
	</g>
</g>
</svg>
