<?xml version="1.0" encoding="utf-8"?>
<!-- Generator: Adobe Illustrator 21.1.0, SVG Export Plug-In . SVG Version: 6.00 Build 0)  -->
<svg version="1.1" id="Capa_1" xmlns="http://www.w3.org/2000/svg" xmlns:xlink="http://www.w3.org/1999/xlink" x="0px" y="0px"
	 viewBox="0 0 193.7 91.8" style="enable-background:new 0 0 193.7 91.8;" xml:space="preserve">
<style type="text/css">
	.st0{fill:#FFFFFF;}
</style>
<g>
	<g>
		<g>
			<path class="st0" d="M27.5,82.4c0,1.4-0.4,2.6-1.3,3.6s-1.9,1.8-3.1,2.5s-2.4,1.2-3.7,1.5s-2.4,0.5-3.3,0.5
				c-1.9,0-3.3-0.4-4.2-1.2s-1.3-1.6-1.3-2.5c0-0.8,0.3-1.3,0.8-1.7s1-0.5,1.4-0.5c0.4,0,1,0.2,1.7,0.5c0.7,0.3,1.6,0.5,2.6,0.5
				c1.4,0,2.4-0.2,3.1-0.6c0.7-0.4,1-0.9,1-1.4c0-0.5-0.3-0.9-0.8-1.2c-0.5-0.3-1.2-0.6-1.9-0.9c-0.8-0.2-1.6-0.5-2.5-0.7
				c-0.9-0.2-1.7-0.6-2.5-0.9c-0.8-0.4-1.4-0.8-1.9-1.4S11,76.9,11,76.1c0-1.1,0.3-2.2,1-3.4s1.6-2.3,2.7-3.3c1.1-1,2.4-1.8,3.8-2.5
				s2.9-1,4.3-1c1.3,0,2.3,0.4,3.1,1.1s1.1,1.9,1.1,3.4c0,0.7-0.2,1.4-0.5,2s-1,0.9-1.9,0.9c-0.5,0-0.9-0.1-1.1-0.4
				c-0.2-0.3-0.3-0.6-0.5-0.9s-0.3-0.6-0.5-0.9c-0.2-0.3-0.7-0.4-1.3-0.4c-0.3,0-0.6,0.1-1.1,0.3s-1,0.5-1.5,0.8s-1,0.8-1.3,1.3
				c-0.4,0.5-0.6,1-0.6,1.6c0,0.5,0.3,1,0.8,1.3c0.5,0.4,1.2,0.7,2,1c0.8,0.3,1.7,0.6,2.6,0.9c1,0.3,1.8,0.6,2.6,1s1.5,0.9,2,1.4
				C27.2,80.8,27.5,81.5,27.5,82.4z"/>
			<path class="st0" d="M50.1,89.7c0,0.5-0.1,0.9-0.4,1.2s-0.6,0.5-0.9,0.6c-0.4,0.2-0.8,0.3-1.3,0.3c-0.8,0-1.5-0.2-2-0.7
				c-0.6-0.5-1-1-1.4-1.6c-0.4-0.7-0.8-1.4-1.1-2.3c0-0.2-0.1-0.3-0.3-0.3c-0.1,0-0.2,0-0.3,0.1l-0.1,0.1C41.7,88,41,88.6,40.3,89
				c-0.7,0.5-1.4,0.8-2.1,1.1s-1.3,0.4-1.8,0.5s-1,0.1-1.3,0.1c-1.3,0-2.3-0.2-3.1-0.7s-1.3-1-1.7-1.6s-0.6-1.2-0.7-1.8
				c-0.1-0.6-0.1-1-0.1-1.3c0-0.9,0.2-1.7,0.5-2.6c0.3-0.8,0.7-1.6,1.3-2.3s1.1-1.4,1.8-2s1.3-1.2,2.1-1.7c1.6-1.2,3.5-2.3,5.6-3.3
				c0.1,0,0.3-0.1,0.4-0.2c0.3-0.2,0.4-0.4,0.4-0.6c0-0.5-0.4-0.8-1.2-1s-1.7-0.3-2.6-0.3c-0.4,0-0.8,0-1.2,0c-0.4,0-0.7,0.1-1,0.1
				c-0.4,0-0.7,0.1-0.9,0.1c-0.5,0-0.9,0-1.2-0.2c-0.3-0.2-0.5-0.3-0.6-0.6s-0.2-0.5-0.3-0.7c0-0.2-0.1-0.4-0.1-0.6s0-0.3,0.1-0.6
				c0.1-0.3,0.3-0.6,0.7-0.9c0.4-0.3,0.9-0.6,1.6-0.9c0.7-0.2,1.6-0.4,2.8-0.4c0.8,0,1.8,0.1,2.9,0.3c1.2,0.2,2.2,0.5,3.3,0.9
				c1,0.4,1.9,1,2.7,1.6c0.7,0.7,1.1,1.5,1.1,2.5c0,0.7-0.3,1.4-0.9,2c-0.6,0.6-1.4,1.3-2.3,1.8c-0.9,0.6-1.9,1.2-3,1.8
				c-1.1,0.6-2.1,1.3-3,1.9s-1.7,1.4-2.3,2.2c-0.6,0.8-0.9,1.7-0.9,2.7c0,0.2,0.1,0.5,0.2,0.9c0.2,0.4,0.5,0.6,1.2,0.6
				c0.4,0,0.9-0.1,1.5-0.4s1.1-0.6,1.6-1c0.5-0.4,0.9-0.9,1.3-1.4c0.4-0.5,0.5-1.1,0.5-1.7c0,0-0.1-0.1-0.1-0.1v-0.4
				c0-0.3,0.1-0.7,0.2-1.1c0.2-0.4,0.4-0.8,0.7-1.1c0.3-0.3,0.7-0.6,1.1-0.8s0.8-0.3,1.3-0.3c0.3,0,0.5,0.1,0.8,0.2s0.4,0.4,0.4,0.9
				c0.1,1.2,0.3,2.4,0.6,3.6c0.2,1,0.5,1.9,0.9,2.9s0.9,1.7,1.5,2.3c0.2,0.3,0.4,0.5,0.6,0.7c0.1,0.2,0.3,0.5,0.4,0.7
				S50.1,89.4,50.1,89.7z"/>
			<path class="st0" d="M73,73c0,1.8-0.3,3.7-0.8,5.6c-0.5,2-1.2,3.8-2.2,5.5c-0.9,1.7-2,3-3.3,4.2s-2.7,1.7-4.2,1.7
				c-0.9,0-1.6-0.2-2.1-0.7s-1-1-1.3-1.6c-0.4-0.7-0.7-1.4-0.9-2.3c-0.1-0.1-0.2-0.2-0.2-0.2c-0.2,0-0.4,0.1-0.6,0.3
				c-0.2,0.2-0.3,0.5-0.5,0.7s-0.5,0.5-0.8,0.7c-0.3,0.2-0.7,0.3-1.1,0.3c-0.4,0-0.6-0.1-0.8-0.4c-0.2-0.2-0.3-0.5-0.4-0.9
				s-0.1-0.7-0.2-1s0-0.6,0-0.8c0-2.3,0-4.9,0.1-7.9c0-2.9,0.2-6,0.4-9c0.2-3.1,0.5-6.1,0.8-9.1c0.4-3,0.9-5.7,1.5-8.1
				c0.1-0.3,0.3-0.6,0.5-0.8c0.2-0.2,0.4-0.4,0.7-0.6s0.6-0.3,1.1-0.3c0.6,0,1.1,0.1,1.5,0.4s0.6,0.6,0.8,1c0.2,0.4,0.3,0.9,0.3,1.4
				c-0.5,2.3-1,4.7-1.5,7.3c-0.4,2.3-0.7,4.8-1,7.6c-0.3,2.8-0.5,5.8-0.5,9c0,0.1,0,0.2,0,0.3c0,0.2,0.1,0.3,0.3,0.3
				c0.1,0,0.2-0.1,0.3-0.3c1.7-2.9,3.4-5.1,5.2-6.5c1.8-1.5,3.4-2.2,4.8-2.2c0.1,0,0.4,0,0.9,0.1s0.9,0.3,1.4,0.7
				c0.5,0.4,0.9,1,1.3,1.9C72.8,70.2,73,71.4,73,73z M68,75.2c0-1.2-0.2-1.9-0.5-2.2c-0.3-0.2-0.6-0.4-0.8-0.4
				c-0.8,0-1.6,0.4-2.3,1.3c-0.8,0.9-1.4,1.8-2.1,2.9C61.6,78,61,79.4,60.4,81c0.1,0.7,0.3,1.3,0.6,1.9c0.2,0.5,0.5,0.9,0.9,1.3
				c0.4,0.4,0.9,0.5,1.5,0.5c0.7,0,1.3-0.3,1.9-1c0.6-0.7,1.1-1.5,1.5-2.5s0.7-2,0.9-3.1C67.9,76.9,68,76,68,75.2z"/>
			<path class="st0" d="M93.2,71.3c0,1.4-0.3,2.7-0.9,4c-0.6,1.3-1.3,2.5-2.3,3.5s-2,1.8-3.3,2.5c-1.2,0.6-2.5,0.9-3.9,0.9
				c-0.1,0-0.2,0-0.3,0.1c0,0-0.1,0.1-0.1,0.1c0.1,1,0.3,1.8,0.7,2.4c0.4,0.6,0.8,1,1.2,1.4c0.5,0.4,1,0.7,1.6,0.8
				c1.2,0.3,1.8,0.7,2.1,1.2c0.2,0.5,0.4,0.9,0.4,1.3c0,0.6-0.1,1-0.4,1.3c-0.3,0.3-0.6,0.5-1,0.6c-0.4,0.2-0.8,0.3-1.3,0.3
				c-1.5,0-2.8-0.3-3.8-1s-1.8-1.5-2.4-2.3c-0.7-1-1.3-2.1-1.7-3.4l-0.2-0.8c-0.1-0.3-0.2-0.6-0.2-0.9c0-0.4-0.1-0.8-0.1-1.3
				c0,0,0-0.1-0.1-0.1c-0.1-0.1-0.2-0.1-0.3-0.1c-0.5-0.1-1-0.2-1.5-0.5c-0.4-0.2-0.7-0.5-1-0.9s-0.4-1-0.4-1.7
				c0-0.4,0.1-0.7,0.3-0.9c0.1-0.2,0.2-0.4,0.4-0.6c0.2-0.2,0.5-0.3,0.8-0.3c0.1,0,0.3,0,0.6,0.1s0.7,0.1,1.2,0.2
				c0.1,0,0.2,0,0.2-0.1c0,0,0.1,0,0.1-0.1c0.6-2.1,1.4-3.9,2.5-5.6c0.4-0.7,0.9-1.4,1.5-2.1c0.5-0.7,1.1-1.3,1.8-1.8s1.4-1,2.2-1.3
				c0.8-0.3,1.7-0.5,2.7-0.5c0.4,0,1,0.1,1.5,0.2c0.6,0.1,1.1,0.4,1.6,0.8s0.9,1,1.3,1.7C93,69.3,93.2,70.2,93.2,71.3z M88.4,72
				c0-0.3,0-0.5-0.1-0.7c-0.1-0.2-0.2-0.3-0.3-0.5s-0.3-0.2-0.6-0.2c-0.5,0-1.1,0.2-1.7,0.7c-0.6,0.5-1.2,1.1-1.7,1.8
				s-0.9,1.5-1.2,2.3c-0.3,0.8-0.5,1.6-0.5,2.2c0,0.2,0.1,0.3,0.3,0.3c0.3,0,0.8-0.1,1.4-0.4s1.3-0.6,2-1.1c0.7-0.5,1.2-1.1,1.7-1.9
				C88.2,74,88.4,73.1,88.4,72z"/>
			<path class="st0" d="M127.5,73c0,1.8-0.3,3.7-0.8,5.6c-0.5,2-1.2,3.8-2.2,5.5c-0.9,1.7-2,3-3.3,4.2s-2.7,1.7-4.2,1.7
				c-0.9,0-1.6-0.2-2.1-0.7s-1-1-1.3-1.6c-0.4-0.7-0.7-1.4-0.9-2.3c-0.1-0.1-0.2-0.2-0.2-0.2c-0.2,0-0.4,0.1-0.6,0.3
				c-0.2,0.2-0.3,0.5-0.5,0.7s-0.5,0.5-0.8,0.7c-0.3,0.2-0.7,0.3-1.1,0.3c-0.4,0-0.6-0.1-0.8-0.4c-0.2-0.2-0.3-0.5-0.4-0.9
				s-0.1-0.7-0.2-1s0-0.6,0-0.8c0-2.3,0-4.9,0.1-7.9c0-2.9,0.2-6,0.4-9c0.2-3.1,0.5-6.1,0.8-9.1c0.4-3,0.9-5.7,1.5-8.1
				c0.1-0.3,0.3-0.6,0.5-0.8c0.2-0.2,0.4-0.4,0.7-0.6s0.6-0.3,1.1-0.3c0.6,0,1.1,0.1,1.5,0.4s0.6,0.6,0.8,1c0.2,0.4,0.3,0.9,0.3,1.4
				c-0.5,2.3-1,4.7-1.5,7.3c-0.4,2.3-0.7,4.8-1,7.6c-0.3,2.8-0.5,5.8-0.5,9c0,0.1,0,0.2,0,0.3c0,0.2,0.1,0.3,0.3,0.3
				c0.1,0,0.2-0.1,0.3-0.3c1.7-2.9,3.4-5.1,5.2-6.5c1.8-1.5,3.4-2.2,4.8-2.2c0.1,0,0.4,0,0.9,0.1s0.9,0.3,1.4,0.7
				c0.5,0.4,0.9,1,1.3,1.9C127.3,70.2,127.5,71.4,127.5,73z M122.5,75.2c0-1.2-0.2-1.9-0.5-2.2c-0.3-0.2-0.6-0.4-0.8-0.4
				c-0.8,0-1.6,0.4-2.3,1.3c-0.8,0.9-1.4,1.8-2.1,2.9c-0.7,1.2-1.4,2.6-1.9,4.1c0.1,0.7,0.3,1.3,0.6,1.9c0.2,0.5,0.5,0.9,0.9,1.3
				c0.4,0.4,0.9,0.5,1.5,0.5c0.7,0,1.3-0.3,1.9-1c0.6-0.7,1.1-1.5,1.5-2.5s0.7-2,0.9-3.1C122.4,76.9,122.5,76,122.5,75.2z"/>
			<path class="st0" d="M147.8,71.3c0,1.4-0.3,2.7-0.9,4c-0.6,1.3-1.3,2.5-2.3,3.5s-2,1.8-3.3,2.5c-1.2,0.6-2.5,0.9-3.9,0.9
				c-0.1,0-0.2,0-0.3,0.1c0,0-0.1,0.1-0.1,0.1c0.1,1,0.3,1.8,0.7,2.4c0.4,0.6,0.8,1,1.2,1.4c0.5,0.4,1,0.7,1.6,0.8
				c1.2,0.3,1.8,0.7,2.1,1.2c0.2,0.5,0.4,0.9,0.4,1.3c0,0.6-0.1,1-0.4,1.3c-0.3,0.3-0.6,0.5-1,0.6c-0.4,0.2-0.8,0.3-1.3,0.3
				c-1.5,0-2.8-0.3-3.8-1s-1.8-1.5-2.4-2.3c-0.7-1-1.3-2.1-1.7-3.4l-0.2-0.8c-0.1-0.3-0.2-0.6-0.2-0.9c0-0.4-0.1-0.8-0.1-1.3
				c0,0,0-0.1-0.1-0.1c-0.1-0.1-0.2-0.1-0.3-0.1c-0.5-0.1-1-0.2-1.5-0.5c-0.4-0.2-0.7-0.5-1-0.9s-0.4-1-0.4-1.7
				c0-0.4,0.1-0.7,0.3-0.9c0.1-0.2,0.2-0.4,0.4-0.6c0.2-0.2,0.5-0.3,0.8-0.3c0.1,0,0.3,0,0.6,0.1s0.7,0.1,1.2,0.2
				c0.1,0,0.2,0,0.2-0.1c0,0,0.1,0,0.1-0.1c0.6-2.1,1.4-3.9,2.5-5.6c0.4-0.7,0.9-1.4,1.5-2.1c0.5-0.7,1.1-1.3,1.8-1.8s1.4-1,2.2-1.3
				c0.8-0.3,1.7-0.5,2.7-0.5c0.4,0,1,0.1,1.5,0.2c0.6,0.1,1.1,0.4,1.6,0.8s0.9,1,1.3,1.7C147.6,69.3,147.8,70.2,147.8,71.3z M143,72
				c0-0.3,0-0.5-0.1-0.7c-0.1-0.2-0.2-0.3-0.3-0.5s-0.3-0.2-0.6-0.2c-0.5,0-1.1,0.2-1.7,0.7c-0.6,0.5-1.2,1.1-1.7,1.8
				s-0.9,1.5-1.2,2.3c-0.3,0.8-0.5,1.6-0.5,2.2c0,0.2,0.1,0.3,0.3,0.3c0.3,0,0.8-0.1,1.4-0.4s1.3-0.6,2-1.1c0.7-0.5,1.2-1.1,1.7-1.9
				C142.7,74,143,73.1,143,72z"/>
			<path class="st0" d="M183.8,89.1c0,0.4-0.1,0.8-0.3,1.2c-0.2,0.3-0.5,0.6-0.8,0.8c-0.3,0.2-0.6,0.4-1,0.5
				c-0.4,0.1-0.6,0.2-0.9,0.2c-1.1,0-2-0.3-2.7-1s-1.2-1.5-1.5-2.6s-0.6-2.2-0.7-3.4c-0.1-1.2-0.2-2.4-0.2-3.4c0-0.9,0-1.6,0.1-2.2
				c0-0.6,0.1-1.1,0.1-1.4c0-0.7-0.1-1.2-0.2-1.3c-0.1-0.2-0.3-0.3-0.5-0.3c-0.2,0-0.3,0.1-0.5,0.2c-0.2,0.1-0.3,0.3-0.4,0.4
				c-0.2,0.2-0.3,0.4-0.5,0.5c-0.5,0.6-1,1.4-1.5,2.4c-0.5,1-1,1.9-1.5,2.8c-0.5,1.1-1.1,2.2-1.6,3.3c-0.4,0.6-0.7,1.2-1.1,1.8
				s-1,0.8-1.7,0.8c-0.9,0-1.6-0.4-2.1-1.3s-0.9-1.9-1.1-3.1c-0.2-1.2-0.4-2.3-0.5-3.4c-0.1-1.1-0.2-1.9-0.3-2.3
				c-0.1-0.6-0.4-0.9-0.7-0.9c-0.1,0-0.2,0-0.3,0.1c-0.1,0-0.2,0.1-0.3,0.1c-0.1,0.1-0.2,0.2-0.3,0.2c-0.8,0.8-1.5,1.8-2.2,3.1
				c-0.6,1.3-1.2,2.5-1.7,3.8c-0.5,1.5-1,3-1.5,4.6c-0.2,0.8-0.5,1.3-0.9,1.4c-0.4,0.1-0.8,0.2-1.2,0.2c-0.5,0-1-0.1-1.3-0.3
				c-0.4-0.2-0.6-0.5-0.8-0.8s-0.3-0.6-0.4-1c-0.1-0.4-0.1-0.7-0.1-0.9c0-0.9,0.1-1.7,0.2-2.5c0-0.4,0.1-0.9,0.2-1.3
				c0.1-0.8,0.2-1.5,0.2-2.2c0-0.7,0.1-1.3,0.1-2c0-1.5-0.1-2.9-0.3-4s-0.4-2.1-0.6-2.8c-0.3-0.9-0.6-1.6-0.9-2.3
				c0,0-0.1-0.1-0.1-0.3s-0.1-0.4-0.1-0.7c0-0.3,0.1-0.6,0.2-0.9s0.3-0.6,0.5-0.9c0.2-0.3,0.5-0.5,0.9-0.8c0.4-0.2,0.8-0.3,1.2-0.3
				c0.4,0,1,0.2,1.5,0.6c0.6,0.4,1,1.2,1.4,2.6c0.1,0.4,0.2,1,0.3,1.7c0.1,0.6,0.2,1.4,0.2,2.3c0.1,0.9,0.1,2,0.1,3.3
				c0,0,0,0.1,0.1,0.1c0,0.1,0,0.1,0.1,0.1c0,0,0.1-0.1,0.2-0.2c0.1-0.3,0.4-0.9,0.9-1.6c0.4-0.8,1-1.6,1.7-2.4
				c0.7-0.8,1.5-1.6,2.4-2.2c0.9-0.6,1.8-1,2.8-1c0.9,0,1.5,0.3,1.8,0.9c0.3,0.6,0.6,1.9,0.8,3.8c0,0.8,0.1,1.6,0.3,2.2
				c0.1,0.5,0.2,1,0.3,1.5c0.1,0.4,0.3,0.7,0.4,0.7c0.1,0,0.2-0.1,0.4-0.3c0.3-0.3,0.6-0.9,1-1.8c0-0.2,0.3-0.8,0.8-1.7
				c0.5-1,1.1-2,1.8-3.1s1.6-2.1,2.6-2.9c1-0.9,2-1.3,3.1-1.3c0.8,0,1.4,0.2,1.8,0.6s0.8,0.9,1.1,1.5c0.2,0.6,0.4,1.3,0.5,2
				s0.1,1.5,0.1,2.1c0,3.8,0.1,6.8,0.3,9.1c0.2,2.3,0.9,3.9,2.1,4.7c0.1,0,0.2,0.1,0.3,0.3c0.1,0.1,0.2,0.2,0.2,0.3
				S183.8,88.9,183.8,89.1z"/>
		</g>
	</g>
	<g>
		<g>
			<path class="st0" d="M22.3,16.5c0,0.7-0.3,1.3-0.8,1.7c-0.5,0.4-1.1,0.7-1.8,1c-0.8,0.3-1.6,0.5-2.6,0.6C16,19.8,15,20,14.1,20.1
				c-0.9,0.1-1.7,0.3-2.4,0.4c-0.8,0.2-1.5,0.3-2.1,0.5c-0.1,0-0.2,0.1-0.2,0.1c0,0.1,0,0.1,0,0.2c0,0.2,0.1,0.6,0.3,1.2
				s0.5,1.1,0.9,1.7c0.4,0.6,1,1.1,1.7,1.6c0.7,0.5,1.6,0.7,2.7,0.7c0.3,0,0.7,0,1.1-0.1s0.8-0.2,1.2-0.3c0.2-0.1,0.4-0.1,0.6-0.2
				c0.2-0.1,0.4-0.1,0.6-0.2c0.2,0,0.4-0.1,0.7-0.1c0.4,0,0.7,0.1,0.9,0.3s0.3,0.5,0.3,1c0,0.5-0.1,0.9-0.4,1.4s-0.7,0.8-1.2,1.2
				c-0.5,0.4-1.2,0.6-1.9,0.8c-0.8,0.2-1.7,0.3-2.7,0.3c-1.1,0-2-0.1-2.9-0.3S9.7,29.8,9,29.5c-0.6-0.4-1.2-0.8-1.7-1.3
				c-0.5-0.5-0.9-1-1.2-1.5c-0.8-1.2-1.3-2.6-1.6-4.1l-0.1-0.1c-0.1-0.1-0.2-0.1-0.2-0.1c-0.2,0-0.4,0-0.6,0.1s-0.5,0.2-0.8,0.3
				S2.2,22.9,2,23c-0.3,0.1-0.5,0.1-0.7,0.1c-0.3,0-0.6-0.1-0.8-0.2c-0.2-0.1-0.3-0.2-0.3-0.4C0,22.4,0,22.2,0,22
				c0-0.2,0-0.4,0.1-0.8s0.2-0.8,0.5-1.2c0.3-0.4,0.7-0.8,1.2-1.2C2.3,18.3,3,18,4,17.8c0.1,0,0.1,0,0.2,0c0.1-0.1,0.2-0.2,0.2-0.4
				c0-0.5,0.1-1.1,0.3-1.9c0.2-0.8,0.5-1.7,0.8-2.6s0.9-1.9,1.5-2.9c0.6-1,1.3-1.8,2.2-2.6c0.9-0.8,1.9-1.4,3-2
				c1.1-0.5,2.4-0.8,3.9-0.8c0.2,0,0.5,0,0.9,0c0.4,0,0.8,0.1,1.2,0.3s0.7,0.4,1,0.6c0.3,0.3,0.4,0.7,0.4,1.2c0,0.9-0.3,1.6-1,1.8
				S17,9,15.8,9c-1.2,0-2.2,0.3-3,0.8s-1.6,1.2-2.1,2c-0.6,0.8-1,1.6-1.3,2.5S9,15.8,9,16.5c0,0.1,0,0.1,0,0.1
				c0.1,0.1,0.2,0.1,0.3,0.1c1.6-0.2,3.3-0.5,5.1-0.7c1.8-0.2,3.6-0.3,5.3-0.3c0.3,0,0.6,0,0.8,0c0.3,0,0.6,0,0.8,0.1
				c0.3,0,0.5,0.1,0.6,0.2C22.2,16.2,22.3,16.3,22.3,16.5z"/>
			<path class="st0" d="M34.5,25c0,0.9-0.3,1.8-0.9,2.5c-0.6,0.7-1.3,1.3-2.1,1.7c-0.8,0.5-1.7,0.8-2.6,1c-0.9,0.2-1.6,0.3-2.2,0.3
				c-1.3,0-2.3-0.3-2.9-0.8c-0.6-0.6-0.9-1.1-0.9-1.7c0-0.5,0.2-0.9,0.6-1.1c0.4-0.2,0.7-0.4,1-0.4c0.3,0,0.7,0.1,1.2,0.3
				c0.5,0.2,1.1,0.3,1.8,0.3c0.9,0,1.7-0.1,2.1-0.4s0.7-0.6,0.7-1c0-0.3-0.2-0.6-0.5-0.9c-0.4-0.2-0.8-0.4-1.3-0.6
				c-0.5-0.2-1.1-0.3-1.7-0.5c-0.6-0.2-1.2-0.4-1.7-0.6c-0.5-0.3-1-0.6-1.3-1c-0.4-0.4-0.5-0.9-0.5-1.4c0-0.7,0.2-1.5,0.7-2.3
				c0.5-0.8,1.1-1.6,1.9-2.3c0.8-0.7,1.6-1.3,2.6-1.7c1-0.5,2-0.7,3-0.7c0.9,0,1.6,0.3,2.1,0.8c0.5,0.5,0.8,1.3,0.8,2.4
				c0,0.5-0.1,0.9-0.4,1.4s-0.7,0.6-1.3,0.6c-0.4,0-0.6-0.1-0.7-0.3c-0.1-0.2-0.2-0.4-0.3-0.6s-0.2-0.4-0.4-0.6
				c-0.2-0.2-0.5-0.3-0.9-0.3c-0.2,0-0.4,0.1-0.8,0.2c-0.3,0.1-0.7,0.3-1,0.6c-0.4,0.2-0.7,0.5-0.9,0.9c-0.3,0.3-0.4,0.7-0.4,1.1
				c0,0.4,0.2,0.7,0.6,0.9c0.4,0.2,0.8,0.5,1.4,0.7c0.6,0.2,1.2,0.4,1.8,0.6c0.7,0.2,1.3,0.4,1.8,0.7c0.6,0.3,1,0.6,1.4,1
				C34.3,23.9,34.5,24.4,34.5,25z"/>
			<path class="st0" d="M47.3,11.2c0,0.3-0.1,0.5-0.2,0.7c-0.2,0.2-0.3,0.3-0.5,0.3c-0.2,0.1-0.4,0.1-0.6,0.1c-0.3,0-0.7,0-1.2,0.1
				c-0.5,0.1-1,0.1-1.4,0.3c-0.5,0.1-0.9,0.2-1.2,0.3c-0.4,0.1-0.5,0.2-0.6,0.3c-0.1,0.6-0.2,1.4-0.3,2.4c-0.1,0.8-0.1,1.9-0.2,3.2
				s-0.1,2.8-0.1,4.6c0.1,1.2,0.2,2.4,0.4,3.4c0.2,0.9,0.4,1.9,0.6,2.8c0.3,0.9,0.6,1.7,1,2.2c0.3,0.4,0.4,0.7,0.4,1
				c0,0.4-0.2,0.7-0.6,0.9c-0.4,0.2-0.7,0.3-1,0.3c-0.5,0-0.9-0.1-1.2-0.3c-0.2-0.1-0.3-0.2-0.5-0.3c-0.6-0.5-1-1.2-1.3-2.1
				c-0.3-0.9-0.6-1.8-0.8-2.8c-0.2-1-0.3-2.1-0.4-3.2c-0.1-1.1-0.1-2.2-0.1-3.2c0-0.8,0-1.7,0.1-2.7c0-1,0.1-1.9,0.2-2.8
				c0.1-1,0.2-2,0.3-3c0-0.1,0-0.1-0.1-0.1h-0.1c-1.5,0-2.6-0.1-3.2-0.4c-0.6-0.3-0.9-0.7-0.9-1.3c0-0.1,0-0.2,0-0.4
				s0.1-0.4,0.3-0.6c0.1-0.2,0.3-0.3,0.6-0.5c0.3-0.1,0.6-0.2,1.1-0.2c0.3,0,0.6,0,0.8,0.1s0.5,0.1,0.9,0.1c0.1,0,0.3,0,0.6,0
				s0.4-0.1,0.4-0.3c0.2-1.8,0.5-3.2,0.9-4.2c0.3-1,0.7-1.7,1-2.2c0.4-0.5,0.7-0.8,1.1-0.9c0.4-0.1,0.8-0.2,1.1-0.2
				c0.2,0,0.4,0,0.5,0.1s0.3,0.2,0.4,0.3c0.1,0.1,0.2,0.3,0.2,0.6c0,0.4,0,0.7-0.1,1.1c-0.1,0.3-0.2,0.7-0.4,1.1
				c-0.2,0.4-0.3,0.9-0.5,1.5c-0.2,0.6-0.3,1.3-0.5,2.2c0,0.1,0,0.2,0.1,0.2c0.1,0,0.5-0.1,1-0.2c0.6-0.1,1.1-0.2,1.5-0.2
				c0.6,0,1,0.1,1.4,0.3s0.6,0.4,0.7,0.6C47.1,10.6,47.2,10.9,47.3,11.2z"/>
			<path class="st0" d="M58.7,30.1c0,0.4-0.1,0.7-0.3,0.8s-0.4,0.3-0.6,0.4c-0.3,0.1-0.6,0.2-0.9,0.2c-0.6,0-1-0.2-1.4-0.5
				c-0.4-0.3-0.7-0.7-0.9-1.1c-0.3-0.5-0.6-1-0.7-1.6c0-0.2-0.1-0.2-0.2-0.2c-0.1,0-0.1,0-0.2,0.1l-0.1,0.1
				c-0.5,0.5-0.9,0.9-1.4,1.3c-0.5,0.3-1,0.6-1.4,0.7c-0.5,0.2-0.9,0.3-1.2,0.3s-0.7,0.1-0.9,0.1c-0.9,0-1.6-0.2-2.1-0.5
				c-0.5-0.3-0.9-0.7-1.1-1.1c-0.2-0.4-0.4-0.8-0.5-1.2c-0.1-0.4-0.1-0.7-0.1-0.9c0-0.6,0.1-1.2,0.3-1.8c0.2-0.6,0.5-1.1,0.9-1.6
				c0.4-0.5,0.8-1,1.2-1.4c0.5-0.4,0.9-0.8,1.4-1.2c1.1-0.8,2.4-1.6,3.9-2.3c0.1,0,0.2-0.1,0.3-0.1c0.2-0.1,0.3-0.3,0.3-0.4
				c0-0.3-0.3-0.6-0.8-0.7c-0.6-0.1-1.1-0.2-1.8-0.2c-0.3,0-0.5,0-0.8,0c-0.3,0-0.5,0-0.7,0.1c-0.2,0-0.5,0-0.6,0
				c-0.3,0-0.6,0-0.8-0.1s-0.3-0.2-0.4-0.4s-0.2-0.3-0.2-0.5c0-0.2,0-0.3,0-0.4s0-0.2,0.1-0.4c0.1-0.2,0.2-0.4,0.5-0.6
				s0.6-0.4,1.1-0.6c0.5-0.2,1.1-0.3,2-0.3c0.6,0,1.2,0.1,2,0.2s1.6,0.3,2.3,0.6c0.7,0.3,1.3,0.7,1.8,1.1c0.5,0.5,0.8,1,0.8,1.7
				c0,0.5-0.2,1-0.6,1.4c-0.4,0.4-1,0.9-1.6,1.3c-0.6,0.4-1.3,0.8-2.1,1.2s-1.4,0.9-2.1,1.3c-0.6,0.5-1.2,1-1.6,1.5
				c-0.4,0.6-0.6,1.2-0.6,1.9c0,0.1,0.1,0.3,0.2,0.6c0.1,0.3,0.4,0.4,0.8,0.4c0.3,0,0.7-0.1,1-0.3c0.4-0.2,0.7-0.4,1.1-0.7
				c0.3-0.3,0.6-0.6,0.9-1c0.2-0.4,0.4-0.8,0.4-1.1c0,0,0-0.1,0-0.1V24c0-0.2,0.1-0.5,0.2-0.7c0.1-0.3,0.3-0.5,0.5-0.8
				c0.2-0.2,0.5-0.4,0.7-0.6s0.6-0.2,0.9-0.2c0.2,0,0.4,0,0.5,0.1s0.3,0.3,0.3,0.6c0.1,0.9,0.2,1.7,0.4,2.5c0.2,0.7,0.4,1.3,0.6,2
				s0.6,1.2,1.1,1.6c0.2,0.2,0.3,0.4,0.4,0.5c0.1,0.2,0.2,0.3,0.3,0.5C58.7,29.7,58.7,29.9,58.7,30.1z"/>
			<path class="st0" d="M72.5,20.4c0,0.2-0.1,0.4-0.3,0.6c-0.2,0.1-0.4,0.2-0.6,0.3c-0.2,0.1-0.5,0.1-0.8,0.1
				c-0.6,0-1.1-0.1-1.4-0.3c-0.3-0.2-0.6-0.4-0.8-0.7s-0.3-0.5-0.4-0.7c-0.1-0.2-0.2-0.3-0.3-0.3c-0.2,0-0.5,0.3-0.9,1
				c-0.4,0.6-0.8,1.5-1.3,2.5c-0.4,1-0.8,2.1-1.1,3.4c-0.3,1.2-0.5,2.4-0.5,3.6c0,0.5-0.1,0.9-0.4,1.1c-0.3,0.2-0.7,0.3-1.1,0.3
				c-0.5,0-0.9-0.2-1.1-0.6c-0.3-0.4-0.5-1-0.6-1.6c-0.1-0.6-0.2-1.4-0.2-2.2c0-0.8,0-1.6,0-2.3c0-1.2,0-2.4,0.1-3.6
				c0.1-1.2,0.2-2.2,0.3-3.1c0.1-0.7,0.2-1.3,0.4-1.7c0.2-0.5,0.3-0.8,0.6-1.1c0.2-0.2,0.5-0.4,0.8-0.5c0.3-0.1,0.7-0.2,1.1-0.2
				c0.2,0,0.3,0.1,0.4,0.2c0.1,0.1,0.2,0.2,0.3,0.3s0.1,0.4,0.1,0.7c0,0.2,0,0.3,0,0.4c-0.1,0.4-0.1,0.9-0.2,1.3
				c-0.1,0.4-0.1,0.8-0.2,1.4c-0.1,0.5-0.1,1-0.2,1.6c0,0.1,0,0.1,0,0.2c0,0.1,0.1,0.1,0.2,0.1s0.2-0.1,0.2-0.2
				c0.2-0.5,0.4-1,0.6-1.5c0.2-0.5,0.5-1,0.7-1.5c0.3-0.6,0.6-1.1,1-1.7c0.2-0.3,0.3-0.5,0.4-0.7s0.2-0.5,0.6-1
				c0.2-0.2,0.5-0.5,0.7-0.6c0.2-0.2,0.5-0.3,0.8-0.5s0.6-0.2,0.9-0.2c0.2,0,0.5,0.1,0.7,0.2c0.2,0.2,0.3,0.4,0.3,0.7
				c0,0.4,0,0.8-0.1,1.2C71,15,71,15.5,71,16c0,0.9,0.1,1.5,0.2,2s0.3,0.9,0.5,1.2s0.4,0.5,0.5,0.7S72.5,20.2,72.5,20.4z"/>
			<path class="st0" d="M93.2,25c0,0.9-0.3,1.8-0.9,2.5c-0.6,0.7-1.3,1.3-2.1,1.7c-0.8,0.5-1.7,0.8-2.6,1c-0.9,0.2-1.6,0.3-2.2,0.3
				c-1.3,0-2.3-0.3-2.9-0.8c-0.6-0.6-0.9-1.1-0.9-1.7c0-0.5,0.2-0.9,0.6-1.1c0.4-0.2,0.7-0.4,1-0.4c0.3,0,0.7,0.1,1.2,0.3
				c0.5,0.2,1.1,0.3,1.8,0.3c0.9,0,1.7-0.1,2.1-0.4s0.7-0.6,0.7-1c0-0.3-0.2-0.6-0.5-0.9c-0.4-0.2-0.8-0.4-1.3-0.6
				c-0.5-0.2-1.1-0.3-1.7-0.5c-0.6-0.2-1.2-0.4-1.7-0.6c-0.5-0.3-1-0.6-1.3-1c-0.4-0.4-0.5-0.9-0.5-1.4c0-0.7,0.2-1.5,0.7-2.3
				c0.5-0.8,1.1-1.6,1.9-2.3c0.8-0.7,1.6-1.3,2.6-1.7c1-0.5,2-0.7,3-0.7c0.9,0,1.6,0.3,2.1,0.8c0.5,0.5,0.8,1.3,0.8,2.4
				c0,0.5-0.1,0.9-0.4,1.4s-0.7,0.6-1.3,0.6c-0.4,0-0.6-0.1-0.7-0.3c-0.1-0.2-0.2-0.4-0.3-0.6s-0.2-0.4-0.4-0.6
				c-0.2-0.2-0.5-0.3-0.9-0.3c-0.2,0-0.4,0.1-0.8,0.2c-0.3,0.1-0.7,0.3-1,0.6c-0.4,0.2-0.7,0.5-0.9,0.9c-0.3,0.3-0.4,0.7-0.4,1.1
				c0,0.4,0.2,0.7,0.6,0.9c0.4,0.2,0.8,0.5,1.4,0.7c0.6,0.2,1.2,0.4,1.8,0.6c0.7,0.2,1.3,0.4,1.8,0.7c0.6,0.3,1,0.6,1.4,1
				C93.1,23.9,93.2,24.4,93.2,25z"/>
			<path class="st0" d="M108.9,30.1c0,0.4-0.1,0.7-0.3,0.8s-0.4,0.3-0.6,0.4c-0.3,0.1-0.6,0.2-0.9,0.2c-0.6,0-1-0.2-1.4-0.5
				c-0.4-0.3-0.7-0.7-0.9-1.1c-0.3-0.5-0.6-1-0.7-1.6c0-0.2-0.1-0.2-0.2-0.2c-0.1,0-0.1,0-0.2,0.1l-0.1,0.1
				c-0.5,0.5-0.9,0.9-1.4,1.3c-0.5,0.3-1,0.6-1.4,0.7c-0.5,0.2-0.9,0.3-1.2,0.3s-0.7,0.1-0.9,0.1c-0.9,0-1.6-0.2-2.1-0.5
				c-0.5-0.3-0.9-0.7-1.1-1.1c-0.2-0.4-0.4-0.8-0.5-1.2c-0.1-0.4-0.1-0.7-0.1-0.9c0-0.6,0.1-1.2,0.3-1.8c0.2-0.6,0.5-1.1,0.9-1.6
				c0.4-0.5,0.8-1,1.2-1.4c0.5-0.4,0.9-0.8,1.4-1.2c1.1-0.8,2.4-1.6,3.9-2.3c0.1,0,0.2-0.1,0.3-0.1c0.2-0.1,0.3-0.3,0.3-0.4
				c0-0.3-0.3-0.6-0.8-0.7c-0.6-0.1-1.1-0.2-1.8-0.2c-0.3,0-0.5,0-0.8,0c-0.3,0-0.5,0-0.7,0.1c-0.2,0-0.5,0-0.6,0
				c-0.3,0-0.6,0-0.8-0.1s-0.3-0.2-0.4-0.4s-0.2-0.3-0.2-0.5c0-0.2,0-0.3,0-0.4s0-0.2,0.1-0.4c0.1-0.2,0.2-0.4,0.5-0.6
				s0.6-0.4,1.1-0.6c0.5-0.2,1.1-0.3,2-0.3c0.6,0,1.2,0.1,2,0.2s1.6,0.3,2.3,0.6c0.7,0.3,1.3,0.7,1.8,1.1c0.5,0.5,0.8,1,0.8,1.7
				c0,0.5-0.2,1-0.6,1.4c-0.4,0.4-1,0.9-1.6,1.3c-0.6,0.4-1.3,0.8-2.1,1.2s-1.4,0.9-2.1,1.3c-0.6,0.5-1.2,1-1.6,1.5
				c-0.4,0.6-0.6,1.2-0.6,1.9c0,0.1,0.1,0.3,0.2,0.6c0.1,0.3,0.4,0.4,0.8,0.4c0.3,0,0.7-0.1,1-0.3c0.4-0.2,0.7-0.4,1.1-0.7
				c0.3-0.3,0.6-0.6,0.9-1c0.2-0.4,0.4-0.8,0.4-1.1c0,0,0-0.1,0-0.1V24c0-0.2,0.1-0.5,0.2-0.7c0.1-0.3,0.3-0.5,0.5-0.8
				c0.2-0.2,0.5-0.4,0.7-0.6s0.6-0.2,0.9-0.2c0.2,0,0.4,0,0.5,0.1s0.3,0.3,0.3,0.6c0.1,0.9,0.2,1.7,0.4,2.5c0.2,0.7,0.4,1.3,0.6,2
				s0.6,1.2,1.1,1.6c0.2,0.2,0.3,0.4,0.4,0.5c0.1,0.2,0.2,0.3,0.3,0.5C108.9,29.7,108.9,29.9,108.9,30.1z"/>
			<path class="st0" d="M124.8,27.9c0,0.4-0.1,0.8-0.3,1c-0.2,0.2-0.4,0.4-0.6,0.5c-0.3,0.1-0.6,0.2-0.9,0.2c-0.5,0-1-0.1-1.3-0.4
				c-0.4-0.3-0.6-0.6-0.8-0.9c-0.2-0.4-0.4-0.7-0.5-1c-0.1-0.3-0.1-0.5-0.1-0.6c0-0.1,0-0.1-0.1-0.1s-0.1,0-0.2,0.1c0,0-0.1,0-0.1,0
				c-0.5,0.9-1.1,1.6-1.6,2.1c-0.6,0.5-1.1,0.9-1.5,1.1c-0.5,0.2-0.9,0.4-1.2,0.4s-0.5,0.1-0.6,0.1c-0.8,0-1.4-0.3-2-0.8
				c-0.5-0.5-1-1.2-1.3-2c-0.3-0.8-0.6-1.6-0.7-2.5s-0.2-1.8-0.2-2.6c0-0.8,0.1-1.6,0.2-2.6c0.1-1,0.4-1.9,0.6-2.7s0.7-1.5,1.1-2.1
				c0.5-0.6,1-0.8,1.7-0.8c0.1,0,0.3,0,0.4,0c0.2,0,0.3,0.1,0.5,0.2c0.2,0.1,0.3,0.3,0.4,0.5c0.1,0.2,0.2,0.5,0.2,0.9
				c0,0.3,0,0.7-0.1,1.1c-0.1,0.4-0.2,0.9-0.5,1.5c-0.2,0.6-0.4,1.2-0.6,1.8c-0.2,0.5-0.3,1.1-0.4,1.7c-0.1,0.6-0.1,1.3-0.1,1.8
				c0,0.7,0.1,1.3,0.4,1.8s0.7,0.8,1.3,0.8c0.5-0.1,0.9-0.3,1.4-0.7c0.4-0.3,0.8-0.9,1.1-1.6c0.4-0.7,0.7-1.8,1-3.1
				c0-0.2,0.1-0.4,0.1-0.7c0-0.2,0.1-0.5,0.1-0.7c0-0.3,0-0.6,0-0.8c0-0.2,0.1-0.3,0.2-0.6c0.1-0.2,0.3-0.5,0.5-0.7
				c0.2-0.2,0.4-0.4,0.7-0.6s0.6-0.2,1-0.2c0.3,0,0.6,0.1,0.9,0.2c0.3,0.2,0.4,0.5,0.4,1c0,0.3-0.1,0.7-0.2,1.4
				c-0.1,0.6-0.2,1.6-0.2,2.8c0,0.8,0.1,1.6,0.2,2.4c0.2,0.8,0.4,1.4,0.7,1.9c0.1,0.2,0.3,0.4,0.6,0.7
				C124.7,27.3,124.8,27.6,124.8,27.9z"/>
			<path class="st0" d="M141.9,16.9c0,0.6-0.1,1-0.4,1.1c-0.3,0.2-0.6,0.3-0.8,0.3c-0.2,0-0.4,0-0.5,0s-0.2-0.1-0.2-0.1
				c0,0.4,0,0.8,0,1.2c0,0.4,0,0.9,0,1.3c0,0.8,0,1.6,0.1,2.3c0,0.8,0.1,1.4,0.2,2c0.1,0.6,0.2,1.1,0.4,1.6c0.2,0.4,0.4,0.7,0.6,0.9
				c0.2,0.2,0.3,0.3,0.3,0.5c0,0.2,0.1,0.3,0.1,0.4c0,0.4-0.1,0.7-0.3,0.9s-0.4,0.4-0.6,0.5c-0.2,0.1-0.5,0.2-0.9,0.3
				c-0.7,0-1.3-0.2-1.7-0.6c-0.4-0.4-0.7-0.9-0.9-1.4c-0.2-0.6-0.4-1.3-0.4-2c0-0.2,0-0.2-0.1-0.2c0,0-0.1,0-0.1,0.1l-0.1,0.1
				c-0.8,1.1-1.7,2-2.5,2.5c-0.8,0.6-1.6,1-2.3,1.3c-0.7,0.3-1.3,0.4-1.8,0.5s-0.8,0.1-0.9,0.1c-0.6,0-1.1-0.1-1.5-0.4
				c-0.4-0.3-0.7-0.6-0.9-1c-0.2-0.4-0.4-0.8-0.4-1.3c-0.1-0.4-0.1-0.8-0.1-1.2c0-1.6,0.3-3.1,0.9-4.4c0.6-1.3,1.4-2.5,2.4-3.4
				c1-1,2.1-1.8,3.4-2.4c1.3-0.6,2.5-1,3.8-1.3c0,0,0.1,0,0.1,0c0,0,0.1-0.1,0.1-0.1c0,0,0-0.1,0-0.1c0-0.6,0.1-1.1,0.1-1.8
				c0-0.6,0.1-1.3,0.1-2.1c0.1-1.6,0.2-3.1,0.3-4.4c0.1-0.6,0.1-1.2,0.2-1.7c0.1-0.6,0.2-1.1,0.3-1.6c0.1-0.5,0.3-0.9,0.4-1.3
				s0.3-0.6,0.5-0.8c0.2-0.2,0.4-0.3,0.6-0.5c0.2-0.1,0.3-0.2,0.6-0.3c0.2-0.1,0.5-0.2,0.7-0.2c0.2,0,0.5,0.1,0.7,0.2
				s0.3,0.5,0.3,1.1c0,0.3,0,0.7-0.1,1.2c-0.2,1.1-0.4,2.3-0.6,3.5s-0.3,2.3-0.4,3.2c-0.1,1.2-0.2,2.3-0.3,3.4c0,0.2,0,0.4,0,0.7
				c0,0.2-0.1,0.5-0.1,0.8c0,0.3,0,0.6-0.1,1c0,0.1,0,0.1,0,0.1c0,0,0.1,0,0.1,0c0.4,0.2,0.8,0.4,1.1,0.6
				C141.7,16.1,141.9,16.5,141.9,16.9z M136.6,18.5c0-0.1-0.1-0.2-0.3-0.2c-0.8,0.1-1.6,0.4-2.3,0.8c-0.8,0.4-1.4,1-2,1.7
				c-0.6,0.7-1.1,1.4-1.5,2.2c-0.4,0.8-0.6,1.6-0.6,2.5c0,0.3,0.1,0.6,0.2,0.9c0.1,0.3,0.4,0.4,0.7,0.4c0.5,0,1.1-0.2,1.7-0.7
				c0.7-0.4,1.3-1,1.9-1.8c0.6-0.8,1.1-1.6,1.5-2.6C136.4,20.7,136.6,19.6,136.6,18.5z"/>
			<path class="st0" d="M157.4,30.1c0,0.4-0.1,0.7-0.3,0.8s-0.4,0.3-0.6,0.4c-0.3,0.1-0.6,0.2-0.9,0.2c-0.6,0-1-0.2-1.4-0.5
				c-0.4-0.3-0.7-0.7-0.9-1.1c-0.3-0.5-0.6-1-0.7-1.6c0-0.2-0.1-0.2-0.2-0.2c-0.1,0-0.1,0-0.2,0.1l-0.1,0.1
				c-0.5,0.5-0.9,0.9-1.4,1.3c-0.5,0.3-1,0.6-1.4,0.7c-0.5,0.2-0.9,0.3-1.2,0.3s-0.7,0.1-0.9,0.1c-0.9,0-1.6-0.2-2.1-0.5
				c-0.5-0.3-0.9-0.7-1.1-1.1c-0.2-0.4-0.4-0.8-0.5-1.2c-0.1-0.4-0.1-0.7-0.1-0.9c0-0.6,0.1-1.2,0.3-1.8c0.2-0.6,0.5-1.1,0.9-1.6
				c0.4-0.5,0.8-1,1.2-1.4c0.5-0.4,0.9-0.8,1.4-1.2c1.1-0.8,2.4-1.6,3.9-2.3c0.1,0,0.2-0.1,0.3-0.1c0.2-0.1,0.3-0.3,0.3-0.4
				c0-0.3-0.3-0.6-0.8-0.7c-0.6-0.1-1.1-0.2-1.8-0.2c-0.3,0-0.5,0-0.8,0c-0.3,0-0.5,0-0.7,0.1c-0.2,0-0.5,0-0.6,0
				c-0.3,0-0.6,0-0.8-0.1s-0.3-0.2-0.4-0.4s-0.2-0.3-0.2-0.5c0-0.2,0-0.3,0-0.4s0-0.2,0.1-0.4c0.1-0.2,0.2-0.4,0.5-0.6
				s0.6-0.4,1.1-0.6c0.5-0.2,1.1-0.3,2-0.3c0.6,0,1.2,0.1,2,0.2s1.6,0.3,2.3,0.6c0.7,0.3,1.3,0.7,1.8,1.1c0.5,0.5,0.8,1,0.8,1.7
				c0,0.5-0.2,1-0.6,1.4c-0.4,0.4-1,0.9-1.6,1.3c-0.6,0.4-1.3,0.8-2.1,1.2s-1.4,0.9-2.1,1.3c-0.6,0.5-1.2,1-1.6,1.5
				c-0.4,0.6-0.6,1.2-0.6,1.9c0,0.1,0.1,0.3,0.2,0.6c0.1,0.3,0.4,0.4,0.8,0.4c0.3,0,0.7-0.1,1-0.3c0.4-0.2,0.7-0.4,1.1-0.7
				c0.3-0.3,0.6-0.6,0.9-1c0.2-0.4,0.4-0.8,0.4-1.1c0,0,0-0.1,0-0.1V24c0-0.2,0.1-0.5,0.2-0.7c0.1-0.3,0.3-0.5,0.5-0.8
				c0.2-0.2,0.5-0.4,0.7-0.6s0.6-0.2,0.9-0.2c0.2,0,0.4,0,0.5,0.1s0.3,0.3,0.3,0.6c0.1,0.9,0.2,1.7,0.4,2.5c0.2,0.7,0.4,1.3,0.6,2
				s0.6,1.2,1.1,1.6c0.2,0.2,0.3,0.4,0.4,0.5c0.1,0.2,0.2,0.3,0.3,0.5C157.4,29.7,157.4,29.9,157.4,30.1z M155.5,7.3
				c0,0.2,0,0.3-0.1,0.4s-0.1,0.2-0.2,0.3c-0.1,0.1-0.2,0.2-0.3,0.2c-0.6,0.2-1.2,0.6-1.7,0.9c-0.5,0.4-1,0.8-1.4,1.1
				c-0.4,0.4-0.9,0.7-1.3,1c-0.4,0.3-0.8,0.4-1.3,0.5c-0.3,0-0.4,0-0.5-0.2c-0.1-0.1-0.1-0.2,0-0.2c0-0.6,0.2-1.2,0.5-1.8
				c0.3-0.7,0.7-1.3,1.2-1.9c0.5-0.6,0.9-1.1,1.4-1.4c0.5-0.4,0.8-0.6,1.1-0.6c0.2,0,0.4,0,0.7,0.1s0.6,0.2,0.8,0.3s0.5,0.3,0.7,0.6
				C155.4,6.6,155.5,6.9,155.5,7.3z"/>
			<path class="st0" d="M174.2,15.1c0,0.2-0.1,0.4-0.2,0.7c-0.2,0.3-0.4,0.7-0.9,1.2c-0.4,0.4-0.9,1-1.4,1.7c-0.5,0.7-1,1.6-1.5,2.5
				s-1,2-1.5,3.1c-0.5,1.1-0.9,2.4-1.3,3.7c-0.2,0.6-0.4,1.1-0.6,1.5c-0.2,0.4-0.5,0.7-0.9,1s-0.8,0.5-1.3,0.5
				c-0.6,0-1.2-0.2-1.7-0.7c-0.5-0.5-1-1.1-1.4-1.8s-0.8-1.6-1.1-2.5c-0.3-0.9-0.5-1.8-0.7-2.7c-0.2-0.9-0.3-1.7-0.4-2.5
				s-0.1-1.4-0.1-1.8c0-1,0.1-1.7,0.3-2.3c0.2-0.6,0.7-0.8,1.4-0.8c0.1,0,0.3,0,0.5,0s0.4,0.1,0.6,0.2c0.2,0.1,0.3,0.3,0.4,0.5
				s0.2,0.5,0.2,0.9c0,0.7,0.1,1.5,0.2,2.5c0.1,1,0.3,2,0.4,3c0.2,1,0.4,1.8,0.6,2.5c0.2,0.7,0.4,1.1,0.6,1.1c0.2,0,0.3-0.1,0.4-0.4
				c0.5-1.6,1.1-3.2,1.7-4.6c0.2-0.6,0.5-1.3,0.8-2c0.3-0.7,0.6-1.3,1-1.9c0.3-0.6,0.7-1.2,1.1-1.7c0.4-0.6,0.8-1,1.1-1.4
				c0.2-0.2,0.4-0.3,0.6-0.5c0.2-0.1,0.4-0.2,0.6-0.3c0.2-0.1,0.5-0.2,0.9-0.2c0.4,0,0.8,0.1,1.1,0.3C174,14,174.2,14.5,174.2,15.1z
				"/>
			<path class="st0" d="M185.7,17.4c0,0.9-0.2,1.9-0.6,2.8c-0.4,0.9-0.9,1.7-1.6,2.4c-0.7,0.7-1.4,1.3-2.3,1.7
				c-0.9,0.4-1.8,0.6-2.7,0.6c-0.1,0-0.1,0-0.2,0.1c0,0,0,0.1,0,0.1c0.1,0.7,0.2,1.3,0.5,1.7c0.3,0.4,0.5,0.7,0.8,1
				c0.3,0.3,0.7,0.5,1.1,0.6c0.8,0.2,1.3,0.5,1.4,0.8c0.2,0.4,0.3,0.7,0.3,0.9c0,0.4-0.1,0.7-0.3,0.9c-0.2,0.2-0.4,0.3-0.7,0.4
				c-0.3,0.1-0.6,0.2-0.9,0.2c-1,0-1.9-0.2-2.6-0.7c-0.7-0.5-1.2-1-1.7-1.6c-0.5-0.7-0.9-1.5-1.1-2.3l-0.1-0.6
				c-0.1-0.2-0.1-0.4-0.1-0.6c0-0.2-0.1-0.5-0.1-0.9c0,0,0-0.1,0-0.1c-0.1-0.1-0.1-0.1-0.2-0.1c-0.4-0.1-0.7-0.2-1-0.3
				c-0.2-0.2-0.5-0.4-0.7-0.6c-0.2-0.3-0.3-0.7-0.3-1.2c0-0.2,0.1-0.5,0.2-0.6c0.1-0.2,0.2-0.3,0.3-0.4s0.3-0.2,0.5-0.2
				c0.1,0,0.2,0,0.4,0.1s0.5,0.1,0.8,0.2c0.1,0,0.1,0,0.1,0c0,0,0,0,0,0c0.4-1.4,1-2.7,1.7-3.9c0.3-0.5,0.6-1,1-1.4
				c0.4-0.5,0.8-0.9,1.3-1.2s1-0.7,1.5-0.9c0.6-0.2,1.2-0.3,1.8-0.3c0.3,0,0.7,0,1.1,0.1c0.4,0.1,0.8,0.3,1.1,0.6
				c0.4,0.3,0.6,0.7,0.9,1.1C185.6,16,185.7,16.6,185.7,17.4z M182.4,17.8c0-0.2,0-0.3-0.1-0.5c-0.1-0.1-0.1-0.2-0.2-0.3
				c-0.1-0.1-0.2-0.2-0.4-0.2c-0.4,0-0.8,0.2-1.2,0.5c-0.4,0.3-0.8,0.8-1.1,1.3c-0.4,0.5-0.6,1-0.9,1.6s-0.3,1.1-0.3,1.5
				c0,0.2,0.1,0.2,0.2,0.2c0.2,0,0.5-0.1,1-0.3c0.4-0.2,0.9-0.4,1.4-0.8c0.5-0.3,0.9-0.8,1.2-1.3S182.4,18.6,182.4,17.8z"/>
			<path class="st0" d="M193.7,3.2c-0.5,2-0.9,4.1-1.2,6.2c-0.3,1.8-0.6,3.9-0.9,6.1c-0.2,2.2-0.4,4.3-0.4,6.4c0,1.6,0.1,3,0.3,4.4
				c0.2,1.3,0.5,2.5,1,3.4c0,0.1,0.1,0.2,0.1,0.3c0.1,0.2,0.2,0.5,0.2,0.8c0,0.3-0.2,0.6-0.5,1c-0.3,0.4-0.8,0.6-1.4,0.6
				c-0.3,0-0.6-0.1-0.8-0.2c-0.2-0.1-0.4-0.3-0.6-0.4c-0.2-0.2-0.4-0.4-0.5-0.6c-0.5-1-0.9-2.2-1.1-3.7s-0.3-3.1-0.3-4.8
				c0-1.6,0.1-3.2,0.2-4.9c0.1-1.7,0.3-3.3,0.6-5c0.2-1.6,0.5-3.2,0.8-4.8s0.6-2.9,0.9-4.2c0.1-0.3,0.2-0.5,0.4-0.8
				c0.2-0.2,0.4-0.4,0.7-0.6c0.3-0.2,0.7-0.3,1.2-0.3c0.3,0,0.7,0,0.9,0.1c0.3,0.1,0.4,0.3,0.4,0.6L193.7,3.2z"/>
		</g>
	</g>
</g>
</svg>
