<?xml version="1.0" encoding="utf-8"?>
<!-- Generator: Adobe Illustrator 21.1.0, SVG Export Plug-In . SVG Version: 6.00 Build 0)  -->
<svg version="1.1" id="Capa_1" xmlns="http://www.w3.org/2000/svg" xmlns:xlink="http://www.w3.org/1999/xlink" x="0px" y="0px"
	 viewBox="0 0 171.5 89" style="enable-background:new 0 0 171.5 89;" xml:space="preserve">
<style type="text/css">
	.st0{fill:#FFFFFF;}
</style>
<g>
	<g>
		<g>
			<path class="st0" d="M16.7,79.5c0,1.4-0.4,2.6-1.3,3.6s-1.9,1.8-3.1,2.5S10,86.7,8.7,87s-2.4,0.5-3.3,0.5c-1.9,0-3.3-0.4-4.2-1.2
				S0,84.6,0,83.8c0-0.8,0.3-1.3,0.8-1.7s1-0.5,1.4-0.5c0.4,0,1,0.2,1.7,0.5c0.7,0.3,1.6,0.5,2.6,0.5c1.4,0,2.4-0.2,3.1-0.6
				c0.7-0.4,1-0.9,1-1.4c0-0.5-0.3-0.9-0.8-1.2c-0.5-0.3-1.2-0.6-1.9-0.9c-0.8-0.2-1.6-0.5-2.5-0.7c-0.9-0.2-1.7-0.6-2.5-0.9
				c-0.8-0.4-1.4-0.8-1.9-1.4s-0.8-1.3-0.8-2.1c0-1.1,0.3-2.2,1-3.4s1.6-2.3,2.7-3.3c1.1-1,2.4-1.8,3.8-2.5s2.9-1,4.3-1
				c1.3,0,2.3,0.4,3.1,1.1s1.1,1.9,1.1,3.4c0,0.7-0.2,1.4-0.5,2s-1,0.9-1.9,0.9c-0.5,0-0.9-0.1-1.1-0.4c-0.2-0.3-0.3-0.6-0.5-0.9
				s-0.3-0.6-0.5-0.9c-0.2-0.3-0.7-0.4-1.3-0.4c-0.3,0-0.6,0.1-1.1,0.3s-1,0.5-1.5,0.8s-1,0.8-1.3,1.3c-0.4,0.5-0.6,1-0.6,1.6
				c0,0.5,0.3,1,0.8,1.3c0.5,0.4,1.2,0.7,2,1c0.8,0.3,1.7,0.6,2.6,0.9c1,0.3,1.8,0.6,2.6,1s1.5,0.9,2,1.4
				C16.5,78,16.7,78.7,16.7,79.5z"/>
			<path class="st0" d="M39.4,86.9c0,0.5-0.1,0.9-0.4,1.2s-0.6,0.5-0.9,0.6c-0.4,0.2-0.8,0.3-1.3,0.3c-0.8,0-1.5-0.2-2-0.7
				c-0.6-0.5-1-1-1.4-1.6c-0.4-0.7-0.8-1.4-1.1-2.3c0-0.2-0.1-0.3-0.3-0.3c-0.1,0-0.2,0-0.3,0.1l-0.1,0.1c-0.7,0.8-1.4,1.4-2.1,1.8
				c-0.7,0.5-1.4,0.8-2.1,1.1s-1.3,0.4-1.8,0.5s-1,0.1-1.3,0.1c-1.3,0-2.3-0.2-3.1-0.7s-1.3-1-1.7-1.6s-0.6-1.2-0.7-1.8
				c-0.1-0.6-0.1-1-0.1-1.3c0-0.9,0.2-1.7,0.5-2.6c0.3-0.8,0.7-1.6,1.3-2.3s1.1-1.4,1.8-2s1.3-1.2,2.1-1.7c1.6-1.2,3.5-2.3,5.6-3.3
				c0.1,0,0.3-0.1,0.4-0.2c0.3-0.2,0.4-0.4,0.4-0.6c0-0.5-0.4-0.8-1.2-1s-1.7-0.3-2.6-0.3c-0.4,0-0.8,0-1.2,0c-0.4,0-0.7,0.1-1,0.1
				c-0.4,0-0.7,0.1-0.9,0.1c-0.5,0-0.9,0-1.2-0.2c-0.3-0.2-0.5-0.3-0.6-0.6S22,67.5,22,67.2c0-0.2-0.1-0.4-0.1-0.6s0-0.3,0.1-0.6
				c0.1-0.3,0.3-0.6,0.7-0.9c0.4-0.3,0.9-0.6,1.6-0.9c0.7-0.2,1.6-0.4,2.8-0.4c0.8,0,1.8,0.1,2.9,0.3c1.2,0.2,2.2,0.5,3.3,0.9
				c1,0.4,1.9,1,2.7,1.6c0.7,0.7,1.1,1.5,1.1,2.5c0,0.7-0.3,1.4-0.9,2c-0.6,0.6-1.4,1.3-2.3,1.8c-0.9,0.6-1.9,1.2-3,1.8
				c-1.1,0.6-2.1,1.3-3,1.9s-1.7,1.4-2.3,2.2c-0.6,0.8-0.9,1.7-0.9,2.7c0,0.2,0.1,0.5,0.2,0.9c0.2,0.4,0.5,0.6,1.2,0.6
				c0.4,0,0.9-0.1,1.5-0.4s1.1-0.6,1.6-1c0.5-0.4,0.9-0.9,1.3-1.4c0.4-0.5,0.5-1.1,0.5-1.7c0,0-0.1-0.1-0.1-0.1V78
				c0-0.3,0.1-0.7,0.2-1.1c0.2-0.4,0.4-0.8,0.7-1.1c0.3-0.3,0.7-0.6,1.1-0.8s0.8-0.3,1.3-0.3c0.3,0,0.5,0.1,0.8,0.2s0.4,0.4,0.4,0.9
				c0.1,1.2,0.3,2.4,0.6,3.6c0.2,1,0.5,1.9,0.9,2.9s0.9,1.7,1.5,2.3c0.2,0.3,0.4,0.5,0.6,0.7c0.1,0.2,0.3,0.5,0.4,0.7
				S39.4,86.6,39.4,86.9z"/>
			<path class="st0" d="M62.2,70.1c0,1.8-0.3,3.7-0.8,5.6c-0.5,2-1.2,3.8-2.2,5.5c-0.9,1.7-2,3-3.3,4.2s-2.7,1.7-4.2,1.7
				c-0.9,0-1.6-0.2-2.1-0.7s-1-1-1.3-1.6c-0.4-0.7-0.7-1.4-0.9-2.3c-0.1-0.1-0.2-0.2-0.2-0.2c-0.2,0-0.4,0.1-0.6,0.3
				c-0.2,0.2-0.3,0.5-0.5,0.7s-0.5,0.5-0.8,0.7c-0.3,0.2-0.7,0.3-1.1,0.3c-0.4,0-0.6-0.1-0.8-0.4c-0.2-0.2-0.3-0.5-0.4-0.9
				s-0.1-0.7-0.2-1s0-0.6,0-0.8c0-2.3,0-4.9,0.1-7.9c0-2.9,0.2-6,0.4-9c0.2-3.1,0.5-6.1,0.8-9.1c0.4-3,0.9-5.7,1.5-8.1
				c0.1-0.3,0.3-0.6,0.5-0.8c0.2-0.2,0.4-0.4,0.7-0.6s0.6-0.3,1.1-0.3c0.6,0,1.1,0.1,1.5,0.4s0.6,0.6,0.8,1c0.2,0.4,0.3,0.9,0.3,1.4
				c-0.5,2.3-1,4.7-1.5,7.3c-0.4,2.3-0.7,4.8-1,7.6c-0.3,2.8-0.5,5.8-0.5,9c0,0.1,0,0.2,0,0.3c0,0.2,0.1,0.3,0.3,0.3
				c0.1,0,0.2-0.1,0.3-0.3c1.7-2.9,3.4-5.1,5.2-6.5c1.8-1.5,3.4-2.2,4.8-2.2c0.1,0,0.4,0,0.9,0.1s0.9,0.3,1.4,0.7
				c0.5,0.4,0.9,1,1.3,1.9C62,67.3,62.2,68.5,62.2,70.1z M57.2,72.3c0-1.2-0.2-1.9-0.5-2.2c-0.3-0.2-0.6-0.4-0.8-0.4
				c-0.8,0-1.6,0.4-2.3,1.3C52.9,72,52.2,73,51.6,74c-0.7,1.2-1.4,2.6-1.9,4.1c0.1,0.7,0.3,1.3,0.6,1.9c0.2,0.5,0.5,0.9,0.9,1.3
				c0.4,0.4,0.9,0.5,1.5,0.5c0.7,0,1.3-0.3,1.9-1c0.6-0.7,1.1-1.5,1.5-2.5s0.7-2,0.9-3.1C57.1,74.1,57.2,73.1,57.2,72.3z"/>
			<path class="st0" d="M82.5,68.5c0,1.4-0.3,2.7-0.9,4C81,73.8,80.3,75,79.3,76s-2,1.8-3.3,2.5c-1.2,0.6-2.5,0.9-3.9,0.9
				c-0.1,0-0.2,0-0.3,0.1c0,0-0.1,0.1-0.1,0.1c0.1,1,0.3,1.8,0.7,2.4c0.4,0.6,0.8,1,1.2,1.4c0.5,0.4,1,0.7,1.6,0.8
				c1.2,0.3,1.8,0.7,2.1,1.2c0.2,0.5,0.4,0.9,0.4,1.3c0,0.6-0.1,1-0.4,1.3c-0.3,0.3-0.6,0.5-1,0.6C75.9,88.8,75.5,89,75,89
				c-1.5,0-2.8-0.3-3.8-1s-1.8-1.5-2.4-2.3c-0.7-1-1.3-2.1-1.7-3.4l-0.2-0.8c-0.1-0.3-0.2-0.6-0.2-0.9c0-0.4-0.1-0.8-0.1-1.3
				c0,0,0-0.1-0.1-0.1c-0.1-0.1-0.2-0.1-0.3-0.1c-0.5-0.1-1-0.2-1.5-0.5c-0.4-0.2-0.7-0.5-1-0.9s-0.4-1-0.4-1.7
				c0-0.4,0.1-0.7,0.3-0.9c0.1-0.2,0.2-0.4,0.4-0.6c0.2-0.2,0.5-0.3,0.8-0.3c0.1,0,0.3,0,0.6,0.1s0.7,0.1,1.2,0.2
				c0.1,0,0.2,0,0.2-0.1c0,0,0.1,0,0.1-0.1c0.6-2.1,1.4-3.9,2.5-5.6c0.4-0.7,0.9-1.4,1.5-2.1c0.5-0.7,1.1-1.3,1.8-1.8s1.4-1,2.2-1.3
				c0.8-0.3,1.7-0.5,2.7-0.5c0.4,0,1,0.1,1.5,0.2c0.6,0.1,1.1,0.4,1.6,0.8s0.9,1,1.3,1.7C82.3,66.5,82.5,67.4,82.5,68.5z M77.7,69.1
				c0-0.3,0-0.5-0.1-0.7c-0.1-0.2-0.2-0.3-0.3-0.5s-0.3-0.2-0.6-0.2c-0.5,0-1.1,0.2-1.7,0.7c-0.6,0.5-1.2,1.1-1.7,1.8
				s-0.9,1.5-1.2,2.3c-0.3,0.8-0.5,1.6-0.5,2.2c0,0.2,0.1,0.3,0.3,0.3c0.3,0,0.8-0.1,1.4-0.4s1.3-0.6,2-1.1c0.7-0.5,1.2-1.1,1.7-1.9
				C77.5,71.1,77.7,70.2,77.7,69.1z"/>
			<path class="st0" d="M116.8,70.1c0,1.8-0.3,3.7-0.8,5.6c-0.5,2-1.2,3.8-2.2,5.5c-0.9,1.7-2,3-3.3,4.2c-1.3,1.1-2.7,1.7-4.2,1.7
				c-0.9,0-1.6-0.2-2.1-0.7s-1-1-1.3-1.6c-0.4-0.7-0.7-1.4-0.9-2.3c-0.1-0.1-0.2-0.2-0.2-0.2c-0.2,0-0.4,0.1-0.6,0.3
				c-0.2,0.2-0.3,0.5-0.5,0.7s-0.5,0.5-0.8,0.7c-0.3,0.2-0.7,0.3-1.1,0.3c-0.4,0-0.6-0.1-0.8-0.4c-0.2-0.2-0.3-0.5-0.4-0.9
				s-0.1-0.7-0.2-1s0-0.6,0-0.8c0-2.3,0-4.9,0.1-7.9c0-2.9,0.2-6,0.4-9c0.2-3.1,0.5-6.1,0.8-9.1c0.4-3,0.9-5.7,1.5-8.1
				c0.1-0.3,0.3-0.6,0.5-0.8c0.2-0.2,0.4-0.4,0.7-0.6s0.6-0.3,1.1-0.3c0.6,0,1.1,0.1,1.5,0.4c0.4,0.3,0.6,0.6,0.8,1
				c0.2,0.4,0.3,0.9,0.3,1.4c-0.5,2.3-1,4.7-1.5,7.3c-0.4,2.3-0.7,4.8-1,7.6c-0.3,2.8-0.5,5.8-0.5,9c0,0.1,0,0.2,0,0.3
				c0,0.2,0.1,0.3,0.3,0.3c0.1,0,0.2-0.1,0.3-0.3c1.7-2.9,3.4-5.1,5.2-6.5c1.8-1.5,3.4-2.2,4.8-2.2c0.1,0,0.4,0,0.9,0.1
				s0.9,0.3,1.4,0.7c0.5,0.4,0.9,1,1.3,1.9C116.6,67.3,116.8,68.5,116.8,70.1z M111.8,72.3c0-1.2-0.2-1.9-0.5-2.2
				c-0.3-0.2-0.6-0.4-0.8-0.4c-0.8,0-1.6,0.4-2.3,1.3c-0.8,0.9-1.4,1.8-2.1,2.9c-0.7,1.2-1.4,2.6-1.9,4.1c0.1,0.7,0.3,1.3,0.6,1.9
				c0.2,0.5,0.5,0.9,0.9,1.3c0.4,0.4,0.9,0.5,1.5,0.5c0.7,0,1.3-0.3,1.9-1c0.6-0.7,1.1-1.5,1.5-2.5s0.7-2,0.9-3.1
				C111.7,74.1,111.8,73.1,111.8,72.3z"/>
			<path class="st0" d="M126.3,66.8c0,0.2-0.1,0.7-0.3,1.4s-0.3,1.5-0.4,2.5c-0.1,1-0.3,2-0.4,3.2c-0.1,1.2-0.2,2.4-0.2,3.7
				c0,1,0,1.9,0.1,2.8s0.2,1.6,0.3,2.2c0.1,0.8,0.3,1.5,0.4,2.1c-0.1,0.6-0.4,1-0.9,1.2s-0.9,0.3-1.3,0.3c-0.4,0-0.8-0.1-1.1-0.3
				c-0.2-0.1-0.3-0.2-0.4-0.3c-0.8-0.9-1.3-2.1-1.6-3.7c-0.3-1.6-0.4-3.3-0.4-5.1c0-1.4,0.1-2.7,0.2-4.1c0.1-1.3,0.2-2.5,0.4-3.6
				c0.2-1.2,0.4-2.4,0.5-3.5c0-0.2,0.1-0.4,0.3-0.5c0.1-0.1,0.4-0.3,0.7-0.4c0.3-0.1,0.7-0.2,1.3-0.2c0.2,0,0.5,0,0.8,0.1
				s0.6,0.2,0.9,0.3c0.3,0.2,0.5,0.4,0.8,0.7C126.1,65.9,126.3,66.3,126.3,66.8z M128.3,54.5c0,0.3-0.1,0.7-0.2,1.3
				c-0.2,0.5-0.4,1.1-0.8,1.6c-0.4,0.5-0.8,1-1.4,1.4s-1.3,0.6-2.2,0.6c-0.8,0-1.4-0.2-1.7-0.7c-0.3-0.5-0.4-1-0.4-1.6
				c0-0.5,0.1-1,0.4-1.5c0.2-0.5,0.6-1,1-1.5c0.4-0.5,1-0.8,1.6-1.1s1.2-0.4,1.9-0.4c0.3,0,0.7,0.1,1.2,0.3
				C128.1,53,128.3,53.5,128.3,54.5z"/>
			<path class="st0" d="M147.7,68.5c0,1.4-0.3,2.7-0.9,4c-0.6,1.3-1.3,2.5-2.3,3.5c-1,1-2,1.8-3.3,2.5c-1.2,0.6-2.5,0.9-3.9,0.9
				c-0.1,0-0.2,0-0.3,0.1c0,0-0.1,0.1-0.1,0.1c0.1,1,0.3,1.8,0.7,2.4c0.4,0.6,0.8,1,1.2,1.4c0.5,0.4,1,0.7,1.6,0.8
				c1.2,0.3,1.8,0.7,2.1,1.2s0.4,0.9,0.4,1.3c0,0.6-0.1,1-0.4,1.3c-0.3,0.3-0.6,0.5-1,0.6c-0.4,0.2-0.8,0.3-1.3,0.3
				c-1.5,0-2.8-0.3-3.8-1s-1.8-1.5-2.4-2.3c-0.7-1-1.3-2.1-1.7-3.4l-0.2-0.8c-0.1-0.3-0.2-0.6-0.2-0.9c0-0.4-0.1-0.8-0.1-1.3
				c0,0,0-0.1-0.1-0.1c-0.1-0.1-0.2-0.1-0.3-0.1c-0.5-0.1-1-0.2-1.5-0.5c-0.4-0.2-0.7-0.5-1-0.9s-0.4-1-0.4-1.7
				c0-0.4,0.1-0.7,0.3-0.9c0.1-0.2,0.2-0.4,0.4-0.6c0.2-0.2,0.5-0.3,0.8-0.3c0.1,0,0.3,0,0.6,0.1c0.3,0.1,0.7,0.1,1.2,0.2
				c0.1,0,0.2,0,0.2-0.1c0,0,0.1,0,0.1-0.1c0.6-2.1,1.4-3.9,2.5-5.6c0.4-0.7,0.9-1.4,1.5-2.1c0.5-0.7,1.1-1.3,1.8-1.8
				c0.7-0.5,1.4-1,2.2-1.3c0.8-0.3,1.7-0.5,2.7-0.5c0.4,0,1,0.1,1.5,0.2s1.1,0.4,1.6,0.8c0.5,0.4,0.9,1,1.3,1.7
				C147.5,66.5,147.7,67.4,147.7,68.5z M142.9,69.1c0-0.3,0-0.5-0.1-0.7s-0.2-0.3-0.3-0.5s-0.3-0.2-0.6-0.2c-0.5,0-1.1,0.2-1.7,0.7
				s-1.2,1.1-1.7,1.8c-0.5,0.7-0.9,1.5-1.2,2.3c-0.3,0.8-0.5,1.6-0.5,2.2c0,0.2,0.1,0.3,0.3,0.3c0.3,0,0.8-0.1,1.4-0.4
				c0.6-0.2,1.3-0.6,2-1.1c0.7-0.5,1.2-1.1,1.7-1.9C142.7,71.1,142.9,70.2,142.9,69.1z"/>
			<path class="st0" d="M171.5,83.5c0,0.7-0.2,1.3-0.5,1.6s-0.7,0.7-1.1,0.8c-0.5,0.2-1,0.3-1.5,0.3c-1.1,0-2-0.4-2.6-1.2
				c-0.6-0.8-1.1-1.7-1.4-2.9c-0.3-1.1-0.5-2.3-0.5-3.5c-0.1-1.2-0.1-2.3-0.1-3.2v-1.3c0-0.4-0.2-0.7-0.5-0.7c-0.6,0-1.1,0.3-1.7,1
				c-0.6,0.7-1.1,1.5-1.7,2.5c-0.6,1-1.1,2.1-1.6,3.2c-0.5,1.2-1,2.2-1.5,3.3s-0.9,1.9-1.3,2.6c-0.4,0.7-0.8,1.1-1.1,1.2
				c-0.2,0-0.4,0.1-0.6,0.1c-0.2,0-0.4,0.1-0.5,0.1c-0.7,0-1.2-0.3-1.6-0.8c-0.4-0.5-0.7-1.2-0.9-2.1s-0.3-1.8-0.4-3
				s-0.1-2.2-0.1-3.4c0-0.9,0.1-2,0.2-3.4c0.1-1.3,0.3-2.6,0.4-3.9c0.2-1.3,0.4-2.5,0.6-3.6c0.2-1.1,0.5-1.9,0.8-2.4
				c0.2-0.4,0.5-0.8,0.8-1.1c0.3-0.3,0.6-0.5,1-0.8c0.4-0.2,0.9-0.4,1.6-0.4c0.1,0,0.2,0,0.5,0c0.2,0,0.4,0.1,0.7,0.2
				c0.2,0.1,0.4,0.3,0.6,0.5c0.2,0.2,0.3,0.5,0.3,0.9c0,0.6-0.2,1.2-0.5,2c-0.4,1-0.6,1.9-0.9,2.9c-0.2,0.8-0.4,1.8-0.6,2.8
				c-0.2,1-0.2,1.9-0.2,2.8c0,0.6,0.1,0.9,0.3,0.9c0.1,0,0.2,0,0.2-0.1c0.2-0.3,0.6-0.9,1.2-1.9c0.6-1,1.4-2,2.3-3.2
				c0.9-1.1,1.9-2.1,3-3c1.1-0.9,2.2-1.3,3.3-1.3c1.3,0,2.1,0.4,2.4,1.3c0.3,0.9,0.5,2.3,0.5,4.3c0,0.4,0,0.9-0.1,1.4
				c0,0.5-0.1,1-0.1,1.7c0,0.4,0,1,0,1.8c0,0.7,0.1,1.5,0.3,2.2c0.2,0.8,0.4,1.5,0.7,2.1c0.3,0.6,0.7,1.1,1.2,1.4l0.4,0.3
				C171.3,83,171.5,83.3,171.5,83.5z"/>
		</g>
	</g>
	<g>
		<g>
			<path class="st0" d="M37.4,13.6c0,0.7-0.3,1.3-0.8,1.7c-0.5,0.4-1.1,0.7-1.8,1c-0.8,0.3-1.6,0.5-2.6,0.6
				c-1.1,0.1-2.1,0.3-3.1,0.4c-0.9,0.1-1.7,0.3-2.4,0.4c-0.8,0.2-1.5,0.3-2.1,0.5c-0.1,0-0.2,0.1-0.2,0.1c0,0.1,0,0.1,0,0.2
				c0,0.2,0.1,0.6,0.3,1.2s0.5,1.1,0.9,1.7c0.4,0.6,1,1.1,1.7,1.6c0.7,0.5,1.6,0.7,2.7,0.7c0.3,0,0.7,0,1.1-0.1s0.8-0.2,1.2-0.3
				c0.2-0.1,0.4-0.1,0.6-0.2c0.2-0.1,0.4-0.1,0.6-0.2c0.2,0,0.4-0.1,0.7-0.1c0.4,0,0.7,0.1,0.9,0.3s0.3,0.5,0.3,1
				c0,0.5-0.1,0.9-0.4,1.4s-0.7,0.8-1.2,1.2c-0.5,0.4-1.2,0.6-1.9,0.8c-0.8,0.2-1.7,0.3-2.7,0.3c-1.1,0-2-0.1-2.9-0.3
				s-1.6-0.5-2.3-0.9c-0.6-0.4-1.2-0.8-1.7-1.3c-0.5-0.5-0.9-1-1.2-1.5c-0.8-1.2-1.3-2.6-1.6-4.1l-0.1-0.1c-0.1-0.1-0.2-0.1-0.2-0.1
				c-0.2,0-0.4,0-0.6,0.1s-0.5,0.2-0.8,0.3s-0.6,0.2-0.9,0.3c-0.3,0.1-0.5,0.1-0.7,0.1c-0.3,0-0.6-0.1-0.8-0.2
				c-0.2-0.1-0.3-0.2-0.3-0.4c-0.1-0.2-0.1-0.4-0.1-0.6c0-0.2,0-0.4,0.1-0.8s0.2-0.8,0.5-1.2c0.3-0.4,0.7-0.8,1.2-1.2
				c0.5-0.4,1.3-0.7,2.2-1c0.1,0,0.1,0,0.2,0c0.1-0.1,0.2-0.2,0.2-0.4c0-0.5,0.1-1.1,0.3-1.9c0.2-0.8,0.5-1.7,0.8-2.6
				s0.9-1.9,1.5-2.9c0.6-1,1.3-1.8,2.2-2.6c0.9-0.8,1.9-1.4,3-2c1.1-0.5,2.4-0.8,3.9-0.8c0.2,0,0.5,0,0.9,0c0.4,0,0.8,0.1,1.2,0.3
				s0.7,0.4,1,0.6c0.3,0.3,0.4,0.7,0.4,1.2c0,0.9-0.3,1.6-1,1.8S32.1,6.1,31,6.1c-1.2,0-2.2,0.3-3,0.8s-1.6,1.2-2.1,2
				c-0.6,0.8-1,1.6-1.3,2.5s-0.4,1.6-0.4,2.3c0,0.1,0,0.1,0,0.1c0.1,0.1,0.2,0.1,0.3,0.1c1.6-0.2,3.3-0.5,5.1-0.7
				c1.8-0.2,3.6-0.3,5.3-0.3c0.3,0,0.6,0,0.8,0c0.3,0,0.6,0,0.8,0.1c0.3,0,0.5,0.1,0.6,0.2C37.3,13.3,37.4,13.5,37.4,13.6z"/>
			<path class="st0" d="M49.6,22.1c0,0.9-0.3,1.8-0.9,2.5c-0.6,0.7-1.3,1.3-2.1,1.7c-0.8,0.5-1.7,0.8-2.6,1
				c-0.9,0.2-1.6,0.3-2.2,0.3c-1.3,0-2.3-0.3-2.9-0.8c-0.6-0.6-0.9-1.1-0.9-1.7c0-0.5,0.2-0.9,0.6-1.1c0.4-0.2,0.7-0.4,1-0.4
				c0.3,0,0.7,0.1,1.2,0.3c0.5,0.2,1.1,0.3,1.8,0.3c0.9,0,1.7-0.1,2.1-0.4s0.7-0.6,0.7-1c0-0.3-0.2-0.6-0.5-0.9
				c-0.4-0.2-0.8-0.4-1.3-0.6c-0.5-0.2-1.1-0.3-1.7-0.5c-0.6-0.2-1.2-0.4-1.7-0.6c-0.5-0.3-1-0.6-1.3-1c-0.4-0.4-0.5-0.9-0.5-1.4
				c0-0.7,0.2-1.5,0.7-2.3c0.5-0.8,1.1-1.6,1.9-2.3c0.8-0.7,1.6-1.3,2.6-1.7c1-0.5,2-0.7,3-0.7c0.9,0,1.6,0.3,2.1,0.8
				c0.5,0.5,0.8,1.3,0.8,2.4c0,0.5-0.1,0.9-0.4,1.4s-0.7,0.6-1.3,0.6c-0.4,0-0.6-0.1-0.7-0.3c-0.1-0.2-0.2-0.4-0.3-0.6
				s-0.2-0.4-0.4-0.6c-0.2-0.2-0.5-0.3-0.9-0.3c-0.2,0-0.4,0.1-0.8,0.2c-0.3,0.1-0.7,0.3-1,0.6c-0.4,0.2-0.7,0.5-0.9,0.9
				c-0.3,0.3-0.4,0.7-0.4,1.1c0,0.4,0.2,0.7,0.6,0.9c0.4,0.2,0.8,0.5,1.4,0.7c0.6,0.2,1.2,0.4,1.8,0.6c0.7,0.2,1.3,0.4,1.8,0.7
				c0.6,0.3,1,0.6,1.4,1C49.4,21.1,49.6,21.6,49.6,22.1z"/>
			<path class="st0" d="M62.4,8.3c0,0.3-0.1,0.5-0.2,0.7c-0.2,0.2-0.3,0.3-0.5,0.3c-0.2,0.1-0.4,0.1-0.6,0.1c-0.3,0-0.7,0-1.2,0.1
				c-0.5,0.1-1,0.1-1.4,0.3c-0.5,0.1-0.9,0.2-1.2,0.3c-0.4,0.1-0.5,0.2-0.6,0.3c-0.1,0.6-0.2,1.4-0.3,2.4c-0.1,0.8-0.1,1.9-0.2,3.2
				s-0.1,2.8-0.1,4.6c0.1,1.2,0.2,2.4,0.4,3.4c0.2,0.9,0.4,1.9,0.6,2.8c0.3,0.9,0.6,1.7,1,2.2c0.3,0.4,0.4,0.7,0.4,1
				c0,0.4-0.2,0.7-0.6,0.9c-0.4,0.2-0.7,0.3-1,0.3c-0.5,0-0.9-0.1-1.2-0.3c-0.2-0.1-0.3-0.2-0.5-0.3c-0.6-0.5-1-1.2-1.3-2.1
				c-0.3-0.9-0.6-1.8-0.8-2.8c-0.2-1-0.3-2.1-0.4-3.2c-0.1-1.1-0.1-2.2-0.1-3.2c0-0.8,0-1.7,0.1-2.7c0-1,0.1-1.9,0.2-2.8
				c0.1-1,0.2-2,0.3-3c0-0.1,0-0.1-0.1-0.1H53c-1.5,0-2.6-0.1-3.2-0.4c-0.6-0.3-0.9-0.7-0.9-1.3c0-0.1,0-0.2,0-0.4s0.1-0.4,0.3-0.6
				c0.1-0.2,0.3-0.3,0.6-0.5c0.3-0.1,0.6-0.2,1.1-0.2c0.3,0,0.6,0,0.8,0.1s0.5,0.1,0.9,0.1c0.1,0,0.3,0,0.6,0s0.4-0.1,0.4-0.3
				c0.2-1.8,0.5-3.2,0.9-4.2c0.3-1,0.7-1.7,1-2.2c0.4-0.5,0.7-0.8,1.1-0.9C57,0.1,57.3,0,57.7,0c0.2,0,0.4,0,0.5,0.1
				s0.3,0.2,0.4,0.3c0.1,0.1,0.2,0.3,0.2,0.6c0,0.4,0,0.7-0.1,1.1c-0.1,0.3-0.2,0.7-0.4,1.1c-0.2,0.4-0.3,0.9-0.5,1.5
				c-0.2,0.6-0.3,1.3-0.5,2.2c0,0.1,0,0.2,0.1,0.2c0.1,0,0.5-0.1,1-0.2c0.6-0.1,1.1-0.2,1.5-0.2c0.6,0,1,0.1,1.4,0.3
				s0.6,0.4,0.7,0.6C62.2,7.7,62.3,8,62.4,8.3z"/>
			<path class="st0" d="M73.8,27.2c0,0.4-0.1,0.7-0.3,0.8s-0.4,0.3-0.6,0.4c-0.3,0.1-0.6,0.2-0.9,0.2c-0.6,0-1-0.2-1.4-0.5
				c-0.4-0.3-0.7-0.7-0.9-1.1c-0.3-0.5-0.6-1-0.7-1.6c0-0.2-0.1-0.2-0.2-0.2c-0.1,0-0.1,0-0.2,0.1l-0.1,0.1C68,26,67.5,26.4,67,26.8
				c-0.5,0.3-1,0.6-1.4,0.7c-0.5,0.2-0.9,0.3-1.2,0.3s-0.7,0.1-0.9,0.1c-0.9,0-1.6-0.2-2.1-0.5c-0.5-0.3-0.9-0.7-1.1-1.1
				c-0.2-0.4-0.4-0.8-0.5-1.2c-0.1-0.4-0.1-0.7-0.1-0.9c0-0.6,0.1-1.2,0.3-1.8c0.2-0.6,0.5-1.1,0.9-1.6c0.4-0.5,0.8-1,1.2-1.4
				c0.5-0.4,0.9-0.8,1.4-1.2c1.1-0.8,2.4-1.6,3.9-2.3c0.1,0,0.2-0.1,0.3-0.1c0.2-0.1,0.3-0.3,0.3-0.4c0-0.3-0.3-0.6-0.8-0.7
				c-0.6-0.1-1.1-0.2-1.8-0.2c-0.3,0-0.5,0-0.8,0c-0.3,0-0.5,0-0.7,0.1c-0.2,0-0.5,0-0.6,0c-0.3,0-0.6,0-0.8-0.1s-0.3-0.2-0.4-0.4
				s-0.2-0.3-0.2-0.5c0-0.2,0-0.3,0-0.4s0-0.2,0.1-0.4c0.1-0.2,0.2-0.4,0.5-0.6s0.6-0.4,1.1-0.6c0.5-0.2,1.1-0.3,2-0.3
				c0.6,0,1.2,0.1,2,0.2s1.6,0.3,2.3,0.6c0.7,0.3,1.3,0.7,1.8,1.1c0.5,0.5,0.8,1,0.8,1.7c0,0.5-0.2,1-0.6,1.4
				c-0.4,0.4-1,0.9-1.6,1.3c-0.6,0.4-1.3,0.8-2.1,1.2s-1.4,0.9-2.1,1.3c-0.6,0.5-1.2,1-1.6,1.5c-0.4,0.6-0.6,1.2-0.6,1.9
				c0,0.1,0.1,0.3,0.2,0.6c0.1,0.3,0.4,0.4,0.8,0.4c0.3,0,0.7-0.1,1-0.3c0.4-0.2,0.7-0.4,1.1-0.7c0.3-0.3,0.6-0.6,0.9-1
				c0.2-0.4,0.4-0.8,0.4-1.1c0,0,0-0.1,0-0.1v-0.3c0-0.2,0.1-0.5,0.2-0.7c0.1-0.3,0.3-0.5,0.5-0.8c0.2-0.2,0.5-0.4,0.7-0.6
				s0.6-0.2,0.9-0.2c0.2,0,0.4,0,0.5,0.1s0.3,0.3,0.3,0.6c0.1,0.9,0.2,1.7,0.4,2.5c0.2,0.7,0.4,1.3,0.6,2s0.6,1.2,1.1,1.6
				c0.2,0.2,0.3,0.4,0.4,0.5c0.1,0.2,0.2,0.3,0.3,0.5C73.8,26.8,73.8,27,73.8,27.2z"/>
			<path class="st0" d="M87.6,17.5c0,0.2-0.1,0.4-0.3,0.6c-0.2,0.1-0.4,0.2-0.6,0.3c-0.2,0.1-0.5,0.1-0.8,0.1
				c-0.6,0-1.1-0.1-1.4-0.3c-0.3-0.2-0.6-0.4-0.8-0.7s-0.3-0.5-0.4-0.7c-0.1-0.2-0.2-0.3-0.3-0.3c-0.2,0-0.5,0.3-0.9,1
				c-0.4,0.6-0.8,1.5-1.3,2.5c-0.4,1-0.8,2.1-1.1,3.4c-0.3,1.2-0.5,2.4-0.5,3.6c0,0.5-0.1,0.9-0.4,1.1c-0.3,0.2-0.7,0.3-1.1,0.3
				c-0.5,0-0.9-0.2-1.1-0.6c-0.3-0.4-0.5-1-0.6-1.6c-0.1-0.6-0.2-1.4-0.2-2.2c0-0.8,0-1.6,0-2.3c0-1.2,0-2.4,0.1-3.6
				c0.1-1.2,0.2-2.2,0.3-3.1c0.1-0.7,0.2-1.3,0.4-1.7c0.2-0.5,0.3-0.8,0.6-1.1c0.2-0.2,0.5-0.4,0.8-0.5c0.3-0.1,0.7-0.2,1.1-0.2
				c0.2,0,0.3,0.1,0.4,0.2c0.1,0.1,0.2,0.2,0.3,0.3s0.1,0.4,0.1,0.7c0,0.2,0,0.3,0,0.4c-0.1,0.4-0.1,0.9-0.2,1.3
				c-0.1,0.4-0.1,0.8-0.2,1.4c-0.1,0.5-0.1,1-0.2,1.6c0,0.1,0,0.1,0,0.2c0,0.1,0.1,0.1,0.2,0.1s0.2-0.1,0.2-0.2
				c0.2-0.5,0.4-1,0.6-1.5c0.2-0.5,0.5-1,0.7-1.5c0.3-0.6,0.6-1.1,1-1.7c0.2-0.3,0.3-0.5,0.4-0.7s0.2-0.5,0.6-1
				c0.2-0.2,0.5-0.5,0.7-0.6c0.2-0.2,0.5-0.3,0.8-0.5s0.6-0.2,0.9-0.2c0.2,0,0.5,0.1,0.7,0.2c0.2,0.2,0.3,0.4,0.3,0.7
				c0,0.4,0,0.8-0.1,1.2c-0.1,0.4-0.1,0.8-0.1,1.4c0,0.9,0.1,1.5,0.2,2s0.3,0.9,0.5,1.2s0.4,0.5,0.5,0.7S87.6,17.4,87.6,17.5z"/>
			<path class="st0" d="M108.4,22.1c0,0.9-0.3,1.8-0.9,2.5c-0.6,0.7-1.3,1.3-2.1,1.7c-0.8,0.5-1.7,0.8-2.6,1
				c-0.9,0.2-1.6,0.3-2.3,0.3c-1.3,0-2.3-0.3-2.9-0.8c-0.6-0.6-0.9-1.1-0.9-1.7c0-0.5,0.2-0.9,0.6-1.1c0.4-0.2,0.7-0.4,1-0.4
				c0.3,0,0.7,0.1,1.2,0.3c0.5,0.2,1.1,0.3,1.8,0.3c0.9,0,1.7-0.1,2.1-0.4s0.7-0.6,0.7-1c0-0.3-0.2-0.6-0.5-0.9
				c-0.4-0.2-0.8-0.4-1.3-0.6c-0.5-0.2-1.1-0.3-1.7-0.5c-0.6-0.2-1.2-0.4-1.7-0.6c-0.5-0.3-1-0.6-1.3-1c-0.4-0.4-0.5-0.9-0.5-1.4
				c0-0.7,0.2-1.5,0.7-2.3c0.5-0.8,1.1-1.6,1.9-2.3c0.8-0.7,1.6-1.3,2.6-1.7c1-0.5,2-0.7,3-0.7c0.9,0,1.6,0.3,2.1,0.8
				c0.5,0.5,0.8,1.3,0.8,2.4c0,0.5-0.1,0.9-0.4,1.4c-0.2,0.4-0.7,0.6-1.3,0.6c-0.4,0-0.6-0.1-0.7-0.3c-0.1-0.2-0.2-0.4-0.3-0.6
				s-0.2-0.4-0.4-0.6c-0.2-0.2-0.5-0.3-0.9-0.3c-0.2,0-0.4,0.1-0.8,0.2c-0.3,0.1-0.7,0.3-1,0.6c-0.4,0.2-0.7,0.5-0.9,0.9
				c-0.3,0.3-0.4,0.7-0.4,1.1c0,0.4,0.2,0.7,0.6,0.9c0.4,0.2,0.8,0.5,1.4,0.7c0.6,0.2,1.2,0.4,1.8,0.6c0.7,0.2,1.3,0.4,1.8,0.7
				s1,0.6,1.4,1C108.2,21.1,108.4,21.6,108.4,22.1z"/>
			<path class="st0" d="M124,27.2c0,0.4-0.1,0.7-0.3,0.8s-0.4,0.3-0.6,0.4c-0.3,0.1-0.6,0.2-0.9,0.2c-0.6,0-1-0.2-1.4-0.5
				c-0.4-0.3-0.7-0.7-0.9-1.1c-0.3-0.5-0.6-1-0.7-1.6c0-0.2-0.1-0.2-0.2-0.2c-0.1,0-0.1,0-0.2,0.1l-0.1,0.1
				c-0.5,0.5-0.9,0.9-1.4,1.3s-1,0.6-1.4,0.7c-0.5,0.2-0.9,0.3-1.2,0.3s-0.7,0.1-0.9,0.1c-0.9,0-1.6-0.2-2.1-0.5
				c-0.5-0.3-0.9-0.7-1.1-1.1c-0.2-0.4-0.4-0.8-0.5-1.2c-0.1-0.4-0.1-0.7-0.1-0.9c0-0.6,0.1-1.2,0.3-1.8c0.2-0.6,0.5-1.1,0.9-1.6
				c0.4-0.5,0.8-1,1.2-1.4c0.5-0.4,0.9-0.8,1.4-1.2c1.1-0.8,2.4-1.6,3.9-2.3c0.1,0,0.2-0.1,0.3-0.1c0.2-0.1,0.3-0.3,0.3-0.4
				c0-0.3-0.3-0.6-0.8-0.7c-0.6-0.1-1.1-0.2-1.8-0.2c-0.3,0-0.5,0-0.8,0c-0.3,0-0.5,0-0.7,0.1c-0.2,0-0.5,0-0.6,0
				c-0.3,0-0.6,0-0.8-0.1s-0.3-0.2-0.4-0.4s-0.2-0.3-0.2-0.5c0-0.2,0-0.3,0-0.4s0-0.2,0.1-0.4c0.1-0.2,0.2-0.4,0.5-0.6
				c0.2-0.2,0.6-0.4,1.1-0.6c0.5-0.2,1.1-0.3,2-0.3c0.6,0,1.2,0.1,2,0.2c0.8,0.1,1.6,0.3,2.3,0.6s1.3,0.7,1.8,1.1
				c0.5,0.5,0.8,1,0.8,1.7c0,0.5-0.2,1-0.6,1.4c-0.4,0.4-1,0.9-1.6,1.3c-0.6,0.4-1.3,0.8-2.1,1.2s-1.4,0.9-2.1,1.3
				c-0.6,0.5-1.2,1-1.6,1.5c-0.4,0.6-0.6,1.2-0.6,1.9c0,0.1,0.1,0.3,0.2,0.6c0.1,0.3,0.4,0.4,0.8,0.4c0.3,0,0.7-0.1,1-0.3
				s0.7-0.4,1.1-0.7c0.3-0.3,0.6-0.6,0.9-1c0.2-0.4,0.4-0.8,0.4-1.1c0,0,0-0.1,0-0.1v-0.3c0-0.2,0.1-0.5,0.2-0.7
				c0.1-0.3,0.3-0.5,0.5-0.8c0.2-0.2,0.5-0.4,0.7-0.6s0.6-0.2,0.9-0.2c0.2,0,0.4,0,0.5,0.1s0.3,0.3,0.3,0.6c0.1,0.9,0.2,1.7,0.4,2.5
				c0.2,0.7,0.4,1.3,0.6,2s0.6,1.2,1.1,1.6c0.2,0.2,0.3,0.4,0.4,0.5c0.1,0.2,0.2,0.3,0.3,0.5C124,26.8,124,27,124,27.2z"/>
			<path class="st0" d="M140.8,24.9c0,0.5-0.1,0.9-0.3,1.1c-0.2,0.3-0.5,0.5-0.8,0.6c-0.3,0.1-0.7,0.2-1.1,0.2
				c-0.8,0-1.4-0.3-1.8-0.8c-0.4-0.5-0.7-1.2-0.9-2s-0.3-1.6-0.4-2.4c0-0.8-0.1-1.6-0.1-2.2v-0.9c0-0.3-0.1-0.5-0.4-0.5
				c-0.4,0-0.8,0.2-1.2,0.7c-0.4,0.5-0.8,1-1.1,1.7c-0.4,0.7-0.8,1.4-1.1,2.2c-0.4,0.8-0.7,1.5-1,2.3c-0.3,0.7-0.6,1.3-0.9,1.8
				c-0.3,0.5-0.5,0.8-0.8,0.8c-0.2,0-0.3,0.1-0.4,0.1c-0.1,0-0.2,0-0.4,0c-0.5,0-0.8-0.2-1.1-0.6s-0.5-0.8-0.6-1.4
				c-0.1-0.6-0.2-1.3-0.3-2c0-0.8-0.1-1.5-0.1-2.3c0-0.6,0-1.4,0.1-2.3c0.1-0.9,0.2-1.8,0.3-2.7c0.1-0.9,0.3-1.7,0.4-2.5
				c0.2-0.8,0.4-1.3,0.6-1.7c0.2-0.3,0.3-0.5,0.6-0.8c0.2-0.2,0.4-0.4,0.7-0.5c0.3-0.2,0.7-0.3,1.1-0.3c0.1,0,0.2,0,0.3,0
				c0.2,0,0.3,0.1,0.5,0.1s0.3,0.2,0.4,0.3c0.1,0.2,0.2,0.4,0.2,0.6c0,0.4-0.1,0.9-0.4,1.4c-0.2,0.7-0.4,1.3-0.6,2
				c-0.2,0.6-0.3,1.2-0.4,1.9c-0.1,0.7-0.2,1.3-0.2,1.9c0,0.4,0.1,0.6,0.2,0.6c0.1,0,0.1,0,0.1-0.1c0.1-0.2,0.4-0.6,0.8-1.3
				c0.4-0.7,1-1.4,1.6-2.2c0.6-0.8,1.3-1.4,2-2c0.7-0.6,1.5-0.9,2.3-0.9c0.9,0,1.4,0.3,1.7,0.9s0.3,1.6,0.3,3c0,0.3,0,0.6,0,1
				s0,0.7,0,1.1c0,0.3,0,0.7,0,1.2c0,0.5,0.1,1,0.2,1.5c0.1,0.5,0.3,1,0.5,1.4c0.2,0.4,0.5,0.8,0.8,0.9l0.3,0.2
				C140.8,24.6,140.8,24.7,140.8,24.9z"/>
			<path class="st0" d="M154.7,17.4c0,1.5-0.2,2.8-0.6,3.9c-0.4,1.1-1,2.1-1.7,2.8c-0.7,0.8-1.5,1.3-2.4,1.7
				c-0.9,0.4-1.8,0.6-2.6,0.6c-1.2,0-2.1-0.3-2.8-0.9c-0.6-0.6-1.1-1.2-1.4-1.9c-0.3-0.8-0.5-1.8-0.6-2.8c0-0.7,0.1-1.4,0.2-2
				c0.2-0.6,0.3-1.2,0.6-1.7c0.2-0.6,0.5-1.1,0.8-1.7c0,0,0-0.1-0.1-0.2c0,0-0.1,0-0.1,0c-0.5,0-0.9-0.1-1.1-0.3s-0.4-0.5-0.4-0.8
				c0-0.4,0.2-0.8,0.5-1.2c0.3-0.4,0.8-0.7,1.3-1c0.5-0.3,1.1-0.5,1.8-0.7c0.7-0.2,1.3-0.3,2-0.3c0.6,0,1.2,0.1,2,0.3
				c0.8,0.2,1.5,0.5,2.2,0.9c0.7,0.5,1.3,1.1,1.8,2S154.7,16,154.7,17.4z M151,18.3c0-0.8-0.1-1.4-0.3-2c-0.2-0.5-0.4-1-0.7-1.4
				c-0.3-0.4-0.8-0.6-1.4-0.6c-0.2,0-0.4,0.1-0.7,0.3c-0.3,0.2-0.5,0.5-0.7,1c-0.2,0.4-0.4,1-0.6,1.6c-0.2,0.6-0.3,1.4-0.3,2.2
				c0,0.2,0,0.6,0,1c0,0.4,0.1,0.8,0.2,1.3c0.1,0.4,0.4,0.8,0.6,1.1c0.3,0.3,0.7,0.5,1.3,0.5c0.6,0,1.1-0.3,1.4-0.8
				c0.3-0.5,0.6-1.1,0.7-1.7C150.8,20.1,150.9,19.2,151,18.3z"/>
		</g>
	</g>
</g>
</svg>
