<?xml version="1.0" encoding="utf-8"?>
<!-- Generator: Adobe Illustrator 21.1.0, SVG Export Plug-In . SVG Version: 6.00 Build 0)  -->
<svg version="1.1" id="Capa_1" xmlns="http://www.w3.org/2000/svg" xmlns:xlink="http://www.w3.org/1999/xlink" x="0px" y="0px"
	 viewBox="0 0 208.7 112.5" style="enable-background:new 0 0 208.7 112.5;" xml:space="preserve">
<style type="text/css">
	.st0{fill:#FFFFFF;}
</style>
<g>
	<g>
		<g>
			<path class="st0" d="M19.5,61.6c0,0.4-0.1,0.8-0.3,1s-0.4,0.4-0.7,0.5c-0.3,0.1-0.6,0.2-0.9,0.2c-0.4,0-1,0-1.7,0.1
				c-0.7,0.1-1.4,0.2-2.1,0.4c-0.7,0.2-1.3,0.3-1.8,0.5c-0.5,0.2-0.8,0.3-0.8,0.5c-0.1,0.9-0.3,2-0.4,3.5c-0.1,1.2-0.2,2.7-0.3,4.6
				c-0.1,1.9-0.1,4.1-0.1,6.7c0.1,1.8,0.3,3.4,0.6,5c0.2,1.4,0.5,2.7,0.9,4.1c0.4,1.4,0.9,2.4,1.5,3.2c0.4,0.5,0.6,1,0.6,1.4
				c0,0.6-0.3,1.1-0.9,1.4c-0.6,0.3-1.1,0.4-1.4,0.4c-0.7,0-1.3-0.2-1.7-0.5c-0.3-0.1-0.5-0.3-0.7-0.5c-0.8-0.8-1.4-1.8-1.9-3
				c-0.5-1.3-0.9-2.6-1.1-4.1c-0.3-1.5-0.5-3-0.6-4.6c-0.1-1.6-0.2-3.2-0.2-4.6c0-1.2,0-2.5,0.1-3.9c0.1-1.4,0.1-2.7,0.2-4
				c0.1-1.5,0.3-2.9,0.4-4.3c0-0.1,0-0.2-0.1-0.2H5.8c-2.2,0-3.7-0.2-4.6-0.6c-0.8-0.4-1.3-1-1.3-1.8c0-0.1,0-0.3,0.1-0.6
				s0.2-0.5,0.4-0.8s0.5-0.5,0.9-0.7s0.9-0.3,1.6-0.3c0.5,0,0.9,0,1.1,0.1c0.3,0.1,0.7,0.1,1.3,0.1c0.1,0,0.4,0,0.8-0.1
				c0.4,0,0.6-0.2,0.6-0.4c0.4-2.6,0.8-4.6,1.2-6c0.5-1.4,1-2.5,1.5-3.2c0.5-0.7,1-1.1,1.6-1.3s1.1-0.2,1.6-0.2c0.3,0,0.5,0,0.7,0.1
				c0.2,0.1,0.4,0.2,0.6,0.4c0.2,0.2,0.2,0.5,0.2,0.8c0,0.5-0.1,1-0.2,1.5c-0.1,0.5-0.3,1-0.5,1.6c-0.2,0.6-0.5,1.3-0.7,2.1
				s-0.5,1.9-0.8,3.2c0,0.2,0.1,0.3,0.2,0.3c0.2,0,0.7-0.1,1.5-0.3c0.8-0.2,1.5-0.3,2.2-0.3c0.8,0,1.5,0.1,2,0.4s0.8,0.6,1.1,0.9
				C19.2,60.8,19.4,61.2,19.5,61.6z"/>
			<path class="st0" d="M36,89c0,0.5-0.1,0.9-0.4,1.2s-0.6,0.5-0.9,0.6c-0.4,0.2-0.8,0.3-1.3,0.3c-0.8,0-1.5-0.2-2-0.7
				c-0.6-0.5-1-1-1.4-1.6c-0.4-0.7-0.8-1.4-1.1-2.3c0-0.2-0.1-0.3-0.3-0.3c-0.1,0-0.2,0-0.3,0.1l-0.1,0.1c-0.7,0.8-1.4,1.4-2.1,1.8
				c-0.7,0.5-1.4,0.8-2.1,1.1s-1.3,0.4-1.8,0.5s-1,0.1-1.3,0.1c-1.3,0-2.3-0.2-3.1-0.7s-1.3-1-1.7-1.6s-0.6-1.2-0.7-1.8
				c-0.1-0.6-0.1-1-0.1-1.3c0-0.9,0.2-1.7,0.5-2.6c0.3-0.8,0.7-1.6,1.3-2.3s1.1-1.4,1.8-2s1.3-1.2,2.1-1.7c1.6-1.2,3.5-2.3,5.6-3.3
				c0.1,0,0.3-0.1,0.4-0.2c0.3-0.2,0.4-0.4,0.4-0.6c0-0.5-0.4-0.8-1.2-1s-1.7-0.3-2.6-0.3c-0.4,0-0.8,0-1.2,0c-0.4,0-0.7,0.1-1,0.1
				c-0.4,0-0.7,0.1-0.9,0.1c-0.5,0-0.9,0-1.2-0.2c-0.3-0.2-0.5-0.3-0.6-0.6s-0.2-0.5-0.3-0.7c0-0.2-0.1-0.4-0.1-0.6s0-0.3,0.1-0.6
				c0.1-0.3,0.3-0.6,0.7-0.9c0.4-0.3,0.9-0.6,1.6-0.9c0.7-0.2,1.6-0.4,2.8-0.4c0.8,0,1.8,0.1,2.9,0.3c1.2,0.2,2.2,0.5,3.3,0.9
				c1,0.4,1.9,1,2.7,1.6c0.7,0.7,1.1,1.5,1.1,2.5c0,0.7-0.3,1.4-0.9,2c-0.6,0.6-1.4,1.3-2.3,1.8c-0.9,0.6-1.9,1.2-3,1.8
				c-1.1,0.6-2.1,1.3-3,1.9s-1.7,1.4-2.3,2.2c-0.6,0.8-0.9,1.7-0.9,2.7c0,0.2,0.1,0.5,0.2,0.9c0.2,0.4,0.5,0.6,1.2,0.6
				c0.4,0,0.9-0.1,1.5-0.4s1.1-0.6,1.6-1c0.5-0.4,0.9-0.9,1.3-1.4c0.4-0.5,0.5-1.1,0.5-1.7c0,0-0.1-0.1-0.1-0.1v-0.4
				c0-0.3,0.1-0.7,0.2-1.1c0.2-0.4,0.4-0.8,0.7-1.1c0.3-0.3,0.7-0.6,1.1-0.8s0.8-0.3,1.3-0.3c0.3,0,0.5,0.1,0.8,0.2s0.4,0.4,0.4,0.9
				c0.1,1.2,0.3,2.4,0.6,3.6c0.2,1,0.5,1.9,0.9,2.9s0.9,1.7,1.5,2.3c0.2,0.3,0.4,0.5,0.6,0.7c0.1,0.2,0.3,0.5,0.4,0.7S36,88.7,36,89
				z"/>
			<path class="st0" d="M54.9,81.6c0,1.4-0.4,2.6-1.3,3.6s-1.9,1.8-3.1,2.5s-2.4,1.2-3.7,1.5s-2.4,0.5-3.3,0.5
				c-1.9,0-3.3-0.4-4.2-1.2s-1.3-1.6-1.3-2.5c0-0.8,0.3-1.3,0.8-1.7s1-0.5,1.4-0.5c0.4,0,1,0.2,1.7,0.5c0.7,0.3,1.6,0.5,2.6,0.5
				c1.4,0,2.4-0.2,3.1-0.6c0.7-0.4,1-0.9,1-1.4c0-0.5-0.3-0.9-0.8-1.2c-0.5-0.3-1.2-0.6-1.9-0.9c-0.8-0.2-1.6-0.5-2.5-0.7
				c-0.9-0.2-1.7-0.6-2.5-0.9c-0.8-0.4-1.4-0.8-1.9-1.4s-0.8-1.3-0.8-2.1c0-1.1,0.3-2.2,1-3.4s1.6-2.3,2.7-3.3
				c1.1-1,2.4-1.8,3.8-2.5s2.9-1,4.3-1c1.3,0,2.3,0.4,3.1,1.1s1.1,1.9,1.1,3.4c0,0.7-0.2,1.4-0.5,2s-1,0.9-1.9,0.9
				c-0.5,0-0.9-0.1-1.1-0.4c-0.2-0.3-0.3-0.6-0.5-0.9s-0.3-0.6-0.5-0.9c-0.2-0.3-0.7-0.4-1.3-0.4c-0.3,0-0.6,0.1-1.1,0.3
				s-1,0.5-1.5,0.8s-1,0.8-1.3,1.3c-0.4,0.5-0.6,1-0.6,1.6c0,0.5,0.3,1,0.8,1.3c0.5,0.4,1.2,0.7,2,1c0.8,0.3,1.7,0.6,2.6,0.9
				c1,0.3,1.8,0.6,2.6,1s1.5,0.9,2,1.4C54.7,80.1,54.9,80.8,54.9,81.6z"/>
			<path class="st0" d="M73.5,61.6c0,0.4-0.1,0.8-0.3,1s-0.4,0.4-0.7,0.5c-0.3,0.1-0.6,0.2-0.9,0.2c-0.4,0-1,0-1.7,0.1
				c-0.7,0.1-1.4,0.2-2.1,0.4c-0.7,0.2-1.3,0.3-1.8,0.5c-0.5,0.2-0.8,0.3-0.8,0.5c-0.1,0.9-0.3,2-0.4,3.5c-0.1,1.2-0.2,2.7-0.3,4.6
				c-0.1,1.9-0.1,4.1-0.1,6.7c0.1,1.8,0.3,3.4,0.6,5c0.2,1.4,0.5,2.7,0.9,4.1c0.4,1.4,0.9,2.4,1.5,3.2c0.4,0.5,0.6,1,0.6,1.4
				c0,0.6-0.3,1.1-0.9,1.4c-0.6,0.3-1.1,0.4-1.4,0.4c-0.7,0-1.3-0.2-1.7-0.5c-0.3-0.1-0.5-0.3-0.7-0.5c-0.8-0.8-1.4-1.8-1.9-3
				c-0.5-1.3-0.9-2.6-1.1-4.1c-0.3-1.5-0.5-3-0.6-4.6c-0.1-1.6-0.2-3.2-0.2-4.6c0-1.2,0-2.5,0.1-3.9c0.1-1.4,0.1-2.7,0.2-4
				c0.1-1.5,0.3-2.9,0.4-4.3c0-0.1,0-0.2-0.1-0.2h-0.1c-2.2,0-3.7-0.2-4.6-0.6c-0.8-0.4-1.3-1-1.3-1.8c0-0.1,0-0.3,0.1-0.6
				s0.2-0.5,0.4-0.8s0.5-0.5,0.9-0.7s0.9-0.3,1.6-0.3c0.5,0,0.9,0,1.1,0.1c0.3,0.1,0.7,0.1,1.3,0.1c0.1,0,0.4,0,0.8-0.1
				c0.4,0,0.6-0.2,0.6-0.4c0.4-2.6,0.8-4.6,1.2-6c0.5-1.4,1-2.5,1.5-3.2c0.5-0.7,1-1.1,1.6-1.3s1.1-0.2,1.6-0.2c0.3,0,0.5,0,0.7,0.1
				c0.2,0.1,0.4,0.2,0.6,0.4c0.2,0.2,0.2,0.5,0.2,0.8c0,0.5-0.1,1-0.2,1.5c-0.1,0.5-0.3,1-0.5,1.6c-0.2,0.6-0.5,1.3-0.7,2.1
				s-0.5,1.9-0.8,3.2c0,0.2,0.1,0.3,0.2,0.3c0.2,0,0.7-0.1,1.5-0.3c0.8-0.2,1.5-0.3,2.2-0.3c0.8,0,1.5,0.1,2,0.4s0.8,0.6,1.1,0.9
				C73.2,60.8,73.4,61.2,73.5,61.6z"/>
			<path class="st0" d="M87.4,70.6c0,1.4-0.3,2.7-0.9,4c-0.6,1.3-1.3,2.5-2.3,3.5s-2,1.8-3.3,2.5c-1.2,0.6-2.5,0.9-3.9,0.9
				c-0.1,0-0.2,0-0.3,0.1c0,0-0.1,0.1-0.1,0.1c0.1,1,0.3,1.8,0.7,2.4c0.4,0.6,0.8,1,1.2,1.4c0.5,0.4,1,0.7,1.6,0.8
				c1.2,0.3,1.8,0.7,2.1,1.2c0.2,0.5,0.4,0.9,0.4,1.3c0,0.6-0.1,1-0.4,1.3c-0.3,0.3-0.6,0.5-1,0.6c-0.4,0.2-0.8,0.3-1.3,0.3
				c-1.5,0-2.8-0.3-3.8-1s-1.8-1.5-2.4-2.3c-0.7-1-1.3-2.1-1.7-3.4l-0.2-0.8c-0.1-0.3-0.2-0.6-0.2-0.9c0-0.4-0.1-0.8-0.1-1.3
				c0,0,0-0.1-0.1-0.1c-0.1-0.1-0.2-0.1-0.3-0.1c-0.5-0.1-1-0.2-1.5-0.5c-0.4-0.2-0.7-0.5-1-0.9s-0.4-1-0.4-1.7
				c0-0.4,0.1-0.7,0.3-0.9c0.1-0.2,0.2-0.4,0.4-0.6c0.2-0.2,0.5-0.3,0.8-0.3c0.1,0,0.3,0,0.6,0.1s0.7,0.1,1.2,0.2
				c0.1,0,0.2,0,0.2-0.1c0,0,0.1,0,0.1-0.1c0.6-2.1,1.4-3.9,2.5-5.6c0.4-0.7,0.9-1.4,1.5-2.1c0.5-0.7,1.1-1.3,1.8-1.8s1.4-1,2.2-1.3
				c0.8-0.3,1.7-0.5,2.7-0.5c0.4,0,1,0.1,1.5,0.2c0.6,0.1,1.1,0.4,1.6,0.8s0.9,1,1.3,1.7C87.2,68.6,87.4,69.5,87.4,70.6z M82.6,71.3
				c0-0.3,0-0.5-0.1-0.7c-0.1-0.2-0.2-0.3-0.3-0.5s-0.3-0.2-0.6-0.2c-0.5,0-1.1,0.2-1.7,0.7c-0.6,0.5-1.2,1.1-1.7,1.8
				s-0.9,1.5-1.2,2.3c-0.3,0.8-0.5,1.6-0.5,2.2c0,0.2,0.1,0.3,0.3,0.3c0.3,0,0.8-0.1,1.4-0.4s1.3-0.6,2-1.1c0.7-0.5,1.2-1.1,1.7-1.9
				C82.4,73.2,82.6,72.3,82.6,71.3z"/>
			<path class="st0" d="M105.8,81.6c0,1.4-0.4,2.6-1.3,3.6s-1.9,1.8-3.1,2.5s-2.4,1.2-3.7,1.5s-2.4,0.5-3.3,0.5
				c-1.9,0-3.3-0.4-4.2-1.2s-1.3-1.6-1.3-2.5c0-0.8,0.3-1.3,0.8-1.7s1-0.5,1.4-0.5c0.4,0,1,0.2,1.7,0.5c0.7,0.3,1.6,0.5,2.6,0.5
				c1.4,0,2.4-0.2,3.1-0.6c0.7-0.4,1-0.9,1-1.4c0-0.5-0.3-0.9-0.8-1.2c-0.5-0.3-1.2-0.6-1.9-0.9c-0.8-0.2-1.6-0.5-2.5-0.7
				c-0.9-0.2-1.7-0.6-2.5-0.9c-0.8-0.4-1.4-0.8-1.9-1.4s-0.8-1.3-0.8-2.1c0-1.1,0.3-2.2,1-3.4s1.6-2.3,2.7-3.3
				c1.1-1,2.4-1.8,3.8-2.5s2.9-1,4.3-1c1.3,0,2.3,0.4,3.1,1.1s1.1,1.9,1.1,3.4c0,0.7-0.2,1.4-0.5,2s-1,0.9-1.9,0.9
				c-0.5,0-0.9-0.1-1.1-0.4c-0.2-0.3-0.3-0.6-0.5-0.9s-0.3-0.6-0.5-0.9c-0.2-0.3-0.7-0.4-1.3-0.4c-0.3,0-0.6,0.1-1.1,0.3
				s-1,0.5-1.5,0.8s-1,0.8-1.3,1.3c-0.4,0.5-0.6,1-0.6,1.6c0,0.5,0.3,1,0.8,1.3c0.5,0.4,1.2,0.7,2,1c0.8,0.3,1.7,0.6,2.6,0.9
				c1,0.3,1.8,0.6,2.6,1s1.5,0.9,2,1.4C105.5,80.1,105.8,80.8,105.8,81.6z"/>
			<path class="st0" d="M141.9,81.2c0,2.2-0.1,4.5-0.2,6.9c-0.2,2.4-0.4,4.8-0.8,7.1c-0.4,2.3-0.8,4.5-1.4,6.6
				c-0.6,2.1-1.3,3.9-2.2,5.5c-0.9,1.6-1.9,2.8-3.1,3.8s-2.6,1.4-4.1,1.4c-0.5,0-0.9-0.1-1.2-0.2c-0.3-0.1-0.5-0.3-0.7-0.5
				c-0.2-0.2-0.3-0.4-0.4-0.7c0-0.4,0.1-0.7,0.4-1.1s0.5-0.7,0.8-1c0.4-0.3,0.8-0.6,1.3-0.9c1.5-1.3,2.7-3,3.7-4.9s1.7-4,2.2-6.2
				c0.5-2.2,0.9-4.3,1.1-6.5c0.2-2.1,0.3-4.1,0.3-5.7c0-0.5,0-0.9,0-1.3c0-0.4,0-0.8-0.1-1.1c0-0.9-0.2-1.5-0.4-1.7
				c-0.2-0.3-0.4-0.4-0.5-0.4c-0.2,0-0.8,0.4-1.7,1.3s-2,1.8-3.4,2.8c-1.3,1-2.7,2-4.2,2.8s-2.9,1.3-4.2,1.3c-0.8,0-1.4-0.2-1.9-0.5
				s-0.8-0.7-1.1-1.2c-0.2-0.5-0.4-1-0.4-1.5c0-0.5-0.1-1-0.1-1.3c0-1.7,0.5-3.6,1.4-5.6s2.2-3.9,3.7-5.6c1.5-1.7,3.2-3.2,5.1-4.4
				c1.9-1.2,3.8-1.7,5.6-1.7c0.4,0,0.8,0,1.2,0.1c0.4,0.1,0.8,0.2,1.1,0.5c0.4,0.2,0.6,0.6,0.9,1c0.2,0.4,0.3,1,0.3,1.7
				c0,0.4,0,0.7,0,0.9c0,0.3,0,0.5-0.1,0.8c0,0.3-0.1,0.6-0.1,1c-0.1,0.4-0.2,0.9-0.3,1.4l-0.1,0.1v0.1c0,0.1,0,0.2,0.1,0.2l0.3-0.1
				c0.2-0.1,0.4-0.2,0.6-0.3c0.4-0.2,0.9-0.3,1.3-0.3s0.7,0.1,0.8,0.3c0.1,0.2,0.2,0.7,0.2,1.5c0,0.9,0.1,1.8,0.1,2.7
				C141.8,79.2,141.9,80.1,141.9,81.2z M134.4,74.1c0-0.4-0.1-0.7-0.2-1c-0.1-0.2-0.2-0.4-0.4-0.7c-0.2-0.2-0.4-0.3-0.7-0.3
				c-1.2,0-2.3,0.4-3.3,1.3c-1,0.8-1.9,1.8-2.7,3c-0.8,1.1-1.3,2.2-1.8,3.4c-0.4,1.1-0.6,1.9-0.6,2.5c0,0.6,0.2,0.9,0.7,0.9
				c0.7,0,1.5-0.3,2.5-0.9s2-1.3,3-2.2c1-0.9,1.8-1.8,2.5-2.9C134.1,76,134.4,75,134.4,74.1z"/>
			<path class="st0" d="M162.8,74.7c0,2.2-0.3,4.1-0.9,5.7c-0.6,1.6-1.4,3-2.5,4.1s-2.2,1.9-3.4,2.5s-2.5,0.8-3.8,0.8
				c-1.7,0-3.1-0.4-4-1.3s-1.6-1.8-2.1-2.8c-0.5-1.2-0.8-2.6-0.9-4.1c0-1,0.1-2,0.3-2.9s0.5-1.7,0.8-2.5c0.4-0.8,0.8-1.6,1.2-2.4
				c0,0-0.1-0.1-0.2-0.3c0,0-0.1-0.1-0.1-0.1c-0.7,0-1.3-0.1-1.7-0.4s-0.6-0.7-0.6-1.1c0-0.6,0.2-1.2,0.7-1.7
				c0.5-0.6,1.1-1.1,1.9-1.5c0.8-0.4,1.6-0.8,2.6-1c1-0.3,1.9-0.4,2.8-0.4c0.8,0,1.7,0.1,2.9,0.4c1.1,0.2,2.2,0.7,3.2,1.4
				c1,0.7,1.9,1.6,2.7,2.9C162.4,71.1,162.8,72.7,162.8,74.7z M157.4,76.1c0-1.1-0.2-2.1-0.5-2.9c-0.2-0.8-0.6-1.4-1-2
				c-0.5-0.6-1.1-0.9-2-0.9c-0.3,0-0.6,0.2-1,0.5s-0.7,0.8-1.1,1.4c-0.3,0.6-0.6,1.4-0.9,2.3c-0.2,0.9-0.4,2-0.4,3.2
				c0,0.4,0,0.8,0,1.4c0,0.6,0.1,1.2,0.3,1.8c0.2,0.6,0.5,1.2,0.9,1.6c0.4,0.4,1,0.7,1.8,0.7c0.9,0,1.6-0.4,2.1-1.1
				c0.5-0.7,0.8-1.5,1.1-2.4C157.1,78.6,157.3,77.4,157.4,76.1z"/>
			<path class="st0" d="M183.6,74.7c0,2.2-0.3,4.1-0.9,5.7c-0.6,1.6-1.4,3-2.5,4.1s-2.2,1.9-3.4,2.5s-2.5,0.8-3.8,0.8
				c-1.7,0-3.1-0.4-4-1.3s-1.6-1.8-2.1-2.8c-0.5-1.2-0.8-2.6-0.9-4.1c0-1,0.1-2,0.3-2.9s0.5-1.7,0.8-2.5c0.4-0.8,0.8-1.6,1.2-2.4
				c0,0-0.1-0.1-0.2-0.3c0,0-0.1-0.1-0.1-0.1c-0.7,0-1.3-0.1-1.7-0.4s-0.6-0.7-0.6-1.1c0-0.6,0.2-1.2,0.7-1.7
				c0.5-0.6,1.1-1.1,1.9-1.5c0.8-0.4,1.6-0.8,2.6-1c1-0.3,1.9-0.4,2.8-0.4c0.8,0,1.7,0.1,2.9,0.4c1.1,0.2,2.2,0.7,3.2,1.4
				c1,0.7,1.9,1.6,2.7,2.9C183.2,71.1,183.6,72.7,183.6,74.7z M178.2,76.1c0-1.1-0.2-2.1-0.5-2.9c-0.2-0.8-0.6-1.4-1-2
				c-0.5-0.6-1.1-0.9-2-0.9c-0.3,0-0.6,0.2-1,0.5s-0.7,0.8-1.1,1.4c-0.3,0.6-0.6,1.4-0.9,2.3c-0.2,0.9-0.4,2-0.4,3.2
				c0,0.4,0,0.8,0,1.4c0,0.6,0.1,1.2,0.3,1.8c0.2,0.6,0.5,1.2,0.9,1.6c0.4,0.4,1,0.7,1.8,0.7c0.9,0,1.6-0.4,2.1-1.1
				c0.5-0.7,0.8-1.5,1.1-2.4C177.9,78.6,178.1,77.4,178.2,76.1z"/>
			<path class="st0" d="M208.7,70c0,0.8-0.2,1.4-0.6,1.7s-0.8,0.4-1.2,0.4c-0.4,0-0.6,0-0.7-0.1c-0.1,0-0.2-0.1-0.3-0.1
				c0,0.5-0.1,1.1-0.1,1.8c0,0.6,0,1.3,0,1.8c0,1.2,0,2.3,0.1,3.4s0.2,2.1,0.3,3c0.1,0.9,0.3,1.6,0.6,2.3c0.2,0.6,0.5,1.1,0.9,1.3
				c0.3,0.2,0.4,0.4,0.5,0.7s0.1,0.4,0.1,0.5c0,0.5-0.1,1-0.4,1.3c-0.3,0.3-0.6,0.5-0.9,0.7c-0.3,0.2-0.7,0.3-1.3,0.4
				c-1.1,0-1.9-0.3-2.5-0.9c-0.6-0.6-1-1.3-1.3-2c-0.4-0.8-0.6-1.8-0.6-2.9c0-0.2,0-0.3-0.1-0.3c0,0-0.1,0-0.2,0.1l-0.1,0.1
				c-1.2,1.6-2.4,2.8-3.6,3.7c-1.2,0.9-2.3,1.5-3.3,1.9s-1.8,0.6-2.6,0.7c-0.7,0.1-1.1,0.1-1.3,0.1c-0.9,0-1.7-0.2-2.2-0.6
				s-1-0.9-1.3-1.5s-0.5-1.2-0.6-1.8c-0.1-0.6-0.1-1.2-0.1-1.7c0-2.3,0.5-4.5,1.4-6.4c0.9-1.9,2.1-3.6,3.5-5
				c1.4-1.4,3.1-2.6,4.9-3.5c1.8-0.9,3.7-1.5,5.5-1.9c0,0,0.1,0,0.1-0.1c0,0,0.1-0.1,0.1-0.1c0,0,0.1-0.1,0.1-0.2
				c0-0.8,0.1-1.6,0.1-2.6c0-0.9,0.1-1.9,0.1-3c0.1-2.3,0.2-4.4,0.5-6.4c0.1-0.8,0.2-1.7,0.3-2.5c0.1-0.8,0.3-1.6,0.5-2.3
				c0.2-0.7,0.4-1.4,0.6-1.9c0.2-0.5,0.5-0.9,0.7-1.2s0.5-0.5,0.8-0.7c0.2-0.2,0.5-0.3,0.8-0.5c0.3-0.2,0.7-0.2,1-0.2
				c0.4,0,0.7,0.1,1,0.3c0.3,0.2,0.5,0.7,0.5,1.5c0,0.4-0.1,1-0.2,1.7c-0.4,1.6-0.6,3.3-0.9,5c-0.2,1.7-0.4,3.3-0.6,4.7
				c-0.2,1.7-0.3,3.3-0.5,4.8c0,0.3,0,0.6-0.1,1c0,0.3-0.1,0.7-0.1,1.1c0,0.4-0.1,0.9-0.1,1.5c0,0.1,0,0.2,0.1,0.2
				c0,0,0.1,0.1,0.1,0.1c0.6,0.2,1.1,0.5,1.6,0.9C208.4,68.7,208.7,69.3,208.7,70z M201.1,72.3c0-0.2-0.1-0.3-0.4-0.3
				c-1.2,0.1-2.3,0.5-3.4,1.2c-1.1,0.6-2.1,1.4-3,2.4c-0.9,1-1.6,2-2.1,3.2c-0.6,1.2-0.8,2.4-0.8,3.6c0,0.5,0.1,0.9,0.3,1.3
				c0.2,0.4,0.5,0.6,1.1,0.6c0.7,0,1.5-0.3,2.5-1c1-0.6,1.9-1.5,2.8-2.6c0.9-1.1,1.6-2.4,2.2-3.8S201.1,73.8,201.1,72.3z"/>
		</g>
	</g>
	<g>
		<g>
			<path class="st0" d="M38.4,19.5c0,0.4-0.1,1-0.4,1.7c-0.2,0.7-0.6,1.5-1.2,2.3s-1.2,1.6-2.1,2.4c-0.9,0.8-2,1.6-3.3,2.2
				s-2.8,1.2-4.6,1.6s-3.8,0.6-6,0.6c-0.4,0-0.8-0.2-1-0.7c-0.2-0.5-0.4-1.1-0.5-1.7c-0.1-0.7-0.2-1.4-0.2-2.2c0-0.8,0-1.4,0-2
				c0-1.7,0.1-3.4,0.3-5c0.2-1.6,0.4-3,0.7-4.2c0.3-1.4,0.6-2.8,1-4c0.5-1.1,1-1.8,1.5-2c0.6-0.3,1-0.4,1.4-0.4c0.6,0,1,0.2,1.1,0.4
				c0.1,0.2,0.2,0.4,0.2,0.6c-0.7,2.8-1.2,5.3-1.4,7.5s-0.3,4-0.3,5.4c0,0.5,0,0.9,0,1.2c0,0.3,0,0.6,0,0.9c0,0.3,0.1,0.5,0.1,0.7
				c0,0.4,0.2,0.7,0.4,0.8c0.1,0.1,0.2,0.1,0.3,0.1c1,0,2.1-0.2,3.1-0.5s2-0.8,2.9-1.3c0.9-0.6,1.6-1.2,2.1-1.8
				c0.6-0.7,0.8-1.4,0.8-2.1c0-0.9-0.4-1.6-1.1-2.2c-0.7-0.5-1.5-0.9-2.3-1.2s-1.7-0.4-2.4-0.5c-0.8-0.1-1.2-0.1-1.2-0.2
				C26.1,15.8,26,15.4,26,15c0-0.7,0.1-1.2,0.4-1.6s0.6-0.6,0.9-0.7c1.2-0.5,2.1-1,2.7-1.5c0.6-0.5,1.1-0.9,1.4-1.2
				c0.3-0.4,0.5-0.8,0.5-1.1c0-0.7-0.3-1.3-0.8-1.7c-0.5-0.5-1.2-0.8-2-1.1c-0.8-0.3-1.6-0.5-2.5-0.6c-0.9-0.1-1.7-0.2-2.4-0.2
				c-1.2,0-2.2,0.1-3.1,0.2c-0.8,0.1-1.6,0.3-2.1,0.5c-0.6,0.2-1.1,0.3-1.4,0.5c-0.4,0.1-0.7,0.2-1,0.2c-0.4,0-0.7-0.1-0.8-0.3
				c-0.1-0.2-0.2-0.5-0.2-0.8c0-0.4,0.1-0.9,0.4-1.4c0.3-0.5,0.7-0.9,1.3-1.4s1.4-0.8,2.4-1.1c1-0.3,2.2-0.4,3.5-0.4
				c1.1,0,2.4,0.1,3.9,0.4s3,0.6,4.4,1.2c1.4,0.6,2.6,1.3,3.6,2.2s1.5,2,1.5,3.3c0,0.4-0.1,0.8-0.3,1.3c-0.2,0.5-0.5,1-0.8,1.4
				c-0.4,0.5-0.8,0.9-1.3,1.3c-0.5,0.4-1.1,0.7-1.7,1c-0.1,0-0.1,0.1-0.1,0.1c-0.1,0.1-0.1,0.1-0.1,0.2s0,0.2,0.1,0.2
				c1.2,0.4,2.2,0.8,3,1.3c0.8,0.5,1.3,1,1.7,1.5c0.4,0.5,0.7,1,0.8,1.4C38.3,18.7,38.4,19.2,38.4,19.5z"/>
			<path class="st0" d="M51.8,16.6c0,0.9-0.2,1.9-0.6,2.8c-0.4,0.9-0.9,1.7-1.6,2.4c-0.7,0.7-1.4,1.3-2.3,1.7
				c-0.9,0.4-1.8,0.6-2.7,0.6c-0.1,0-0.1,0-0.2,0.1c0,0,0,0.1,0,0.1c0.1,0.7,0.2,1.3,0.5,1.7c0.3,0.4,0.5,0.7,0.8,1
				c0.3,0.3,0.7,0.5,1.1,0.6c0.8,0.2,1.3,0.5,1.4,0.8c0.2,0.4,0.3,0.7,0.3,0.9c0,0.4-0.1,0.7-0.3,0.9c-0.2,0.2-0.4,0.3-0.7,0.4
				c-0.3,0.1-0.6,0.2-0.9,0.2c-1,0-1.9-0.2-2.6-0.7c-0.7-0.5-1.2-1-1.7-1.6c-0.5-0.7-0.9-1.5-1.1-2.3L41,25.6
				c-0.1-0.2-0.1-0.4-0.1-0.6c0-0.2-0.1-0.5-0.1-0.9c0,0,0-0.1,0-0.1c-0.1-0.1-0.1-0.1-0.2-0.1c-0.4-0.1-0.7-0.2-1-0.3
				c-0.2-0.2-0.5-0.4-0.7-0.6c-0.2-0.3-0.3-0.7-0.3-1.2c0-0.2,0.1-0.5,0.2-0.6c0.1-0.2,0.2-0.3,0.3-0.4s0.3-0.2,0.5-0.2
				c0.1,0,0.2,0,0.4,0.1s0.5,0.1,0.8,0.2c0.1,0,0.1,0,0.1,0c0,0,0,0,0,0c0.4-1.4,1-2.7,1.7-3.9c0.3-0.5,0.6-1,1-1.4
				c0.4-0.5,0.8-0.9,1.3-1.2s1-0.7,1.5-0.9c0.6-0.2,1.2-0.3,1.8-0.3c0.3,0,0.7,0,1.1,0.1c0.4,0.1,0.8,0.3,1.1,0.6
				c0.4,0.3,0.6,0.7,0.9,1.1C51.7,15.2,51.8,15.9,51.8,16.6z M48.5,17.1c0-0.2,0-0.3-0.1-0.5c-0.1-0.1-0.1-0.2-0.2-0.3
				c-0.1-0.1-0.2-0.2-0.4-0.2c-0.4,0-0.8,0.2-1.2,0.5c-0.4,0.3-0.8,0.8-1.1,1.3c-0.4,0.5-0.6,1-0.9,1.6s-0.3,1.1-0.3,1.5
				c0,0.2,0.1,0.2,0.2,0.2c0.2,0,0.5-0.1,1-0.3c0.4-0.2,0.9-0.4,1.4-0.8c0.5-0.3,0.9-0.8,1.2-1.3S48.5,17.8,48.5,17.1z"/>
			<path class="st0" d="M57.5,15.4c0,0.2-0.1,0.5-0.2,0.9c-0.1,0.5-0.2,1-0.3,1.7s-0.2,1.4-0.3,2.2s-0.1,1.7-0.1,2.6
				c0,0.7,0,1.3,0.1,1.9c0.1,0.6,0.1,1.1,0.2,1.5c0.1,0.6,0.2,1,0.3,1.5c-0.1,0.4-0.3,0.7-0.6,0.8c-0.4,0.1-0.7,0.2-0.9,0.2
				c-0.3,0-0.5-0.1-0.8-0.2c-0.1-0.1-0.2-0.1-0.3-0.2c-0.5-0.6-0.9-1.5-1.1-2.6c-0.2-1.1-0.3-2.3-0.3-3.5c0-0.9,0-1.9,0.1-2.8
				c0.1-0.9,0.2-1.7,0.3-2.5c0.1-0.9,0.2-1.7,0.4-2.4c0-0.1,0.1-0.2,0.2-0.4c0.1-0.1,0.2-0.2,0.5-0.3c0.2-0.1,0.5-0.1,0.9-0.1
				c0.2,0,0.3,0,0.6,0.1s0.4,0.1,0.6,0.2s0.4,0.3,0.5,0.5C57.4,14.9,57.5,15.1,57.5,15.4z M58.9,6.9c0,0.2-0.1,0.5-0.2,0.9
				c-0.1,0.4-0.3,0.7-0.5,1.1c-0.2,0.4-0.6,0.7-1,1c-0.4,0.3-0.9,0.4-1.5,0.4c-0.6,0-1-0.2-1.2-0.5s-0.3-0.7-0.3-1.1
				c0-0.3,0.1-0.7,0.3-1.1s0.4-0.7,0.7-1c0.3-0.3,0.7-0.6,1.1-0.8c0.4-0.2,0.8-0.3,1.3-0.3c0.2,0,0.5,0.1,0.8,0.2S58.9,6.3,58.9,6.9
				z"/>
			<path class="st0" d="M75.6,27c0,0.5-0.1,0.9-0.3,1.1s-0.5,0.5-0.8,0.6c-0.3,0.1-0.7,0.2-1.1,0.2c-0.8,0-1.4-0.3-1.8-0.8
				c-0.4-0.5-0.7-1.2-0.9-2s-0.3-1.6-0.4-2.4c0-0.8-0.1-1.6-0.1-2.2v-0.9c0-0.3-0.1-0.5-0.4-0.5c-0.4,0-0.8,0.2-1.2,0.7
				c-0.4,0.5-0.8,1-1.1,1.7c-0.4,0.7-0.8,1.4-1.1,2.2c-0.4,0.8-0.7,1.5-1,2.3c-0.3,0.7-0.6,1.3-0.9,1.8c-0.3,0.5-0.5,0.8-0.8,0.8
				c-0.2,0-0.3,0.1-0.4,0.1c-0.1,0-0.2,0-0.4,0c-0.5,0-0.8-0.2-1.1-0.6c-0.3-0.4-0.5-0.8-0.6-1.4c-0.1-0.6-0.2-1.3-0.3-2
				c0-0.8-0.1-1.5-0.1-2.3c0-0.6,0-1.4,0.1-2.3c0.1-0.9,0.2-1.8,0.3-2.7c0.1-0.9,0.3-1.7,0.4-2.5c0.2-0.8,0.4-1.3,0.6-1.7
				c0.2-0.3,0.3-0.5,0.6-0.8c0.2-0.2,0.4-0.4,0.7-0.5c0.3-0.2,0.7-0.3,1.1-0.3c0.1,0,0.2,0,0.3,0s0.3,0.1,0.5,0.1
				c0.2,0.1,0.3,0.2,0.4,0.3c0.1,0.2,0.2,0.4,0.2,0.6c0,0.4-0.1,0.9-0.4,1.4c-0.2,0.7-0.4,1.3-0.6,2c-0.2,0.6-0.3,1.2-0.4,1.9
				c-0.1,0.7-0.2,1.3-0.2,1.9c0,0.4,0.1,0.6,0.2,0.6c0.1,0,0.1,0,0.1-0.1c0.1-0.2,0.4-0.6,0.8-1.3c0.4-0.7,1-1.4,1.6-2.2
				c0.6-0.8,1.3-1.4,2-2c0.7-0.6,1.5-0.9,2.3-0.9c0.9,0,1.4,0.3,1.7,0.9c0.2,0.6,0.3,1.6,0.3,3c0,0.3,0,0.6,0,1c0,0.3,0,0.7,0,1.1
				c0,0.3,0,0.7,0,1.2c0,0.5,0.1,1,0.2,1.5c0.1,0.5,0.3,1,0.5,1.4c0.2,0.4,0.5,0.8,0.8,0.9l0.3,0.2C75.5,26.7,75.6,26.9,75.6,27z"/>
			<path class="st0" d="M91.8,23.9c0,1.5-0.1,3.1-0.2,4.8c-0.1,1.7-0.3,3.3-0.5,4.9c-0.2,1.6-0.6,3.1-1,4.6
				c-0.4,1.5-0.9,2.7-1.5,3.8c-0.6,1.1-1.3,2-2.2,2.6c-0.8,0.6-1.8,1-2.8,1c-0.3,0-0.6,0-0.8-0.1c-0.2-0.1-0.4-0.2-0.5-0.4
				c-0.1-0.1-0.2-0.3-0.3-0.5c0-0.2,0.1-0.5,0.3-0.7s0.4-0.5,0.6-0.7c0.2-0.2,0.5-0.4,0.9-0.6c1-0.9,1.9-2.1,2.5-3.4
				c0.7-1.3,1.2-2.8,1.5-4.3s0.6-3,0.8-4.5s0.2-2.8,0.2-4c0-0.3,0-0.6,0-0.9s0-0.5,0-0.8c0-0.6-0.1-1-0.3-1.2
				c-0.1-0.2-0.3-0.3-0.3-0.3c-0.2,0-0.6,0.3-1.2,0.9c-0.6,0.6-1.4,1.2-2.3,2c-0.9,0.7-1.9,1.4-2.9,2c-1,0.6-2,0.9-2.9,0.9
				c-0.6,0-1-0.1-1.3-0.3c-0.3-0.2-0.6-0.5-0.7-0.8c-0.2-0.3-0.3-0.7-0.3-1s0-0.7,0-0.9c0-1.2,0.3-2.5,1-3.9
				c0.7-1.4,1.5-2.7,2.5-3.9s2.2-2.2,3.5-3c1.3-0.8,2.6-1.2,3.9-1.2c0.3,0,0.6,0,0.8,0.1c0.3,0.1,0.5,0.2,0.8,0.3
				c0.2,0.2,0.4,0.4,0.6,0.7c0.2,0.3,0.2,0.7,0.2,1.1c0,0.2,0,0.5,0,0.6s0,0.4,0,0.6c0,0.2,0,0.4-0.1,0.7s-0.1,0.6-0.2,1l0,0v0.1
				c0,0.1,0,0.1,0.1,0.1l0.2-0.1c0.2-0.1,0.3-0.1,0.4-0.2c0.3-0.1,0.6-0.2,0.9-0.2c0.3,0,0.5,0.1,0.5,0.2c0.1,0.2,0.1,0.5,0.2,1.1
				c0,0.6,0.1,1.2,0.1,1.9C91.8,22.6,91.8,23.2,91.8,23.9z M86.7,19.1c0-0.2,0-0.5-0.1-0.7c-0.1-0.2-0.2-0.3-0.3-0.5
				c-0.1-0.2-0.3-0.2-0.5-0.2c-0.8,0-1.6,0.3-2.3,0.9c-0.7,0.6-1.3,1.3-1.8,2c-0.5,0.8-0.9,1.6-1.2,2.3c-0.3,0.8-0.4,1.3-0.4,1.7
				c0,0.4,0.2,0.6,0.5,0.6c0.5,0,1-0.2,1.7-0.6c0.7-0.4,1.4-0.9,2-1.5c0.7-0.6,1.2-1.3,1.7-2C86.5,20.4,86.7,19.7,86.7,19.1z"/>
			<path class="st0" d="M115.9,25.6c0,0.9,0,1.8-0.1,2.9c-0.1,1-0.2,2.1-0.4,3.2c0,0.2-0.1,0.4-0.3,0.6s-0.4,0.3-0.6,0.3
				c-0.2,0.1-0.5,0.2-0.8,0.2c-0.7,0-1.1-0.2-1.4-0.6c-0.2-0.4-0.3-0.8-0.3-1.2c0.1-1.3,0.1-2.5,0.2-3.5c0.1-1,0.1-1.9,0.1-2.7
				c0-2-0.1-3.5-0.3-4.4c-0.2-0.9-0.4-1.3-0.8-1.3c-0.4,0-0.9,0.4-1.4,1.1c-0.5,0.7-1,1.6-1.5,2.6c-0.5,1-1,2-1.4,3.1
				c-0.4,1.1-0.7,1.9-0.9,2.6c-0.1,0.3-0.2,0.6-0.4,0.8c-0.2,0.2-0.4,0.3-0.6,0.4c-0.2,0.1-0.4,0.1-0.6,0.2c-0.2,0-0.3,0-0.5,0
				c-0.3,0-0.6-0.2-0.8-0.7c-0.2-0.4-0.4-1-0.5-1.7c-0.1-0.7-0.2-1.4-0.2-2.2c0-0.8,0-1.5,0-2.1c0-2,0.1-4.1,0.3-6.3
				c0.2-2.2,0.4-4.3,0.6-6.2c0.2-1.9,0.5-3.7,0.7-5.2c0.2-1.5,0.4-2.6,0.6-3.3c0.1-0.6,0.2-1.1,0.4-1.5c0.2-0.5,0.6-0.7,1.2-0.7
				c0.5,0,0.9,0.2,1.2,0.5c0.3,0.4,0.5,0.9,0.5,1.7c0,0.3,0,0.7,0,1.2s-0.1,1-0.3,1.7c-0.3,1.8-0.6,3.6-0.9,5.5
				c-0.2,1.6-0.5,3.3-0.6,5.1c-0.2,1.8-0.3,3.5-0.3,5.1c0,0.1,0,0.2,0,0.3c0,0.2,0.1,0.3,0.2,0.3c0.1,0,0.2-0.1,0.3-0.3
				c0-0.1,0.2-0.4,0.6-1.1c0.4-0.7,0.8-1.4,1.4-2.3c0.6-0.8,1.2-1.5,1.9-2.2c0.7-0.7,1.4-1,2.2-1c1,0,1.9,0.9,2.5,2.7
				C115.6,18.9,115.9,21.7,115.9,25.6z"/>
			<path class="st0" d="M130.4,16.6c0,0.9-0.2,1.9-0.6,2.8c-0.4,0.9-0.9,1.7-1.6,2.4c-0.7,0.7-1.4,1.3-2.3,1.7
				c-0.9,0.4-1.8,0.6-2.7,0.6c-0.1,0-0.1,0-0.2,0.1c0,0,0,0.1,0,0.1c0.1,0.7,0.2,1.3,0.5,1.7c0.3,0.4,0.5,0.7,0.8,1
				c0.3,0.3,0.7,0.5,1.1,0.6c0.8,0.2,1.3,0.5,1.4,0.8c0.2,0.4,0.3,0.7,0.3,0.9c0,0.4-0.1,0.7-0.3,0.9c-0.2,0.2-0.4,0.3-0.7,0.4
				c-0.3,0.1-0.6,0.2-0.9,0.2c-1,0-1.9-0.2-2.6-0.7c-0.7-0.5-1.2-1-1.7-1.6c-0.5-0.7-0.9-1.5-1.1-2.3l-0.1-0.6
				c-0.1-0.2-0.1-0.4-0.1-0.6c0-0.2-0.1-0.5-0.1-0.9c0,0,0-0.1,0-0.1c-0.1-0.1-0.1-0.1-0.2-0.1c-0.4-0.1-0.7-0.2-1-0.3
				c-0.2-0.2-0.5-0.4-0.7-0.6c-0.2-0.3-0.3-0.7-0.3-1.2c0-0.2,0.1-0.5,0.2-0.6c0.1-0.2,0.2-0.3,0.3-0.4s0.3-0.2,0.5-0.2
				c0.1,0,0.2,0,0.4,0.1s0.5,0.1,0.8,0.2c0.1,0,0.1,0,0.1,0c0,0,0,0,0,0c0.4-1.4,1-2.7,1.7-3.9c0.3-0.5,0.6-1,1-1.4
				c0.4-0.5,0.8-0.9,1.3-1.2s1-0.7,1.5-0.9c0.6-0.2,1.2-0.3,1.8-0.3c0.3,0,0.7,0,1.1,0.1c0.4,0.1,0.8,0.3,1.1,0.6
				c0.4,0.3,0.6,0.7,0.9,1.1C130.2,15.2,130.4,15.9,130.4,16.6z M127.1,17.1c0-0.2,0-0.3-0.1-0.5c-0.1-0.1-0.1-0.2-0.2-0.3
				c-0.1-0.1-0.2-0.2-0.4-0.2c-0.4,0-0.8,0.2-1.2,0.5c-0.4,0.3-0.8,0.8-1.1,1.3c-0.4,0.5-0.6,1-0.9,1.6s-0.3,1.1-0.3,1.5
				c0,0.2,0.1,0.2,0.2,0.2c0.2,0,0.5-0.1,1-0.3c0.4-0.2,0.9-0.4,1.4-0.8c0.5-0.3,0.9-0.8,1.2-1.3S127.1,17.8,127.1,17.1z"/>
			<path class="st0" d="M145.3,29.4c0,0.4-0.1,0.7-0.3,0.8s-0.4,0.3-0.6,0.4c-0.3,0.1-0.6,0.2-0.9,0.2c-0.6,0-1-0.2-1.4-0.5
				c-0.4-0.3-0.7-0.7-0.9-1.1c-0.3-0.5-0.6-1-0.7-1.6c0-0.2-0.1-0.2-0.2-0.2c-0.1,0-0.1,0-0.2,0.1l-0.1,0.1
				c-0.5,0.5-0.9,0.9-1.4,1.3c-0.5,0.3-1,0.6-1.4,0.7c-0.5,0.2-0.9,0.3-1.2,0.3S135.2,30,135,30c-0.9,0-1.6-0.2-2.1-0.5
				c-0.5-0.3-0.9-0.7-1.1-1.1c-0.2-0.4-0.4-0.8-0.5-1.2c-0.1-0.4-0.1-0.7-0.1-0.9c0-0.6,0.1-1.2,0.3-1.8c0.2-0.6,0.5-1.1,0.9-1.6
				c0.4-0.5,0.8-1,1.2-1.4c0.5-0.4,0.9-0.8,1.4-1.2c1.1-0.8,2.4-1.6,3.9-2.3c0.1,0,0.2-0.1,0.3-0.1c0.2-0.1,0.3-0.3,0.3-0.4
				c0-0.3-0.3-0.6-0.8-0.7c-0.6-0.1-1.1-0.2-1.8-0.2c-0.3,0-0.5,0-0.8,0c-0.3,0-0.5,0-0.7,0.1c-0.2,0-0.5,0-0.6,0
				c-0.3,0-0.6,0-0.8-0.1s-0.3-0.2-0.4-0.4s-0.2-0.3-0.2-0.5c0-0.2,0-0.3,0-0.4s0-0.2,0.1-0.4c0.1-0.2,0.2-0.4,0.5-0.6
				s0.6-0.4,1.1-0.6c0.5-0.2,1.1-0.3,2-0.3c0.6,0,1.2,0.1,2,0.2s1.6,0.3,2.3,0.6c0.7,0.3,1.3,0.7,1.8,1.1c0.5,0.5,0.8,1,0.8,1.7
				c0,0.5-0.2,1-0.6,1.4c-0.4,0.4-1,0.9-1.6,1.3c-0.6,0.4-1.3,0.8-2.1,1.2s-1.4,0.9-2.1,1.3c-0.6,0.5-1.2,1-1.6,1.5
				c-0.4,0.6-0.6,1.2-0.6,1.9c0,0.1,0.1,0.3,0.2,0.6c0.1,0.3,0.4,0.4,0.8,0.4c0.3,0,0.7-0.1,1-0.3c0.4-0.2,0.7-0.4,1.1-0.7
				c0.3-0.3,0.6-0.6,0.9-1c0.2-0.4,0.4-0.8,0.4-1.1c0,0,0-0.1,0-0.1v-0.3c0-0.2,0.1-0.5,0.2-0.7c0.1-0.3,0.3-0.5,0.5-0.8
				c0.2-0.2,0.5-0.4,0.7-0.6s0.6-0.2,0.9-0.2c0.2,0,0.4,0,0.5,0.1s0.3,0.3,0.3,0.6c0.1,0.9,0.2,1.7,0.4,2.5c0.2,0.7,0.4,1.3,0.6,2
				s0.6,1.2,1.1,1.6c0.2,0.2,0.3,0.4,0.4,0.5c0.1,0.2,0.2,0.3,0.3,0.5C145.3,28.9,145.3,29.1,145.3,29.4z"/>
			<path class="st0" d="M153.7,2.4c-0.5,2-0.9,4.1-1.2,6.2c-0.3,1.8-0.6,3.9-0.9,6.1c-0.2,2.2-0.4,4.3-0.4,6.4c0,1.6,0.1,3,0.3,4.4
				c0.2,1.3,0.5,2.5,1,3.4c0,0.1,0.1,0.2,0.1,0.3c0.1,0.2,0.2,0.5,0.2,0.8c0,0.3-0.2,0.6-0.5,1c-0.3,0.4-0.8,0.6-1.4,0.6
				c-0.3,0-0.6-0.1-0.8-0.2c-0.2-0.1-0.4-0.3-0.6-0.4c-0.2-0.2-0.4-0.4-0.5-0.6c-0.5-1-0.9-2.2-1.1-3.7s-0.3-3.1-0.3-4.8
				c0-1.6,0.1-3.2,0.2-4.9c0.1-1.7,0.3-3.3,0.6-5c0.2-1.6,0.5-3.2,0.8-4.8s0.6-2.9,0.9-4.2c0.1-0.3,0.2-0.5,0.4-0.8
				c0.2-0.2,0.4-0.4,0.7-0.6c0.3-0.2,0.7-0.3,1.2-0.3c0.3,0,0.7,0,0.9,0.1c0.3,0.1,0.4,0.3,0.4,0.6L153.7,2.4z"/>
			<path class="st0" d="M165.9,10.4c0,0.3-0.1,0.5-0.2,0.7c-0.2,0.2-0.3,0.3-0.5,0.3c-0.2,0.1-0.4,0.1-0.6,0.1c-0.3,0-0.7,0-1.2,0.1
				c-0.5,0.1-1,0.1-1.4,0.3c-0.5,0.1-0.9,0.2-1.2,0.3c-0.4,0.1-0.5,0.2-0.6,0.3c-0.1,0.6-0.2,1.4-0.3,2.4c-0.1,0.8-0.1,1.9-0.2,3.2
				s-0.1,2.8-0.1,4.6c0.1,1.2,0.2,2.4,0.4,3.4c0.2,0.9,0.4,1.9,0.6,2.8c0.3,0.9,0.6,1.7,1,2.2c0.3,0.4,0.4,0.7,0.4,1
				c0,0.4-0.2,0.7-0.6,0.9c-0.4,0.2-0.7,0.3-1,0.3c-0.5,0-0.9-0.1-1.2-0.3c-0.2-0.1-0.3-0.2-0.5-0.3c-0.6-0.5-1-1.2-1.3-2.1
				c-0.3-0.9-0.6-1.8-0.8-2.8c-0.2-1-0.3-2.1-0.4-3.2c-0.1-1.1-0.1-2.2-0.1-3.2c0-0.8,0-1.7,0.1-2.7c0-1,0.1-1.9,0.2-2.8
				c0.1-1,0.2-2,0.3-3c0-0.1,0-0.1-0.1-0.1h-0.1c-1.5,0-2.6-0.1-3.2-0.4c-0.6-0.3-0.9-0.7-0.9-1.3c0-0.1,0-0.2,0-0.4
				s0.1-0.4,0.3-0.6c0.1-0.2,0.3-0.3,0.6-0.5c0.3-0.1,0.6-0.2,1.1-0.2c0.3,0,0.6,0,0.8,0.1s0.5,0.1,0.9,0.1c0.1,0,0.3,0,0.6,0
				s0.4-0.1,0.4-0.3c0.2-1.8,0.5-3.2,0.9-4.2c0.3-1,0.7-1.7,1-2.2c0.4-0.5,0.7-0.8,1.1-0.9c0.4-0.1,0.8-0.2,1.1-0.2
				c0.2,0,0.4,0,0.5,0.1s0.3,0.2,0.4,0.3c0.1,0.1,0.2,0.3,0.2,0.6c0,0.4,0,0.7-0.1,1.1c-0.1,0.3-0.2,0.7-0.4,1.1
				c-0.2,0.4-0.3,0.9-0.5,1.5c-0.2,0.6-0.3,1.3-0.5,2.2c0,0.1,0,0.2,0.1,0.2c0.1,0,0.5-0.1,1-0.2c0.6-0.1,1.1-0.2,1.5-0.2
				c0.6,0,1,0.1,1.4,0.3s0.6,0.4,0.7,0.6C165.7,9.8,165.9,10.1,165.9,10.4z"/>
			<path class="st0" d="M177.4,25.6c0,0.9,0,1.8-0.1,2.9c-0.1,1-0.2,2.1-0.4,3.2c0,0.2-0.1,0.4-0.3,0.6s-0.4,0.3-0.6,0.3
				c-0.2,0.1-0.5,0.2-0.8,0.2c-0.7,0-1.1-0.2-1.4-0.6c-0.2-0.4-0.3-0.8-0.3-1.2c0.1-1.3,0.1-2.5,0.2-3.5c0.1-1,0.1-1.9,0.1-2.7
				c0-2-0.1-3.5-0.3-4.4c-0.2-0.9-0.4-1.3-0.8-1.3c-0.4,0-0.9,0.4-1.4,1.1c-0.5,0.7-1,1.6-1.5,2.6c-0.5,1-1,2-1.4,3.1
				c-0.4,1.1-0.7,1.9-0.9,2.6c-0.1,0.3-0.2,0.6-0.4,0.8c-0.2,0.2-0.4,0.3-0.6,0.4c-0.2,0.1-0.4,0.1-0.6,0.2c-0.2,0-0.3,0-0.5,0
				c-0.3,0-0.6-0.2-0.8-0.7c-0.2-0.4-0.4-1-0.5-1.7c-0.1-0.7-0.2-1.4-0.2-2.2c0-0.8,0-1.5,0-2.1c0-2,0.1-4.1,0.3-6.3
				c0.2-2.2,0.4-4.3,0.6-6.2c0.2-1.9,0.5-3.7,0.7-5.2c0.2-1.5,0.4-2.6,0.6-3.3c0.1-0.6,0.2-1.1,0.4-1.5c0.2-0.5,0.6-0.7,1.2-0.7
				c0.5,0,0.9,0.2,1.2,0.5c0.3,0.4,0.5,0.9,0.5,1.7c0,0.3,0,0.7,0,1.2s-0.1,1-0.3,1.7c-0.3,1.8-0.6,3.6-0.9,5.5
				c-0.2,1.6-0.5,3.3-0.6,5.1c-0.2,1.8-0.3,3.5-0.3,5.1c0,0.1,0,0.2,0,0.3c0,0.2,0.1,0.3,0.2,0.3c0.1,0,0.2-0.1,0.3-0.3
				c0-0.1,0.2-0.4,0.6-1.1c0.4-0.7,0.8-1.4,1.4-2.3c0.6-0.8,1.2-1.5,1.9-2.2c0.7-0.7,1.4-1,2.2-1c1,0,1.9,0.9,2.5,2.7
				C177.1,18.9,177.4,21.7,177.4,25.6z"/>
			<path class="st0" d="M192.8,17.2c0,0.5,0,0.9-0.1,1.5s-0.2,1.1-0.3,1.9c-0.1,0.7-0.2,1.6-0.3,2.6c-0.1,1-0.1,2.3-0.1,3.7
				c0,2.9-0.3,5.4-0.9,7.6s-1.3,4.1-2.2,5.6c-0.9,1.5-1.8,2.6-2.8,3.4c-1,0.8-1.9,1.1-2.6,1.1c-0.2,0-0.4,0-0.6-0.1
				s-0.2-0.2-0.3-0.3c-0.1-0.1-0.1-0.3-0.1-0.5c0-0.2,0.1-0.4,0.2-0.7c0.1-0.2,0.2-0.4,0.4-0.6c0.2-0.2,0.4-0.4,0.6-0.6
				c1.2-1.2,2.1-2.6,2.7-4.2c0.7-1.6,1.2-3.2,1.5-4.8c0.3-1.6,0.6-3.2,0.6-4.6c0.1-1.5,0.1-2.6,0.1-3.6c0-0.2,0-0.3-0.1-0.3
				c0,0-0.1,0-0.1,0.1l0,0c-0.6,1.2-1.2,2-1.8,2.6c-0.6,0.6-1.1,1-1.6,1.4c-0.6,0.3-1.1,0.5-1.6,0.6c-0.8,0-1.4-0.3-1.9-0.8
				c-0.5-0.6-0.9-1.3-1.2-2.1c-0.3-0.8-0.5-1.7-0.6-2.7s-0.2-1.8-0.2-2.6c0-2.5,0.3-4.4,1-5.8c0.7-1.4,1.6-2.1,2.7-2.1
				c0.1,0,0.2,0,0.3,0c0.2,0,0.3,0.1,0.4,0.1c0.1,0.1,0.3,0.2,0.4,0.4c0.1,0.2,0.2,0.4,0.2,0.7c0,0.3-0.1,0.7-0.3,1.2
				c-0.2,0.6-0.5,1.1-0.6,1.8c-0.2,0.6-0.3,1.2-0.4,2s-0.2,1.5-0.2,2.4c0,0.2,0,0.5,0,0.9c0,0.4,0.1,0.8,0.1,1.2
				c0.1,0.4,0.2,0.8,0.4,1.1c0.2,0.3,0.4,0.5,0.7,0.5c0.2,0,0.5-0.1,0.8-0.3c0.3-0.2,0.6-0.5,1-1c0.4-0.5,0.8-1.3,1.3-2.2
				c0.5-0.9,1.1-2.2,1.7-3.7c0.2-0.5,0.4-0.9,0.6-1.2c0.2-0.3,0.5-0.6,0.8-0.8c0.3-0.3,0.7-0.4,1.2-0.4c0.1,0,0.2,0,0.4,0
				c0.2,0,0.3,0.1,0.4,0.2s0.2,0.3,0.3,0.5S192.8,16.8,192.8,17.2z"/>
		</g>
	</g>
</g>
</svg>
