<?xml version="1.0" encoding="utf-8"?>
<!-- Generator: Adobe Illustrator 21.1.0, SVG Export Plug-In . SVG Version: 6.00 Build 0)  -->
<svg version="1.1" id="Capa_1" xmlns="http://www.w3.org/2000/svg" xmlns:xlink="http://www.w3.org/1999/xlink" x="0px" y="0px"
	 viewBox="0 0 335.9 150.8" style="enable-background:new 0 0 335.9 150.8;" xml:space="preserve">
<style type="text/css">
	.st0{fill:#FFFFFF;}
</style>
<g>
	<g>
		<g>
			<path class="st0" d="M58.3,84.4c0,1.5-0.3,3-1,4.4c-0.7,1.4-1.5,2.7-2.6,3.8s-2.2,2.2-3.5,3.2c-1.3,0.9-2.6,1.7-3.9,2.4
				c-1.3,0.6-2.6,1.1-3.8,1.5s-2.2,0.5-3,0.5c-0.7,0-1.1-0.1-1.3-0.4S39,99.3,39,99.2c0.1-0.5,0.2-0.9,0.4-1.2
				c0.2-0.3,0.4-0.5,0.7-0.7c0.3-0.2,0.6-0.3,0.9-0.3c1.7-0.4,3.3-1.1,4.9-2c1.6-0.9,2.9-1.9,4.1-3c1.2-1.1,2.1-2.3,2.8-3.4
				c0.7-1.2,1-2.3,1-3.3c0-1.1-0.3-2.1-0.9-2.9s-1.3-1.4-2.1-1.9c-0.8-0.5-1.5-0.9-2.3-1.1c-0.8-0.2-1.3-0.4-1.6-0.4
				c-0.1,0-0.1,0-0.1,0c-0.1,0.1-0.1,0.1-0.1,0.2c-0.1,0.6-0.2,1.2-0.2,1.8c-0.1,0.6-0.1,1.2-0.1,1.9c0,0.7,0,1.5,0,2.2
				c0,0.9,0,1.8,0.1,2.6c0.1,0.9,0.2,1.6,0.4,2.2c0,0.1,0.1,0.2,0.1,0.3c0,0.1,0.1,0.2,0.1,0.4c0,0.1,0,0.3,0,0.4
				c0,0.5-0.2,0.8-0.5,1c-0.4,0.2-0.8,0.3-1.2,0.3c-0.6,0-1.2-0.2-1.5-0.7c-0.4-0.5-0.7-1-0.9-1.6c-0.2-0.6-0.3-1.3-0.4-2
				c-0.1-0.7-0.1-1.3-0.1-1.7c0-1.3,0.1-2.6,0.2-4c0.1-1.4,0.3-2.7,0.5-4c0-0.1,0-0.1,0-0.1c0,0-0.1-0.1-0.2-0.1
				c-0.9-0.1-1.6-0.1-2.2-0.1c-0.6,0-0.9,0-1.1,0c-0.5,0-0.8-0.1-0.9-0.4c-0.1-0.3-0.1-0.4-0.1-0.5c0.1-0.6,0.2-1,0.6-1.3
				c0.3-0.3,0.6-0.5,1-0.7c0.4-0.2,0.8-0.3,1.3-0.3c0.5,0,0.9,0,1.2,0c0.3,0,0.7,0,1,0c0.1,0,0.2-0.1,0.2-0.2
				c0.1-0.6,0.4-1.2,0.9-1.7s1.2-0.8,2-0.8c0.1,0,0.3,0,0.5,0.1c0.2,0.1,0.3,0.3,0.3,0.6c0,0.1,0,0.3-0.1,0.7
				c-0.1,0.4-0.1,0.9-0.2,1.5c0,0.1,0,0.2,0.1,0.2c0,0,0.1,0,0.1,0c1.3,0.3,2.6,0.6,3.9,1.1c1.3,0.5,2.5,1.1,3.5,1.9
				c1,0.7,1.9,1.6,2.6,2.6C58,82.1,58.3,83.2,58.3,84.4z"/>
			<path class="st0" d="M71.4,85.7c0,0.9-0.2,1.7-0.5,2.5s-0.8,1.6-1.4,2.2c-0.6,0.6-1.3,1.2-2.1,1.5s-1.6,0.6-2.5,0.6
				c-0.1,0-0.1,0-0.2,0.1c0,0,0,0.1,0,0.1c0.1,0.6,0.2,1.1,0.4,1.5c0.2,0.4,0.5,0.7,0.7,0.9c0.3,0.2,0.6,0.4,1,0.5
				c0.7,0.2,1.2,0.5,1.3,0.8c0.2,0.3,0.2,0.6,0.2,0.8c0,0.4-0.1,0.6-0.3,0.8c-0.2,0.2-0.4,0.3-0.6,0.4c-0.3,0.1-0.5,0.2-0.8,0.2
				c-0.9,0-1.7-0.2-2.4-0.6s-1.1-0.9-1.5-1.4c-0.4-0.6-0.8-1.3-1-2.1l-0.1-0.5c-0.1-0.2-0.1-0.4-0.1-0.6c0-0.2-0.1-0.5-0.1-0.8
				c0,0,0-0.1,0-0.1c-0.1-0.1-0.1-0.1-0.2-0.1c-0.3-0.1-0.6-0.2-0.9-0.3c-0.2-0.1-0.4-0.3-0.6-0.6c-0.2-0.2-0.3-0.6-0.3-1.1
				c0-0.2,0.1-0.4,0.2-0.6c0.1-0.1,0.1-0.3,0.3-0.4c0.1-0.1,0.3-0.2,0.5-0.2c0.1,0,0.2,0,0.4,0.1c0.2,0,0.4,0.1,0.7,0.1
				c0.1,0,0.1,0,0.1,0c0,0,0,0,0,0c0.4-1.3,0.9-2.5,1.5-3.5c0.3-0.4,0.6-0.9,0.9-1.3c0.3-0.4,0.7-0.8,1.1-1.1
				c0.4-0.3,0.9-0.6,1.4-0.8c0.5-0.2,1.1-0.3,1.7-0.3c0.3,0,0.6,0,1,0.1s0.7,0.3,1,0.5c0.3,0.3,0.6,0.6,0.8,1
				C71.3,84.4,71.4,85,71.4,85.7z M68.4,86.1c0-0.2,0-0.3-0.1-0.4s-0.1-0.2-0.2-0.3s-0.2-0.1-0.4-0.1c-0.3,0-0.7,0.2-1.1,0.5
				c-0.4,0.3-0.7,0.7-1,1.1s-0.6,0.9-0.8,1.5s-0.3,1-0.3,1.4c0,0.1,0.1,0.2,0.2,0.2c0.2,0,0.5-0.1,0.9-0.2c0.4-0.2,0.8-0.4,1.2-0.7
				c0.4-0.3,0.8-0.7,1.1-1.2C68.2,87.3,68.4,86.7,68.4,86.1z"/>
			<path class="st0" d="M83.8,92.6c0,0.9-0.3,1.6-0.8,2.2c-0.5,0.6-1.2,1.2-1.9,1.6c-0.8,0.4-1.5,0.7-2.3,0.9
				c-0.8,0.2-1.5,0.3-2,0.3c-1.2,0-2.1-0.3-2.6-0.8c-0.5-0.5-0.8-1-0.8-1.6c0-0.5,0.2-0.8,0.5-1c0.3-0.2,0.6-0.3,0.9-0.3
				c0.3,0,0.6,0.1,1.1,0.3c0.4,0.2,1,0.3,1.6,0.3c0.9,0,1.5-0.1,1.9-0.4c0.4-0.3,0.6-0.6,0.6-0.9c0-0.3-0.2-0.6-0.5-0.8
				c-0.3-0.2-0.7-0.4-1.2-0.5c-0.5-0.2-1-0.3-1.6-0.5s-1.1-0.3-1.6-0.6c-0.5-0.2-0.9-0.5-1.2-0.9s-0.5-0.8-0.5-1.3
				c0-0.7,0.2-1.4,0.6-2.1c0.4-0.8,1-1.4,1.7-2.1c0.7-0.6,1.5-1.1,2.4-1.6c0.9-0.4,1.8-0.6,2.7-0.6c0.8,0,1.4,0.2,1.9,0.7
				c0.5,0.5,0.7,1.2,0.7,2.2c0,0.4-0.1,0.9-0.3,1.3c-0.2,0.4-0.6,0.6-1.2,0.6c-0.3,0-0.6-0.1-0.7-0.3c-0.1-0.2-0.2-0.4-0.3-0.6
				c-0.1-0.2-0.2-0.4-0.3-0.6s-0.4-0.3-0.8-0.3c-0.2,0-0.4,0.1-0.7,0.2c-0.3,0.1-0.6,0.3-0.9,0.5c-0.3,0.2-0.6,0.5-0.8,0.8
				c-0.2,0.3-0.4,0.6-0.4,1c0,0.3,0.2,0.6,0.5,0.8c0.3,0.2,0.8,0.4,1.3,0.6c0.5,0.2,1.1,0.4,1.7,0.5c0.6,0.2,1.1,0.4,1.7,0.6
				c0.5,0.2,0.9,0.6,1.3,0.9C83.6,91.6,83.8,92.1,83.8,92.6z"/>
			<path class="st0" d="M97,92.5c0,0.6-0.2,1.3-0.5,1.9c-0.3,0.6-0.8,1.2-1.4,1.7c-0.6,0.5-1.3,0.9-2.1,1.2
				c-0.8,0.3-1.6,0.5-2.5,0.5c-0.9,0-1.7-0.2-2.2-0.7c-0.6-0.4-1-1-1.3-1.6c-0.3-0.6-0.5-1.2-0.6-1.8c-0.1-0.6-0.1-1.1-0.1-1.4
				c0-1.1,0.2-2.2,0.6-3.4s0.9-2.2,1.6-3.2c0.7-1,1.5-1.8,2.5-2.4c1-0.6,2-0.9,3.2-0.9c0.7,0,1.3,0.1,1.6,0.4c0.4,0.3,0.6,0.6,0.8,1
				c0.2,0.4,0.3,0.9,0.4,1.4c0,0.1,0,0.4-0.1,0.9c-0.1,0.4-0.2,0.9-0.4,1.4c-0.2,0.5-0.5,0.9-0.9,1.3s-1,0.6-1.7,0.6
				c-0.3,0-0.5-0.2-0.6-0.5c-0.1-0.1-0.1-0.3-0.1-0.5s0-0.4,0.1-0.5c0.1-0.2,0.2-0.3,0.3-0.5c0.1-0.2,0.2-0.3,0.3-0.5
				c0.1-0.2,0.1-0.4,0.1-0.6c0-0.2,0-0.4-0.1-0.6c-0.1-0.2-0.3-0.3-0.6-0.3c-0.3,0-0.6,0.1-1,0.4c-0.4,0.2-0.9,0.6-1.3,1.1
				c-0.4,0.5-0.8,1.2-1.1,2c-0.3,0.8-0.4,1.8-0.4,2.9c0,0.4,0,0.7,0.1,1.1s0.1,0.7,0.3,1s0.3,0.6,0.5,0.8c0.2,0.2,0.5,0.3,0.9,0.3
				c0.2,0,0.4,0,0.6-0.1c0.3,0,0.5-0.2,0.8-0.3s0.6-0.5,1-0.8c0.3-0.4,0.7-0.9,1-1.5c0.1-0.3,0.3-0.5,0.6-0.6
				c0.2-0.2,0.5-0.3,0.7-0.3s0.4,0.1,0.6,0.2c0.1,0.1,0.2,0.3,0.3,0.4C97,92.1,97,92.3,97,92.5z"/>
			<path class="st0" d="M113.1,95.3c0,0.4-0.1,0.7-0.2,0.9c-0.2,0.2-0.3,0.4-0.6,0.4c-0.3,0.1-0.5,0.2-0.8,0.2
				c-0.5,0-0.9-0.1-1.2-0.4c-0.3-0.3-0.6-0.5-0.8-0.9c-0.2-0.3-0.3-0.6-0.4-0.9c-0.1-0.3-0.1-0.5-0.1-0.5c0-0.1,0-0.1-0.1-0.1
				c-0.1,0-0.1,0-0.2,0.1c0,0-0.1,0-0.1,0c-0.5,0.8-1,1.5-1.5,1.9c-0.5,0.5-1,0.8-1.4,1c-0.4,0.2-0.8,0.3-1.1,0.4
				c-0.3,0-0.5,0.1-0.5,0.1c-0.7,0-1.3-0.2-1.8-0.7c-0.5-0.5-0.9-1.1-1.2-1.8s-0.5-1.5-0.7-2.3c-0.1-0.8-0.2-1.6-0.2-2.4
				c0-0.7,0.1-1.5,0.2-2.4c0.1-0.9,0.3-1.7,0.6-2.4c0.3-0.8,0.6-1.4,1-1.9s0.9-0.8,1.5-0.8c0.1,0,0.2,0,0.4,0c0.2,0,0.3,0.1,0.4,0.2
				c0.1,0.1,0.3,0.2,0.4,0.4c0.1,0.2,0.1,0.5,0.1,0.8c0,0.3,0,0.6-0.1,1s-0.2,0.8-0.4,1.3c-0.2,0.5-0.4,1.1-0.5,1.6
				c-0.1,0.5-0.3,1-0.3,1.6c-0.1,0.6-0.1,1.1-0.1,1.7c0,0.6,0.1,1.2,0.3,1.7c0.2,0.5,0.6,0.7,1.2,0.7c0.4-0.1,0.9-0.3,1.3-0.7
				c0.3-0.3,0.7-0.8,1-1.5c0.4-0.7,0.7-1.6,0.9-2.8c0-0.2,0.1-0.4,0.1-0.6c0-0.2,0.1-0.4,0.1-0.7c0-0.3,0-0.5,0-0.8
				c0-0.1,0.1-0.3,0.2-0.5s0.3-0.4,0.4-0.6c0.2-0.2,0.4-0.4,0.7-0.5c0.3-0.1,0.6-0.2,0.9-0.2c0.3,0,0.6,0.1,0.8,0.2
				c0.2,0.1,0.4,0.4,0.4,0.9c0,0.3,0,0.7-0.1,1.3s-0.1,1.4-0.1,2.5c0,0.8,0.1,1.5,0.2,2.2c0.1,0.7,0.3,1.3,0.6,1.7
				c0.1,0.2,0.3,0.4,0.5,0.6C113,94.7,113.1,95,113.1,95.3z"/>
			<path class="st0" d="M128.4,86.7c0,1.1-0.2,2.3-0.5,3.6c-0.3,1.3-0.8,2.4-1.4,3.4c-0.6,1-1.3,1.9-2.1,2.6c-0.8,0.7-1.7,1-2.7,1
				c-0.6,0-1-0.1-1.3-0.4c-0.3-0.3-0.6-0.6-0.8-1c-0.3-0.4-0.4-0.9-0.6-1.5c-0.1-0.1-0.1-0.1-0.1-0.1c-0.1,0-0.3,0.1-0.4,0.2
				c-0.1,0.1-0.2,0.3-0.3,0.4c-0.1,0.2-0.3,0.3-0.5,0.4c-0.2,0.1-0.4,0.2-0.7,0.2c-0.2,0-0.4-0.1-0.5-0.2c-0.1-0.2-0.2-0.3-0.2-0.5
				c-0.1-0.2-0.1-0.4-0.1-0.6c0-0.2,0-0.4,0-0.5c0-1.4,0-3.1,0-5c0-1.9,0.1-3.7,0.2-5.7c0.1-1.9,0.3-3.8,0.5-5.7
				c0.2-1.9,0.5-3.6,1-5.1c0.1-0.2,0.2-0.4,0.3-0.5c0.1-0.1,0.3-0.3,0.4-0.4c0.2-0.1,0.4-0.2,0.7-0.2c0.4,0,0.7,0.1,0.9,0.3
				c0.2,0.2,0.4,0.4,0.5,0.6c0.1,0.3,0.2,0.6,0.2,0.9c-0.3,1.4-0.6,3-0.9,4.6c-0.2,1.4-0.4,3-0.6,4.8c-0.2,1.8-0.3,3.7-0.3,5.6
				c0,0.1,0,0.2,0,0.2c0,0.1,0.1,0.2,0.2,0.2c0.1,0,0.1-0.1,0.2-0.2c1.1-1.8,2.1-3.2,3.3-4.1c1.1-0.9,2.1-1.4,3-1.4
				c0.1,0,0.3,0,0.6,0.1c0.3,0,0.6,0.2,0.9,0.4s0.6,0.6,0.8,1.2C128.2,84.9,128.4,85.7,128.4,86.7z M125.2,88.1
				c0-0.8-0.1-1.2-0.3-1.4s-0.4-0.2-0.5-0.2c-0.5,0-1,0.3-1.5,0.8c-0.5,0.6-0.9,1.2-1.3,1.8c-0.4,0.8-0.9,1.6-1.2,2.6
				c0.1,0.4,0.2,0.8,0.4,1.2c0.1,0.3,0.3,0.6,0.6,0.8c0.2,0.2,0.5,0.3,0.9,0.3c0.4,0,0.8-0.2,1.2-0.6c0.4-0.4,0.7-1,0.9-1.6
				s0.4-1.3,0.6-1.9S125.2,88.6,125.2,88.1z"/>
			<path class="st0" d="M142.2,88.4c0,0.2-0.1,0.4-0.2,0.5c-0.2,0.1-0.3,0.2-0.5,0.3c-0.2,0.1-0.5,0.1-0.8,0.1c-0.6,0-1-0.1-1.3-0.3
				c-0.3-0.2-0.5-0.4-0.7-0.6c-0.2-0.2-0.3-0.4-0.4-0.6c-0.1-0.2-0.2-0.3-0.3-0.3c-0.2,0-0.4,0.3-0.8,0.9c-0.4,0.6-0.8,1.3-1.2,2.3
				s-0.7,1.9-1,3.1c-0.3,1.1-0.4,2.2-0.4,3.3c0,0.5-0.1,0.8-0.4,1c-0.3,0.2-0.6,0.3-1,0.3c-0.4,0-0.8-0.2-1-0.6
				c-0.2-0.4-0.4-0.9-0.5-1.5c-0.1-0.6-0.2-1.2-0.2-2c0-0.7,0-1.4,0-2.1c0-1.1,0-2.2,0.1-3.3c0.1-1.1,0.1-2,0.2-2.8
				c0.1-0.6,0.2-1.2,0.3-1.6c0.1-0.4,0.3-0.7,0.5-1c0.2-0.2,0.5-0.4,0.7-0.5c0.3-0.1,0.6-0.1,1-0.1c0.1,0,0.3,0.1,0.4,0.2
				c0.1,0.1,0.2,0.2,0.3,0.3c0.1,0.2,0.1,0.4,0.1,0.6c0,0.2,0,0.3,0,0.4c-0.1,0.4-0.1,0.8-0.2,1.2c-0.1,0.4-0.1,0.8-0.2,1.2
				c-0.1,0.5-0.1,0.9-0.1,1.4c0,0.1,0,0.1,0,0.2c0,0.1,0.1,0.1,0.2,0.1c0.1,0,0.1-0.1,0.2-0.2c0.2-0.4,0.4-0.9,0.6-1.4
				c0.2-0.4,0.4-0.9,0.7-1.4s0.6-1,0.9-1.5c0.2-0.2,0.3-0.5,0.3-0.6c0.1-0.2,0.2-0.5,0.5-0.9c0.2-0.2,0.4-0.4,0.7-0.6
				c0.2-0.1,0.5-0.3,0.7-0.4c0.3-0.1,0.5-0.2,0.8-0.2c0.2,0,0.4,0.1,0.6,0.2c0.2,0.1,0.3,0.4,0.3,0.7c0,0.4,0,0.7-0.1,1.1
				c-0.1,0.3-0.1,0.8-0.1,1.2c0,0.8,0.1,1.4,0.2,1.8c0.1,0.4,0.3,0.8,0.5,1.1c0.2,0.3,0.3,0.5,0.5,0.6
				C142.1,88.1,142.2,88.3,142.2,88.4z"/>
			<path class="st0" d="M154.8,85.7c0,0.9-0.2,1.7-0.5,2.5s-0.8,1.6-1.4,2.2c-0.6,0.6-1.3,1.2-2.1,1.5s-1.6,0.6-2.5,0.6
				c-0.1,0-0.1,0-0.2,0.1c0,0,0,0.1,0,0.1c0.1,0.6,0.2,1.1,0.4,1.5c0.2,0.4,0.5,0.7,0.7,0.9c0.3,0.2,0.6,0.4,1,0.5
				c0.7,0.2,1.2,0.5,1.3,0.8c0.2,0.3,0.2,0.6,0.2,0.8c0,0.4-0.1,0.6-0.3,0.8c-0.2,0.2-0.4,0.3-0.6,0.4c-0.3,0.1-0.5,0.2-0.8,0.2
				c-0.9,0-1.7-0.2-2.4-0.6s-1.1-0.9-1.5-1.4c-0.4-0.6-0.8-1.3-1-2.1l-0.1-0.5c-0.1-0.2-0.1-0.4-0.1-0.6c0-0.2-0.1-0.5-0.1-0.8
				c0,0,0-0.1,0-0.1c-0.1-0.1-0.1-0.1-0.2-0.1c-0.3-0.1-0.6-0.2-0.9-0.3c-0.2-0.1-0.4-0.3-0.6-0.6c-0.2-0.2-0.3-0.6-0.3-1.1
				c0-0.2,0.1-0.4,0.2-0.6c0.1-0.1,0.1-0.3,0.3-0.4c0.1-0.1,0.3-0.2,0.5-0.2c0.1,0,0.2,0,0.4,0.1c0.2,0,0.4,0.1,0.7,0.1
				c0.1,0,0.1,0,0.1,0c0,0,0,0,0,0c0.4-1.3,0.9-2.5,1.5-3.5c0.3-0.4,0.6-0.9,0.9-1.3c0.3-0.4,0.7-0.8,1.1-1.1
				c0.4-0.3,0.9-0.6,1.4-0.8c0.5-0.2,1.1-0.3,1.7-0.3c0.3,0,0.6,0,1,0.1s0.7,0.3,1,0.5c0.3,0.3,0.6,0.6,0.8,1
				C154.7,84.4,154.8,85,154.8,85.7z M151.8,86.1c0-0.2,0-0.3-0.1-0.4s-0.1-0.2-0.2-0.3s-0.2-0.1-0.4-0.1c-0.3,0-0.7,0.2-1.1,0.5
				c-0.4,0.3-0.7,0.7-1,1.1s-0.6,0.9-0.8,1.5s-0.3,1-0.3,1.4c0,0.1,0.1,0.2,0.2,0.2c0.2,0,0.5-0.1,0.9-0.2c0.4-0.2,0.8-0.4,1.2-0.7
				c0.4-0.3,0.8-0.7,1.1-1.2C151.6,87.3,151.8,86.7,151.8,86.1z"/>
			<path class="st0" d="M176,85.7c0,0.9-0.2,1.7-0.5,2.5s-0.8,1.6-1.4,2.2c-0.6,0.6-1.3,1.2-2.1,1.5s-1.6,0.6-2.5,0.6
				c-0.1,0-0.1,0-0.2,0.1c0,0,0,0.1,0,0.1c0.1,0.6,0.2,1.1,0.4,1.5c0.2,0.4,0.5,0.7,0.7,0.9c0.3,0.2,0.6,0.4,1,0.5
				c0.7,0.2,1.2,0.5,1.3,0.8c0.2,0.3,0.2,0.6,0.2,0.8c0,0.4-0.1,0.6-0.3,0.8c-0.2,0.2-0.4,0.3-0.6,0.4c-0.3,0.1-0.5,0.2-0.8,0.2
				c-0.9,0-1.7-0.2-2.4-0.6s-1.1-0.9-1.5-1.4c-0.4-0.6-0.8-1.3-1-2.1l-0.1-0.5c-0.1-0.2-0.1-0.4-0.1-0.6c0-0.2-0.1-0.5-0.1-0.8
				c0,0,0-0.1,0-0.1c-0.1-0.1-0.1-0.1-0.2-0.1c-0.3-0.1-0.6-0.2-0.9-0.3c-0.2-0.1-0.4-0.3-0.6-0.6c-0.2-0.2-0.3-0.6-0.3-1.1
				c0-0.2,0.1-0.4,0.2-0.6c0.1-0.1,0.1-0.3,0.3-0.4c0.1-0.1,0.3-0.2,0.5-0.2c0.1,0,0.2,0,0.4,0.1c0.2,0,0.4,0.1,0.7,0.1
				c0.1,0,0.1,0,0.1,0c0,0,0,0,0,0c0.4-1.3,0.9-2.5,1.5-3.5c0.3-0.4,0.6-0.9,0.9-1.3c0.3-0.4,0.7-0.8,1.1-1.1
				c0.4-0.3,0.9-0.6,1.4-0.8c0.5-0.2,1.1-0.3,1.7-0.3c0.3,0,0.6,0,1,0.1s0.7,0.3,1,0.5c0.3,0.3,0.6,0.6,0.8,1
				C175.9,84.4,176,85,176,85.7z M173,86.1c0-0.2,0-0.3-0.1-0.4s-0.1-0.2-0.2-0.3s-0.2-0.1-0.4-0.1c-0.3,0-0.7,0.2-1.1,0.5
				c-0.4,0.3-0.7,0.7-1,1.1s-0.6,0.9-0.8,1.5s-0.3,1-0.3,1.4c0,0.1,0.1,0.2,0.2,0.2c0.2,0,0.5-0.1,0.9-0.2c0.4-0.2,0.8-0.4,1.2-0.7
				c0.4-0.3,0.8-0.7,1.1-1.2C172.8,87.3,173,86.7,173,86.1z"/>
			<path class="st0" d="M184.1,72.7c-0.4,1.8-0.8,3.7-1.1,5.7c-0.3,1.7-0.6,3.5-0.8,5.5c-0.2,2-0.3,4-0.3,5.9c0,1.4,0.1,2.7,0.3,4
				s0.5,2.3,0.9,3.1c0,0.1,0.1,0.2,0.1,0.3c0.1,0.2,0.2,0.5,0.2,0.7s-0.1,0.6-0.4,0.9c-0.3,0.4-0.7,0.5-1.3,0.5
				c-0.3,0-0.5-0.1-0.7-0.2s-0.4-0.2-0.5-0.4c-0.2-0.2-0.3-0.4-0.5-0.6c-0.5-0.9-0.8-2-1-3.3s-0.3-2.8-0.3-4.3
				c0-1.4,0.1-2.9,0.2-4.5c0.1-1.5,0.3-3,0.5-4.5c0.2-1.5,0.4-2.9,0.7-4.3c0.3-1.4,0.6-2.7,0.9-3.8c0.1-0.3,0.2-0.5,0.3-0.7
				c0.1-0.2,0.3-0.4,0.6-0.5c0.3-0.2,0.6-0.3,1.1-0.3c0.3,0,0.6,0,0.9,0.1c0.3,0.1,0.4,0.3,0.4,0.6L184.1,72.7z"/>
			<path class="st0" d="M216.1,96.8c0,0.3-0.1,0.5-0.2,0.7s-0.3,0.4-0.5,0.5s-0.4,0.2-0.6,0.3c-0.2,0.1-0.4,0.1-0.5,0.1
				c-0.7,0-1.3-0.2-1.7-0.6c-0.4-0.4-0.7-1-0.9-1.6c-0.2-0.7-0.3-1.4-0.4-2.1c-0.1-0.8-0.1-1.5-0.1-2.2c0-0.6,0-1,0-1.4
				c0-0.4,0-0.7,0-0.9c0-0.4,0-0.7-0.1-0.8c-0.1-0.1-0.2-0.2-0.3-0.2c-0.1,0-0.2,0-0.3,0.1s-0.2,0.2-0.3,0.2
				c-0.1,0.1-0.2,0.2-0.3,0.3c-0.3,0.4-0.6,0.9-0.9,1.5c-0.3,0.6-0.6,1.2-0.9,1.8c-0.3,0.7-0.7,1.4-1,2.1c-0.2,0.4-0.5,0.8-0.7,1.1
				c-0.3,0.3-0.6,0.5-1.1,0.5c-0.6,0-1-0.3-1.3-0.8s-0.5-1.2-0.7-1.9c-0.2-0.7-0.3-1.4-0.3-2.1c-0.1-0.7-0.1-1.2-0.2-1.4
				c-0.1-0.4-0.2-0.6-0.5-0.6c-0.1,0-0.1,0-0.2,0c-0.1,0-0.1,0.1-0.2,0.1c-0.1,0.1-0.1,0.1-0.2,0.1c-0.5,0.5-1,1.2-1.4,2
				s-0.8,1.6-1.1,2.4c-0.3,0.9-0.6,1.9-0.9,2.9c-0.1,0.5-0.3,0.8-0.5,0.9c-0.2,0.1-0.5,0.1-0.8,0.1c-0.3,0-0.6-0.1-0.8-0.2
				c-0.2-0.1-0.4-0.3-0.5-0.5c-0.1-0.2-0.2-0.4-0.2-0.6c0-0.2-0.1-0.4-0.1-0.6c0-0.6,0-1.1,0.1-1.5c0-0.3,0.1-0.6,0.1-0.8
				c0.1-0.5,0.1-0.9,0.1-1.4c0-0.4,0-0.8,0-1.2c0-1-0.1-1.8-0.2-2.5c-0.1-0.7-0.3-1.3-0.4-1.8c-0.2-0.6-0.3-1-0.5-1.4
				c0,0-0.1-0.1-0.1-0.2c0-0.1,0-0.2,0-0.5c0-0.2,0-0.4,0.1-0.6c0.1-0.2,0.2-0.4,0.3-0.6c0.1-0.2,0.3-0.3,0.5-0.5
				c0.2-0.1,0.5-0.2,0.8-0.2s0.6,0.1,1,0.4c0.4,0.2,0.7,0.8,0.9,1.6c0.1,0.3,0.1,0.6,0.2,1c0.1,0.4,0.1,0.9,0.1,1.4s0.1,1.3,0.1,2.1
				c0,0,0,0.1,0,0.1c0,0.1,0,0.1,0.1,0.1c0,0,0.1,0,0.1-0.1c0.1-0.2,0.3-0.5,0.5-1c0.3-0.5,0.6-1,1.1-1.5c0.4-0.5,0.9-1,1.5-1.4
				s1.1-0.6,1.8-0.6c0.6,0,0.9,0.2,1.2,0.6s0.4,1.2,0.5,2.4c0,0.5,0.1,1,0.2,1.4c0.1,0.3,0.1,0.6,0.2,0.9c0.1,0.3,0.2,0.4,0.3,0.4
				c0.1,0,0.1-0.1,0.3-0.2c0.2-0.2,0.4-0.6,0.6-1.1c0-0.1,0.2-0.5,0.5-1.1s0.7-1.3,1.1-1.9c0.5-0.7,1-1.3,1.6-1.8
				c0.6-0.5,1.3-0.8,2-0.8c0.5,0,0.9,0.1,1.1,0.4c0.3,0.3,0.5,0.6,0.7,0.9c0.2,0.4,0.3,0.8,0.3,1.3c0,0.5,0.1,0.9,0.1,1.3
				c0,2.4,0.1,4.3,0.2,5.7c0.1,1.4,0.6,2.4,1.3,3c0.1,0,0.1,0.1,0.2,0.2c0.1,0.1,0.1,0.1,0.1,0.2S216.1,96.7,216.1,96.8z"/>
			<path class="st0" d="M231.4,95.3c0,0.4-0.1,0.7-0.2,0.9c-0.2,0.2-0.3,0.4-0.6,0.4c-0.3,0.1-0.5,0.2-0.8,0.2
				c-0.5,0-0.9-0.1-1.2-0.4c-0.3-0.3-0.6-0.5-0.8-0.9c-0.2-0.3-0.3-0.6-0.4-0.9c-0.1-0.3-0.1-0.5-0.1-0.5c0-0.1,0-0.1-0.1-0.1
				c-0.1,0-0.1,0-0.2,0.1c0,0-0.1,0-0.1,0c-0.5,0.8-1,1.5-1.5,1.9c-0.5,0.5-1,0.8-1.4,1c-0.4,0.2-0.8,0.3-1.1,0.4
				c-0.3,0-0.5,0.1-0.5,0.1c-0.7,0-1.3-0.2-1.8-0.7c-0.5-0.5-0.9-1.1-1.2-1.8s-0.5-1.5-0.7-2.3c-0.1-0.8-0.2-1.6-0.2-2.4
				c0-0.7,0.1-1.5,0.2-2.4c0.1-0.9,0.3-1.7,0.6-2.4c0.3-0.8,0.6-1.4,1-1.9s0.9-0.8,1.5-0.8c0.1,0,0.2,0,0.4,0c0.2,0,0.3,0.1,0.4,0.2
				c0.1,0.1,0.3,0.2,0.4,0.4c0.1,0.2,0.1,0.5,0.1,0.8c0,0.3,0,0.6-0.1,1s-0.2,0.8-0.4,1.3c-0.2,0.5-0.4,1.1-0.5,1.6
				c-0.1,0.5-0.3,1-0.3,1.6c-0.1,0.6-0.1,1.1-0.1,1.7c0,0.6,0.1,1.2,0.3,1.7c0.2,0.5,0.6,0.7,1.2,0.7c0.4-0.1,0.9-0.3,1.3-0.7
				c0.3-0.3,0.7-0.8,1-1.5c0.4-0.7,0.7-1.6,0.9-2.8c0-0.2,0.1-0.4,0.1-0.6c0-0.2,0.1-0.4,0.1-0.7c0-0.3,0-0.5,0-0.8
				c0-0.1,0.1-0.3,0.2-0.5s0.3-0.4,0.4-0.6c0.2-0.2,0.4-0.4,0.7-0.5c0.3-0.1,0.6-0.2,0.9-0.2c0.3,0,0.6,0.1,0.8,0.2
				c0.2,0.1,0.4,0.4,0.4,0.9c0,0.3,0,0.7-0.1,1.3s-0.1,1.4-0.1,2.5c0,0.8,0.1,1.5,0.2,2.2c0.1,0.7,0.3,1.3,0.6,1.7
				c0.1,0.2,0.3,0.4,0.5,0.6C231.3,94.7,231.4,95,231.4,95.3z"/>
			<path class="st0" d="M247.6,95.1c0,0.4-0.1,0.8-0.3,1c-0.2,0.2-0.4,0.4-0.7,0.5c-0.3,0.1-0.6,0.2-1,0.2c-0.7,0-1.2-0.2-1.6-0.7
				s-0.7-1.1-0.9-1.8c-0.2-0.7-0.3-1.4-0.3-2.2c0-0.8-0.1-1.4-0.1-2v-0.8c0-0.3-0.1-0.4-0.3-0.4c-0.4,0-0.7,0.2-1.1,0.6
				s-0.7,0.9-1,1.6s-0.7,1.3-1,2c-0.3,0.7-0.6,1.4-0.9,2c-0.3,0.6-0.6,1.2-0.8,1.6c-0.3,0.4-0.5,0.7-0.7,0.8c-0.1,0-0.3,0.1-0.4,0.1
				c-0.1,0-0.2,0-0.3,0c-0.4,0-0.7-0.2-1-0.5c-0.2-0.3-0.4-0.8-0.5-1.3c-0.1-0.5-0.2-1.2-0.3-1.9c0-0.7-0.1-1.4-0.1-2.1
				c0-0.6,0-1.3,0.1-2.1c0.1-0.8,0.2-1.6,0.3-2.4c0.1-0.8,0.2-1.6,0.4-2.2c0.2-0.7,0.3-1.2,0.5-1.5c0.1-0.3,0.3-0.5,0.5-0.7
				c0.2-0.2,0.4-0.3,0.6-0.5s0.6-0.2,1-0.2c0.1,0,0.2,0,0.3,0c0.1,0,0.3,0.1,0.4,0.1c0.1,0.1,0.3,0.2,0.4,0.3s0.2,0.3,0.2,0.6
				c0,0.4-0.1,0.8-0.3,1.3c-0.2,0.6-0.4,1.2-0.5,1.8c-0.1,0.5-0.3,1.1-0.4,1.7s-0.1,1.2-0.1,1.7c0,0.4,0.1,0.5,0.2,0.5
				c0.1,0,0.1,0,0.1-0.1c0.1-0.2,0.4-0.6,0.8-1.2c0.4-0.6,0.9-1.3,1.4-2s1.2-1.3,1.9-1.9s1.4-0.8,2.1-0.8c0.8,0,1.3,0.3,1.5,0.8
				c0.2,0.6,0.3,1.5,0.3,2.7c0,0.3,0,0.6,0,0.9c0,0.3,0,0.7,0,1c0,0.3,0,0.6,0,1.1c0,0.5,0.1,0.9,0.2,1.4c0.1,0.5,0.2,0.9,0.4,1.3
				c0.2,0.4,0.4,0.7,0.7,0.9l0.3,0.2C247.5,94.8,247.6,95,247.6,95.1z"/>
			<path class="st0" d="M263.8,85.3c0,0.5-0.1,0.9-0.4,1c-0.3,0.2-0.5,0.3-0.8,0.3c-0.2,0-0.4,0-0.5,0c-0.1,0-0.2-0.1-0.2-0.1
				c0,0.3,0,0.7,0,1.1s0,0.8,0,1.1c0,0.7,0,1.4,0.1,2.1c0,0.7,0.1,1.3,0.2,1.9c0.1,0.6,0.2,1,0.4,1.4c0.2,0.4,0.3,0.7,0.6,0.8
				c0.2,0.1,0.3,0.3,0.3,0.4s0.1,0.3,0.1,0.3c0,0.3-0.1,0.6-0.3,0.8c-0.2,0.2-0.3,0.3-0.5,0.4c-0.2,0.1-0.5,0.2-0.8,0.2
				c-0.7,0-1.2-0.2-1.5-0.6c-0.4-0.4-0.6-0.8-0.8-1.3c-0.2-0.5-0.3-1.1-0.4-1.8c0-0.1,0-0.2-0.1-0.2c0,0-0.1,0-0.1,0.1l-0.1,0.1
				c-0.8,1-1.5,1.8-2.3,2.3c-0.8,0.5-1.5,0.9-2.1,1.2c-0.6,0.3-1.2,0.4-1.6,0.4c-0.4,0-0.7,0.1-0.8,0.1c-0.6,0-1-0.1-1.4-0.4
				c-0.3-0.2-0.6-0.6-0.8-0.9c-0.2-0.4-0.3-0.7-0.4-1.1c-0.1-0.4-0.1-0.8-0.1-1.1c0-1.5,0.3-2.8,0.9-4c0.6-1.2,1.3-2.2,2.2-3.1
				c0.9-0.9,1.9-1.6,3.1-2.2c1.1-0.6,2.3-0.9,3.5-1.2c0,0,0.1,0,0.1,0c0,0,0.1,0,0.1-0.1c0,0,0,0,0-0.1c0-0.5,0.1-1,0.1-1.6
				s0.1-1.2,0.1-1.9c0.1-1.4,0.2-2.8,0.3-4c0.1-0.5,0.1-1.1,0.2-1.6c0.1-0.5,0.2-1,0.3-1.5c0.1-0.5,0.2-0.9,0.4-1.2
				c0.1-0.3,0.3-0.6,0.5-0.8c0.2-0.2,0.3-0.3,0.5-0.4c0.1-0.1,0.3-0.2,0.5-0.3c0.2-0.1,0.4-0.1,0.6-0.1c0.2,0,0.4,0.1,0.6,0.2
				c0.2,0.1,0.3,0.4,0.3,1c0,0.3,0,0.6-0.1,1.1c-0.2,1-0.4,2.1-0.5,3.2c-0.1,1.1-0.3,2.1-0.4,2.9c-0.1,1.1-0.2,2.1-0.3,3.1
				c0,0.2,0,0.4,0,0.6c0,0.2,0,0.4-0.1,0.7s0,0.6-0.1,0.9c0,0.1,0,0.1,0,0.1c0,0,0.1,0,0.1,0c0.4,0.1,0.7,0.3,1,0.6
				C263.6,84.5,263.8,84.8,263.8,85.3z M259,86.7c0-0.1-0.1-0.2-0.3-0.2c-0.7,0.1-1.4,0.3-2.1,0.7c-0.7,0.4-1.3,0.9-1.9,1.5
				c-0.5,0.6-1,1.3-1.3,2c-0.3,0.7-0.5,1.5-0.5,2.2c0,0.3,0.1,0.6,0.2,0.8c0.1,0.2,0.3,0.4,0.7,0.4c0.4,0,1-0.2,1.6-0.6
				c0.6-0.4,1.2-1,1.7-1.7c0.5-0.7,1-1.5,1.4-2.4C258.8,88.7,259,87.7,259,86.7z"/>
			<path class="st0" d="M277.5,88.3c0,1.4-0.2,2.6-0.6,3.6c-0.4,1-0.9,1.9-1.5,2.6c-0.6,0.7-1.4,1.2-2.2,1.5s-1.6,0.5-2.4,0.5
				c-1.1,0-1.9-0.3-2.5-0.8c-0.6-0.5-1-1.1-1.3-1.8c-0.3-0.8-0.5-1.6-0.5-2.6c0-0.6,0.1-1.2,0.2-1.8s0.3-1.1,0.5-1.6
				c0.2-0.5,0.5-1,0.8-1.5c0,0,0-0.1-0.1-0.2c0,0-0.1,0-0.1,0c-0.4,0-0.8-0.1-1-0.3s-0.4-0.4-0.4-0.7c0-0.4,0.1-0.7,0.4-1.1
				s0.7-0.7,1.2-0.9c0.5-0.3,1-0.5,1.6-0.6c0.6-0.2,1.2-0.3,1.8-0.3c0.5,0,1.1,0.1,1.8,0.2c0.7,0.2,1.4,0.4,2,0.9
				c0.7,0.4,1.2,1,1.7,1.8C277.3,86,277.5,87,277.5,88.3z M274.1,89.1c0-0.7-0.1-1.3-0.3-1.8c-0.1-0.5-0.4-0.9-0.6-1.3
				c-0.3-0.4-0.7-0.5-1.3-0.5c-0.2,0-0.4,0.1-0.6,0.3c-0.2,0.2-0.5,0.5-0.7,0.9c-0.2,0.4-0.4,0.9-0.5,1.5c-0.2,0.6-0.2,1.3-0.2,2
				c0,0.2,0,0.5,0,0.9c0,0.4,0.1,0.8,0.2,1.1c0.1,0.4,0.3,0.7,0.6,1c0.3,0.3,0.6,0.4,1.2,0.4c0.6,0,1-0.2,1.3-0.7s0.5-1,0.7-1.5
				C274,90.7,274.1,90,274.1,89.1z"/>
		</g>
	</g>
	<g>
		<path class="st0" d="M167.4,17.6c1,1.5,1.6,0.8,1.3-0.7c-0.4-1.5-0.8-3.1-1.2-4.6C167,10.8,167,5,164.7,5
			c-2.8,0.1-1.5,4.5-0.9,5.8C164.7,13.2,166,15.5,167.4,17.6z M167.5,12.5C167.4,12.5,167.4,12.5,167.5,12.5
			C167.4,12.5,167.4,12.5,167.5,12.5z M167.3,12C167.3,12,167.3,12,167.3,12L167.3,12z M167.4,12.3
			C167.4,12.3,167.4,12.2,167.4,12.3C167.4,12.3,167.4,12.3,167.4,12.3z M167.4,12.2C167.4,12.2,167.3,12.2,167.4,12.2
			C167.3,12.2,167.4,12.2,167.4,12.2z"/>
		<path class="st0" d="M184.9,11.9c0,0.3-0.3,4.9,0.6,4c1-1,1.3-2.8,1.8-4.1c0.5-1.4,0.9-2.7,1.3-4.2c0.5-2.1,1.3-5.4-0.6-7.1
			c-3.4-2.9-2.7,5.2-2.7,6.5C185.2,8.7,185,10.4,184.9,11.9z"/>
		<path class="st0" d="M187.9,0.6"/>
		<path class="st0" d="M203.4,18.6c1.2-1.5,2.5-3,3.9-4.4c0.8-0.8,5.9-5,2-5.5c0.2,0,0.3,0,0,0c-1.9-0.2-0.5-0.1,0,0
			c-2.2-0.3-3.8,2.3-4.8,3.9c-1.3,2-3.5,5.1-3.6,7.6C200.9,21.4,203.2,18.8,203.4,18.6z"/>
		<path class="st0" d="M222.4,21.8C222.6,21.8,222.8,21.8,222.4,21.8C221.8,21.8,222.1,21.8,222.4,21.8c-1.2,0-2,1.1-2.9,1.7
			c-1.5,1-3,1.9-4.6,2.8c-1.1,0.7-2.7,1.2-3.6,2.2c-1,1.1,2.1,0.4,2.4,0.3c2.5-0.7,5.2-1.3,7.5-2.7
			C222.3,25.4,225.5,21.7,222.4,21.8z"/>
		<path class="st0" d="M156,23.6C156.1,23.7,156.2,23.8,156,23.6c-1.8-1.7-3.6-3.6-5-5.6c-1.7-2.3-3.7-0.5-2.3,1.7
			c1,1.7,2.9,2.9,4.6,4c1.1,0.7,2.2,1.5,3.4,2C158.6,26.5,156.4,24,156,23.6z"/>
	</g>
	<g>
		<g>
			<g>
				<path class="st0" d="M69.2,135.4c0,0.5-0.2,0.8-0.7,1c0.2,0.3,0.4,0.5,0.7,0.5c0.3,0,0.7-0.1,1.2-0.5c0.4-0.3,0.9-0.8,1.4-1.5
					c0.5-0.7,1-1.5,1.6-2.4s1.1-2,1.6-3.2c0.3-0.7,0.6-1.6,0.8-2.4c0.2-0.9,0.3-1.7,0.4-2.5c0-0.8,0-1.5-0.2-2.1
					c-0.2-0.6-0.5-0.9-1-1.1c-0.6-0.1-1.2,0.1-1.8,0.5c-0.6,0.5-1.3,1.1-1.9,2s-1.2,1.8-1.8,2.8c-0.6,1-1.1,2-1.6,3
					c-0.5,1-0.9,1.9-1.3,2.8c-0.4,0.9-0.7,1.7-1,2.4c-0.2,0.7-0.4,1.3-0.5,1.8c-0.1,0.5-0.1,0.8,0,1c0.1,0.2,0,0.4-0.2,0.6
					c-0.3,0.2-0.6,0.3-1,0.3c-0.4,0-0.9-0.1-1.3-0.4c-0.4-0.3-0.8-0.8-1-1.6c-0.2-0.5-0.1-1.2,0.1-2.2s0.6-2.2,1.1-3.6
					c0.5-1.4,1.1-2.9,1.8-4.4c0.7-1.6,1.4-3.2,2.1-4.8s1.4-3.2,2-4.7s1.2-2.9,1.7-4.1c0.5-1.2,0.8-2.2,1.1-3
					c0.2-0.8,0.3-1.3,0.1-1.4c-0.2-0.2-0.1-0.3,0.2-0.5c0.3-0.2,0.8-0.3,1.3-0.3c0.5,0,1.1,0.1,1.6,0.3s0.9,0.8,1.2,1.5
					c0.1,0.4,0.1,1.1-0.1,1.8s-0.4,1.7-0.8,2.8c-0.4,1.1-0.8,2.2-1.4,3.4c-0.5,1.2-1.1,2.5-1.7,3.8c0.8-0.8,1.8-1.3,2.8-1.7
					s2.1-0.2,3.2,0.3c1,0.4,1.8,1,2.2,1.8c0.4,0.8,0.7,1.6,0.8,2.6c0.1,0.9,0,1.9-0.2,2.9c-0.2,1-0.5,1.9-0.8,2.8
					c-0.7,1.7-1.4,3.1-2.2,4.2c-0.8,1.2-1.7,2.1-2.6,2.8c1.3-0.3,2.4-0.8,3.4-1.6s1.9-1.8,2.8-2.8c0.8-1,1.6-2,2.3-3.1
					c0.7-1,1.2-2,1.7-2.8c0.1-0.2,0.2-0.3,0.3-0.4s0.3,0,0.6,0.1c0.2,0.1,0.3,0.2,0.3,0.4c0,0.2,0,0.3-0.1,0.5
					c-0.6,1.3-1.3,2.5-2.1,3.7c-0.8,1.2-1.7,2.3-2.7,3.4c-0.6,0.7-1.3,1.4-2.1,2c-0.7,0.6-1.6,1.1-2.5,1.5c-0.9,0.4-1.9,0.7-3.1,0.8
					s-2.5,0.2-4,0c-0.3,0-0.6-0.1-1-0.2c-0.3-0.1-0.7-0.2-1-0.4s-0.5-0.5-0.8-0.8c-0.2-0.3-0.3-0.8-0.3-1.3c0-0.5,0.1-0.9,0.3-1.1
					c0.2-0.3,0.5-0.4,0.9-0.4c0.3,0,0.6,0.1,0.8,0.3C69,134.8,69.2,135.1,69.2,135.4z"/>
				<path class="st0" d="M101,126c0.3,0.2,0.4,0.5,0.2,0.8c-0.4,0.9-1,1.9-1.6,2.9c-0.6,1-1.3,2-2,3c-0.8,1-1.6,1.8-2.4,2.7
					c-0.8,0.8-1.7,1.5-2.6,2s-1.8,0.8-2.8,1c-0.9,0.2-1.9,0-2.8-0.3c-1-0.4-1.8-1-2.2-1.8c-0.4-0.8-0.7-1.6-0.8-2.6
					c-0.1-0.9,0-1.9,0.2-2.9c0.2-1,0.5-1.9,0.8-2.8c0.6-1.6,1.3-2.9,2.1-4c0.8-1.1,1.6-2,2.4-2.7c0.8-0.7,1.7-1.2,2.6-1.5
					c0.9-0.3,1.8-0.5,2.7-0.5c1,0,1.6,0.2,2.1,0.7c0.4,0.5,0.7,1.1,0.7,1.8c0,0.7-0.2,1.6-0.6,2.5c-0.4,0.9-1,1.8-1.8,2.6
					c-0.8,0.9-1.7,1.6-2.8,2.3s-2.3,1.2-3.6,1.6c-0.2,0.7-0.3,1.3-0.4,2c-0.1,0.7-0.1,1.3,0,1.8c0.1,0.5,0.2,1,0.4,1.3
					s0.5,0.6,0.9,0.7c0.6,0.1,1.2,0,1.8-0.2c0.7-0.3,1.3-0.7,2-1.2c0.7-0.5,1.3-1.2,2-1.9c0.7-0.7,1.3-1.5,1.8-2.3
					c0.6-0.8,1.1-1.6,1.5-2.4c0.4-0.8,0.8-1.5,1.1-2.2c0.1-0.2,0.2-0.3,0.4-0.4C100.6,125.8,100.8,125.9,101,126z M89.7,128.4
					c-0.1,0.3-0.2,0.5-0.3,0.8c1.5-0.5,2.8-1.3,3.8-2.2c1-0.9,1.7-1.9,2.2-2.8c0.5-0.9,0.7-1.7,0.8-2.4s-0.2-1-0.7-1
					c-0.7,0-1.6,0.6-2.6,2C91.8,124.1,90.8,126,89.7,128.4z"/>
				<path class="st0" d="M105.6,135.4c0,0.5-0.2,0.8-0.7,1c0.2,0.3,0.4,0.5,0.7,0.5c0.3,0,0.7-0.1,1.2-0.5c0.4-0.3,0.9-0.8,1.4-1.5
					c0.5-0.7,1-1.5,1.6-2.4s1.1-2,1.6-3.2c0.3-0.7,0.6-1.6,0.8-2.4c0.2-0.9,0.3-1.7,0.4-2.5c0-0.8,0-1.5-0.2-2.1
					c-0.2-0.6-0.5-0.9-1-1.1c-0.6-0.1-1.2,0.1-1.8,0.5c-0.6,0.5-1.3,1.1-1.9,2s-1.2,1.8-1.8,2.8c-0.6,1-1.1,2-1.6,3
					c-0.5,1-0.9,1.9-1.3,2.8c-0.4,0.9-0.7,1.7-1,2.4c-0.2,0.7-0.4,1.3-0.5,1.8c-0.1,0.5-0.1,0.8,0,1c0.1,0.2,0,0.4-0.2,0.6
					c-0.3,0.2-0.6,0.3-1,0.3c-0.4,0-0.9-0.1-1.3-0.4c-0.4-0.3-0.8-0.8-1-1.6c-0.2-0.5-0.1-1.2,0.1-2.2s0.6-2.2,1.1-3.6
					c0.5-1.4,1.1-2.9,1.8-4.4c0.7-1.6,1.4-3.2,2.1-4.8s1.4-3.2,2-4.7s1.2-2.9,1.7-4.1c0.5-1.2,0.8-2.2,1.1-3
					c0.2-0.8,0.3-1.3,0.1-1.4c-0.2-0.2-0.1-0.3,0.2-0.5c0.3-0.2,0.8-0.3,1.3-0.3c0.5,0,1.1,0.1,1.6,0.3s0.9,0.8,1.2,1.5
					c0.1,0.4,0.1,1.1-0.1,1.8s-0.4,1.7-0.8,2.8c-0.4,1.1-0.8,2.2-1.4,3.4c-0.5,1.2-1.1,2.5-1.7,3.8c0.8-0.8,1.8-1.3,2.8-1.7
					s2.1-0.2,3.2,0.3c1,0.4,1.8,1,2.2,1.8c0.4,0.8,0.7,1.6,0.8,2.6c0.1,0.9,0,1.9-0.2,2.9c-0.2,1-0.5,1.9-0.8,2.8
					c-0.7,1.7-1.4,3.1-2.2,4.2c-0.8,1.2-1.7,2.1-2.6,2.8c1.3-0.3,2.4-0.8,3.4-1.6s1.9-1.8,2.8-2.8c0.8-1,1.6-2,2.3-3.1
					c0.7-1,1.2-2,1.7-2.8c0.1-0.2,0.2-0.3,0.3-0.4s0.3,0,0.6,0.1c0.2,0.1,0.3,0.2,0.3,0.4c0,0.2,0,0.3-0.1,0.5
					c-0.6,1.3-1.3,2.5-2.1,3.7c-0.8,1.2-1.7,2.3-2.7,3.4c-0.6,0.7-1.3,1.4-2.1,2c-0.7,0.6-1.6,1.1-2.5,1.5c-0.9,0.4-1.9,0.7-3.1,0.8
					s-2.5,0.2-4,0c-0.3,0-0.6-0.1-1-0.2c-0.3-0.1-0.7-0.2-1-0.4s-0.5-0.5-0.8-0.8c-0.2-0.3-0.3-0.8-0.3-1.3c0-0.5,0.1-0.9,0.3-1.1
					c0.2-0.3,0.5-0.4,0.9-0.4c0.3,0,0.6,0.1,0.8,0.3C105.5,134.8,105.6,135.1,105.6,135.4z"/>
				<path class="st0" d="M131.4,128.5c-0.4,0.8-0.8,1.6-1.4,2.4c-0.5,0.9-1.1,1.7-1.7,2.6s-1.3,1.7-1.9,2.4c-0.7,0.7-1.3,1.3-2,1.8
					c-0.7,0.5-1.3,0.7-1.9,0.7c-0.5,0-1-0.1-1.3-0.3c-0.4-0.2-0.7-0.6-0.9-1c-0.2-0.4-0.4-0.9-0.5-1.5s-0.1-1.3,0-1.9
					c0.1-0.8,0.3-1.7,0.6-2.7c0.3-0.9,0.6-1.9,1-2.8c0.4-0.9,0.8-1.9,1.2-2.8c0.4-0.9,0.7-1.7,1-2.4c0.3-0.7,0.5-1.3,0.6-1.8
					c0.1-0.5,0.1-0.8-0.1-1c-0.2-0.2-0.1-0.3,0.2-0.5s0.8-0.3,1.3-0.3c0.5,0,1,0.1,1.6,0.3c0.6,0.3,0.9,0.8,1.2,1.5
					c0.2,0.7,0.2,1.6-0.1,2.7c-0.3,1.1-0.7,2.2-1.3,3.3c-0.6,1.2-1.1,2.3-1.8,3.4c-0.6,1.1-1.2,2.1-1.6,3c-0.4,0.9-0.7,1.6-0.7,2.1
					c-0.1,0.5,0.2,0.8,0.8,0.7c0.3,0,0.6-0.2,1-0.6s0.8-0.9,1.3-1.5c0.5-0.6,1-1.3,1.5-2c0.5-0.7,1-1.5,1.5-2.2
					c0.5-0.7,0.9-1.4,1.2-2.1c0.4-0.7,0.6-1.2,0.8-1.7c0.1-0.2,0.2-0.3,0.4-0.4c0.2-0.1,0.3-0.1,0.5,0c0.2,0.1,0.3,0.2,0.4,0.3
					c0.1,0.2,0.1,0.3,0,0.5C132.1,127.2,131.8,127.8,131.4,128.5z M129.8,116.5c0.1-0.3,0.3-0.6,0.5-0.9s0.3-0.6,0.5-0.9
					c0.1-0.3,0.2-0.5,0.2-0.7c0-0.6-0.2-1.2-0.6-1.6c-0.4-0.4-0.8-0.7-1.3-0.9c-0.5-0.2-0.9-0.3-1.3-0.3s-0.6,0.1-0.6,0.3
					c0,0.2-0.1,0.4-0.2,0.7c-0.2,0.3-0.3,0.6-0.5,0.9c-0.2,0.3-0.4,0.6-0.5,0.9c-0.2,0.3-0.2,0.5-0.2,0.7c0,0.6,0.2,1.2,0.6,1.6
					c0.4,0.4,0.9,0.7,1.3,0.9c0.5,0.2,0.9,0.3,1.3,0.3c0.4,0,0.6-0.1,0.6-0.3C129.5,117.1,129.6,116.9,129.8,116.5z"/>
				<path class="st0" d="M141.6,122.3c0-0.2,0.1-0.4,0.2-0.6c0.1-0.2,0.3-0.3,0.4-0.5c-0.1-0.3-0.3-0.5-0.6-0.5
					c-0.4,0-0.8,0.1-1.2,0.5s-0.9,0.8-1.4,1.5c-0.5,0.7-1,1.5-1.6,2.4c-0.5,1-1.1,2-1.6,3.2c-0.3,0.7-0.6,1.5-0.8,2.4
					c-0.2,0.9-0.3,1.7-0.4,2.5s0.1,1.5,0.2,2.1c0.2,0.6,0.5,1,1,1.2c0.5,0.2,1.1,0.1,1.7-0.5c0.6-0.6,1.2-1.4,1.8-2.3
					c0.6-1,1.2-2.1,1.8-3.2c0.6-1.2,1.1-2.3,1.6-3.2c0.5-1.3,1-2.6,1.6-4c0.6-1.4,1.2-2.8,1.8-4.1c0.6-1.4,1.1-2.7,1.7-3.9
					c0.5-1.3,1-2.4,1.3-3.4c0.4-1,0.6-1.8,0.8-2.4c0.2-0.6,0.2-1,0.1-1.1c-0.2-0.2-0.1-0.3,0.3-0.5c0.3-0.2,0.8-0.3,1.3-0.3
					c0.5,0,1,0.1,1.6,0.3c0.6,0.3,0.9,0.8,1.2,1.5c0.2,0.6,0.1,1.4-0.2,2.5c-0.3,1.1-0.7,2.3-1.3,3.7c-0.6,1.4-1.2,2.9-1.9,4.5
					c-0.7,1.6-1.5,3.2-2.3,4.8c-0.8,1.6-1.5,3.1-2.2,4.5c-0.7,1.5-1.2,2.7-1.7,3.8c-0.4,1.1-0.7,2-0.7,2.6c-0.1,0.6,0.1,0.9,0.6,0.9
					c0.3,0,0.6-0.2,1-0.6c0.4-0.4,0.8-0.9,1.3-1.5c0.5-0.6,1-1.3,1.5-2c0.5-0.7,1-1.5,1.5-2.2c0.5-0.7,0.9-1.4,1.2-2.1
					c0.4-0.7,0.6-1.2,0.8-1.7c0.1-0.2,0.2-0.3,0.4-0.4c0.2-0.1,0.3-0.1,0.5,0c0.2,0.1,0.3,0.2,0.4,0.3c0.1,0.2,0.1,0.3,0,0.5
					c-0.2,0.4-0.5,1-0.9,1.8c-0.4,0.8-0.8,1.6-1.4,2.4c-0.5,0.9-1.1,1.7-1.7,2.6s-1.3,1.7-1.9,2.4c-0.7,0.7-1.3,1.3-2,1.8
					c-0.7,0.5-1.3,0.7-1.9,0.7c-1,0.1-1.7-0.3-2.2-1.2c-0.5-0.8-0.7-1.9-0.6-3.2c-0.5,0.8-1,1.5-1.5,2.1s-1.1,1.1-1.7,1.5
					s-1.3,0.6-2,0.7c-0.7,0.1-1.5-0.1-2.3-0.4c-1-0.4-1.8-1-2.2-1.8c-0.4-0.8-0.7-1.7-0.8-2.6s0-1.9,0.2-2.9c0.2-1,0.5-1.9,0.8-2.8
					c0.6-1.6,1.3-2.9,2.1-4c0.8-1.1,1.6-2,2.4-2.7c0.8-0.7,1.7-1.2,2.6-1.5c0.9-0.3,1.8-0.4,2.7-0.4c0.3,0,0.6,0.1,1,0.2
					s0.7,0.2,1,0.4c0.3,0.2,0.5,0.5,0.8,0.8c0.2,0.3,0.3,0.8,0.3,1.3s-0.1,0.9-0.3,1.1c-0.2,0.3-0.5,0.4-0.8,0.4
					c-0.3,0-0.6-0.1-0.8-0.3C141.7,122.9,141.6,122.6,141.6,122.3z"/>
				<path class="st0" d="M162.4,122.3c0-0.2,0.1-0.4,0.2-0.6c0.1-0.2,0.3-0.3,0.4-0.5c-0.1-0.3-0.3-0.5-0.6-0.5
					c-0.4,0-0.8,0.1-1.2,0.5s-0.9,0.8-1.4,1.5c-0.5,0.7-1,1.5-1.6,2.4c-0.5,1-1.1,2-1.6,3.2c-0.3,0.7-0.6,1.5-0.8,2.4
					c-0.2,0.9-0.3,1.7-0.4,2.5s0.1,1.5,0.2,2.1c0.2,0.6,0.5,1,1,1.2c0.4,0.2,0.7,0.1,1.1-0.1c0.4-0.2,0.8-0.6,1.2-1.1
					c0.4-0.5,0.8-1.1,1.2-1.8s0.8-1.4,1.2-2.2c0.4-0.8,0.8-1.5,1.2-2.3c0.4-0.8,0.7-1.5,1.1-2.1c0.4-0.8,0.7-1.6,1.1-2.4
					c0.3-0.8,0.6-1.4,0.9-2c0.2-0.6,0.4-1.1,0.5-1.5c0.1-0.4,0-0.7-0.1-0.9c-0.2-0.2-0.1-0.3,0.2-0.5s0.8-0.3,1.3-0.3
					c0.5,0,1,0.1,1.6,0.3s0.9,0.8,1.2,1.5c0.2,0.7,0.2,1.6-0.1,2.7c-0.3,1.1-0.7,2.2-1.3,3.3c-0.6,1.2-1.1,2.3-1.8,3.4
					c-0.6,1.1-1.2,2.1-1.6,3c-0.4,0.9-0.7,1.6-0.7,2.1c-0.1,0.5,0.2,0.8,0.8,0.7c0.2,0,0.6-0.2,1-0.6c0.4-0.4,0.9-0.9,1.3-1.5
					s1-1.3,1.5-2c0.5-0.7,1-1.5,1.5-2.2c0.4-0.7,0.9-1.4,1.2-2.1c0.4-0.7,0.6-1.2,0.8-1.7c0.1-0.2,0.2-0.3,0.4-0.4
					c0.2-0.1,0.3-0.1,0.5,0c0.2,0.1,0.3,0.2,0.4,0.3c0.1,0.2,0.1,0.3,0,0.5c-0.2,0.4-0.5,1-0.9,1.8c-0.4,0.8-0.8,1.6-1.4,2.4
					c-0.5,0.9-1.1,1.7-1.7,2.6c-0.6,0.9-1.3,1.7-1.9,2.4c-0.7,0.7-1.3,1.3-2,1.8c-0.7,0.5-1.3,0.7-1.9,0.7c-1,0.1-1.7-0.3-2.2-1.2
					c-0.5-0.8-0.7-1.9-0.5-3.2c-0.5,0.8-1,1.5-1.5,2.2c-0.5,0.7-1.1,1.2-1.8,1.6s-1.3,0.6-2,0.7c-0.7,0.1-1.5-0.1-2.3-0.4
					c-1-0.4-1.8-1-2.2-1.8c-0.4-0.8-0.7-1.7-0.8-2.6s0-1.9,0.2-2.9c0.2-1,0.5-1.9,0.8-2.8c0.6-1.6,1.3-2.9,2.1-4
					c0.8-1.1,1.6-2,2.4-2.7c0.8-0.7,1.7-1.2,2.6-1.5c0.9-0.3,1.8-0.4,2.7-0.4c0.3,0,0.6,0.1,1,0.2s0.7,0.2,1,0.4
					c0.3,0.2,0.5,0.5,0.8,0.8c0.2,0.3,0.3,0.8,0.3,1.3c0,0.6-0.1,0.9-0.4,1.2c-0.2,0.2-0.5,0.3-0.8,0.3c-0.3,0-0.6-0.1-0.8-0.3
					C162.6,122.9,162.4,122.6,162.4,122.3z"/>
				<path class="st0" d="M178.2,137.6L178.2,137.6c-0.6,0.3-1.1,0.5-1.7,0.7c-0.5,0.2-1,0.2-1.3,0.2c-1,0-1.8-0.3-2.4-0.8
					c-0.6-0.5-0.9-1.1-1.1-1.9c-0.2-0.7-0.2-1.4-0.1-2.2c0.1-0.7,0.4-1.3,0.7-1.7c0.5-0.5,1-0.9,1.4-1.1s0.8-0.2,1-0.2
					c0.3,0,0.5,0.1,0.8,0.3s0.4,0.5,0.4,0.8c0,0.3-0.1,0.6-0.4,0.8c-0.2,0.2-0.5,0.3-0.8,0.3c-0.2,0-0.4-0.1-0.7-0.2
					c-0.2-0.1-0.3-0.3-0.4-0.6c-0.3,0.4-0.6,0.8-0.7,1.4c-0.1,0.5-0.2,1.1-0.1,1.5c0.1,0.5,0.3,0.9,0.6,1.3c0.3,0.3,0.8,0.5,1.3,0.6
					c0.2,0,0.5-0.1,0.9-0.3c0.4-0.2,0.8-0.5,1.2-1c0.4-0.4,0.8-1,1.1-1.7c0.3-0.7,0.5-1.6,0.6-2.6c0.1-1,0-2.2-0.3-3.5
					c-0.3-1.3-0.8-2.8-1.6-4.5c-0.3,0.5-0.5,1-0.9,1.6c-0.3,0.6-0.6,1.1-0.9,1.6c-0.1,0.2-0.3,0.3-0.5,0.3s-0.3,0-0.5-0.1
					c-0.2-0.1-0.3-0.2-0.3-0.3c-0.1-0.1,0-0.3,0.1-0.5c0.2-0.4,0.4-0.8,0.6-1.2c0.2-0.3,0.4-0.7,0.5-1s0.3-0.6,0.5-0.9
					c0.2-0.3,0.3-0.7,0.5-1c-0.3-0.4-0.5-0.9-0.7-1.3c-0.2-0.5-0.2-1-0.2-1.5c0-0.2,0-0.5,0.1-0.9c0.1-0.3,0.2-0.7,0.5-1
					c0.2-0.3,0.5-0.6,0.9-0.9c0.4-0.2,0.9-0.4,1.5-0.4c0.6,0,1.1,0.1,1.4,0.4s0.5,0.6,0.5,1.1s-0.1,0.9-0.3,1.4
					c-0.2,0.5-0.5,1-0.8,1.6l-0.1,0.2c1,1.2,1.8,2.3,2.4,3.3s1.1,2.1,1.4,3c0.3,1,0.5,1.8,0.5,2.7c0,0.8,0,1.6-0.2,2.3
					c0.8-1,1.6-1.9,2.3-2.9c0.7-0.9,1.2-1.8,1.7-2.7c0.1-0.2,0.2-0.3,0.3-0.4c0.2-0.1,0.3,0,0.6,0.1c0.2,0.1,0.3,0.2,0.3,0.4
					c0,0.2,0,0.3-0.1,0.5c-0.6,1.3-1.3,2.4-2.1,3.5c-0.8,1.1-1.7,2.2-2.7,3.3c-0.7,0.8-1.4,1.5-2.2,2.1
					C180,136.7,179.2,137.2,178.2,137.6L178.2,137.6z"/>
				<path class="st0" d="M212.6,121.2c0.2,0.7,0.2,1.7,0,2.8c-0.2,1.2-0.5,2.4-1,3.7c-0.5,1.3-1.1,2.6-1.9,3.9
					c-0.8,1.3-1.6,2.5-2.6,3.5c-1,1-2,1.9-3.1,2.5c-1.1,0.6-2.3,0.9-3.5,0.9s-2.2-0.2-2.8-0.7c-0.6-0.5-1-1.1-1.2-1.9
					c-0.2-0.8-0.2-1.7,0-2.8s0.4-2.1,0.8-3.2c0.4-1.1,0.8-2.2,1.2-3.3c0.4-1.1,0.8-2.1,1.2-3s0.6-1.6,0.8-2.3s0.1-1-0.1-1.2
					c-0.2-0.2-0.1-0.3,0.2-0.5c0.3-0.2,0.8-0.3,1.3-0.3s1,0.1,1.6,0.3c0.6,0.3,0.9,0.8,1.2,1.5c0.2,0.7,0.2,1.7-0.1,2.7
					c-0.3,1.1-0.7,2.2-1.3,3.4c-0.5,1.2-1.1,2.3-1.7,3.5s-1.1,2.2-1.4,3.1s-0.5,1.7-0.4,2.2s0.5,0.8,1.3,0.8c0.8,0,1.5-0.4,2.2-1.2
					c0.7-0.8,1.4-1.8,2-3c0.6-1.2,1.1-2.5,1.6-3.9c0.5-1.4,0.8-2.7,1.2-4c0.3-1.2,0.5-2.3,0.6-3.2s0.1-1.4,0-1.6
					c-0.1-0.2,0-0.3,0.3-0.5c0.3-0.2,0.7-0.3,1.2-0.3c0.5,0,1,0.1,1.5,0.3S212.4,120.4,212.6,121.2z"/>
				<path class="st0" d="M230.7,126c0.3,0.2,0.4,0.5,0.2,0.8c-0.4,0.9-1,1.9-1.6,2.9c-0.6,1-1.3,2-2,3c-0.8,1-1.6,1.8-2.4,2.7
					c-0.8,0.8-1.7,1.5-2.6,2s-1.8,0.8-2.8,1c-0.9,0.2-1.9,0-2.8-0.3c-1-0.4-1.8-1-2.2-1.8c-0.4-0.8-0.7-1.6-0.8-2.6
					c-0.1-0.9,0-1.9,0.2-2.9c0.2-1,0.5-1.9,0.8-2.8c0.6-1.6,1.3-2.9,2.1-4c0.8-1.1,1.6-2,2.4-2.7c0.8-0.7,1.7-1.2,2.6-1.5
					c0.9-0.3,1.8-0.5,2.7-0.5c1,0,1.6,0.2,2.1,0.7c0.4,0.5,0.7,1.1,0.7,1.8c0,0.7-0.2,1.6-0.6,2.5c-0.4,0.9-1,1.8-1.8,2.6
					c-0.8,0.9-1.7,1.6-2.8,2.3s-2.3,1.2-3.6,1.6c-0.2,0.7-0.3,1.3-0.4,2c-0.1,0.7-0.1,1.3,0,1.8c0.1,0.5,0.2,1,0.4,1.3
					s0.5,0.6,0.9,0.7c0.6,0.1,1.2,0,1.8-0.2c0.7-0.3,1.3-0.7,2-1.2c0.7-0.5,1.3-1.2,2-1.9c0.7-0.7,1.3-1.5,1.8-2.3
					c0.6-0.8,1.1-1.6,1.5-2.4c0.4-0.8,0.8-1.5,1.1-2.2c0.1-0.2,0.2-0.3,0.4-0.4C230.3,125.8,230.5,125.9,230.7,126z M219.5,128.4
					c-0.1,0.3-0.2,0.5-0.3,0.8c1.5-0.5,2.8-1.3,3.8-2.2c1-0.9,1.7-1.9,2.2-2.8c0.5-0.9,0.7-1.7,0.8-2.4s-0.2-1-0.7-1
					c-0.7,0-1.6,0.6-2.6,2C221.6,124.1,220.5,126,219.5,128.4z"/>
				<path class="st0" d="M240.3,122.3c0-0.2,0.1-0.4,0.2-0.6c0.1-0.2,0.3-0.3,0.4-0.5c-0.1-0.3-0.3-0.5-0.6-0.5
					c-0.4,0-0.8,0.1-1.2,0.5s-0.9,0.8-1.4,1.5c-0.5,0.7-1,1.5-1.6,2.4c-0.5,1-1.1,2-1.6,3.2c-0.3,0.7-0.6,1.5-0.8,2.4
					c-0.2,0.9-0.3,1.7-0.4,2.5s0.1,1.5,0.2,2.1c0.2,0.6,0.5,1,1,1.2c0.6,0.2,1.2,0,1.8-0.6c0.6-0.7,1.3-1.5,1.9-2.6s1.3-2.2,1.9-3.5
					c0.6-1.2,1.2-2.3,1.7-3.3c0-0.1,0-0.1,0-0.2c0.7-1.6,1.2-3,1.6-4.2c0.4-1.2,0.5-1.9,0.2-2.2c-0.1-0.2,0-0.3,0.3-0.5
					s0.8-0.3,1.3-0.3c0.5,0,1.1,0.1,1.6,0.4c0.5,0.3,0.9,0.8,1.1,1.6c0.1,0.4,0.1,1.1-0.2,2.1c-0.3,1-0.6,2-1.1,3.3
					c-0.5,1.2-1,2.5-1.6,3.8s-1.2,2.6-1.7,3.7s-1,2.2-1.4,3.1c-0.4,0.9-0.7,1.5-0.8,1.8c0.9-0.6,1.9-1.5,2.9-2.6s1.9-2.3,2.8-3.5
					c0.9-1.2,1.6-2.4,2.3-3.6c0.7-1.2,1.1-2.1,1.4-2.8c0.1-0.2,0.2-0.4,0.4-0.4s0.3-0.1,0.5,0c0.2,0.1,0.3,0.2,0.4,0.3
					c0.1,0.2,0.1,0.3,0,0.5c-0.6,1.3-1.3,2.7-2.2,4.1s-1.9,2.8-2.9,4.2c-1.1,1.3-2.2,2.5-3.3,3.6c-1.2,1.1-2.3,1.9-3.4,2.4
					c-0.2,0.4-0.4,0.9-0.6,1.5c-0.3,0.6-0.5,1.2-0.8,1.8c-0.3,0.6-0.5,1.2-0.7,1.7c-0.2,0.5-0.4,0.9-0.5,1.2
					c-0.3,0.7-0.7,1.3-1.2,1.8c-0.6,0.5-1.2,0.9-1.9,1.2c-0.7,0.3-1.4,0.4-2.2,0.5c-0.7,0-1.4,0-2.1-0.2s-1.2-0.5-1.7-1
					s-0.8-1-0.9-1.7c0-0.2,0-0.5,0.1-0.8c0.1-0.3,0.3-0.7,0.7-1c0.4-0.4,0.9-0.8,1.5-1.1c0.6-0.3,1.2-0.7,1.8-1
					c0.6-0.3,1.2-0.6,1.8-0.9c0.6-0.3,1.1-0.7,1.6-1.1c0.3-0.7,0.6-1.5,0.9-2.4c0.3-0.9,0.7-1.8,1.1-2.7c-0.7,0.7-1.6,1.2-2.4,1.4
					s-1.9,0.1-3-0.3c-1-0.4-1.8-1-2.2-1.8c-0.4-0.8-0.7-1.7-0.8-2.6s0-1.9,0.2-2.9c0.2-1,0.5-1.9,0.8-2.8c0.6-1.6,1.3-2.9,2.1-4
					c0.8-1.1,1.6-2,2.4-2.7c0.8-0.7,1.7-1.2,2.6-1.5c0.9-0.3,1.8-0.4,2.7-0.4c0.3,0,0.6,0.1,1,0.2s0.7,0.2,1,0.4
					c0.3,0.2,0.5,0.5,0.8,0.8c0.2,0.3,0.3,0.8,0.3,1.3s-0.1,0.9-0.3,1.1c-0.2,0.3-0.5,0.4-0.8,0.4c-0.3,0-0.6-0.1-0.8-0.3
					C240.4,122.9,240.3,122.6,240.3,122.3z M234.6,143.7c-0.4,0.3-0.8,0.6-1.3,0.8c-0.5,0.2-1,0.5-1.5,0.7c-0.5,0.2-1,0.5-1.4,0.8
					c-0.4,0.3-0.8,0.6-1.1,1c-0.2,0.3-0.3,0.5-0.2,0.8c0,0.3,0.2,0.6,0.3,0.8c0.2,0.2,0.4,0.4,0.7,0.6s0.6,0.1,1,0
					c0.4-0.1,0.7-0.4,1.1-0.8c0.4-0.4,0.7-1,1.1-1.8c0.2-0.4,0.3-0.8,0.6-1.3C234.1,144.9,234.4,144.3,234.6,143.7z"/>
				<path class="st0" d="M266.7,126c0.3,0.2,0.4,0.5,0.2,0.8c-0.4,0.9-1,1.9-1.6,2.9c-0.6,1-1.3,2-2,3c-0.8,1-1.6,1.8-2.4,2.7
					c-0.8,0.8-1.7,1.5-2.6,2s-1.8,0.8-2.8,1c-0.9,0.2-1.9,0-2.8-0.3c-1-0.4-1.8-1-2.2-1.8c-0.4-0.8-0.7-1.6-0.8-2.6
					c-0.1-0.9,0-1.9,0.2-2.9c0.2-1,0.5-1.9,0.8-2.8c0.6-1.6,1.3-2.9,2.1-4c0.8-1.1,1.6-2,2.4-2.7c0.8-0.7,1.7-1.2,2.6-1.5
					c0.9-0.3,1.8-0.5,2.7-0.5c1,0,1.6,0.2,2.1,0.7c0.4,0.5,0.7,1.1,0.7,1.8c0,0.7-0.2,1.6-0.6,2.5c-0.4,0.9-1,1.8-1.8,2.6
					c-0.8,0.9-1.7,1.6-2.8,2.3s-2.3,1.2-3.6,1.6c-0.2,0.7-0.3,1.3-0.4,2c-0.1,0.7-0.1,1.3,0,1.8c0.1,0.5,0.2,1,0.4,1.3
					s0.5,0.6,0.9,0.7c0.6,0.1,1.2,0,1.8-0.2c0.7-0.3,1.3-0.7,2-1.2c0.7-0.5,1.3-1.2,2-1.9c0.7-0.7,1.3-1.5,1.8-2.3
					c0.6-0.8,1.1-1.6,1.5-2.4c0.4-0.8,0.8-1.5,1.1-2.2c0.1-0.2,0.2-0.3,0.4-0.4C266.3,125.8,266.5,125.9,266.7,126z M255.5,128.4
					c-0.1,0.3-0.2,0.5-0.3,0.8c1.5-0.5,2.8-1.3,3.8-2.2c1-0.9,1.7-1.9,2.2-2.8c0.5-0.9,0.7-1.7,0.8-2.4s-0.2-1-0.7-1
					c-0.7,0-1.6,0.6-2.6,2C257.6,124.1,256.5,126,255.5,128.4z"/>
				<path class="st0" d="M261.1,117.6c0,0.4-0.1,0.6-0.3,0.7c-0.2,0.1-0.4,0.1-0.6,0c-0.2-0.1-0.4-0.4-0.5-0.8
					c-0.1-0.4-0.2-0.9-0.1-1.6c0.1-1.1,0.5-1.9,1.2-2.5c0.7-0.6,1.7-0.9,2.9-1.1c1.2-0.2,2.5-0.3,4-0.2c1.5,0.1,3,0.2,4.6,0.3
					c0.4-1.2,0.8-2.1,1-2.8c0.2-0.7,0.2-1.2,0.1-1.3c-0.2-0.2-0.1-0.3,0.2-0.5s0.8-0.3,1.3-0.3c0.5,0,1,0.1,1.6,0.3s0.9,0.8,1.2,1.5
					c0.1,0.4,0.1,0.8,0,1.5c-0.1,0.6-0.3,1.3-0.5,2.1c1.1,0.1,2.3,0.1,3.4,0c1.1-0.1,2.1-0.1,3-0.3c0.9-0.1,1.6-0.3,2.2-0.6
					c0.6-0.2,0.8-0.5,0.8-0.8c0-0.4,0.1-0.6,0.3-0.6c0.2,0,0.5,0.1,0.7,0.3c0.2,0.2,0.4,0.5,0.5,0.8c0.1,0.3,0,0.6-0.3,0.9
					c-0.3,0.3-0.9,0.6-1.6,0.9c-0.7,0.3-1.6,0.6-2.6,0.8c-1,0.2-2.1,0.4-3.4,0.6c-1.2,0.2-2.5,0.2-3.9,0.3c-0.5,1.4-1.2,2.9-1.9,4.5
					c-0.8,1.6-1.5,3.2-2.3,4.8c-0.8,1.6-1.5,3.1-2.2,4.6c-0.7,1.5-1.3,2.8-1.7,3.9s-0.7,2-0.8,2.7c-0.1,0.7,0.1,1,0.6,0.9
					c0.3,0,0.6-0.2,1-0.6c0.4-0.4,0.8-0.9,1.3-1.5s1-1.3,1.5-2s1-1.5,1.5-2.2c0.5-0.7,0.9-1.4,1.2-2.1c0.4-0.7,0.6-1.2,0.8-1.7
					c0.1-0.2,0.2-0.3,0.4-0.4c0.2-0.1,0.3-0.1,0.5,0c0.2,0.1,0.3,0.2,0.4,0.3c0.1,0.2,0.1,0.3,0,0.5c-0.2,0.4-0.5,1-0.9,1.8
					c-0.4,0.8-0.8,1.6-1.4,2.4c-0.5,0.9-1.1,1.7-1.7,2.6s-1.3,1.7-1.9,2.4c-0.7,0.7-1.3,1.3-2,1.8c-0.7,0.5-1.3,0.7-1.9,0.7
					c-0.5,0-1-0.1-1.3-0.3c-0.4-0.2-0.7-0.6-0.9-1c-0.2-0.4-0.4-0.9-0.5-1.5s-0.1-1.3,0-1.9c0.1-0.8,0.4-1.9,0.9-3.4
					c0.5-1.4,1.1-3,1.8-4.8c0.7-1.7,1.4-3.5,2.2-5.4s1.5-3.5,2.2-5.1c-1.3,0-2.6,0-3.8,0.1c-1.2,0-2.3,0.1-3.2,0.3
					c-0.9,0.2-1.6,0.4-2.2,0.8S261.2,117,261.1,117.6z"/>
				<path class="st0" d="M285.9,122.3c0-0.2,0.1-0.4,0.2-0.6c0.1-0.2,0.3-0.3,0.4-0.5c-0.1-0.3-0.3-0.5-0.6-0.5
					c-0.4,0-0.8,0.1-1.2,0.5s-0.9,0.8-1.4,1.5c-0.5,0.7-1,1.5-1.6,2.4c-0.5,1-1.1,2-1.6,3.2c-0.3,0.7-0.6,1.5-0.8,2.4
					c-0.2,0.9-0.3,1.7-0.4,2.5s0.1,1.5,0.2,2.1c0.2,0.6,0.5,1,1,1.2c0.4,0.2,0.7,0.1,1.1-0.1c0.4-0.2,0.8-0.6,1.2-1.1
					c0.4-0.5,0.8-1.1,1.2-1.8s0.8-1.4,1.2-2.2c0.4-0.8,0.8-1.5,1.2-2.3c0.4-0.8,0.7-1.5,1.1-2.1c0.4-0.8,0.7-1.6,1.1-2.4
					c0.3-0.8,0.6-1.4,0.9-2c0.2-0.6,0.4-1.1,0.5-1.5c0.1-0.4,0-0.7-0.1-0.9c-0.2-0.2-0.1-0.3,0.2-0.5s0.8-0.3,1.3-0.3
					c0.5,0,1,0.1,1.6,0.3s0.9,0.8,1.2,1.5c0.2,0.7,0.2,1.6-0.1,2.7c-0.3,1.1-0.7,2.2-1.3,3.3c-0.6,1.2-1.1,2.3-1.8,3.4
					c-0.6,1.1-1.2,2.1-1.6,3c-0.4,0.9-0.7,1.6-0.7,2.1c-0.1,0.5,0.2,0.8,0.8,0.7c0.2,0,0.6-0.2,1-0.6c0.4-0.4,0.9-0.9,1.3-1.5
					s1-1.3,1.5-2c0.5-0.7,1-1.5,1.5-2.2c0.4-0.7,0.9-1.4,1.2-2.1c0.4-0.7,0.6-1.2,0.8-1.7c0.1-0.2,0.2-0.3,0.4-0.4
					c0.2-0.1,0.3-0.1,0.5,0c0.2,0.1,0.3,0.2,0.4,0.3c0.1,0.2,0.1,0.3,0,0.5c-0.2,0.4-0.5,1-0.9,1.8c-0.4,0.8-0.8,1.6-1.4,2.4
					c-0.5,0.9-1.1,1.7-1.7,2.6c-0.6,0.9-1.3,1.7-1.9,2.4c-0.7,0.7-1.3,1.3-2,1.8c-0.7,0.5-1.3,0.7-1.9,0.7c-1,0.1-1.7-0.3-2.2-1.2
					c-0.5-0.8-0.7-1.9-0.5-3.2c-0.5,0.8-1,1.5-1.5,2.2c-0.5,0.7-1.1,1.2-1.8,1.6s-1.3,0.6-2,0.7c-0.7,0.1-1.5-0.1-2.3-0.4
					c-1-0.4-1.8-1-2.2-1.8c-0.4-0.8-0.7-1.7-0.8-2.6s0-1.9,0.2-2.9c0.2-1,0.5-1.9,0.8-2.8c0.6-1.6,1.3-2.9,2.1-4
					c0.8-1.1,1.6-2,2.4-2.7c0.8-0.7,1.7-1.2,2.6-1.5c0.9-0.3,1.8-0.4,2.7-0.4c0.3,0,0.6,0.1,1,0.2s0.7,0.2,1,0.4
					c0.3,0.2,0.5,0.5,0.8,0.8c0.2,0.3,0.3,0.8,0.3,1.3c0,0.6-0.1,0.9-0.4,1.2c-0.2,0.2-0.5,0.3-0.8,0.3c-0.3,0-0.6-0.1-0.8-0.3
					C286,122.9,285.9,122.6,285.9,122.3z"/>
				<path class="st0" d="M307.1,126.8c-0.2,0.4-0.5,1-0.9,1.8c-0.4,0.8-0.8,1.6-1.4,2.4c-0.5,0.9-1.1,1.7-1.7,2.6s-1.3,1.7-1.9,2.4
					c-0.7,0.7-1.3,1.3-2,1.8c-0.7,0.5-1.3,0.7-1.9,0.7c-0.5,0-1-0.1-1.3-0.3c-0.4-0.2-0.7-0.6-0.9-1c-0.2-0.4-0.4-0.9-0.5-1.5
					s-0.1-1.3,0-1.9c0.1-0.8,0.4-2,1-3.6c0.5-1.5,1.2-3.2,1.9-5.1c0.7-1.8,1.5-3.7,2.3-5.6c0.8-1.9,1.6-3.7,2.2-5.3
					c0.7-1.6,1.2-2.9,1.5-4c0.4-1.1,0.4-1.7,0.3-1.9c-0.2-0.2-0.1-0.3,0.2-0.5s0.8-0.3,1.3-0.3c0.5,0,1,0.1,1.6,0.3
					c0.6,0.3,0.9,0.8,1.2,1.5c0.2,0.6,0.1,1.4-0.2,2.5c-0.3,1.1-0.7,2.3-1.3,3.7c-0.6,1.4-1.2,2.9-1.9,4.5c-0.7,1.6-1.5,3.2-2.3,4.8
					c-0.8,1.6-1.5,3.1-2.2,4.5c-0.7,1.5-1.2,2.7-1.7,3.8c-0.4,1.1-0.7,2-0.7,2.6c-0.1,0.6,0.1,0.9,0.6,0.9c0.3,0,0.6-0.2,1-0.6
					s0.8-0.9,1.3-1.5c0.5-0.6,1-1.3,1.5-2c0.5-0.7,1-1.5,1.5-2.2c0.5-0.7,0.9-1.4,1.2-2.1c0.4-0.7,0.6-1.2,0.8-1.7
					c0.1-0.2,0.2-0.3,0.4-0.4c0.2-0.1,0.3-0.1,0.5,0c0.2,0.1,0.3,0.2,0.4,0.3C307.3,126.4,307.2,126.6,307.1,126.8z"/>
				<path class="st0" d="M321.9,126c0.3,0.2,0.4,0.5,0.2,0.8c-0.4,0.9-1,1.9-1.6,2.9c-0.6,1-1.3,2-2,3c-0.8,1-1.6,1.8-2.4,2.7
					c-0.8,0.8-1.7,1.5-2.6,2s-1.8,0.8-2.8,1c-0.9,0.2-1.9,0-2.8-0.3c-1-0.4-1.8-1-2.2-1.8c-0.4-0.8-0.7-1.6-0.8-2.6
					c-0.1-0.9,0-1.9,0.2-2.9c0.2-1,0.5-1.9,0.8-2.8c0.6-1.6,1.3-2.9,2.1-4c0.8-1.1,1.6-2,2.4-2.7c0.8-0.7,1.7-1.2,2.6-1.5
					c0.9-0.3,1.8-0.5,2.7-0.5c1,0,1.6,0.2,2.1,0.7c0.4,0.5,0.7,1.1,0.7,1.8c0,0.7-0.2,1.6-0.6,2.5c-0.4,0.9-1,1.8-1.8,2.6
					c-0.8,0.9-1.7,1.6-2.8,2.3s-2.3,1.2-3.6,1.6c-0.2,0.7-0.3,1.3-0.4,2c-0.1,0.7-0.1,1.3,0,1.8c0.1,0.5,0.2,1,0.4,1.3
					s0.5,0.6,0.9,0.7c0.6,0.1,1.2,0,1.8-0.2c0.7-0.3,1.3-0.7,2-1.2c0.7-0.5,1.3-1.2,2-1.9c0.7-0.7,1.3-1.5,1.8-2.3
					c0.6-0.8,1.1-1.6,1.5-2.4c0.4-0.8,0.8-1.5,1.1-2.2c0.1-0.2,0.2-0.3,0.4-0.4C321.5,125.8,321.7,125.9,321.9,126z M310.6,128.4
					c-0.1,0.3-0.2,0.5-0.3,0.8c1.5-0.5,2.8-1.3,3.8-2.2c1-0.9,1.7-1.9,2.2-2.8c0.5-0.9,0.7-1.7,0.8-2.4s-0.2-1-0.7-1
					c-0.7,0-1.6,0.6-2.6,2C312.8,124.1,311.7,126,310.6,128.4z"/>
				<path class="st0" d="M326.3,137.6L326.3,137.6c-0.6,0.3-1.1,0.5-1.7,0.7c-0.5,0.2-1,0.2-1.3,0.2c-1,0-1.8-0.3-2.4-0.8
					c-0.6-0.5-0.9-1.1-1.1-1.9c-0.2-0.7-0.2-1.4-0.1-2.2c0.1-0.7,0.4-1.3,0.7-1.7c0.5-0.5,1-0.9,1.4-1.1s0.8-0.2,1-0.2
					c0.3,0,0.5,0.1,0.8,0.3s0.4,0.5,0.4,0.8c0,0.3-0.1,0.6-0.4,0.8c-0.2,0.2-0.5,0.3-0.8,0.3c-0.2,0-0.4-0.1-0.7-0.2
					c-0.2-0.1-0.3-0.3-0.4-0.6c-0.3,0.4-0.6,0.8-0.7,1.4c-0.1,0.5-0.2,1.1-0.1,1.5c0.1,0.5,0.3,0.9,0.6,1.3c0.3,0.3,0.8,0.5,1.3,0.6
					c0.2,0,0.5-0.1,0.9-0.3c0.4-0.2,0.8-0.5,1.2-1c0.4-0.4,0.8-1,1.1-1.7c0.3-0.7,0.5-1.6,0.6-2.6c0.1-1,0-2.2-0.3-3.5
					c-0.3-1.3-0.8-2.8-1.6-4.5c-0.3,0.5-0.5,1-0.9,1.6c-0.3,0.6-0.6,1.1-0.9,1.6c-0.1,0.2-0.3,0.3-0.5,0.3s-0.3,0-0.5-0.1
					c-0.2-0.1-0.3-0.2-0.3-0.3c-0.1-0.1,0-0.3,0.1-0.5c0.2-0.4,0.4-0.8,0.6-1.2c0.2-0.3,0.4-0.7,0.5-1s0.3-0.6,0.5-0.9
					c0.2-0.3,0.3-0.7,0.5-1c-0.3-0.4-0.5-0.9-0.7-1.3c-0.2-0.5-0.2-1-0.2-1.5c0-0.2,0-0.5,0.1-0.9c0.1-0.3,0.2-0.7,0.5-1
					c0.2-0.3,0.5-0.6,0.9-0.9c0.4-0.2,0.9-0.4,1.5-0.4c0.6,0,1.1,0.1,1.4,0.4s0.5,0.6,0.5,1.1s-0.1,0.9-0.3,1.4
					c-0.2,0.5-0.5,1-0.8,1.6l-0.1,0.2c1,1.2,1.8,2.3,2.4,3.3s1.1,2.1,1.4,3c0.3,1,0.5,1.8,0.5,2.7c0,0.8,0,1.6-0.2,2.3
					c0.8-1,1.6-1.9,2.3-2.9c0.7-0.9,1.2-1.8,1.7-2.7c0.1-0.2,0.2-0.3,0.3-0.4c0.2-0.1,0.3,0,0.6,0.1c0.2,0.1,0.3,0.2,0.3,0.4
					c0,0.2,0,0.3-0.1,0.5c-0.6,1.3-1.3,2.4-2.1,3.5c-0.8,1.1-1.7,2.2-2.7,3.3c-0.7,0.8-1.4,1.5-2.2,2.1
					C328.1,136.7,327.3,137.2,326.3,137.6L326.3,137.6z"/>
			</g>
		</g>
		<g>
			<path class="st0" d="M6.2,129.8c0-0.1,0-0.2,0.1-0.3s0.1-0.2,0.2-0.2c-0.1-0.2-0.2-0.2-0.3-0.2c-0.2,0-0.4,0.1-0.6,0.3
				s-0.5,0.5-0.8,0.8c-0.3,0.4-0.6,0.8-0.8,1.3s-0.6,1.1-0.9,1.7c-0.2,0.4-0.3,0.8-0.4,1.3c-0.1,0.5-0.2,0.9-0.2,1.3
				c0,0.4,0,0.8,0.1,1.1c0.1,0.3,0.3,0.5,0.5,0.6c0.3,0.1,0.6,0,0.9-0.3c0.3-0.3,0.6-0.7,1-1.3c0.3-0.5,0.7-1.1,1-1.7
				c0.3-0.6,0.6-1.2,0.9-1.7c0.3-0.7,0.6-1.4,0.9-2.2c0.3-0.8,0.6-1.5,0.9-2.2c0.3-0.7,0.6-1.4,0.9-2.1s0.5-1.3,0.7-1.8
				s0.3-1,0.4-1.3c0.1-0.3,0.1-0.5,0-0.6c-0.1-0.1-0.1-0.2,0.1-0.3c0.2-0.1,0.4-0.2,0.7-0.2s0.6,0,0.9,0.2c0.3,0.1,0.5,0.4,0.6,0.8
				c0.1,0.3,0.1,0.8-0.1,1.3s-0.4,1.3-0.7,2c-0.3,0.7-0.6,1.6-1,2.4c-0.4,0.9-0.8,1.7-1.2,2.6c-0.4,0.8-0.8,1.7-1.2,2.4
				s-0.7,1.5-0.9,2.1s-0.4,1.1-0.4,1.4c0,0.3,0.1,0.5,0.3,0.5c0.1,0,0.3-0.1,0.5-0.3s0.5-0.5,0.7-0.8c0.3-0.3,0.5-0.7,0.8-1.1
				c0.3-0.4,0.5-0.8,0.8-1.2c0.2-0.4,0.5-0.8,0.7-1.1s0.3-0.7,0.4-0.9c0-0.1,0.1-0.2,0.2-0.2c0.1,0,0.2,0,0.3,0s0.1,0.1,0.2,0.2
				s0,0.2,0,0.3c-0.1,0.2-0.3,0.6-0.5,1c-0.2,0.4-0.5,0.8-0.7,1.3c-0.3,0.5-0.6,0.9-0.9,1.4c-0.3,0.5-0.7,0.9-1,1.3
				c-0.4,0.4-0.7,0.7-1.1,1s-0.7,0.4-1,0.4c-0.5,0-0.9-0.2-1.2-0.6c-0.3-0.5-0.4-1-0.3-1.7c-0.3,0.4-0.5,0.8-0.8,1.2
				c-0.3,0.3-0.6,0.6-0.9,0.8c-0.3,0.2-0.7,0.3-1.1,0.4s-0.8,0-1.2-0.2c-0.6-0.2-1-0.5-1.2-1c-0.2-0.4-0.4-0.9-0.4-1.4
				c0-0.5,0-1,0.1-1.6c0.1-0.5,0.3-1,0.5-1.5c0.3-0.8,0.7-1.6,1.1-2.2c0.4-0.6,0.8-1.1,1.3-1.5c0.5-0.4,0.9-0.7,1.4-0.8
				c0.5-0.2,1-0.2,1.5-0.2c0.2,0,0.3,0,0.5,0.1c0.2,0,0.4,0.1,0.5,0.2s0.3,0.3,0.4,0.4c0.1,0.2,0.2,0.4,0.2,0.7s-0.1,0.5-0.2,0.6
				c-0.1,0.1-0.3,0.2-0.5,0.2c-0.2,0-0.3-0.1-0.4-0.2C6.3,130.1,6.2,129.9,6.2,129.8z"/>
			<path class="st0" d="M20.4,131.7c0.2,0.1,0.2,0.3,0.1,0.5c-0.2,0.5-0.5,1-0.8,1.6s-0.7,1.1-1.1,1.6c-0.4,0.5-0.8,1-1.3,1.4
				s-0.9,0.8-1.4,1.1c-0.5,0.3-1,0.5-1.5,0.5c-0.5,0.1-1,0-1.5-0.2c-0.6-0.2-1-0.5-1.2-1c-0.2-0.4-0.4-0.9-0.4-1.4
				c0-0.5,0-1,0.1-1.6c0.1-0.5,0.3-1,0.5-1.5c0.3-0.8,0.7-1.6,1.1-2.2c0.4-0.6,0.8-1.1,1.3-1.4c0.5-0.4,0.9-0.7,1.4-0.8
				c0.5-0.2,1-0.3,1.5-0.3c0.5,0,0.9,0.1,1.1,0.4c0.2,0.2,0.4,0.6,0.4,1s-0.1,0.8-0.3,1.3c-0.2,0.5-0.5,1-0.9,1.4
				c-0.4,0.5-0.9,0.9-1.5,1.3c-0.6,0.4-1.2,0.7-2,0.9c-0.1,0.4-0.2,0.7-0.2,1.1c0,0.4,0,0.7,0,1c0,0.3,0.1,0.5,0.2,0.7
				c0.1,0.2,0.3,0.3,0.5,0.4c0.3,0.1,0.6,0,1-0.1c0.4-0.1,0.7-0.4,1.1-0.7s0.7-0.6,1.1-1c0.4-0.4,0.7-0.8,1-1.2
				c0.3-0.4,0.6-0.9,0.8-1.3c0.2-0.4,0.4-0.8,0.6-1.2c0-0.1,0.1-0.2,0.2-0.2C20.2,131.7,20.3,131.7,20.4,131.7z M14.4,133.1
				c-0.1,0.2-0.1,0.3-0.2,0.4c0.8-0.3,1.5-0.7,2-1.2s0.9-1,1.2-1.5c0.3-0.5,0.4-0.9,0.4-1.3c0-0.4-0.1-0.5-0.4-0.6
				c-0.4,0-0.8,0.3-1.4,1.1S14.9,131.8,14.4,133.1z"/>
			<path class="st0" d="M31.7,132.2c-0.1,0.2-0.3,0.6-0.5,1c-0.2,0.4-0.5,0.8-0.7,1.3c-0.3,0.5-0.6,0.9-0.9,1.4
				c-0.3,0.5-0.7,0.9-1,1.3c-0.4,0.4-0.7,0.7-1.1,1s-0.7,0.4-1,0.4c-0.3,0-0.5,0-0.7-0.2c-0.2-0.1-0.4-0.3-0.5-0.5s-0.2-0.5-0.2-0.8
				c0-0.3,0-0.7,0-1c0.1-0.5,0.2-1.1,0.5-1.9s0.6-1.7,1-2.7c0.4-1,0.8-2,1.3-3c0.4-1,0.8-2,1.2-2.8c0.4-0.9,0.6-1.6,0.8-2.2
				s0.2-0.9,0.1-1c-0.1-0.1-0.1-0.2,0.1-0.3c0.2-0.1,0.4-0.2,0.7-0.2s0.6,0,0.9,0.2s0.5,0.4,0.6,0.8c0.1,0.3,0.1,0.8-0.1,1.3
				s-0.4,1.3-0.7,2c-0.3,0.7-0.6,1.6-1,2.4c-0.4,0.9-0.8,1.7-1.2,2.6c-0.4,0.8-0.8,1.7-1.2,2.4s-0.7,1.5-0.9,2.1s-0.4,1.1-0.4,1.4
				c0,0.3,0.1,0.5,0.3,0.5c0.1,0,0.3-0.1,0.5-0.3s0.5-0.5,0.7-0.8c0.3-0.3,0.5-0.7,0.8-1.1c0.3-0.4,0.5-0.8,0.8-1.2
				c0.2-0.4,0.5-0.8,0.7-1.1s0.3-0.7,0.4-0.9c0-0.1,0.1-0.2,0.2-0.2c0.1,0,0.2,0,0.3,0s0.1,0.1,0.2,0.2S31.8,132.1,31.7,132.2z"/>
			<path class="st0" d="M36.7,129.8c0-0.1,0-0.2,0.1-0.3s0.1-0.2,0.2-0.2c-0.1-0.2-0.2-0.2-0.3-0.2c-0.2,0-0.4,0.1-0.6,0.3
				s-0.5,0.5-0.8,0.8c-0.3,0.4-0.6,0.8-0.8,1.3s-0.6,1.1-0.9,1.7c-0.2,0.4-0.3,0.8-0.4,1.3c-0.1,0.5-0.2,0.9-0.2,1.3
				c0,0.4,0,0.8,0.1,1.1c0.1,0.3,0.3,0.5,0.5,0.6c0.2,0.1,0.4,0.1,0.6-0.1s0.4-0.3,0.6-0.6c0.2-0.3,0.4-0.6,0.7-1
				c0.2-0.4,0.5-0.8,0.7-1.2s0.4-0.8,0.6-1.2c0.2-0.4,0.4-0.8,0.6-1.1c0.2-0.5,0.4-0.9,0.6-1.3c0.2-0.4,0.3-0.8,0.5-1.1
				c0.1-0.3,0.2-0.6,0.2-0.8c0-0.2,0-0.4-0.1-0.5c-0.1-0.1-0.1-0.2,0.1-0.3c0.2-0.1,0.4-0.2,0.7-0.2c0.3,0,0.6,0,0.9,0.2
				c0.3,0.1,0.5,0.4,0.6,0.8c0.1,0.4,0.1,0.9-0.1,1.5c-0.2,0.6-0.4,1.2-0.7,1.8s-0.6,1.2-1,1.8c-0.3,0.6-0.6,1.2-0.9,1.6
				c-0.2,0.5-0.4,0.9-0.4,1.1c0,0.3,0.1,0.4,0.4,0.4c0.1,0,0.3-0.1,0.5-0.3s0.5-0.5,0.7-0.8c0.3-0.3,0.5-0.7,0.8-1.1
				c0.3-0.4,0.5-0.8,0.8-1.2c0.2-0.4,0.5-0.8,0.7-1.1c0.2-0.4,0.3-0.7,0.4-0.9c0-0.1,0.1-0.2,0.2-0.2c0.1,0,0.2,0,0.3,0
				c0.1,0,0.1,0.1,0.2,0.2c0,0.1,0,0.2,0,0.3c-0.1,0.2-0.3,0.6-0.5,1c-0.2,0.4-0.5,0.8-0.7,1.3s-0.6,0.9-0.9,1.4
				c-0.3,0.5-0.7,0.9-1,1.3c-0.4,0.4-0.7,0.7-1.1,1c-0.4,0.2-0.7,0.4-1,0.4c-0.5,0-0.9-0.2-1.2-0.6c-0.3-0.5-0.4-1-0.3-1.7
				c-0.3,0.4-0.5,0.8-0.8,1.2s-0.6,0.6-0.9,0.8c-0.3,0.2-0.7,0.3-1.1,0.4c-0.4,0-0.8,0-1.3-0.2c-0.6-0.2-1-0.5-1.2-1
				c-0.2-0.4-0.4-0.9-0.4-1.4c0-0.5,0-1,0.1-1.6c0.1-0.5,0.3-1,0.5-1.5c0.3-0.8,0.7-1.6,1.1-2.2c0.4-0.6,0.8-1.1,1.3-1.5
				c0.5-0.4,0.9-0.7,1.4-0.8c0.5-0.2,1-0.2,1.5-0.2c0.2,0,0.3,0,0.5,0.1c0.2,0,0.4,0.1,0.5,0.2s0.3,0.3,0.4,0.4
				c0.1,0.2,0.2,0.4,0.2,0.7c0,0.3-0.1,0.5-0.2,0.6c-0.1,0.1-0.3,0.2-0.4,0.2c-0.2,0-0.3-0.1-0.4-0.2
				C36.8,130.1,36.7,129.9,36.7,129.8z"/>
			<path class="st0" d="M45.2,138L45.2,138c-0.3,0.2-0.6,0.3-0.9,0.4s-0.5,0.1-0.7,0.1c-0.6,0-1-0.1-1.3-0.4c-0.3-0.3-0.5-0.6-0.6-1
				c-0.1-0.4-0.1-0.8,0-1.2c0.1-0.4,0.2-0.7,0.4-0.9c0.3-0.3,0.5-0.5,0.7-0.6c0.2-0.1,0.4-0.1,0.6-0.1c0.2,0,0.3,0.1,0.4,0.2
				s0.2,0.2,0.2,0.4c0,0.2-0.1,0.3-0.2,0.5c-0.1,0.1-0.3,0.2-0.4,0.2c-0.1,0-0.2,0-0.4-0.1c-0.1-0.1-0.2-0.2-0.2-0.3
				c-0.2,0.2-0.3,0.5-0.4,0.7s-0.1,0.6,0,0.8c0,0.3,0.1,0.5,0.3,0.7c0.2,0.2,0.4,0.3,0.7,0.3c0.1,0,0.3-0.1,0.5-0.2
				c0.2-0.1,0.4-0.3,0.6-0.5c0.2-0.2,0.4-0.6,0.6-0.9s0.3-0.8,0.3-1.4c0-0.5,0-1.2-0.2-1.9c-0.2-0.7-0.4-1.5-0.9-2.4
				c-0.1,0.3-0.3,0.6-0.5,0.9c-0.2,0.3-0.3,0.6-0.5,0.9c-0.1,0.1-0.2,0.2-0.2,0.2c-0.1,0-0.2,0-0.3,0s-0.1-0.1-0.2-0.2
				c0-0.1,0-0.2,0-0.3c0.1-0.2,0.2-0.4,0.3-0.6c0.1-0.2,0.2-0.4,0.3-0.5c0.1-0.2,0.2-0.3,0.3-0.5s0.2-0.4,0.3-0.6
				c-0.2-0.2-0.3-0.5-0.4-0.7s-0.1-0.5-0.1-0.8c0-0.1,0-0.3,0.1-0.5c0-0.2,0.1-0.4,0.2-0.6s0.3-0.3,0.5-0.5s0.5-0.2,0.8-0.2
				c0.3,0,0.6,0.1,0.8,0.2c0.2,0.2,0.2,0.3,0.3,0.6c0,0.2,0,0.5-0.1,0.8c-0.1,0.3-0.3,0.6-0.4,0.8l-0.1,0.1c0.5,0.6,1,1.2,1.3,1.8
				c0.3,0.6,0.6,1.1,0.7,1.6c0.2,0.5,0.3,1,0.3,1.4c0,0.4,0,0.9-0.1,1.2c0.5-0.5,0.9-1,1.2-1.6c0.4-0.5,0.7-1,0.9-1.5
				c0-0.1,0.1-0.2,0.2-0.2c0.1,0,0.2,0,0.3,0.1c0.1,0.1,0.2,0.1,0.2,0.2c0,0.1,0,0.2,0,0.3c-0.3,0.7-0.7,1.3-1.2,1.9
				s-0.9,1.2-1.4,1.8c-0.4,0.4-0.8,0.8-1.2,1.1C46.2,137.5,45.8,137.8,45.2,138L45.2,138z"/>
		</g>
	</g>
	<g>
		<g>
			<path class="st0" d="M152.8,58.4c0,0-6.3-22.6,14.2-32.5c0,0,13.7-7.2,32.6-2.9c0,0-0.5,30.2-21.5,37.4c0,0-11.3,5.2-22.1,1.3
				c0,0,4.8-15.2,28.8-26.5C184.8,35.1,163.7,38.1,152.8,58.4z"/>
			<path class="st0" d="M150.2,57.9c0,0,4-14.4-9-20.7c0,0-8.7-4.6-20.8-1.8c0,0,0.3,19.3,13.7,23.8c0,0,7.2,3.3,14.1,0.8
				c0,0-3.1-9.7-18.3-16.9C129.8,43.1,143.2,44.9,150.2,57.9z"/>
		</g>
	</g>
</g>
</svg>
