<?xml version="1.0" encoding="utf-8"?>
<!-- Generator: Adobe Illustrator 21.1.0, SVG Export Plug-In . SVG Version: 6.00 Build 0)  -->
<svg version="1.1" id="Capa_1" xmlns="http://www.w3.org/2000/svg" xmlns:xlink="http://www.w3.org/1999/xlink" x="0px" y="0px"
	 viewBox="0 0 338.8 150.8" style="enable-background:new 0 0 338.8 150.8;" xml:space="preserve">
<style type="text/css">
	.st0{fill:#FFFFFF;}
</style>
<g>
	<g>
		<g>
			<path class="st0" d="M70.8,84.4c0,1.5-0.3,3-1,4.4c-0.7,1.4-1.5,2.7-2.6,3.8s-2.2,2.2-3.5,3.2c-1.3,0.9-2.6,1.7-3.9,2.4
				c-1.3,0.6-2.6,1.1-3.8,1.5s-2.2,0.5-3,0.5c-0.7,0-1.1-0.1-1.3-0.4s-0.3-0.4-0.3-0.6c0.1-0.5,0.2-0.9,0.4-1.2
				c0.2-0.3,0.4-0.5,0.7-0.7c0.3-0.2,0.6-0.3,0.9-0.3c1.7-0.4,3.3-1.1,4.9-2c1.6-0.9,2.9-1.9,4.1-3c1.2-1.1,2.1-2.3,2.8-3.4
				c0.7-1.2,1-2.3,1-3.3c0-1.1-0.3-2.1-0.9-2.9s-1.3-1.4-2.1-1.9c-0.8-0.5-1.5-0.9-2.3-1.1c-0.8-0.2-1.3-0.4-1.6-0.4
				c-0.1,0-0.1,0-0.1,0c-0.1,0.1-0.1,0.1-0.1,0.2c-0.1,0.6-0.2,1.2-0.2,1.8c-0.1,0.6-0.1,1.2-0.1,1.9c0,0.7,0,1.5,0,2.2
				c0,0.9,0,1.8,0.1,2.6c0.1,0.9,0.2,1.6,0.4,2.2c0,0.1,0.1,0.2,0.1,0.3c0,0.1,0.1,0.2,0.1,0.4c0,0.1,0,0.3,0,0.4
				c0,0.5-0.2,0.8-0.5,1c-0.4,0.2-0.8,0.3-1.2,0.3c-0.6,0-1.2-0.2-1.5-0.7c-0.4-0.5-0.7-1-0.9-1.6c-0.2-0.6-0.3-1.3-0.4-2
				C55,87.6,55,87.1,55,86.6c0-1.3,0.1-2.6,0.2-4c0.1-1.4,0.3-2.7,0.5-4c0-0.1,0-0.1,0-0.1c0,0-0.1-0.1-0.2-0.1
				c-0.9-0.1-1.6-0.1-2.2-0.1c-0.6,0-0.9,0-1.1,0c-0.5,0-0.8-0.1-0.9-0.4c-0.1-0.3-0.1-0.4-0.1-0.5c0.1-0.6,0.2-1,0.6-1.3
				c0.3-0.3,0.6-0.5,1-0.7c0.4-0.2,0.8-0.3,1.3-0.3c0.5,0,0.9,0,1.2,0c0.3,0,0.7,0,1,0c0.1,0,0.2-0.1,0.2-0.2
				c0.1-0.6,0.4-1.2,0.9-1.7s1.2-0.8,2-0.8c0.1,0,0.3,0,0.5,0.1c0.2,0.1,0.3,0.3,0.3,0.6c0,0.1,0,0.3-0.1,0.7
				c-0.1,0.4-0.1,0.9-0.2,1.5c0,0.1,0,0.2,0.1,0.2c0,0,0.1,0,0.1,0c1.3,0.3,2.6,0.6,3.9,1.1c1.3,0.5,2.5,1.1,3.5,1.9
				c1,0.7,1.9,1.6,2.6,2.6C70.5,82.1,70.8,83.2,70.8,84.4z"/>
			<path class="st0" d="M77.1,84.6c0,0.1-0.1,0.4-0.2,0.9s-0.2,0.9-0.3,1.5s-0.2,1.3-0.2,2c-0.1,0.8-0.1,1.5-0.1,2.3
				c0,0.6,0,1.2,0.1,1.7c0.1,0.5,0.1,1,0.2,1.4c0.1,0.5,0.2,0.9,0.3,1.3c-0.1,0.4-0.2,0.6-0.6,0.8s-0.6,0.2-0.8,0.2
				c-0.3,0-0.5-0.1-0.7-0.2c-0.1-0.1-0.2-0.1-0.3-0.2c-0.5-0.6-0.8-1.3-1-2.3c-0.2-1-0.3-2.1-0.3-3.2c0-0.9,0-1.7,0.1-2.6
				c0.1-0.8,0.1-1.6,0.2-2.3c0.1-0.8,0.2-1.5,0.3-2.2c0-0.1,0.1-0.2,0.2-0.3c0.1-0.1,0.2-0.2,0.4-0.2c0.2-0.1,0.5-0.1,0.8-0.1
				c0.1,0,0.3,0,0.5,0.1s0.4,0.1,0.6,0.2c0.2,0.1,0.3,0.2,0.5,0.4S77.1,84.3,77.1,84.6z M78.4,76.8c0,0.2,0,0.5-0.1,0.8
				c-0.1,0.3-0.3,0.7-0.5,1c-0.2,0.3-0.5,0.6-0.9,0.9c-0.4,0.3-0.8,0.4-1.4,0.4c-0.5,0-0.9-0.2-1.1-0.5c-0.2-0.3-0.3-0.6-0.3-1
				c0-0.3,0.1-0.6,0.2-1c0.2-0.3,0.4-0.6,0.6-0.9c0.3-0.3,0.6-0.5,1-0.7c0.4-0.2,0.8-0.3,1.2-0.3c0.2,0,0.4,0.1,0.8,0.2
				C78.3,75.9,78.4,76.2,78.4,76.8z"/>
			<path class="st0" d="M91,92.6c0,0.9-0.3,1.6-0.8,2.2c-0.5,0.6-1.2,1.2-1.9,1.6c-0.8,0.4-1.5,0.7-2.3,0.9c-0.8,0.2-1.5,0.3-2,0.3
				c-1.2,0-2.1-0.3-2.6-0.8c-0.5-0.5-0.8-1-0.8-1.6c0-0.5,0.2-0.8,0.5-1c0.3-0.2,0.6-0.3,0.9-0.3c0.3,0,0.6,0.1,1.1,0.3
				c0.4,0.2,1,0.3,1.6,0.3c0.9,0,1.5-0.1,1.9-0.4c0.4-0.3,0.6-0.6,0.6-0.9c0-0.3-0.2-0.6-0.5-0.8c-0.3-0.2-0.7-0.4-1.2-0.5
				c-0.5-0.2-1-0.3-1.6-0.5s-1.1-0.3-1.6-0.6c-0.5-0.2-0.9-0.5-1.2-0.9s-0.5-0.8-0.5-1.3c0-0.7,0.2-1.4,0.6-2.1
				c0.4-0.8,1-1.4,1.7-2.1c0.7-0.6,1.5-1.1,2.4-1.6c0.9-0.4,1.8-0.6,2.7-0.6c0.8,0,1.4,0.2,1.9,0.7c0.5,0.5,0.7,1.2,0.7,2.2
				c0,0.4-0.1,0.9-0.3,1.3c-0.2,0.4-0.6,0.6-1.2,0.6c-0.3,0-0.6-0.1-0.7-0.3c-0.1-0.2-0.2-0.4-0.3-0.6c-0.1-0.2-0.2-0.4-0.3-0.6
				s-0.4-0.3-0.8-0.3c-0.2,0-0.4,0.1-0.7,0.2c-0.3,0.1-0.6,0.3-0.9,0.5c-0.3,0.2-0.6,0.5-0.8,0.8c-0.2,0.3-0.4,0.6-0.4,1
				c0,0.3,0.2,0.6,0.5,0.8c0.3,0.2,0.8,0.4,1.3,0.6c0.5,0.2,1.1,0.4,1.7,0.5c0.6,0.2,1.1,0.4,1.7,0.6c0.5,0.2,0.9,0.6,1.3,0.9
				C90.9,91.6,91,92.1,91,92.6z"/>
			<path class="st0" d="M104.3,92.5c0,0.6-0.2,1.3-0.5,1.9c-0.3,0.6-0.8,1.2-1.4,1.7c-0.6,0.5-1.3,0.9-2.1,1.2
				c-0.8,0.3-1.6,0.5-2.5,0.5c-0.9,0-1.7-0.2-2.2-0.7c-0.6-0.4-1-1-1.3-1.6c-0.3-0.6-0.5-1.2-0.6-1.8c-0.1-0.6-0.1-1.1-0.1-1.4
				c0-1.1,0.2-2.2,0.6-3.4s0.9-2.2,1.6-3.2c0.7-1,1.5-1.8,2.5-2.4s2-0.9,3.2-0.9c0.7,0,1.3,0.1,1.6,0.4s0.6,0.6,0.8,1
				c0.2,0.4,0.3,0.9,0.4,1.4c0,0.1,0,0.4-0.1,0.9c-0.1,0.4-0.2,0.9-0.4,1.4c-0.2,0.5-0.5,0.9-0.9,1.3s-1,0.6-1.7,0.6
				c-0.3,0-0.5-0.2-0.6-0.5c-0.1-0.1-0.1-0.3-0.1-0.5s0-0.4,0.1-0.5c0.1-0.2,0.2-0.3,0.3-0.5c0.1-0.2,0.2-0.3,0.3-0.5
				c0.1-0.2,0.1-0.4,0.1-0.6c0-0.2,0-0.4-0.1-0.6c-0.1-0.2-0.3-0.3-0.6-0.3c-0.3,0-0.6,0.1-1,0.4c-0.4,0.2-0.9,0.6-1.3,1.1
				c-0.4,0.5-0.8,1.2-1.1,2c-0.3,0.8-0.4,1.8-0.4,2.9c0,0.4,0,0.7,0.1,1.1s0.1,0.7,0.3,1s0.3,0.6,0.5,0.8c0.2,0.2,0.5,0.3,0.9,0.3
				c0.2,0,0.4,0,0.6-0.1c0.3,0,0.5-0.2,0.8-0.3s0.6-0.5,1-0.8c0.3-0.4,0.7-0.9,1-1.5c0.1-0.3,0.3-0.5,0.6-0.6
				c0.2-0.2,0.5-0.3,0.7-0.3s0.4,0.1,0.6,0.2c0.1,0.1,0.2,0.3,0.3,0.4C104.2,92.1,104.3,92.3,104.3,92.5z"/>
			<path class="st0" d="M118.6,88.3c0,1.4-0.2,2.6-0.6,3.6c-0.4,1-0.9,1.9-1.5,2.6c-0.6,0.7-1.4,1.2-2.2,1.5s-1.6,0.5-2.4,0.5
				c-1.1,0-1.9-0.3-2.5-0.8c-0.6-0.5-1-1.1-1.3-1.8c-0.3-0.8-0.5-1.6-0.5-2.6c0-0.6,0.1-1.2,0.2-1.8s0.3-1.1,0.5-1.6
				c0.2-0.5,0.5-1,0.8-1.5c0,0,0-0.1-0.1-0.2c0,0-0.1,0-0.1,0c-0.4,0-0.8-0.1-1-0.3s-0.4-0.4-0.4-0.7c0-0.4,0.1-0.7,0.4-1.1
				s0.7-0.7,1.2-0.9c0.5-0.3,1-0.5,1.6-0.6c0.6-0.2,1.2-0.3,1.8-0.3c0.5,0,1.1,0.1,1.8,0.2c0.7,0.2,1.4,0.4,2,0.9
				c0.7,0.4,1.2,1,1.7,1.8C118.4,86,118.6,87,118.6,88.3z M115.2,89.1c0-0.7-0.1-1.3-0.3-1.8c-0.1-0.5-0.4-0.9-0.6-1.3
				c-0.3-0.4-0.7-0.5-1.3-0.5c-0.2,0-0.4,0.1-0.6,0.3c-0.2,0.2-0.5,0.5-0.7,0.9c-0.2,0.4-0.4,0.9-0.5,1.5c-0.2,0.6-0.2,1.3-0.2,2
				c0,0.2,0,0.5,0,0.9c0,0.4,0.1,0.8,0.2,1.1c0.1,0.4,0.3,0.7,0.6,1c0.3,0.3,0.6,0.4,1.2,0.4c0.6,0,1-0.2,1.3-0.7s0.5-1,0.7-1.5
				C115,90.7,115.2,90,115.2,89.1z"/>
			<path class="st0" d="M135,83.6c0,0.1-0.1,0.3-0.2,0.6c-0.1,0.3-0.4,0.6-0.8,1.1c-0.4,0.4-0.8,0.9-1.3,1.6
				c-0.5,0.7-0.9,1.4-1.4,2.3c-0.5,0.9-0.9,1.8-1.4,2.9s-0.8,2.2-1.1,3.3c-0.1,0.5-0.3,1-0.5,1.4c-0.2,0.3-0.5,0.6-0.8,0.9
				c-0.3,0.3-0.7,0.4-1.2,0.4c-0.6,0-1.1-0.2-1.6-0.6c-0.5-0.4-0.9-1-1.3-1.7s-0.7-1.4-1-2.3c-0.3-0.8-0.5-1.7-0.6-2.5
				c-0.2-0.8-0.3-1.6-0.4-2.3c-0.1-0.7-0.1-1.3-0.1-1.7c0-0.9,0.1-1.6,0.3-2.1s0.6-0.8,1.3-0.8c0.1,0,0.3,0,0.4,0
				c0.2,0,0.3,0.1,0.5,0.2c0.2,0.1,0.3,0.3,0.4,0.5c0.1,0.2,0.2,0.5,0.2,0.9c0,0.6,0.1,1.4,0.2,2.3s0.2,1.8,0.4,2.7
				c0.2,0.9,0.3,1.6,0.5,2.3c0.2,0.6,0.4,1,0.6,1c0.1,0,0.3-0.1,0.3-0.3c0.5-1.5,1-2.9,1.5-4.2c0.2-0.6,0.5-1.2,0.8-1.8
				s0.6-1.2,0.9-1.7c0.3-0.6,0.6-1.1,1-1.6c0.3-0.5,0.7-0.9,1-1.3c0.2-0.2,0.3-0.3,0.5-0.4c0.2-0.1,0.4-0.2,0.6-0.3
				c0.2-0.1,0.5-0.1,0.8-0.1c0.4,0,0.7,0.1,1,0.3C134.9,82.6,135,83,135,83.6z"/>
			<path class="st0" d="M146.4,85.7c0,0.9-0.2,1.7-0.5,2.5s-0.8,1.6-1.4,2.2c-0.6,0.6-1.3,1.2-2.1,1.5s-1.6,0.6-2.5,0.6
				c-0.1,0-0.1,0-0.2,0.1c0,0,0,0.1,0,0.1c0.1,0.6,0.2,1.1,0.4,1.5c0.2,0.4,0.5,0.7,0.7,0.9c0.3,0.2,0.6,0.4,1,0.5
				c0.7,0.2,1.2,0.5,1.3,0.8c0.2,0.3,0.2,0.6,0.2,0.8c0,0.4-0.1,0.6-0.3,0.8c-0.2,0.2-0.4,0.3-0.6,0.4c-0.3,0.1-0.5,0.2-0.8,0.2
				c-0.9,0-1.7-0.2-2.4-0.6s-1.1-0.9-1.5-1.4c-0.4-0.6-0.8-1.3-1-2.1l-0.1-0.5c-0.1-0.2-0.1-0.4-0.1-0.6c0-0.2-0.1-0.5-0.1-0.8
				c0,0,0-0.1,0-0.1c-0.1-0.1-0.1-0.1-0.2-0.1c-0.3-0.1-0.6-0.2-0.9-0.3c-0.2-0.1-0.4-0.3-0.6-0.6c-0.2-0.2-0.3-0.6-0.3-1.1
				c0-0.2,0.1-0.4,0.2-0.6c0.1-0.1,0.1-0.3,0.3-0.4c0.1-0.1,0.3-0.2,0.5-0.2c0.1,0,0.2,0,0.4,0.1c0.2,0,0.4,0.1,0.7,0.1
				c0.1,0,0.1,0,0.1,0c0,0,0,0,0,0c0.4-1.3,0.9-2.5,1.5-3.5c0.3-0.4,0.6-0.9,0.9-1.3c0.3-0.4,0.7-0.8,1.1-1.1
				c0.4-0.3,0.9-0.6,1.4-0.8c0.5-0.2,1.1-0.3,1.7-0.3c0.3,0,0.6,0,1,0.1s0.7,0.3,1,0.5c0.3,0.2,0.6,0.6,0.8,1
				C146.2,84.4,146.4,85,146.4,85.7z M143.4,86.1c0-0.2,0-0.3-0.1-0.4s-0.1-0.2-0.2-0.3s-0.2-0.1-0.4-0.1c-0.3,0-0.7,0.2-1.1,0.5
				c-0.4,0.3-0.7,0.7-1,1.1s-0.6,0.9-0.8,1.5s-0.3,1-0.3,1.4c0,0.1,0.1,0.2,0.2,0.2c0.2,0,0.5-0.1,0.9-0.2c0.4-0.2,0.8-0.4,1.2-0.7
				c0.4-0.3,0.8-0.7,1.1-1.2C143.2,87.3,143.4,86.7,143.4,86.1z"/>
			<path class="st0" d="M159.4,88.4c0,0.2-0.1,0.4-0.2,0.5c-0.2,0.1-0.3,0.2-0.5,0.3c-0.2,0.1-0.5,0.1-0.8,0.1c-0.6,0-1-0.1-1.3-0.3
				c-0.3-0.2-0.5-0.4-0.7-0.6c-0.2-0.2-0.3-0.4-0.4-0.6c-0.1-0.2-0.2-0.3-0.3-0.3c-0.2,0-0.4,0.3-0.8,0.9c-0.4,0.6-0.8,1.3-1.2,2.3
				s-0.7,1.9-1,3.1c-0.3,1.1-0.4,2.2-0.4,3.3c0,0.5-0.1,0.8-0.4,1c-0.3,0.2-0.6,0.3-1,0.3c-0.4,0-0.8-0.2-1-0.6
				c-0.2-0.4-0.4-0.9-0.5-1.5c-0.1-0.6-0.2-1.2-0.2-2c0-0.7,0-1.4,0-2.1c0-1.1,0-2.2,0.1-3.3c0.1-1.1,0.1-2,0.2-2.8
				c0.1-0.6,0.2-1.2,0.3-1.6c0.1-0.4,0.3-0.7,0.5-1s0.5-0.4,0.7-0.5c0.3-0.1,0.6-0.1,1-0.1c0.1,0,0.3,0.1,0.4,0.2
				c0.1,0.1,0.2,0.2,0.3,0.3s0.1,0.4,0.1,0.6c0,0.2,0,0.3,0,0.4c-0.1,0.4-0.1,0.8-0.2,1.2c-0.1,0.4-0.1,0.8-0.2,1.2
				c-0.1,0.5-0.1,0.9-0.1,1.4c0,0.1,0,0.1,0,0.2c0,0.1,0.1,0.1,0.2,0.1c0.1,0,0.1-0.1,0.2-0.2c0.2-0.4,0.4-0.9,0.6-1.4
				c0.2-0.4,0.4-0.9,0.7-1.4s0.6-1,0.9-1.5c0.2-0.2,0.3-0.5,0.3-0.6c0.1-0.2,0.2-0.5,0.5-0.9c0.2-0.2,0.4-0.4,0.7-0.6
				c0.2-0.1,0.5-0.3,0.7-0.4c0.3-0.1,0.5-0.2,0.8-0.2c0.2,0,0.4,0.1,0.6,0.2c0.2,0.1,0.3,0.4,0.3,0.7c0,0.4,0,0.7-0.1,1.1
				c-0.1,0.3-0.1,0.8-0.1,1.2c0,0.8,0.1,1.4,0.2,1.8c0.1,0.4,0.3,0.8,0.5,1.1c0.2,0.3,0.3,0.5,0.5,0.6
				C159.3,88.1,159.4,88.3,159.4,88.4z"/>
			<path class="st0" d="M179.4,80c0,0.3-0.1,0.5-0.2,0.6c-0.1,0.2-0.3,0.3-0.4,0.3c-0.2,0.1-0.4,0.1-0.6,0.1c-0.3,0-0.6,0-1.1,0.1
				c-0.4,0.1-0.9,0.1-1.3,0.2c-0.4,0.1-0.8,0.2-1.1,0.3c-0.3,0.1-0.5,0.2-0.5,0.3c-0.1,0.6-0.2,1.3-0.3,2.2
				c-0.1,0.8-0.1,1.7-0.2,2.9c-0.1,1.2-0.1,2.6-0.1,4.2c0.1,1.1,0.2,2.2,0.4,3.1c0.1,0.9,0.3,1.7,0.6,2.6c0.2,0.9,0.6,1.5,0.9,2
				c0.3,0.3,0.4,0.6,0.4,0.9c0,0.4-0.2,0.7-0.6,0.9s-0.7,0.3-0.9,0.3c-0.4,0-0.8-0.1-1.1-0.3c-0.2-0.1-0.3-0.2-0.4-0.3
				c-0.5-0.5-0.9-1.1-1.2-1.9c-0.3-0.8-0.5-1.7-0.7-2.6c-0.2-0.9-0.3-1.9-0.4-2.9c-0.1-1-0.1-2-0.1-2.9c0-0.8,0-1.6,0.1-2.5
				c0-0.9,0.1-1.7,0.1-2.5c0.1-0.9,0.2-1.8,0.2-2.7c0-0.1,0-0.1-0.1-0.1h-0.1c-1.4,0-2.4-0.1-2.9-0.4s-0.8-0.6-0.8-1.1
				c0-0.1,0-0.2,0-0.4c0-0.2,0.1-0.3,0.2-0.5c0.1-0.2,0.3-0.3,0.6-0.4c0.2-0.1,0.6-0.2,1-0.2c0.3,0,0.5,0,0.7,0.1
				c0.2,0.1,0.4,0.1,0.8,0.1c0.1,0,0.3,0,0.5,0c0.3,0,0.4-0.1,0.4-0.3c0.2-1.6,0.5-2.9,0.8-3.8c0.3-0.9,0.6-1.6,0.9-2
				c0.3-0.4,0.7-0.7,1-0.8c0.3-0.1,0.7-0.1,1-0.1c0.2,0,0.3,0,0.5,0.1c0.1,0.1,0.3,0.1,0.4,0.3c0.1,0.1,0.1,0.3,0.1,0.5
				c0,0.3,0,0.7-0.1,1c-0.1,0.3-0.2,0.6-0.3,1c-0.1,0.4-0.3,0.8-0.4,1.3c-0.2,0.5-0.3,1.2-0.5,2c0,0.1,0,0.2,0.1,0.2
				c0.1,0,0.4-0.1,0.9-0.2s1-0.2,1.4-0.2c0.5,0,0.9,0.1,1.3,0.3c0.3,0.2,0.5,0.3,0.7,0.5C179.3,79.5,179.4,79.7,179.4,80z"/>
			<path class="st0" d="M190.7,93.8c0,0.8,0,1.7-0.1,2.6s-0.2,1.9-0.4,2.9c0,0.2-0.1,0.4-0.2,0.5c-0.2,0.1-0.3,0.2-0.5,0.3
				c-0.2,0.1-0.5,0.1-0.8,0.2c-0.6,0-1-0.2-1.2-0.5c-0.2-0.4-0.3-0.7-0.3-1.1c0.1-1.2,0.1-2.3,0.2-3.2s0.1-1.7,0.1-2.5
				c0-1.8-0.1-3.2-0.2-4c-0.2-0.8-0.4-1.2-0.7-1.2c-0.4,0-0.8,0.3-1.3,1c-0.5,0.7-0.9,1.4-1.4,2.3c-0.5,0.9-0.9,1.8-1.3,2.8
				c-0.4,1-0.7,1.8-0.8,2.4c-0.1,0.3-0.2,0.5-0.4,0.7c-0.2,0.2-0.3,0.3-0.5,0.4c-0.2,0.1-0.4,0.1-0.5,0.1c-0.2,0-0.3,0-0.4,0
				c-0.3,0-0.6-0.2-0.8-0.6c-0.2-0.4-0.3-0.9-0.4-1.5c-0.1-0.6-0.2-1.3-0.2-2s0-1.4,0-1.9c0-1.8,0.1-3.8,0.2-5.8
				c0.2-2,0.3-3.9,0.5-5.6c0.2-1.8,0.4-3.3,0.6-4.7c0.2-1.4,0.4-2.4,0.5-3c0.1-0.5,0.2-1,0.4-1.4c0.2-0.4,0.5-0.6,1.1-0.6
				c0.4,0,0.8,0.2,1.1,0.5c0.3,0.3,0.4,0.8,0.4,1.6c0,0.3,0,0.7,0,1.1c0,0.4-0.1,0.9-0.3,1.5c-0.3,1.6-0.6,3.3-0.8,5
				c-0.2,1.4-0.4,3-0.6,4.6s-0.2,3.2-0.2,4.6c0,0.1,0,0.2,0,0.3c0,0.2,0.1,0.2,0.2,0.2c0.1,0,0.1-0.1,0.3-0.3c0-0.1,0.2-0.4,0.5-1
				c0.3-0.6,0.8-1.3,1.3-2s1.1-1.4,1.8-2c0.7-0.6,1.3-0.9,2-0.9c0.9,0,1.7,0.8,2.3,2.4S190.7,90.3,190.7,93.8z"/>
			<path class="st0" d="M204.7,85.7c0,0.9-0.2,1.7-0.5,2.5s-0.8,1.6-1.4,2.2c-0.6,0.6-1.3,1.2-2.1,1.5s-1.6,0.6-2.5,0.6
				c-0.1,0-0.1,0-0.2,0.1c0,0,0,0.1,0,0.1c0.1,0.6,0.2,1.1,0.4,1.5c0.2,0.4,0.5,0.7,0.7,0.9c0.3,0.2,0.6,0.4,1,0.5
				c0.7,0.2,1.2,0.5,1.3,0.8c0.2,0.3,0.2,0.6,0.2,0.8c0,0.4-0.1,0.6-0.3,0.8c-0.2,0.2-0.4,0.3-0.6,0.4c-0.3,0.1-0.5,0.2-0.8,0.2
				c-0.9,0-1.7-0.2-2.4-0.6s-1.1-0.9-1.5-1.4c-0.4-0.6-0.8-1.3-1-2.1l-0.1-0.5c-0.1-0.2-0.1-0.4-0.1-0.6c0-0.2-0.1-0.5-0.1-0.8
				c0,0,0-0.1,0-0.1c-0.1-0.1-0.1-0.1-0.2-0.1c-0.3-0.1-0.6-0.2-0.9-0.3c-0.2-0.1-0.4-0.3-0.6-0.6c-0.2-0.2-0.3-0.6-0.3-1.1
				c0-0.2,0.1-0.4,0.2-0.6c0.1-0.1,0.1-0.3,0.3-0.4c0.1-0.1,0.3-0.2,0.5-0.2c0.1,0,0.2,0,0.4,0.1c0.2,0,0.4,0.1,0.7,0.1
				c0.1,0,0.1,0,0.1,0c0,0,0,0,0,0c0.4-1.3,0.9-2.5,1.5-3.5c0.3-0.4,0.6-0.9,0.9-1.3c0.3-0.4,0.7-0.8,1.1-1.1
				c0.4-0.3,0.9-0.6,1.4-0.8c0.5-0.2,1.1-0.3,1.7-0.3c0.3,0,0.6,0,1,0.1s0.7,0.3,1,0.5c0.3,0.2,0.6,0.6,0.8,1
				C204.6,84.4,204.7,85,204.7,85.7z M201.7,86.1c0-0.2,0-0.3-0.1-0.4s-0.1-0.2-0.2-0.3s-0.2-0.1-0.4-0.1c-0.3,0-0.7,0.2-1.1,0.5
				c-0.4,0.3-0.7,0.7-1,1.1s-0.6,0.9-0.8,1.5s-0.3,1-0.3,1.4c0,0.1,0.1,0.2,0.2,0.2c0.2,0,0.5-0.1,0.9-0.2c0.4-0.2,0.8-0.4,1.2-0.7
				c0.4-0.3,0.8-0.7,1.1-1.2C201.5,87.3,201.7,86.7,201.7,86.1z"/>
			<path class="st0" d="M234.8,84.8c0,1.7-0.2,3.3-0.7,4.8c-0.5,1.5-1,2.9-1.7,4c-0.7,1.2-1.4,2.1-2.1,2.7c-0.7,0.7-1.3,1-1.8,1
				c-0.7,0-1.3-0.3-1.8-0.9c-0.5-0.6-0.9-1.2-1.3-1.9c-0.4-0.8-0.7-1.8-1-2.8c0-0.2-0.1-0.3-0.2-0.3c0,0-0.1,0-0.2,0.1l-0.1,0.1
				c-0.4,0.8-0.8,1.5-1.3,2.2s-1,1.3-1.5,1.8c-0.5,0.5-1,1-1.5,1.3c-0.5,0.3-0.9,0.5-1.2,0.5c-0.7,0-1.2-0.3-1.7-1
				c-0.4-0.7-0.8-1.5-1.1-2.5c-0.3-0.9-0.5-1.9-0.6-2.8s-0.2-1.7-0.2-2.1c0-0.5,0-1,0-1.5c0-0.4,0.1-0.8,0.1-1.1
				c0.1-0.4,0.1-0.7,0.2-1c0.1-0.3,0.2-0.5,0.4-0.8c0.1-0.2,0.3-0.4,0.5-0.5s0.5-0.2,0.8-0.2c0.3,0,0.5,0.1,0.7,0.2
				c0.2,0.1,0.3,0.2,0.5,0.4c0.2,0.2,0.2,0.5,0.2,0.9c-0.1,0.4-0.2,0.7-0.2,1.1c-0.1,0.4-0.1,0.8-0.1,1.2c0,0.4,0,0.9,0,1.4
				c0,0.2,0,0.6,0.1,1c0,0.5,0.1,0.9,0.2,1.4c0.1,0.5,0.2,0.9,0.4,1.3s0.4,0.5,0.6,0.5c0.1,0,0.3-0.1,0.6-0.3s0.6-0.5,0.9-0.9
				c0.3-0.4,0.7-1,1.1-1.8c0.4-0.7,0.8-1.7,1.3-2.8c0.1-0.6,0.2-1.2,0.4-1.6c0.2-0.5,0.7-0.7,1.5-0.7c0.3,0,0.6,0.1,0.9,0.2
				c0.3,0.2,0.4,0.5,0.5,1.1c0.1,1.3,0.3,2.4,0.5,3.3c0.2,0.8,0.4,1.6,0.7,2.3c0.3,0.7,0.6,1,1,1c0.2,0,0.5-0.2,0.9-0.5
				c0.3-0.3,0.6-0.8,0.9-1.4s0.5-1.4,0.7-2.2c0.2-0.9,0.3-1.9,0.3-3c0-0.4,0-0.8-0.1-1.1c0-0.3-0.1-0.5-0.1-0.7
				c0-0.2-0.1-0.4-0.1-0.5c0-0.2,0-0.4,0-0.6c0-0.5,0.1-1,0.4-1.4c0.3-0.4,0.8-0.6,1.5-0.6c0.6,0,1.1,0.3,1.3,1
				C234.6,82.7,234.8,83.6,234.8,84.8z"/>
			<path class="st0" d="M248.6,88.3c0,1.4-0.2,2.6-0.6,3.6c-0.4,1-0.9,1.9-1.5,2.6c-0.6,0.7-1.4,1.2-2.2,1.5s-1.6,0.5-2.4,0.5
				c-1.1,0-1.9-0.3-2.5-0.8c-0.6-0.5-1-1.1-1.3-1.8c-0.3-0.8-0.5-1.6-0.5-2.6c0-0.6,0.1-1.2,0.2-1.8s0.3-1.1,0.5-1.6
				c0.2-0.5,0.5-1,0.8-1.5c0,0,0-0.1-0.1-0.2c0,0-0.1,0-0.1,0c-0.4,0-0.8-0.1-1-0.3s-0.4-0.4-0.4-0.7c0-0.4,0.1-0.7,0.4-1.1
				s0.7-0.7,1.2-0.9c0.5-0.3,1-0.5,1.6-0.6c0.6-0.2,1.2-0.3,1.8-0.3c0.5,0,1.1,0.1,1.8,0.2c0.7,0.2,1.4,0.4,2,0.9
				c0.7,0.4,1.2,1,1.7,1.8C248.3,86,248.6,87,248.6,88.3z M245.2,89.1c0-0.7-0.1-1.3-0.3-1.8c-0.1-0.5-0.4-0.9-0.6-1.3
				c-0.3-0.4-0.7-0.5-1.3-0.5c-0.2,0-0.4,0.1-0.6,0.3c-0.2,0.2-0.5,0.5-0.7,0.9c-0.2,0.4-0.4,0.9-0.5,1.5c-0.2,0.6-0.2,1.3-0.2,2
				c0,0.2,0,0.5,0,0.9c0,0.4,0.1,0.8,0.2,1.1c0.1,0.4,0.3,0.7,0.6,1c0.3,0.3,0.6,0.4,1.2,0.4c0.6,0,1-0.2,1.3-0.7s0.5-1,0.7-1.5
				C245,90.7,245.1,90,245.2,89.1z"/>
			<path class="st0" d="M262.3,88.4c0,0.2-0.1,0.4-0.2,0.5c-0.2,0.1-0.3,0.2-0.5,0.3c-0.2,0.1-0.5,0.1-0.8,0.1c-0.6,0-1-0.1-1.3-0.3
				c-0.3-0.2-0.5-0.4-0.7-0.6c-0.2-0.2-0.3-0.4-0.4-0.6c-0.1-0.2-0.2-0.3-0.3-0.3c-0.2,0-0.4,0.3-0.8,0.9c-0.4,0.6-0.8,1.3-1.2,2.3
				c-0.4,0.9-0.7,1.9-1,3.1c-0.3,1.1-0.4,2.2-0.4,3.3c0,0.5-0.1,0.8-0.4,1c-0.3,0.2-0.6,0.3-1,0.3c-0.4,0-0.8-0.2-1-0.6
				c-0.2-0.4-0.4-0.9-0.5-1.5c-0.1-0.6-0.2-1.2-0.2-2c0-0.7,0-1.4,0-2.1c0-1.1,0-2.2,0.1-3.3c0.1-1.1,0.1-2,0.2-2.8
				c0.1-0.6,0.2-1.2,0.3-1.6c0.1-0.4,0.3-0.7,0.5-1s0.5-0.4,0.7-0.5c0.3-0.1,0.6-0.1,1-0.1c0.1,0,0.3,0.1,0.4,0.2
				c0.1,0.1,0.2,0.2,0.3,0.3s0.1,0.4,0.1,0.6c0,0.2,0,0.3,0,0.4c-0.1,0.4-0.1,0.8-0.2,1.2c-0.1,0.4-0.1,0.8-0.2,1.2
				c-0.1,0.5-0.1,0.9-0.1,1.4c0,0.1,0,0.1,0,0.2c0,0.1,0.1,0.1,0.2,0.1c0.1,0,0.1-0.1,0.2-0.2c0.2-0.4,0.4-0.9,0.6-1.4
				c0.2-0.4,0.4-0.9,0.7-1.4c0.3-0.5,0.6-1,0.9-1.5c0.2-0.2,0.3-0.5,0.3-0.6c0.1-0.2,0.2-0.5,0.5-0.9c0.2-0.2,0.4-0.4,0.7-0.6
				c0.2-0.1,0.5-0.3,0.7-0.4c0.3-0.1,0.5-0.2,0.8-0.2c0.2,0,0.4,0.1,0.6,0.2c0.2,0.1,0.3,0.4,0.3,0.7c0,0.4,0,0.7-0.1,1.1
				c-0.1,0.3-0.1,0.8-0.1,1.2c0,0.8,0.1,1.4,0.2,1.8c0.1,0.4,0.3,0.8,0.5,1.1c0.2,0.3,0.3,0.5,0.5,0.6
				C262.2,88.1,262.3,88.3,262.3,88.4z"/>
			<path class="st0" d="M270.2,72.7c-0.4,1.8-0.8,3.7-1.1,5.7c-0.3,1.7-0.6,3.5-0.8,5.5c-0.2,2-0.3,4-0.3,5.9c0,1.4,0.1,2.7,0.3,4
				s0.5,2.3,0.9,3.1c0,0.1,0.1,0.2,0.1,0.3c0.1,0.2,0.2,0.5,0.2,0.7s-0.1,0.6-0.4,0.9c-0.3,0.4-0.7,0.5-1.3,0.5
				c-0.3,0-0.5-0.1-0.7-0.2s-0.4-0.2-0.5-0.4c-0.2-0.2-0.3-0.4-0.5-0.6c-0.5-0.9-0.8-2-1-3.3s-0.3-2.8-0.3-4.3
				c0-1.4,0.1-2.9,0.2-4.5c0.1-1.5,0.3-3,0.5-4.5c0.2-1.5,0.4-2.9,0.7-4.3c0.3-1.4,0.6-2.7,0.9-3.8c0.1-0.3,0.2-0.5,0.3-0.7
				c0.1-0.2,0.3-0.4,0.6-0.5c0.3-0.2,0.6-0.3,1.1-0.3c0.3,0,0.6,0,0.9,0.1c0.3,0.1,0.4,0.3,0.4,0.6L270.2,72.7z"/>
			<path class="st0" d="M286.2,85.3c0,0.5-0.1,0.9-0.4,1c-0.3,0.2-0.5,0.3-0.8,0.3c-0.2,0-0.4,0-0.5,0c-0.1,0-0.2-0.1-0.2-0.1
				c0,0.3,0,0.7,0,1.1s0,0.8,0,1.1c0,0.7,0,1.4,0.1,2.1c0,0.7,0.1,1.3,0.2,1.9c0.1,0.6,0.2,1,0.4,1.4c0.2,0.4,0.3,0.7,0.6,0.8
				c0.2,0.1,0.3,0.3,0.3,0.4s0.1,0.3,0.1,0.3c0,0.3-0.1,0.6-0.3,0.8c-0.2,0.2-0.3,0.3-0.5,0.4c-0.2,0.1-0.5,0.2-0.8,0.2
				c-0.7,0-1.2-0.2-1.5-0.6c-0.4-0.4-0.6-0.8-0.8-1.3c-0.2-0.5-0.3-1.1-0.4-1.8c0-0.1,0-0.2-0.1-0.2c0,0-0.1,0-0.1,0.1l-0.1,0.1
				c-0.8,1-1.5,1.8-2.3,2.3c-0.8,0.5-1.5,0.9-2.1,1.2c-0.6,0.3-1.2,0.4-1.6,0.4c-0.4,0-0.7,0.1-0.8,0.1c-0.6,0-1-0.1-1.4-0.4
				c-0.3-0.2-0.6-0.6-0.8-0.9c-0.2-0.4-0.3-0.7-0.4-1.1c-0.1-0.4-0.1-0.8-0.1-1.1c0-1.5,0.3-2.8,0.9-4c0.6-1.2,1.3-2.2,2.2-3.1
				c0.9-0.9,1.9-1.6,3.1-2.2c1.1-0.6,2.3-0.9,3.5-1.2c0,0,0.1,0,0.1,0c0,0,0.1,0,0.1-0.1c0,0,0,0,0-0.1c0-0.5,0.1-1,0.1-1.6
				s0.1-1.2,0.1-1.9c0.1-1.4,0.2-2.8,0.3-4c0.1-0.5,0.1-1.1,0.2-1.6c0.1-0.5,0.2-1,0.3-1.5c0.1-0.5,0.2-0.9,0.4-1.2
				c0.1-0.3,0.3-0.6,0.5-0.8c0.2-0.2,0.3-0.3,0.5-0.4c0.1-0.1,0.3-0.2,0.5-0.3c0.2-0.1,0.4-0.1,0.6-0.1c0.2,0,0.4,0.1,0.6,0.2
				c0.2,0.1,0.3,0.4,0.3,1c0,0.3,0,0.6-0.1,1.1c-0.2,1-0.4,2.1-0.5,3.2c-0.1,1.1-0.3,2.1-0.4,2.9c-0.1,1.1-0.2,2.1-0.3,3.1
				c0,0.2,0,0.4,0,0.6c0,0.2,0,0.4-0.1,0.7c0,0.3,0,0.6-0.1,0.9c0,0.1,0,0.1,0,0.1c0,0,0.1,0,0.1,0c0.4,0.1,0.7,0.3,1,0.6
				C286.1,84.5,286.2,84.8,286.2,85.3z M281.5,86.7c0-0.1-0.1-0.2-0.3-0.2c-0.7,0.1-1.4,0.3-2.1,0.7c-0.7,0.4-1.3,0.9-1.9,1.5
				c-0.5,0.6-1,1.3-1.3,2c-0.3,0.7-0.5,1.5-0.5,2.2c0,0.3,0.1,0.6,0.2,0.8c0.1,0.2,0.3,0.4,0.7,0.4c0.4,0,1-0.2,1.6-0.6
				c0.6-0.4,1.2-1,1.7-1.7c0.5-0.7,1-1.5,1.4-2.4C281.3,88.7,281.5,87.7,281.5,86.7z"/>
		</g>
	</g>
	<g>
		<g>
			<g>
				<path class="st0" d="M42.6,121.2c0.2,0.7,0.2,1.7,0,2.8c-0.2,1.2-0.5,2.4-1,3.7c-0.5,1.3-1.1,2.6-1.9,3.9
					c-0.8,1.3-1.6,2.5-2.6,3.5c-1,1-2,1.9-3.1,2.5c-1.1,0.6-2.3,0.9-3.5,0.9s-2.2-0.2-2.8-0.7c-0.6-0.5-1-1.1-1.2-1.9
					c-0.2-0.8-0.2-1.7,0-2.8s0.4-2.1,0.8-3.2c0.4-1.1,0.8-2.2,1.2-3.3c0.4-1.1,0.8-2.1,1.2-3s0.6-1.6,0.8-2.3s0.1-1-0.1-1.2
					c-0.2-0.2-0.1-0.3,0.2-0.5c0.3-0.2,0.8-0.3,1.3-0.3c0.5,0,1,0.1,1.6,0.3c0.6,0.3,0.9,0.8,1.2,1.5c0.2,0.7,0.2,1.7-0.1,2.7
					c-0.3,1.1-0.7,2.2-1.3,3.4c-0.5,1.2-1.1,2.3-1.7,3.5c-0.6,1.2-1.1,2.2-1.4,3.1s-0.5,1.7-0.4,2.2s0.5,0.8,1.3,0.8
					c0.8,0,1.5-0.4,2.2-1.2c0.7-0.8,1.4-1.8,2-3c0.6-1.2,1.1-2.5,1.6-3.9c0.5-1.4,0.8-2.7,1.2-4c0.3-1.2,0.5-2.3,0.6-3.2
					s0.1-1.4,0-1.6c-0.1-0.2,0-0.3,0.3-0.5c0.3-0.2,0.7-0.3,1.2-0.3c0.5,0,1,0.1,1.5,0.3S42.4,120.4,42.6,121.2z"/>
				<path class="st0" d="M60.7,126c0.3,0.2,0.4,0.5,0.2,0.8c-0.4,0.9-1,1.9-1.6,2.9c-0.6,1-1.3,2-2,3c-0.8,1-1.6,1.8-2.4,2.7
					c-0.8,0.8-1.7,1.5-2.6,2s-1.8,0.8-2.8,1c-0.9,0.2-1.9,0-2.8-0.3c-1-0.4-1.8-1-2.2-1.8c-0.4-0.8-0.7-1.6-0.8-2.6
					c-0.1-0.9,0-1.9,0.2-2.9c0.2-1,0.5-1.9,0.8-2.8c0.6-1.6,1.3-2.9,2.1-4c0.8-1.1,1.6-2,2.4-2.7c0.8-0.7,1.7-1.2,2.6-1.5
					c0.9-0.3,1.8-0.5,2.7-0.5c1,0,1.6,0.2,2.1,0.7c0.4,0.5,0.7,1.1,0.7,1.8c0,0.7-0.2,1.6-0.6,2.5c-0.4,0.9-1,1.8-1.8,2.6
					c-0.8,0.9-1.7,1.6-2.8,2.3s-2.3,1.2-3.6,1.6c-0.2,0.7-0.3,1.3-0.4,2c-0.1,0.7-0.1,1.3,0,1.8c0.1,0.5,0.2,1,0.4,1.3
					s0.5,0.6,0.9,0.7c0.6,0.1,1.2,0,1.8-0.2c0.7-0.3,1.3-0.7,2-1.2c0.7-0.5,1.3-1.2,2-1.9c0.7-0.7,1.3-1.5,1.8-2.3
					c0.6-0.8,1.1-1.6,1.5-2.4c0.4-0.8,0.8-1.5,1.1-2.2c0.1-0.2,0.2-0.3,0.4-0.4C60.3,125.8,60.5,125.9,60.7,126z M49.4,128.4
					c-0.1,0.3-0.2,0.5-0.3,0.8c1.5-0.5,2.8-1.3,3.8-2.2c1-0.9,1.7-1.9,2.2-2.8c0.5-0.9,0.7-1.7,0.8-2.4s-0.2-1-0.7-1
					c-0.7,0-1.6,0.6-2.6,2C51.5,124.1,50.4,126,49.4,128.4z"/>
				<path class="st0" d="M70.2,122.3c0-0.2,0.1-0.4,0.2-0.6c0.1-0.2,0.3-0.3,0.4-0.5c-0.1-0.3-0.3-0.5-0.6-0.5
					c-0.4,0-0.8,0.1-1.2,0.5s-0.9,0.8-1.4,1.5c-0.5,0.7-1,1.5-1.6,2.4c-0.5,1-1.1,2-1.6,3.2c-0.3,0.7-0.6,1.5-0.8,2.4
					c-0.2,0.9-0.3,1.7-0.4,2.5s0.1,1.5,0.2,2.1c0.2,0.6,0.5,1,1,1.2c0.6,0.2,1.2,0,1.8-0.6c0.6-0.7,1.3-1.5,1.9-2.6s1.3-2.2,1.9-3.5
					c0.6-1.2,1.2-2.3,1.7-3.3c0-0.1,0-0.1,0-0.2c0.7-1.6,1.2-3,1.6-4.2c0.4-1.2,0.5-1.9,0.2-2.2c-0.1-0.2,0-0.3,0.3-0.5
					s0.8-0.3,1.3-0.3c0.5,0,1.1,0.1,1.6,0.4c0.5,0.3,0.9,0.8,1.1,1.6c0.1,0.4,0.1,1.1-0.2,2.1c-0.3,1-0.6,2-1.1,3.3
					c-0.5,1.2-1,2.5-1.6,3.8s-1.2,2.6-1.7,3.7s-1,2.2-1.4,3.1c-0.4,0.9-0.7,1.5-0.8,1.8c0.9-0.6,1.9-1.5,2.9-2.6s1.9-2.3,2.8-3.5
					c0.9-1.2,1.6-2.4,2.3-3.6c0.7-1.2,1.1-2.1,1.4-2.8c0.1-0.2,0.2-0.4,0.4-0.4s0.3-0.1,0.5,0c0.2,0.1,0.3,0.2,0.4,0.3
					c0.1,0.2,0.1,0.3,0,0.5c-0.6,1.3-1.3,2.7-2.2,4.1s-1.9,2.8-2.9,4.2c-1.1,1.3-2.2,2.5-3.3,3.6c-1.2,1.1-2.3,1.9-3.4,2.4
					c-0.2,0.4-0.4,0.9-0.6,1.5c-0.3,0.6-0.5,1.2-0.8,1.8c-0.3,0.6-0.5,1.2-0.7,1.7c-0.2,0.5-0.4,0.9-0.5,1.2
					c-0.3,0.7-0.7,1.3-1.2,1.8c-0.6,0.5-1.2,0.9-1.9,1.2c-0.7,0.3-1.4,0.4-2.2,0.5c-0.7,0-1.4,0-2.1-0.2s-1.2-0.5-1.7-1
					s-0.8-1-0.9-1.7c0-0.2,0-0.5,0.1-0.8c0.1-0.3,0.3-0.7,0.7-1c0.4-0.4,0.9-0.8,1.5-1.1c0.6-0.3,1.2-0.7,1.8-1
					c0.6-0.3,1.2-0.6,1.8-0.9c0.6-0.3,1.1-0.7,1.6-1.1c0.3-0.7,0.6-1.5,0.9-2.4c0.3-0.9,0.7-1.8,1.1-2.7c-0.7,0.7-1.6,1.2-2.4,1.4
					s-1.9,0.1-3-0.3c-1-0.4-1.8-1-2.2-1.8c-0.4-0.8-0.7-1.7-0.8-2.6s0-1.9,0.2-2.9c0.2-1,0.5-1.9,0.8-2.8c0.6-1.6,1.3-2.9,2.1-4
					c0.8-1.1,1.6-2,2.4-2.7c0.8-0.7,1.7-1.2,2.6-1.5c0.9-0.3,1.8-0.4,2.7-0.4c0.3,0,0.6,0.1,1,0.2s0.7,0.2,1,0.4
					c0.3,0.2,0.5,0.5,0.8,0.8c0.2,0.3,0.3,0.8,0.3,1.3s-0.1,0.9-0.3,1.1c-0.2,0.3-0.5,0.4-0.8,0.4c-0.3,0-0.6-0.1-0.8-0.3
					C70.3,122.9,70.2,122.6,70.2,122.3z M64.5,143.7c-0.4,0.3-0.8,0.6-1.3,0.8c-0.5,0.2-1,0.5-1.5,0.7c-0.5,0.2-1,0.5-1.4,0.8
					c-0.4,0.3-0.8,0.6-1.1,1c-0.2,0.3-0.3,0.5-0.2,0.8c0,0.3,0.2,0.6,0.3,0.8c0.2,0.2,0.4,0.4,0.7,0.6s0.6,0.1,1,0
					c0.4-0.1,0.7-0.4,1.1-0.8c0.4-0.4,0.7-1,1.1-1.8c0.2-0.4,0.3-0.8,0.6-1.3C64.1,144.9,64.3,144.3,64.5,143.7z"/>
				<path class="st0" d="M96.7,126c0.3,0.2,0.4,0.5,0.2,0.8c-0.4,0.9-1,1.9-1.6,2.9c-0.6,1-1.3,2-2,3c-0.8,1-1.6,1.8-2.4,2.7
					c-0.8,0.8-1.7,1.5-2.6,2s-1.8,0.8-2.8,1c-0.9,0.2-1.9,0-2.8-0.3c-1-0.4-1.8-1-2.2-1.8c-0.4-0.8-0.7-1.6-0.8-2.6
					c-0.1-0.9,0-1.9,0.2-2.9c0.2-1,0.5-1.9,0.8-2.8c0.6-1.6,1.3-2.9,2.1-4c0.8-1.1,1.6-2,2.4-2.7c0.8-0.7,1.7-1.2,2.6-1.5
					c0.9-0.3,1.8-0.5,2.7-0.5c1,0,1.6,0.2,2.1,0.7c0.4,0.5,0.7,1.1,0.7,1.8c0,0.7-0.2,1.6-0.6,2.5c-0.4,0.9-1,1.8-1.8,2.6
					c-0.8,0.9-1.7,1.6-2.8,2.3s-2.3,1.2-3.6,1.6c-0.2,0.7-0.3,1.3-0.4,2c-0.1,0.7-0.1,1.3,0,1.8c0.1,0.5,0.2,1,0.4,1.3
					s0.5,0.6,0.9,0.7c0.6,0.1,1.2,0,1.8-0.2c0.7-0.3,1.3-0.7,2-1.2c0.7-0.5,1.3-1.2,2-1.9c0.7-0.7,1.3-1.5,1.8-2.3
					c0.6-0.8,1.1-1.6,1.5-2.4c0.4-0.8,0.8-1.5,1.1-2.2c0.1-0.2,0.2-0.3,0.4-0.4C96.3,125.8,96.5,125.9,96.7,126z M85.4,128.4
					c-0.1,0.3-0.2,0.5-0.3,0.8c1.5-0.5,2.8-1.3,3.8-2.2c1-0.9,1.7-1.9,2.2-2.8c0.5-0.9,0.7-1.7,0.8-2.4s-0.2-1-0.7-1
					c-0.7,0-1.6,0.6-2.6,2C87.5,124.1,86.4,126,85.4,128.4z"/>
				<path class="st0" d="M91,117.6c0,0.4-0.1,0.6-0.3,0.7c-0.2,0.1-0.4,0.1-0.6,0c-0.2-0.1-0.4-0.4-0.5-0.8
					c-0.1-0.4-0.2-0.9-0.1-1.6c0.1-1.1,0.5-1.9,1.2-2.5c0.7-0.6,1.7-0.9,2.9-1.1c1.2-0.2,2.5-0.3,4-0.2c1.5,0.1,3,0.2,4.6,0.3
					c0.4-1.2,0.8-2.1,1-2.8c0.2-0.7,0.2-1.2,0.1-1.3c-0.2-0.2-0.1-0.3,0.2-0.5s0.8-0.3,1.3-0.3c0.5,0,1,0.1,1.6,0.3s0.9,0.8,1.2,1.5
					c0.1,0.4,0.1,0.8,0,1.5c-0.1,0.6-0.3,1.3-0.5,2.1c1.1,0.1,2.3,0.1,3.4,0c1.1-0.1,2.1-0.1,3-0.3c0.9-0.1,1.6-0.3,2.2-0.6
					c0.6-0.2,0.8-0.5,0.8-0.8c0-0.4,0.1-0.6,0.3-0.6c0.2,0,0.5,0.1,0.7,0.3c0.2,0.2,0.4,0.5,0.5,0.8c0.1,0.3,0,0.6-0.3,0.9
					c-0.3,0.3-0.9,0.6-1.6,0.9c-0.7,0.3-1.6,0.6-2.6,0.8c-1,0.2-2.1,0.4-3.4,0.6c-1.2,0.2-2.5,0.2-3.9,0.3c-0.5,1.4-1.2,2.9-1.9,4.5
					c-0.8,1.6-1.5,3.2-2.3,4.8c-0.8,1.6-1.5,3.1-2.2,4.6c-0.7,1.5-1.3,2.8-1.7,3.9s-0.7,2-0.8,2.7c-0.1,0.7,0.1,1,0.6,0.9
					c0.3,0,0.6-0.2,1-0.6c0.4-0.4,0.8-0.9,1.3-1.5s1-1.3,1.5-2s1-1.5,1.5-2.2c0.5-0.7,0.9-1.4,1.2-2.1c0.4-0.7,0.6-1.2,0.8-1.7
					c0.1-0.2,0.2-0.3,0.4-0.4c0.2-0.1,0.3-0.1,0.5,0c0.2,0.1,0.3,0.2,0.4,0.3c0.1,0.2,0.1,0.3,0,0.5c-0.2,0.4-0.5,1-0.9,1.8
					c-0.4,0.8-0.8,1.6-1.4,2.4c-0.5,0.9-1.1,1.7-1.7,2.6s-1.3,1.7-1.9,2.4c-0.7,0.7-1.3,1.3-2,1.8c-0.7,0.5-1.3,0.7-1.9,0.7
					c-0.5,0-1-0.1-1.3-0.3c-0.4-0.2-0.7-0.6-0.9-1c-0.2-0.4-0.4-0.9-0.5-1.5s-0.1-1.3,0-1.9c0.1-0.8,0.4-1.9,0.9-3.4
					c0.5-1.4,1.1-3,1.8-4.8c0.7-1.7,1.4-3.5,2.2-5.4s1.5-3.5,2.2-5.1c-1.3,0-2.6,0-3.8,0.1c-1.2,0-2.3,0.1-3.2,0.3
					c-0.9,0.2-1.6,0.4-2.2,0.8S91.1,117,91,117.6z"/>
				<path class="st0" d="M115.8,122.3c0-0.2,0.1-0.4,0.2-0.6c0.1-0.2,0.3-0.3,0.4-0.5c-0.1-0.3-0.3-0.5-0.6-0.5
					c-0.4,0-0.8,0.1-1.2,0.5s-0.9,0.8-1.4,1.5c-0.5,0.7-1,1.5-1.6,2.4c-0.5,1-1.1,2-1.6,3.2c-0.3,0.7-0.6,1.5-0.8,2.4
					c-0.2,0.9-0.3,1.7-0.4,2.5s0.1,1.5,0.2,2.1c0.2,0.6,0.5,1,1,1.2c0.4,0.2,0.7,0.1,1.1-0.1c0.4-0.2,0.8-0.6,1.2-1.1
					c0.4-0.5,0.8-1.1,1.2-1.8s0.8-1.4,1.2-2.2c0.4-0.8,0.8-1.5,1.2-2.3c0.4-0.8,0.7-1.5,1.1-2.1c0.4-0.8,0.7-1.6,1.1-2.4
					c0.3-0.8,0.6-1.4,0.9-2c0.2-0.6,0.4-1.1,0.5-1.5c0.1-0.4,0-0.7-0.1-0.9c-0.2-0.2-0.1-0.3,0.2-0.5s0.8-0.3,1.3-0.3
					c0.5,0,1,0.1,1.6,0.3s0.9,0.8,1.2,1.5c0.2,0.7,0.2,1.6-0.1,2.7c-0.3,1.1-0.7,2.2-1.3,3.3c-0.6,1.2-1.1,2.3-1.8,3.4
					c-0.6,1.1-1.2,2.1-1.6,3c-0.4,0.9-0.7,1.6-0.7,2.1c-0.1,0.5,0.2,0.8,0.8,0.7c0.2,0,0.6-0.2,1-0.6c0.4-0.4,0.9-0.9,1.3-1.5
					s1-1.3,1.5-2c0.5-0.7,1-1.5,1.5-2.2c0.4-0.7,0.9-1.4,1.2-2.1c0.4-0.7,0.6-1.2,0.8-1.7c0.1-0.2,0.2-0.3,0.4-0.4
					c0.2-0.1,0.3-0.1,0.5,0c0.2,0.1,0.3,0.2,0.4,0.3c0.1,0.2,0.1,0.3,0,0.5c-0.2,0.4-0.5,1-0.9,1.8c-0.4,0.8-0.8,1.6-1.4,2.4
					c-0.5,0.9-1.1,1.7-1.7,2.6c-0.6,0.9-1.3,1.7-1.9,2.4c-0.7,0.7-1.3,1.3-2,1.8c-0.7,0.5-1.3,0.7-1.9,0.7c-1,0.1-1.7-0.3-2.2-1.2
					c-0.5-0.8-0.7-1.9-0.5-3.2c-0.5,0.8-1,1.5-1.5,2.2c-0.5,0.7-1.1,1.2-1.8,1.6s-1.3,0.6-2,0.7c-0.7,0.1-1.5-0.1-2.3-0.4
					c-1-0.4-1.8-1-2.2-1.8c-0.4-0.8-0.7-1.7-0.8-2.6s0-1.9,0.2-2.9c0.2-1,0.5-1.9,0.8-2.8c0.6-1.6,1.3-2.9,2.1-4
					c0.8-1.1,1.6-2,2.4-2.7c0.8-0.7,1.7-1.2,2.6-1.5c0.9-0.3,1.8-0.4,2.7-0.4c0.3,0,0.6,0.1,1,0.2s0.7,0.2,1,0.4
					c0.3,0.2,0.5,0.5,0.8,0.8c0.2,0.3,0.3,0.8,0.3,1.3c0,0.6-0.1,0.9-0.4,1.2c-0.2,0.2-0.5,0.3-0.8,0.3c-0.3,0-0.6-0.1-0.8-0.3
					C115.9,122.9,115.8,122.6,115.8,122.3z"/>
				<path class="st0" d="M131.8,135.4c0,0.5-0.2,0.8-0.7,1c0.2,0.3,0.4,0.5,0.7,0.5c0.3,0,0.7-0.1,1.2-0.5c0.4-0.3,0.9-0.8,1.4-1.5
					c0.5-0.7,1-1.5,1.6-2.4s1.1-2,1.6-3.2c0.3-0.7,0.6-1.6,0.8-2.4c0.2-0.9,0.3-1.7,0.4-2.5c0-0.8,0-1.5-0.2-2.1
					c-0.2-0.6-0.5-0.9-1-1.1c-0.6-0.1-1.2,0.1-1.8,0.5c-0.6,0.5-1.3,1.1-1.9,2s-1.2,1.8-1.8,2.8c-0.6,1-1.1,2-1.6,3
					c-0.5,1-0.9,1.9-1.3,2.8c-0.4,0.9-0.7,1.7-1,2.4c-0.2,0.7-0.4,1.3-0.5,1.8c-0.1,0.5-0.1,0.8,0,1c0.1,0.2,0,0.4-0.2,0.6
					c-0.3,0.2-0.6,0.3-1,0.3c-0.4,0-0.9-0.1-1.3-0.4c-0.4-0.3-0.8-0.8-1-1.6c-0.2-0.5-0.1-1.2,0.1-2.2s0.6-2.2,1.1-3.6
					c0.5-1.4,1.1-2.9,1.8-4.4c0.7-1.6,1.4-3.2,2.1-4.8s1.4-3.2,2-4.7s1.2-2.9,1.7-4.1c0.5-1.2,0.8-2.2,1.1-3
					c0.2-0.8,0.3-1.3,0.1-1.4c-0.2-0.2-0.1-0.3,0.2-0.5c0.3-0.2,0.8-0.3,1.3-0.3c0.5,0,1.1,0.1,1.6,0.3s0.9,0.8,1.2,1.5
					c0.1,0.4,0.1,1.1-0.1,1.8s-0.4,1.7-0.8,2.8c-0.4,1.1-0.8,2.2-1.4,3.4c-0.5,1.2-1.1,2.5-1.7,3.8c0.8-0.8,1.8-1.3,2.8-1.7
					s2.1-0.2,3.2,0.3c1,0.4,1.8,1,2.2,1.8c0.4,0.8,0.7,1.6,0.8,2.6c0.1,0.9,0,1.9-0.2,2.9c-0.2,1-0.5,1.9-0.8,2.8
					c-0.7,1.7-1.4,3.1-2.2,4.2c-0.8,1.2-1.7,2.1-2.6,2.8c1.3-0.3,2.4-0.8,3.4-1.6s1.9-1.8,2.8-2.8c0.8-1,1.6-2,2.3-3.1
					c0.7-1,1.2-2,1.7-2.8c0.1-0.2,0.2-0.3,0.3-0.4s0.3,0,0.6,0.1c0.2,0.1,0.3,0.2,0.3,0.4c0,0.2,0,0.3-0.1,0.5
					c-0.6,1.3-1.3,2.5-2.1,3.7c-0.8,1.2-1.7,2.3-2.7,3.4c-0.6,0.7-1.3,1.4-2.1,2c-0.7,0.6-1.6,1.1-2.5,1.5c-0.9,0.4-1.9,0.7-3.1,0.8
					s-2.5,0.2-4,0c-0.3,0-0.6-0.1-1-0.2c-0.3-0.1-0.7-0.2-1-0.4s-0.5-0.5-0.8-0.8c-0.2-0.3-0.3-0.8-0.3-1.3c0-0.5,0.1-0.9,0.3-1.1
					c0.2-0.3,0.5-0.4,0.9-0.4c0.3,0,0.6,0.1,0.8,0.3C131.7,134.8,131.8,135.1,131.8,135.4z"/>
				<path class="st0" d="M158.5,126.8c-0.2,0.4-0.5,1-0.9,1.8c-0.4,0.8-0.8,1.6-1.4,2.4c-0.5,0.9-1.1,1.7-1.7,2.6s-1.3,1.7-1.9,2.4
					c-0.7,0.7-1.3,1.3-2,1.8c-0.7,0.5-1.3,0.7-1.9,0.7c-0.5,0-1-0.1-1.3-0.3c-0.4-0.2-0.7-0.6-0.9-1c-0.2-0.4-0.4-0.9-0.5-1.5
					s-0.1-1.3,0-1.9c0.1-0.8,0.4-2,1-3.6c0.5-1.5,1.2-3.2,1.9-5.1c0.7-1.8,1.5-3.7,2.3-5.6c0.8-1.9,1.6-3.7,2.2-5.3
					c0.7-1.6,1.2-2.9,1.5-4c0.4-1.1,0.4-1.7,0.3-1.9c-0.2-0.2-0.1-0.3,0.2-0.5s0.8-0.3,1.3-0.3c0.5,0,1,0.1,1.6,0.3
					c0.6,0.3,0.9,0.8,1.2,1.5c0.2,0.6,0.1,1.4-0.2,2.5c-0.3,1.1-0.7,2.3-1.3,3.7c-0.6,1.4-1.2,2.9-1.9,4.5c-0.7,1.6-1.5,3.2-2.3,4.8
					c-0.8,1.6-1.5,3.1-2.2,4.5c-0.7,1.5-1.2,2.7-1.7,3.8c-0.4,1.1-0.7,2-0.7,2.6c-0.1,0.6,0.1,0.9,0.6,0.9c0.3,0,0.6-0.2,1-0.6
					s0.8-0.9,1.3-1.5c0.5-0.6,1-1.3,1.5-2c0.5-0.7,1-1.5,1.5-2.2c0.5-0.7,0.9-1.4,1.2-2.1c0.4-0.7,0.6-1.2,0.8-1.7
					c0.1-0.2,0.2-0.3,0.4-0.4c0.2-0.1,0.3-0.1,0.5,0c0.2,0.1,0.3,0.2,0.4,0.3C158.6,126.4,158.6,126.6,158.5,126.8z"/>
				<path class="st0" d="M173.3,126c0.3,0.2,0.4,0.5,0.2,0.8c-0.4,0.9-1,1.9-1.6,2.9c-0.6,1-1.3,2-2,3c-0.8,1-1.6,1.8-2.4,2.7
					c-0.8,0.8-1.7,1.5-2.6,2s-1.8,0.8-2.8,1c-0.9,0.2-1.9,0-2.8-0.3c-1-0.4-1.8-1-2.2-1.8c-0.4-0.8-0.7-1.6-0.8-2.6
					c-0.1-0.9,0-1.9,0.2-2.9c0.2-1,0.5-1.9,0.8-2.8c0.6-1.6,1.3-2.9,2.1-4c0.8-1.1,1.6-2,2.4-2.7c0.8-0.7,1.7-1.2,2.6-1.5
					c0.9-0.3,1.8-0.5,2.7-0.5c1,0,1.6,0.2,2.1,0.7c0.4,0.5,0.7,1.1,0.7,1.8c0,0.7-0.2,1.6-0.6,2.5c-0.4,0.9-1,1.8-1.8,2.6
					c-0.8,0.9-1.7,1.6-2.8,2.3s-2.3,1.2-3.6,1.6c-0.2,0.7-0.3,1.3-0.4,2c-0.1,0.7-0.1,1.3,0,1.8c0.1,0.5,0.2,1,0.4,1.3
					s0.5,0.6,0.9,0.7c0.6,0.1,1.2,0,1.8-0.2c0.7-0.3,1.3-0.7,2-1.2c0.7-0.5,1.3-1.2,2-1.9c0.7-0.7,1.3-1.5,1.8-2.3
					c0.6-0.8,1.1-1.6,1.5-2.4c0.4-0.8,0.8-1.5,1.1-2.2c0.1-0.2,0.2-0.3,0.4-0.4C172.9,125.8,173.1,125.9,173.3,126z M162,128.4
					c-0.1,0.3-0.2,0.5-0.3,0.8c1.5-0.5,2.8-1.3,3.8-2.2c1-0.9,1.7-1.9,2.2-2.8c0.5-0.9,0.7-1.7,0.8-2.4s-0.2-1-0.7-1
					c-0.7,0-1.6,0.6-2.6,2C164.1,124.1,163.1,126,162,128.4z"/>
				<path class="st0" d="M189,135.4c0,0.5-0.2,0.8-0.7,1c0.2,0.3,0.4,0.5,0.7,0.5c0.3,0,0.7-0.1,1.2-0.5c0.4-0.3,0.9-0.8,1.4-1.5
					c0.5-0.7,1-1.5,1.6-2.4s1.1-2,1.6-3.2c0.3-0.7,0.6-1.6,0.8-2.4c0.2-0.9,0.3-1.7,0.4-2.5c0-0.8,0-1.5-0.2-2.1
					c-0.2-0.6-0.5-0.9-1-1.1c-0.6-0.1-1.2,0.1-1.8,0.5c-0.6,0.5-1.3,1.1-1.9,2s-1.2,1.8-1.8,2.8c-0.6,1-1.1,2-1.6,3
					c-0.5,1-0.9,1.9-1.3,2.8c-0.4,0.9-0.7,1.7-1,2.4c-0.2,0.7-0.4,1.3-0.5,1.8c-0.1,0.5-0.1,0.8,0,1c0.1,0.2,0,0.4-0.2,0.6
					c-0.3,0.2-0.6,0.3-1,0.3c-0.4,0-0.9-0.1-1.3-0.4c-0.4-0.3-0.8-0.8-1-1.6c-0.2-0.5-0.1-1.2,0.1-2.2s0.6-2.2,1.1-3.6
					c0.5-1.4,1.1-2.9,1.8-4.4c0.7-1.6,1.4-3.2,2.1-4.8s1.4-3.2,2-4.7s1.2-2.9,1.7-4.1c0.5-1.2,0.8-2.2,1.1-3
					c0.2-0.8,0.3-1.3,0.1-1.4c-0.2-0.2-0.1-0.3,0.2-0.5c0.3-0.2,0.8-0.3,1.3-0.3c0.5,0,1.1,0.1,1.6,0.3s0.9,0.8,1.2,1.5
					c0.1,0.4,0.1,1.1-0.1,1.8s-0.4,1.7-0.8,2.8c-0.4,1.1-0.8,2.2-1.4,3.4c-0.5,1.2-1.1,2.5-1.7,3.8c0.8-0.8,1.8-1.3,2.8-1.7
					s2.1-0.2,3.2,0.3c1,0.4,1.8,1,2.2,1.8c0.4,0.8,0.7,1.6,0.8,2.6c0.1,0.9,0,1.9-0.2,2.9c-0.2,1-0.5,1.9-0.8,2.8
					c-0.7,1.7-1.4,3.1-2.2,4.2c-0.8,1.2-1.7,2.1-2.6,2.8c1.3-0.3,2.4-0.8,3.4-1.6s1.9-1.8,2.8-2.8c0.8-1,1.6-2,2.3-3.1
					c0.7-1,1.2-2,1.7-2.8c0.1-0.2,0.2-0.3,0.3-0.4s0.3,0,0.6,0.1c0.2,0.1,0.3,0.2,0.3,0.4c0,0.2,0,0.3-0.1,0.5
					c-0.6,1.3-1.3,2.5-2.1,3.7c-0.8,1.2-1.7,2.3-2.7,3.4c-0.6,0.7-1.3,1.4-2.1,2c-0.7,0.6-1.6,1.1-2.5,1.5c-0.9,0.4-1.9,0.7-3.1,0.8
					s-2.5,0.2-4,0c-0.3,0-0.6-0.1-1-0.2c-0.3-0.1-0.7-0.2-1-0.4s-0.5-0.5-0.8-0.8c-0.2-0.3-0.3-0.8-0.3-1.3c0-0.5,0.1-0.9,0.3-1.1
					c0.2-0.3,0.5-0.4,0.9-0.4c0.3,0,0.6,0.1,0.8,0.3C188.8,134.8,189,135.1,189,135.4z"/>
				<path class="st0" d="M220.8,126c0.3,0.2,0.4,0.5,0.2,0.8c-0.4,0.9-1,1.9-1.6,2.9c-0.6,1-1.3,2-2,3c-0.8,1-1.6,1.8-2.4,2.7
					c-0.8,0.8-1.7,1.5-2.6,2s-1.8,0.8-2.8,1c-0.9,0.2-1.9,0-2.8-0.3c-1-0.4-1.8-1-2.2-1.8c-0.4-0.8-0.7-1.6-0.8-2.6
					c-0.1-0.9,0-1.9,0.2-2.9c0.2-1,0.5-1.9,0.8-2.8c0.6-1.6,1.3-2.9,2.1-4c0.8-1.1,1.6-2,2.4-2.7c0.8-0.7,1.7-1.2,2.6-1.5
					c0.9-0.3,1.8-0.5,2.7-0.5c1,0,1.6,0.2,2.1,0.7c0.4,0.5,0.7,1.1,0.7,1.8c0,0.7-0.2,1.6-0.6,2.5c-0.4,0.9-1,1.8-1.8,2.6
					c-0.8,0.9-1.7,1.6-2.8,2.3s-2.3,1.2-3.6,1.6c-0.2,0.7-0.3,1.3-0.4,2c-0.1,0.7-0.1,1.3,0,1.8c0.1,0.5,0.2,1,0.4,1.3
					s0.5,0.6,0.9,0.7c0.6,0.1,1.2,0,1.8-0.2c0.7-0.3,1.3-0.7,2-1.2c0.7-0.5,1.3-1.2,2-1.9c0.7-0.7,1.3-1.5,1.8-2.3
					c0.6-0.8,1.1-1.6,1.5-2.4c0.4-0.8,0.8-1.5,1.1-2.2c0.1-0.2,0.2-0.3,0.4-0.4C220.4,125.8,220.6,125.9,220.8,126z M209.5,128.4
					c-0.1,0.3-0.2,0.5-0.3,0.8c1.5-0.5,2.8-1.3,3.8-2.2c1-0.9,1.7-1.9,2.2-2.8c0.5-0.9,0.7-1.7,0.8-2.4s-0.2-1-0.7-1
					c-0.7,0-1.6,0.6-2.6,2C211.6,124.1,210.6,126,209.5,128.4z"/>
				<path class="st0" d="M234.8,121.2c0.2,0.7,0.2,1.7,0,2.8c-0.2,1.2-0.5,2.4-1,3.7c-0.5,1.3-1.1,2.6-1.9,3.9
					c-0.8,1.3-1.6,2.5-2.6,3.5c-1,1-2,1.9-3.1,2.5c-1.1,0.6-2.3,0.9-3.5,0.9s-2.2-0.2-2.8-0.7c-0.6-0.5-1-1.1-1.2-1.9
					c-0.2-0.8-0.2-1.7,0-2.8s0.4-2.1,0.8-3.2c0.4-1.1,0.8-2.2,1.2-3.3c0.4-1.1,0.8-2.1,1.2-3s0.6-1.6,0.8-2.3s0.1-1-0.1-1.2
					c-0.2-0.2-0.1-0.3,0.2-0.5c0.3-0.2,0.8-0.3,1.3-0.3s1,0.1,1.6,0.3c0.6,0.3,0.9,0.8,1.2,1.5c0.2,0.7,0.2,1.7-0.1,2.7
					c-0.3,1.1-0.7,2.2-1.3,3.4c-0.5,1.2-1.1,2.3-1.7,3.5s-1.1,2.2-1.4,3.1s-0.5,1.7-0.4,2.2s0.5,0.8,1.3,0.8c0.8,0,1.5-0.4,2.2-1.2
					c0.7-0.8,1.4-1.8,2-3c0.6-1.2,1.1-2.5,1.6-3.9c0.5-1.4,0.8-2.7,1.2-4c0.3-1.2,0.5-2.3,0.6-3.2s0.1-1.4,0-1.6
					c-0.1-0.2,0-0.3,0.3-0.5c0.3-0.2,0.7-0.3,1.2-0.3c0.5,0,1,0.1,1.5,0.3S234.6,120.4,234.8,121.2z"/>
				<path class="st0" d="M252.9,126c0.3,0.2,0.4,0.5,0.2,0.8c-0.4,0.9-1,1.9-1.6,2.9c-0.6,1-1.3,2-2,3c-0.8,1-1.6,1.8-2.4,2.7
					c-0.8,0.8-1.7,1.5-2.6,2s-1.8,0.8-2.8,1c-0.9,0.2-1.9,0-2.8-0.3c-1-0.4-1.8-1-2.2-1.8c-0.4-0.8-0.7-1.6-0.8-2.6
					c-0.1-0.9,0-1.9,0.2-2.9c0.2-1,0.5-1.9,0.8-2.8c0.6-1.6,1.3-2.9,2.1-4c0.8-1.1,1.6-2,2.4-2.7c0.8-0.7,1.7-1.2,2.6-1.5
					c0.9-0.3,1.8-0.5,2.7-0.5c1,0,1.6,0.2,2.1,0.7c0.4,0.5,0.7,1.1,0.7,1.8c0,0.7-0.2,1.6-0.6,2.5c-0.4,0.9-1,1.8-1.8,2.6
					c-0.8,0.9-1.7,1.6-2.8,2.3s-2.3,1.2-3.6,1.6c-0.2,0.7-0.3,1.3-0.4,2c-0.1,0.7-0.1,1.3,0,1.8c0.1,0.5,0.2,1,0.4,1.3
					s0.5,0.6,0.9,0.7c0.6,0.1,1.2,0,1.8-0.2c0.7-0.3,1.3-0.7,2-1.2c0.7-0.5,1.3-1.2,2-1.9c0.7-0.7,1.3-1.5,1.8-2.3
					c0.6-0.8,1.1-1.6,1.5-2.4c0.4-0.8,0.8-1.5,1.1-2.2c0.1-0.2,0.2-0.3,0.4-0.4C252.5,125.8,252.7,125.9,252.9,126z M241.6,128.4
					c-0.1,0.3-0.2,0.5-0.3,0.8c1.5-0.5,2.8-1.3,3.8-2.2c1-0.9,1.7-1.9,2.2-2.8c0.5-0.9,0.7-1.7,0.8-2.4s-0.2-1-0.7-1
					c-0.7,0-1.6,0.6-2.6,2C243.8,124.1,242.7,126,241.6,128.4z"/>
				<path class="st0" d="M253.8,127.1c-0.1,0.2-0.2,0.3-0.4,0.3c-0.2,0.1-0.3,0.1-0.5,0c-0.1-0.1-0.3-0.1-0.3-0.3
					c-0.1-0.1-0.1-0.3,0-0.5c0.1-0.2,0.2-0.6,0.4-1.1c0.2-0.5,0.4-1,0.6-1.5c0.2-0.5,0.4-1,0.6-1.5c0.2-0.5,0.3-0.9,0.4-1.3
					c-0.6-0.3-1.1-0.7-1.5-1.3c-0.4-0.6-0.6-1.2-0.6-1.8c0-0.8,0.2-1.5,0.6-2c0.4-0.6,1-0.8,1.8-0.8c0.5,0,1,0.2,1.3,0.6
					c0.4,0.4,0.6,0.9,0.6,1.5c0,0.3,0,0.8-0.1,1.4c0,0.6-0.1,1.1-0.2,1.5c0.1,0.1,0.3,0.2,0.5,0.2c0.2,0,0.5,0,0.7,0
					c0.6,0,1-0.1,1.3-0.2c0.3-0.1,0.6-0.3,0.8-0.4c0.2-0.1,0.5-0.3,0.7-0.4c0.2-0.1,0.5-0.2,0.9-0.2c0.5,0,1,0.1,1.5,0.4
					s0.9,0.8,1.1,1.5c0.2,0.7,0.2,1.6-0.1,2.7c-0.3,1.1-0.7,2.2-1.3,3.3c-0.6,1.2-1.1,2.3-1.8,3.4c-0.6,1.1-1.2,2.1-1.6,3
					c-0.4,0.9-0.7,1.6-0.7,2.1c-0.1,0.5,0.2,0.8,0.8,0.7c0.2,0,0.6-0.2,1-0.6c0.4-0.4,0.9-0.9,1.3-1.5c0.5-0.6,1-1.3,1.5-2
					c0.5-0.7,1-1.5,1.5-2.2c0.5-0.7,0.9-1.4,1.2-2.1c0.4-0.7,0.6-1.2,0.8-1.7c0.1-0.2,0.2-0.3,0.4-0.4c0.2-0.1,0.3-0.1,0.5,0
					c0.2,0.1,0.3,0.2,0.4,0.3c0.1,0.2,0.1,0.3,0,0.5c-0.2,0.4-0.5,1-0.9,1.8c-0.4,0.8-0.8,1.6-1.4,2.4c-0.5,0.9-1.1,1.7-1.7,2.6
					s-1.3,1.7-1.9,2.4c-0.7,0.7-1.3,1.3-2,1.8c-0.7,0.5-1.3,0.7-1.9,0.7c-0.5,0-1-0.1-1.3-0.3c-0.4-0.2-0.7-0.6-0.9-1
					c-0.2-0.4-0.4-0.9-0.5-1.5s-0.1-1.3,0-1.9c0.1-1,0.3-2.1,0.7-3.2c0.4-1.1,0.8-2.2,1.3-3.3c0.5-1.1,0.9-2.1,1.3-3.1
					s0.8-1.8,1-2.4c-0.5,0.2-1.1,0.3-1.8,0.4c-0.7,0-1.4,0-2-0.2c-0.1,0.2-0.2,0.5-0.4,1c-0.2,0.5-0.4,1-0.6,1.5
					c-0.2,0.6-0.5,1.1-0.7,1.6C254.2,126.5,254,126.9,253.8,127.1z"/>
				<path class="st0" d="M277.4,122.3c0-0.2,0.1-0.4,0.2-0.6c0.1-0.2,0.3-0.3,0.4-0.5c-0.1-0.3-0.3-0.5-0.6-0.5
					c-0.4,0-0.8,0.1-1.2,0.5s-0.9,0.8-1.4,1.5c-0.5,0.7-1,1.5-1.6,2.4c-0.5,1-1.1,2-1.6,3.2c-0.3,0.7-0.6,1.5-0.8,2.4
					c-0.2,0.9-0.3,1.7-0.4,2.5s0.1,1.5,0.2,2.1c0.2,0.6,0.5,1,1,1.2c0.4,0.2,0.7,0.1,1.1-0.1c0.4-0.2,0.8-0.6,1.2-1.1
					c0.4-0.5,0.8-1.1,1.2-1.8s0.8-1.4,1.2-2.2c0.4-0.8,0.8-1.5,1.2-2.3c0.4-0.8,0.7-1.5,1.1-2.1c0.4-0.8,0.7-1.6,1.1-2.4
					c0.3-0.8,0.6-1.4,0.9-2c0.2-0.6,0.4-1.1,0.5-1.5c0.1-0.4,0-0.7-0.1-0.9c-0.2-0.2-0.1-0.3,0.2-0.5s0.8-0.3,1.3-0.3
					c0.5,0,1,0.1,1.6,0.3s0.9,0.8,1.2,1.5c0.2,0.7,0.2,1.6-0.1,2.7c-0.3,1.1-0.7,2.2-1.3,3.3c-0.6,1.2-1.1,2.3-1.8,3.4
					c-0.6,1.1-1.2,2.1-1.6,3c-0.4,0.9-0.7,1.6-0.7,2.1c-0.1,0.5,0.2,0.8,0.8,0.7c0.2,0,0.6-0.2,1-0.6c0.4-0.4,0.9-0.9,1.3-1.5
					s1-1.3,1.5-2c0.5-0.7,1-1.5,1.5-2.2c0.4-0.7,0.9-1.4,1.2-2.1c0.4-0.7,0.6-1.2,0.8-1.7c0.1-0.2,0.2-0.3,0.4-0.4
					c0.2-0.1,0.3-0.1,0.5,0c0.2,0.1,0.3,0.2,0.4,0.3c0.1,0.2,0.1,0.3,0,0.5c-0.2,0.4-0.5,1-0.9,1.8c-0.4,0.8-0.8,1.6-1.4,2.4
					c-0.5,0.9-1.1,1.7-1.7,2.6c-0.6,0.9-1.3,1.7-1.9,2.4c-0.7,0.7-1.3,1.3-2,1.8c-0.7,0.5-1.3,0.7-1.9,0.7c-1,0.1-1.7-0.3-2.2-1.2
					c-0.5-0.8-0.7-1.9-0.5-3.2c-0.5,0.8-1,1.5-1.5,2.2c-0.5,0.7-1.1,1.2-1.8,1.6s-1.3,0.6-2,0.7c-0.7,0.1-1.5-0.1-2.3-0.4
					c-1-0.4-1.8-1-2.2-1.8c-0.4-0.8-0.7-1.7-0.8-2.6s0-1.9,0.2-2.9c0.2-1,0.5-1.9,0.8-2.8c0.6-1.6,1.3-2.9,2.1-4
					c0.8-1.1,1.6-2,2.4-2.7c0.8-0.7,1.7-1.2,2.6-1.5c0.9-0.3,1.8-0.4,2.7-0.4c0.3,0,0.6,0.1,1,0.2s0.7,0.2,1,0.4
					c0.3,0.2,0.5,0.5,0.8,0.8c0.2,0.3,0.3,0.8,0.3,1.3c0,0.6-0.1,0.9-0.4,1.2c-0.2,0.2-0.5,0.3-0.8,0.3c-0.3,0-0.6-0.1-0.8-0.3
					C277.5,122.9,277.4,122.6,277.4,122.3z"/>
				<path class="st0" d="M298.3,122.3c0-0.2,0.1-0.4,0.2-0.6c0.1-0.2,0.3-0.3,0.4-0.5c-0.1-0.3-0.3-0.5-0.6-0.5
					c-0.4,0-0.8,0.1-1.2,0.5s-0.9,0.8-1.4,1.5c-0.5,0.7-1,1.5-1.6,2.4c-0.5,1-1.1,2-1.6,3.2c-0.3,0.7-0.6,1.5-0.8,2.4
					c-0.2,0.9-0.3,1.7-0.4,2.5s0.1,1.5,0.2,2.1c0.2,0.6,0.5,1,1,1.2c0.6,0.2,1.2,0,1.8-0.6c0.6-0.7,1.3-1.5,1.9-2.6s1.3-2.2,1.9-3.5
					c0.6-1.2,1.2-2.3,1.7-3.3c0-0.1,0-0.1,0-0.2c0.7-1.6,1.2-3,1.6-4.2c0.4-1.2,0.5-1.9,0.2-2.2c-0.1-0.2,0-0.3,0.3-0.5
					s0.8-0.3,1.3-0.3c0.5,0,1.1,0.1,1.6,0.4c0.5,0.3,0.9,0.8,1.1,1.6c0.1,0.4,0.1,1.1-0.2,2.1c-0.3,1-0.6,2-1.1,3.3
					c-0.5,1.2-1,2.5-1.6,3.8s-1.2,2.6-1.7,3.7s-1,2.2-1.4,3.1c-0.4,0.9-0.7,1.5-0.8,1.8c0.9-0.6,1.9-1.5,2.9-2.6s1.9-2.3,2.8-3.5
					c0.9-1.2,1.6-2.4,2.3-3.6c0.7-1.2,1.1-2.1,1.4-2.8c0.1-0.2,0.2-0.4,0.4-0.4s0.3-0.1,0.5,0c0.2,0.1,0.3,0.2,0.4,0.3
					c0.1,0.2,0.1,0.3,0,0.5c-0.6,1.3-1.3,2.7-2.2,4.1s-1.9,2.8-2.9,4.2c-1.1,1.3-2.2,2.5-3.3,3.6c-1.2,1.1-2.3,1.9-3.4,2.4
					c-0.2,0.4-0.4,0.9-0.6,1.5c-0.3,0.6-0.5,1.2-0.8,1.8c-0.3,0.6-0.5,1.2-0.7,1.7c-0.2,0.5-0.4,0.9-0.5,1.2
					c-0.3,0.7-0.7,1.3-1.2,1.8c-0.6,0.5-1.2,0.9-1.9,1.2c-0.7,0.3-1.4,0.4-2.2,0.5c-0.7,0-1.4,0-2.1-0.2s-1.2-0.5-1.7-1
					s-0.8-1-0.9-1.7c0-0.2,0-0.5,0.1-0.8c0.1-0.3,0.3-0.7,0.7-1c0.4-0.4,0.9-0.8,1.5-1.1c0.6-0.3,1.2-0.7,1.8-1
					c0.6-0.3,1.2-0.6,1.8-0.9c0.6-0.3,1.1-0.7,1.6-1.1c0.3-0.7,0.6-1.5,0.9-2.4c0.3-0.9,0.7-1.8,1.1-2.7c-0.7,0.7-1.6,1.2-2.4,1.4
					s-1.9,0.1-3-0.3c-1-0.4-1.8-1-2.2-1.8c-0.4-0.8-0.7-1.7-0.8-2.6s0-1.9,0.2-2.9c0.2-1,0.5-1.9,0.8-2.8c0.6-1.6,1.3-2.9,2.1-4
					c0.8-1.1,1.6-2,2.4-2.7c0.8-0.7,1.7-1.2,2.6-1.5c0.9-0.3,1.8-0.4,2.7-0.4c0.3,0,0.6,0.1,1,0.2s0.7,0.2,1,0.4
					c0.3,0.2,0.5,0.5,0.8,0.8c0.2,0.3,0.3,0.8,0.3,1.3s-0.1,0.9-0.3,1.1c-0.2,0.3-0.5,0.4-0.8,0.4c-0.3,0-0.6-0.1-0.8-0.3
					C298.4,122.9,298.3,122.6,298.3,122.3z M292.6,143.7c-0.4,0.3-0.8,0.6-1.3,0.8c-0.5,0.2-1,0.5-1.5,0.7c-0.5,0.2-1,0.5-1.4,0.8
					c-0.4,0.3-0.8,0.6-1.1,1c-0.2,0.3-0.3,0.5-0.2,0.8c0,0.3,0.2,0.6,0.3,0.8c0.2,0.2,0.4,0.4,0.7,0.6s0.6,0.1,1,0
					c0.4-0.1,0.7-0.4,1.1-0.8c0.4-0.4,0.7-1,1.1-1.8c0.2-0.4,0.3-0.8,0.6-1.3C292.2,144.9,292.4,144.3,292.6,143.7z"/>
				<path class="st0" d="M324.8,126c0.3,0.2,0.4,0.5,0.2,0.8c-0.4,0.9-1,1.9-1.6,2.9c-0.6,1-1.3,2-2,3c-0.8,1-1.6,1.8-2.4,2.7
					c-0.8,0.8-1.7,1.5-2.6,2s-1.8,0.8-2.8,1c-0.9,0.2-1.9,0-2.8-0.3c-1-0.4-1.8-1-2.2-1.8c-0.4-0.8-0.7-1.6-0.8-2.6
					c-0.1-0.9,0-1.9,0.2-2.9c0.2-1,0.5-1.9,0.8-2.8c0.6-1.6,1.3-2.9,2.1-4c0.8-1.1,1.6-2,2.4-2.7c0.8-0.7,1.7-1.2,2.6-1.5
					c0.9-0.3,1.8-0.5,2.7-0.5c1,0,1.6,0.2,2.1,0.7c0.4,0.5,0.7,1.1,0.7,1.8c0,0.7-0.2,1.6-0.6,2.5c-0.4,0.9-1,1.8-1.8,2.6
					c-0.8,0.9-1.7,1.6-2.8,2.3s-2.3,1.2-3.6,1.6c-0.2,0.7-0.3,1.3-0.4,2c-0.1,0.7-0.1,1.3,0,1.8c0.1,0.5,0.2,1,0.4,1.3
					s0.5,0.6,0.9,0.7c0.6,0.1,1.2,0,1.8-0.2c0.7-0.3,1.3-0.7,2-1.2c0.7-0.5,1.3-1.2,2-1.9c0.7-0.7,1.3-1.5,1.8-2.3
					c0.6-0.8,1.1-1.6,1.5-2.4c0.4-0.8,0.8-1.5,1.1-2.2c0.1-0.2,0.2-0.3,0.4-0.4C324.4,125.8,324.6,125.9,324.8,126z M313.5,128.4
					c-0.1,0.3-0.2,0.5-0.3,0.8c1.5-0.5,2.8-1.3,3.8-2.2c1-0.9,1.7-1.9,2.2-2.8c0.5-0.9,0.7-1.7,0.8-2.4s-0.2-1-0.7-1
					c-0.7,0-1.6,0.6-2.6,2C315.6,124.1,314.6,126,313.5,128.4z"/>
				<path class="st0" d="M329.1,137.6L329.1,137.6c-0.6,0.3-1.1,0.5-1.7,0.7c-0.5,0.2-1,0.2-1.3,0.2c-1,0-1.8-0.3-2.4-0.8
					c-0.6-0.5-0.9-1.1-1.1-1.9c-0.2-0.7-0.2-1.4-0.1-2.2c0.1-0.7,0.4-1.3,0.7-1.7c0.5-0.5,1-0.9,1.4-1.1s0.8-0.2,1-0.2
					c0.3,0,0.5,0.1,0.8,0.3s0.4,0.5,0.4,0.8c0,0.3-0.1,0.6-0.4,0.8c-0.2,0.2-0.5,0.3-0.8,0.3c-0.2,0-0.4-0.1-0.7-0.2
					c-0.2-0.1-0.3-0.3-0.4-0.6c-0.3,0.4-0.6,0.8-0.7,1.4c-0.1,0.5-0.2,1.1-0.1,1.5c0.1,0.5,0.3,0.9,0.6,1.3c0.3,0.3,0.8,0.5,1.3,0.6
					c0.2,0,0.5-0.1,0.9-0.3c0.4-0.2,0.8-0.5,1.2-1c0.4-0.4,0.8-1,1.1-1.7c0.3-0.7,0.5-1.6,0.6-2.6c0.1-1,0-2.2-0.3-3.5
					c-0.3-1.3-0.8-2.8-1.6-4.5c-0.3,0.5-0.5,1-0.9,1.6c-0.3,0.6-0.6,1.1-0.9,1.6c-0.1,0.2-0.3,0.3-0.5,0.3s-0.3,0-0.5-0.1
					c-0.2-0.1-0.3-0.2-0.3-0.3c-0.1-0.1,0-0.3,0.1-0.5c0.2-0.4,0.4-0.8,0.6-1.2c0.2-0.3,0.4-0.7,0.5-1s0.3-0.6,0.5-0.9
					c0.2-0.3,0.3-0.7,0.5-1c-0.3-0.4-0.5-0.9-0.7-1.3c-0.2-0.5-0.2-1-0.2-1.5c0-0.2,0-0.5,0.1-0.9c0.1-0.3,0.2-0.7,0.5-1
					c0.2-0.3,0.5-0.6,0.9-0.9c0.4-0.2,0.9-0.4,1.5-0.4c0.6,0,1.1,0.1,1.4,0.4s0.5,0.6,0.5,1.1s-0.1,0.9-0.3,1.4
					c-0.2,0.5-0.5,1-0.8,1.6l-0.1,0.2c1,1.2,1.8,2.3,2.4,3.3s1.1,2.1,1.4,3c0.3,1,0.5,1.8,0.5,2.7c0,0.8,0,1.6-0.2,2.3
					c0.8-1,1.6-1.9,2.3-2.9c0.7-0.9,1.2-1.8,1.7-2.7c0.1-0.2,0.2-0.3,0.3-0.4c0.2-0.1,0.3,0,0.6,0.1c0.2,0.1,0.3,0.2,0.3,0.4
					c0,0.2,0,0.3-0.1,0.5c-0.6,1.3-1.3,2.4-2.1,3.5c-0.8,1.1-1.7,2.2-2.7,3.3c-0.7,0.8-1.4,1.5-2.2,2.1
					C331,136.7,330.1,137.2,329.1,137.6L329.1,137.6z"/>
			</g>
		</g>
		<g>
			<path class="st0" d="M7.5,127.7c0,0.2,0,0.4-0.1,0.5c-0.1,0.2-0.3,0.3-0.5,0.3c-0.2,0-0.3-0.1-0.4-0.2s-0.2-0.3-0.2-0.4
				c0-0.1,0-0.2,0.1-0.3c0.1-0.1,0.1-0.2,0.2-0.2c-0.1-0.2-0.2-0.3-0.4-0.3s-0.3,0.1-0.5,0.2s-0.3,0.3-0.5,0.5
				c-0.2,0.2-0.3,0.4-0.5,0.6c-0.3,0.4-0.6,0.8-0.8,1.3c-0.3,0.5-0.5,1-0.7,1.5s-0.4,1-0.5,1.5c-0.1,0.5-0.2,1-0.2,1.4
				s0.1,0.8,0.2,1c0.1,0.3,0.3,0.4,0.6,0.5c0.2,0,0.4-0.1,0.7-0.3c0.3-0.2,0.5-0.5,0.8-0.9c0.3-0.4,0.5-0.8,0.7-1.2
				c0.2-0.4,0.5-0.8,0.6-1.2c-0.3-0.1-0.5-0.3-0.6-0.6c-0.1-0.3-0.1-0.6-0.1-0.9c0-0.3,0.2-0.5,0.3-0.8c0.2-0.2,0.4-0.3,0.7-0.3
				c0.1,0,0.2,0,0.4,0s0.3,0.1,0.4,0.2c0.1,0.1,0.2,0.3,0.2,0.6s-0.1,0.7-0.2,1.3c0.6,0,1-0.1,1.3-0.2c0.3-0.1,0.6-0.3,0.8-0.5
				c0.2-0.2,0.3-0.3,0.4-0.5c0.1-0.2,0.1-0.3,0.1-0.3c0-0.1,0.1-0.2,0.2-0.2c0.1,0,0.2,0,0.3,0s0.1,0.1,0.2,0.2c0,0.1,0,0.2,0,0.3
				c-0.1,0.3-0.3,0.5-0.5,0.7c-0.2,0.2-0.5,0.4-0.8,0.6c-0.3,0.2-0.7,0.3-1,0.4c-0.4,0.1-0.8,0.1-1.2,0.1c-0.2,0.4-0.4,0.9-0.7,1.4
				s-0.6,1-1,1.5c-0.4,0.5-0.8,0.8-1.3,1.1c-0.5,0.3-1,0.4-1.5,0.4c-0.7-0.1-1.2-0.4-1.6-0.9c-0.4-0.5-0.6-1.1-0.6-1.9
				c0-0.6,0-1.1,0.2-1.7c0.1-0.6,0.3-1.2,0.6-1.8c0.2-0.6,0.6-1.1,0.9-1.7c0.4-0.5,0.8-1,1.2-1.4c0.4-0.4,0.9-0.7,1.5-0.9
				c0.5-0.2,1.1-0.3,1.7-0.3c0.3,0,0.5,0.1,0.7,0.2c0.2,0.1,0.3,0.2,0.4,0.4c0.1,0.1,0.2,0.3,0.2,0.5C7.4,127.4,7.4,127.5,7.5,127.7
				z"/>
			<path class="st0" d="M12.1,131.6c1,0.1,1.8,0,2.4-0.4c0.2-0.1,0.3-0.3,0.5-0.4c0.1-0.2,0.3-0.4,0.3-0.6c0-0.1,0.1-0.2,0.2-0.2
				c0.1,0,0.2,0,0.3,0c0.1,0,0.1,0.1,0.2,0.2c0,0.1,0,0.2,0,0.3c-0.1,0.2-0.2,0.4-0.4,0.6c-0.2,0.2-0.3,0.3-0.5,0.4
				c-0.4,0.3-0.8,0.5-1.3,0.6c-0.5,0.1-0.9,0.2-1.3,0.1c0,0.5-0.1,1.1-0.2,1.8s-0.4,1.5-0.6,2.4c-0.3,0.8-0.6,1.7-0.9,2.5
				c-0.4,0.8-0.8,1.6-1.2,2.2c-0.4,0.6-0.9,1.1-1.4,1.5c-0.5,0.4-1,0.5-1.5,0.4c-0.4-0.1-0.6-0.4-0.7-0.8c-0.1-0.5,0-1.1,0.1-1.8
				s0.4-1.6,0.8-2.5c0.3-0.9,0.7-1.9,1.2-3c0.4-1.1,0.9-2.1,1.4-3.2c0.5-1.1,1-2.2,1.4-3.2c0.5-1,0.9-2,1.3-2.9
				c0.4-0.9,0.7-1.7,1-2.4s0.5-1.3,0.7-1.8c0.1-0.5,0.2-0.8,0.1-0.9c-0.1-0.1,0-0.2,0.2-0.4c0.2-0.1,0.4-0.2,0.7-0.2
				c0.3,0,0.6,0.1,0.8,0.2c0.3,0.2,0.5,0.4,0.6,0.9c0.1,0.4,0.1,0.8,0,1.3s-0.2,1.1-0.5,1.7c-0.2,0.6-0.5,1.3-0.7,1.9
				s-0.6,1.3-0.9,1.9c-0.3,0.6-0.6,1.2-0.8,1.7c-0.3,0.5-0.5,1-0.6,1.3L12.1,131.6z M7.4,142.1c0.2,0.1,0.4,0,0.7-0.3
				c0.3-0.3,0.6-0.8,1-1.3c0.4-0.6,0.7-1.3,1-2c0.3-0.8,0.7-1.5,0.9-2.3c0.3-0.8,0.5-1.5,0.6-2.2c0.1-0.7,0.2-1.2,0.1-1.7
				c-0.3,0.6-0.6,1.3-1,2c-0.4,0.7-0.7,1.4-1.1,2.1c-0.4,0.7-0.7,1.4-1,2.1s-0.6,1.2-0.8,1.8c-0.2,0.5-0.4,0.9-0.5,1.3
				C7.3,141.9,7.3,142.1,7.4,142.1z"/>
		</g>
	</g>
	<g>
		<g>
			<path class="st0" d="M173.6,17.6c1,1.5,1.6,0.8,1.3-0.7c-0.4-1.5-0.8-3.1-1.2-4.6c-0.4-1.5-0.4-7.4-2.7-7.3
				c-2.8,0.1-1.5,4.5-0.9,5.8C170.9,13.2,172.2,15.5,173.6,17.6z M173.7,12.5C173.7,12.5,173.6,12.5,173.7,12.5
				C173.6,12.5,173.7,12.5,173.7,12.5z M173.5,12C173.5,12,173.5,12,173.5,12L173.5,12z M173.6,12.3
				C173.6,12.3,173.6,12.2,173.6,12.3C173.6,12.3,173.6,12.3,173.6,12.3z M173.6,12.2C173.6,12.2,173.6,12.2,173.6,12.2
				C173.6,12.2,173.6,12.2,173.6,12.2z"/>
			<path class="st0" d="M191.1,11.9c0,0.3-0.3,4.9,0.6,4c1-1,1.3-2.8,1.8-4.1c0.5-1.4,0.9-2.7,1.3-4.2c0.5-2.1,1.3-5.4-0.6-7.1
				c-3.4-2.9-2.7,5.2-2.7,6.5C191.4,8.7,191.2,10.4,191.1,11.9z"/>
			<path class="st0" d="M194.1,0.6"/>
			<path class="st0" d="M209.6,18.6c1.2-1.5,2.5-3,3.9-4.4c0.8-0.8,5.9-5,2-5.5c0.2,0,0.3,0,0,0c-1.9-0.2-0.5-0.1,0,0
				c-2.2-0.3-3.8,2.3-4.8,3.9c-1.3,2-3.5,5.1-3.6,7.6C207.1,21.4,209.5,18.8,209.6,18.6z"/>
			<path class="st0" d="M228.6,21.8C228.8,21.8,229,21.8,228.6,21.8C228,21.8,228.3,21.8,228.6,21.8c-1.2,0-2,1.1-2.9,1.7
				c-1.5,1-3,1.9-4.6,2.8c-1.1,0.7-2.7,1.2-3.6,2.2c-1,1.1,2.1,0.4,2.4,0.3c2.5-0.7,5.2-1.3,7.5-2.7
				C228.5,25.4,231.7,21.7,228.6,21.8z"/>
			<path class="st0" d="M162.2,23.6C162.3,23.7,162.4,23.8,162.2,23.6c-1.8-1.7-3.6-3.6-5-5.6c-1.7-2.3-3.7-0.5-2.3,1.7
				c1,1.7,2.9,2.9,4.6,4c1.1,0.7,2.2,1.5,3.4,2C164.8,26.5,162.6,24,162.2,23.6z"/>
		</g>
		<g>
			<g>
				<path class="st0" d="M159,58.4c0,0-6.3-22.6,14.2-32.5c0,0,13.7-7.2,32.6-2.9c0,0-0.5,30.2-21.5,37.4c0,0-11.3,5.2-22.1,1.3
					c0,0,4.8-15.2,28.8-26.5C191,35.1,169.9,38.1,159,58.4z"/>
				<path class="st0" d="M156.4,57.9c0,0,4-14.4-9-20.7c0,0-8.7-4.6-20.8-1.8c0,0,0.3,19.3,13.7,23.8c0,0,7.2,3.3,14.1,0.8
					c0,0-3.1-9.7-18.3-16.9C136,43.1,149.4,44.9,156.4,57.9z"/>
			</g>
		</g>
	</g>
</g>
</svg>
