<?xml version="1.0" encoding="utf-8"?>
<!-- Generator: Adobe Illustrator 21.1.0, SVG Export Plug-In . SVG Version: 6.00 Build 0)  -->
<svg version="1.1" id="Capa_1" xmlns="http://www.w3.org/2000/svg" xmlns:xlink="http://www.w3.org/1999/xlink" x="0px" y="0px"
	 viewBox="0 0 302.3 150.8" style="enable-background:new 0 0 302.3 150.8;" xml:space="preserve">
<style type="text/css">
	.st0{fill:#FFFFFF;}
</style>
<g>
	<g>
		<g>
			<path class="st0" d="M53.4,84.4c0,1.5-0.3,3-1,4.4c-0.7,1.4-1.5,2.7-2.6,3.8s-2.2,2.2-3.5,3.2c-1.3,0.9-2.6,1.7-3.9,2.4
				c-1.3,0.6-2.6,1.1-3.8,1.5s-2.2,0.5-3,0.5c-0.7,0-1.1-0.1-1.3-0.4s-0.3-0.4-0.3-0.6c0.1-0.5,0.2-0.9,0.4-1.2
				c0.2-0.3,0.4-0.5,0.7-0.7c0.3-0.2,0.6-0.3,0.9-0.3c1.7-0.4,3.3-1.1,4.9-2c1.6-0.9,2.9-1.9,4.1-3c1.2-1.1,2.1-2.3,2.8-3.4
				c0.7-1.2,1-2.3,1-3.3c0-1.1-0.3-2.1-0.9-2.9s-1.3-1.4-2.1-1.9c-0.8-0.5-1.5-0.9-2.3-1.1c-0.8-0.2-1.3-0.4-1.6-0.4
				c-0.1,0-0.1,0-0.1,0c-0.1,0.1-0.1,0.1-0.1,0.2c-0.1,0.6-0.2,1.2-0.2,1.8c-0.1,0.6-0.1,1.2-0.1,1.9c0,0.7,0,1.5,0,2.2
				c0,0.9,0,1.8,0.1,2.6c0.1,0.9,0.2,1.6,0.4,2.2c0,0.1,0.1,0.2,0.1,0.3c0,0.1,0.1,0.2,0.1,0.4c0,0.1,0,0.3,0,0.4
				c0,0.5-0.2,0.8-0.5,1c-0.4,0.2-0.8,0.3-1.2,0.3c-0.6,0-1.2-0.2-1.5-0.7c-0.4-0.5-0.7-1-0.9-1.6c-0.2-0.6-0.3-1.3-0.4-2
				c-0.1-0.7-0.1-1.3-0.1-1.7c0-1.3,0.1-2.6,0.2-4c0.1-1.4,0.3-2.7,0.5-4c0-0.1,0-0.1,0-0.1c0,0-0.1-0.1-0.2-0.1
				c-0.9-0.1-1.6-0.1-2.2-0.1c-0.6,0-0.9,0-1.1,0c-0.5,0-0.8-0.1-0.9-0.4c-0.1-0.3-0.1-0.4-0.1-0.5c0.1-0.6,0.2-1,0.6-1.3
				c0.3-0.3,0.6-0.5,1-0.7c0.4-0.2,0.8-0.3,1.3-0.3c0.5,0,0.9,0,1.2,0c0.3,0,0.7,0,1,0c0.1,0,0.2-0.1,0.2-0.2
				c0.1-0.6,0.4-1.2,0.9-1.7s1.2-0.8,2-0.8c0.1,0,0.3,0,0.5,0.1c0.2,0.1,0.3,0.3,0.3,0.6c0,0.1,0,0.3-0.1,0.7
				c-0.1,0.4-0.1,0.9-0.2,1.5c0,0.1,0,0.2,0.1,0.2c0,0,0.1,0,0.1,0c1.3,0.3,2.6,0.6,3.9,1.1c1.3,0.5,2.5,1.1,3.5,1.9
				c1,0.7,1.9,1.6,2.6,2.6C53,82.1,53.4,83.2,53.4,84.4z"/>
			<path class="st0" d="M66.4,85.7c0,0.9-0.2,1.7-0.5,2.5s-0.8,1.6-1.4,2.2c-0.6,0.6-1.3,1.2-2.1,1.5s-1.6,0.6-2.5,0.6
				c-0.1,0-0.1,0-0.2,0.1c0,0,0,0.1,0,0.1c0.1,0.6,0.2,1.1,0.4,1.5c0.2,0.4,0.5,0.7,0.7,0.9c0.3,0.2,0.6,0.4,1,0.5
				c0.7,0.2,1.2,0.5,1.3,0.8c0.2,0.3,0.2,0.6,0.2,0.8c0,0.4-0.1,0.6-0.3,0.8c-0.2,0.2-0.4,0.3-0.6,0.4c-0.3,0.1-0.5,0.2-0.8,0.2
				c-0.9,0-1.7-0.2-2.4-0.6s-1.1-0.9-1.5-1.4c-0.4-0.6-0.8-1.3-1-2.1l-0.1-0.5c-0.1-0.2-0.1-0.4-0.1-0.6c0-0.2-0.1-0.5-0.1-0.8
				c0,0,0-0.1,0-0.1c-0.1-0.1-0.1-0.1-0.2-0.1c-0.3-0.1-0.6-0.2-0.9-0.3c-0.2-0.1-0.4-0.3-0.6-0.6c-0.2-0.2-0.3-0.6-0.3-1.1
				c0-0.2,0.1-0.4,0.2-0.6c0.1-0.1,0.1-0.3,0.3-0.4c0.1-0.1,0.3-0.2,0.5-0.2c0.1,0,0.2,0,0.4,0.1c0.2,0,0.4,0.1,0.7,0.1
				c0.1,0,0.1,0,0.1,0c0,0,0,0,0,0c0.4-1.3,0.9-2.5,1.5-3.5c0.3-0.4,0.6-0.9,0.9-1.3c0.3-0.4,0.7-0.8,1.1-1.1
				c0.4-0.3,0.9-0.6,1.4-0.8c0.5-0.2,1.1-0.3,1.7-0.3c0.3,0,0.6,0,1,0.1s0.7,0.3,1,0.5c0.3,0.2,0.6,0.6,0.8,1
				C66.3,84.4,66.4,85,66.4,85.7z M63.4,86.1c0-0.2,0-0.3-0.1-0.4s-0.1-0.2-0.2-0.3s-0.2-0.1-0.4-0.1c-0.3,0-0.7,0.2-1.1,0.5
				c-0.4,0.3-0.7,0.7-1,1.1s-0.6,0.9-0.8,1.5s-0.3,1-0.3,1.4c0,0.1,0.1,0.2,0.2,0.2c0.2,0,0.5-0.1,0.9-0.2c0.4-0.2,0.8-0.4,1.2-0.7
				c0.4-0.3,0.8-0.7,1.1-1.2C63.3,87.3,63.4,86.7,63.4,86.1z"/>
			<path class="st0" d="M78.8,92.6c0,0.9-0.3,1.6-0.8,2.2c-0.5,0.6-1.2,1.2-1.9,1.6c-0.8,0.4-1.5,0.7-2.3,0.9
				c-0.8,0.2-1.5,0.3-2,0.3c-1.2,0-2.1-0.3-2.6-0.8c-0.5-0.5-0.8-1-0.8-1.6c0-0.5,0.2-0.8,0.5-1c0.3-0.2,0.6-0.3,0.9-0.3
				c0.3,0,0.6,0.1,1.1,0.3c0.4,0.2,1,0.3,1.6,0.3c0.9,0,1.5-0.1,1.9-0.4c0.4-0.3,0.6-0.6,0.6-0.9c0-0.3-0.2-0.6-0.5-0.8
				c-0.3-0.2-0.7-0.4-1.2-0.5c-0.5-0.2-1-0.3-1.6-0.5s-1.1-0.3-1.6-0.6c-0.5-0.2-0.9-0.5-1.2-0.9s-0.5-0.8-0.5-1.3
				c0-0.7,0.2-1.4,0.6-2.1c0.4-0.8,1-1.4,1.7-2.1c0.7-0.6,1.5-1.1,2.4-1.6c0.9-0.4,1.8-0.6,2.7-0.6c0.8,0,1.4,0.2,1.9,0.7
				c0.5,0.5,0.7,1.2,0.7,2.2c0,0.4-0.1,0.9-0.3,1.3C78,86.8,77.6,87,77,87c-0.3,0-0.6-0.1-0.7-0.3c-0.1-0.2-0.2-0.4-0.3-0.6
				c-0.1-0.2-0.2-0.4-0.3-0.6s-0.4-0.3-0.8-0.3c-0.2,0-0.4,0.1-0.7,0.2c-0.3,0.1-0.6,0.3-0.9,0.5c-0.3,0.2-0.6,0.5-0.8,0.8
				c-0.2,0.3-0.4,0.6-0.4,1c0,0.3,0.2,0.6,0.5,0.8c0.3,0.2,0.8,0.4,1.3,0.6c0.5,0.2,1.1,0.4,1.7,0.5c0.6,0.2,1.1,0.4,1.7,0.6
				c0.5,0.2,0.9,0.6,1.3,0.9C78.7,91.6,78.8,92.1,78.8,92.6z"/>
			<path class="st0" d="M92.1,92.5c0,0.6-0.2,1.3-0.5,1.9c-0.3,0.6-0.8,1.2-1.4,1.7c-0.6,0.5-1.3,0.9-2.1,1.2
				c-0.8,0.3-1.6,0.5-2.5,0.5c-0.9,0-1.7-0.2-2.2-0.7c-0.6-0.4-1-1-1.3-1.6c-0.3-0.6-0.5-1.2-0.6-1.8c-0.1-0.6-0.1-1.1-0.1-1.4
				c0-1.1,0.2-2.2,0.6-3.4s0.9-2.2,1.6-3.2c0.7-1,1.5-1.8,2.5-2.4s2-0.9,3.2-0.9c0.7,0,1.3,0.1,1.6,0.4s0.6,0.6,0.8,1
				c0.2,0.4,0.3,0.9,0.4,1.4c0,0.1,0,0.4-0.1,0.9c-0.1,0.4-0.2,0.9-0.4,1.4c-0.2,0.5-0.5,0.9-0.9,1.3s-1,0.6-1.7,0.6
				c-0.3,0-0.5-0.2-0.6-0.5c-0.1-0.1-0.1-0.3-0.1-0.5s0-0.4,0.1-0.5c0.1-0.2,0.2-0.3,0.3-0.5c0.1-0.2,0.2-0.3,0.3-0.5
				c0.1-0.2,0.1-0.4,0.1-0.6c0-0.2,0-0.4-0.1-0.6c-0.1-0.2-0.3-0.3-0.6-0.3c-0.3,0-0.6,0.1-1,0.4c-0.4,0.2-0.9,0.6-1.3,1.1
				c-0.4,0.5-0.8,1.2-1.1,2c-0.3,0.8-0.4,1.8-0.4,2.9c0,0.4,0,0.7,0.1,1.1s0.1,0.7,0.3,1s0.3,0.6,0.5,0.8c0.2,0.2,0.5,0.3,0.9,0.3
				c0.2,0,0.4,0,0.6-0.1c0.3,0,0.5-0.2,0.8-0.3s0.6-0.5,1-0.8c0.3-0.4,0.7-0.9,1-1.5c0.1-0.3,0.3-0.5,0.6-0.6
				c0.2-0.2,0.5-0.3,0.7-0.3s0.4,0.1,0.6,0.2c0.1,0.1,0.2,0.3,0.3,0.4C92,92.1,92.1,92.3,92.1,92.5z"/>
			<path class="st0" d="M108.2,95.3c0,0.4-0.1,0.7-0.2,0.9c-0.2,0.2-0.3,0.4-0.6,0.4c-0.3,0.1-0.5,0.2-0.8,0.2
				c-0.5,0-0.9-0.1-1.2-0.4c-0.3-0.3-0.6-0.5-0.8-0.9c-0.2-0.3-0.3-0.6-0.4-0.9c-0.1-0.3-0.1-0.5-0.1-0.5c0-0.1,0-0.1-0.1-0.1
				c-0.1,0-0.1,0-0.2,0.1c0,0-0.1,0-0.1,0c-0.5,0.8-1,1.5-1.5,1.9c-0.5,0.5-1,0.8-1.4,1c-0.4,0.2-0.8,0.3-1.1,0.4
				c-0.3,0-0.5,0.1-0.5,0.1c-0.7,0-1.3-0.2-1.8-0.7c-0.5-0.5-0.9-1.1-1.2-1.8s-0.5-1.5-0.7-2.3c-0.1-0.8-0.2-1.6-0.2-2.4
				c0-0.7,0.1-1.5,0.2-2.4c0.1-0.9,0.3-1.7,0.6-2.4c0.3-0.8,0.6-1.4,1-1.9s0.9-0.8,1.5-0.8c0.1,0,0.2,0,0.4,0c0.2,0,0.3,0.1,0.4,0.2
				c0.1,0.1,0.3,0.2,0.4,0.4c0.1,0.2,0.1,0.5,0.1,0.8c0,0.3,0,0.6-0.1,1s-0.2,0.8-0.4,1.3c-0.2,0.5-0.4,1.1-0.5,1.6
				c-0.1,0.5-0.3,1-0.3,1.6c-0.1,0.6-0.1,1.1-0.1,1.7c0,0.6,0.1,1.2,0.3,1.7c0.2,0.5,0.6,0.7,1.2,0.7c0.4-0.1,0.9-0.3,1.3-0.7
				c0.3-0.3,0.7-0.8,1-1.5c0.4-0.7,0.7-1.6,0.9-2.8c0-0.2,0.1-0.4,0.1-0.6c0-0.2,0.1-0.4,0.1-0.7c0-0.3,0-0.5,0-0.8
				c0-0.1,0.1-0.3,0.2-0.5s0.3-0.4,0.4-0.6c0.2-0.2,0.4-0.4,0.7-0.5c0.3-0.1,0.6-0.2,0.9-0.2c0.3,0,0.6,0.1,0.8,0.2
				c0.2,0.1,0.4,0.4,0.4,0.9c0,0.3,0,0.7-0.1,1.3s-0.1,1.4-0.1,2.5c0,0.8,0.1,1.5,0.2,2.2c0.1,0.7,0.3,1.3,0.6,1.7
				c0.1,0.2,0.3,0.4,0.5,0.6C108,94.7,108.2,95,108.2,95.3z"/>
			<path class="st0" d="M123.4,86.7c0,1.1-0.2,2.3-0.5,3.6c-0.3,1.3-0.8,2.4-1.4,3.4c-0.6,1-1.3,1.9-2.1,2.6c-0.8,0.7-1.7,1-2.7,1
				c-0.6,0-1-0.1-1.3-0.4c-0.3-0.3-0.6-0.6-0.8-1c-0.3-0.4-0.4-0.9-0.6-1.5c-0.1-0.1-0.1-0.1-0.1-0.1c-0.1,0-0.3,0.1-0.4,0.2
				c-0.1,0.1-0.2,0.3-0.3,0.4c-0.1,0.2-0.3,0.3-0.5,0.4c-0.2,0.1-0.4,0.2-0.7,0.2c-0.2,0-0.4-0.1-0.5-0.2c-0.1-0.2-0.2-0.3-0.2-0.5
				c-0.1-0.2-0.1-0.4-0.1-0.6c0-0.2,0-0.4,0-0.5c0-1.4,0-3.1,0-5c0-1.9,0.1-3.7,0.2-5.7c0.1-1.9,0.3-3.8,0.5-5.7
				c0.2-1.9,0.5-3.6,1-5.1c0.1-0.2,0.2-0.4,0.3-0.5c0.1-0.1,0.3-0.3,0.4-0.4c0.2-0.1,0.4-0.2,0.7-0.2c0.4,0,0.7,0.1,0.9,0.3
				c0.2,0.2,0.4,0.4,0.5,0.6c0.1,0.3,0.2,0.6,0.2,0.9c-0.3,1.4-0.6,3-0.9,4.6c-0.2,1.4-0.4,3-0.6,4.8c-0.2,1.8-0.3,3.7-0.3,5.6
				c0,0.1,0,0.2,0,0.2c0,0.1,0.1,0.2,0.2,0.2c0.1,0,0.1-0.1,0.2-0.2c1.1-1.8,2.1-3.2,3.3-4.1c1.1-0.9,2.1-1.4,3-1.4
				c0.1,0,0.3,0,0.6,0.1c0.3,0,0.6,0.2,0.9,0.4s0.6,0.6,0.8,1.2C123.3,84.9,123.4,85.7,123.4,86.7z M120.3,88.1
				c0-0.8-0.1-1.2-0.3-1.4s-0.4-0.2-0.5-0.2c-0.5,0-1,0.3-1.5,0.8c-0.5,0.6-0.9,1.2-1.3,1.8c-0.4,0.8-0.9,1.6-1.2,2.6
				c0.1,0.4,0.2,0.8,0.4,1.2c0.1,0.3,0.3,0.6,0.6,0.8c0.2,0.2,0.5,0.3,0.9,0.3c0.4,0,0.8-0.2,1.2-0.6c0.4-0.4,0.7-1,0.9-1.6
				s0.4-1.3,0.6-1.9S120.3,88.6,120.3,88.1z"/>
			<path class="st0" d="M137.2,88.4c0,0.2-0.1,0.4-0.2,0.5c-0.2,0.1-0.3,0.2-0.5,0.3c-0.2,0.1-0.5,0.1-0.8,0.1c-0.6,0-1-0.1-1.3-0.3
				c-0.3-0.2-0.5-0.4-0.7-0.6c-0.2-0.2-0.3-0.4-0.4-0.6c-0.1-0.2-0.2-0.3-0.3-0.3c-0.2,0-0.4,0.3-0.8,0.9c-0.4,0.6-0.8,1.3-1.2,2.3
				s-0.7,1.9-1,3.1c-0.3,1.1-0.4,2.2-0.4,3.3c0,0.5-0.1,0.8-0.4,1c-0.3,0.2-0.6,0.3-1,0.3c-0.4,0-0.8-0.2-1-0.6
				c-0.2-0.4-0.4-0.9-0.5-1.5c-0.1-0.6-0.2-1.2-0.2-2c0-0.7,0-1.4,0-2.1c0-1.1,0-2.2,0.1-3.3c0.1-1.1,0.1-2,0.2-2.8
				c0.1-0.6,0.2-1.2,0.3-1.6c0.1-0.4,0.3-0.7,0.5-1s0.5-0.4,0.7-0.5c0.3-0.1,0.6-0.1,1-0.1c0.1,0,0.3,0.1,0.4,0.2
				c0.1,0.1,0.2,0.2,0.3,0.3s0.1,0.4,0.1,0.6c0,0.2,0,0.3,0,0.4c-0.1,0.4-0.1,0.8-0.2,1.2c-0.1,0.4-0.1,0.8-0.2,1.2
				c-0.1,0.5-0.1,0.9-0.1,1.4c0,0.1,0,0.1,0,0.2c0,0.1,0.1,0.1,0.2,0.1c0.1,0,0.1-0.1,0.2-0.2c0.2-0.4,0.4-0.9,0.6-1.4
				c0.2-0.4,0.4-0.9,0.7-1.4s0.6-1,0.9-1.5c0.2-0.2,0.3-0.5,0.3-0.6c0.1-0.2,0.2-0.5,0.5-0.9c0.2-0.2,0.4-0.4,0.7-0.6
				c0.2-0.1,0.5-0.3,0.7-0.4c0.3-0.1,0.5-0.2,0.8-0.2c0.2,0,0.4,0.1,0.6,0.2c0.2,0.1,0.3,0.4,0.3,0.7c0,0.4,0,0.7-0.1,1.1
				c-0.1,0.3-0.1,0.8-0.1,1.2c0,0.8,0.1,1.4,0.2,1.8c0.1,0.4,0.3,0.8,0.5,1.1c0.2,0.3,0.3,0.5,0.5,0.6
				C137.1,88.1,137.2,88.3,137.2,88.4z"/>
			<path class="st0" d="M151.1,97.2c0,0.3-0.1,0.6-0.3,0.8c-0.2,0.2-0.4,0.3-0.6,0.4c-0.3,0.1-0.5,0.2-0.8,0.2
				c-0.5,0-0.9-0.1-1.3-0.4c-0.3-0.3-0.6-0.6-0.9-1c-0.3-0.4-0.5-0.9-0.7-1.5c0-0.1-0.1-0.2-0.2-0.2c-0.1,0-0.1,0-0.2,0.1l-0.1,0.1
				c-0.4,0.5-0.9,0.9-1.3,1.1c-0.4,0.3-0.9,0.5-1.3,0.7c-0.4,0.2-0.8,0.2-1.1,0.3c-0.3,0-0.6,0.1-0.8,0.1c-0.8,0-1.5-0.1-1.9-0.4
				c-0.5-0.3-0.8-0.6-1-1c-0.2-0.4-0.4-0.8-0.4-1.1s-0.1-0.6-0.1-0.8c0-0.6,0.1-1.1,0.3-1.6c0.2-0.5,0.5-1,0.8-1.5
				c0.3-0.5,0.7-0.9,1.1-1.3s0.9-0.8,1.3-1.1c1-0.8,2.2-1.4,3.6-2c0.1,0,0.2-0.1,0.3-0.1c0.2-0.1,0.3-0.2,0.3-0.4
				c0-0.3-0.3-0.5-0.8-0.6c-0.5-0.1-1-0.2-1.6-0.2c-0.3,0-0.5,0-0.7,0c-0.2,0-0.4,0-0.6,0.1c-0.2,0-0.4,0-0.6,0
				c-0.3,0-0.6,0-0.7-0.1c-0.2-0.1-0.3-0.2-0.4-0.4c-0.1-0.1-0.1-0.3-0.2-0.4s0-0.3,0-0.4c0-0.1,0-0.2,0.1-0.4
				c0.1-0.2,0.2-0.4,0.4-0.6c0.2-0.2,0.6-0.4,1-0.5c0.4-0.2,1-0.2,1.8-0.2c0.5,0,1.1,0.1,1.8,0.2s1.4,0.3,2.1,0.6
				c0.7,0.3,1.2,0.6,1.7,1c0.5,0.4,0.7,0.9,0.7,1.5c0,0.4-0.2,0.9-0.6,1.3c-0.4,0.4-0.9,0.8-1.5,1.1c-0.6,0.4-1.2,0.7-1.9,1.1
				c-0.7,0.4-1.3,0.8-1.9,1.2c-0.6,0.4-1.1,0.9-1.5,1.4c-0.4,0.5-0.6,1.1-0.6,1.7c0,0.1,0,0.3,0.1,0.5s0.3,0.4,0.7,0.4
				c0.3,0,0.6-0.1,0.9-0.3c0.3-0.2,0.7-0.4,1-0.6c0.3-0.3,0.6-0.6,0.8-0.9c0.2-0.3,0.3-0.7,0.3-1c0,0,0-0.1,0-0.1v-0.3
				c0-0.2,0-0.4,0.1-0.7s0.2-0.5,0.4-0.7c0.2-0.2,0.4-0.4,0.7-0.5c0.3-0.1,0.5-0.2,0.8-0.2c0.2,0,0.3,0,0.5,0.1
				c0.2,0.1,0.2,0.3,0.2,0.5c0.1,0.8,0.2,1.5,0.4,2.3c0.1,0.6,0.3,1.2,0.6,1.8s0.6,1.1,1,1.4c0.1,0.2,0.3,0.3,0.4,0.5
				c0.1,0.1,0.2,0.3,0.3,0.5C151,96.9,151.1,97,151.1,97.2z"/>
			<path class="st0" d="M173,88.3c0,1.4-0.2,2.6-0.6,3.6c-0.4,1-0.9,1.9-1.5,2.6c-0.6,0.7-1.4,1.2-2.2,1.5s-1.6,0.5-2.4,0.5
				c-1.1,0-1.9-0.3-2.5-0.8c-0.6-0.5-1-1.1-1.3-1.8c-0.3-0.8-0.5-1.6-0.5-2.6c0-0.6,0.1-1.2,0.2-1.8s0.3-1.1,0.5-1.6
				c0.2-0.5,0.5-1,0.8-1.5c0,0,0-0.1-0.1-0.2c0,0-0.1,0-0.1,0c-0.4,0-0.8-0.1-1-0.3s-0.4-0.4-0.4-0.7c0-0.4,0.1-0.7,0.4-1.1
				s0.7-0.7,1.2-0.9c0.5-0.3,1-0.5,1.6-0.6c0.6-0.2,1.2-0.3,1.8-0.3c0.5,0,1.1,0.1,1.8,0.2c0.7,0.2,1.4,0.4,2,0.9
				c0.7,0.4,1.2,1,1.7,1.8C172.8,86,173,87,173,88.3z M169.6,89.1c0-0.7-0.1-1.3-0.3-1.8c-0.1-0.5-0.4-0.9-0.6-1.3
				c-0.3-0.4-0.7-0.5-1.3-0.5c-0.2,0-0.4,0.1-0.6,0.3c-0.2,0.2-0.5,0.5-0.7,0.9c-0.2,0.4-0.4,0.9-0.5,1.5c-0.2,0.6-0.2,1.3-0.2,2
				c0,0.2,0,0.5,0,0.9c0,0.4,0.1,0.8,0.2,1.1c0.1,0.4,0.3,0.7,0.6,1c0.3,0.3,0.6,0.4,1.2,0.4c0.6,0,1-0.2,1.3-0.7s0.5-1,0.7-1.5
				C169.5,90.7,169.6,90,169.6,89.1z"/>
			<path class="st0" d="M205.6,96.8c0,0.3-0.1,0.5-0.2,0.7s-0.3,0.4-0.5,0.5s-0.4,0.2-0.6,0.3c-0.2,0.1-0.4,0.1-0.5,0.1
				c-0.7,0-1.3-0.2-1.7-0.6c-0.4-0.4-0.7-1-0.9-1.6c-0.2-0.7-0.3-1.4-0.4-2.1c-0.1-0.8-0.1-1.5-0.1-2.2c0-0.6,0-1,0-1.4
				c0-0.4,0-0.7,0-0.9c0-0.4,0-0.7-0.1-0.8c-0.1-0.1-0.2-0.2-0.3-0.2c-0.1,0-0.2,0-0.3,0.1s-0.2,0.2-0.3,0.2
				c-0.1,0.1-0.2,0.2-0.3,0.3c-0.3,0.4-0.6,0.9-0.9,1.5c-0.3,0.6-0.6,1.2-0.9,1.8c-0.3,0.7-0.7,1.4-1,2.1c-0.2,0.4-0.5,0.8-0.7,1.1
				c-0.3,0.3-0.6,0.5-1.1,0.5c-0.6,0-1-0.3-1.3-0.8s-0.5-1.2-0.7-1.9c-0.2-0.7-0.3-1.4-0.3-2.1c-0.1-0.7-0.1-1.2-0.2-1.4
				c-0.1-0.4-0.2-0.6-0.5-0.6c-0.1,0-0.1,0-0.2,0c-0.1,0-0.1,0.1-0.2,0.1c-0.1,0.1-0.1,0.1-0.2,0.1c-0.5,0.5-1,1.2-1.4,2
				s-0.8,1.6-1.1,2.4c-0.3,0.9-0.6,1.9-0.9,2.9c-0.1,0.5-0.3,0.8-0.5,0.9c-0.2,0.1-0.5,0.1-0.8,0.1c-0.3,0-0.6-0.1-0.8-0.2
				c-0.2-0.1-0.4-0.3-0.5-0.5c-0.1-0.2-0.2-0.4-0.2-0.6c0-0.2-0.1-0.4-0.1-0.6c0-0.6,0-1.1,0.1-1.5c0-0.3,0.1-0.6,0.1-0.8
				c0.1-0.5,0.1-0.9,0.1-1.4c0-0.4,0-0.8,0-1.2c0-1-0.1-1.8-0.2-2.5c-0.1-0.7-0.3-1.3-0.4-1.8c-0.2-0.6-0.3-1-0.5-1.4
				c0,0-0.1-0.1-0.1-0.2c0-0.1,0-0.2,0-0.5c0-0.2,0-0.4,0.1-0.6c0.1-0.2,0.2-0.4,0.3-0.6c0.1-0.2,0.3-0.3,0.5-0.5
				c0.2-0.1,0.5-0.2,0.8-0.2s0.6,0.1,1,0.4s0.7,0.8,0.9,1.6c0.1,0.3,0.1,0.6,0.2,1c0.1,0.4,0.1,0.9,0.1,1.4s0.1,1.3,0.1,2.1
				c0,0,0,0.1,0,0.1c0,0.1,0,0.1,0.1,0.1c0,0,0.1,0,0.1-0.1c0.1-0.2,0.3-0.5,0.5-1c0.3-0.5,0.6-1,1.1-1.5c0.4-0.5,0.9-1,1.5-1.4
				s1.1-0.6,1.8-0.6c0.6,0,0.9,0.2,1.2,0.6s0.4,1.2,0.5,2.4c0,0.5,0.1,1,0.2,1.4c0.1,0.3,0.1,0.6,0.2,0.9c0.1,0.3,0.2,0.4,0.3,0.4
				c0.1,0,0.1-0.1,0.3-0.2c0.2-0.2,0.4-0.6,0.6-1.1c0-0.1,0.2-0.5,0.5-1.1s0.7-1.3,1.1-1.9c0.5-0.7,1-1.3,1.6-1.8
				c0.6-0.5,1.3-0.8,2-0.8c0.5,0,0.9,0.1,1.1,0.4c0.3,0.3,0.5,0.6,0.7,0.9c0.2,0.4,0.3,0.8,0.3,1.3c0,0.5,0.1,0.9,0.1,1.3
				c0,2.4,0.1,4.3,0.2,5.7c0.1,1.4,0.6,2.4,1.3,3c0.1,0,0.1,0.1,0.2,0.2c0.1,0.1,0.1,0.1,0.1,0.2S205.6,96.7,205.6,96.8z"/>
			<path class="st0" d="M220.9,95.3c0,0.4-0.1,0.7-0.2,0.9c-0.2,0.2-0.3,0.4-0.6,0.4c-0.3,0.1-0.5,0.2-0.8,0.2
				c-0.5,0-0.9-0.1-1.2-0.4c-0.3-0.3-0.6-0.5-0.8-0.9c-0.2-0.3-0.3-0.6-0.4-0.9c-0.1-0.3-0.1-0.5-0.1-0.5c0-0.1,0-0.1-0.1-0.1
				c-0.1,0-0.1,0-0.2,0.1c0,0-0.1,0-0.1,0c-0.5,0.8-1,1.5-1.5,1.9c-0.5,0.5-1,0.8-1.4,1c-0.4,0.2-0.8,0.3-1.1,0.4
				c-0.3,0-0.5,0.1-0.5,0.1c-0.7,0-1.3-0.2-1.8-0.7c-0.5-0.5-0.9-1.1-1.2-1.8s-0.5-1.5-0.7-2.3c-0.1-0.8-0.2-1.6-0.2-2.4
				c0-0.7,0.1-1.5,0.2-2.4c0.1-0.9,0.3-1.7,0.6-2.4c0.3-0.8,0.6-1.4,1-1.9s0.9-0.8,1.5-0.8c0.1,0,0.2,0,0.4,0c0.2,0,0.3,0.1,0.4,0.2
				c0.1,0.1,0.3,0.2,0.4,0.4c0.1,0.2,0.1,0.5,0.1,0.8c0,0.3,0,0.6-0.1,1s-0.2,0.8-0.4,1.3c-0.2,0.5-0.4,1.1-0.5,1.6
				c-0.1,0.5-0.3,1-0.3,1.6c-0.1,0.6-0.1,1.1-0.1,1.7c0,0.6,0.1,1.2,0.3,1.7c0.2,0.5,0.6,0.7,1.2,0.7c0.4-0.1,0.9-0.3,1.3-0.7
				c0.3-0.3,0.7-0.8,1-1.5c0.4-0.7,0.7-1.6,0.9-2.8c0-0.2,0.1-0.4,0.1-0.6c0-0.2,0.1-0.4,0.1-0.7c0-0.3,0-0.5,0-0.8
				c0-0.1,0.1-0.3,0.2-0.5s0.3-0.4,0.4-0.6c0.2-0.2,0.4-0.4,0.7-0.5c0.3-0.1,0.6-0.2,0.9-0.2c0.3,0,0.6,0.1,0.8,0.2
				c0.2,0.1,0.4,0.4,0.4,0.9c0,0.3,0,0.7-0.1,1.3s-0.1,1.4-0.1,2.5c0,0.8,0.1,1.5,0.2,2.2c0.1,0.7,0.3,1.3,0.6,1.7
				c0.1,0.2,0.3,0.4,0.5,0.6C220.8,94.7,220.9,95,220.9,95.3z"/>
			<path class="st0" d="M237.1,95.1c0,0.4-0.1,0.8-0.3,1c-0.2,0.2-0.4,0.4-0.7,0.5c-0.3,0.1-0.6,0.2-1,0.2c-0.7,0-1.2-0.2-1.6-0.7
				s-0.7-1.1-0.9-1.8c-0.2-0.7-0.3-1.4-0.3-2.2c0-0.8-0.1-1.4-0.1-2v-0.8c0-0.3-0.1-0.4-0.3-0.4c-0.4,0-0.7,0.2-1.1,0.6
				s-0.7,0.9-1,1.6s-0.7,1.3-1,2c-0.3,0.7-0.6,1.4-0.9,2c-0.3,0.6-0.6,1.2-0.8,1.6c-0.3,0.4-0.5,0.7-0.7,0.8c-0.1,0-0.3,0.1-0.4,0.1
				c-0.1,0-0.2,0-0.3,0c-0.4,0-0.7-0.2-1-0.5c-0.2-0.3-0.4-0.8-0.5-1.3c-0.1-0.5-0.2-1.2-0.3-1.9c0-0.7-0.1-1.4-0.1-2.1
				c0-0.6,0-1.3,0.1-2.1c0.1-0.8,0.2-1.6,0.3-2.4c0.1-0.8,0.2-1.6,0.4-2.2c0.2-0.7,0.3-1.2,0.5-1.5c0.1-0.3,0.3-0.5,0.5-0.7
				c0.2-0.2,0.4-0.3,0.6-0.5s0.6-0.2,1-0.2c0.1,0,0.2,0,0.3,0c0.1,0,0.3,0.1,0.4,0.1c0.1,0.1,0.3,0.2,0.4,0.3s0.2,0.3,0.2,0.6
				c0,0.4-0.1,0.8-0.3,1.3c-0.2,0.6-0.4,1.2-0.5,1.8c-0.1,0.5-0.3,1.1-0.4,1.7s-0.1,1.2-0.1,1.7c0,0.4,0.1,0.5,0.2,0.5
				c0.1,0,0.1,0,0.1-0.1c0.1-0.2,0.4-0.6,0.8-1.2c0.4-0.6,0.9-1.3,1.4-2s1.2-1.3,1.9-1.9s1.4-0.8,2.1-0.8c0.8,0,1.3,0.3,1.5,0.8
				c0.2,0.6,0.3,1.5,0.3,2.7c0,0.3,0,0.6,0,0.9c0,0.3,0,0.7,0,1c0,0.3,0,0.6,0,1.1c0,0.5,0.1,0.9,0.2,1.4c0.1,0.5,0.2,0.9,0.4,1.3
				c0.2,0.4,0.4,0.7,0.7,0.9l0.3,0.2C237,94.8,237.1,95,237.1,95.1z"/>
			<path class="st0" d="M253.2,85.3c0,0.5-0.1,0.9-0.4,1c-0.3,0.2-0.5,0.3-0.8,0.3c-0.2,0-0.4,0-0.5,0c-0.1,0-0.2-0.1-0.2-0.1
				c0,0.3,0,0.7,0,1.1s0,0.8,0,1.1c0,0.7,0,1.4,0.1,2.1c0,0.7,0.1,1.3,0.2,1.9c0.1,0.6,0.2,1,0.4,1.4c0.2,0.4,0.3,0.7,0.6,0.8
				c0.2,0.1,0.3,0.3,0.3,0.4s0.1,0.3,0.1,0.3c0,0.3-0.1,0.6-0.3,0.8c-0.2,0.2-0.3,0.3-0.5,0.4c-0.2,0.1-0.5,0.2-0.8,0.2
				c-0.7,0-1.2-0.2-1.5-0.6c-0.4-0.4-0.6-0.8-0.8-1.3c-0.2-0.5-0.3-1.1-0.4-1.8c0-0.1,0-0.2-0.1-0.2c0,0-0.1,0-0.1,0.1l-0.1,0.1
				c-0.8,1-1.5,1.8-2.3,2.3c-0.8,0.5-1.5,0.9-2.1,1.2c-0.6,0.3-1.2,0.4-1.6,0.4c-0.4,0-0.7,0.1-0.8,0.1c-0.6,0-1-0.1-1.4-0.4
				c-0.3-0.2-0.6-0.6-0.8-0.9c-0.2-0.4-0.3-0.7-0.4-1.1c-0.1-0.4-0.1-0.8-0.1-1.1c0-1.5,0.3-2.8,0.9-4c0.6-1.2,1.3-2.2,2.2-3.1
				c0.9-0.9,1.9-1.6,3.1-2.2c1.1-0.6,2.3-0.9,3.5-1.2c0,0,0.1,0,0.1,0c0,0,0.1,0,0.1-0.1c0,0,0,0,0-0.1c0-0.5,0.1-1,0.1-1.6
				s0.1-1.2,0.1-1.9c0.1-1.4,0.2-2.8,0.3-4c0.1-0.5,0.1-1.1,0.2-1.6c0.1-0.5,0.2-1,0.3-1.5c0.1-0.5,0.2-0.9,0.4-1.2
				c0.1-0.3,0.3-0.6,0.5-0.8c0.2-0.2,0.3-0.3,0.5-0.4c0.1-0.1,0.3-0.2,0.5-0.3c0.2-0.1,0.4-0.1,0.6-0.1c0.2,0,0.4,0.1,0.6,0.2
				c0.2,0.1,0.3,0.4,0.3,1c0,0.3,0,0.6-0.1,1.1c-0.2,1-0.4,2.1-0.5,3.2c-0.1,1.1-0.3,2.1-0.4,2.9c-0.1,1.1-0.2,2.1-0.3,3.1
				c0,0.2,0,0.4,0,0.6c0,0.2,0,0.4-0.1,0.7c0,0.3,0,0.6-0.1,0.9c0,0.1,0,0.1,0,0.1c0,0,0.1,0,0.1,0c0.4,0.1,0.7,0.3,1,0.6
				C253.1,84.5,253.2,84.8,253.2,85.3z M248.5,86.7c0-0.1-0.1-0.2-0.3-0.2c-0.7,0.1-1.4,0.3-2.1,0.7c-0.7,0.4-1.3,0.9-1.9,1.5
				c-0.5,0.6-1,1.3-1.3,2c-0.3,0.7-0.5,1.5-0.5,2.2c0,0.3,0.1,0.6,0.2,0.8c0.1,0.2,0.3,0.4,0.7,0.4c0.4,0,1-0.2,1.6-0.6
				c0.6-0.4,1.2-1,1.7-1.7c0.5-0.7,1-1.5,1.4-2.4C248.3,88.7,248.5,87.7,248.5,86.7z"/>
			<path class="st0" d="M267,88.3c0,1.4-0.2,2.6-0.6,3.6c-0.4,1-0.9,1.9-1.5,2.6c-0.6,0.7-1.4,1.2-2.2,1.5s-1.6,0.5-2.4,0.5
				c-1.1,0-1.9-0.3-2.5-0.8c-0.6-0.5-1-1.1-1.3-1.8c-0.3-0.8-0.5-1.6-0.5-2.6c0-0.6,0.1-1.2,0.2-1.8s0.3-1.1,0.5-1.6
				c0.2-0.5,0.5-1,0.8-1.5c0,0,0-0.1-0.1-0.2c0,0-0.1,0-0.1,0c-0.4,0-0.8-0.1-1-0.3s-0.4-0.4-0.4-0.7c0-0.4,0.1-0.7,0.4-1.1
				s0.7-0.7,1.2-0.9c0.5-0.3,1-0.5,1.6-0.6c0.6-0.2,1.2-0.3,1.8-0.3c0.5,0,1.1,0.1,1.8,0.2c0.7,0.2,1.4,0.4,2,0.9
				c0.7,0.4,1.2,1,1.7,1.8C266.8,86,267,87,267,88.3z M263.6,89.1c0-0.7-0.1-1.3-0.3-1.8c-0.1-0.5-0.4-0.9-0.6-1.3
				c-0.3-0.4-0.7-0.5-1.3-0.5c-0.2,0-0.4,0.1-0.6,0.3c-0.2,0.2-0.5,0.5-0.7,0.9c-0.2,0.4-0.4,0.9-0.5,1.5c-0.2,0.6-0.2,1.3-0.2,2
				c0,0.2,0,0.5,0,0.9c0,0.4,0.1,0.8,0.2,1.1c0.1,0.4,0.3,0.7,0.6,1c0.3,0.3,0.6,0.4,1.2,0.4c0.6,0,1-0.2,1.3-0.7s0.5-1,0.7-1.5
				C263.4,90.7,263.6,90,263.6,89.1z"/>
		</g>
	</g>
	<g>
		<g>
			<g>
				<path class="st0" d="M50.5,135.4c0,0.5-0.2,0.8-0.7,1c0.2,0.3,0.4,0.5,0.7,0.5c0.3,0,0.7-0.1,1.2-0.5c0.4-0.3,0.9-0.8,1.4-1.5
					c0.5-0.7,1-1.5,1.6-2.4s1.1-2,1.6-3.2c0.3-0.7,0.6-1.6,0.8-2.4c0.2-0.9,0.3-1.7,0.4-2.5c0-0.8,0-1.5-0.2-2.1
					c-0.2-0.6-0.5-0.9-1-1.1c-0.6-0.1-1.2,0.1-1.8,0.5c-0.6,0.5-1.3,1.1-1.9,2s-1.2,1.8-1.8,2.8c-0.6,1-1.1,2-1.6,3
					c-0.5,1-0.9,1.9-1.3,2.8c-0.4,0.9-0.7,1.7-1,2.4c-0.2,0.7-0.4,1.3-0.5,1.8c-0.1,0.5-0.1,0.8,0,1c0.1,0.2,0,0.4-0.2,0.6
					c-0.3,0.2-0.6,0.3-1,0.3c-0.4,0-0.9-0.1-1.3-0.4c-0.4-0.3-0.8-0.8-1-1.6c-0.2-0.5-0.1-1.2,0.1-2.2s0.6-2.2,1.1-3.6
					c0.5-1.4,1.1-2.9,1.8-4.4c0.7-1.6,1.4-3.2,2.1-4.8s1.4-3.2,2-4.7s1.2-2.9,1.7-4.1c0.5-1.2,0.8-2.2,1.1-3
					c0.2-0.8,0.3-1.3,0.1-1.4c-0.2-0.2-0.1-0.3,0.2-0.5c0.3-0.2,0.8-0.3,1.3-0.3c0.5,0,1.1,0.1,1.6,0.3s0.9,0.8,1.2,1.5
					c0.1,0.4,0.1,1.1-0.1,1.8s-0.4,1.7-0.8,2.8c-0.4,1.1-0.8,2.2-1.4,3.4c-0.5,1.2-1.1,2.5-1.7,3.8c0.8-0.8,1.8-1.3,2.8-1.7
					s2.1-0.2,3.2,0.3c1,0.4,1.8,1,2.2,1.8c0.4,0.8,0.7,1.6,0.8,2.6c0.1,0.9,0,1.9-0.2,2.9c-0.2,1-0.5,1.9-0.8,2.8
					c-0.7,1.7-1.4,3.1-2.2,4.2c-0.8,1.2-1.7,2.1-2.6,2.8c1.3-0.3,2.4-0.8,3.4-1.6s1.9-1.8,2.8-2.8c0.8-1,1.6-2,2.3-3.1
					c0.7-1,1.2-2,1.7-2.8c0.1-0.2,0.2-0.3,0.3-0.4s0.3,0,0.6,0.1c0.2,0.1,0.3,0.2,0.3,0.4c0,0.2,0,0.3-0.1,0.5
					c-0.6,1.3-1.3,2.5-2.1,3.7c-0.8,1.2-1.7,2.3-2.7,3.4c-0.6,0.7-1.3,1.4-2.1,2c-0.7,0.6-1.6,1.1-2.5,1.5c-0.9,0.4-1.9,0.7-3.1,0.8
					s-2.5,0.2-4,0c-0.3,0-0.6-0.1-1-0.2c-0.3-0.1-0.7-0.2-1-0.4s-0.5-0.5-0.8-0.8c-0.2-0.3-0.3-0.8-0.3-1.3c0-0.5,0.1-0.9,0.3-1.1
					c0.2-0.3,0.5-0.4,0.9-0.4c0.3,0,0.6,0.1,0.8,0.3C50.4,134.8,50.5,135.1,50.5,135.4z"/>
				<path class="st0" d="M82.4,126c0.3,0.2,0.4,0.5,0.2,0.8c-0.4,0.9-1,1.9-1.6,2.9c-0.6,1-1.3,2-2,3c-0.8,1-1.6,1.8-2.4,2.7
					c-0.8,0.8-1.7,1.5-2.6,2s-1.8,0.8-2.8,1c-0.9,0.2-1.9,0-2.8-0.3c-1-0.4-1.8-1-2.2-1.8c-0.4-0.8-0.7-1.6-0.8-2.6
					c-0.1-0.9,0-1.9,0.2-2.9c0.2-1,0.5-1.9,0.8-2.8c0.6-1.6,1.3-2.9,2.1-4c0.8-1.1,1.6-2,2.4-2.7c0.8-0.7,1.7-1.2,2.6-1.5
					c0.9-0.3,1.8-0.5,2.7-0.5c1,0,1.6,0.2,2.1,0.7c0.4,0.5,0.7,1.1,0.7,1.8c0,0.7-0.2,1.6-0.6,2.5c-0.4,0.9-1,1.8-1.8,2.6
					c-0.8,0.9-1.7,1.6-2.8,2.3s-2.3,1.2-3.6,1.6c-0.2,0.7-0.3,1.3-0.4,2c-0.1,0.7-0.1,1.3,0,1.8c0.1,0.5,0.2,1,0.4,1.3
					s0.5,0.6,0.9,0.7c0.6,0.1,1.2,0,1.8-0.2c0.7-0.3,1.3-0.7,2-1.2c0.7-0.5,1.3-1.2,2-1.9c0.7-0.7,1.3-1.5,1.8-2.3
					c0.6-0.8,1.1-1.6,1.5-2.4c0.4-0.8,0.8-1.5,1.1-2.2c0.1-0.2,0.2-0.3,0.4-0.4C81.9,125.8,82.1,125.9,82.4,126z M71.1,128.4
					c-0.1,0.3-0.2,0.5-0.3,0.8c1.5-0.5,2.8-1.3,3.8-2.2c1-0.9,1.7-1.9,2.2-2.8c0.5-0.9,0.7-1.7,0.8-2.4s-0.2-1-0.7-1
					c-0.7,0-1.6,0.6-2.6,2C73.2,124.1,72.1,126,71.1,128.4z"/>
				<path class="st0" d="M87,135.4c0,0.5-0.2,0.8-0.7,1c0.2,0.3,0.4,0.5,0.7,0.5c0.3,0,0.7-0.1,1.2-0.5c0.4-0.3,0.9-0.8,1.4-1.5
					c0.5-0.7,1-1.5,1.6-2.4s1.1-2,1.6-3.2c0.3-0.7,0.6-1.6,0.8-2.4c0.2-0.9,0.3-1.7,0.4-2.5c0-0.8,0-1.5-0.2-2.1
					c-0.2-0.6-0.5-0.9-1-1.1c-0.6-0.1-1.2,0.1-1.8,0.5c-0.6,0.5-1.3,1.1-1.9,2s-1.2,1.8-1.8,2.8c-0.6,1-1.1,2-1.6,3
					c-0.5,1-0.9,1.9-1.3,2.8c-0.4,0.9-0.7,1.7-1,2.4c-0.2,0.7-0.4,1.3-0.5,1.8c-0.1,0.5-0.1,0.8,0,1c0.1,0.2,0,0.4-0.2,0.6
					c-0.3,0.2-0.6,0.3-1,0.3c-0.4,0-0.9-0.1-1.3-0.4c-0.4-0.3-0.8-0.8-1-1.6c-0.2-0.5-0.1-1.2,0.1-2.2s0.6-2.2,1.1-3.6
					c0.5-1.4,1.1-2.9,1.8-4.4c0.7-1.6,1.4-3.2,2.1-4.8s1.4-3.2,2-4.7s1.2-2.9,1.7-4.1c0.5-1.2,0.8-2.2,1.1-3
					c0.2-0.8,0.3-1.3,0.1-1.4c-0.2-0.2-0.1-0.3,0.2-0.5c0.3-0.2,0.8-0.3,1.3-0.3c0.5,0,1.1,0.1,1.6,0.3s0.9,0.8,1.2,1.5
					c0.1,0.4,0.1,1.1-0.1,1.8s-0.4,1.7-0.8,2.8c-0.4,1.1-0.8,2.2-1.4,3.4c-0.5,1.2-1.1,2.5-1.7,3.8c0.8-0.8,1.8-1.3,2.8-1.7
					s2.1-0.2,3.2,0.3c1,0.4,1.8,1,2.2,1.8c0.4,0.8,0.7,1.6,0.8,2.6c0.1,0.9,0,1.9-0.2,2.9c-0.2,1-0.5,1.9-0.8,2.8
					c-0.7,1.7-1.4,3.1-2.2,4.2c-0.8,1.2-1.7,2.1-2.6,2.8c1.3-0.3,2.4-0.8,3.4-1.6s1.9-1.8,2.8-2.8c0.8-1,1.6-2,2.3-3.1
					c0.7-1,1.2-2,1.7-2.8c0.1-0.2,0.2-0.3,0.3-0.4s0.3,0,0.6,0.1c0.2,0.1,0.3,0.2,0.3,0.4c0,0.2,0,0.3-0.1,0.5
					c-0.6,1.3-1.3,2.5-2.1,3.7c-0.8,1.2-1.7,2.3-2.7,3.4c-0.6,0.7-1.3,1.4-2.1,2c-0.7,0.6-1.6,1.1-2.5,1.5c-0.9,0.4-1.9,0.7-3.1,0.8
					s-2.5,0.2-4,0c-0.3,0-0.6-0.1-1-0.2c-0.3-0.1-0.7-0.2-1-0.4s-0.5-0.5-0.8-0.8c-0.2-0.3-0.3-0.8-0.3-1.3c0-0.5,0.1-0.9,0.3-1.1
					c0.2-0.3,0.5-0.4,0.9-0.4c0.3,0,0.6,0.1,0.8,0.3C86.9,134.8,87,135.1,87,135.4z"/>
				<path class="st0" d="M112.8,128.5c-0.4,0.8-0.8,1.6-1.4,2.4c-0.5,0.9-1.1,1.7-1.7,2.6s-1.3,1.7-1.9,2.4c-0.7,0.7-1.3,1.3-2,1.8
					c-0.7,0.5-1.3,0.7-1.9,0.7c-0.5,0-1-0.1-1.3-0.3c-0.4-0.2-0.7-0.6-0.9-1c-0.2-0.4-0.4-0.9-0.5-1.5s-0.1-1.3,0-1.9
					c0.1-0.8,0.3-1.7,0.6-2.7c0.3-0.9,0.6-1.9,1-2.8c0.4-0.9,0.8-1.9,1.2-2.8c0.4-0.9,0.7-1.7,1-2.4c0.3-0.7,0.5-1.3,0.6-1.8
					c0.1-0.5,0.1-0.8-0.1-1c-0.2-0.2-0.1-0.3,0.2-0.5s0.8-0.3,1.3-0.3c0.5,0,1,0.1,1.6,0.3c0.6,0.3,0.9,0.8,1.2,1.5
					c0.2,0.7,0.2,1.6-0.1,2.7c-0.3,1.1-0.7,2.2-1.3,3.3c-0.6,1.2-1.1,2.3-1.8,3.4c-0.6,1.1-1.2,2.1-1.6,3c-0.4,0.9-0.7,1.6-0.7,2.1
					c-0.1,0.5,0.2,0.8,0.8,0.7c0.3,0,0.6-0.2,1-0.6s0.8-0.9,1.3-1.5c0.5-0.6,1-1.3,1.5-2c0.5-0.7,1-1.5,1.5-2.2
					c0.5-0.7,0.9-1.4,1.2-2.1c0.4-0.7,0.6-1.2,0.8-1.7c0.1-0.2,0.2-0.3,0.4-0.4c0.2-0.1,0.3-0.1,0.5,0c0.2,0.1,0.3,0.2,0.4,0.3
					c0.1,0.2,0.1,0.3,0,0.5C113.5,127.2,113.2,127.8,112.8,128.5z M111.1,116.5c0.1-0.3,0.3-0.6,0.5-0.9s0.3-0.6,0.5-0.9
					c0.1-0.3,0.2-0.5,0.2-0.7c0-0.6-0.2-1.2-0.6-1.6c-0.4-0.4-0.8-0.7-1.3-0.9c-0.5-0.2-0.9-0.3-1.3-0.3s-0.6,0.1-0.6,0.3
					c0,0.2-0.1,0.4-0.2,0.7c-0.2,0.3-0.3,0.6-0.5,0.9c-0.2,0.3-0.4,0.6-0.5,0.9c-0.2,0.3-0.2,0.5-0.2,0.7c0,0.6,0.2,1.2,0.6,1.6
					c0.4,0.4,0.9,0.7,1.3,0.9c0.5,0.2,0.9,0.3,1.3,0.3c0.4,0,0.6-0.1,0.6-0.3C110.9,117.1,111,116.9,111.1,116.5z"/>
				<path class="st0" d="M122.9,122.3c0-0.2,0.1-0.4,0.2-0.6c0.1-0.2,0.3-0.3,0.4-0.5c-0.1-0.3-0.3-0.5-0.6-0.5
					c-0.4,0-0.8,0.1-1.2,0.5s-0.9,0.8-1.4,1.5c-0.5,0.7-1,1.5-1.6,2.4c-0.5,1-1.1,2-1.6,3.2c-0.3,0.7-0.6,1.5-0.8,2.4
					c-0.2,0.9-0.3,1.7-0.4,2.5s0.1,1.5,0.2,2.1c0.2,0.6,0.5,1,1,1.2c0.5,0.2,1.1,0.1,1.7-0.5c0.6-0.6,1.2-1.4,1.8-2.3
					c0.6-1,1.2-2.1,1.8-3.2c0.6-1.2,1.1-2.3,1.6-3.2c0.5-1.3,1-2.6,1.6-4c0.6-1.4,1.2-2.8,1.8-4.1c0.6-1.4,1.1-2.7,1.7-3.9
					c0.5-1.3,1-2.4,1.3-3.4c0.4-1,0.6-1.8,0.8-2.4c0.2-0.6,0.2-1,0.1-1.1c-0.2-0.2-0.1-0.3,0.3-0.5c0.3-0.2,0.8-0.3,1.3-0.3
					c0.5,0,1,0.1,1.6,0.3c0.6,0.3,0.9,0.8,1.2,1.5c0.2,0.6,0.1,1.4-0.2,2.5c-0.3,1.1-0.7,2.3-1.3,3.7c-0.6,1.4-1.2,2.9-1.9,4.5
					c-0.7,1.6-1.5,3.2-2.3,4.8c-0.8,1.6-1.5,3.1-2.2,4.5c-0.7,1.5-1.2,2.7-1.7,3.8c-0.4,1.1-0.7,2-0.7,2.6c-0.1,0.6,0.1,0.9,0.6,0.9
					c0.3,0,0.6-0.2,1-0.6c0.4-0.4,0.8-0.9,1.3-1.5c0.5-0.6,1-1.3,1.5-2c0.5-0.7,1-1.5,1.5-2.2c0.5-0.7,0.9-1.4,1.2-2.1
					c0.4-0.7,0.6-1.2,0.8-1.7c0.1-0.2,0.2-0.3,0.4-0.4c0.2-0.1,0.3-0.1,0.5,0c0.2,0.1,0.3,0.2,0.4,0.3c0.1,0.2,0.1,0.3,0,0.5
					c-0.2,0.4-0.5,1-0.9,1.8c-0.4,0.8-0.8,1.6-1.4,2.4c-0.5,0.9-1.1,1.7-1.7,2.6s-1.3,1.7-1.9,2.4c-0.7,0.7-1.3,1.3-2,1.8
					c-0.7,0.5-1.3,0.7-1.9,0.7c-1,0.1-1.7-0.3-2.2-1.2c-0.5-0.8-0.7-1.9-0.6-3.2c-0.5,0.8-1,1.5-1.5,2.1s-1.1,1.1-1.7,1.5
					s-1.3,0.6-2,0.7c-0.7,0.1-1.5-0.1-2.3-0.4c-1-0.4-1.8-1-2.2-1.8c-0.4-0.8-0.7-1.7-0.8-2.6s0-1.9,0.2-2.9c0.2-1,0.5-1.9,0.8-2.8
					c0.6-1.6,1.3-2.9,2.1-4c0.8-1.1,1.6-2,2.4-2.7c0.8-0.7,1.7-1.2,2.6-1.5c0.9-0.3,1.8-0.4,2.7-0.4c0.3,0,0.6,0.1,1,0.2
					s0.7,0.2,1,0.4c0.3,0.2,0.5,0.5,0.8,0.8c0.2,0.3,0.3,0.8,0.3,1.3s-0.1,0.9-0.3,1.1c-0.2,0.3-0.5,0.4-0.8,0.4
					c-0.3,0-0.6-0.1-0.8-0.3C123.1,122.9,122.9,122.6,122.9,122.3z"/>
				<path class="st0" d="M143.8,122.3c0-0.2,0.1-0.4,0.2-0.6c0.1-0.2,0.3-0.3,0.4-0.5c-0.1-0.3-0.3-0.5-0.6-0.5
					c-0.4,0-0.8,0.1-1.2,0.5s-0.9,0.8-1.4,1.5c-0.5,0.7-1,1.5-1.6,2.4c-0.5,1-1.1,2-1.6,3.2c-0.3,0.7-0.6,1.5-0.8,2.4
					c-0.2,0.9-0.3,1.7-0.4,2.5s0.1,1.5,0.2,2.1c0.2,0.6,0.5,1,1,1.2c0.4,0.2,0.7,0.1,1.1-0.1c0.4-0.2,0.8-0.6,1.2-1.1
					c0.4-0.5,0.8-1.1,1.2-1.8s0.8-1.4,1.2-2.2c0.4-0.8,0.8-1.5,1.2-2.3c0.4-0.8,0.7-1.5,1.1-2.1c0.4-0.8,0.7-1.6,1.1-2.4
					c0.3-0.8,0.6-1.4,0.9-2c0.2-0.6,0.4-1.1,0.5-1.5c0.1-0.4,0-0.7-0.1-0.9c-0.2-0.2-0.1-0.3,0.2-0.5s0.8-0.3,1.3-0.3
					c0.5,0,1,0.1,1.6,0.3s0.9,0.8,1.2,1.5c0.2,0.7,0.2,1.6-0.1,2.7c-0.3,1.1-0.7,2.2-1.3,3.3c-0.6,1.2-1.1,2.3-1.8,3.4
					c-0.6,1.1-1.2,2.1-1.6,3c-0.4,0.9-0.7,1.6-0.7,2.1c-0.1,0.5,0.2,0.8,0.8,0.7c0.2,0,0.6-0.2,1-0.6c0.4-0.4,0.9-0.9,1.3-1.5
					s1-1.3,1.5-2c0.5-0.7,1-1.5,1.5-2.2c0.4-0.7,0.9-1.4,1.2-2.1c0.4-0.7,0.6-1.2,0.8-1.7c0.1-0.2,0.2-0.3,0.4-0.4
					c0.2-0.1,0.3-0.1,0.5,0c0.2,0.1,0.3,0.2,0.4,0.3c0.1,0.2,0.1,0.3,0,0.5c-0.2,0.4-0.5,1-0.9,1.8c-0.4,0.8-0.8,1.6-1.4,2.4
					c-0.5,0.9-1.1,1.7-1.7,2.6c-0.6,0.9-1.3,1.7-1.9,2.4c-0.7,0.7-1.3,1.3-2,1.8c-0.7,0.5-1.3,0.7-1.9,0.7c-1,0.1-1.7-0.3-2.2-1.2
					c-0.5-0.8-0.7-1.9-0.5-3.2c-0.5,0.8-1,1.5-1.5,2.2c-0.5,0.7-1.1,1.2-1.8,1.6s-1.3,0.6-2,0.7c-0.7,0.1-1.5-0.1-2.3-0.4
					c-1-0.4-1.8-1-2.2-1.8c-0.4-0.8-0.7-1.7-0.8-2.6s0-1.9,0.2-2.9c0.2-1,0.5-1.9,0.8-2.8c0.6-1.6,1.3-2.9,2.1-4
					c0.8-1.1,1.6-2,2.4-2.7c0.8-0.7,1.7-1.2,2.6-1.5c0.9-0.3,1.8-0.4,2.7-0.4c0.3,0,0.6,0.1,1,0.2s0.7,0.2,1,0.4
					c0.3,0.2,0.5,0.5,0.8,0.8c0.2,0.3,0.3,0.8,0.3,1.3c0,0.6-0.1,0.9-0.4,1.2c-0.2,0.2-0.5,0.3-0.8,0.3c-0.3,0-0.6-0.1-0.8-0.3
					C143.9,122.9,143.8,122.6,143.8,122.3z"/>
				<path class="st0" d="M159.5,137.6L159.5,137.6c-0.6,0.3-1.1,0.5-1.7,0.7c-0.5,0.2-1,0.2-1.3,0.2c-1,0-1.8-0.3-2.4-0.8
					c-0.6-0.5-0.9-1.1-1.1-1.9c-0.2-0.7-0.2-1.4-0.1-2.2c0.1-0.7,0.4-1.3,0.7-1.7c0.5-0.5,1-0.9,1.4-1.1s0.8-0.2,1-0.2
					c0.3,0,0.5,0.1,0.8,0.3s0.4,0.5,0.4,0.8c0,0.3-0.1,0.6-0.4,0.8c-0.2,0.2-0.5,0.3-0.8,0.3c-0.2,0-0.4-0.1-0.7-0.2
					c-0.2-0.1-0.3-0.3-0.4-0.6c-0.3,0.4-0.6,0.8-0.7,1.4c-0.1,0.5-0.2,1.1-0.1,1.5c0.1,0.5,0.3,0.9,0.6,1.3c0.3,0.3,0.8,0.5,1.3,0.6
					c0.2,0,0.5-0.1,0.9-0.3c0.4-0.2,0.8-0.5,1.2-1c0.4-0.4,0.8-1,1.1-1.7c0.3-0.7,0.5-1.6,0.6-2.6c0.1-1,0-2.2-0.3-3.5
					c-0.3-1.3-0.8-2.8-1.6-4.5c-0.3,0.5-0.5,1-0.9,1.6c-0.3,0.6-0.6,1.1-0.9,1.6c-0.1,0.2-0.3,0.3-0.5,0.3s-0.3,0-0.5-0.1
					c-0.2-0.1-0.3-0.2-0.3-0.3c-0.1-0.1,0-0.3,0.1-0.5c0.2-0.4,0.4-0.8,0.6-1.2c0.2-0.3,0.4-0.7,0.5-1s0.3-0.6,0.5-0.9
					c0.2-0.3,0.3-0.7,0.5-1c-0.3-0.4-0.5-0.9-0.7-1.3c-0.2-0.5-0.2-1-0.2-1.5c0-0.2,0-0.5,0.1-0.9c0.1-0.3,0.2-0.7,0.5-1
					c0.2-0.3,0.5-0.6,0.9-0.9c0.4-0.2,0.9-0.4,1.5-0.4c0.6,0,1.1,0.1,1.4,0.4s0.5,0.6,0.5,1.1s-0.1,0.9-0.3,1.4
					c-0.2,0.5-0.5,1-0.8,1.6l-0.1,0.2c1,1.2,1.8,2.3,2.4,3.3s1.1,2.1,1.4,3c0.3,1,0.5,1.8,0.5,2.7c0,0.8,0,1.6-0.2,2.3
					c0.8-1,1.6-1.9,2.3-2.9c0.7-0.9,1.2-1.8,1.7-2.7c0.1-0.2,0.2-0.3,0.3-0.4c0.2-0.1,0.3,0,0.6,0.1c0.2,0.1,0.3,0.2,0.3,0.4
					c0,0.2,0,0.3-0.1,0.5c-0.6,1.3-1.3,2.4-2.1,3.5c-0.8,1.1-1.7,2.2-2.7,3.3c-0.7,0.8-1.4,1.5-2.2,2.1
					C161.4,136.7,160.5,137.2,159.5,137.6L159.5,137.6z"/>
				<path class="st0" d="M194,121.2c0.2,0.7,0.2,1.7,0,2.8c-0.2,1.2-0.5,2.4-1,3.7c-0.5,1.3-1.1,2.6-1.9,3.9
					c-0.8,1.3-1.6,2.5-2.6,3.5c-1,1-2,1.9-3.1,2.5c-1.1,0.6-2.3,0.9-3.5,0.9s-2.2-0.2-2.8-0.7c-0.6-0.5-1-1.1-1.2-1.9
					c-0.2-0.8-0.2-1.7,0-2.8s0.4-2.1,0.8-3.2c0.4-1.1,0.8-2.2,1.2-3.3c0.4-1.1,0.8-2.1,1.2-3s0.6-1.6,0.8-2.3s0.1-1-0.1-1.2
					c-0.2-0.2-0.1-0.3,0.2-0.5c0.3-0.2,0.8-0.3,1.3-0.3s1,0.1,1.6,0.3c0.6,0.3,0.9,0.8,1.2,1.5c0.2,0.7,0.2,1.7-0.1,2.7
					c-0.3,1.1-0.7,2.2-1.3,3.4c-0.5,1.2-1.1,2.3-1.7,3.5s-1.1,2.2-1.4,3.1s-0.5,1.7-0.4,2.2s0.5,0.8,1.3,0.8c0.8,0,1.5-0.4,2.2-1.2
					c0.7-0.8,1.4-1.8,2-3c0.6-1.2,1.1-2.5,1.6-3.9c0.5-1.4,0.8-2.7,1.2-4c0.3-1.2,0.5-2.3,0.6-3.2s0.1-1.4,0-1.6
					c-0.1-0.2,0-0.3,0.3-0.5c0.3-0.2,0.7-0.3,1.2-0.3c0.5,0,1,0.1,1.5,0.3S193.8,120.4,194,121.2z"/>
				<path class="st0" d="M212.1,126c0.3,0.2,0.4,0.5,0.2,0.8c-0.4,0.9-1,1.9-1.6,2.9c-0.6,1-1.3,2-2,3c-0.8,1-1.6,1.8-2.4,2.7
					c-0.8,0.8-1.7,1.5-2.6,2s-1.8,0.8-2.8,1c-0.9,0.2-1.9,0-2.8-0.3c-1-0.4-1.8-1-2.2-1.8c-0.4-0.8-0.7-1.6-0.8-2.6
					c-0.1-0.9,0-1.9,0.2-2.9c0.2-1,0.5-1.9,0.8-2.8c0.6-1.6,1.3-2.9,2.1-4c0.8-1.1,1.6-2,2.4-2.7c0.8-0.7,1.7-1.2,2.6-1.5
					c0.9-0.3,1.8-0.5,2.7-0.5c1,0,1.6,0.2,2.1,0.7c0.4,0.5,0.7,1.1,0.7,1.8c0,0.7-0.2,1.6-0.6,2.5c-0.4,0.9-1,1.8-1.8,2.6
					c-0.8,0.9-1.7,1.6-2.8,2.3s-2.3,1.2-3.6,1.6c-0.2,0.7-0.3,1.3-0.4,2c-0.1,0.7-0.1,1.3,0,1.8c0.1,0.5,0.2,1,0.4,1.3
					s0.5,0.6,0.9,0.7c0.6,0.1,1.2,0,1.8-0.2c0.7-0.3,1.3-0.7,2-1.2c0.7-0.5,1.3-1.2,2-1.9c0.7-0.7,1.3-1.5,1.8-2.3
					c0.6-0.8,1.1-1.6,1.5-2.4c0.4-0.8,0.8-1.5,1.1-2.2c0.1-0.2,0.2-0.3,0.4-0.4C211.7,125.8,211.9,125.9,212.1,126z M200.8,128.4
					c-0.1,0.3-0.2,0.5-0.3,0.8c1.5-0.5,2.8-1.3,3.8-2.2c1-0.9,1.7-1.9,2.2-2.8c0.5-0.9,0.7-1.7,0.8-2.4s-0.2-1-0.7-1
					c-0.7,0-1.6,0.6-2.6,2C202.9,124.1,201.9,126,200.8,128.4z"/>
				<path class="st0" d="M221.6,122.3c0-0.2,0.1-0.4,0.2-0.6c0.1-0.2,0.3-0.3,0.4-0.5c-0.1-0.3-0.3-0.5-0.6-0.5
					c-0.4,0-0.8,0.1-1.2,0.5s-0.9,0.8-1.4,1.5c-0.5,0.7-1,1.5-1.6,2.4c-0.5,1-1.1,2-1.6,3.2c-0.3,0.7-0.6,1.5-0.8,2.4
					c-0.2,0.9-0.3,1.7-0.4,2.5s0.1,1.5,0.2,2.1c0.2,0.6,0.5,1,1,1.2c0.6,0.2,1.2,0,1.8-0.6c0.6-0.7,1.3-1.5,1.9-2.6s1.3-2.2,1.9-3.5
					c0.6-1.2,1.2-2.3,1.7-3.3c0-0.1,0-0.1,0-0.2c0.7-1.6,1.2-3,1.6-4.2c0.4-1.2,0.5-1.9,0.2-2.2c-0.1-0.2,0-0.3,0.3-0.5
					s0.8-0.3,1.3-0.3c0.5,0,1.1,0.1,1.6,0.4c0.5,0.3,0.9,0.8,1.1,1.6c0.1,0.4,0.1,1.1-0.2,2.1c-0.3,1-0.6,2-1.1,3.3
					c-0.5,1.2-1,2.5-1.6,3.8s-1.2,2.6-1.7,3.7s-1,2.2-1.4,3.1c-0.4,0.9-0.7,1.5-0.8,1.8c0.9-0.6,1.9-1.5,2.9-2.6s1.9-2.3,2.8-3.5
					c0.9-1.2,1.6-2.4,2.3-3.6c0.7-1.2,1.1-2.1,1.4-2.8c0.1-0.2,0.2-0.4,0.4-0.4s0.3-0.1,0.5,0c0.2,0.1,0.3,0.2,0.4,0.3
					c0.1,0.2,0.1,0.3,0,0.5c-0.6,1.3-1.3,2.7-2.2,4.1s-1.9,2.8-2.9,4.2c-1.1,1.3-2.2,2.5-3.3,3.6c-1.2,1.1-2.3,1.9-3.4,2.4
					c-0.2,0.4-0.4,0.9-0.6,1.5c-0.3,0.6-0.5,1.2-0.8,1.8c-0.3,0.6-0.5,1.2-0.7,1.7c-0.2,0.5-0.4,0.9-0.5,1.2
					c-0.3,0.7-0.7,1.3-1.2,1.8c-0.6,0.5-1.2,0.9-1.9,1.2c-0.7,0.3-1.4,0.4-2.2,0.5c-0.7,0-1.4,0-2.1-0.2s-1.2-0.5-1.7-1
					s-0.8-1-0.9-1.7c0-0.2,0-0.5,0.1-0.8c0.1-0.3,0.3-0.7,0.7-1c0.4-0.4,0.9-0.8,1.5-1.1c0.6-0.3,1.2-0.7,1.8-1
					c0.6-0.3,1.2-0.6,1.8-0.9c0.6-0.3,1.1-0.7,1.6-1.1c0.3-0.7,0.6-1.5,0.9-2.4c0.3-0.9,0.7-1.8,1.1-2.7c-0.7,0.7-1.6,1.2-2.4,1.4
					s-1.9,0.1-3-0.3c-1-0.4-1.8-1-2.2-1.8c-0.4-0.8-0.7-1.7-0.8-2.6s0-1.9,0.2-2.9c0.2-1,0.5-1.9,0.8-2.8c0.6-1.6,1.3-2.9,2.1-4
					c0.8-1.1,1.6-2,2.4-2.7c0.8-0.7,1.7-1.2,2.6-1.5c0.9-0.3,1.8-0.4,2.7-0.4c0.3,0,0.6,0.1,1,0.2s0.7,0.2,1,0.4
					c0.3,0.2,0.5,0.5,0.8,0.8c0.2,0.3,0.3,0.8,0.3,1.3s-0.1,0.9-0.3,1.1c-0.2,0.3-0.5,0.4-0.8,0.4c-0.3,0-0.6-0.1-0.8-0.3
					C221.7,122.9,221.6,122.6,221.6,122.3z M215.9,143.7c-0.4,0.3-0.8,0.6-1.3,0.8c-0.5,0.2-1,0.5-1.5,0.7c-0.5,0.2-1,0.5-1.4,0.8
					c-0.4,0.3-0.8,0.6-1.1,1c-0.2,0.3-0.3,0.5-0.2,0.8c0,0.3,0.2,0.6,0.3,0.8c0.2,0.2,0.4,0.4,0.7,0.6s0.6,0.1,1,0
					c0.4-0.1,0.7-0.4,1.1-0.8c0.4-0.4,0.7-1,1.1-1.8c0.2-0.4,0.3-0.8,0.6-1.3C215.5,144.9,215.7,144.3,215.9,143.7z"/>
				<path class="st0" d="M248.1,126c0.3,0.2,0.4,0.5,0.2,0.8c-0.4,0.9-1,1.9-1.6,2.9c-0.6,1-1.3,2-2,3c-0.8,1-1.6,1.8-2.4,2.7
					c-0.8,0.8-1.7,1.5-2.6,2s-1.8,0.8-2.8,1c-0.9,0.2-1.9,0-2.8-0.3c-1-0.4-1.8-1-2.2-1.8c-0.4-0.8-0.7-1.6-0.8-2.6
					c-0.1-0.9,0-1.9,0.2-2.9c0.2-1,0.5-1.9,0.8-2.8c0.6-1.6,1.3-2.9,2.1-4c0.8-1.1,1.6-2,2.4-2.7c0.8-0.7,1.7-1.2,2.6-1.5
					c0.9-0.3,1.8-0.5,2.7-0.5c1,0,1.6,0.2,2.1,0.7c0.4,0.5,0.7,1.1,0.7,1.8c0,0.7-0.2,1.6-0.6,2.5c-0.4,0.9-1,1.8-1.8,2.6
					c-0.8,0.9-1.7,1.6-2.8,2.3s-2.3,1.2-3.6,1.6c-0.2,0.7-0.3,1.3-0.4,2c-0.1,0.7-0.1,1.3,0,1.8c0.1,0.5,0.2,1,0.4,1.3
					s0.5,0.6,0.9,0.7c0.6,0.1,1.2,0,1.8-0.2c0.7-0.3,1.3-0.7,2-1.2c0.7-0.5,1.3-1.2,2-1.9c0.7-0.7,1.3-1.5,1.8-2.3
					c0.6-0.8,1.1-1.6,1.5-2.4c0.4-0.8,0.8-1.5,1.1-2.2c0.1-0.2,0.2-0.3,0.4-0.4C247.7,125.8,247.9,125.9,248.1,126z M236.8,128.4
					c-0.1,0.3-0.2,0.5-0.3,0.8c1.5-0.5,2.8-1.3,3.8-2.2c1-0.9,1.7-1.9,2.2-2.8c0.5-0.9,0.7-1.7,0.8-2.4s-0.2-1-0.7-1
					c-0.7,0-1.6,0.6-2.6,2C238.9,124.1,237.9,126,236.8,128.4z"/>
				<path class="st0" d="M242.5,117.6c0,0.4-0.1,0.6-0.3,0.7c-0.2,0.1-0.4,0.1-0.6,0c-0.2-0.1-0.4-0.4-0.5-0.8
					c-0.1-0.4-0.2-0.9-0.1-1.6c0.1-1.1,0.5-1.9,1.2-2.5c0.7-0.6,1.7-0.9,2.9-1.1c1.2-0.2,2.5-0.3,4-0.2c1.5,0.1,3,0.2,4.6,0.3
					c0.4-1.2,0.8-2.1,1-2.8c0.2-0.7,0.2-1.2,0.1-1.3c-0.2-0.2-0.1-0.3,0.2-0.5s0.8-0.3,1.3-0.3c0.5,0,1,0.1,1.6,0.3s0.9,0.8,1.2,1.5
					c0.1,0.4,0.1,0.8,0,1.5c-0.1,0.6-0.3,1.3-0.5,2.1c1.1,0.1,2.3,0.1,3.4,0c1.1-0.1,2.1-0.1,3-0.3c0.9-0.1,1.6-0.3,2.2-0.6
					c0.6-0.2,0.8-0.5,0.8-0.8c0-0.4,0.1-0.6,0.3-0.6c0.2,0,0.5,0.1,0.7,0.3c0.2,0.2,0.4,0.5,0.5,0.8c0.1,0.3,0,0.6-0.3,0.9
					c-0.3,0.3-0.9,0.6-1.6,0.9c-0.7,0.3-1.6,0.6-2.6,0.8c-1,0.2-2.1,0.4-3.4,0.6c-1.2,0.2-2.5,0.2-3.9,0.3c-0.5,1.4-1.2,2.9-1.9,4.5
					c-0.8,1.6-1.5,3.2-2.3,4.8c-0.8,1.6-1.5,3.1-2.2,4.6c-0.7,1.5-1.3,2.8-1.7,3.9s-0.7,2-0.8,2.7c-0.1,0.7,0.1,1,0.6,0.9
					c0.3,0,0.6-0.2,1-0.6c0.4-0.4,0.8-0.9,1.3-1.5s1-1.3,1.5-2s1-1.5,1.5-2.2c0.5-0.7,0.9-1.4,1.2-2.1c0.4-0.7,0.6-1.2,0.8-1.7
					c0.1-0.2,0.2-0.3,0.4-0.4c0.2-0.1,0.3-0.1,0.5,0c0.2,0.1,0.3,0.2,0.4,0.3c0.1,0.2,0.1,0.3,0,0.5c-0.2,0.4-0.5,1-0.9,1.8
					c-0.4,0.8-0.8,1.6-1.4,2.4c-0.5,0.9-1.1,1.7-1.7,2.6s-1.3,1.7-1.9,2.4c-0.7,0.7-1.3,1.3-2,1.8c-0.7,0.5-1.3,0.7-1.9,0.7
					c-0.5,0-1-0.1-1.3-0.3c-0.4-0.2-0.7-0.6-0.9-1c-0.2-0.4-0.4-0.9-0.5-1.5s-0.1-1.3,0-1.9c0.1-0.8,0.4-1.9,0.9-3.4
					c0.5-1.4,1.1-3,1.8-4.8c0.7-1.7,1.4-3.5,2.2-5.4s1.5-3.5,2.2-5.1c-1.3,0-2.6,0-3.8,0.1c-1.2,0-2.3,0.1-3.2,0.3
					c-0.9,0.2-1.6,0.4-2.2,0.8S242.5,117,242.5,117.6z"/>
				<path class="st0" d="M267.2,122.3c0-0.2,0.1-0.4,0.2-0.6c0.1-0.2,0.3-0.3,0.4-0.5c-0.1-0.3-0.3-0.5-0.6-0.5
					c-0.4,0-0.8,0.1-1.2,0.5s-0.9,0.8-1.4,1.5c-0.5,0.7-1,1.5-1.6,2.4c-0.5,1-1.1,2-1.6,3.2c-0.3,0.7-0.6,1.5-0.8,2.4
					c-0.2,0.9-0.3,1.7-0.4,2.5s0.1,1.5,0.2,2.1c0.2,0.6,0.5,1,1,1.2c0.4,0.2,0.7,0.1,1.1-0.1c0.4-0.2,0.8-0.6,1.2-1.1
					c0.4-0.5,0.8-1.1,1.2-1.8s0.8-1.4,1.2-2.2c0.4-0.8,0.8-1.5,1.2-2.3c0.4-0.8,0.7-1.5,1.1-2.1c0.4-0.8,0.7-1.6,1.1-2.4
					c0.3-0.8,0.6-1.4,0.9-2c0.2-0.6,0.4-1.1,0.5-1.5c0.1-0.4,0-0.7-0.1-0.9c-0.2-0.2-0.1-0.3,0.2-0.5s0.8-0.3,1.3-0.3
					c0.5,0,1,0.1,1.6,0.3s0.9,0.8,1.2,1.5c0.2,0.7,0.2,1.6-0.1,2.7c-0.3,1.1-0.7,2.2-1.3,3.3c-0.6,1.2-1.1,2.3-1.8,3.4
					c-0.6,1.1-1.2,2.1-1.6,3c-0.4,0.9-0.7,1.6-0.7,2.1c-0.1,0.5,0.2,0.8,0.8,0.7c0.2,0,0.6-0.2,1-0.6c0.4-0.4,0.9-0.9,1.3-1.5
					s1-1.3,1.5-2c0.5-0.7,1-1.5,1.5-2.2c0.4-0.7,0.9-1.4,1.2-2.1c0.4-0.7,0.6-1.2,0.8-1.7c0.1-0.2,0.2-0.3,0.4-0.4
					c0.2-0.1,0.3-0.1,0.5,0c0.2,0.1,0.3,0.2,0.4,0.3c0.1,0.2,0.1,0.3,0,0.5c-0.2,0.4-0.5,1-0.9,1.8c-0.4,0.8-0.8,1.6-1.4,2.4
					c-0.5,0.9-1.1,1.7-1.7,2.6c-0.6,0.9-1.3,1.7-1.9,2.4c-0.7,0.7-1.3,1.3-2,1.8c-0.7,0.5-1.3,0.7-1.9,0.7c-1,0.1-1.7-0.3-2.2-1.2
					c-0.5-0.8-0.7-1.9-0.5-3.2c-0.5,0.8-1,1.5-1.5,2.2c-0.5,0.7-1.1,1.2-1.8,1.6s-1.3,0.6-2,0.7c-0.7,0.1-1.5-0.1-2.3-0.4
					c-1-0.4-1.8-1-2.2-1.8c-0.4-0.8-0.7-1.7-0.8-2.6s0-1.9,0.2-2.9c0.2-1,0.5-1.9,0.8-2.8c0.6-1.6,1.3-2.9,2.1-4
					c0.8-1.1,1.6-2,2.4-2.7c0.8-0.7,1.7-1.2,2.6-1.5c0.9-0.3,1.8-0.4,2.7-0.4c0.3,0,0.6,0.1,1,0.2s0.7,0.2,1,0.4
					c0.3,0.2,0.5,0.5,0.8,0.8c0.2,0.3,0.3,0.8,0.3,1.3c0,0.6-0.1,0.9-0.4,1.2c-0.2,0.2-0.5,0.3-0.8,0.3c-0.3,0-0.6-0.1-0.8-0.3
					C267.4,122.9,267.2,122.6,267.2,122.3z"/>
				<path class="st0" d="M287.6,128.5c-0.4,0.8-0.8,1.6-1.4,2.4c-0.5,0.9-1.1,1.7-1.7,2.6s-1.3,1.7-1.9,2.4c-0.7,0.7-1.3,1.3-2,1.8
					c-0.7,0.5-1.3,0.7-1.9,0.7c-0.5,0-1-0.1-1.3-0.3c-0.4-0.2-0.7-0.6-0.9-1c-0.2-0.4-0.4-0.9-0.5-1.5s-0.1-1.3,0-1.9
					c0.1-0.8,0.3-1.7,0.6-2.7c0.3-0.9,0.6-1.9,1-2.8c0.4-0.9,0.8-1.9,1.2-2.8c0.4-0.9,0.7-1.7,1-2.4c0.3-0.7,0.5-1.3,0.6-1.8
					c0.1-0.5,0.1-0.8-0.1-1c-0.2-0.2-0.1-0.3,0.2-0.5s0.8-0.3,1.3-0.3c0.5,0,1,0.1,1.6,0.3c0.6,0.3,0.9,0.8,1.2,1.5
					c0.2,0.7,0.2,1.6-0.1,2.7c-0.3,1.1-0.7,2.2-1.3,3.3c-0.6,1.2-1.1,2.3-1.8,3.4c-0.6,1.1-1.2,2.1-1.6,3c-0.4,0.9-0.7,1.6-0.7,2.1
					c-0.1,0.5,0.2,0.8,0.8,0.7c0.3,0,0.6-0.2,1-0.6s0.8-0.9,1.3-1.5c0.5-0.6,1-1.3,1.5-2c0.5-0.7,1-1.5,1.5-2.2
					c0.5-0.7,0.9-1.4,1.2-2.1c0.4-0.7,0.6-1.2,0.8-1.7c0.1-0.2,0.2-0.3,0.4-0.4c0.2-0.1,0.3-0.1,0.5,0c0.2,0.1,0.3,0.2,0.4,0.3
					c0.1,0.2,0.1,0.3,0,0.5C288.3,127.2,288,127.8,287.6,128.5z M285.9,116.5c0.1-0.3,0.3-0.6,0.5-0.9s0.3-0.6,0.5-0.9
					c0.1-0.3,0.2-0.5,0.2-0.7c0-0.6-0.2-1.2-0.6-1.6c-0.4-0.4-0.8-0.7-1.3-0.9c-0.5-0.2-0.9-0.3-1.3-0.3s-0.6,0.1-0.6,0.3
					c0,0.2-0.1,0.4-0.2,0.7c-0.2,0.3-0.3,0.6-0.5,0.9c-0.2,0.3-0.4,0.6-0.5,0.9c-0.2,0.3-0.2,0.5-0.2,0.7c0,0.6,0.2,1.2,0.6,1.6
					c0.4,0.4,0.9,0.7,1.3,0.9c0.5,0.2,0.9,0.3,1.3,0.3c0.4,0,0.6-0.1,0.6-0.3C285.7,117.1,285.8,116.9,285.9,116.5z"/>
				<path class="st0" d="M292.6,137.6L292.6,137.6c-0.6,0.3-1.1,0.5-1.7,0.7c-0.5,0.2-1,0.2-1.3,0.2c-1,0-1.8-0.3-2.4-0.8
					c-0.6-0.5-0.9-1.1-1.1-1.9c-0.2-0.7-0.2-1.4-0.1-2.2c0.1-0.7,0.4-1.3,0.7-1.7c0.5-0.5,1-0.9,1.4-1.1s0.8-0.2,1-0.2
					c0.3,0,0.5,0.1,0.8,0.3s0.4,0.5,0.4,0.8c0,0.3-0.1,0.6-0.4,0.8c-0.2,0.2-0.5,0.3-0.8,0.3c-0.2,0-0.4-0.1-0.7-0.2
					c-0.2-0.1-0.3-0.3-0.4-0.6c-0.3,0.4-0.6,0.8-0.7,1.4c-0.1,0.5-0.2,1.1-0.1,1.5c0.1,0.5,0.3,0.9,0.6,1.3c0.3,0.3,0.8,0.5,1.3,0.6
					c0.2,0,0.5-0.1,0.9-0.3c0.4-0.2,0.8-0.5,1.2-1c0.4-0.4,0.8-1,1.1-1.7c0.3-0.7,0.5-1.6,0.6-2.6c0.1-1,0-2.2-0.3-3.5
					c-0.3-1.3-0.8-2.8-1.6-4.5c-0.3,0.5-0.5,1-0.9,1.6c-0.3,0.6-0.6,1.1-0.9,1.6c-0.1,0.2-0.3,0.3-0.5,0.3s-0.3,0-0.5-0.1
					c-0.2-0.1-0.3-0.2-0.3-0.3c-0.1-0.1,0-0.3,0.1-0.5c0.2-0.4,0.4-0.8,0.6-1.2c0.2-0.3,0.4-0.7,0.5-1s0.3-0.6,0.5-0.9
					c0.2-0.3,0.3-0.7,0.5-1c-0.3-0.4-0.5-0.9-0.7-1.3c-0.2-0.5-0.2-1-0.2-1.5c0-0.2,0-0.5,0.1-0.9c0.1-0.3,0.2-0.7,0.5-1
					c0.2-0.3,0.5-0.6,0.9-0.9c0.4-0.2,0.9-0.4,1.5-0.4c0.6,0,1.1,0.1,1.4,0.4s0.5,0.6,0.5,1.1s-0.1,0.9-0.3,1.4
					c-0.2,0.5-0.5,1-0.8,1.6l-0.1,0.2c1,1.2,1.8,2.3,2.4,3.3s1.1,2.1,1.4,3c0.3,1,0.5,1.8,0.5,2.7c0,0.8,0,1.6-0.2,2.3
					c0.8-1,1.6-1.9,2.3-2.9c0.7-0.9,1.2-1.8,1.7-2.7c0.1-0.2,0.2-0.3,0.3-0.4c0.2-0.1,0.3,0,0.6,0.1c0.2,0.1,0.3,0.2,0.3,0.4
					c0,0.2,0,0.3-0.1,0.5c-0.6,1.3-1.3,2.4-2.1,3.5c-0.8,1.1-1.7,2.2-2.7,3.3c-0.7,0.8-1.4,1.5-2.2,2.1
					C294.4,136.7,293.6,137.2,292.6,137.6L292.6,137.6z"/>
			</g>
		</g>
		<g>
			<path class="st0" d="M6.2,129.8c0-0.1,0-0.2,0.1-0.3s0.1-0.2,0.2-0.2c-0.1-0.2-0.2-0.2-0.3-0.2c-0.2,0-0.4,0.1-0.6,0.3
				s-0.5,0.5-0.8,0.8c-0.3,0.4-0.6,0.8-0.8,1.3s-0.6,1.1-0.9,1.7c-0.2,0.4-0.3,0.8-0.4,1.3c-0.1,0.5-0.2,0.9-0.2,1.3
				c0,0.4,0,0.8,0.1,1.1c0.1,0.3,0.3,0.5,0.5,0.6c0.3,0.1,0.6,0,0.9-0.3c0.3-0.3,0.6-0.7,1-1.3c0.3-0.5,0.7-1.1,1-1.7
				c0.3-0.6,0.6-1.2,0.9-1.7c0.3-0.7,0.6-1.4,0.9-2.2c0.3-0.8,0.6-1.5,0.9-2.2c0.3-0.7,0.6-1.4,0.9-2.1s0.5-1.3,0.7-1.8
				s0.3-1,0.4-1.3c0.1-0.3,0.1-0.5,0-0.6c-0.1-0.1-0.1-0.2,0.1-0.3c0.2-0.1,0.4-0.2,0.7-0.2s0.6,0,0.9,0.2c0.3,0.1,0.5,0.4,0.6,0.8
				c0.1,0.3,0.1,0.8-0.1,1.3s-0.4,1.3-0.7,2c-0.3,0.7-0.6,1.6-1,2.4c-0.4,0.9-0.8,1.7-1.2,2.6c-0.4,0.8-0.8,1.7-1.2,2.4
				s-0.7,1.5-0.9,2.1s-0.4,1.1-0.4,1.4c0,0.3,0.1,0.5,0.3,0.5c0.1,0,0.3-0.1,0.5-0.3s0.5-0.5,0.7-0.8c0.3-0.3,0.5-0.7,0.8-1.1
				c0.3-0.4,0.5-0.8,0.8-1.2c0.2-0.4,0.5-0.8,0.7-1.1s0.3-0.7,0.4-0.9c0-0.1,0.1-0.2,0.2-0.2c0.1,0,0.2,0,0.3,0s0.1,0.1,0.2,0.2
				s0,0.2,0,0.3c-0.1,0.2-0.3,0.6-0.5,1c-0.2,0.4-0.5,0.8-0.7,1.3c-0.3,0.5-0.6,0.9-0.9,1.4c-0.3,0.5-0.7,0.9-1,1.3
				c-0.4,0.4-0.7,0.7-1.1,1s-0.7,0.4-1,0.4c-0.5,0-0.9-0.2-1.2-0.6c-0.3-0.5-0.4-1-0.3-1.7c-0.3,0.4-0.5,0.8-0.8,1.2
				c-0.3,0.3-0.6,0.6-0.9,0.8c-0.3,0.2-0.7,0.3-1.1,0.4s-0.8,0-1.2-0.2c-0.6-0.2-1-0.5-1.2-1c-0.2-0.4-0.4-0.9-0.4-1.4
				c0-0.5,0-1,0.1-1.6c0.1-0.5,0.3-1,0.5-1.5c0.3-0.8,0.7-1.6,1.1-2.2c0.4-0.6,0.8-1.1,1.3-1.5c0.5-0.4,0.9-0.7,1.4-0.8
				c0.5-0.2,1-0.2,1.5-0.2c0.2,0,0.3,0,0.5,0.1c0.2,0,0.4,0.1,0.5,0.2s0.3,0.3,0.4,0.4c0.1,0.2,0.2,0.4,0.2,0.7s-0.1,0.5-0.2,0.6
				c-0.1,0.1-0.3,0.2-0.5,0.2c-0.2,0-0.3-0.1-0.4-0.2C6.3,130.1,6.2,129.9,6.2,129.8z"/>
			<path class="st0" d="M17.5,129.8c0-0.1,0-0.2,0.1-0.3s0.1-0.2,0.2-0.2c-0.1-0.2-0.2-0.2-0.3-0.2c-0.2,0-0.4,0.1-0.6,0.3
				s-0.5,0.5-0.8,0.8c-0.3,0.4-0.6,0.8-0.8,1.3s-0.6,1.1-0.9,1.7c-0.2,0.4-0.3,0.8-0.4,1.3c-0.1,0.5-0.2,0.9-0.2,1.3
				c0,0.4,0,0.8,0.1,1.1c0.1,0.3,0.3,0.5,0.5,0.6c0.2,0.1,0.4,0.1,0.6-0.1s0.4-0.3,0.6-0.6c0.2-0.3,0.4-0.6,0.7-1
				c0.2-0.4,0.5-0.8,0.7-1.2s0.4-0.8,0.6-1.2c0.2-0.4,0.4-0.8,0.6-1.1c0.2-0.5,0.4-0.9,0.6-1.3c0.2-0.4,0.3-0.8,0.5-1.1
				c0.1-0.3,0.2-0.6,0.2-0.8c0-0.2,0-0.4-0.1-0.5c-0.1-0.1-0.1-0.2,0.1-0.3c0.2-0.1,0.4-0.2,0.7-0.2c0.3,0,0.6,0,0.9,0.2
				c0.3,0.1,0.5,0.4,0.6,0.8c0.1,0.4,0.1,0.9-0.1,1.5c-0.2,0.6-0.4,1.2-0.7,1.8s-0.6,1.2-1,1.8c-0.3,0.6-0.6,1.2-0.9,1.6
				c-0.2,0.5-0.4,0.9-0.4,1.1c0,0.3,0.1,0.4,0.4,0.4c0.1,0,0.3-0.1,0.5-0.3s0.5-0.5,0.7-0.8c0.3-0.3,0.5-0.7,0.8-1.1
				c0.3-0.4,0.5-0.8,0.8-1.2c0.2-0.4,0.5-0.8,0.7-1.1c0.2-0.4,0.3-0.7,0.4-0.9c0-0.1,0.1-0.2,0.2-0.2c0.1,0,0.2,0,0.3,0
				c0.1,0,0.1,0.1,0.2,0.2c0,0.1,0,0.2,0,0.3c-0.1,0.2-0.3,0.6-0.5,1c-0.2,0.4-0.5,0.8-0.7,1.3s-0.6,0.9-0.9,1.4
				c-0.3,0.5-0.7,0.9-1,1.3c-0.4,0.4-0.7,0.7-1.1,1c-0.4,0.2-0.7,0.4-1,0.4c-0.5,0-0.9-0.2-1.2-0.6c-0.3-0.5-0.4-1-0.3-1.7
				c-0.3,0.4-0.5,0.8-0.8,1.2s-0.6,0.6-0.9,0.8c-0.3,0.2-0.7,0.3-1.1,0.4c-0.4,0-0.8,0-1.3-0.2c-0.6-0.2-1-0.5-1.2-1
				c-0.2-0.4-0.4-0.9-0.4-1.4c0-0.5,0-1,0.1-1.6c0.1-0.5,0.3-1,0.5-1.5c0.3-0.8,0.7-1.6,1.1-2.2c0.4-0.6,0.8-1.1,1.3-1.5
				c0.5-0.4,0.9-0.7,1.4-0.8c0.5-0.2,1-0.2,1.5-0.2c0.2,0,0.3,0,0.5,0.1c0.2,0,0.4,0.1,0.5,0.2s0.3,0.3,0.4,0.4
				c0.1,0.2,0.2,0.4,0.2,0.7c0,0.3-0.1,0.5-0.2,0.6c-0.1,0.1-0.3,0.2-0.4,0.2c-0.2,0-0.3-0.1-0.4-0.2
				C17.5,130.1,17.5,129.9,17.5,129.8z"/>
			<path class="st0" d="M26,138L26,138c-0.3,0.2-0.6,0.3-0.9,0.4s-0.5,0.1-0.7,0.1c-0.6,0-1-0.1-1.3-0.4c-0.3-0.3-0.5-0.6-0.6-1
				c-0.1-0.4-0.1-0.8,0-1.2c0.1-0.4,0.2-0.7,0.4-0.9c0.3-0.3,0.5-0.5,0.7-0.6c0.2-0.1,0.4-0.1,0.6-0.1c0.2,0,0.3,0.1,0.4,0.2
				s0.2,0.2,0.2,0.4c0,0.2-0.1,0.3-0.2,0.5c-0.1,0.1-0.3,0.2-0.4,0.2c-0.1,0-0.2,0-0.4-0.1c-0.1-0.1-0.2-0.2-0.2-0.3
				c-0.2,0.2-0.3,0.5-0.4,0.7s-0.1,0.6,0,0.8c0,0.3,0.1,0.5,0.3,0.7c0.2,0.2,0.4,0.3,0.7,0.3c0.1,0,0.3-0.1,0.5-0.2
				c0.2-0.1,0.4-0.3,0.6-0.5c0.2-0.2,0.4-0.6,0.6-0.9s0.3-0.8,0.3-1.4c0-0.5,0-1.2-0.2-1.9c-0.2-0.7-0.4-1.5-0.9-2.4
				c-0.1,0.3-0.3,0.6-0.5,0.9c-0.2,0.3-0.3,0.6-0.5,0.9c-0.1,0.1-0.2,0.2-0.2,0.2c-0.1,0-0.2,0-0.3,0s-0.1-0.1-0.2-0.2
				c0-0.1,0-0.2,0-0.3c0.1-0.2,0.2-0.4,0.3-0.6c0.1-0.2,0.2-0.4,0.3-0.5c0.1-0.2,0.2-0.3,0.3-0.5s0.2-0.4,0.3-0.6
				c-0.2-0.2-0.3-0.5-0.4-0.7s-0.1-0.5-0.1-0.8c0-0.1,0-0.3,0.1-0.5c0-0.2,0.1-0.4,0.2-0.6s0.3-0.3,0.5-0.5s0.5-0.2,0.8-0.2
				c0.3,0,0.6,0.1,0.8,0.2c0.2,0.2,0.2,0.3,0.3,0.6c0,0.2,0,0.5-0.1,0.8c-0.1,0.3-0.3,0.6-0.4,0.8l-0.1,0.1c0.5,0.6,1,1.2,1.3,1.8
				c0.3,0.6,0.6,1.1,0.7,1.6c0.2,0.5,0.3,1,0.3,1.4c0,0.4,0,0.9-0.1,1.2c0.5-0.5,0.9-1,1.2-1.6c0.4-0.5,0.7-1,0.9-1.5
				c0-0.1,0.1-0.2,0.2-0.2c0.1,0,0.2,0,0.3,0.1c0.1,0.1,0.2,0.1,0.2,0.2c0,0.1,0,0.2,0,0.3c-0.3,0.7-0.7,1.3-1.2,1.9
				s-0.9,1.2-1.4,1.8c-0.4,0.4-0.8,0.8-1.2,1.1C27,137.5,26.5,137.8,26,138L26,138z"/>
		</g>
	</g>
	<g>
		<g>
			<path class="st0" d="M155.6,17.6c1,1.5,1.6,0.8,1.3-0.7c-0.4-1.5-0.8-3.1-1.2-4.6c-0.4-1.5-0.4-7.4-2.7-7.3
				c-2.8,0.1-1.5,4.5-0.9,5.8C152.9,13.2,154.2,15.5,155.6,17.6z M155.7,12.5C155.6,12.5,155.6,12.5,155.7,12.5
				C155.6,12.5,155.6,12.5,155.7,12.5z M155.5,12C155.5,12,155.5,12,155.5,12L155.5,12z M155.6,12.3
				C155.6,12.3,155.6,12.2,155.6,12.3C155.6,12.3,155.6,12.3,155.6,12.3z M155.6,12.2C155.5,12.2,155.5,12.2,155.6,12.2
				C155.5,12.2,155.5,12.2,155.6,12.2z"/>
			<path class="st0" d="M173.1,11.9c0,0.3-0.3,4.9,0.6,4c1-1,1.3-2.8,1.8-4.1c0.5-1.4,0.9-2.7,1.3-4.2c0.5-2.1,1.3-5.4-0.6-7.1
				c-3.4-2.9-2.7,5.2-2.7,6.5C173.4,8.7,173.2,10.4,173.1,11.9z"/>
			<path class="st0" d="M176.1,0.6"/>
			<path class="st0" d="M191.6,18.6c1.2-1.5,2.5-3,3.9-4.4c0.8-0.8,5.9-5,2-5.5c0.2,0,0.3,0,0,0c-1.9-0.2-0.5-0.1,0,0
				c-2.2-0.3-3.8,2.3-4.8,3.9c-1.3,2-3.5,5.1-3.6,7.6C189.1,21.4,191.4,18.8,191.6,18.6z"/>
			<path class="st0" d="M210.6,21.8C210.8,21.8,211,21.8,210.6,21.8C210,21.8,210.3,21.8,210.6,21.8c-1.2,0-2,1.1-2.9,1.7
				c-1.5,1-3,1.9-4.6,2.8c-1.1,0.7-2.7,1.2-3.6,2.2c-1,1.1,2.1,0.4,2.4,0.3c2.5-0.7,5.2-1.3,7.5-2.7
				C210.5,25.4,213.7,21.7,210.6,21.8z"/>
			<path class="st0" d="M144.2,23.6C144.3,23.7,144.4,23.8,144.2,23.6c-1.8-1.7-3.6-3.6-5-5.6c-1.7-2.3-3.7-0.5-2.3,1.7
				c1,1.7,2.9,2.9,4.6,4c1.1,0.7,2.2,1.5,3.4,2C146.8,26.5,144.6,24,144.2,23.6z"/>
		</g>
		<g>
			<g>
				<path class="st0" d="M141,58.4c0,0-6.3-22.6,14.2-32.5c0,0,13.7-7.2,32.6-2.9c0,0-0.5,30.2-21.5,37.4c0,0-11.3,5.2-22.1,1.3
					c0,0,4.8-15.2,28.8-26.5C173,35.1,151.9,38.1,141,58.4z"/>
				<path class="st0" d="M138.4,57.9c0,0,4-14.4-9-20.7c0,0-8.7-4.6-20.8-1.8c0,0,0.3,19.3,13.7,23.8c0,0,7.2,3.3,14.1,0.8
					c0,0-3.1-9.7-18.3-16.9C118,43.1,131.4,44.9,138.4,57.9z"/>
			</g>
		</g>
	</g>
</g>
</svg>
