<?xml version="1.0" encoding="UTF-8"?>
<svg width="20px" height="20px" viewBox="0 0 20 20" version="1.1" xmlns="http://www.w3.org/2000/svg" xmlns:xlink="http://www.w3.org/1999/xlink">
    <title>30E302A0-8536-4ED1-9B92-71FC6A9EE891</title>
    <defs></defs>
    <g id="Symbols" stroke="none" stroke-width="1" fill="none" fill-rule="evenodd">
        <g id="user" fill-rule="nonzero" fill="#FFFFFF">
            <g id="Shape">
                <path d="M19.948125,19.1246875 C19.7084375,18.0609375 17.8975,11.455625 9.9934375,11.455625 C1.4396875,11.455625 0.0221875,19.189375 0.00875,19.2678125 C-0.021875,19.449375 0.028125,19.63625 0.1475,19.7771875 C0.2665625,19.9184375 0.441875,20 0.62625,20 L19.3609375,20 C19.3659375,20 19.369375,20 19.37375,20 C19.7190625,20 20,19.7196875 20,19.373125 C20,19.285 19.9815625,19.2003125 19.948125,19.1246875 Z"></path>
                <path d="M9.9928125,10.2796875 C12.825,10.2796875 15.1290625,7.974375 15.1290625,5.14 C15.12875,2.3059375 12.825,3.55271368e-15 9.9928125,3.55271368e-15 C7.1615625,3.55271368e-15 4.8584375,2.3059375 4.8584375,5.1396875 C4.8584375,7.974375 7.1615625,10.2796875 9.9928125,10.2796875 Z"></path>
            </g>
        </g>
    </g>
</svg>