<?xml version="1.0" encoding="UTF-8"?>
<svg width="21px" height="19px" viewBox="0 0 21 19" version="1.1" xmlns="http://www.w3.org/2000/svg" xmlns:xlink="http://www.w3.org/1999/xlink">
    <!-- Generator: Sketch 50.2 (55047) - http://www.bohemiancoding.com/sketch -->
    <title>Shape</title>
    <desc>Created with Sketch.</desc>
    <defs></defs>
    <g id="Page-1" stroke="none" stroke-width="1" fill="none" fill-rule="evenodd">
        <path d="M3.70628993,19 C2.71545515,19 1.78442496,18.6184375 1.08419708,17.9265928 C-0.361399026,16.4978755 -0.361399026,14.173091 1.08419708,12.7445417 L12.5472939,1.41607419 C13.4708007,0.502491489 14.6999612,0 16.0067783,0 C17.313808,0 18.542926,0.502491489 19.4664753,1.41607419 C20.3908747,2.32940487 20.9,3.54335677 20.9,4.83472167 C20.9,6.12633859 20.3914698,7.34024849 19.4672404,8.25303312 L10.4432948,17.1697263 C10.1723678,17.4373325 9.73363083,17.4373325 9.46283128,17.1697263 C9.19190422,16.9020361 9.19190422,16.4684728 9.46283128,16.2006986 L18.4865643,7.28400539 C19.1489202,6.62958615 19.5131884,5.7596454 19.5131884,4.83472167 C19.5131884,3.90996595 19.1481551,3.03947915 18.4859693,2.3849759 C17.8236134,1.73055666 16.9432917,1.37041606 16.0067783,1.37041606 C15.070435,1.37041606 14.1901133,1.73055666 13.5277574,2.3849759 L2.06478814,13.7134434 C1.16015357,14.6081664 1.16015357,16.0630521 2.06478814,16.9575651 C2.9423045,17.8235575 4.47010534,17.8235575 5.3475792,16.9575651 L13.0448578,9.35046646 C13.2541525,9.14363974 13.3740592,8.85734182 13.3740592,8.5654994 C13.3740592,8.26958261 13.2569579,7.99063536 13.0442627,7.78049034 C12.6068434,7.34822921 11.893779,7.34692709 11.4563597,7.78049034 L6.19946503,12.9759827 C5.92870798,13.2437569 5.48975852,13.2437569 5.21900148,12.9759827 C4.94807441,12.7083764 4.94807441,12.2746452 5.21900148,12.007123 L10.4757262,6.81163063 C11.4535544,5.84537516 13.0456228,5.84537516 14.0247687,6.81163063 C14.4995074,7.28064509 14.7608284,7.9037295 14.7608284,8.56554141 C14.7608284,9.21857452 14.4927066,9.85766238 14.0254913,10.3193682 L6.32821277,17.9265928 C5.62798489,18.6184375 4.69691218,19 3.70628993,19 Z" id="Shape" fill="#054279" fill-rule="nonzero"></path>
    </g>
</svg>