<?xml version="1.0" encoding="UTF-8"?>
<svg width="37px" height="49px" viewBox="0 0 37 49" version="1.1" xmlns="http://www.w3.org/2000/svg" xmlns:xlink="http://www.w3.org/1999/xlink">
    <!-- Generator: Sketch 50.2 (55047) - http://www.bohemiancoding.com/sketch -->
    <title>icono/60/pdf</title>
    <desc>Created with Sketch.</desc>
    <defs>
        <polygon id="path-1" points="0 0 37 0 37 48.9998 0 48.9998"></polygon>
    </defs>
    <g id="Page-1" stroke="none" stroke-width="1" fill="none" fill-rule="evenodd">
        <g id="icono/60/pdf" transform="translate(-12.000000, -5.000000)">
            <g id="Page-1" transform="translate(12.000000, 5.000000)">
                <g id="Group-3">
                    <mask id="mask-2" fill="white">
                        <use xlink:href="#path-1"></use>
                    </mask>
                    <g id="Clip-2"></g>
                    <path d="M1,47.9998 L1,0.9998 L26,0.9998 L26,10.4998 C26,10.7758 26.224,10.9998 26.5,10.9998 L36,10.9998 L36,47.9998 L1,47.9998 Z M27,1.7068 L35.293,9.9998 L27,9.9998 L27,1.7068 Z M36.961,10.3078 C36.936,10.2468 36.899,10.1918 36.853,10.1458 L26.855,0.1468 C26.809,0.1008 26.754,0.0638 26.693,0.0388 C26.632,0.0138 26.566,-0.0002 26.5,-0.0002 L0.5,-0.0002 C0.224,-0.0002 0,0.2238 0,0.4998 L0,48.4998 C0,48.7758 0.224,48.9998 0.5,48.9998 L36.5,48.9998 C36.776,48.9998 37,48.7758 37,48.4998 L37,10.4998 C37,10.4328 36.986,10.3678 36.961,10.3078 Z" id="Fill-1" fill="#054279" mask="url(#mask-2)"></path>
                </g>
                <path d="M22.5,10.9998 C22.776,10.9998 23,10.7758 23,10.4998 C23,10.2238 22.776,9.9998 22.5,9.9998 L8.5,9.9998 C8.224,9.9998 8,10.2238 8,10.4998 C8,10.7758 8.224,10.9998 8.5,10.9998 L22.5,10.9998 Z" id="Fill-4" fill="#054279"></path>
                <path d="M28.5,15.9998 L8.5,15.9998 C8.224,15.9998 8,16.2238 8,16.4998 C8,16.7758 8.224,16.9998 8.5,16.9998 L28.5,16.9998 C28.776,16.9998 29,16.7758 29,16.4998 C29,16.2238 28.776,15.9998 28.5,15.9998" id="Fill-6" fill="#054279"></path>
                <path d="M28.5,21.9998 L8.5,21.9998 C8.224,21.9998 8,22.2238 8,22.4998 C8,22.7758 8.224,22.9998 8.5,22.9998 L28.5,22.9998 C28.776,22.9998 29,22.7758 29,22.4998 C29,22.2238 28.776,21.9998 28.5,21.9998" id="Fill-8" fill="#054279"></path>
                <path d="M28.5,27.9998 L8.5,27.9998 C8.224,27.9998 8,28.2238 8,28.4998 C8,28.7758 8.224,28.9998 8.5,28.9998 L28.5,28.9998 C28.776,28.9998 29,28.7758 29,28.4998 C29,28.2238 28.776,27.9998 28.5,27.9998" id="Fill-10" fill="#054279"></path>
                <path d="M28.5,33.9998 L8.5,33.9998 C8.224,33.9998 8,34.2248 8,34.4998 C8,34.7758 8.224,34.9998 8.5,34.9998 L28.5,34.9998 C28.776,34.9998 29,34.7758 29,34.4998 C29,34.2248 28.776,33.9998 28.5,33.9998" id="Fill-12" fill="#054279"></path>
                <path d="M28.5,39.9998 L8.5,39.9998 C8.224,39.9998 8,40.2248 8,40.4998 C8,40.7758 8.224,40.9998 8.5,40.9998 L28.5,40.9998 C28.776,40.9998 29,40.7758 29,40.4998 C29,40.2248 28.776,39.9998 28.5,39.9998" id="Fill-14" fill="#054279"></path>
            </g>
        </g>
    </g>
</svg>