<?xml version="1.0" encoding="UTF-8"?>
<svg width="29px" height="31px" viewBox="0 0 29 31" version="1.1" xmlns="http://www.w3.org/2000/svg" xmlns:xlink="http://www.w3.org/1999/xlink">
    <!-- Generator: Sketch 50.2 (55047) - http://www.bohemiancoding.com/sketch -->
    <title>noun_972039_cc</title>
    <desc>Created with Sketch.</desc>
    <defs></defs>
    <g id="Page-1" stroke="none" stroke-width="1" fill="none" fill-rule="evenodd">
        <g id="noun_972039_cc" fill="#054279" fill-rule="nonzero">
            <path d="M26.1785544,2.27838906 L26.1785544,1.09034825 C26.1785544,0.489290674 25.6849267,0 25.0785414,0 L24.1685459,0 C23.5621606,0 23.0685329,0.489290674 23.0685329,1.09034825 L23.0685329,2.25479383 L15.9815094,2.25479383 L15.9815094,1.09034825 C15.9815094,0.489290674 15.4878817,7.3532558e-16 14.8814965,7.3532558e-16 L13.9715009,7.3532558e-16 C13.3651157,7.3532558e-16 12.871488,0.489290674 12.871488,1.09034825 L12.871488,2.25479383 L5.78446449,2.25479383 L5.78446449,1.09034825 C5.78446449,0.489290674 5.29083681,7.3532558e-16 4.68445153,7.3532558e-16 L3.77487362,7.3532558e-16 C3.16848835,7.3532558e-16 2.67486066,0.489290674 2.67486066,1.09034825 L2.67486066,2.29950059 C1.14636886,2.54538778 0,3.8468513 0,5.42359256 L0,27.8312013 C0,29.5784905 1.43452715,31 3.19688655,31 L25.8026957,31 C27.5658904,31 28.9999999,29.5780766 28.9999999,27.8312013 L28.9999999,5.42359256 C29.0004175,3.80255849 27.7650954,2.46342538 26.1785544,2.27838906 Z M23.904192,1.09034825 C23.904192,0.945465228 24.0227962,0.827903002 24.1689635,0.827903002 L25.078959,0.827903002 C25.2251263,0.827903002 25.3437306,0.945465228 25.3437306,1.09034825 L25.3437306,4.24672845 C25.3437306,4.39161147 25.2251263,4.5091737 25.078959,4.5091737 L24.1689635,4.5091737 C24.0227962,4.5091737 23.904192,4.39161147 23.904192,4.24672845 L23.904192,1.09034825 Z M13.707147,1.09034825 C13.707147,0.945465228 13.8257513,0.827903002 13.9719186,0.827903002 L14.8819141,0.827903002 C15.0280813,0.827903002 15.1466856,0.945465228 15.1466856,1.09034825 L15.1466856,4.24672845 C15.1466856,4.39161147 15.0280813,4.5091737 14.8819141,4.5091737 L13.9719186,4.5091737 C13.8257513,4.5091737 13.707147,4.39161147 13.707147,4.24672845 L13.707147,1.09034825 Z M3.51051971,1.09034825 C3.51051971,0.945465228 3.62912399,0.827903002 3.77529124,0.827903002 L4.68486915,0.827903002 C4.8310364,0.827903002 4.94964068,0.945465228 4.94964068,1.09034825 L4.94964068,4.24672845 C4.94964068,4.39161147 4.8310364,4.5091737 4.68486915,4.5091737 L3.77529124,4.5091737 C3.62912399,4.5091737 3.51051971,4.39161147 3.51051971,4.24672845 L3.51051971,1.09034825 Z M2.67527828,3.14189189 L2.67527828,4.24672845 C2.67527828,4.84778603 3.16890597,5.3370767 3.77529124,5.3370767 L4.68486915,5.3370767 C5.29125443,5.3370767 5.78488211,4.84778603 5.78488211,4.24672845 L5.78488211,3.08228288 L12.8723232,3.08228288 L12.8723232,4.24672845 C12.8723232,4.84778603 13.3659509,5.3370767 13.9723362,5.3370767 L14.8823317,5.3370767 C15.488717,5.3370767 15.9823447,4.84778603 15.9823447,4.24672845 L15.9823447,3.08228288 L23.0697858,3.08228288 L23.0697858,4.24672845 C23.0697858,4.84778603 23.5634135,5.3370767 24.1697987,5.3370767 L25.0797943,5.3370767 C25.6861795,5.3370767 26.1798072,4.84778603 26.1798072,4.24672845 L26.1798072,3.11498504 C27.3040422,3.29422604 28.166429,4.25956094 28.166429,5.42359256 L28.166429,9.45216857 L0.835241425,9.45216857 L0.835241425,5.42359256 C0.835241425,4.30592351 1.6149393,3.37660239 2.67527828,3.14189189 Z M25.8026957,30.172097 L3.19688655,30.172097 C1.89474517,30.172097 0.835241425,29.121902 0.835241425,27.8312013 L0.835241425,10.2800716 L28.1647586,10.2800716 L28.1647585,27.8307873 C28.1651761,29.121902 27.1056723,30.172097 25.8026957,30.172097 Z" id="Shape"></path>
            <rect id="Rectangle-path" x="7" y="15" width="2" height="1"></rect>
            <rect id="Rectangle-path" x="10" y="15" width="12" height="1"></rect>
            <rect id="Rectangle-path" x="7" y="20" width="2" height="1"></rect>
            <rect id="Rectangle-path" x="10" y="20" width="12" height="1"></rect>
            <rect id="Rectangle-path" x="7" y="25" width="2" height="1"></rect>
            <rect id="Rectangle-path" x="10" y="25" width="12" height="1"></rect>
        </g>
    </g>
</svg>