<?xml version="1.0" encoding="UTF-8"?>
<svg width="18px" height="18px" viewBox="0 0 18 18" version="1.1" xmlns="http://www.w3.org/2000/svg" xmlns:xlink="http://www.w3.org/1999/xlink">
    <!-- Generator: sketchtool 48.2 (47327) - http://www.bohemiancoding.com/sketch -->
    <title>89BFE97E-3BC7-4A21-8899-568CDA827A1C</title>
    <desc>Created with sketchtool.</desc>
    <defs></defs>
    <g id="Material/Icons-white/link-externo" stroke="none" stroke-width="1" fill="none" fill-rule="evenodd" transform="translate(-3.000000, -3.000000)">
        <g id="ic_open_in_new">
            <g id="Icon-24px">
                <polygon id="Shape" points="0 0 24 0 24 24 0 24"></polygon>
                <path d="M19,19 L5,19 L5,5 L12,5 L12,3 L5,3 C3.89,3 3,3.9 3,5 L3,19 C3,20.1 3.89,21 5,21 L19,21 C20.1,21 21,20.1 21,19 L21,12 L19,12 L19,19 L19,19 Z M14,3 L14,5 L17.59,5 L7.76,14.83 L9.17,16.24 L19,6.41 L19,10 L21,10 L21,3 L14,3 L14,3 Z" id="Shape" fill="#FFFFFF"></path>
            </g>
        </g>
    </g>
</svg>