<?xml version="1.0" encoding="UTF-8"?>
<svg width="28px" height="28px" viewBox="0 0 28 28" version="1.1" xmlns="http://www.w3.org/2000/svg" xmlns:xlink="http://www.w3.org/1999/xlink">
    <!-- Generator: Sketch 50.2 (55047) - http://www.bohemiancoding.com/sketch -->
    <title>Page 1</title>
    <desc>Created with Sketch.</desc>
    <defs>
        <polygon id="path-1" points="0 0 28 0 28 28 0 28"></polygon>
    </defs>
    <g id="Page-1" stroke="none" stroke-width="1" fill="none" fill-rule="evenodd">
        <g>
            <mask id="mask-2" fill="white">
                <use xlink:href="#path-1"></use>
            </mask>
            <g id="Clip-2"></g>
            <path d="M19.6134749,17.4139346 L26.7709252,24.5593294 C27.3849765,25.1733807 27.3849765,26.1444296 26.7709252,26.7588697 C26.1568739,27.3725321 25.1858251,27.3725321 24.5717738,26.7588697 L17.4143235,19.613086 C18.2469288,18.9893126 18.9897015,18.2469288 19.6134749,17.4139346 M10.8884244,0.777772377 C16.4771078,0.777772377 20.9990764,5.29974097 20.9990764,10.8884244 C20.9990764,16.4767189 16.4771078,20.9986875 10.8884244,20.9986875 C5.29974097,20.9986875 0.777772377,16.4767189 0.777772377,10.8884244 C0.777772377,5.29974097 5.29974097,0.777772377 10.8884244,0.777772377 M10.8884244,0 C4.87974389,0 0,4.879355 0,10.8884244 C0,16.8971049 4.87974389,21.7764599 10.8884244,21.7764599 C13.0510205,21.7764599 15.0627287,21.1398532 16.7578836,20.050583 L24.0129444,27.3180881 C24.9217714,28.227304 26.4088722,28.227304 27.3180881,27.3180881 C28.227304,26.4084833 28.227304,24.9217714 27.3180881,24.0125555 L20.0509719,16.7454393 C21.1367421,15.0522288 21.7764599,13.0471316 21.7764599,10.8880355 C21.7764599,4.879355 16.8974938,0 10.8884244,0" id="Fill-1" fill="#054279" mask="url(#mask-2)"></path>
        </g>
    </g>
</svg>