<?xml version="1.0" encoding="UTF-8"?>
<svg width="260px" height="59px" viewBox="0 0 260 59" version="1.1" xmlns="http://www.w3.org/2000/svg" xmlns:xlink="http://www.w3.org/1999/xlink">
    <!-- Generator: Sketch 46.2 (44496) - http://www.bohemiancoding.com/sketch -->
    <title>logo fundación</title>
    <desc>Created with Sketch.</desc>
    <defs>
        <polygon id="path-1" points="0.605097731 11.0383747 11.2493376 11.0383747 11.2493376 0.222260922 0.605097731 0.222260922 0.605097731 11.0383747"></polygon>
        <polygon id="path-3" points="0.216806666 11.0383747 10.8584492 11.0383747 10.8584492 0.222260922 0.216806666 0.222260922 0.216806666 11.0383747"></polygon>
        <polygon id="path-5" points="0.361928828 11.0383747 11.003961 11.0383747 11.003961 0.222260922 0.361928828 0.222260922 0.361928828 11.0383747"></polygon>
        <polygon id="path-7" points="57.1731321 0.371408844 0.00084411101 0.371408844 0.00084411101 57.5517484 57.1731321 57.5517484 57.1731321 0.371408844"></polygon>
    </defs>
    <g id="Visual-Desde-1969-1280" stroke="none" stroke-width="1" fill="none" fill-rule="evenodd">
        <g id="Desde-1969-1280-2" transform="translate(-872.000000, -12617.000000)">
            <g id="Años-90-Copy-5" transform="translate(0.000000, 12000.000000)">
                <g id="Group-Copy-2" transform="translate(459.000000, 617.000000)">
                    <g id="logo-fundación" transform="translate(413.000000, 0.000000)">
                        <path d="M70.3676261,24.7697233 L66.4042003,24.7697233 C66.0425312,24.7697233 65.9172132,24.6223286 65.9172132,24.2613088 L65.9172132,23.0120245 C65.9172132,22.6925609 66.0646079,22.5665936 66.3821235,22.5665936 L77.1302539,22.5665936 C77.6600959,22.5665936 77.80814,22.6925609 77.7672331,23.0970849 L77.619189,24.3268897 C77.5756848,24.6658328 77.3841366,24.7697233 76.9607824,24.7697233 L73.1226746,24.7697233 L73.1226746,36.707401 C73.1226746,37.0898482 72.9752798,37.2378923 72.6168573,37.2378923 L70.8974681,37.2378923 C70.5176182,37.2378923 70.3676261,37.0898482 70.3676261,36.707401 L70.3676261,24.7697233 Z" id="Fill-1" fill="#FFFFFF"></path>
                        <path d="M81.5844979,28.6932162 C79.6982344,28.6932162 79.0859293,30.3249478 79.0859293,32.0229095 C79.0859293,33.7611289 79.6164206,35.4779208 81.4968402,35.4779208 C83.3642735,35.4779208 84.0012526,33.8234632 84.0012526,32.0858932 C84.0012526,30.3470245 83.4512818,28.6932162 81.5844979,28.6932162 M81.4806073,37.4927489 C78.0229987,37.4927489 76.4347714,35.1578079 76.4347714,32.0631671 C76.4347714,29.0100825 78.2989581,26.6757909 81.6065746,26.6757909 C85.0641832,26.6757909 86.6556571,28.9691756 86.6556571,32.0858932 C86.6556571,35.1389778 84.7882238,37.4927489 81.4806073,37.4927489" id="Fill-3" fill="#FFFFFF"></path>
                        <path d="M104.062655,36.7075958 C104.062655,37.090043 103.912663,37.2374378 103.55424,37.2374378 L102.067306,37.2374378 C101.687456,37.2374378 101.517985,37.090043 101.517985,36.7075958 L101.517985,30.8988134 C101.517985,29.7534197 101.219948,28.8839853 99.9265107,28.8839853 C99.1233066,28.8839853 98.1882913,29.3079888 97.5318327,29.8378308 C97.5733889,30.029379 97.6168931,32.8694879 97.6168931,33.1675241 L97.6168931,36.7075958 C97.6168931,37.090043 97.4669011,37.2374378 97.1084785,37.2374378 L95.7092022,37.2374378 C95.3261057,37.2374378 95.1540369,37.090043 95.1540369,36.7075958 L95.1540369,30.8988134 C95.1540369,29.7748471 94.9215817,28.8839853 93.6287932,28.8839853 C92.8035124,28.8839853 91.9529082,29.351493 91.2750221,29.9443186 L91.2750221,36.7075958 C91.2750221,37.090043 91.1081479,37.2374378 90.7477774,37.2374378 L89.2608434,37.2374378 C88.8803441,37.2374378 88.7134699,37.090043 88.7134699,36.7075958 L88.7134699,27.4405555 C88.7134699,27.1042097 88.9024209,26.9542177 89.2192872,26.9542177 L90.5971361,26.9542177 C90.9140024,26.9542177 91.1081479,27.0607056 91.1276274,27.3561444 L91.1490548,27.8859864 C92.0184891,27.1236892 93.1612856,26.6782583 94.2657724,26.6782583 C95.5585609,26.6782583 96.4714994,27.2516045 96.9584865,28.0554579 C97.9123319,27.1425194 99.2927781,26.6782583 100.582969,26.6782583 C102.132887,26.6782583 103.105563,27.4405555 103.55424,28.2690829 C103.958764,29.0508596 104.062655,29.9884721 104.062655,31.3409977 L104.062655,36.7075958 Z" id="Fill-5" fill="#FFFFFF"></path>
                        <path d="M112.268517,22.1414214 C112.610058,21.8868894 112.799009,21.9089662 113.011984,22.2258325 L113.646366,23.1803272 C113.815838,23.4342099 113.793761,23.6257581 113.520399,23.7731529 L110.297843,25.5555258 C109.980327,25.7224 109.830335,25.7029205 109.619308,25.408131 L109.258937,24.8750424 C109.045961,24.5581761 109.045961,24.410132 109.365425,24.1971563 L112.268517,22.1414214 Z M113.222363,29.858544 C112.799009,29.2436416 111.929574,28.7754846 111.123124,28.7754846 C109.830335,28.7754846 108.728446,29.8825687 108.728446,32.1051779 C108.728446,33.890148 109.406332,35.3939642 110.975729,35.3939642 C112.013986,35.3939642 112.905497,34.6063437 113.222363,33.9505344 L113.222363,29.858544 Z M116.721528,36.8341475 C116.721528,37.0912767 116.552056,37.2360742 116.298174,37.2360742 L115.280695,37.2360742 C114.176208,37.2360742 113.689871,36.7081801 113.539879,35.9867899 L113.498972,35.9867899 C112.861992,36.8341475 111.631538,37.4932034 110.426408,37.4932034 C107.435657,37.4932034 106.077288,35.0329445 106.077288,32.2746494 C106.077288,28.6086103 108.283015,26.6788427 110.658213,26.6788427 C111.779582,26.6788427 112.842513,27.1872573 113.369758,27.9060503 L113.413911,27.3353014 C113.432741,27.1054434 113.605459,26.9522048 113.859342,26.9522048 L115.343679,26.9522048 C115.619638,26.9522048 115.78911,27.1054434 115.78911,27.4223097 L115.78911,34.9076264 C115.78911,35.2874764 115.87417,35.4757781 116.16896,35.4757781 L116.341678,35.4757781 C116.59556,35.4757781 116.721528,35.5608385 116.721528,35.8361485 L116.721528,36.8341475 Z" id="Fill-7" fill="#FFFFFF"></path>
                        <path d="M121.322192,37.4919697 C120.220952,37.4919697 119.012575,37.1751034 118.058729,36.7510999 C117.828871,36.6420148 117.741214,36.4972173 117.828871,36.2615156 L118.208721,35.0953437 C118.293133,34.8408118 118.460007,34.7778281 118.714539,34.884316 C119.712538,35.3083194 120.644306,35.5401253 121.387773,35.5401253 C122.322789,35.5401253 122.954573,35.1193684 122.954573,34.4168083 C122.954573,33.8239827 122.555244,33.5064671 121.685809,33.1681734 L120.009924,32.5305449 C118.802196,32.085114 117.828871,31.152696 117.828871,29.7099155 C117.828871,27.6321038 119.778119,26.6782583 121.663733,26.6782583 C122.680562,26.6782583 123.697391,26.8477299 124.736297,27.3126402 C125.012906,27.4412048 125.012906,27.5691201 124.949273,27.823652 L124.588902,28.9690458 C124.503842,29.2229284 124.290866,29.2450051 124.07789,29.1599447 C123.359097,28.8839853 122.467586,28.6489329 121.792297,28.6489329 C120.898838,28.6489329 120.452758,29.1385173 120.452758,29.6281017 C120.452758,30.0923627 120.685213,30.3878016 121.491664,30.7079144 L123.402601,31.4922884 C124.525918,31.9571987 125.414183,32.8259837 125.414183,34.2064299 C125.414183,36.4316364 123.487013,37.4919697 121.322192,37.4919697" id="Fill-9" fill="#FFFFFF"></path>
                        <path d="M136.461583,24.6866758 L135.360343,24.6866758 L135.360343,29.9870436 L135.934338,29.9870436 C137.164143,29.9870436 138.180972,29.9026325 138.836782,29.2026697 C139.241306,28.7572388 139.47441,28.1202597 139.47441,27.2917322 C139.47441,25.3645619 138.285512,24.6866758 136.461583,24.6866758 M140.554223,30.9194616 C139.47441,31.7447425 138.074484,32.0836855 136.314188,32.0836855 L135.360343,32.0836855 L135.360343,36.7275947 C135.360343,37.0483569 135.234376,37.2399052 134.832449,37.2399052 L133.135136,37.2399052 C132.795544,37.2399052 132.626722,37.0886145 132.626722,36.6685069 L132.626722,23.1400047 C132.626722,22.7127547 132.755286,22.5653599 133.156564,22.5653599 L136.229777,22.5653599 C138.479008,22.5653599 140.130219,22.9893634 141.171723,24.1782612 C141.849609,24.9626352 142.229459,26.0424479 142.229459,27.1878417 C142.229459,28.8637267 141.592479,30.0941808 140.554223,30.9194616" id="Fill-11" fill="#FFFFFF"></path>
                        <path d="M150.054108,29.8577648 C149.630104,29.2428624 148.76067,28.7753547 147.957466,28.7753547 C146.661431,28.7753547 145.559541,29.8824388 145.559541,32.1076453 C145.559541,33.8893688 146.240674,35.3931851 147.806825,35.3931851 C148.845731,35.3931851 149.736592,34.6062139 150.054108,33.9497552 L150.054108,29.8577648 Z M153.552623,36.8340176 C153.552623,37.0879002 153.383152,37.2359443 153.12862,37.2359443 L152.11244,37.2359443 C151.010551,37.2359443 150.524213,36.7080503 150.373571,35.9892573 L150.332665,35.9892573 C149.692439,36.8340176 148.462634,37.4924242 147.256854,37.4924242 C144.266753,37.4924242 142.910981,35.0321653 142.910981,32.2745195 C142.910981,28.6084805 145.11476,26.6761156 147.489958,26.6761156 C148.615873,26.6761156 149.673609,27.1871274 150.2041,27.9059204 L150.245007,27.3345222 C150.269681,27.1053136 150.436555,26.9546722 150.690438,26.9546722 L152.175424,26.9546722 C152.450734,26.9546722 152.620205,27.1053136 152.620205,27.4221799 L152.620205,34.90425 C152.620205,35.2866972 152.702669,35.4782455 153.003302,35.4782455 L153.170176,35.4782455 C153.426656,35.4782455 153.552623,35.5600593 153.552623,35.836668 L153.552623,36.8340176 Z" id="Fill-13" fill="#FFFFFF"></path>
                        <path d="M158.155301,37.4919697 C157.054061,37.4919697 155.845034,37.1751034 154.888591,36.7510999 C154.658733,36.6420148 154.571076,36.4972173 154.658733,36.2615156 L155.039233,35.0953437 C155.123644,34.8408118 155.293115,34.7778281 155.546998,34.884316 C156.543049,35.3083194 157.477415,35.5401253 158.218285,35.5401253 C159.1533,35.5401253 159.787682,35.1193684 159.787682,34.4168083 C159.787682,33.8239827 159.385755,33.5064671 158.516321,33.1681734 L156.843033,32.5305449 C155.632058,32.085114 154.658733,31.152696 154.658733,29.7099155 C154.658733,27.6321038 156.607981,26.6782583 158.496841,26.6782583 C159.51367,26.6782583 160.5305,26.8477299 161.569405,27.3126402 C161.846014,27.4412048 161.846014,27.5691201 161.779784,27.823652 L161.421361,28.9690458 C161.33695,29.2229284 161.123975,29.2450051 160.913596,29.1599447 C160.192206,28.8839853 159.300695,28.6489329 158.622809,28.6489329 C157.731947,28.6489329 157.285867,29.1385173 157.285867,29.6281017 C157.285867,30.0923627 157.520919,30.3878016 158.324773,30.7079144 L160.232463,31.4922884 C161.359027,31.9571987 162.250538,32.8259837 162.250538,34.2064299 C162.250538,36.4316364 160.317524,37.4919697 158.155301,37.4919697" id="Fill-15" fill="#FFFFFF"></path>
                        <path d="M171.049032,35.0316458 C171.280838,34.9465854 171.450958,34.9907389 171.513942,35.2011173 L171.811978,36.2393739 C171.893792,36.5594867 171.874313,36.7068815 171.554849,36.8549256 C170.540617,37.3217839 169.602355,37.4912554 168.482285,37.4912554 C165.218822,37.4912554 163.414372,35.4575972 163.414372,32.1915369 C163.414372,28.9053478 165.385047,26.6775441 168.673833,26.6775441 C169.627679,26.6775441 170.62308,26.8690924 171.513942,27.2736163 C171.789902,27.3995837 171.789902,27.5469784 171.726918,27.8229378 L171.450958,28.9683315 C171.385378,29.203384 171.237333,29.2851978 170.961374,29.1598798 C170.346472,28.8839204 169.668586,28.6923721 168.925119,28.6923721 C167.104436,28.6923721 166.06553,29.9877579 166.06553,32.0629723 C166.06553,34.0992278 166.997948,35.4991535 168.821228,35.4991535 C169.734816,35.4991535 170.304915,35.3290326 171.049032,35.0316458" id="Fill-17" fill="#FFFFFF"></path>
                        <path d="M182.751332,36.6429239 C182.751332,37.090952 182.626014,37.2389961 182.201361,37.2389961 L180.843641,37.2389961 C180.570279,37.2389961 180.356654,37.090952 180.334578,36.8123954 L180.315747,36.2819041 C179.337228,37.066278 178.172355,37.493528 176.94255,37.493528 C174.567351,37.493528 173.593377,35.9864652 173.593377,33.6963271 L173.593377,27.4421139 C173.593377,27.0810941 173.807651,26.9525295 174.145945,26.9525295 L175.630282,26.9525295 C175.969874,26.9525295 176.158176,27.0616146 176.158176,27.4421139 L176.158176,33.2502469 C176.158176,34.4177174 176.456212,35.2241681 177.726924,35.2241681 C178.533375,35.2241681 179.550204,34.7787372 180.187183,34.207339 L180.187183,27.4421139 C180.187183,27.0810941 180.376134,26.9525295 180.717674,26.9525295 L182.22149,26.9525295 C182.562381,26.9525295 182.751332,27.0616146 182.751332,27.4421139 L182.751332,36.6429239 Z" id="Fill-19" fill="#FFFFFF"></path>
                        <path d="M191.891236,29.8577648 C191.467233,29.2428624 190.597799,28.7753547 189.794595,28.7753547 C188.498559,28.7753547 187.39667,29.8824388 187.39667,32.1076453 C187.39667,33.8893688 188.077803,35.3931851 189.643953,35.3931851 C190.682859,35.3931851 191.573721,34.6062139 191.891236,33.9497552 L191.891236,29.8577648 Z M195.390401,36.8340176 C195.390401,37.0879002 195.22028,37.2359443 194.965748,37.2359443 L193.946322,37.2359443 C192.847679,37.2359443 192.358744,36.7080503 192.208103,35.9892573 L192.169793,35.9892573 C191.530217,36.8340176 190.300412,37.4924242 189.094632,37.4924242 C186.103881,37.4924242 184.748109,35.0321653 184.748109,32.2745195 C184.748109,28.6084805 186.953836,26.6761156 189.327087,26.6761156 C190.450404,26.6761156 191.510737,27.1871274 192.041228,27.9059204 L192.082135,27.3345222 C192.104212,27.1053136 192.273684,26.9546722 192.527566,26.9546722 L194.012552,26.9546722 C194.287862,26.9546722 194.457334,27.1053136 194.457334,27.4221799 L194.457334,34.90425 C194.457334,35.2866972 194.542394,35.4782455 194.84043,35.4782455 L195.007305,35.4782455 C195.261187,35.4782455 195.390401,35.5600593 195.390401,35.836668 L195.390401,36.8340176 Z" id="Fill-21" fill="#FFFFFF"></path>
                        <path d="M199.802829,36.7075958 C199.802829,37.0686155 199.632708,37.2374378 199.334672,37.2374378 L197.725017,37.2374378 C197.426981,37.2374378 197.236082,37.090043 197.236082,36.7290232 L197.236082,22.8836547 C197.236082,22.5447116 197.320494,22.3505661 197.659437,22.3122565 L199.376228,22.0804506 C199.611281,22.05253 199.802829,22.1181109 199.802829,22.457054 L199.802829,36.7075958 Z" id="Fill-23" fill="#FFFFFF"></path>
                        <path d="M216.552524,26.9535684 C216.86939,26.9535684 216.975878,27.1444673 216.85056,27.4645802 L212.673509,38.4451658 C211.719664,40.9677591 210.532714,41.8599195 207.988693,41.8599195 C207.586117,41.8599195 207.159516,41.84044 206.86213,41.7553796 C206.523187,41.6488918 206.523187,41.476823 206.566691,41.2034609 L206.714735,40.0996234 C206.754992,39.8230147 206.86213,39.7191241 207.096533,39.7191241 C207.30756,39.7191241 207.690657,39.7821078 207.947137,39.7821078 C209.256808,39.7821078 209.811324,39.3178467 210.235327,38.3191985 L210.637254,37.3660024 L206.777069,27.421076 C206.675776,27.1665441 206.754992,26.9535684 207.053029,26.9535684 L209.048377,26.9535684 C209.409397,26.9535684 209.557441,27.1035604 209.641852,27.3801691 L211.973546,34.3310986 L214.198753,27.4425035 C214.305241,27.1035604 214.475362,26.9535684 214.833135,26.9535684 L216.552524,26.9535684 Z" id="Fill-25" fill="#FFFFFF"></path>
                        <path d="M73.9947062,45.2583754 L72.8928167,45.2583754 L72.8928167,50.5587432 L73.4642149,50.5587432 C74.6914224,50.5587432 75.7114981,50.4743321 76.3647102,49.7743693 C76.7692342,49.3289384 77.0042866,48.6919592 77.0042866,47.8666784 C77.0042866,45.9369108 75.817986,45.2583754 73.9947062,45.2583754 M78.0866967,51.4944078 C77.0042866,52.3196886 75.6076075,52.6579823 73.8440649,52.6579823 L72.8928167,52.6579823 L72.8928167,57.2999436 C72.8928167,57.6194071 72.7642521,57.8109554 72.3597281,57.8109554 L70.6624157,57.8109554 C70.3234726,57.8109554 70.1565984,57.6609634 70.1565984,57.2395572 L70.1565984,43.7117043 C70.1565984,43.2877008 70.2825657,43.1370595 70.6870897,43.1370595 L73.762251,43.1370595 C76.0095342,43.1370595 77.6600959,43.5610629 78.6990018,44.7506101 C79.3820824,45.534984 79.7593351,46.6173941 79.7593351,47.7601905 C79.7593351,49.4360755 79.1256025,50.6658804 78.0866967,51.4944078" id="Fill-27" fill="#FFFFFF"></path>
                        <path d="M84.1320249,57.2789707 C84.1320249,57.6620672 83.9625534,57.809462 83.5989363,57.809462 L82.1145996,57.809462 C81.7347496,57.809462 81.5678754,57.6620672 81.5678754,57.2789707 L81.5678754,48.015177 C81.5678754,47.6548065 81.7756566,47.5281899 82.1145996,47.5281899 L83.5989363,47.5281899 C83.9404766,47.5281899 84.1320249,47.6327298 84.1320249,48.015177 L84.1320249,57.2789707 Z M82.8359899,46.1678725 C82.1366763,46.1678725 81.3958066,45.7029621 81.3958066,44.8582018 C81.3958066,44.008247 82.0951201,43.4991831 82.8359899,43.4991831 C83.5547828,43.4991831 84.2547457,43.9887675 84.2547457,44.8361251 C84.2547457,45.6614059 83.5359527,46.1678725 82.8359899,46.1678725 L82.8359899,46.1678725 Z" id="Fill-29" fill="#FFFFFF"></path>
                        <path d="M89.4949219,57.2789707 C89.4949219,57.6399905 89.3254504,57.809462 89.0274142,57.809462 L87.4145129,57.809462 C87.1197234,57.809462 86.9307724,57.6620672 86.9307724,57.3010474 L86.9307724,43.4556789 C86.9307724,43.1160866 87.0132355,42.9258369 87.3547758,42.8842807 L89.0683212,42.6524748 C89.3040229,42.6278008 89.4949219,42.6927324 89.4949219,43.0323248 L89.4949219,57.2789707 Z" id="Fill-31" fill="#FFFFFF"></path>
                        <g id="Group-35" transform="translate(90.904263, 47.028736)">
                            <mask id="mask-2" fill="white">
                                <use xlink:href="#path-1"></use>
                            </mask>
                            <g id="Clip-34"></g>
                            <path d="M7.75017277,3.4032608 C7.32681863,2.78835839 6.45738429,2.32085076 5.65353089,2.32085076 C4.35749583,2.32085076 3.25625562,3.42533755 3.25625562,5.6531413 C3.25625562,7.42967031 3.93414169,8.93608381 5.50353885,8.93608381 C6.5417954,8.93608381 7.43330649,8.15170989 7.75017277,7.49590056 L7.75017277,3.4032608 Z M11.2493376,10.3795136 C11.2493376,10.6340456 11.0792167,10.7814403 10.8253341,10.7814403 L9.808505,10.7814403 C8.70401821,10.7814403 8.21768041,10.250949 8.07028564,9.52955878 L8.02613214,9.52955878 C7.38915299,10.3795136 6.16194544,11.0385695 4.95356806,11.0385695 C1.96022056,11.0385695 0.605097731,8.5783106 0.605097731,5.82001555 C0.605097731,2.15137924 2.81082473,0.222260922 5.18602325,0.222260922 C6.31258679,0.222260922 7.37032282,0.733272741 7.90016481,1.45141642 L7.93912378,0.880018194 C7.96055121,0.645615059 8.13261999,0.500168239 8.38715193,0.500168239 L9.86889141,0.500168239 C10.147448,0.500168239 10.3169196,0.645615059 10.3169196,0.965078611 L10.3169196,8.44714874 C10.3169196,8.83219322 10.4013307,9.02049491 10.6967695,9.02049491 L10.866241,9.02049491 C11.1233702,9.02049491 11.2493376,9.10555533 11.2493376,9.3815147 L11.2493376,10.3795136 Z" id="Fill-33" fill="#FFFFFF" mask="url(#mask-2)"></path>
                        </g>
                        <path d="M109.703913,47.3991058 C109.785727,47.4841662 109.807804,47.5906541 109.785727,47.7607749 L109.553272,49.2665391 C109.512365,49.5424985 109.36497,49.6048328 109.132515,49.5613286 C109.003951,49.5424985 108.856556,49.521071 108.602024,49.521071 C107.880634,49.521071 107.09561,49.9028689 106.563171,50.5372508 L106.563171,57.2784512 C106.563171,57.6199915 106.417724,57.8115398 106.054757,57.8115398 L104.507436,57.8115398 C104.17109,57.8115398 104.001619,57.639471 104.001619,57.2784512 L104.001619,48.0581617 C104.001619,47.631561 104.211997,47.5276704 104.529513,47.5276704 L105.887882,47.5276704 C106.224228,47.5276704 106.417724,47.631561 106.417724,47.9295971 L106.437204,48.6074832 C107.09561,47.7822024 107.81765,47.2491138 109.003951,47.2491138 C109.299389,47.2491138 109.600023,47.2958645 109.703913,47.3991058" id="Fill-36" fill="#FFFFFF"></path>
                        <path d="M128.192931,56.2840884 C128.192931,56.7074426 128.086444,56.8769141 127.684517,57.0905391 C126.514449,57.6833648 124.546372,58.0664613 122.93347,58.0664613 C118.523964,58.0664613 116.022799,55.0101301 116.022799,50.516213 C116.022799,46.0852795 118.882387,42.8646713 123.20943,42.8646713 C124.567799,42.8646713 125.817084,43.0951786 127.088445,43.6685247 C127.474138,43.8412428 127.429985,44.0516213 127.323497,44.3055039 L126.815083,45.6177719 C126.708595,45.8963285 126.514449,45.9151587 126.221608,45.7898406 C125.519047,45.4918045 124.313917,45.1749382 123.335397,45.1749382 C122.192601,45.1749382 121.088114,45.5982924 120.344647,46.3833156 C119.453785,47.3176816 118.947968,48.6929332 118.947968,50.4311526 C118.947968,53.7173417 120.497886,55.7730766 123.039958,55.7730766 C123.909393,55.7730766 124.863238,55.6477586 125.434636,55.4146541 L125.434636,51.3635706 L123.548373,51.3635706 C123.250337,51.3635706 123.080865,51.2570827 123.080865,50.8960629 L123.080865,49.6058717 C123.080865,49.2669287 123.250337,49.1818683 123.57045,49.1818683 L127.684517,49.1818683 C128.04229,49.1818683 128.192931,49.2890054 128.192931,49.6688554 L128.192931,56.2840884 Z" id="Fill-38" fill="#FFFFFF"></path>
                        <path d="M136.07985,42.7143546 C136.42139,42.4598227 136.609692,42.4799515 136.823317,42.7994151 L137.460296,43.7532605 C137.632365,44.0071431 137.605094,44.1986914 137.331732,44.3467355 L134.109176,46.1258618 C133.79166,46.2985799 133.644265,46.2758538 133.43064,45.9810642 L133.06962,45.4479757 C132.856645,45.1311094 132.856645,44.9830653 133.176758,44.7700896 L136.07985,42.7143546 Z M135.383134,49.2672533 C133.493624,49.2672533 132.878721,50.8963876 132.878721,52.5937 C132.878721,54.3325687 133.409213,56.0513086 135.298074,56.0513086 C137.16226,56.0513086 137.79859,54.3975003 137.79859,52.6586317 C137.79859,50.9210616 137.244074,49.2672533 135.383134,49.2672533 L135.383134,49.2672533 Z M135.273399,58.066786 C131.818388,58.066786 130.226914,55.7344423 130.226914,52.6372042 C130.226914,49.5841196 132.093698,47.2491787 135.404561,47.2491787 C138.856975,47.2491787 140.448449,49.5406154 140.448449,52.6586317 C140.448449,55.7130149 138.582964,58.066786 135.273399,58.066786 L135.273399,58.066786 Z" id="Fill-40" fill="#FFFFFF"></path>
                        <path d="M157.856681,57.2789707 C157.856681,57.6620672 157.706688,57.809462 157.345669,57.809462 L155.864579,57.809462 C155.481482,57.809462 155.31201,57.6620672 155.31201,57.2789707 L155.31201,51.4708376 C155.31201,50.3247946 155.013974,49.4553602 153.721186,49.4553602 C152.917332,49.4553602 151.984914,49.881961 151.325859,50.409855 C151.370012,50.6014033 151.410919,53.4415122 151.410919,53.7395483 L151.410919,57.2789707 C151.410919,57.6620672 151.260927,57.809462 150.902504,57.809462 L149.503228,57.809462 C149.123378,57.809462 148.953907,57.6620672 148.953907,57.2789707 L148.953907,51.4708376 C148.953907,50.3468713 148.718854,49.4553602 147.422819,49.4553602 C146.597538,49.4553602 145.749531,49.9235172 145.072295,50.5163428 L145.072295,57.2789707 C145.072295,57.6620672 144.902823,57.809462 144.541803,57.809462 L143.05422,57.809462 C142.677617,57.809462 142.504899,57.6620672 142.504899,57.2789707 L142.504899,48.015177 C142.504899,47.6736367 142.696447,47.5281899 143.01656,47.5281899 L144.394409,47.5281899 C144.711275,47.5281899 144.902823,47.6327298 144.921653,47.9307659 L144.946327,48.4606079 C145.815762,47.6983107 146.957909,47.2502826 148.059798,47.2502826 C149.355184,47.2502826 150.266175,47.8236287 150.752512,48.6274821 C151.706358,47.7171409 153.083557,47.2502826 154.380242,47.2502826 C155.926913,47.2502826 156.899588,48.015177 157.345669,48.8411071 C157.750193,49.6254811 157.856681,50.559847 157.856681,51.9156192 L157.856681,57.2789707 Z" id="Fill-42" fill="#FFFFFF"></path>
                        <path d="M166.99587,51.57778 L166.99587,51.3427275 C166.955613,50.240838 166.317984,49.2214116 165.025196,49.2214116 C163.647347,49.2214116 162.822066,50.3252491 162.652595,51.57778 L166.99587,51.57778 Z M168.248401,55.5002989 C168.586695,55.3717343 168.71526,55.4567947 168.775646,55.6886006 L169.076279,56.7716599 C169.158093,57.0476193 169.114589,57.2391676 168.775646,57.385913 C167.739987,57.8508234 166.317984,58.0644484 165.216744,58.0644484 C161.887051,58.0644484 159.913779,55.9463791 159.913779,52.6381133 C159.913779,49.4564641 162.012369,47.2507371 165.172591,47.2507371 C166.466028,47.2507371 167.526362,47.7396721 168.267231,48.5240461 C169.245751,49.5408752 169.519113,50.8778172 169.519113,52.3186497 L169.519113,52.6381133 C169.519113,53.1439306 169.349642,53.2504184 168.8198,53.2504184 L162.605844,53.2504184 C162.778562,54.8853965 163.96746,56.0087135 165.637501,56.0087135 C166.528363,56.0087135 167.419874,55.8171652 168.248401,55.5002989 L168.248401,55.5002989 Z" id="Fill-44" fill="#FFFFFF"></path>
                        <path d="M178.721611,57.4077301 C178.721611,57.662262 178.573567,57.8096568 178.319685,57.8096568 L171.133053,57.8096568 C170.750606,57.8096568 170.622041,57.5992783 170.622041,57.3012422 L170.622041,56.7733482 C170.622041,56.4753121 170.646715,56.3279173 170.835017,56.0493607 L175.416592,49.3081603 L175.416592,49.2860835 L171.494073,49.2860835 C171.089549,49.2860835 171.001891,49.1828422 171.001891,48.7348141 L171.001891,47.9718676 C171.001891,47.6985055 171.133053,47.5283847 171.406415,47.5283847 L178.106709,47.5283847 C178.511233,47.5283847 178.596293,47.7387631 178.596293,47.9718676 L178.596293,48.5679398 C178.596293,48.8211731 178.554737,49.0347982 178.385265,49.2672533 L173.71928,56.0084537 L173.71928,56.0493607 L178.298257,56.0493607 C178.554737,56.0493607 178.721611,56.1370183 178.721611,56.4129777 L178.721611,57.4077301 Z" id="Fill-46" fill="#FFFFFF"></path>
                        <path d="M184.574352,52.8694646 C184.574352,53.2713913 184.448385,53.4441094 184.047108,53.4441094 L180.484959,53.4441094 C180.083032,53.4441094 179.976545,53.233731 179.976545,52.8915414 L179.976545,51.5110952 C179.976545,51.1526727 180.083032,51.0052779 180.462882,51.0052779 L184.024382,51.0052779 C184.448385,51.0052779 184.574352,51.1526727 184.574352,51.5357692 L184.574352,52.8694646 Z" id="Fill-48" fill="#FFFFFF"></path>
                        <path d="M197.424968,56.5383607 C197.552884,56.8552269 197.465226,57.0467752 197.126932,57.1974166 C195.732851,57.7655682 194.458892,58.0668509 192.908975,58.0668509 C188.436485,58.0668509 186.252835,54.9059798 186.252835,50.53803 C186.252835,46.1915076 188.857891,42.8644116 193.119353,42.8644116 C194.581613,42.8644116 195.899076,43.1598505 197.107453,43.7539747 C197.446396,43.9227969 197.50938,44.0292848 197.384062,44.3903046 L196.894477,45.7246493 C196.809417,45.9785319 196.637348,46.062943 196.366583,45.9155482 C195.303003,45.3662268 194.349807,45.1532511 193.291422,45.1532511 C190.342228,45.1532511 189.196834,47.8673926 189.196834,50.4315422 C189.196834,53.6982518 190.722078,55.7754142 193.334926,55.7754142 C194.349807,55.7754142 195.390661,55.5436083 196.383465,55.0975281 C196.662022,54.9689635 196.831494,54.9689635 196.956812,55.2858298 L197.424968,56.5383607 Z" id="Fill-50" fill="#FFFFFF"></path>
                        <path d="M208.452565,57.2149481 C208.452565,57.6629762 208.324,57.8110203 207.902594,57.8110203 L206.544874,57.8110203 C206.268914,57.8110203 206.055289,57.6629762 206.033213,57.3844196 L206.014382,56.8539283 C205.03846,57.6383022 203.87099,58.0655523 202.643782,58.0655523 C200.268584,58.0655523 199.292661,56.5584895 199.292661,54.2683514 L199.292661,48.0134888 C199.292661,47.652469 199.50304,47.527151 199.841983,47.527151 L201.328917,47.527151 C201.66786,47.527151 201.856811,47.6336388 201.856811,48.0134888 L201.856811,53.8222711 C201.856811,54.9897416 202.154847,55.7961923 203.425559,55.7961923 C204.23201,55.7961923 205.248189,55.3507614 205.885818,54.7793632 L205.885818,48.0134888 C205.885818,47.652469 206.077366,47.527151 206.41566,47.527151 L207.919476,47.527151 C208.261016,47.527151 208.452565,47.6336388 208.452565,48.0134888 L208.452565,57.2149481 Z" id="Fill-52" fill="#FFFFFF"></path>
                        <path d="M216.595639,42.7143546 C216.934582,42.4598227 217.122883,42.4799515 217.337158,42.7994151 L217.973487,43.7532605 C218.142959,44.0071431 218.121532,44.1986914 217.844923,44.3467355 L214.622367,46.1258618 C214.302254,46.2985799 214.157456,46.2758538 213.944481,45.9810642 L213.583461,45.4479757 C213.373082,45.1311094 213.373082,44.9830653 213.689949,44.7700896 L216.595639,42.7143546 Z M217.568963,51.5762216 L217.568963,51.3418185 C217.528057,50.239929 216.891077,49.2205026 215.598289,49.2205026 C214.22044,49.2205026 213.39451,50.3249894 213.22309,51.5762216 L217.568963,51.5762216 Z M218.818248,55.4993899 C219.159788,55.3734225 219.285755,55.4558857 219.351336,55.6876915 L219.646126,56.7701016 C219.73703,57.0467103 219.690279,57.2376092 219.351336,57.3856533 C218.31308,57.8525116 216.891077,58.066786 215.789188,58.066786 C212.456897,58.066786 210.489469,55.9448207 210.489469,52.6372042 C210.489469,49.4581523 212.585462,47.2491787 215.745684,47.2491787 C217.039122,47.2491787 218.098805,47.7387631 218.842922,48.523137 C219.816247,49.5406154 220.094803,50.8769081 220.094803,52.3177407 L220.094803,52.6372042 C220.094803,53.1456188 219.925332,53.2521066 219.392243,53.2521066 L213.181534,53.2521066 C213.351006,54.8844875 214.534709,56.0078044 216.213191,56.0078044 C217.101456,56.0078044 217.994915,55.8169055 218.818248,55.4993899 L218.818248,55.4993899 Z" id="Fill-54" fill="#FFFFFF"></path>
                        <path d="M225.074799,47.5278003 L227.472074,47.5278003 C227.723359,47.5278003 227.876598,47.6122114 227.876598,47.8914173 L227.876598,48.8835724 C227.876598,49.137455 227.704529,49.2880964 227.449997,49.2880964 L225.074799,49.2880964 L225.074799,54.1430333 C225.074799,54.7800125 225.118303,55.2475201 225.350758,55.5832166 C225.542306,55.8591759 225.837745,56.0292968 226.348757,56.0292968 C226.878599,56.0292968 227.324679,55.9059267 227.704529,55.7747648 C227.917505,55.7117812 228.127883,55.6871072 228.190867,55.9851433 L228.404492,57.0487232 C228.467476,57.3220853 228.360988,57.4701293 228.109053,57.5766172 C227.449997,57.8519272 226.580563,58.0655523 225.733855,58.0655523 C224.654042,58.0655523 223.716429,57.7895929 223.189184,57.1740412 C222.532726,56.4305742 222.510649,55.5617891 222.510649,54.017066 L222.510649,49.2880964 L221.515897,49.2880964 C221.111373,49.2880964 221.048389,49.2004387 221.048389,48.7550078 L221.048389,47.9511544 C221.048389,47.6972718 221.173707,47.5278003 221.428239,47.5278003 L222.510649,47.5278003 L222.510649,45.3025938 C222.510649,44.9610535 222.595709,44.7695052 222.93725,44.727949 L224.654042,44.4961431 C224.886497,44.4740664 225.074799,44.5396473 225.074799,44.8759931 L225.074799,47.5278003 Z" id="Fill-56" fill="#FFFFFF"></path>
                        <g id="Group-60" transform="translate(229.208605, 47.028736)">
                            <mask id="mask-4" fill="white">
                                <use xlink:href="#path-3"></use>
                            </mask>
                            <g id="Clip-59"></g>
                            <path d="M7.35668718,3.4032608 C6.93593031,2.78835839 6.06649597,2.32085076 5.26004529,2.32085076 C3.9666075,2.32085076 2.86536729,3.42533755 2.86536729,5.6531413 C2.86536729,7.42967031 3.54325336,8.93608381 5.11524779,8.93608381 C6.15155638,8.93608381 7.04241816,8.15170989 7.35668718,7.49590056 L7.35668718,3.4032608 Z M10.8584492,10.3795136 C10.8584492,10.6340456 10.6889777,10.7814403 10.4344458,10.7814403 L9.41501941,10.7814403 C8.3137792,10.7814403 7.8274414,10.250949 7.67939731,9.52955878 L7.63589313,9.52955878 C6.99826466,10.3795136 5.77170643,11.0385695 4.56008247,11.0385695 C1.57257881,11.0385695 0.216806666,8.5783106 0.216806666,5.82001555 C0.216806666,2.15137924 2.41928709,0.222260922 4.79578424,0.222260922 C5.9191012,0.222260922 6.97683722,0.733272741 7.50667921,1.45141642 L7.55083271,0.880018194 C7.57290946,0.645615059 7.7391344,0.500168239 7.99301702,0.500168239 L9.48060034,0.500168239 C9.75655971,0.500168239 9.92343396,0.645615059 9.92343396,0.965078611 L9.92343396,8.44714874 C9.92343396,8.83219322 10.0084944,9.02049491 10.3058812,9.02049491 L10.4785993,9.02049491 C10.7324819,9.02049491 10.8584492,9.10555533 10.8584492,9.3815147 L10.8584492,10.3795136 Z" id="Fill-58" fill="#FFFFFF" mask="url(#mask-4)"></path>
                        </g>
                        <path d="M247.618277,47.3991058 C247.70009,47.4841662 247.722167,47.5906541 247.70009,47.7607749 L247.468285,49.2665391 C247.426728,49.5424985 247.279334,49.6048328 247.043632,49.5613286 C246.918314,49.5424985 246.765724,49.521071 246.51379,49.521071 C245.79175,49.521071 245.007376,49.9028689 244.476885,50.5372508 L244.476885,57.2784512 C244.476885,57.6199915 244.33014,57.8115398 243.96912,57.8115398 L242.421799,57.8115398 C242.082856,57.8115398 241.913385,57.639471 241.913385,57.2784512 L241.913385,48.0581617 C241.913385,47.631561 242.12636,47.5276704 242.443227,47.5276704 L243.798999,47.5276704 C244.138591,47.5276704 244.33014,47.631561 244.33014,47.9295971 L244.351567,48.6074832 C245.007376,47.7822024 245.729416,47.2491138 246.918314,47.2491138 C247.213753,47.2491138 247.511789,47.2958645 247.618277,47.3991058" id="Fill-61" fill="#FFFFFF"></path>
                        <g id="Group-65" transform="translate(248.038774, 47.028736)">
                            <mask id="mask-6" fill="white">
                                <use xlink:href="#path-5"></use>
                            </mask>
                            <g id="Clip-64"></g>
                            <path d="M7.50505592,3.4032608 C7.08429905,2.78835839 6.21226744,2.32085076 5.40841404,2.32085076 C4.11237898,2.32085076 3.01113877,3.42533755 3.01113877,5.6531413 C3.01113877,7.42967031 3.68902484,8.93608381 5.25777269,8.93608381 C6.29992513,8.93608381 7.18818963,8.15170989 7.50505592,7.49590056 L7.50505592,3.4032608 Z M11.0042207,10.3795136 C11.0042207,10.6340456 10.8315026,10.7814403 10.5802173,10.7814403 L9.56079089,10.7814403 C8.45955068,10.7814403 7.97256356,10.250949 7.82451947,9.52955878 L7.78101529,9.52955878 C7.14403614,10.3795136 5.91682859,11.0385695 4.70845121,11.0385695 C1.71835029,11.0385695 0.361928828,8.5783106 0.361928828,5.82001555 C0.361928828,2.15137924 2.56765583,0.222260922 4.9409064,0.222260922 C6.06746994,0.222260922 7.12520597,0.733272741 7.65504795,1.45141642 L7.69660419,0.880018194 C7.71803162,0.645615059 7.88750314,0.500168239 8.14138576,0.500168239 L9.62377456,0.500168239 C9.89973392,0.500168239 10.0692054,0.645615059 10.0692054,0.965078611 L10.0692054,8.44714874 C10.0692054,8.83219322 10.1536165,9.02049491 10.4516527,9.02049491 L10.6185269,9.02049491 C10.8782534,9.02049491 11.0042207,9.10555533 11.0042207,9.3815147 L11.0042207,10.3795136 Z" id="Fill-63" fill="#FFFFFF" mask="url(#mask-6)"></path>
                        </g>
                        <path d="M71.6872314,6.06415843 L71.6872314,9.81720584 L75.732471,9.81720584 C75.9564851,9.81720584 76.0577784,9.88603335 76.0577784,10.0905679 L76.0577784,10.7768951 C76.0577784,10.9788325 75.9564851,11.04766 75.732471,11.04766 L71.6872314,11.04766 L71.6872314,16.2772523 C71.6872314,16.5012664 71.585938,16.6181433 71.361924,16.6181433 L70.4353498,16.6181433 C70.1944535,16.6181433 70.0931602,16.531135 70.0931602,16.2772523 L70.0931602,5.20576246 C70.0931602,4.91616745 70.2301659,4.81487413 70.45418,4.81487413 L76.451264,4.81487413 C76.6895631,4.81487413 76.7765714,4.91616745 76.7441056,5.10446914 L76.640215,5.79079632 C76.6045026,6.01221313 76.5012614,6.06415843 76.2629623,6.06415843 L71.6872314,6.06415843 Z" id="Fill-66" fill="#FFFFFF"></path>
                        <path d="M83.0644842,8.68395434 C83.0644842,8.44630463 83.1846077,8.34241404 83.4060245,8.34241404 L84.1929957,8.34241404 C84.4202564,8.34241404 84.5215497,8.44630463 84.5215497,8.68395434 L84.5215497,16.2751096 C84.5215497,16.5153566 84.433892,16.6192472 84.1929957,16.6192472 L83.4391396,16.6192472 C83.2339557,16.6192472 83.1164295,16.5315895 83.1164295,16.310822 L83.09695,15.7608512 C82.3125761,16.4335427 81.3860019,16.7913159 80.3906003,16.7913159 C78.4199257,16.7913159 77.7011327,15.5232015 77.7011327,13.6914806 L77.7011327,8.68395434 C77.7011327,8.44630463 77.8212562,8.34241404 78.0452703,8.34241404 L78.8328908,8.34241404 C79.0569049,8.34241404 79.1581982,8.44630463 79.1581982,8.68395434 L79.1581982,13.4648692 C79.1581982,14.6810384 79.4315603,15.542681 80.8009681,15.542681 C81.5580707,15.542681 82.51776,15.0420582 83.0644842,14.5277998 L83.0644842,8.68395434 Z" id="Fill-68" fill="#FFFFFF"></path>
                        <path d="M88.3078421,16.2592013 C88.3078421,16.5000976 88.1870693,16.6202211 87.9630552,16.6202211 L87.1949142,16.6202211 C86.9709001,16.6202211 86.8507766,16.5000976 86.8507766,16.2592013 L86.8507766,8.684279 C86.8507766,8.44662929 86.9351877,8.3427387 87.1786813,8.3427387 L87.9331866,8.3427387 C88.1383706,8.3427387 88.2558968,8.42779912 88.2558968,8.65181319 L88.274727,9.1823045 C89.0591009,8.5154568 90.0869684,8.15703428 91.08237,8.15703428 C93.0530446,8.15703428 93.8049527,9.35177602 93.8049527,11.2211572 L93.8049527,16.2592013 C93.8049527,16.5000976 93.6874265,16.6202211 93.4660097,16.6202211 L92.6920248,16.6202211 C92.4680107,16.6202211 92.3504845,16.5000976 92.3504845,16.2592013 L92.3504845,11.4620535 C92.3504845,10.2484816 92.04141,9.37060618 90.6726515,9.37060618 C89.8824338,9.37060618 88.9065116,9.81668639 88.3078421,10.3660079 L88.3078421,16.2592013 Z" id="Fill-70" fill="#FFFFFF"></path>
                        <path d="M101.570319,10.5019097 C101.2093,9.85129494 100.386616,9.31820637 99.5470503,9.31820637 C98.0055737,9.31820637 97.1173092,10.5700879 97.1173092,12.4563514 C97.1173092,14.2718394 97.9205133,15.6243649 99.4106939,15.6243649 C100.214547,15.6243649 101.141121,15.1107558 101.570319,14.4958534 L101.570319,10.5019097 Z M99.1373318,16.7892381 C96.6692811,16.7892381 95.6057012,14.7692155 95.6057012,12.5245296 C95.6057012,10.0045336 97.0789996,8.15398249 99.345113,8.15398249 C100.132733,8.15398249 101.072943,8.49812006 101.570319,9.09678956 L101.570319,4.91714143 C101.570319,4.69312735 101.622265,4.58923677 101.824202,4.55352438 L102.682598,4.43599815 C102.923494,4.40093508 103.024788,4.50482567 103.024788,4.72559316 L103.024788,16.2587468 C103.024788,16.4989938 102.907261,16.61652 102.682598,16.61652 L102.031983,16.61652 C101.774854,16.61652 101.671613,16.5126294 101.671613,16.275629 L101.654731,15.6763102 C101.108656,16.326925 100.110007,16.7892381 99.1373318,16.7892381 L99.1373318,16.7892381 Z" id="Fill-72" fill="#FFFFFF"></path>
                        <path d="M110.735872,10.5516474 C110.322907,9.78350633 109.48399,9.31859596 108.660657,9.31859596 C107.340597,9.31859596 106.35104,10.4860664 106.35104,12.5223219 C106.35104,14.4085854 107.223071,15.5728092 108.456123,15.5728092 C109.554766,15.5728092 110.429394,14.6981804 110.735872,13.843031 L110.735872,10.5516474 Z M110.80405,15.3520417 C110.410564,16.1058978 109.278806,16.7896277 108.234056,16.7896277 C105.867299,16.7896277 104.823199,14.785838 104.823199,12.6262125 C104.823199,9.76467616 106.520511,8.15437208 108.474953,8.15437208 C109.330751,8.15437208 110.254728,8.51474255 110.768337,9.19847247 L110.78457,8.65174826 C110.78457,8.44656436 110.891707,8.34267377 111.110527,8.34267377 L111.864383,8.34267377 C112.088397,8.34267377 112.18969,8.44656436 112.18969,8.66798117 L112.18969,14.6657146 C112.18969,15.2994471 112.20917,15.5922887 112.566943,15.5922887 L112.638368,15.5922887 C112.843552,15.5922887 112.927963,15.6578696 112.927963,15.8494179 L112.927963,16.3604297 C112.927963,16.5487314 112.843552,16.6175589 112.638368,16.6175589 L111.952041,16.6175589 C111.197535,16.6175589 110.837165,16.0377196 110.837165,15.3520417 L110.80405,15.3520417 Z" id="Fill-74" fill="#FFFFFF"></path>
                        <path d="M120.43159,9.54248017 C120.379645,9.69571879 120.278352,9.76389698 120.070571,9.67883657 C119.507613,9.42170737 118.974525,9.28535097 118.32391,9.28535097 C116.698022,9.28535097 115.670155,10.5021695 115.670155,12.4208987 C115.670155,14.1675592 116.42466,15.67657 118.255732,15.67657 C118.994004,15.67657 119.540079,15.5590437 120.158228,15.2830844 C120.278352,15.2311391 120.43159,15.2311391 120.502366,15.4194408 L120.658851,15.900584 C120.727029,16.1057679 120.691317,16.2070613 120.467303,16.3103025 C119.72903,16.6524921 118.942059,16.7888485 118.151841,16.7888485 C115.461724,16.7888485 114.163741,15.0447853 114.163741,12.4890769 C114.163741,9.97167816 115.686388,8.1535929 118.255732,8.1535929 C119.04595,8.1535929 119.868633,8.34514117 120.467303,8.65096908 C120.620541,8.7360295 120.691317,8.83992009 120.620541,9.01198887 L120.43159,9.54248017 Z" id="Fill-76" fill="#FFFFFF"></path>
                        <path d="M123.757388,16.2592013 C123.757388,16.5000976 123.636615,16.6202211 123.412601,16.6202211 L122.641863,16.6202211 C122.420446,16.6202211 122.300322,16.5000976 122.300322,16.2592013 L122.300322,8.684279 C122.300322,8.44662929 122.420446,8.3427387 122.641863,8.3427387 L123.429483,8.3427387 C123.656094,8.3427387 123.757388,8.44662929 123.757388,8.684279 L123.757388,16.2592013 Z M123.909977,6.32011886 C123.909977,6.81749504 123.530127,7.14280243 123.035348,7.14280243 C122.537972,7.14280243 122.144486,6.81749504 122.144486,6.32011886 C122.144486,5.82533994 122.521739,5.49743528 123.019115,5.49743528 C123.516491,5.49743528 123.909977,5.82533994 123.909977,6.32011886 L123.909977,6.32011886 Z" id="Fill-78" fill="#FFFFFF"></path>
                        <path d="M131.603724,5.32608075 C131.724497,5.48191663 131.705018,5.67086763 131.499834,5.75527873 L128.878544,7.10845361 C128.706476,7.19286471 128.56947,7.1603989 128.471423,7.00716029 L128.261045,6.66302272 C128.178582,6.50978411 128.162349,6.37342771 128.348053,6.25265491 L130.764808,4.69169886 C130.969342,4.55534246 131.106348,4.53910956 131.262833,4.76312363 L131.603724,5.32608075 Z M129.649283,9.28431207 C127.798732,9.28431207 127.233177,10.9134463 127.233177,12.4198598 C127.233177,13.9970488 127.765616,15.6592981 129.581104,15.6592981 C131.382307,15.6592981 132.014092,14.0847064 132.014092,12.488038 C132.014092,10.8972134 131.434253,9.28431207 129.649283,9.28431207 L129.649283,9.28431207 Z M129.564872,16.7904069 C126.910467,16.7904069 125.726764,14.9047928 125.726764,12.4549229 C125.726764,10.0388174 127.112404,8.15515126 129.666165,8.15515126 C132.322517,8.15515126 133.523103,9.98946942 133.523103,12.4718051 C133.523103,14.8885599 132.117983,16.7904069 129.564872,16.7904069 L129.564872,16.7904069 Z" id="Fill-80" fill="#FFFFFF"></path>
                        <path d="M136.810331,16.2592013 C136.810331,16.5000976 136.692155,16.6202211 136.468791,16.6202211 L135.697403,16.6202211 C135.475986,16.6202211 135.359109,16.5000976 135.359109,16.2592013 L135.359109,8.684279 C135.359109,8.44662929 135.44352,8.3427387 135.68117,8.3427387 L136.435675,8.3427387 C136.64021,8.3427387 136.760983,8.42779912 136.760983,8.65181319 L136.777216,9.1823045 C137.567433,8.5154568 138.595301,8.15703428 139.587456,8.15703428 C141.558131,8.15703428 142.315883,9.35177602 142.315883,11.2211572 L142.315883,16.2592013 C142.315883,16.5000976 142.192513,16.6202211 141.967849,16.6202211 L141.200357,16.6202211 C140.976343,16.6202211 140.855571,16.5000976 140.855571,16.2592013 L140.855571,11.4620535 C140.855571,10.2484816 140.549743,9.37060618 139.17514,9.37060618 C138.390117,9.37060618 137.409,9.81668639 136.810331,10.3660079 L136.810331,16.2592013 Z" id="Fill-82" fill="#FFFFFF"></path>
                        <g id="Group-86" transform="translate(0.000000, 0.277972)">
                            <mask id="mask-8" fill="white">
                                <use xlink:href="#path-7"></use>
                            </mask>
                            <g id="Clip-85"></g>
                            <path d="M0.00084411101,54.5889187 C0.00084411101,56.2258448 1.32934498,57.5517484 2.96367376,57.5517484 L54.2103025,57.5517484 C55.8472285,57.5517484 57.1731321,56.2258448 57.1731321,54.5889187 L57.1731321,3.33449822 C57.1731321,1.69692286 55.8472285,0.371019255 54.2103025,0.371019255 L2.96367376,0.371019255 C1.32934498,0.371019255 0.00084411101,1.69692286 0.00084411101,3.33449822 L0.00084411101,54.5889187 Z" id="Fill-84" fill="#FFFFFF" mask="url(#mask-8)"></path>
                        </g>
                        <path d="M0.0274660736,3.24846382 C0.0105838534,3.37118458 0.000194794848,3.48936012 0.000194794848,3.61467814 L0.000194794848,54.8690987 C0.000194794848,56.5034274 1.32804635,57.829331 2.9656217,57.829331 L54.2116011,57.829331 C55.8465792,57.829331 57.1718335,56.5034274 57.1718335,54.8690987 L57.1718335,38.4673724 C55.9803383,29.2613679 46.3938345,10.0084944 0.0274660736,3.24846382" id="Fill-87" fill="#E30613"></path>
                        <path d="M43.2850386,14.7125952 C50.6327003,19.5974007 54.8344252,24.9165987 57.171314,29.452072 L57.171314,3.61448334 C57.171314,1.97690799 55.8480077,0.651004384 54.2110817,0.651004384 L2.96510225,0.651004384 C2.71641416,0.651004384 2.47032334,0.681522243 2.23786815,0.74125933 C19.5278589,3.42553234 33.3537479,8.10255665 43.2850386,14.7125952" id="Fill-89" fill="#BD2B0B"></path>
                    </g>
                </g>
            </g>
        </g>
    </g>
</svg>