<?xml version="1.0" encoding="UTF-8"?>
<svg width="270px" height="59px" viewBox="0 0 270 59" version="1.1" xmlns="http://www.w3.org/2000/svg" xmlns:xlink="http://www.w3.org/1999/xlink">
    <!-- Generator: Sketch 46.2 (44496) - http://www.bohemiancoding.com/sketch -->
    <title>foto hito</title>
    <desc>Created with Sketch.</desc>
    <defs></defs>
    <g id="Visual-Desde-1969-1280" stroke="none" stroke-width="1" fill="none" fill-rule="evenodd">
        <g id="Desde-1969-1280-2" transform="translate(-886.000000, -10628.000000)">
            <g id="Años-90-Copy-10" transform="translate(0.000000, 10400.000000)">
                <g id="Group-Copy" transform="translate(420.000000, 227.000000)">
                    <g id="foto-hito" transform="translate(466.000000, 0.524414)">
                        <g id="logo-instituto">
                            <g id="Group-21" transform="translate(0.000000, 0.644650)" fill="#FFFFFF">
                                <path d="M0.107146614,55.693994 C0.107146614,57.3622578 1.46235349,58.7174647 3.13267686,58.7174647 L55.3905251,58.7174647 C57.0608484,58.7174647 58.4139957,57.3622578 58.4139957,55.693994 L58.4139957,3.42584788 C58.4139957,1.75346492 57.0608484,0.404436796 55.3905251,0.404436796 L3.13267686,0.404436796 C1.46235349,0.404436796 0.107146614,1.75346492 0.107146614,3.42584788 L0.107146614,55.693994 Z" id="Fill-19"></path>
                            </g>
                            <g id="Group-3" transform="translate(72.202208, 23.465718)" fill="#FFFFFF">
                                <path d="M3.43980389,11.5500439 L4.44076216,11.5500439 C4.68379318,11.5500439 4.76823616,11.6180102 4.76823616,11.8239687 L4.76823616,12.3615203 C4.76823616,12.5674788 4.68379318,12.6375047 4.44076216,12.6375047 L0.92093153,12.6375047 C0.679960095,12.6375047 0.591397943,12.5674788 0.591397943,12.3615203 L0.591397943,11.8239687 C0.591397943,11.6180102 0.679960095,11.5500439 0.92093153,11.5500439 L1.88687686,11.5500439 L1.88687686,1.82468387 L0.852965228,1.82468387 C0.611993792,1.82468387 0.525491226,1.75259839 0.525491226,1.54869949 L0.525491226,1.02968409 C0.525491226,0.823725594 0.611993792,0.755759292 0.852965228,0.755759292 L4.45723884,0.755759292 C4.69821028,0.755759292 4.78471284,0.823725594 4.78471284,1.02968409 L4.78471284,1.54869949 C4.78471284,1.75259839 4.69821028,1.82468387 4.45723884,1.82468387 L3.43980389,1.82468387 L3.43980389,11.5500439 Z" id="Fill-1"></path>
                                <path d="M8.47816648,12.273988 C8.47816648,12.5128998 8.35459139,12.6364749 8.13009663,12.6364749 L7.35363311,12.6364749 C7.13119794,12.6364749 7.00968243,12.5128998 7.00968243,12.273988 L7.00968243,4.65146417 C7.00968243,4.40843315 7.09824458,4.30751349 7.33715644,4.30751349 L8.09920286,4.30751349 C8.30516135,4.30751349 8.42461727,4.39195647 8.42461727,4.61645123 L8.44109395,5.15194331 C9.23609373,4.47845904 10.2700054,4.11597209 11.2709636,4.11597209 C13.2522843,4.11597209 14.0122712,5.32288885 14.0122712,7.20534947 L14.0122712,12.273988 C14.0122712,12.5128998 13.8928152,12.6364749 13.6662609,12.6364749 L12.8939166,12.6364749 C12.6694218,12.6364749 12.5479063,12.5128998 12.5479063,12.273988 L12.5479063,7.44632091 C12.5479063,6.22086788 12.236909,5.33936553 10.8611062,5.33936553 C10.0661065,5.33936553 9.08162486,5.79041463 8.47816648,6.34238339 L8.47816648,12.273988 Z" id="Fill-3"></path>
                                <path d="M17.5673207,8.58424158 C16.5828391,8.20321837 15.8434481,7.49678074 15.8434481,6.41137949 C15.8434481,4.89140581 17.1883571,4.1149423 18.7062712,4.1149423 C19.4477217,4.1149423 20.1891723,4.23851739 20.9326825,4.58040849 C21.0871513,4.65043438 21.1365814,4.75547321 21.0871513,4.90994208 L20.8791333,5.47838752 C20.8276436,5.65139265 20.7061281,5.68434601 20.533123,5.61637971 C20.0182268,5.39188495 19.2932529,5.20240314 18.7392245,5.20240314 C17.7217896,5.20240314 17.2748596,5.71935895 17.2748596,6.30634065 C17.2748596,6.89332236 17.6723595,7.16724715 18.3952738,7.48030406 L19.7237061,8.0487495 C20.6731748,8.44624939 21.466115,9.13621034 21.466115,10.2380883 C21.466115,11.8239687 20.1397423,12.8084503 18.3067117,12.8084503 C17.4313881,12.8084503 16.5128132,12.5510021 15.9464274,12.2564815 C15.7940181,12.1720385 15.7219326,12.0669997 15.7940181,11.9104712 L16.0164533,11.3255491 C16.0679429,11.1710802 16.1729817,11.1031139 16.3418677,11.1710802 C16.9659219,11.445005 17.7568025,11.6880361 18.3458438,11.6880361 C19.3426829,11.6880361 20.0182268,11.1875569 20.0182268,10.3760805 C20.0182268,9.70465577 19.5342243,9.34216883 18.7248074,9.0311715 L17.5673207,8.58424158 Z" id="Fill-5"></path>
                                <path d="M23.5730703,2.35729253 C23.5730703,2.13279777 23.62456,2.02981852 23.832578,1.99480558 L24.6934845,1.87329007 C24.9323964,1.84033671 25.0374352,1.94537554 25.0374352,2.1698703 L25.0374352,4.30771945 L27.0537688,4.30771945 C27.2432507,4.30771945 27.3132765,4.37568575 27.3132765,4.56310798 L27.3132765,5.08212338 C27.3132765,5.27366477 27.2432507,5.33957149 27.0537688,5.33957149 L25.0374352,5.33957149 L25.0374352,9.97981632 C25.0374352,11.1022901 25.2454533,11.6521993 26.2628882,11.6521993 C26.6583285,11.6521993 27.0208155,11.5677563 27.3132765,11.464777 C27.4862817,11.3926916 27.6242739,11.4297641 27.6757635,11.6192459 L27.8302324,12.1362017 C27.881722,12.3256835 27.8137557,12.4121861 27.6098568,12.4986887 C27.2123569,12.6552171 26.5532897,12.809686 25.9869039,12.809686 C23.9849873,12.809686 23.5730703,11.8437407 23.5730703,10.0827956 L23.5730703,5.33957149 L22.6236017,5.33957149 C22.4341199,5.33957149 22.3682131,5.27366477 22.3682131,5.08212338 L22.3682131,4.56310798 C22.3682131,4.37568575 22.4341199,4.30771945 22.6236017,4.30771945 L23.5730703,4.30771945 L23.5730703,2.35729253 Z" id="Fill-7"></path>
                                <path d="M30.833931,12.273988 C30.833931,12.5128998 30.7124155,12.6364749 30.4879207,12.6364749 L29.7114572,12.6364749 C29.4890221,12.6364749 29.365447,12.5128998 29.365447,12.273988 L29.365447,4.65146417 C29.365447,4.40843315 29.4890221,4.30751349 29.7114572,4.30751349 L30.5043974,4.30751349 C30.7309518,4.30751349 30.833931,4.40843315 30.833931,4.65146417 L30.833931,12.273988 Z M30.9883999,2.270584 C30.9883999,2.77312272 30.6094363,3.10059672 30.1089571,3.10059672 C29.6105376,3.10059672 29.2109781,2.77312272 29.2109781,2.270584 C29.2109781,1.77216445 29.5920013,1.44263086 30.0904209,1.44263086 C30.5909,1.44263086 30.9883999,1.77216445 30.9883999,2.270584 L30.9883999,2.270584 Z" id="Fill-9"></path>
                                <path d="M33.6436168,2.35729253 C33.6436168,2.13279777 33.6951064,2.02981852 33.905184,1.99480558 L34.7660905,1.87329007 C35.0091216,1.84033671 35.1121008,1.94537554 35.1121008,2.1698703 L35.1121008,4.30771945 L37.1263749,4.30771945 C37.3179163,4.30771945 37.3879421,4.37568575 37.3879421,4.56310798 L37.3879421,5.08212338 C37.3879421,5.27366477 37.3179163,5.33957149 37.1263749,5.33957149 L35.1121008,5.33957149 L35.1121008,9.97981632 C35.1121008,11.1022901 35.3180593,11.6521993 36.3354942,11.6521993 C36.7329941,11.6521993 37.0934215,11.5677563 37.3879421,11.464777 C37.5588877,11.3926916 37.6989395,11.4297641 37.7504291,11.6192459 L37.9028384,12.1362017 C37.9563876,12.3256835 37.8884213,12.4121861 37.6804032,12.4986887 C37.2849629,12.6552171 36.6279553,12.809686 36.0615695,12.809686 C34.0555337,12.809686 33.6436168,11.8437407 33.6436168,10.0827956 L33.6436168,5.33957149 L32.6982673,5.33957149 C32.5067259,5.33957149 32.4367,5.27366477 32.4367,5.08212338 L32.4367,4.56310798 C32.4367,4.37568575 32.5067259,4.30771945 32.6982673,4.30771945 L33.6436168,4.30771945 L33.6436168,2.35729253 Z" id="Fill-11"></path>
                                <path d="M44.7039997,4.65125821 C44.7039997,4.40822719 44.821396,4.30730753 45.0458908,4.30730753 L45.838831,4.30730753 C46.0653853,4.30730753 46.1683646,4.40822719 46.1683646,4.65125821 L46.1683646,12.2923183 C46.1683646,12.5332897 46.0798024,12.6383285 45.838831,12.6383285 L45.0788442,12.6383285 C44.8749452,12.6383285 44.7513702,12.5497664 44.7513702,12.3252716 L44.7348935,11.7753625 C43.9440129,12.4488467 43.0130805,12.8092741 42.008003,12.8092741 C40.0266823,12.8092741 39.3017085,11.534391 39.3017085,9.68694334 L39.3017085,4.65125821 C39.3017085,4.40822719 39.4252835,4.30730753 39.6456591,4.30730753 L40.4406589,4.30730753 C40.6672133,4.30730753 40.7722521,4.40822719 40.7722521,4.65125821 L40.7722521,9.46656776 C40.7722521,10.6899612 41.0461769,11.5508677 42.4240392,11.5508677 C43.1819664,11.5508677 44.1458522,11.048329 44.7039997,10.5334327 L44.7039997,4.65125821 Z" id="Fill-13"></path>
                                <path d="M48.8773366,2.35729253 C48.8773366,2.13279777 48.9288262,2.02981852 49.1389039,1.99480558 L49.9998104,1.87329007 C50.2387223,1.84033671 50.3458207,1.94537554 50.3458207,2.1698703 L50.3458207,4.30771945 L52.3580351,4.30771945 C52.5495765,4.30771945 52.621662,4.37568575 52.621662,4.56310798 L52.621662,5.08212338 C52.621662,5.27366477 52.5495765,5.33957149 52.3580351,5.33957149 L50.3458207,5.33957149 L50.3458207,9.97981632 C50.3458207,11.1022901 50.5497196,11.6521993 51.5650949,11.6521993 C51.9646544,11.6521993 52.3250818,11.5677563 52.621662,11.464777 C52.7926076,11.3926916 52.9305998,11.4297641 52.9800298,11.6192459 L53.1365582,12.1362017 C53.192167,12.3256835 53.1200816,12.4121861 52.9120635,12.4986887 C52.5166232,12.6552171 51.8596156,12.809686 51.2911702,12.809686 C49.2892536,12.809686 48.8773366,11.8437407 48.8773366,10.0827956 L48.8773366,5.33957149 L47.9258084,5.33957149 C47.7383862,5.33957149 47.6683603,5.27366477 47.6683603,5.08212338 L47.6683603,4.56310798 C47.6683603,4.37568575 47.7383862,4.30771945 47.9258084,4.30771945 L48.8773366,4.30771945 L48.8773366,2.35729253 Z" id="Fill-15"></path>
                                <path d="M57.9685504,5.25657022 C56.1066857,5.25657022 55.5341211,6.89394023 55.5341211,8.41185432 C55.5341211,9.99979429 56.0716727,11.6721772 57.8985245,11.6721772 C59.7088997,11.6721772 60.347371,10.0842373 60.347371,8.47982062 C60.347371,6.87746355 59.7624489,5.25657022 57.9685504,5.25657022 M57.8820479,12.8090681 C55.2087066,12.8090681 54.0182665,10.9101308 54.0182665,8.44686726 C54.0182665,6.01449747 55.4167247,4.11556017 57.9850271,4.11556017 C60.6583683,4.11556017 61.8694043,5.96094826 61.8694043,8.46128436 C61.8694043,10.8936541 60.4482907,12.8090681 57.8820479,12.8090681" id="Fill-17"></path>
                            </g>
                            <path d="M0.133303342,3.69750713 C0.116826663,3.81902264 0.108588323,3.94259773 0.108588323,4.07235158 L0.108588323,56.3384381 C0.108588323,58.0087615 1.4637952,59.3619088 3.1299994,59.3619088 L55.3919668,59.3619088 C57.0622901,59.3619088 58.4113183,58.0087615 58.4113183,56.3384381 L58.4113183,39.6166682 C57.1961632,30.2249609 47.4254923,10.5888783 0.133303342,3.69750713" id="Fill-22" fill="#FFED00"></path>
                            <path d="M44.2535256,15.388329 C51.7442359,20.3745841 56.026113,25.7954116 58.4131719,30.4212394 L58.4131719,4.07090987 C58.4131719,2.39852692 57.0620842,1.04949879 55.3917608,1.04949879 L3.13185303,1.04949879 C2.87440491,1.04949879 2.62931431,1.08245215 2.38834287,1.1442397 C20.0204494,3.87936847 34.1244869,8.64936715 44.2535256,15.388329" id="Fill-24" fill="#E30613"></path>
                            <g id="Group-2" transform="translate(70.397153, 40.613742)" fill="#FFFFFF">
                                <path d="M5.46214529,3.69012963 L1.19262575,3.69012963 C0.805423786,3.69012963 0.667431596,3.53154159 0.667431596,3.14228004 L0.667431596,1.7953115 C0.667431596,1.45342041 0.82807922,1.3174878 1.1720299,1.3174878 L12.7448376,1.3174878 C13.3153426,1.3174878 13.4739306,1.45342041 13.4265602,1.88799283 L13.2679721,3.21024635 C13.2267804,3.57685246 13.0167028,3.69012963 12.5615345,3.69012963 L8.43206675,3.69012963 L8.43206675,16.53988 C8.43206675,16.9517969 8.26935954,17.110385 7.88215758,17.110385 L6.03265032,17.110385 C5.62279292,17.110385 5.46214529,16.9517969 5.46214529,16.53988 L5.46214529,3.69012963 Z" id="Fill-26"></path>
                                <path d="M17.53605,7.9118668 C15.5073588,7.9118668 14.8421129,9.66869274 14.8421129,11.4955446 C14.8421129,13.3677073 15.4167371,15.2172145 17.4454282,15.2172145 C19.4555831,15.2172145 20.1393653,13.4356736 20.1393653,11.5635109 C20.1393653,9.69546735 19.5482644,7.9118668 17.53605,7.9118668 M17.4227728,17.3838979 C13.7031624,17.3838979 11.993707,14.8753234 11.993707,11.5408554 C11.993707,8.25581749 13.9997427,5.74312388 17.5628246,5.74312388 C21.2803754,5.74312388 22.9918904,8.21050662 22.9918904,11.5635109 C22.9918904,14.852668 20.9817355,17.3838979 17.4227728,17.3838979" id="Fill-28"></path>
                                <path d="M41.7281404,16.5404978 C41.7281404,16.9524148 41.571612,17.1110029 41.1823504,17.1110029 L39.5841125,17.1110029 C39.1742551,17.1110029 38.9930116,16.9524148 38.9930116,16.5404978 L38.9930116,10.287598 C38.9930116,9.05390664 38.6717164,8.11885509 37.2814966,8.11885509 C36.4102922,8.11885509 35.4093339,8.57608294 34.7028963,9.14658796 C34.744088,9.35048687 34.793518,12.4089705 34.793518,12.7282061 L34.793518,16.5404978 C34.793518,16.9524148 34.6328704,17.1110029 34.2415492,17.1110029 L32.7380522,17.1110029 C32.3261353,17.1110029 32.1448918,16.9524148 32.1448918,16.5404978 L32.1448918,10.287598 C32.1448918,9.07862166 31.895682,8.11885509 30.4992834,8.11885509 C29.6095427,8.11885509 28.6992062,8.62139381 27.965994,9.25986513 L27.965994,16.5404978 C27.965994,16.9524148 27.7826909,17.1110029 27.395489,17.1110029 L25.7993106,17.1110029 C25.3853341,17.1110029 25.2082098,16.9524148 25.2082098,16.5404978 L25.2082098,6.56592806 C25.2082098,6.19932194 25.4100491,6.04279349 25.7519402,6.04279349 L27.2369009,6.04279349 C27.5808516,6.04279349 27.7826909,6.15607066 27.8074059,6.47324674 L27.8300614,7.04581134 C28.7630533,6.22403696 30.0008639,5.74415367 31.1871848,5.74415367 C32.5774046,5.74415367 33.557767,6.36408874 34.0850208,7.22705482 C35.1086345,6.24669239 36.5956548,5.74415367 37.9879342,5.74415367 C39.6520788,5.74415367 40.7004075,6.56592806 41.1823504,7.45772833 C41.6128037,8.30009856 41.7281404,9.305176 41.7281404,10.7674813 L41.7281404,16.5404978 Z" id="Fill-30"></path>
                                <path d="M50.5617001,0.86025995 C50.9303658,0.586335156 51.1322052,0.611050175 51.3628787,0.952941272 L52.0466609,1.98067415 C52.2299639,2.25253936 52.2052489,2.46055743 51.9086687,2.61914547 L48.4403277,4.53661903 C48.0984366,4.71786251 47.937789,4.69520707 47.709175,4.37597141 L47.3219731,3.80546639 C47.0933591,3.46357529 47.0933591,3.30292767 47.4352502,3.07637333 L50.5617001,0.86025995 Z M51.589433,9.16862552 C51.1322052,8.50543918 50.195094,8.00496004 49.3300684,8.00496004 C47.937789,8.00496004 46.7494085,9.19128096 46.7494085,11.5886378 C46.7494085,13.5061114 47.4846803,15.1270047 49.1694207,15.1270047 C50.2857158,15.1270047 51.2475419,14.2825749 51.589433,13.5740777 L51.589433,9.16862552 Z M55.3543543,16.6778721 C55.3543543,16.9517969 55.1710512,17.1124446 54.8971264,17.1124446 L53.8034868,17.1124446 C52.6171659,17.1124446 52.0899122,16.53988 51.9333837,15.765476 L51.8860132,15.765476 C51.2022311,16.6778721 49.877918,17.3843098 48.5783199,17.3843098 C45.3591886,17.3843098 43.8989429,14.7377431 43.8989429,11.7719409 C43.8989429,7.82371657 46.2736443,5.74559538 48.8275296,5.74559538 C50.0385656,5.74559538 51.1795756,6.29138539 51.7500806,7.06990849 L51.7953915,6.45203301 C51.8180469,6.20076365 51.9972308,6.04217561 52.2752748,6.04217561 L53.8714531,6.04217561 C54.1680333,6.04217561 54.353396,6.20076365 54.353396,6.54471433 L54.353396,14.6018105 C54.353396,15.0116679 54.4419581,15.2176264 54.7632534,15.2176264 L54.9465564,15.2176264 C55.2204812,15.2176264 55.3543543,15.3082482 55.3543543,15.6048284 L55.3543543,16.6778721 Z" id="Fill-32"></path>
                                <path d="M60.3086858,17.3843098 C59.1244245,17.3843098 57.8227668,17.0444783 56.7950339,16.5872504 C56.541705,16.4698541 56.4510832,16.3133256 56.541705,16.0599967 L56.9515624,14.8057095 C57.0421841,14.5317847 57.2296063,14.4617588 57.5014715,14.5791551 C58.5745153,15.036383 59.5795927,15.2855927 60.3766521,15.2855927 C61.3817295,15.2855927 62.0675713,14.8283649 62.0675713,14.0745568 C62.0675713,13.4360855 61.6329989,13.0941944 60.6958877,12.7275883 L58.8937509,12.0438061 C57.5941529,11.5639228 56.541705,10.5609049 56.541705,9.01003748 C56.541705,6.77332826 58.640422,5.7435358 60.6752919,5.7435358 C61.7689315,5.7435358 62.8646307,5.92683886 63.9809257,6.42937758 C64.2816251,6.56736977 64.2816251,6.70536196 64.2136588,6.97722717 L63.8202781,8.21091853 C63.7275968,8.48484333 63.5051616,8.50749876 63.2744881,8.41481744 C62.4980246,8.11823721 61.5423772,7.86696785 60.8071053,7.86696785 C59.8493983,7.86696785 59.3736342,8.39216201 59.3736342,8.91735616 C59.3736342,9.41989488 59.6249036,9.73913055 60.4899293,10.0810216 L62.545395,10.927511 C63.7564309,11.4279902 64.7141379,12.3651013 64.7141379,13.8480025 C64.7141379,16.2432997 62.6380763,17.3843098 60.3086858,17.3843098" id="Fill-34"></path>
                                <path d="M76.6022681,3.60074365 L75.4200663,3.60074365 L75.4200663,9.30373429 L76.0338226,9.30373429 C77.3560761,9.30373429 78.4538349,9.21517214 79.1602725,8.46136406 C79.5927854,7.98148077 79.8440547,7.29769858 79.8440547,6.40589831 C79.8440547,4.32777712 78.5671121,3.60074365 76.6022681,3.60074365 M81.0097798,10.3108713 C79.8440547,11.200612 78.3426173,11.5651585 76.4477992,11.5651585 L75.4200663,11.5651585 L75.4200663,16.5617116 C75.4200663,16.9056622 75.2800145,17.1116207 74.8475017,17.1116207 L73.024769,17.1116207 C72.6540438,17.1116207 72.4748599,16.9509731 72.4748599,16.4958048 L72.4748599,1.93247986 C72.4748599,1.47731159 72.6128521,1.31872355 73.0433053,1.31872355 L76.3551179,1.31872355 C78.7730706,1.31872355 80.5525519,1.77389182 81.6729661,3.05083447 C82.3999996,3.89732388 82.8160358,5.06098936 82.8160358,6.29056155 C82.8160358,8.09681753 82.130194,9.41907105 81.0097798,10.3108713" id="Fill-36"></path>
                                <path d="M91.2366487,9.16903744 C90.7753017,8.50791068 89.8402501,8.00537196 88.9731649,8.00537196 C87.5850046,8.00537196 86.3945646,9.19169287 86.3945646,11.5890497 C86.3945646,13.5065233 87.1277768,15.1274166 88.8125173,15.1274166 C89.9329315,15.1274166 90.892698,14.2809272 91.2366487,13.5744896 L91.2366487,9.16903744 Z M95.0036295,16.6782841 C95.0036295,16.9522089 94.8162073,17.1128565 94.5443421,17.1128565 L93.4486429,17.1128565 C92.262322,17.1128565 91.7371278,16.5402919 91.5785398,15.7658879 L91.5311694,15.7658879 C90.8494467,16.6782841 89.5251336,17.3847217 88.2193568,17.3847217 C85.0064043,17.3847217 83.544099,14.7381551 83.544099,11.7723528 C83.544099,7.8220689 85.9188004,5.74394772 88.4706262,5.74394772 C89.6816621,5.74394772 90.8247317,6.2917973 91.3931772,7.0703204 L91.4426072,6.45244493 C91.4611435,6.20117557 91.6444465,6.04258753 91.9183713,6.04258753 L93.5166092,6.04258753 C93.815249,6.04258753 93.9985521,6.20117557 93.9985521,6.54512625 L93.9985521,14.6001629 C93.9985521,15.0120799 94.0891738,15.2159788 94.4084095,15.2159788 L94.589653,15.2159788 C94.8615182,15.2159788 95.0036295,15.3086601 95.0036295,15.6031807 L95.0036295,16.6782841 Z" id="Fill-38"></path>
                                <path d="M99.9515763,17.3843098 C98.767315,17.3843098 97.4635978,17.0444783 96.4379245,16.5872504 C96.1887147,16.4698541 96.0960334,16.3133256 96.1887147,16.0599967 L96.5985721,14.8057095 C96.6891938,14.5317847 96.8724969,14.4617588 97.1464217,14.5791551 C98.2174058,15.036383 99.2245429,15.2855927 100.021602,15.2855927 C101.02668,15.2855927 101.710462,14.8283649 101.710462,14.0745568 C101.710462,13.4360855 101.280009,13.0941944 100.342897,12.7275883 L98.5366415,12.0438061 C97.2370434,11.5639228 96.1887147,10.5609049 96.1887147,9.01003748 C96.1887147,6.77332826 98.2853721,5.7435358 100.320242,5.7435358 C101.413882,5.7435358 102.509581,5.92683886 103.627935,6.42937758 C103.922456,6.56736977 103.922456,6.70536196 103.858609,6.97722717 L103.467288,8.21091853 C103.376666,8.48484333 103.148052,8.50749876 102.919438,8.41481744 C102.145034,8.11823721 101.183208,7.86696785 100.454115,7.86696785 C99.4943485,7.86696785 99.0165248,8.39216201 99.0165248,8.91735616 C99.0165248,9.41989488 99.2698537,9.73913055 100.136939,10.0810216 L102.190345,10.927511 C103.401381,11.4279902 104.361148,12.3651013 104.361148,13.8480025 C104.361148,16.2432997 102.280967,17.3843098 99.9515763,17.3843098" id="Fill-40"></path>
                                <path d="M113.829677,14.7363014 C114.083006,14.6456797 114.26425,14.6909906 114.332216,14.9196045 L114.651452,16.0379591 C114.744133,16.3798502 114.719418,16.5404978 114.379587,16.7011455 C113.281828,17.2016246 112.28087,17.3828681 111.067774,17.3828681 C107.554122,17.3828681 105.611934,15.1935293 105.611934,11.6778178 C105.611934,8.14151052 107.739485,5.74415367 111.273733,5.74415367 C112.301465,5.74415367 113.374509,5.95011217 114.332216,6.38468458 C114.630856,6.52061719 114.630856,6.67920523 114.55877,6.97784504 L114.26425,8.20947682 C114.196284,8.4586866 114.037695,8.55136792 113.739056,8.41543532 C113.077929,8.1167955 112.346776,7.91083701 111.549717,7.91083701 C109.586932,7.91083701 108.466518,9.305176 108.466518,11.5418852 C108.466518,13.7332836 109.471596,15.2408997 111.43438,15.2408997 C112.414743,15.2408997 113.032618,15.0555371 113.829677,14.7363014" id="Fill-42"></path>
                                <path d="M126.430424,16.4710898 C126.430424,16.9509731 126.294491,17.1116207 125.837263,17.1116207 L124.377018,17.1116207 C124.076318,17.1116207 123.851824,16.9509731 123.827109,16.6543929 L123.806513,16.0859474 C122.756124,16.9283177 121.497718,17.3855455 120.175465,17.3855455 C117.61952,17.3855455 116.571191,15.7667118 116.571191,13.299329 L116.571191,6.56654593 C116.571191,6.17934397 116.797745,6.04135178 117.164351,6.04135178 L118.75847,6.04135178 C119.123017,6.04135178 119.333094,6.15668853 119.333094,6.56654593 L119.333094,12.8194458 C119.333094,14.073733 119.65233,14.9428778 121.019894,14.9428778 C121.88698,14.9428778 122.980619,14.4629945 123.668521,13.8471786 L123.668521,6.56654593 C123.668521,6.17934397 123.874479,6.04135178 124.239026,6.04135178 L125.859919,6.04135178 C126.222406,6.04135178 126.430424,6.15668853 126.430424,6.56654593 L126.430424,16.4710898 Z" id="Fill-44"></path>
                                <path d="M136.265766,9.16903744 C135.808538,8.50791068 134.875546,8.00537196 134.004342,8.00537196 C132.616181,8.00537196 131.427801,9.19169287 131.427801,11.5890497 C131.427801,13.5065233 132.161013,15.1274166 133.847813,15.1274166 C134.964108,15.1274166 135.925934,14.2809272 136.265766,13.5744896 L136.265766,9.16903744 Z M140.034806,16.6782841 C140.034806,16.9522089 139.847384,17.1128565 139.575519,17.1128565 L138.481879,17.1128565 C137.293499,17.1128565 136.768304,16.5402919 136.609716,15.7658879 L136.564406,15.7658879 C135.880623,16.6782841 134.55631,17.3847217 133.252593,17.3847217 C130.037581,17.3847217 128.575276,14.7381551 128.575276,11.7723528 C128.575276,7.8220689 130.947917,5.74394772 133.503862,5.74394772 C134.712839,5.74394772 135.855908,6.2917973 136.426413,7.0703204 L136.473784,6.45244493 C136.49438,6.20117557 136.677683,6.04258753 136.953667,6.04258753 L138.545726,6.04258753 C138.846426,6.04258753 139.029729,6.20117557 139.029729,6.54512625 L139.029729,14.6001629 C139.029729,15.0120799 139.12241,15.2159788 139.439586,15.2159788 L139.624949,15.2159788 C139.894754,15.2159788 140.034806,15.3086601 140.034806,15.6031807 L140.034806,16.6782841 Z" id="Fill-46"></path>
                                <path d="M144.779678,16.5404978 C144.779678,16.9276998 144.596375,17.1110029 144.277139,17.1110029 L142.540909,17.1110029 C142.223733,17.1110029 142.015715,16.9524148 142.015715,16.5610937 L142.015715,1.65793719 C142.015715,1.29339066 142.106337,1.08949175 142.477062,1.0421213 L144.32245,0.790851939 C144.57166,0.770256089 144.779678,0.838222392 144.779678,1.20276892 L144.779678,16.5404978 Z" id="Fill-48"></path>
                                <path d="M157.607803,17.3843098 C156.240238,17.3843098 154.619345,17.1351 153.249721,16.6552167 C152.839863,16.4966287 152.792493,16.2659552 152.903711,15.9240641 L153.385653,14.4411629 C153.498931,14.0519014 153.7502,14.0065905 154.137402,14.1445827 C155.210446,14.5317847 156.396767,14.8283649 157.537777,14.8283649 C158.769408,14.8283649 160.163747,14.237264 160.163747,12.7976142 C160.163747,11.7472258 159.387284,11.1767208 158.495484,10.7421484 L155.531741,9.26130684 C153.910848,8.46012831 152.839863,7.11521936 152.839863,5.33573798 C152.839863,2.55117917 155.574992,1.02090757 158.110341,1.02090757 C159.615898,1.02090757 160.870185,1.2495215 162.194498,1.82002652 C162.629071,2.00332958 162.742348,2.18663264 162.5817,2.57177502 L162.033851,3.96405443 C161.897918,4.35537556 161.646649,4.37597141 161.282102,4.21738337 C160.322336,3.80546639 159.183385,3.50888616 158.270989,3.50888616 C157.195886,3.50888616 155.964254,3.96405443 155.964254,5.24305666 C155.964254,6.1801678 156.831339,6.72595781 157.583088,7.09050434 L160.118437,8.3241957 C161.922633,9.19128096 163.154265,10.4023169 163.154265,12.4989743 C163.154265,15.6727947 160.573605,17.3843098 157.607803,17.3843098" id="Fill-50"></path>
                                <path d="M172.48748,9.16903744 C172.032312,8.50791068 171.09726,8.00537196 170.228115,8.00537196 C168.837895,8.00537196 167.647455,9.19169287 167.647455,11.5890497 C167.647455,13.5065233 168.380667,15.1274166 170.065408,15.1274166 C171.183763,15.1274166 172.143529,14.2809272 172.48748,13.5744896 L172.48748,9.16903744 Z M176.254461,16.6782841 C176.254461,16.9522089 176.071158,17.1128565 175.797233,17.1128565 L174.701534,17.1128565 C173.513153,17.1128565 172.987959,16.5402919 172.829371,15.7658879 L172.78406,15.7658879 C172.102337,16.6782841 170.773905,17.3847217 169.476367,17.3847217 C166.259295,17.3847217 164.79699,14.7381551 164.79699,11.7723528 C164.79699,7.8220689 167.169632,5.74394772 169.725576,5.74394772 C170.934553,5.74394772 172.077622,6.2917973 172.648127,7.0703204 L172.691379,6.45244493 C172.716094,6.20117557 172.899397,6.04258753 173.171262,6.04258753 L174.7695,6.04258753 C175.06608,6.04258753 175.251443,6.20117557 175.251443,6.54512625 L175.251443,14.6001629 C175.251443,15.0120799 175.342065,15.2159788 175.659241,15.2159788 L175.844603,15.2159788 C176.118528,15.2159788 176.254461,15.3086601 176.254461,15.6031807 L176.254461,16.6782841 Z" id="Fill-52"></path>
                                <path d="M188.169777,16.5174305 C188.169777,16.906692 188.031785,17.1126505 187.617809,17.1126505 L185.976319,17.1126505 C185.568522,17.1126505 185.430529,16.906692 185.430529,16.5174305 L185.430529,10.3098415 C185.430529,9.05349473 185.084519,8.16375404 183.694299,8.16375404 C182.804559,8.16375404 181.7068,8.64363733 181.002422,9.2615128 L181.002422,16.5421455 C181.002422,16.9293475 180.839715,17.1126505 180.452513,17.1126505 L178.786308,17.1126505 C178.444417,17.1126505 178.240518,16.9293475 178.240518,16.5627413 L178.240518,6.61288659 C178.240518,6.24628048 178.399106,6.04238157 178.811023,6.04238157 L180.295984,6.04238157 C180.61316,6.04238157 180.819119,6.13300331 180.839715,6.4748944 L180.86443,7.07011445 C181.914818,6.22568463 183.237071,5.74374176 184.561384,5.74374176 C187.117329,5.74374176 188.169777,7.34403924 188.169777,9.82995824 L188.169777,16.5174305 Z" id="Fill-54"></path>
                                <path d="M198.871998,16.6772543 C198.871998,16.9511791 198.71341,17.1118267 198.439486,17.1118267 L190.701625,17.1118267 C190.289708,17.1118267 190.155835,16.8832128 190.155835,16.5619175 L190.155835,15.9934721 C190.155835,15.6742364 190.176431,15.5135888 190.382389,15.2170086 L195.310976,7.9590313 L195.310976,7.93431628 L191.088827,7.93431628 C190.654255,7.93431628 190.565692,7.82309869 190.565692,7.34321541 L190.565692,6.52144102 C190.565692,6.22486079 190.701625,6.04155774 191.000265,6.04155774 L198.212931,6.04155774 C198.645444,6.04155774 198.738125,6.27017166 198.738125,6.52144102 L198.738125,7.15991235 C198.738125,7.43589673 198.688695,7.66039148 198.505392,7.91166084 L193.486184,15.1716977 L193.486184,15.2170086 L198.41683,15.2170086 C198.688695,15.2170086 198.871998,15.3076303 198.871998,15.6042105 L198.871998,16.6772543 Z" id="Fill-56"></path>
                            </g>
                        </g>
                    </g>
                </g>
            </g>
        </g>
    </g>
</svg>