<?xml version="1.0" encoding="UTF-8"?>
<svg width="40px" height="30px" viewBox="0 0 40 30" version="1.1" xmlns="http://www.w3.org/2000/svg" xmlns:xlink="http://www.w3.org/1999/xlink">
    <!-- Generator: Sketch 45.2 (43514) - http://www.bohemiancoding.com/sketch -->
    <title>co2</title>
    <desc>Created with Sketch.</desc>
    <defs>
        <polygon id="path-1" points="39.6981667 0.0941888889 39.6981667 29.5555556 3.88888889e-05 29.5555556 3.88888889e-05 0.0941888889"></polygon>
    </defs>
    <g id="Visual-cadena-de-valor-1280" stroke="none" stroke-width="1" fill="none" fill-rule="evenodd">
        <g id="Cadena-de-valor-1280" transform="translate(-387.000000, -1885.000000)">
            <g id="co2" transform="translate(387.000000, 1885.000000)">
                <g id="Group-3" transform="translate(0.000000, 0.294778)">
                    <mask id="mask-2" fill="white">
                        <use xlink:href="#path-1"></use>
                    </mask>
                    <g id="Clip-2"></g>
                    <path d="M20.9475389,0.0941888889 C18.7269833,0.0941888889 16.5639833,0.730411111 14.7113167,1.93168889 C13.1674278,2.92685556 11.8868167,4.27357778 10.9807056,5.85752222 C10.5890944,5.78363333 10.1807611,5.7428 9.77281667,5.7428 C6.30392778,5.7428 3.47748333,8.56768889 3.47748333,12.0365778 C3.47748333,12.4853556 3.52648333,12.9193556 3.60892778,13.3424667 C1.36348333,14.9761889 3.88888889e-05,17.6046889 3.88888889e-05,20.4039111 C3.88888889e-05,22.6649111 0.841983333,24.8617444 2.37576111,26.5993 C3.95153889,28.3792444 6.03365,29.4323556 8.25420556,29.5556333 L15.3389833,29.5556333 L24.35265,29.5470778 L30.4908722,29.5470778 C32.9793722,29.3662444 35.3064833,28.2244667 37.0374278,26.3142444 C38.7602056,24.4195778 39.6982056,21.9882444 39.6982056,19.4573556 C39.68965,14.8781889 36.5629833,10.8049667 32.2859833,9.67796667 C31.8605389,7.15524444 30.6122056,4.8538 28.7019833,3.10574444 C26.5794278,1.16402222 23.8210389,0.0941888889 20.9475389,0.0941888889 M20.9475389,1.64974444 C23.43565,1.64974444 25.8168167,2.57452222 27.6519833,4.25335556 C29.3090389,5.77002222 30.3812056,7.73507778 30.7522056,9.93657778 L30.9190389,10.9263 L31.8897056,11.1821889 C35.5059833,12.1349667 38.13565,15.6163 38.14265,19.4573556 C38.14265,21.6040222 37.34115,23.6674667 35.8847611,25.2696889 C34.4415944,26.8618 32.5072611,27.8270222 30.4317611,27.9915222 L24.3510944,27.9915222 L15.3389833,28.0000778 L8.29970556,28.0000778 C6.52092778,27.8900222 4.83237222,27.0274667 3.54203889,25.5703 C2.26103889,24.1185778 1.55559444,22.2841889 1.55559444,20.4039111 C1.55559444,18.1215222 2.66509444,15.9523 4.52437222,14.6009111 L5.32587222,14.0175778 L5.13570556,13.0445778 C5.06648333,12.6903 5.03303889,12.3605222 5.03303889,12.0365778 C5.03303889,9.42402222 7.15909444,7.29835556 9.77281667,7.29835556 C10.0757611,7.29835556 10.3849278,7.3283 10.6909833,7.38624444 L11.78065,7.59274444 L12.3313167,6.63024444 C13.1094833,5.26952222 14.22365,4.09702222 15.5579278,3.2368 C17.1589833,2.19846667 19.0225389,1.64974444 20.9475389,1.64974444" id="Fill-1" fill="#FFFFFF" mask="url(#mask-2)"></path>
                </g>
                <path d="M17.1953833,20.6639611 C15.9361611,21.02835 14.8643833,21.21035 13.9796611,21.21035 C12.6687167,21.21035 11.6646056,20.8152389 10.9673278,20.02385 C10.33305,19.3164611 10.0153278,18.3644611 10.0153278,17.16785 L10.0153278,13.8899056 C10.0153278,12.6932944 10.33305,11.7362389 10.9673278,11.0179611 C11.6646056,10.2374611 12.6687167,9.84779444 13.9796611,9.84779444 C14.9581056,9.84779444 16.0244389,10.01385 17.1798278,10.3471278 L16.8831056,11.5647389 C15.9987722,11.2625722 15.0312167,11.1120722 13.9796611,11.1120722 C12.2424944,11.1120722 11.3733278,12.0741833 11.3733278,13.9991833 L11.3733278,17.0585722 C11.3733278,18.9835722 12.23705,19.9460722 13.9641056,19.9460722 C14.8698278,19.9460722 15.8319389,19.7846833 16.8519944,19.4622944 L17.1953833,20.6639611 Z M26.1697722,17.2145167 C26.1697722,18.3800167 25.8578833,19.3269611 25.2333278,20.05535 C24.5776611,20.8152389 23.6882722,21.1947944 22.5647722,21.1947944 C21.4614944,21.1947944 20.5771611,20.8097944 19.9109944,20.0397944 C19.2767167,19.3009056 18.9589944,18.3590167 18.9589944,17.2145167 L18.9589944,14.10885 C18.9589944,12.93285 19.2813833,11.9781278 19.92655,11.2442944 C20.5721056,10.51085 21.4509944,10.1441278 22.5647722,10.1441278 C23.6781611,10.1441278 24.56755,10.5287389 25.2333278,11.2991278 C25.8578833,12.0275167 26.1697722,12.9639611 26.1697722,14.10885 L26.1697722,17.2145167 Z M24.7966056,17.2145167 L24.7966056,14.10885 C24.7966056,13.3695722 24.6406611,12.7660167 24.3283833,12.2977944 C23.9534944,11.7047389 23.3654944,11.4084056 22.5647722,11.4084056 C21.7632722,11.4084056 21.1702167,11.7047389 20.7848278,12.2977944 C20.4733278,12.7660167 20.3169944,13.3695722 20.3169944,14.10885 L20.3169944,17.2145167 C20.3169944,17.9639056 20.4733278,18.5725167 20.7848278,19.0407389 C21.1702167,19.6341833 21.7632722,19.9305167 22.5647722,19.9305167 C23.3553833,19.9305167 23.9433833,19.6341833 24.3283833,19.0407389 C24.6406611,18.5725167 24.7966056,17.9639056 24.7966056,17.2145167 L24.7966056,17.2145167 Z" id="Fill-4" fill="#FFFFFF"></path>
                <path d="M31.48285,25.1225333 C31.48285,25.2376444 31.4280167,25.2952 31.3191278,25.2952 L27.8790167,25.2952 L27.8790167,24.6309778 C27.8790167,23.6968667 28.2889056,22.9385333 29.1079056,22.3563667 L29.7627944,21.9013667 C30.0175167,21.7252 30.2209056,21.5552556 30.3729611,21.3915333 C30.57285,21.1792 30.6731833,20.9182556 30.6731833,20.6090889 C30.6731833,20.3419222 30.5821833,20.1237556 30.4001833,19.9538111 C30.1940722,19.7597556 29.9027944,19.6625333 29.52635,19.6625333 C29.18685,19.6625333 28.7621833,19.7718111 28.25235,19.9903667 L27.9886833,19.3261444 C28.5770722,19.0589778 29.0896278,18.9255889 29.52635,18.9255889 C30.0785722,18.9255889 30.53785,19.0850333 30.9049611,19.4035333 C31.2720722,19.7216444 31.4556278,20.1237556 31.4556278,20.6090889 C31.4556278,21.0458111 31.3160167,21.4343111 31.0371833,21.7738111 C30.8610167,21.9861444 30.5514611,22.2467 30.1089056,22.5562556 C29.6356278,22.8899222 29.3140167,23.1477556 29.1440722,23.3301444 C28.8345167,23.6634222 28.6770167,24.0729222 28.6711833,24.5582556 L31.48285,24.5582556 L31.48285,25.1225333 Z" id="Fill-6" fill="#FFFFFF"></path>
            </g>
        </g>
    </g>
</svg>