<?xml version="1.0" encoding="UTF-8"?>
<svg width="27px" height="35px" viewBox="0 0 27 35" version="1.1" xmlns="http://www.w3.org/2000/svg" xmlns:xlink="http://www.w3.org/1999/xlink">
    <!-- Generator: Sketch 45.2 (43514) - http://www.bohemiancoding.com/sketch -->
    <title>agua</title>
    <desc>Created with Sketch.</desc>
    <defs>
        <polygon id="path-1" points="0 35 0 0 26.397 0 26.397 35"></polygon>
    </defs>
    <g id="Visual-cadena-de-valor-1280" stroke="none" stroke-width="1" fill="none" fill-rule="evenodd">
        <g id="Cadena-de-valor-1280" transform="translate(-224.000000, -1882.000000)">
            <g id="agua" transform="translate(224.000000, 1882.000000)">
                <g id="Group-3">
                    <mask id="mask-2" fill="white">
                        <use xlink:href="#path-1"></use>
                    </mask>
                    <g id="Clip-2"></g>
                    <path d="M12.9298944,0 C8.41722778,4.67522222 -0.0796055556,14.735 0.000505555556,20.8098333 C0.103561111,28.6708333 6.01933889,35 13.2231167,35 C13.2763944,35 13.3300611,34.9996111 13.3833389,34.9988333 C20.6621722,34.9039444 26.4997833,28.3787778 26.39595,20.4656667 C26.3158389,14.3881111 17.5638944,4.557 12.9298944,0 M12.9590611,2.23105556 C19.0016167,8.39805556 24.7828389,16.1408333 24.8403944,20.4862778 C24.8855056,23.9228889 23.6986167,27.1689444 21.4986722,29.6267222 C19.3317833,32.0479444 16.4423389,33.4036111 13.3631167,33.4436667 L13.2231167,33.4444444 C6.88111667,33.4444444 1.64745,27.7670556 1.55606111,20.7892222 C1.49850556,16.4472778 7.07750556,8.55555556 12.9590611,2.23105556" id="Fill-1" fill="#FFFFFF" mask="url(#mask-2)"></path>
                </g>
                <path d="M13.1984222,30.3131889 C8.4637,30.3131889 4.61175556,26.4612444 4.61175556,21.7265222 L6.16731111,21.7265222 C6.16731111,25.6037444 9.3212,28.7576333 13.1984222,28.7576333 L13.1984222,30.3131889 Z" id="Fill-4" fill="#FFFFFF"></path>
            </g>
        </g>
    </g>
</svg>