<?xml version="1.0" encoding="UTF-8"?>
<svg width="42px" height="35px" viewBox="0 0 42 35" version="1.1" xmlns="http://www.w3.org/2000/svg" xmlns:xlink="http://www.w3.org/1999/xlink">
    <!-- Generator: Sketch 45.2 (43514) - http://www.bohemiancoding.com/sketch -->
    <title>planta</title>
    <desc>Created with Sketch.</desc>
    <defs></defs>
    <g id="Visual-cadena-de-valor-1280" stroke="none" stroke-width="1" fill="none" fill-rule="evenodd">
        <g id="Cadena-de-valor-1280" transform="translate(-157.000000, -1882.000000)" fill="#FFFFFF">
            <g id="planta" transform="translate(157.000000, 1882.000000)">
                <path d="M9.81446667,3.99750556 C6.98763333,3.99750556 4.08846667,5.01600556 1.42885556,6.94178333 L7.77777778e-05,7.97817222 L1.7038,8.44172778 C4.51157778,9.20667222 6.75157778,11.3735611 8.72868889,13.2868944 C10.7466333,15.2391167 12.6549111,17.0832278 14.8641889,17.0851722 L14.8708,17.0851722 C15.9565778,17.0851722 16.9945222,16.6503944 18.0324667,15.7648944 L19.1769667,14.4776722 C20.0185222,13.14495 20.1375222,11.51395 19.4771889,9.84172778 C18.8557444,8.26750556 17.5996333,6.81422778 15.9344111,5.75295 C14.1381333,4.60611667 12.0260778,3.99906111 9.82224444,3.99750556 L9.81446667,3.99750556 Z M9.82068889,5.55306111 C11.7266333,5.55461667 13.5513,6.07728333 15.0983,7.06467222 C16.4858556,7.94900556 17.5273,9.13822778 18.0301333,10.4133944 C18.4851333,11.5652833 18.4470222,12.6463944 17.9216333,13.5490056 L16.9451333,14.64645 C16.2260778,15.2402833 15.5463,15.5296167 14.8653556,15.5296167 C13.2825778,15.5280611 11.5959667,13.8966722 9.81018889,12.1692278 C8.01896667,10.43595 6.02474444,8.50589444 3.5098,7.42945 C5.56352222,6.19783889 7.7203,5.55306111 9.81446667,5.55306111 L9.82068889,5.55306111 L9.82068889,5.55306111 Z" id="Fill-1"></path>
                <path d="M32.9936444,0 C29.9805333,0 27.1634222,0.904166667 24.8479778,2.61761111 C22.7950333,4.13661111 21.2748667,6.237 20.6740333,8.37977778 C19.9853111,10.8328889 20.5418111,13.0507222 22.1588111,14.5148889 L23.4903667,15.4330556 C24.4902,15.9755556 25.4231444,16.2388333 26.3327556,16.2388333 L26.3350889,16.2388333 C29.3046444,16.2388333 31.2350889,13.4011111 33.2802556,10.3969444 C35.1060889,7.71477778 37.1742,4.67444444 40.2518667,3.09983333 L41.7533667,2.33294444 L40.2125889,1.64422222 C37.7816444,0.554944444 35.3534222,0.00155555556 33.0018111,0 L32.9936444,0 Z M33.0010333,1.55555556 C34.6962,1.55672222 36.4407556,1.87716667 38.2055333,2.51027778 C35.5210333,4.34 33.6625333,7.07155556 31.9903111,9.52777778 C30.1065333,12.2939444 28.4798111,14.6832778 26.3327556,14.6832778 C25.7039222,14.6832778 25.0393111,14.4935 24.3023667,14.1030556 L23.1337556,13.2972778 C22.0001444,12.2216111 21.6587,10.6287222 22.1720333,8.79977778 C22.6814778,6.98172222 23.9939778,5.18427778 25.7735333,3.86827778 C27.8175333,2.3555 30.3142,1.55555556 32.9936444,1.55555556 L33.0010333,1.55555556 L33.0010333,1.55555556 Z" id="Fill-3"></path>
                <path d="M21.2513778,35 L19.6958222,35 L19.6958222,21.9625 C19.6958222,14.6412778 14.7483778,13.0172778 14.5379889,12.9515556 L14.9894889,11.4632778 C15.0524889,11.4815556 21.2513778,13.4458333 21.2513778,21.9625 L21.2513778,35 Z" id="Fill-5"></path>
                <path d="M21.2513778,35 L19.6958222,35 L19.6958222,21.9625 C19.6958222,13.5562778 26.0619333,10.0516111 26.3326,9.90616667 L27.0672111,11.2777778 L26.7001,10.5917778 L27.0687667,11.2766111 C26.8311556,11.4053333 21.2513778,14.5125556 21.2513778,21.9625 L21.2513778,35 Z" id="Fill-7"></path>
            </g>
        </g>
    </g>
</svg>