<?xml version="1.0" encoding="UTF-8"?>
<svg width="20px" height="35px" viewBox="0 0 20 35" version="1.1" xmlns="http://www.w3.org/2000/svg" xmlns:xlink="http://www.w3.org/1999/xlink">
    <!-- Generator: Sketch 45.2 (43514) - http://www.bohemiancoding.com/sketch -->
    <title>leche</title>
    <desc>Created with Sketch.</desc>
    <defs></defs>
    <g id="Visual-cadena-de-valor-1280" stroke="none" stroke-width="1" fill="none" fill-rule="evenodd">
        <g id="Cadena-de-valor-1280" transform="translate(-280.000000, -1882.000000)" fill="#FFFFFF">
            <g id="leche" transform="translate(280.000000, 1882.000000)">
                <path d="M2.69383333,4.32677778 L17.4358333,4.32677778 L17.4358333,0 L2.69383333,0 L2.69383333,4.32677778 Z M4.25211111,2.7685 L15.8771667,2.7685 L15.8771667,1.55866667 L4.25211111,1.55866667 L4.25211111,2.7685 Z" id="Fill-1"></path>
                <path d="M13.1838,9.19835 L13.1838,34.9999611 L14.2252444,34.9999611 L19.0517444,31.3269056 L19.0517444,6.08762778 L18.4948556,5.15623889 L13.1838,9.19835 Z M14.7420778,9.97068333 L17.4934667,7.87690556 L17.4934667,30.5541833 L14.7420778,32.6487389 L14.7420778,9.97068333 Z" id="Fill-2"></path>
                <polygon id="Fill-3" points="15.9845 3.9417 17.5999444 6.69892222 18.9447222 5.91025556 17.3288889 3.15303333"></polygon>
                <path d="M2.9673,2.7685 L7.77777778e-05,9.41927778 L7.77777778e-05,10.3642778 L14.4683,10.3642778 L17.5199111,3.52527778 L17.4359111,3.38488889 L17.4359111,2.7685 L2.9673,2.7685 Z M3.9788,4.32677778 L15.4560778,4.32677778 L13.4571889,8.80522222 L1.97991111,8.80522222 L3.9788,4.32677778 Z" id="Fill-4"></path>
                <path d="M0.2737,8.8053 L-7.77777778e-05,9.41935556 L-7.77777778e-05,35.0000778 L14.2301444,35.0000778 L14.7419222,34.6100222 L14.7419222,8.8053 L0.2737,8.8053 Z M1.55858889,33.4414111 L13.1836444,33.4414111 L13.1836444,10.3643556 L1.55858889,10.3643556 L1.55858889,33.4414111 Z" id="Fill-5"></path>
            </g>
        </g>
    </g>
</svg>