<?xml version="1.0" encoding="utf-8"?>
<!-- Generator: Adobe Illustrator 21.1.0, SVG Export Plug-In . SVG Version: 6.00 Build 0)  -->
<svg version="1.1" id="Capa_1" xmlns="http://www.w3.org/2000/svg" xmlns:xlink="http://www.w3.org/1999/xlink" x="0px" y="0px"
	 viewBox="0 0 530 530" style="enable-background:new 0 0 530 530;" xml:space="preserve">
<style type="text/css">
	.st0{fill:#36A9DF;}
	.st1{opacity:0.2;fill:#36A9DF;enable-background:new    ;}
	.st2{opacity:0.8;fill:#36A9DF;enable-background:new    ;}
	.st3{opacity:0.5;fill:#36A9DF;enable-background:new    ;}
	.st4{fill:#E21F13;}
	.st5{fill:#FFFFFF;}
</style>
<g>
	<g>
		<path class="st0 event logistica-larga" d="M202,45.6L202,45.6L202,45.6L202,45.6L202,45.6l-6.9,36.7c38.7-14.8,82.3-17.5,124.6-5.1L349,53.3l-7.6-42
			c-58.5-17.7-119-14-172.5,6.8L202,45.6z"/>
		<path class="st1" d="M347.5,479.1L347.5,479.1L347.5,479.1L347.5,479.1L347.5,479.1l3.8-38.7c-2.2,1.1-4.5,2.1-6.7,3.1l-7.3,38.7
			l31.7,26.3c4.3-1.8,8.5-3.8,12.7-5.8L347.5,479.1z"/>
		<path class="st0 event clientes" d="M488,310.8l40.1-14.8c7.1-59.7-6.6-118.9-36.7-168.6L470,164.8v0.1l0,0l0,0l0,0l-37.2-0.5
			c21.6,36,31.5,78.7,26.7,121.8L488,310.8z"/>
		<path class="st2" d="M373.9,466.4l35.8,20.4c10.6-6.9,20.6-14.5,30.2-22.8l-40.6-14.6h-0.1l0,0l0,0l0,0l-6-36.7
			c-6,5.2-12.3,10-18.8,14.4L373.9,466.4z"/>
		<path class="st0 event logistica-corta" d="M357.7,56.4L357.7,56.4L357.7,56.4L357.7,56.4L357.7,56.4l-28.9,23.7c1,0.4,2,0.7,3.1,1.1
			c40.6,14.8,73.4,41.7,95.7,75.1l37.8,0.5l21.2-37.1c-30.3-46.2-75.1-83.4-131-103.7c-1.9-0.7-3.7-1.3-5.6-2L357.7,56.4z"/>
		<path class="st3" d="M365.8,471.1L365.8,471.1L365.8,471.1L365.8,471.1L365.8,471.1l0.4-38.9c-2.1,1.3-4.3,2.5-6.4,3.7l-3.9,39.2
			l33.9,23.5c4.1-2.2,8.2-4.5,12.1-6.9L365.8,471.1z"/>
		<path class="st1" d="M171.9,474.7L171.9,474.7L171.9,474.7L171.9,474.7L171.9,474.7l30.1-24.6c-1.3-0.4-2.5-0.9-3.8-1.3
			c-1.1-0.4-2.1-0.8-3.2-1.2l-32.6,22.2l3.8,41c2.7,1.1,5.4,2.2,8.2,3.2c1.6,0.6,3.2,1.1,4.9,1.7L171.9,474.7z"/>
		<path class="st0 event aprovisionamiento" d="M106.6,429.2L106.6,429.2L106.6,429.2L106.6,429.2L106.6,429.2l35.1-12.3c-33.4-27.1-56.6-64.3-66.7-105.4
			l-35.3-13.4L7.1,325.7c13.5,57,45.6,108.7,92.1,146L106.6,429.2z"/>
		<path class="st0 event consumidor" d="M486.4,320L486.4,320L486.4,320L486.4,320L486.4,320l-28.3-24.3c-1.9,12.1-5,24.2-9.4,36.1
			c-10.6,29.2-27.5,54.3-48.5,74.4l6.1,37.2l40.2,14.4c29.3-27.5,52.7-62,67.4-102.3c6.1-16.7,10.3-33.6,13-50.5L486.4,320z"/>
		<path class="st2" d="M106.5,477.3c9.6,7.2,19.8,13.8,30.5,19.7l-0.2-41.6l0,0l0,0l0,0h0.1l33.8-18.9c-7.5-4.1-14.6-8.7-21.3-13.6
			l-35.6,12.2L106.5,477.3z"/>
		<path class="st3" d="M186,443.8c-2.3-1-4.5-2-6.7-3.1L145,459.9l0.2,41.2c4.1,2.1,8.3,4.1,12.6,6l-3.8-41.4l0,0l0,0l0,0h0.1
			L186,443.8z"/>
		<path class="st0 event produccion" d="M75.8,137.4L75.8,137.4L75.8,137.4L75.8,137.4L75.8,137.4l18.3,32.5c21.2-38.2,54-67.2,92.2-84l7-37.1
			l-32.9-27.2C107.3,44.4,61.7,84.5,32.6,137.7L75.8,137.4z"/>
		<path class="st0 event logistica-produccion" d="M38.1,288.9L38.1,288.9L38.1,288.9L38.1,288.9L38.1,288.9L73,302c-6.5-33.7-4.3-69.5,8.3-104
			c2.5-6.7,5.3-13.3,8.3-19.6l-18.5-32.9l-42.7,0.2c-4.6,9.2-8.8,18.7-12.4,28.6C-1.2,221.6-4.1,270.7,5.1,316.8L38.1,288.9z"/>
	</g>
	<g>
		<g>
			<path class="st4" d="M298.2,520h-66v-66h66V520z M233.4,518.8h63.7v-63.6h-63.6v63.6H233.4z"/>
		</g>
		<g>
			<path class="st4" d="M237.6,501.2v4.7c0,1-0.8,1.9-1.9,1.9h-23.9c-1,0-1.9-0.8-1.9-1.9v-9.8v-28c0-1,0.8-1.9,1.9-1.9h23.9
				c1,0,1.9,0.8,1.9,1.9v4.7h55.3v-4.7c0-1,0.8-1.9,1.9-1.9h23.9c1,0,1.9,0.8,1.9,1.9v26.7v11.1c0,1-0.8,1.9-1.9,1.9h-23.9
				c-1,0-1.9-0.8-1.9-1.9v-4.7L237.6,501.2L237.6,501.2z"/>
			<g>
				<path class="st5" d="M313.6,473.8c0,0.6,0.5,1.1,1.1,1.1s1.1-0.5,1.1-1.1s-0.5-1.1-1.1-1.1S313.6,473.2,313.6,473.8z
					 M315.6,473.8c0,0.5-0.4,0.9-0.9,0.9s-0.9-0.4-0.9-0.9s0.4-0.9,0.9-0.9S315.6,473.3,315.6,473.8z M314.3,474.5h0.2v-0.6h0.2
					l0.4,0.6h0.2l-0.4-0.6c0.2,0,0.3-0.1,0.3-0.4c0-0.2-0.1-0.4-0.4-0.4h-0.5L314.3,474.5L314.3,474.5z M314.5,473.4h0.3
					c0.1,0,0.2,0.1,0.2,0.2s-0.1,0.2-0.3,0.2h-0.2V473.4z"/>
				<g>
					<path class="st5" d="M227.8,485.7c-1.6,1.2-3.6,1.7-6.1,1.7h-1.4v6.7c0,0.5-0.2,0.7-0.8,0.7h-2.4c-0.5,0-0.7-0.2-0.7-0.8v-19.4
						c0-0.6,0.2-0.8,0.8-0.8h4.4c3.2,0,5.6,0.6,7.1,2.3c1,1.1,1.5,2.7,1.5,4.3C230.2,482.8,229.3,484.6,227.8,485.7z M221.9,476.8
						h-1.6v7.6h0.8c1.8,0,3.2-0.1,4.2-1.1c0.6-0.6,0.9-1.5,0.9-2.7C226.3,477.8,224.6,476.8,221.9,476.8z"/>
					<path class="st5" d="M246.4,494.2c0,0.4-0.2,0.6-0.6,0.6h-1.5c-1.6,0-2.3-0.8-2.5-1.8h-0.1c-0.9,1.2-2.7,2.2-4.4,2.2
						c-4.3,0-6.2-3.5-6.2-7.5c0-5.3,3.2-8,6.6-8c1.6,0,3.1,0.7,3.9,1.8l0.1-0.8c0-0.3,0.3-0.5,0.6-0.5h2.1c0.4,0,0.6,0.2,0.6,0.7
						v10.7c0,0.5,0.1,0.8,0.5,0.8h0.2c0.4,0,0.5,0.1,0.5,0.5v1.3L246.4,494.2L246.4,494.2z M241.4,484.2c-0.6-0.9-1.9-1.6-3-1.6
						c-1.9,0-3.4,1.6-3.4,4.8c0,2.6,1,4.7,3.2,4.7c1.5,0,2.8-1.1,3.2-2.1V484.2L241.4,484.2z"/>
					<path class="st5" d="M253,495.2c-1.6,0-3.3-0.5-4.7-1.1c-0.3-0.2-0.5-0.4-0.3-0.7l0.5-1.7c0.1-0.4,0.4-0.5,0.7-0.3
						c1.4,0.6,2.8,0.9,3.8,0.9c1.3,0,2.3-0.6,2.3-1.6c0-0.9-0.6-1.3-1.8-1.8l-2.4-0.9c-1.7-0.6-3.1-2-3.1-4c0-3,2.8-4.3,5.5-4.3
						c1.5,0,2.9,0.2,4.4,0.9c0.4,0.2,0.4,0.4,0.3,0.7l-0.5,1.6c-0.1,0.4-0.4,0.4-0.7,0.3c-1-0.4-2.3-0.7-3.3-0.7
						c-1.3,0-1.9,0.7-1.9,1.4c0,0.7,0.3,1.1,1.5,1.5l2.7,1.1c1.6,0.7,2.9,1.9,2.9,3.9C258.9,493.6,256.1,495.2,253,495.2z"/>
					<path class="st5" d="M271.4,491.6c0.3-0.1,0.6-0.1,0.7,0.2l0.4,1.5c0.1,0.5,0.1,0.7-0.4,0.9c-1.5,0.7-2.8,0.9-4.4,0.9
						c-4.7,0-7.3-2.9-7.3-7.6s2.8-7.9,7.5-7.9c1.4,0,2.8,0.3,4.1,0.9c0.4,0.2,0.4,0.4,0.3,0.8l-0.4,1.6c-0.1,0.3-0.3,0.5-0.7,0.3
						c-0.9-0.4-1.9-0.7-2.9-0.7c-2.6,0-4.1,1.9-4.1,4.8s1.3,4.9,4,4.9C269.5,492.3,270.3,492.1,271.4,491.6z"/>
					<path class="st5" d="M287.5,494c0,0.6-0.2,0.9-0.8,0.9h-1.9c-0.4,0-0.7-0.2-0.7-0.6v-0.8c-1.4,1.1-3.1,1.7-4.8,1.7
						c-3.4,0-4.8-2.2-4.8-5.4v-9c0-0.5,0.3-0.7,0.8-0.7h2.1c0.5,0,0.8,0.2,0.8,0.7v8.3c0,1.7,0.4,2.8,2.2,2.8c1.2,0,2.6-0.6,3.5-1.5
						v-9.7c0-0.5,0.3-0.7,0.8-0.7h2.2c0.5,0,0.8,0.2,0.8,0.7V494L287.5,494L287.5,494z"/>
					<path class="st5" d="M305.3,494.2c0,0.4-0.2,0.6-0.6,0.6h-1.5c-1.6,0-2.3-0.8-2.5-1.8h-0.1c-0.9,1.2-2.7,2.2-4.4,2.2
						c-4.3,0-6.2-3.5-6.2-7.5c0-5.3,3.2-8,6.6-8c1.6,0,3.1,0.7,3.9,1.8l0.1-0.8c0-0.3,0.3-0.5,0.6-0.5h2.1c0.4,0,0.6,0.2,0.6,0.7
						v10.7c0,0.5,0.1,0.8,0.5,0.8h0.2c0.4,0,0.5,0.1,0.5,0.5v1.3L305.3,494.2L305.3,494.2z M300.3,484.2c-0.6-0.9-1.9-1.6-3-1.6
						c-1.9,0-3.4,1.6-3.4,4.8c0,2.6,1,4.7,3.2,4.7c1.5,0,2.8-1.1,3.2-2.1L300.3,484.2L300.3,484.2z"/>
					<path class="st5" d="M311,494c0,0.5-0.2,0.8-0.7,0.8H308c-0.4,0-0.7-0.2-0.7-0.7v-19.9c0-0.5,0.1-0.8,0.6-0.8l2.5-0.3
						c0.3,0,0.6,0.1,0.6,0.5V494z"/>
				</g>
			</g>
		</g>
		<g>
			<path class="st4" d="M253,466.5c0.1,0.2,0,0.3-0.2,0.3c-0.7,0.3-1.4,0.5-2.2,0.5c-2.4,0-3.5-1.7-3.5-4s1.4-4.1,3.6-4.1
				c0.8,0,1.5,0.2,2.1,0.5c0.2,0.1,0.2,0.1,0.1,0.3l-0.3,0.7c0,0.1-0.1,0.2-0.3,0.1c-0.6-0.3-1.1-0.4-1.6-0.4
				c-1.6,0-2.2,1.4-2.2,2.8c0,1.7,0.8,2.8,2.2,2.8c0.5,0,1.1-0.1,1.6-0.4c0.1-0.1,0.2-0.1,0.3,0.1L253,466.5z"/>
			<path class="st4" d="M259.3,467c0,0.1-0.1,0.2-0.2,0.2h-0.5c-0.6,0-0.8-0.3-0.9-0.7l0,0c-0.3,0.5-1,0.8-1.6,0.8
				c-1.6,0-2.3-1.3-2.3-2.8c0-1.9,1.2-3,2.4-3c0.6,0,1.2,0.3,1.4,0.7v-0.3c0-0.1,0.1-0.2,0.2-0.2h0.8c0.1,0,0.2,0.1,0.2,0.2v4
				c0,0.2,0,0.3,0.2,0.3h0.1c0.1,0,0.2,0,0.2,0.2L259.3,467L259.3,467z M257.4,463.3c-0.2-0.3-0.7-0.6-1.1-0.6
				c-0.7,0-1.3,0.6-1.3,1.8c0,0.9,0.4,1.7,1.2,1.7c0.6,0,1-0.4,1.2-0.8V463.3L257.4,463.3z"/>
			<path class="st4" d="M261.6,466.9c0,0.2-0.1,0.3-0.2,0.3h-0.9c-0.2,0-0.3-0.1-0.3-0.3v-7.4c0-0.2,0-0.3,0.2-0.3l0.9-0.1
				c0.1,0,0.2,0,0.2,0.2L261.6,466.9L261.6,466.9z"/>
			<path class="st4" d="M263.8,461c-0.4,0-0.8-0.2-0.8-0.7s0.4-0.7,0.8-0.7s0.8,0.3,0.8,0.7C264.6,460.8,264.2,461,263.8,461z
				 M264.5,466.9c0,0.2-0.1,0.3-0.3,0.3h-0.8c-0.2,0-0.3-0.1-0.3-0.3V462c0-0.2,0.1-0.3,0.3-0.3h0.8c0.2,0,0.3,0.1,0.3,0.3V466.9z"
				/>
			<path class="st4" d="M270.8,466.9c0,0.2-0.1,0.3-0.2,0.3h-0.7c-0.2,0-0.3-0.1-0.3-0.2v-0.3c-0.3,0.4-0.9,0.7-1.5,0.7
				c-1.6,0-2.4-1.3-2.4-2.8c0-1.6,0.9-2.9,2.5-2.9c0.5,0,1,0.2,1.4,0.5v-2.5c0-0.2,0-0.3,0.2-0.3l0.9-0.1c0.1,0,0.2,0,0.2,0.2v7.4
				L270.8,466.9L270.8,466.9z M269.5,463.3c-0.2-0.3-0.7-0.6-1.1-0.6c-0.9,0-1.3,0.8-1.3,1.8c0,0.9,0.3,1.8,1.2,1.8
				c0.4,0,0.9-0.3,1.1-0.6L269.5,463.3L269.5,463.3z"/>
			<path class="st4" d="M277.6,467c0,0.1-0.1,0.2-0.2,0.2h-0.5c-0.6,0-0.8-0.3-0.9-0.7l0,0c-0.3,0.5-1,0.8-1.6,0.8
				c-1.6,0-2.3-1.3-2.3-2.8c0-1.9,1.2-3,2.4-3c0.6,0,1.2,0.3,1.4,0.7v-0.3c0-0.1,0.1-0.2,0.2-0.2h0.8c0.1,0,0.2,0.1,0.2,0.2v4
				c0,0.2,0,0.3,0.2,0.3h0.1c0.1,0,0.2,0,0.2,0.2L277.6,467L277.6,467z M275.7,463.3c-0.2-0.3-0.7-0.6-1.1-0.6
				c-0.7,0-1.3,0.6-1.3,1.8c0,0.9,0.4,1.7,1.2,1.7c0.5,0,1-0.4,1.2-0.8L275.7,463.3L275.7,463.3z"/>
			<path class="st4" d="M283.4,466.9c0,0.2-0.1,0.3-0.2,0.3h-0.7c-0.2,0-0.3-0.1-0.3-0.2v-0.3c-0.3,0.4-0.9,0.7-1.5,0.7
				c-1.6,0-2.4-1.3-2.4-2.8c0-1.6,0.9-2.9,2.5-2.9c0.5,0,1,0.2,1.4,0.5v-2.5c0-0.2,0-0.3,0.2-0.3l0.9-0.1c0.1,0,0.2,0,0.2,0.2v7.4
				L283.4,466.9L283.4,466.9z M282,463.3c-0.2-0.3-0.7-0.6-1.1-0.6c-0.9,0-1.3,0.8-1.3,1.8c0,0.9,0.3,1.8,1.3,1.8
				c0.4,0,0.9-0.3,1.1-0.6V463.3z"/>
		</g>
	</g>
	<g>
		<g>
			<path class="st5" d="M42.2,321l0,0.2c0.1,0.2,0.1,0.4,0.4,0.4l9.2,0.9l0.3,1l-7.6,5.3c-0.2,0.2-0.2,0.3-0.2,0.6l0,0.2l-0.8,0.2
				l-0.1-0.4c-0.2-0.7-0.1-0.9,0.5-1.3l2-1.4l-1-3.8l-2.5-0.3c-0.7-0.1-0.9-0.2-1.1-0.9l-0.1-0.4L42.2,321z M46.7,326.2l3.1-2.1
				c0.4-0.3,1.1-0.7,1.1-0.7l0,0c0,0-0.8,0-1.3,0l-3.7-0.4L46.7,326.2z"/>
			<path class="st5" d="M49.7,329.7c0.2-0.1,0.3-0.2,0.2-0.4l-0.2-0.6l0.8-0.2l0.3,0.9c0.2,0.6,0,0.9-0.5,1
				c-0.3,0.1-0.5,0.1-0.5,0.1l0,0c0,0,1.5,0.1,2,1.9c0.5,1.8-0.6,3.4-2.7,4c-2.1,0.6-3.9-0.2-4.4-2c-0.5-1.6,0.6-2.6,0.6-2.6l0,0
				c0,0-0.2,0.1-0.6,0.2l-3.2,1l-0.3-0.9L49.7,329.7z M45.6,334.2c0.4,1.2,1.7,1.9,3.4,1.4c1.6-0.5,2.4-1.7,2.1-2.9
				c-0.3-1.1-1.5-1.9-3.4-1.4C46.3,331.7,45.2,332.8,45.6,334.2z"/>
			<path class="st5" d="M52.1,337.5c0.2-0.1,0.3-0.2,0.2-0.4l-0.2-0.6l0.8-0.3l0.3,0.9c0.2,0.6,0,0.9-0.5,1.1l-0.5,0.1
				c-0.3,0.1-0.5,0.1-0.5,0.1l0,0c1.1,0,2.1,0.5,2.5,1.5c0.1,0.2,0.1,0.4,0.1,0.4l-0.9,0.3c0,0,0-0.2-0.1-0.3
				c-0.3-0.9-1.3-1.4-2.4-1.4c-0.5,0-0.9,0.1-1.4,0.2l-2.8,0.9l-0.3-0.9L52.1,337.5z"/>
			<path class="st5" d="M55.9,344.5c0.7,1.9-0.2,4-2.2,4.8c-2,0.7-4.1-0.3-4.8-2.2c-0.7-1.9,0.2-4,2.2-4.8
				C53.2,341.6,55.2,342.6,55.9,344.5z M49.8,346.8c0.5,1.4,2.1,2.1,3.6,1.6c1.5-0.5,2.2-2.1,1.7-3.5c-0.5-1.4-2.1-2.2-3.6-1.6
				C50,343.8,49.3,345.3,49.8,346.8z"/>
			<path class="st5" d="M56.4,349.6c0.2-0.2,0.2-0.3,0.1-0.6l0-0.1l0.8-0.3l0.1,0.4c0.3,0.6,0.2,0.9-0.3,1.3l-3.4,3.2
				c-0.3,0.2-0.7,0.5-0.7,0.5l0,0c0,0,0.5-0.1,0.9-0.1l4.7-0.1c0.7,0,0.9,0.1,1.1,0.7l0.1,0.3l-0.8,0.3l0-0.1
				c-0.1-0.2-0.2-0.3-0.5-0.3l-6.3,0.1l-0.4-1L56.4,349.6z"/>
			<path class="st5" d="M59.4,356.7c0.2-0.1,0.2-0.2,0.2-0.4l-0.2-0.5l0.8-0.3l0.4,0.9c0.2,0.6,0.1,0.9-0.4,1.1l-4.6,2
				c-0.2,0.1-0.2,0.2-0.2,0.4l0.2,0.5l-0.8,0.3l-0.4-0.9c-0.2-0.6-0.1-0.9,0.4-1.1L59.4,356.7z M63,355.1l0.4,0.8l-1.1,0.5l-0.4-0.8
				L63,355.1z"/>
			<path class="st5" d="M56.8,361.4c0,0-0.6,1.2-0.1,2.4c0.3,0.7,1,1.2,1.6,0.9c1.4-0.6-0.5-4.1,1.6-5.1c1.2-0.5,2.2,0.2,2.8,1.5
				c0.3,0.6,0.6,2.1-0.3,2.5l-0.5,0.3l-0.4-0.8l0.3-0.1c0.5-0.2,0.3-1,0.1-1.4c-0.4-0.9-1-1.3-1.6-1c-1.4,0.7,0.5,4.1-1.6,5.1
				c-1.1,0.5-2.2-0.1-2.8-1.4c-0.8-1.7,0-3,0-3L56.8,361.4z"/>
			<path class="st5" d="M63.4,365.6c0.2-0.1,0.2-0.2,0.1-0.4l-0.3-0.5l0.7-0.4l0.4,0.9c0.3,0.5,0.1,0.9-0.4,1.1l-4.5,2.2
				c-0.2,0.1-0.2,0.2-0.1,0.4l0.3,0.5l-0.7,0.4l-0.4-0.9c-0.3-0.5-0.1-0.9,0.4-1.1L63.4,365.6z M66.9,363.8l0.4,0.8l-1.1,0.5
				l-0.4-0.8L66.9,363.8z"/>
			<path class="st5" d="M67.5,370.8c0.9,1.8,0.3,4-1.5,5c-1.9,1-4.1,0.2-5-1.6c-1-1.8-0.3-4,1.6-5C64.4,368.2,66.5,368.9,67.5,370.8
				z M61.7,373.8c0.7,1.3,2.4,1.9,3.8,1.1c1.4-0.7,1.9-2.4,1.2-3.7c-0.7-1.3-2.3-1.9-3.7-1.1C61.5,370.8,61,372.4,61.7,373.8z"/>
			<path class="st5" d="M68.9,376.2c0.2-0.1,0.2-0.2,0.1-0.4l-0.3-0.5l0.7-0.4l0.5,0.9c0.3,0.5,0.2,0.9-0.3,1.1l-0.3,0.2
				c-0.2,0.1-0.5,0.2-0.5,0.2l0,0c0.7-0.1,2.1,0.1,2.9,1.6c0.9,1.5,0.3,2.5-1.2,3.4l-2.9,1.7c-0.2,0.1-0.2,0.2-0.1,0.4l0.3,0.5
				l-0.7,0.4l-0.5-0.9c-0.3-0.5-0.2-0.9,0.3-1.2l2.9-1.7c1-0.5,1.7-1.2,1.1-2.4c-0.6-1-1.8-1.5-3-1.2c-0.3,0.1-0.6,0.2-0.9,0.4
				l-2.9,1.7l-0.5-0.8L68.9,376.2z"/>
			<path class="st5" d="M73.7,387.5l0.2,0.3l0.1,0c1.3-0.8,1.4-1.5,0.7-2.6c-0.2-0.3-0.8-1.1-1.2-0.8l-0.4,0.2l-0.5-0.8l0.6-0.4
				c0.8-0.5,1.9,0.8,2.2,1.3c1.2,1.9,0.4,3-0.9,3.8l-2.9,1.8c-0.2,0.1-0.2,0.3-0.1,0.4l0.3,0.5l-0.7,0.4l-0.5-0.8
				c-0.3-0.5-0.2-0.9,0.3-1.2c0.3-0.2,0.4-0.3,0.4-0.3l0,0c0,0-1.6,0.3-2.5-1.2c-0.6-1-0.7-2.4,0.5-3.1
				C71.4,383.9,73.1,386.5,73.7,387.5z M69.7,388c0.7,1.1,2.3,1.1,3.4,0.5l0.3-0.2l-0.2-0.3c-0.6-0.9-1.8-2.8-3.1-2
				C69.4,386.3,69.1,387.1,69.7,388z"/>
			<path class="st5" d="M77.1,389.9c0.2-0.1,0.2-0.3,0.1-0.4l-0.3-0.5l0.7-0.5l0.6,0.8c0.3,0.5,0.3,0.8-0.2,1.1l-0.3,0.2
				c-0.2,0.2-0.4,0.3-0.4,0.3l0,0c1-0.2,2.3,0.2,2.9,1.1c0.7,1.1,0.6,2-0.2,2.8l0,0c1-0.2,2.2,0.2,2.9,1.1c1,1.4,0.5,2.5-0.9,3.5
				l-2.8,1.9c-0.2,0.1-0.2,0.3-0.1,0.4l0.3,0.5l-0.7,0.5l-0.6-0.8c-0.3-0.5-0.3-0.8,0.2-1.2l2.8-1.9c0.9-0.6,1.6-1.4,0.9-2.4
				c-0.6-0.9-1.9-1.1-2.9-0.7c-0.3,0.1-0.6,0.3-0.9,0.5l-2.8,1.9l-0.5-0.8l3.5-2.4c0.9-0.6,1.6-1.3,0.9-2.4c-0.6-0.9-1.9-1.1-3-0.7
				c-0.3,0.1-0.6,0.3-0.8,0.4l-2.8,1.9l-0.5-0.8L77.1,389.9z"/>
			<path class="st5" d="M87.2,402.1c1.2,1.6,0.6,3.3-0.8,4.3c-0.1,0.1-0.4,0.3-0.4,0.3l-3.2-4.3c-1.4,1.1-1.5,2.7-0.6,3.9
				c0.8,1,2,1.2,2,1.2l-0.3,0.8c0,0-1.4-0.2-2.4-1.5c-1.3-1.7-1-3.9,0.7-5.2C84,400.2,86.1,400.6,87.2,402.1z M86,405.5
				c1.1-0.9,1.2-2.1,0.5-2.9c-0.7-0.9-1.9-1.3-3.2-0.6L86,405.5z"/>
			<path class="st5" d="M89.1,406.8c0.2-0.1,0.2-0.3,0-0.4l-0.4-0.5l0.6-0.5l0.6,0.8c0.4,0.5,0.3,0.8-0.1,1.2l-0.2,0.2
				c-0.2,0.2-0.4,0.3-0.4,0.3l0,0c0.7-0.2,2.1-0.2,3.1,1.1c1.1,1.4,0.7,2.5-0.6,3.6l-2.6,2.1c-0.2,0.1-0.2,0.3,0,0.4l0.4,0.5
				l-0.6,0.5l-0.6-0.8c-0.4-0.5-0.3-0.8,0.1-1.2l2.6-2.1c0.9-0.7,1.5-1.4,0.7-2.5c-0.8-0.9-2.1-1.2-3.2-0.7
				c-0.3,0.1-0.5,0.3-0.8,0.5l-2.6,2.1l-0.6-0.7L89.1,406.8z"/>
			<path class="st5" d="M94.8,413.2l-0.6-0.7l0.6-0.5l0.6,0.7l1.5-1.3l0.6,0.7l-1.5,1.3l1.1,1.3l-0.6,0.5l-1.1-1.3l-2.7,2.3
				c-1.3,1.1-0.7,2-0.4,2.4c0.1,0.1,0.2,0.2,0.2,0.2l-0.6,0.6c0,0-0.1-0.1-0.3-0.3c-0.5-0.6-1.4-2,0.4-3.6L94.8,413.2z"/>
			<path class="st5" d="M100.5,418.2c1.4,1.5,1.4,3.8-0.2,5.2c-1.6,1.4-3.9,1.3-5.3-0.2c-1.4-1.5-1.3-3.8,0.2-5.3
				C96.9,416.5,99.1,416.6,100.5,418.2z M95.7,422.6c1,1.1,2.8,1.2,4,0.1c1.2-1.1,1.2-2.8,0.2-3.9c-1-1.1-2.7-1.2-3.9-0.2
				C94.8,419.7,94.7,421.4,95.7,422.6z"/>
		</g>
		<g>
			<path class="st5" d="M95,109.5l-0.6,0.7l-0.6-0.6l2.9-3c1.2-1.3,2.9-1.4,4.2-0.1c1.3,1.3,1.3,3,0.1,4.3l-1.6,1.6l2.8,2.7
				l-0.7,0.7L95,109.5z M100.2,110.2c0.9-0.9,0.9-2.1-0.1-3c-1-0.9-2.1-0.8-3,0.1l-1.5,1.6l3.1,2.9L100.2,110.2z"/>
			<path class="st5" d="M102.7,105.9c-0.1-0.1-0.3-0.1-0.4,0l-0.4,0.4l-0.6-0.6l0.7-0.7c0.4-0.4,0.8-0.4,1.2,0l0.3,0.3
				c0.2,0.2,0.4,0.4,0.4,0.4l0,0c-0.5-1-0.5-2.1,0.3-2.9c0.1-0.1,0.3-0.2,0.3-0.2l0.7,0.7c0,0-0.1,0.1-0.3,0.2
				c-0.7,0.7-0.7,1.8-0.2,2.7c0.2,0.4,0.5,0.8,0.8,1.1l2.1,2.1l-0.7,0.7L102.7,105.9z"/>
			<path class="st5" d="M107.6,99.5c1.5-1.4,3.8-1.4,5.2,0.1c1.5,1.6,1.3,3.9-0.2,5.3c-1.5,1.4-3.8,1.4-5.3-0.2
				C105.9,103.1,106.1,100.9,107.6,99.5z M112,104.2c1.1-1,1.2-2.8,0-4c-1.1-1.2-2.8-1.2-3.9-0.2c-1.1,1-1.2,2.7-0.1,3.9
				C109.2,105.2,110.9,105.3,112,104.2z"/>
			<path class="st5" d="M113.7,94c1.3-1.1,2.6-0.5,2.6-0.5l0,0c0,0-0.2-0.2-0.4-0.4l-1.5-1.7c-0.1-0.1-0.3-0.2-0.4,0l-0.4,0.4
				l-0.5-0.6l0.8-0.6c0.5-0.4,0.8-0.4,1.2,0.1l5.1,5.9c0.1,0.2,0.3,0.2,0.4,0l0.4-0.4l0.5,0.6l-0.7,0.6c-0.4,0.4-0.8,0.3-1.1,0
				c-0.2-0.2-0.3-0.4-0.3-0.4l0,0c0,0,0.5,1.4-0.9,2.6c-1.4,1.2-3.3,0.9-4.7-0.8C112.2,97.2,112.3,95.2,113.7,94z M117.8,95.3
				c-0.9-1.1-2.4-1.7-3.5-0.7c-0.9,0.8-1,2.3,0.1,3.6c1.1,1.3,2.5,1.6,3.5,0.7C118.9,98.1,119.1,96.8,117.8,95.3z"/>
			<path class="st5" d="M119,91.2c-0.1-0.2-0.3-0.2-0.4,0l-0.5,0.4l-0.5-0.6l0.8-0.6c0.5-0.4,0.8-0.3,1.2,0.1l2.1,2.7
				c0.7,0.9,1.4,1.5,2.5,0.7c1.2-1,1.1-2.7,0.2-3.9l-2.1-2.6l0.7-0.6l3.7,4.6c0.1,0.2,0.3,0.2,0.4,0l0.5-0.4l0.5,0.6l-0.8,0.6
				c-0.5,0.4-0.8,0.3-1.2-0.1l-0.2-0.3c-0.2-0.2-0.3-0.4-0.3-0.4l0,0c0.2,0.7,0.2,2.1-1,3.1c-1.3,1-2.4,0.8-3.6-0.6L119,91.2z"/>
			<path class="st5" d="M127.3,83c0.6-0.5,2.2-1.2,2.9-0.3l0.4,0.5l-0.7,0.5l-0.2-0.3c-0.4-0.5-1.3-0.1-1.8,0.3
				c-1.2,0.9-1.5,2.5-0.5,3.9c1,1.4,2.7,1.5,3.9,0.6c1.2-0.9,1.2-2.2,1.2-2.2l0.8,0.3c0,0-0.1,1.5-1.5,2.6l0.3,0.5
				c0.5-0.3,1-0.2,1.4,0.2c0.5,0.7,0.1,1.3-0.4,1.7c-0.3,0.2-0.6,0.4-0.6,0.4l-0.4-0.5c0,0,0.3-0.1,0.5-0.3c0.3-0.2,0.5-0.5,0.3-0.8
				c-0.2-0.2-0.5-0.2-0.9,0.1c-0.1,0.1-0.2,0.1-0.2,0.1l-0.5-1.1c-1.6,0.9-3.4,0.5-4.6-1.1C125.3,86.5,125.7,84.3,127.3,83z"/>
			<path class="st5" d="M130.7,77.3c0.8-0.5,1.5,0.2,2-0.2c0.4-0.3,0.1-0.8-0.1-1.1l0.6-0.4c0.6,0.9,0.6,1.6-0.1,2.1
				c-0.8,0.5-1.5-0.2-2,0.2c-0.4,0.3-0.1,0.8,0.1,1.1l-0.6,0.4C129.9,78.5,130,77.8,130.7,77.3z M135.6,80.6l0.3-0.2l0-0.1
				c-0.8-1.2-1.6-1.3-2.6-0.6c-0.3,0.2-1.1,0.9-0.8,1.3l0.3,0.4l-0.7,0.5l-0.4-0.6c-0.6-0.8,0.7-1.9,1.2-2.3
				c1.8-1.3,2.9-0.6,3.8,0.6l1.9,2.8c0.1,0.2,0.3,0.2,0.4,0.1l0.5-0.3l0.5,0.7l-0.8,0.6c-0.5,0.3-0.8,0.3-1.2-0.2
				c-0.2-0.3-0.3-0.4-0.3-0.4l0,0c0,0,0.4,1.6-1,2.6c-1,0.7-2.4,0.8-3.2-0.3C132.1,83.2,134.6,81.3,135.6,80.6z M136.3,84.7
				c1.1-0.8,1-2.4,0.3-3.4l-0.2-0.3l-0.3,0.2c-0.9,0.6-2.7,1.9-1.8,3.2C134.6,85,135.4,85.3,136.3,84.7z"/>
			<path class="st5" d="M139.8,74.4c1.7-1.1,4-0.7,5.1,1c1.2,1.8,0.6,4-1.1,5.1c-1.7,1.1-4,0.7-5.1-1.1
				C137.5,77.7,138.1,75.5,139.8,74.4z M143.3,79.9c1.3-0.8,1.6-2.5,0.7-3.9c-0.9-1.3-2.5-1.7-3.8-0.9c-1.3,0.8-1.7,2.5-0.8,3.8
				C140.4,80.3,142.1,80.7,143.3,79.9z"/>
		</g>
		<g>
			<path class="st5" d="M40.5,261.2c0.1-1.6,1.3-2.1,1.3-2.1l0,0c0,0-0.2,0-0.5,0l-2.1-0.1c-0.2,0-0.3,0.1-0.3,0.3l0,0.5l-0.8,0
				l0-0.9c0-0.6,0.3-0.8,0.8-0.8l7.3,0.2c0.2,0,0.3-0.1,0.3-0.3l0-0.5l0.8,0l0,0.9c0,0.5-0.3,0.8-0.8,0.8c-0.2,0-0.4,0-0.4,0l0,0
				c0,0,1.3,0.6,1.2,2.3c-0.1,1.8-1.5,2.8-3.5,2.7C41.8,264.1,40.5,262.9,40.5,261.2z M44,259.1c-1.3,0-2.6,0.6-2.7,2
				c0,1.2,0.9,2.1,2.6,2.2c1.6,0.1,2.7-0.8,2.7-2C46.6,260.2,45.9,259.2,44,259.1z"/>
			<path class="st5" d="M40.9,253.1c0.1-1.8,1.6-2.6,3.2-2.5c0.2,0,0.4,0.1,0.4,0.1l-0.3,5c1.6,0.1,2.7-1,2.8-2.4
				c0.1-1.2-0.7-2-0.7-2l0.7-0.4c0,0,0.9,1,0.8,2.5c-0.1,1.9-1.6,3.3-3.6,3.2C42,256.4,40.8,254.9,40.9,253.1z M43.8,251.5
				c-1.4,0-2.1,0.7-2.1,1.7c-0.1,1.1,0.6,2.1,1.9,2.4L43.8,251.5z"/>
			<path class="st5" d="M42.8,245c-0.2,0-0.3,0.1-0.3,0.3l-0.1,0.5l-0.8-0.1l0.1-0.9c0.1-0.6,0.3-0.7,0.8-0.7c0.3,0,0.4,0.1,0.4,0.1
				l0,0c0,0-1.2-0.7-1-2.4c0.2-1.7,1.7-2.7,3.7-2.4c2.1,0.2,3.3,1.6,3.1,3.3c-0.2,1.6-1.5,2-1.5,2l0,0c0,0,0.2,0,0.6,0l3.1,0.4
				l-0.1,0.9L42.8,245z M48,242.7c0.1-1.1-0.7-2.2-2.4-2.4c-1.6-0.2-2.7,0.5-2.8,1.8c-0.1,1.1,0.5,2.2,2.4,2.4
				C46.4,244.6,47.8,244,48,242.7z"/>
			<path class="st5" d="M43.8,237.4c-0.2,0-0.3,0.1-0.3,0.2l-0.1,0.5l-0.8-0.1l0.1-0.9c0.1-0.5,0.3-0.8,0.8-0.7l0.4,0.1
				c0.3,0,0.5,0.1,0.5,0.1l0,0c-0.9-0.5-1.6-1.3-1.4-2.3c0-0.2,0.1-0.3,0.1-0.3l0.9,0.1c0,0,0,0.2-0.1,0.3c-0.1,0.9,0.5,1.7,1.4,2.1
				c0.4,0.2,0.8,0.3,1.2,0.4l2.7,0.4l-0.1,0.9L43.8,237.4z"/>
			<path class="st5" d="M43.7,229.9c0.3-1.9,2-3.2,3.9-2.8c1.9,0.3,3.1,2.1,2.8,4c-0.3,1.9-2.1,3.2-4,2.8
				C44.6,233.5,43.4,231.7,43.7,229.9z M49.7,230.9c0.2-1.4-0.7-2.7-2.2-3c-1.5-0.3-2.7,0.7-3,2.1c-0.2,1.4,0.7,2.7,2.1,3
				C48.1,233.2,49.5,232.3,49.7,230.9z"/>
			<path class="st5" d="M45.2,222.4c0.3-1.6,1.6-1.8,1.6-1.8l0,0c0,0-0.2,0-0.5-0.1l-2.1-0.4c-0.2,0-0.3,0-0.3,0.2l-0.1,0.5
				l-0.8-0.2l0.2-0.9c0.1-0.5,0.4-0.7,0.9-0.6l7.1,1.5c0.2,0,0.3,0,0.3-0.2l0.1-0.5l0.8,0.2l-0.2,0.9c-0.1,0.5-0.4,0.7-0.9,0.6
				c-0.2-0.1-0.4-0.1-0.4-0.1l0,0c0,0,1.2,0.8,0.8,2.5c-0.4,1.7-2,2.5-3.9,2.1C45.9,225.5,44.8,224.1,45.2,222.4z M49,221
				c-1.3-0.3-2.7,0.1-3,1.5c-0.2,1.1,0.5,2.3,2.1,2.6c1.6,0.3,2.8-0.3,3-1.5C51.3,222.5,50.8,221.4,49,221z"/>
			<path class="st5" d="M47.5,217.4c-0.2,0-0.3,0-0.3,0.2l-0.1,0.5l-0.7-0.2l0.2-0.9c0.1-0.5,0.4-0.7,0.9-0.6l3.1,0.8
				c1,0.2,1.9,0.3,2.2-0.9c0.4-1.4-0.7-2.6-2.1-3l-3-0.8l0.2-0.9l5.3,1.3c0.2,0,0.3,0,0.3-0.2l0.1-0.5l0.7,0.2l-0.2,0.9
				c-0.1,0.5-0.4,0.7-0.9,0.6l-0.3-0.1c-0.3-0.1-0.4-0.1-0.4-0.1l0,0c0.6,0.4,1.3,1.5,1,2.9c-0.4,1.5-1.3,1.9-3,1.5L47.5,217.4z"/>
			<path class="st5" d="M49.1,206.6c0.2-0.7,0.9-2.2,2-1.9l0.6,0.2l-0.2,0.8l-0.4-0.1c-0.5-0.1-1,0.7-1.2,1.2
				c-0.4,1.4,0.3,2.7,1.8,3.2c1.6,0.4,2.8-0.4,3.2-1.8c0.4-1.3-0.3-2.3-0.3-2.3l0.8-0.2c0,0,0.8,1.1,0.3,2.8l0.5,0.3
				c0.2-0.5,0.6-0.8,1.1-0.6c0.7,0.2,0.8,0.9,0.6,1.5c-0.1,0.4-0.2,0.6-0.2,0.6l-0.6-0.2c0,0,0.1-0.2,0.2-0.5
				c0.1-0.3,0.1-0.7-0.2-0.8c-0.3-0.1-0.5,0.2-0.6,0.6c0,0.1,0,0.2,0,0.2l-1-0.5c-0.7,1.5-2.3,2.3-4,1.8
				C49.5,210.3,48.5,208.5,49.1,206.6z"/>
			<path class="st5" d="M48.3,200.5c0.3-0.8,1.2-0.7,1.4-1.3c0.1-0.4-0.4-0.7-0.7-0.8l0.2-0.7c1,0.3,1.3,0.9,1.1,1.6
				c-0.3,0.8-1.2,0.7-1.4,1.3c-0.1,0.4,0.4,0.7,0.7,0.8l-0.2,0.6C48.5,201.8,48.1,201.3,48.3,200.5z M53.8,200.1l0.1-0.3l-0.1,0
				c-1.3-0.4-1.9-0.1-2.3,1.1c-0.1,0.3-0.3,1.2,0.2,1.4l0.4,0.1l-0.3,0.8l-0.6-0.2c-0.9-0.3-0.6-1.8-0.4-2.4c0.6-2,1.8-2.1,3.2-1.7
				l3,0.9c0.2,0.1,0.3,0,0.4-0.2l0.2-0.5l0.7,0.2l-0.3,0.9c-0.2,0.5-0.5,0.7-1,0.5c-0.3-0.1-0.5-0.2-0.5-0.2l0,0
				c0,0,1.2,0.9,0.7,2.5c-0.3,1-1.3,1.9-2.5,1.5C52.7,204,53.5,201.2,53.8,200.1z M56.6,202.7c0.4-1.2-0.6-2.3-1.7-2.6l-0.3-0.1
				l-0.1,0.4c-0.3,1-0.9,2.9,0.5,3.4C55.5,203.9,56.3,203.7,56.6,202.7z"/>
			<path class="st5" d="M53.3,193.3c0.6-1.8,2.5-2.8,4.3-2.2c1.9,0.6,2.8,2.6,2.1,4.4c-0.6,1.8-2.5,2.8-4.4,2.1
				C53.6,197,52.7,195.1,53.3,193.3z M59,195.2c0.5-1.3-0.3-2.8-1.7-3.3c-1.4-0.5-2.8,0.2-3.3,1.6c-0.5,1.3,0.2,2.8,1.6,3.3
				C57.1,197.3,58.6,196.6,59,195.2z"/>
		</g>
		<g>
			<path class="st5" d="M22.7,283.1c-0.2,0-0.3,0.1-0.3,0.3l0,0.6l-0.8,0l-0.1-1c0-0.6,0.2-0.8,0.7-0.8l7.2-0.4
				c0.2,0,0.3-0.1,0.3-0.3l-0.2-3c0-0.2-0.1-0.3-0.3-0.3l-0.6,0l0-0.9l0.9,0c0.6,0,0.8,0.2,0.8,0.8l0.2,3.8c0,0.6-0.2,0.8-0.8,0.8
				L22.7,283.1z"/>
			<path class="st5" d="M23.6,273.6c0-1.9,1.4-3.5,3.3-3.5c2,0,3.5,1.5,3.5,3.4c0,1.9-1.4,3.5-3.4,3.5
				C25.1,277,23.7,275.5,23.6,273.6z M29.7,273.4c0-1.4-1.2-2.5-2.7-2.5c-1.5,0-2.6,1.2-2.5,2.6c0,1.4,1.2,2.5,2.6,2.5
				C28.6,276,29.7,274.8,29.7,273.4z"/>
			<path class="st5" d="M23.6,266.1c0-1.8,1.1-2.2,1.1-2.2l0,0c0,0-0.1,0-0.2,0c-0.5,0-0.7-0.2-0.7-0.7l0-0.9l0.8,0l0,0.5
				c0,0.2,0.1,0.3,0.3,0.3l5.3,0.1c2.1,0,2.9,1.6,2.9,3.2c0,0.7-0.2,1.5-0.5,2.1l-0.7-0.3c0,0,0.5-0.8,0.5-1.8c0-1.3-0.6-2.3-2-2.3
				l-0.6,0c-0.2,0-0.5,0-0.5,0v0c0.7,0.4,1.1,1.1,1.1,2.1c0,1.8-1.4,2.9-3.4,2.9S23.5,267.8,23.6,266.1z M26.9,264
				c-1.9,0-2.5,0.9-2.5,2c0,1.3,0.9,2,2.5,2c1.6,0,2.6-0.8,2.6-2.1C29.4,264.9,28.8,264,26.9,264z"/>
			<path class="st5" d="M21.2,259.7l0-1l1.5,1.2l0,0.8L21.2,259.7z M24.9,260.7c-0.2,0-0.3,0.1-0.3,0.3l0,0.5l-0.8,0l0-0.9
				c0-0.6,0.3-0.8,0.8-0.8l4.7,0.2c0.2,0,0.3-0.1,0.3-0.3l0-0.5l0.8,0l0,0.9c0,0.6-0.3,0.8-0.8,0.8L24.9,260.7z"/>
			<path class="st5" d="M28.9,257.8c0,0,1-0.7,1.1-2c0-0.7-0.3-1.4-1-1.4c-1.4-0.1-1.4,3.6-3.5,3.5c-1.2-0.1-1.7-1.1-1.6-2.4
				c0-0.7,0.4-2,1.3-1.9l0.6,0l0,0.8l-0.3,0c-0.5,0-0.7,0.7-0.7,1.1c0,0.9,0.2,1.5,0.9,1.5c1.5,0.1,1.3-3.6,3.5-3.5
				c1.1,0.1,1.8,1.1,1.7,2.4c-0.1,1.7-1.3,2.4-1.3,2.4L28.9,257.8z"/>
			<path class="st5" d="M25,251.5l-0.1,0.9l-0.7-0.1l0.1-0.9l-1.8-0.1l0.1-0.9l1.8,0.1l0.1-1.6l0.7,0.1l-0.1,1.6l3.3,0.2
				c1.5,0.1,1.8-0.8,1.8-1.3c0-0.2,0-0.3,0-0.3l0.8,0.1c0,0,0,0.2,0,0.4c-0.1,0.8-0.4,2.3-2.6,2.1L25,251.5z"/>
			<path class="st5" d="M22,246.8l0.1-0.9l1.1,0.1l-0.1,0.9L22,246.8z M25.7,247.1c-0.2,0-0.3,0.1-0.3,0.3l0,0.5l-0.8-0.1l0.1-0.9
				c0.1-0.6,0.3-0.8,0.9-0.7l4.7,0.4c0.2,0,0.3-0.1,0.3-0.3l0-0.5l0.8,0.1l-0.1,0.9c0,0.6-0.3,0.8-0.9,0.7L25.7,247.1z"/>
			<path class="st5" d="M25.1,241c0.1-0.7,0.6-2.3,1.6-2.2l0.6,0.1l-0.1,0.8l-0.4,0c-0.5-0.1-0.9,0.9-1,1.4
				c-0.2,1.4,0.8,2.6,2.3,2.8c1.6,0.2,2.7-0.9,2.9-2.3c0.1-1.3-0.7-2.2-0.7-2.2l0.7-0.3c0,0,1,1,0.8,2.7c-0.2,1.9-1.8,3.3-3.8,3
				C26.1,244.5,24.9,242.9,25.1,241z"/>
			<path class="st5" d="M28.7,233.8l0.1-0.4l-0.1,0c-1.3-0.2-1.9,0.2-2.1,1.4c0,0.3-0.1,1.3,0.4,1.3l0.4,0.1l-0.1,0.8l-0.6-0.1
				c-0.9-0.1-0.9-1.7-0.8-2.3c0.3-2,1.4-2.4,2.8-2.2l3.1,0.4c0.2,0,0.3-0.1,0.3-0.2l0.1-0.5l0.8,0.1l-0.1,0.9
				c-0.1,0.6-0.4,0.7-0.9,0.7c-0.3,0-0.5-0.1-0.5-0.1l0,0c0,0,1.3,0.7,1.1,2.3c-0.2,1.1-0.9,2.1-2.2,1.9
				C28.2,237.8,28.5,234.9,28.7,233.8z M31.9,235.9c0.2-1.2-1-2.2-2.1-2.3l-0.3,0l-0.1,0.4c-0.1,1-0.4,3.1,1.1,3.3
				C31,237.3,31.7,236.9,31.9,235.9z"/>
			<path class="st5" d="M27.6,224c0.3-1.6,1.6-1.9,1.6-1.9l0,0c0,0-0.2,0-0.5-0.1l-2.1-0.4c-0.2,0-0.3,0-0.3,0.2l-0.1,0.5l-0.8-0.1
				l0.2-0.9c0.1-0.5,0.4-0.7,0.9-0.6l7.2,1.4c0.2,0,0.3,0,0.3-0.2l0.1-0.5l0.8,0.1l-0.2,0.9c-0.1,0.5-0.4,0.7-0.9,0.6
				c-0.2,0-0.4-0.1-0.4-0.1l0,0c0,0,1.2,0.8,0.9,2.5c-0.3,1.7-1.9,2.5-3.9,2.2C28.4,227.1,27.3,225.7,27.6,224z M31.4,222.5
				c-1.3-0.2-2.7,0.2-3,1.6c-0.2,1.1,0.6,2.3,2.2,2.6c1.6,0.3,2.8-0.3,3-1.5C33.8,224,33.2,222.9,31.4,222.5z"/>
			<path class="st5" d="M29.2,216.1c0.4-1.8,2-2.4,3.5-2c0.2,0,0.4,0.1,0.4,0.1l-1.1,4.9c1.6,0.3,2.8-0.6,3.1-1.9
				c0.3-1.2-0.4-2.1-0.4-2.1l0.7-0.3c0,0,0.7,1.1,0.4,2.6c-0.4,1.9-2.1,3-4.1,2.6C29.8,219.5,28.9,217.8,29.2,216.1z M32.3,214.9
				c-1.3-0.2-2.2,0.4-2.4,1.4c-0.2,1.1,0.2,2.1,1.5,2.6L32.3,214.9z"/>
			<path class="st5" d="M32.3,208.4c-0.2,0-0.3,0-0.4,0.2l-0.1,0.5l-0.7-0.2l0.2-0.9c0.1-0.5,0.4-0.7,0.9-0.6l3.1,0.8
				c1,0.3,1.9,0.3,2.2-0.9c0.4-1.4-0.6-2.7-2-3l-3-0.8l0.2-0.9l5.3,1.4c0.2,0.1,0.3,0,0.3-0.2l0.1-0.5l0.7,0.2l-0.2,0.9
				c-0.1,0.5-0.4,0.7-0.9,0.6l-0.3-0.1c-0.3-0.1-0.4-0.1-0.4-0.1l0,0c0.5,0.4,1.3,1.5,0.9,2.9c-0.4,1.5-1.4,1.9-3,1.5L32.3,208.4z"
				/>
			<path class="st5" d="M34.4,200.7c-0.2-0.1-0.3,0-0.4,0.2l-0.2,0.5l-0.7-0.2l0.3-0.9c0.2-0.5,0.5-0.7,0.9-0.5l0.3,0.1
				c0.2,0.1,0.4,0.2,0.4,0.2l0,0c-0.5-0.4-1.3-1.5-0.8-3c0.5-1.6,1.5-1.8,3.1-1.4l3,0.9c0.2,0.1,0.3,0,0.4-0.2l0.2-0.5l0.7,0.2
				l-0.3,0.9c-0.2,0.5-0.5,0.7-1,0.5l-3-0.9c-1-0.3-1.9-0.4-2.3,0.8c-0.3,1.1,0.1,2.2,1.1,2.8c0.2,0.2,0.5,0.3,0.8,0.4l3,0.9
				l-0.3,0.8L34.4,200.7z"/>
			<path class="st5" d="M33.3,191.9l0.3-0.8l1.1,0.4l-0.3,0.8L33.3,191.9z M36.8,193.1c-0.2-0.1-0.3,0-0.4,0.2l-0.2,0.5l-0.7-0.2
				l0.3-0.9c0.2-0.5,0.5-0.7,1-0.5l4.5,1.5c0.2,0.1,0.3,0,0.4-0.2l0.2-0.5l0.7,0.2l-0.3,0.9c-0.2,0.5-0.5,0.7-1,0.5L36.8,193.1z"/>
			<path class="st5" d="M37.5,187.4c0.5-1.5,1.9-1.6,1.9-1.6l0,0c0,0-0.2,0-0.5-0.1l-2-0.7c-0.2-0.1-0.3,0-0.4,0.2l-0.2,0.5
				l-0.7-0.2l0.3-0.9c0.2-0.5,0.5-0.7,1-0.5l6.9,2.4c0.2,0.1,0.3,0,0.4-0.2l0.2-0.5l0.7,0.3l-0.3,0.9c-0.2,0.5-0.5,0.7-0.9,0.5
				c-0.2-0.1-0.4-0.2-0.4-0.2l0,0c0,0,1.1,0.9,0.5,2.6c-0.6,1.7-2.3,2.2-4.2,1.6C37.8,190.6,36.9,189,37.5,187.4z M41.4,186.5
				c-1.3-0.4-2.7-0.2-3.2,1.1c-0.4,1.1,0.2,2.3,1.8,2.8c1.5,0.5,2.8,0.1,3.2-1.1C43.6,188.3,43.2,187.1,41.4,186.5z"/>
			<path class="st5" d="M43.1,180.1l0.1-0.3l-0.1,0c-1.3-0.5-1.9-0.2-2.3,0.9c-0.1,0.3-0.4,1.2,0.1,1.4l0.4,0.2l-0.3,0.8l-0.6-0.2
				c-0.8-0.3-0.5-1.9-0.3-2.4c0.8-1.9,2-2,3.3-1.5l2.9,1.1c0.2,0.1,0.3,0,0.4-0.2l0.2-0.5l0.7,0.3l-0.3,0.8c-0.2,0.5-0.5,0.6-1,0.4
				c-0.3-0.1-0.4-0.2-0.4-0.2l0,0c0,0,1.1,1,0.5,2.5c-0.4,1-1.4,1.8-2.6,1.4C41.7,183.8,42.7,181.1,43.1,180.1z M45.7,182.8
				c0.5-1.2-0.5-2.3-1.5-2.8l-0.3-0.1l-0.1,0.4c-0.4,1-1.1,2.9,0.3,3.4C44.6,184,45.3,183.7,45.7,182.8z"/>
			<path class="st5" d="M42.9,173.5c0.6-1.5,2-1.5,2-1.5l0,0c0,0-0.2-0.1-0.5-0.2l-1.9-0.8c-0.2-0.1-0.3,0-0.4,0.2l-0.2,0.5
				l-0.7-0.3l0.4-0.8c0.2-0.5,0.5-0.6,1-0.4l6.7,2.9c0.2,0.1,0.3,0,0.4-0.2l0.2-0.5l0.7,0.3l-0.4,0.8c-0.2,0.5-0.5,0.6-1,0.4
				c-0.2-0.1-0.4-0.2-0.4-0.2l0,0c0,0,1,1,0.3,2.6c-0.7,1.6-2.4,2.1-4.3,1.3C43,176.8,42.2,175.1,42.9,173.5z M46.9,172.9
				c-1.2-0.5-2.7-0.4-3.2,0.9c-0.5,1.1,0.1,2.3,1.6,3c1.5,0.6,2.8,0.3,3.2-0.9C48.9,174.9,48.6,173.6,46.9,172.9z"/>
			<path class="st5" d="M46.1,166.2c0.8-1.6,2.4-1.9,3.9-1.2c0.1,0.1,0.4,0.2,0.4,0.2l-2.1,4.6c1.5,0.7,2.9,0,3.4-1.2
				c0.5-1.1,0.1-2.1,0.1-2.1l0.8-0.1c0,0,0.5,1.3-0.2,2.6c-0.8,1.8-2.7,2.5-4.5,1.7C46,169.7,45.4,167.8,46.1,166.2z M49.4,165.7
				c-1.2-0.5-2.2,0-2.6,0.8c-0.5,1-0.2,2.1,0.9,2.9L49.4,165.7z"/>
			<path class="st5" d="M52.6,164.5c0,0,1.2-0.2,1.8-1.4c0.3-0.7,0.3-1.4-0.3-1.7c-1.3-0.6-2.7,2.8-4.6,1.8
				c-1.1-0.5-1.1-1.7-0.5-2.9c0.3-0.6,1.1-1.7,1.9-1.3l0.5,0.2l-0.4,0.7l-0.3-0.1c-0.4-0.2-0.9,0.3-1.1,0.7
				c-0.4,0.8-0.4,1.4,0.2,1.7c1.3,0.7,2.6-2.8,4.6-1.8c1,0.5,1.2,1.7,0.6,2.9c-0.8,1.5-2.1,1.7-2.1,1.7L52.6,164.5z"/>
		</g>
		<g>
			<path class="st5" d="M219.5,46.1c0-0.2-0.2-0.3-0.4-0.2l-0.6,0.1l-0.2-0.8l1-0.2c0.6-0.1,0.9,0.1,1,0.7l1.6,7.7
				c0,0.2,0.2,0.3,0.4,0.2l0.6-0.1l0.2,0.8l-1,0.2c-0.6,0.1-0.9-0.1-1-0.7L219.5,46.1z"/>
			<path class="st5" d="M226.3,46.3c2-0.4,3.9,0.9,4.3,3c0.4,2.1-1,4-3,4.3c-2,0.4-3.9-0.9-4.3-3C222.9,48.5,224.3,46.7,226.3,46.3z
				 M227.5,52.7c1.5-0.3,2.5-1.7,2.2-3.3c-0.3-1.6-1.7-2.5-3.2-2.3c-1.5,0.3-2.5,1.6-2.2,3.2C224.6,52,226,53,227.5,52.7z"/>
			<path class="st5" d="M232.1,46.7c0-0.2-0.2-0.3-0.3-0.3l-0.6,0.1l-0.1-0.8l1-0.1c0.6-0.1,0.9,0.1,1,0.7l0,0.3c0,0.3,0,0.5,0,0.5
				l0,0c0.2-0.7,0.9-1.9,2.5-2.1c1.7-0.2,2.5,0.7,2.7,2.4l0.4,3.3c0,0.2,0.2,0.3,0.3,0.3l0.6-0.1l0.1,0.8l-1,0.1
				c-0.6,0.1-0.9-0.1-1-0.7l-0.5-3.3c-0.1-1.1-0.4-2-1.8-1.9c-1.2,0.2-2.1,1.1-2.3,2.3c0,0.3,0,0.6,0,1l0.5,3.3l-0.9,0.1L232.1,46.7
				z"/>
			<path class="st5" d="M243,44c1.9-0.2,2.4,1,2.4,1l0,0c0,0,0-0.1,0-0.3c0-0.5,0.1-0.8,0.7-0.8l1-0.1l0.1,0.8l-0.6,0.1
				c-0.2,0-0.3,0.1-0.3,0.3l0.6,5.7c0.2,2.2-1.3,3.3-3.1,3.4c-0.8,0.1-1.6-0.1-2.3-0.3l0.3-0.8c0,0,0.9,0.4,1.9,0.3
				c1.4-0.1,2.4-0.9,2.2-2.4l-0.1-0.6c0-0.3,0-0.5,0-0.5l0,0c-0.3,0.8-1,1.3-2.1,1.4c-1.9,0.2-3.3-1.2-3.5-3.3
				C240.1,45.8,241.1,44.2,243,44z M245.6,47.3c-0.2-2-1.2-2.6-2.5-2.5c-1.4,0.1-2.1,1.2-1.9,2.9c0.2,1.7,1.2,2.7,2.6,2.5
				C244.9,50.2,245.8,49.4,245.6,47.3z"/>
			<path class="st5" d="M252.6,46.2l0.4,0l0-0.1c-0.1-1.5-0.7-2-1.9-1.9c-0.3,0-1.4,0.2-1.3,0.7l0,0.4l-0.9,0.1l0-0.7
				c-0.1-1,1.6-1.3,2.2-1.3c2.2-0.1,2.8,1,2.9,2.5l0.2,3.4c0,0.2,0.1,0.3,0.3,0.3l0.6,0l0,0.8l-1,0.1c-0.6,0-0.9-0.2-0.9-0.8
				c0-0.3,0-0.5,0-0.5l0,0c0,0-0.5,1.6-2.2,1.7c-1.2,0.1-2.4-0.5-2.5-1.9C248.3,46.5,251.4,46.2,252.6,46.2z M251.1,50
				c1.3-0.1,2.1-1.5,2-2.7l0-0.3l-0.4,0c-1.1,0.1-3.3,0.2-3.2,1.8C249.5,49.4,250.1,50,251.1,50z"/>
			<path class="st5" d="M262.8,43c1.7,0,2.3,1.3,2.3,1.3l0,0c0,0,0-0.2,0-0.5l0-2.3c0-0.2-0.1-0.3-0.3-0.3l-0.6,0l0-0.8l1,0
				c0.6,0,0.9,0.2,0.9,0.8l0.1,7.9c0,0.2,0.1,0.3,0.3,0.3l0.6,0l0,0.8l-1,0c-0.6,0-0.8-0.3-0.8-0.8c0-0.3,0-0.4,0-0.4h0
				c0,0-0.6,1.4-2.4,1.4c-1.9,0-3.1-1.5-3.1-3.7C259.7,44.4,261,43,262.8,43z M265.2,46.6c0-1.4-0.8-2.8-2.3-2.8
				c-1.2,0-2.3,1.1-2.2,2.8c0,1.7,0.9,2.8,2.2,2.8C264.1,49.5,265.2,48.6,265.2,46.6z"/>
			<path class="st5" d="M268.7,44.3c0-0.2-0.1-0.3-0.3-0.3l-0.6,0l0-0.8l1,0c0.6,0,0.8,0.3,0.8,0.9l-0.1,5.1c0,0.2,0.1,0.3,0.3,0.3
				l0.6,0l0,0.8l-1,0c-0.6,0-0.8-0.3-0.8-0.9L268.7,44.3z M268.7,40.3l0.9,0l0,1.2l-0.9,0L268.7,40.3z"/>
			<path class="st5" d="M271.8,48.5c0,0,0.7,1.1,2.1,1.2c0.8,0,1.5-0.3,1.5-1.1c0.1-1.5-3.9-1.4-3.8-3.7c0.1-1.3,1.2-1.9,2.6-1.8
				c0.7,0,2.1,0.4,2.1,1.4l0,0.6l-0.9,0l0-0.3c0-0.5-0.7-0.7-1.2-0.8c-1,0-1.6,0.3-1.6,1c-0.1,1.6,3.9,1.4,3.8,3.7
				c0,1.2-1.1,1.9-2.5,1.9c-1.8-0.1-2.7-1.3-2.7-1.3L271.8,48.5z"/>
			<path class="st5" d="M278.5,44.3l-0.9-0.1l0.1-0.8l0.9,0.1l0.1-1.9l0.9,0.1l-0.1,1.9l1.8,0.1l-0.1,0.8l-1.8-0.1l-0.2,3.6
				c-0.1,1.6,0.9,1.9,1.5,2c0.2,0,0.3,0,0.3,0l-0.1,0.9c0,0-0.2,0-0.4,0c-0.8-0.1-2.4-0.4-2.3-2.8L278.5,44.3z"/>
			<path class="st5" d="M286.6,46.9l0.4,0l0-0.1c0.1-1.5-0.3-2-1.6-2.1c-0.3,0-1.4,0-1.4,0.5l0,0.4l-0.9-0.1l0.1-0.7
				c0.1-1,1.8-1,2.4-1c2.2,0.2,2.6,1.4,2.5,2.9l-0.3,3.4c0,0.2,0.1,0.3,0.3,0.3l0.6,0.1l-0.1,0.8l-1-0.1c-0.6-0.1-0.8-0.3-0.8-0.9
				c0-0.3,0.1-0.5,0.1-0.5l0,0c0,0-0.7,1.5-2.5,1.3c-1.2-0.1-2.3-0.9-2.2-2.3C282.3,46.5,285.4,46.7,286.6,46.9z M284.5,50.4
				c1.3,0.1,2.3-1.2,2.4-2.4l0-0.3l-0.4,0c-1.1-0.1-3.3-0.3-3.5,1.3C283,49.6,283.5,50.3,284.5,50.4z M285.4,41.2l1,0.1l1,1.8
				l-0.9-0.1l-0.6-1.2l0,0l-0.9,1.1l-0.9-0.1L285.4,41.2z"/>
			<path class="st5" d="M290.6,45.7c0-0.2-0.1-0.3-0.3-0.3l-0.6-0.1l0.1-0.8l1,0.1c0.6,0.1,0.8,0.4,0.7,0.9l0,0.3
				c0,0.3-0.1,0.5-0.1,0.5l0,0c0.3-0.6,1.4-1.6,3-1.4c1.7,0.2,2.2,1.3,2,3l-0.4,3.3c0,0.2,0.1,0.3,0.3,0.3l0.6,0.1l-0.1,0.8l-1-0.1
				c-0.6-0.1-0.8-0.4-0.7-1l0.4-3.3c0.1-1.1,0.1-2.1-1.2-2.3c-1.2-0.2-2.3,0.5-2.8,1.6c-0.1,0.3-0.2,0.6-0.2,0.9l-0.4,3.3l-0.9-0.1
				L290.6,45.7z"/>
			<path class="st5" d="M302.4,46.1c0.8,0.1,2.4,0.7,2.2,1.9l-0.1,0.6l-0.9-0.1l0.1-0.4c0.1-0.6-0.9-1-1.4-1.1
				c-1.5-0.2-2.9,0.7-3.2,2.4c-0.3,1.7,0.8,3,2.3,3.2c1.4,0.2,2.4-0.6,2.4-0.6l0.3,0.8c0,0-1.1,1-2.9,0.7c-2.1-0.3-3.4-2.1-3-4.2
				C298.5,47,300.3,45.7,302.4,46.1z"/>
			<path class="st5" d="M306.6,48.2c0-0.2-0.1-0.3-0.2-0.4l-0.6-0.1l0.2-0.8l1,0.2c0.6,0.1,0.8,0.4,0.7,1l-1,5
				c0,0.2,0.1,0.3,0.2,0.4l0.6,0.1l-0.2,0.8l-1-0.2c-0.6-0.1-0.8-0.4-0.7-1L306.6,48.2z M307.3,44.3l0.9,0.2l-0.2,1.2l-0.9-0.2
				L307.3,44.3z"/>
			<path class="st5" d="M313.3,51.1l0.4,0.1l0-0.1c0.3-1.4-0.1-2.1-1.4-2.3c-0.3-0.1-1.4-0.2-1.5,0.3l-0.1,0.4l-0.9-0.2l0.1-0.7
				c0.2-1,1.9-0.8,2.5-0.7c2.2,0.5,2.4,1.7,2.1,3.2l-0.7,3.3c0,0.2,0,0.3,0.2,0.4l0.6,0.1l-0.2,0.8l-0.9-0.2c-0.6-0.1-0.8-0.4-0.6-1
				c0.1-0.3,0.1-0.5,0.1-0.5l0,0c0,0-0.9,1.4-2.6,1c-1.1-0.3-2.2-1.2-1.9-2.5C309.1,50.3,312.1,50.9,313.3,51.1z M310.8,54.4
				c1.3,0.3,2.4-0.9,2.7-2.1l0.1-0.3l-0.4-0.1c-1.1-0.2-3.2-0.7-3.6,0.9C309.4,53.4,309.8,54.2,310.8,54.4z"/>
		</g>
		<g>
			<path class="st5" d="M226.9,27.6c0-0.2-0.2-0.3-0.4-0.3l-0.6,0.1l-0.1-0.9l1-0.2c0.6-0.1,0.9,0.1,1,0.7l1.2,7.7
				c0,0.2,0.2,0.3,0.4,0.3l3.2-0.5c0.2,0,0.3-0.1,0.3-0.4l-0.1-0.7l0.9-0.1l0.1,1c0.1,0.6-0.1,0.9-0.7,1l-4,0.6
				c-0.6,0.1-0.9-0.1-1-0.7L226.9,27.6z"/>
			<path class="st5" d="M237.2,27.7c2-0.2,3.9,1.1,4.1,3.2c0.2,2.1-1.2,3.9-3.3,4.1c-2,0.2-3.9-1.2-4.1-3.3
				C233.7,29.7,235.2,27.9,237.2,27.7z M238,34.2c1.5-0.2,2.6-1.5,2.4-3.2c-0.2-1.6-1.5-2.6-3-2.5c-1.5,0.2-2.6,1.5-2.4,3.1
				C235.1,33.2,236.5,34.3,238,34.2z"/>
			<path class="st5" d="M245.3,26.9c1.9-0.2,2.4,1,2.4,1l0,0c0,0,0-0.1,0-0.3c0-0.5,0.2-0.8,0.7-0.8l1-0.1l0.1,0.8l-0.6,0
				c-0.2,0-0.3,0.1-0.3,0.3l0.5,5.7c0.2,2.2-1.4,3.2-3.1,3.4c-0.8,0.1-1.6-0.1-2.3-0.4l0.3-0.8c0,0,0.9,0.4,1.9,0.3
				c1.4-0.1,2.4-0.8,2.3-2.4l0-0.6c0-0.3,0-0.5,0-0.5l0,0c-0.4,0.8-1,1.3-2.1,1.4c-1.9,0.2-3.2-1.2-3.4-3.3
				C242.3,28.6,243.4,27,245.3,26.9z M247.9,30.2c-0.2-2.1-1.2-2.6-2.4-2.5c-1.4,0.1-2.1,1.2-1.9,2.8c0.1,1.7,1.1,2.7,2.5,2.6
				C247.1,33.1,248,32.3,247.9,30.2z"/>
			<path class="st5" d="M251.2,27.8c0-0.2-0.1-0.3-0.3-0.3l-0.6,0l0-0.8l1-0.1c0.6,0,0.9,0.2,0.9,0.8l0.3,5c0,0.2,0.1,0.3,0.3,0.3
				l0.6,0l0,0.8l-1,0.1c-0.6,0-0.9-0.2-0.9-0.8L251.2,27.8z M251.9,23.8l1.1-0.1l-1.1,1.7l-0.8,0L251.9,23.8z"/>
			<path class="st5" d="M254.6,31.8c0,0,0.8,1,2.2,1c0.8,0,1.5-0.4,1.4-1.2c-0.1-1.5-4-1.1-4.1-3.4c0-1.3,1-1.9,2.4-2
				c0.7,0,2.2,0.2,2.2,1.2l0,0.6l-0.9,0l0-0.3c0-0.5-0.8-0.7-1.2-0.7c-1,0-1.6,0.4-1.5,1.1c0.1,1.6,4,1.1,4.1,3.4c0,1.2-1,2-2.4,2.1
				c-1.8,0.1-2.7-1.1-2.7-1.1L254.6,31.8z"/>
			<path class="st5" d="M261.1,27.1l-0.9,0l0-0.8l0.9,0l0-1.9l0.9,0l0,1.9l1.8,0l0,0.8l-1.8,0l0,3.6c0,1.7,1.1,1.8,1.6,1.8
				c0.2,0,0.3,0,0.3,0l0,0.9c0,0-0.2,0-0.4,0c-0.8,0-2.5-0.2-2.5-2.6L261.1,27.1z"/>
			<path class="st5" d="M265.8,27.4c0-0.2-0.1-0.3-0.3-0.3l-0.6,0l0-0.8l1,0c0.6,0,0.9,0.3,0.8,0.9l0,5.1c0,0.2,0.1,0.3,0.3,0.3
				l0.6,0l0,0.8l-1,0c-0.6,0-0.9-0.3-0.8-0.9L265.8,27.4z M265.8,23.4l0.9,0l0,1.2l-0.9,0L265.8,23.4z"/>
			<path class="st5" d="M272.4,26.2c0.8,0,2.5,0.4,2.5,1.6l0,0.6l-0.9,0l0-0.4c0-0.6-1-0.9-1.6-0.9c-1.5,0-2.8,1.1-2.8,2.8
				c0,1.7,1.2,2.8,2.7,2.9c1.4,0,2.3-0.9,2.3-0.9l0.4,0.7c0,0-1,1.1-2.8,1.1c-2.1-0.1-3.7-1.6-3.6-3.8
				C268.7,27.6,270.3,26.1,272.4,26.2z"/>
			<path class="st5" d="M280.4,29.4l0.4,0l0-0.1c0.1-1.5-0.4-2-1.7-2.1c-0.4,0-1.4,0-1.4,0.5l0,0.4l-0.9-0.1l0-0.7
				c0.1-1,1.7-1.1,2.4-1.1c2.2,0.1,2.7,1.4,2.6,2.9l-0.2,3.4c0,0.2,0.1,0.3,0.3,0.3l0.6,0l0,0.8l-1-0.1c-0.6,0-0.8-0.3-0.8-0.9
				c0-0.3,0-0.5,0-0.5l0,0c0,0-0.7,1.5-2.4,1.4c-1.2-0.1-2.3-0.8-2.3-2.2C276.1,29.2,279.2,29.3,280.4,29.4z M278.4,33
				c1.3,0.1,2.2-1.3,2.3-2.5l0-0.3l-0.4,0c-1.1-0.1-3.3-0.2-3.4,1.4C276.9,32.2,277.3,32.9,278.4,33z"/>
			<path class="st5" d="M290.8,27.4c1.7,0.2,2.1,1.6,2.1,1.6l0,0c0,0,0-0.2,0-0.5l0.2-2.3c0-0.2-0.1-0.3-0.3-0.3l-0.6-0.1l0.1-0.8
				l1,0.1c0.6,0.1,0.8,0.3,0.8,0.9l-0.9,7.8c0,0.2,0.1,0.3,0.3,0.3l0.6,0.1l-0.1,0.8l-1-0.1c-0.6-0.1-0.8-0.4-0.7-0.9
				c0-0.3,0.1-0.4,0.1-0.4l0,0c0,0-0.7,1.3-2.6,1.1c-1.9-0.2-2.9-1.8-2.6-4C287.5,28.5,289,27.2,290.8,27.4z M292.7,31.4
				c0.2-1.4-0.4-2.9-1.9-3.1c-1.2-0.1-2.4,0.8-2.6,2.6c-0.2,1.7,0.6,2.9,1.9,3.1C291.3,34.1,292.5,33.3,292.7,31.4z"/>
			<path class="st5" d="M299.4,28.5c1.9,0.3,2.7,1.9,2.5,3.6c0,0.2-0.1,0.5-0.1,0.5l-5.3-0.8c-0.2,1.8,0.9,3,2.3,3.2
				c1.3,0.2,2.2-0.6,2.2-0.6l0.4,0.8c0,0-1.2,0.9-2.7,0.6c-2.1-0.3-3.4-2-3.1-4.2C295.8,29.4,297.6,28.3,299.4,28.5z M301,31.7
				c0.2-1.4-0.6-2.3-1.7-2.4c-1.2-0.2-2.3,0.4-2.7,1.8L301,31.7z"/>
		</g>
		<g>
			<path class="st5" d="M376,72.3c0.7,0.4,2,1.5,1.4,2.5l-0.3,0.5l-0.8-0.4l0.2-0.4c0.3-0.5-0.5-1.3-1-1.5c-1.3-0.7-2.9-0.4-3.8,1.1
				c-0.9,1.5-0.3,3.1,1,3.8c1.3,0.7,2.5,0.2,2.5,0.2l0,0.8c0,0-1.4,0.5-3-0.4c-1.8-1-2.5-3.1-1.4-5C372.1,71.8,374.2,71.2,376,72.3z
				"/>
			<path class="st5" d="M379.2,75.6c0.1-0.2,0.1-0.3-0.1-0.4l-0.5-0.3l0.4-0.7l0.8,0.5c0.5,0.3,0.6,0.7,0.3,1.2l-1.8,2.9
				c-0.6,0.9-0.9,1.9,0.2,2.6c1.4,0.8,2.9,0.1,3.7-1.2l1.8-2.9l0.8,0.5l-3.1,5c-0.1,0.2-0.1,0.3,0.1,0.4l0.5,0.3l-0.4,0.7l-0.8-0.5
				c-0.5-0.3-0.6-0.7-0.3-1.1l0.2-0.3c0.1-0.2,0.3-0.4,0.3-0.4l0,0c-0.6,0.4-2,0.9-3.3,0.1c-1.4-0.9-1.6-2-0.6-3.6L379.2,75.6z"/>
			<path class="st5" d="M386.5,80.1c0.1-0.2,0.1-0.3-0.1-0.4l-0.5-0.3l0.5-0.7l0.8,0.5c0.5,0.3,0.6,0.7,0.3,1.1l-0.3,0.4
				c-0.2,0.2-0.3,0.4-0.3,0.4l0,0c0.9-0.7,2-1,2.9-0.4c0.2,0.1,0.3,0.2,0.3,0.2l-0.5,0.8c0,0-0.1-0.1-0.3-0.2
				c-0.8-0.5-1.9-0.3-2.7,0.4c-0.4,0.3-0.7,0.7-0.9,1l-1.6,2.5l-0.8-0.5L386.5,80.1z"/>
			<path class="st5" d="M391.1,82.7l-0.8-0.5l0.5-0.7l0.8,0.5l1.1-1.6l0.8,0.5l-1.1,1.6l1.5,1l-0.5,0.7l-1.5-1l-2,3
				c-0.9,1.4-0.2,2.1,0.3,2.4c0.2,0.1,0.3,0.2,0.3,0.2l-0.5,0.7c0,0-0.2-0.1-0.4-0.2c-0.7-0.5-1.9-1.6-0.5-3.5L391.1,82.7z"/>
			<path class="st5" d="M396.7,89l0.3,0.2l0-0.1c0.9-1.2,0.7-1.9-0.3-2.7c-0.3-0.2-1.2-0.7-1.5-0.3l-0.3,0.4l-0.7-0.5l0.4-0.5
				c0.6-0.8,2.1,0,2.6,0.4c1.8,1.3,1.5,2.6,0.6,3.8l-2,2.7c-0.1,0.2-0.1,0.3,0.1,0.4l0.5,0.3l-0.5,0.7l-0.8-0.6
				c-0.5-0.4-0.5-0.7-0.2-1.2c0.2-0.2,0.3-0.4,0.3-0.4l0,0c0,0-1.4,0.9-2.8-0.1c-1-0.7-1.5-2-0.7-3.1
				C393.2,86.6,395.7,88.3,396.7,89z M393.1,91c1.1,0.8,2.6,0.1,3.3-0.9l0.2-0.3l-0.3-0.2c-0.9-0.7-2.7-1.9-3.6-0.6
				C392.2,89.5,392.3,90.4,393.1,91z"/>
			<path class="st5" d="M406.6,93.1c1.3,1.1,1,2.5,1,2.5l0,0c0,0,0.1-0.2,0.3-0.4l1.4-1.8c0.1-0.2,0.1-0.3,0-0.4l-0.5-0.4l0.5-0.6
				l0.8,0.6c0.5,0.4,0.5,0.7,0.1,1.2l-4.9,6.1c-0.1,0.2-0.1,0.3,0,0.4l0.5,0.4l-0.5,0.6l-0.8-0.6c-0.5-0.4-0.5-0.7-0.2-1.1
				c0.2-0.2,0.3-0.3,0.3-0.3l0,0c0,0-1.3,0.7-2.8-0.4c-1.5-1.2-1.4-3.1-0.1-4.8C403.2,92.2,405.2,91.9,406.6,93.1z M406.1,97.4
				c0.9-1.1,1.2-2.7,0-3.6c-1-0.8-2.4-0.6-3.5,0.8c-1.1,1.3-1.1,2.8-0.1,3.6C403.4,98.9,404.8,98.9,406.1,97.4z"/>
			<path class="st5" d="M410.3,97.8c0.1-0.1,0.1-0.3,0-0.4l-0.4-0.4l0.5-0.6l0.8,0.6c0.5,0.4,0.5,0.7,0.1,1.2l-3.3,3.8
				c-0.1,0.2-0.1,0.3,0,0.4l0.4,0.4l-0.5,0.6l-0.8-0.6c-0.5-0.4-0.5-0.7-0.1-1.2L410.3,97.8z M412.8,94.8l0.7,0.6l-0.8,0.9l-0.7-0.6
				L412.8,94.8z"/>
			<path class="st5" d="M410,103c0,0-0.1,1.3,0.9,2.2c0.6,0.5,1.4,0.7,1.9,0.2c1-1.1-2.1-3.6-0.6-5.3c0.8-1,2.1-0.7,3.1,0.2
				c0.5,0.5,1.4,1.6,0.7,2.4l-0.4,0.4l-0.7-0.6l0.2-0.3c0.3-0.4-0.1-1-0.4-1.3c-0.7-0.7-1.4-0.8-1.9-0.3c-1.1,1.2,2.1,3.5,0.6,5.3
				c-0.8,0.9-2.1,0.8-3.2-0.2c-1.4-1.2-1.2-2.7-1.2-2.7L410,103z"/>
			<path class="st5" d="M417.9,104.1l-0.7-0.6l0.5-0.6l0.7,0.6l1.3-1.4l0.7,0.6l-1.3,1.4l1.3,1.2l-0.5,0.6l-1.3-1.2l-2.5,2.6
				c-1.1,1.2-0.5,2.1-0.1,2.4c0.1,0.1,0.3,0.2,0.3,0.2l-0.6,0.6c0,0-0.1-0.1-0.3-0.3c-0.6-0.6-1.6-1.9,0-3.6L417.9,104.1z"/>
			<path class="st5" d="M422.5,111.2l0.3,0.3l0.1-0.1c1-1,1-1.8,0.1-2.7c-0.2-0.2-1-0.9-1.4-0.5l-0.3,0.3l-0.6-0.6l0.5-0.5
				c0.7-0.7,2,0.3,2.5,0.8c1.6,1.6,1.1,2.8,0.1,3.9l-2.4,2.4c-0.1,0.2-0.1,0.3,0,0.4l0.4,0.4l-0.6,0.6l-0.7-0.7
				c-0.4-0.4-0.4-0.8,0-1.2c0.2-0.2,0.4-0.4,0.4-0.4l0,0c0,0-1.5,0.7-2.7-0.6c-0.8-0.8-1.2-2.2-0.2-3.2
				C419.4,108.2,421.6,110.3,422.5,111.2z M418.6,112.6c1,0.9,2.5,0.5,3.4-0.3l0.2-0.2l-0.3-0.3c-0.8-0.8-2.4-2.3-3.5-1.2
				C418,111,417.9,111.8,418.6,112.6z M425.1,106.1l0.7,0.7l-0.3,2l-0.6-0.6l0.3-1.3l0,0l-1.3,0.3l-0.6-0.6L425.1,106.1z"/>
			<path class="st5" d="M426.3,112.8c0.1-0.1,0.1-0.3,0-0.4l-0.4-0.4l0.6-0.6l0.7,0.7c0.4,0.4,0.4,0.8,0,1.2l-0.2,0.2
				c-0.2,0.2-0.4,0.3-0.4,0.3l0,0c0.6-0.3,2.1-0.4,3.2,0.8c1.2,1.3,0.9,2.4-0.4,3.6l-2.4,2.3c-0.2,0.1-0.1,0.3,0,0.4l0.4,0.4
				l-0.6,0.6l-0.7-0.7c-0.4-0.4-0.4-0.8,0-1.2l2.5-2.3c0.8-0.8,1.4-1.5,0.5-2.5c-0.8-0.9-2.1-1.1-3.2-0.5c-0.3,0.1-0.5,0.3-0.8,0.6
				l-2.5,2.3l-0.7-0.7L426.3,112.8z"/>
			<path class="st5" d="M435.2,120.6c0.5,0.6,1.4,2.1,0.5,2.9l-0.5,0.4l-0.6-0.7l0.3-0.3c0.4-0.4,0-1.3-0.4-1.8
				c-1-1.1-2.6-1.3-3.9-0.2c-1.3,1.1-1.3,2.8-0.3,3.9c0.9,1.1,2.2,1.1,2.2,1.1l-0.2,0.8c0,0-1.5,0-2.7-1.3c-1.4-1.6-1.3-3.8,0.3-5.2
				C431.6,118.8,433.8,119,435.2,120.6z"/>
			<path class="st5" d="M437.1,124.9c0.2-0.1,0.2-0.3,0-0.4l-0.4-0.5l0.6-0.5l0.6,0.8c0.4,0.5,0.3,0.8-0.1,1.2l-3.9,3.2
				c-0.2,0.1-0.2,0.3,0,0.4l0.4,0.5l-0.6,0.5l-0.6-0.8c-0.4-0.5-0.4-0.8,0.1-1.2L437.1,124.9z M440.1,122.4l0.6,0.7l-0.9,0.8
				l-0.6-0.7L440.1,122.4z"/>
			<path class="st5" d="M440.4,131.5l0.2,0.3l0.1-0.1c1.2-0.9,1.2-1.7,0.4-2.7c-0.2-0.3-0.9-1-1.3-0.7l-0.4,0.3l-0.6-0.7l0.5-0.4
				c0.8-0.6,2,0.6,2.4,1.1c1.4,1.8,0.8,2.9-0.4,3.8l-2.7,2.1c-0.2,0.1-0.2,0.3-0.1,0.4l0.4,0.5l-0.7,0.5l-0.6-0.8
				c-0.4-0.5-0.3-0.8,0.1-1.2c0.2-0.2,0.4-0.3,0.4-0.3l0,0c0,0-1.6,0.5-2.6-0.9c-0.7-0.9-0.9-2.3,0.2-3.2
				C437.7,128.1,439.6,130.5,440.4,131.5z M436.4,132.4c0.8,1.1,2.4,0.8,3.4,0.1l0.3-0.2l-0.3-0.3c-0.7-0.9-2.1-2.6-3.3-1.6
				C436,130.7,435.7,131.6,436.4,132.4z"/>
		</g>
		<g>
			<path class="st5" d="M393.3,61.2c0.1-0.2,0.1-0.3-0.1-0.4l-0.5-0.3l0.5-0.7l0.9,0.6c0.5,0.3,0.6,0.7,0.3,1.2l-4.2,6.6
				c-0.1,0.2-0.1,0.3,0.1,0.4l2.8,1.7c0.2,0.1,0.3,0.1,0.4-0.1l0.4-0.6l0.8,0.5l-0.5,0.8c-0.3,0.5-0.7,0.6-1.2,0.3l-3.4-2.2
				c-0.5-0.3-0.6-0.7-0.3-1.2L393.3,61.2z"/>
			<path class="st5" d="M401.1,68c1.7,1.2,2.2,3.4,1,5.1c-1.2,1.8-3.5,2.1-5.2,1c-1.7-1.2-2.2-3.4-1-5.2
				C397.2,67.2,399.4,66.8,401.1,68z M397.5,73.4c1.2,0.8,3,0.5,3.9-0.8c0.9-1.3,0.5-3-0.7-3.8c-1.3-0.8-2.9-0.6-3.8,0.8
				C395.9,70.8,396.2,72.5,397.5,73.4z"/>
			<path class="st5" d="M407.7,72.6c1.5,1.1,1.2,2.4,1.2,2.4l0,0c0,0,0.1-0.1,0.2-0.2c0.3-0.4,0.6-0.5,1.1-0.2l0.8,0.6l-0.5,0.7
				l-0.5-0.3c-0.2-0.1-0.3-0.1-0.4,0.1l-3.4,4.6c-1.3,1.8-3.2,1.5-4.6,0.5c-0.6-0.5-1.2-1.1-1.5-1.8l0.8-0.4c0,0,0.4,0.9,1.2,1.5
				c1.1,0.8,2.4,0.9,3.3-0.3l0.4-0.5c0.2-0.2,0.3-0.4,0.3-0.4l0,0c-0.8,0.4-1.6,0.3-2.5-0.3c-1.5-1.1-1.6-3.1-0.4-4.8
				C404.4,72,406.2,71.5,407.7,72.6z M407.5,76.9c1.2-1.7,0.8-2.7-0.2-3.5c-1.1-0.8-2.3-0.5-3.3,0.9c-1,1.4-0.9,2.8,0.2,3.6
				C405.1,78.5,406.3,78.6,407.5,76.9z"/>
			<path class="st5" d="M411.7,77.2c0.1-0.2,0.1-0.3-0.1-0.4l-0.5-0.4l0.5-0.7l0.8,0.6c0.5,0.4,0.5,0.7,0.2,1.2l-3.1,4
				c-0.1,0.2-0.1,0.3,0.1,0.4l0.5,0.4l-0.5,0.7l-0.8-0.6c-0.5-0.4-0.5-0.7-0.2-1.2L411.7,77.2z M414.8,74.7l0.8,0.6l-2,0.6l-0.7-0.5
				L414.8,74.7z"/>
			<path class="st5" d="M411.6,82.5c0,0-0.1,1.3,1,2.2c0.6,0.5,1.4,0.6,1.9,0.1c1-1.2-2.3-3.5-0.9-5.2c0.8-1,2-0.8,3.1,0.1
				c0.6,0.4,1.5,1.6,0.9,2.3l-0.4,0.5l-0.7-0.6l0.2-0.3c0.3-0.4-0.1-1-0.5-1.3c-0.8-0.6-1.4-0.7-1.9-0.2c-1,1.2,2.3,3.4,0.9,5.2
				c-0.7,0.9-2.1,0.9-3.2,0c-1.4-1.1-1.3-2.7-1.3-2.7L411.6,82.5z"/>
			<path class="st5" d="M419.6,83.1l-0.7-0.6l0.5-0.6l0.7,0.6l1.3-1.5l0.7,0.6l-1.3,1.5l1.3,1.1l-0.5,0.6l-1.4-1.1l-2.3,2.7
				c-1.1,1.3-0.4,2.1,0,2.4c0.1,0.1,0.3,0.2,0.3,0.2l-0.6,0.7c0,0-0.1-0.1-0.3-0.2c-0.6-0.5-1.7-1.8-0.2-3.6L419.6,83.1z"/>
			<path class="st5" d="M423,86.4c0.1-0.1,0.1-0.3,0-0.4l-0.4-0.4L423,85l0.7,0.7c0.5,0.4,0.5,0.8,0.1,1.2l-3.3,3.8
				c-0.1,0.2-0.1,0.3,0,0.4l0.4,0.4l-0.5,0.6l-0.7-0.7c-0.5-0.4-0.5-0.8-0.1-1.2L423,86.4z M425.5,83.4l0.7,0.6l-0.8,0.9l-0.7-0.6
				L425.5,83.4z"/>
			<path class="st5" d="M428.7,89.8c0.6,0.5,1.6,1.9,0.8,2.8l-0.4,0.5l-0.7-0.6l0.3-0.3c0.4-0.4-0.2-1.3-0.6-1.7
				c-1.1-1-2.8-1-3.9,0.3c-1.2,1.3-1,2.9,0.1,3.9c1.1,1,2.3,0.8,2.3,0.8l-0.2,0.8c0,0-1.5,0.2-2.8-1c-1.6-1.4-1.7-3.6-0.2-5.2
				C425,88.5,427.2,88.4,428.7,89.8z"/>
			<path class="st5" d="M432.6,97.5l0.3,0.3l0.1-0.1c1-1.1,1-1.8,0.1-2.7c-0.3-0.2-1.1-0.9-1.4-0.5l-0.3,0.3l-0.7-0.6l0.5-0.5
				c0.7-0.7,2,0.3,2.5,0.7c1.6,1.6,1.2,2.8,0.1,3.9l-2.4,2.4c-0.1,0.2-0.1,0.3,0,0.4l0.4,0.4l-0.6,0.6l-0.7-0.7
				c-0.4-0.4-0.4-0.8,0-1.2c0.2-0.2,0.4-0.4,0.4-0.4l0,0c0,0-1.5,0.7-2.7-0.5c-0.8-0.8-1.2-2.2-0.3-3.2
				C429.5,94.5,431.8,96.6,432.6,97.5z M428.8,98.9c1,0.9,2.5,0.5,3.4-0.4l0.2-0.2l-0.3-0.3c-0.8-0.8-2.4-2.3-3.5-1.2
				C428.1,97.3,428,98.2,428.8,98.9z"/>
			<path class="st5" d="M441.9,102.8c1.2,1.2,0.6,2.6,0.6,2.6l0,0c0,0,0.2-0.2,0.4-0.4l1.7-1.6c0.1-0.1,0.1-0.3,0-0.4l-0.4-0.4
				l0.6-0.6l0.7,0.7c0.4,0.4,0.4,0.8,0,1.2l-5.7,5.4c-0.2,0.1-0.1,0.3,0,0.4l0.4,0.4l-0.6,0.6l-0.7-0.7c-0.4-0.4-0.4-0.8,0-1.1
				c0.2-0.2,0.3-0.3,0.3-0.3l0,0c0,0-1.4,0.5-2.7-0.8c-1.3-1.4-1-3.3,0.6-4.8C438.6,101.5,440.6,101.5,441.9,102.8z M440.8,107.1
				c1-1,1.6-2.5,0.5-3.6c-0.8-0.9-2.3-0.9-3.6,0.3c-1.3,1.2-1.5,2.6-0.6,3.6C437.9,108.2,439.3,108.4,440.8,107.1z"/>
			<path class="st5" d="M447.7,109.3c1.3,1.5,0.8,3.2-0.5,4.4c-0.1,0.1-0.4,0.3-0.4,0.3l-3.6-4.1c-1.3,1.2-1.3,2.8-0.3,3.9
				c0.8,1,2,1,2,1l-0.2,0.8c0,0-1.4-0.1-2.5-1.3c-1.4-1.6-1.3-3.8,0.4-5.2C444.4,107.6,446.4,107.8,447.7,109.3z M446.7,112.7
				c1.1-1,1-2.1,0.3-2.9c-0.8-0.9-2-1.1-3.2-0.4L446.7,112.7z"/>
		</g>
		<g>
			<path class="st5" d="M492.8,216.8c0.3,1.4,0.2,3.7-1.2,4.1l-0.8,0.2l-0.2-0.9l0.5-0.1c0.9-0.2,1-1.9,0.8-3
				c-0.5-2.1-2.5-3.4-4.8-2.9c-2.3,0.5-3.8,2.6-3.3,4.7c0.5,2,2.1,2.8,2.1,2.8l-0.6,0.7c0,0-1.9-1-2.4-3.3c-0.6-2.8,1.1-5.3,3.9-5.9
				C489.6,212.6,492.2,214.1,492.8,216.8z"/>
			<path class="st5" d="M492.7,222.7c0.2,0,0.3-0.2,0.2-0.4l-0.1-0.6l0.8-0.2l0.2,1c0.1,0.6-0.1,0.9-0.7,1l-7.7,1.5
				c-0.2,0-0.3,0.2-0.2,0.4l0.1,0.6l-0.8,0.2l-0.2-1c-0.1-0.6,0.1-0.9,0.7-1L492.7,222.7z"/>
			<path class="st5" d="M490.7,226.7c0.2,0,0.3-0.2,0.2-0.4l-0.1-0.6l0.8-0.1l0.2,1c0.1,0.6-0.1,0.9-0.7,1l-5,0.9
				c-0.2,0-0.3,0.2-0.2,0.4l0.1,0.6l-0.8,0.1l-0.2-1c-0.1-0.6,0.1-0.9,0.7-1L490.7,226.7z M494.5,226l0.2,0.9l-1.2,0.2l-0.2-0.9
				L494.5,226z"/>
			<path class="st5" d="M493,232.8c0.3,1.9-1,3.1-2.8,3.4c-0.2,0-0.5,0-0.5,0l-0.8-5.3c-1.8,0.3-2.6,1.7-2.3,3.1
				c0.2,1.3,1.2,2,1.2,2l-0.6,0.6c0,0-1.2-0.9-1.4-2.4c-0.3-2.1,0.9-3.9,3.1-4.2C491.1,229.6,492.7,230.9,493,232.8z M490.4,235.2
				c1.4-0.3,2-1.3,1.8-2.3c-0.2-1.1-1.1-2-2.5-2.1L490.4,235.2z"/>
			<path class="st5" d="M492.5,237.9c0.2,0,0.3-0.1,0.3-0.3l-0.1-0.6l0.8-0.1l0.1,1c0.1,0.6-0.1,0.9-0.7,0.9l-0.3,0
				c-0.3,0-0.5,0-0.5,0l0,0c0.7,0.2,1.9,0.9,2.1,2.6c0.2,1.7-0.7,2.5-2.4,2.7l-3.3,0.4c-0.2,0-0.3,0.1-0.3,0.3l0.1,0.6l-0.8,0.1
				l-0.1-1c-0.1-0.6,0.1-0.9,0.7-0.9l3.3-0.4c1.1-0.1,2.1-0.4,1.9-1.8c-0.1-1.2-1.1-2.1-2.3-2.3c-0.3,0-0.6,0-1,0l-3.3,0.4l-0.1-0.9
				L492.5,237.9z"/>
			<path class="st5" d="M493.8,246.5l-0.1-0.9l0.8-0.1l0.1,0.9l1.9-0.2l0.1,0.9l-1.9,0.2l0.2,1.8l-0.8,0.1l-0.2-1.8l-3.6,0.3
				c-1.6,0.1-1.8,1.2-1.7,1.7c0,0.2,0.1,0.3,0.1,0.3l-0.9,0.1c0,0,0-0.2-0.1-0.4c-0.1-0.8,0-2.5,2.4-2.7L493.8,246.5z"/>
			<path class="st5" d="M495.3,253.8c0.1,1.9-1.3,3-3.1,3.2c-0.2,0-0.5,0-0.5,0l-0.3-5.4c-1.8,0.1-2.7,1.4-2.6,2.9
				c0.1,1.3,1,2.1,1,2.1l-0.7,0.5c0,0-1.1-1-1.2-2.5c-0.1-2.1,1.3-3.8,3.4-3.9C493.7,250.4,495.2,251.9,495.3,253.8z M492.5,256
				c1.4-0.1,2.1-1.1,2-2.1c-0.1-1.2-0.9-2.1-2.3-2.3L492.5,256z"/>
		</g>
		<g>
			<path class="st5" d="M434.7,407.9c0.9-1.1,2.8-2.5,4-1.5l0.6,0.5l-0.6,0.7l-0.4-0.3c-0.7-0.6-2.1,0.3-2.8,1.2
				c-1.4,1.7-1.1,4.1,0.7,5.6c1.8,1.5,4.3,1.4,5.8-0.3c1.3-1.6,1-3.4,1-3.4l0.9,0c0,0,0.4,2.1-1.2,3.9c-1.8,2.2-4.9,2.3-7.1,0.5
				C433.3,413.1,433,410.1,434.7,407.9z"/>
			<path class="st5" d="M442.2,403c1.2-1.6,3.5-2,5.2-0.8c1.7,1.3,2,3.6,0.7,5.2c-1.2,1.6-3.5,2-5.2,0.7
				C441.2,406.9,440.9,404.7,442.2,403z M447.4,407c0.9-1.2,0.7-2.9-0.6-3.9c-1.3-1-3-0.7-3.9,0.5c-0.9,1.2-0.7,2.9,0.6,3.9
				C444.7,408.4,446.5,408.2,447.4,407z"/>
			<path class="st5" d="M446.5,399.4c-0.2-0.1-0.3-0.1-0.4,0.1l-0.3,0.5l-0.7-0.5l0.6-0.8c0.3-0.5,0.7-0.6,1.1-0.2l0.3,0.2
				c0.2,0.2,0.4,0.3,0.4,0.3l0,0c-0.4-0.6-0.8-2,0.2-3.3c1-1.4,2.2-1.4,3.6-0.4l2.7,1.9c0.2,0.1,0.3,0.1,0.4-0.1l0.3-0.5l0.7,0.5
				l-0.6,0.8c-0.3,0.5-0.7,0.6-1.2,0.2l-2.8-1.9c-0.9-0.6-1.8-1.1-2.6,0.1c-0.7,1-0.6,2.3,0.2,3.2c0.2,0.2,0.4,0.4,0.7,0.6l2.8,1.9
				l-0.5,0.8L446.5,399.4z"/>
			<path class="st5" d="M454.7,394.9c0,0,1.3-0.1,2.1-1.2c0.4-0.7,0.5-1.4-0.1-1.9c-1.3-0.8-3.2,2.6-5.1,1.4c-1.1-0.7-1-2-0.2-3.1
				c0.4-0.6,1.4-1.6,2.2-1.1l0.5,0.3l-0.5,0.8l-0.3-0.2c-0.4-0.3-1,0.2-1.3,0.6c-0.5,0.8-0.6,1.5,0,1.9c1.3,0.9,3.2-2.6,5.1-1.4
				c1,0.6,1.1,2,0.3,3.1c-1,1.5-2.5,1.6-2.5,1.6L454.7,394.9z"/>
			<path class="st5" d="M454.7,387.3c-0.2-0.1-0.3-0.1-0.4,0.1l-0.3,0.5l-0.7-0.4l0.5-0.8c0.3-0.5,0.7-0.6,1.1-0.3l2.9,1.8
				c0.9,0.6,1.9,0.9,2.6-0.2c0.8-1.4,0.1-2.9-1.2-3.7l-2.9-1.8l0.5-0.8l5,3.1c0.2,0.1,0.3,0.1,0.4-0.1l0.3-0.5l0.7,0.4l-0.5,0.8
				c-0.3,0.5-0.7,0.6-1.1,0.3l-0.3-0.2c-0.2-0.1-0.4-0.3-0.4-0.3l0,0c0.4,0.6,0.9,2,0.1,3.3c-0.9,1.4-2,1.6-3.6,0.6L454.7,387.3z"/>
			<path class="st5" d="M459.1,380c-0.2-0.1-0.3,0-0.4,0.1l-0.3,0.5l-0.7-0.4l0.5-0.9c0.3-0.5,0.6-0.6,1.1-0.4l0.3,0.2
				c0.2,0.1,0.4,0.3,0.4,0.3l0,0c-0.7-0.8-0.9-2.1-0.3-3.1c0.6-1.1,1.5-1.4,2.6-1.1l0,0c-0.7-0.8-0.9-2.1-0.3-3.1
				c0.8-1.5,2-1.6,3.5-0.7l2.9,1.6c0.2,0.1,0.3,0,0.4-0.1l0.3-0.5l0.7,0.4l-0.5,0.9c-0.3,0.5-0.6,0.6-1.2,0.3l-3-1.6
				c-1-0.5-2-0.8-2.6,0.3c-0.5,0.9-0.1,2.2,0.7,2.9c0.2,0.2,0.5,0.4,0.8,0.6l2.9,1.6l-0.5,0.8l-3.7-2c-0.9-0.5-1.9-0.9-2.6,0.3
				c-0.5,1-0.1,2.2,0.7,3c0.2,0.2,0.5,0.4,0.8,0.5l2.9,1.6l-0.5,0.8L459.1,380z"/>
			<path class="st5" d="M461.7,366.7l0.4-0.8l1.1,0.5l-0.4,0.8L461.7,366.7z M465.3,368.4c-0.2-0.1-0.3,0-0.4,0.1l-0.3,0.5l-0.7-0.4
				l0.4-0.9c0.3-0.5,0.6-0.7,1.1-0.4l4.5,2.3c0.2,0.1,0.3,0,0.4-0.1l0.3-0.5l0.7,0.4l-0.4,0.9c-0.3,0.5-0.6,0.7-1.1,0.4L465.3,368.4
				z"/>
			<path class="st5" d="M466.7,362.5c0.7-1.5,2.2-1.5,2.2-1.5l0,0c0,0-0.2-0.1-0.5-0.2l-2.1-1c-0.2-0.1-0.3,0-0.4,0.1l-0.2,0.5
				l-0.7-0.3l0.4-0.9c0.3-0.5,0.6-0.7,1.1-0.4l7.1,3.3c0.2,0.1,0.3,0,0.4-0.2l0.2-0.5l0.7,0.4l-0.4,0.9c-0.2,0.5-0.6,0.6-1.1,0.4
				c-0.2-0.1-0.4-0.2-0.4-0.2l0,0c0,0,1,1.1,0.2,2.8c-0.8,1.7-2.7,2.1-4.6,1.2C466.7,366,465.9,364.2,466.7,362.5z M471,361.9
				c-1.3-0.6-2.9-0.5-3.5,0.8c-0.5,1.1,0,2.5,1.6,3.3c1.6,0.7,3,0.4,3.5-0.8C473.1,364.1,472.8,362.8,471,361.9z"/>
			<path class="st5" d="M470.2,354.5c0.8-1.9,2.9-2.8,4.8-2c2,0.8,2.8,3,2,4.9c-0.8,1.9-2.9,2.8-4.9,2
				C470.2,358.6,469.4,356.4,470.2,354.5z M476.2,357.1c0.6-1.4-0.1-3-1.6-3.6c-1.5-0.6-3,0.1-3.6,1.4c-0.6,1.4,0,3,1.5,3.6
				C474,359.1,475.7,358.5,476.2,357.1z"/>
			<path class="st5" d="M473.5,349.9c-0.2-0.1-0.3,0-0.4,0.2l-0.2,0.5l-0.8-0.3l0.4-0.9c0.2-0.5,0.5-0.7,1.1-0.5l0.4,0.2
				c0.3,0.1,0.5,0.2,0.5,0.2l0,0c-0.9-0.7-1.3-1.7-0.9-2.8c0.1-0.2,0.2-0.3,0.2-0.3l0.9,0.3c0,0-0.1,0.1-0.2,0.3
				c-0.4,0.9,0.1,1.9,1,2.6c0.4,0.3,0.8,0.5,1.2,0.7l2.8,1.1l-0.3,0.9L473.5,349.9z"/>
		</g>
	</g>
</g>
</svg>
