<?xml version="1.0" encoding="utf-8"?>
<!-- Generator: Adobe Illustrator 21.1.0, SVG Export Plug-In . SVG Version: 6.00 Build 0)  -->
<svg version="1.1" id="Capa_1" xmlns="http://www.w3.org/2000/svg" xmlns:xlink="http://www.w3.org/1999/xlink" x="0px" y="0px"
	 viewBox="0 0 530 530" style="enable-background:new 0 0 530 530;" xml:space="preserve">
<style type="text/css">
	.st0{fill:#36A9DF;}
	.st1{opacity:0.2;fill:#36A9DF;enable-background:new    ;}
	.st2{opacity:0.8;fill:#36A9DF;enable-background:new    ;}
	.st3{opacity:0.5;fill:#36A9DF;enable-background:new    ;}
	.st4{fill:#E21F13;}
	.st5{fill:#FFFFFF;}
</style>
<path class="st0 event logistica-larga" d="M202.3,45.6L202.3,45.6L202.3,45.6L202.3,45.6L202.3,45.6l-6.9,36.7c38.7-14.8,82.3-17.5,124.6-5.1l29.3-23.9
	l-7.6-42c-58.5-17.7-119-14-172.5,6.8L202.3,45.6z"/>
<path class="st1" d="M347.8,479.1L347.8,479.1L347.8,479.1L347.8,479.1L347.8,479.1l3.8-38.7c-2.2,1.1-4.5,2.1-6.7,3.1l-7.3,38.7
	l31.7,26.3c4.3-1.8,8.5-3.8,12.7-5.8L347.8,479.1z"/>
<path class="st0 event clientes" d="M488.3,310.8l40.1-14.8c7.1-59.7-6.6-118.9-36.7-168.6l-21.4,37.4v0.1l0,0l0,0l0,0l-37.2-0.5
	c21.6,36,31.5,78.7,26.7,121.8L488.3,310.8z"/>
<path class="st2" d="M374.2,466.4l35.8,20.4c10.6-6.9,20.6-14.5,30.2-22.8l-40.6-14.6h-0.1l0,0l0,0l0,0l-6-36.7
	c-6,5.2-12.3,10-18.8,14.4L374.2,466.4z"/>
<path class="st0 event logistica-corta" d="M358,56.4L358,56.4L358,56.4L358,56.4L358,56.4l-28.9,23.7c1,0.4,2,0.7,3.1,1.1c40.6,14.8,73.4,41.7,95.7,75.1
	l37.8,0.5l21.2-37.1c-30.3-46.2-75.1-83.4-131-103.7c-1.9-0.7-3.7-1.3-5.6-2L358,56.4z"/>
<path class="st3" d="M366.1,471.1L366.1,471.1L366.1,471.1L366.1,471.1L366.1,471.1l0.4-38.9c-2.1,1.3-4.3,2.5-6.4,3.7l-3.9,39.2
	l33.9,23.5c4.1-2.2,8.2-4.5,12.1-6.9L366.1,471.1z"/>
<path class="st1" d="M172.2,474.7L172.2,474.7L172.2,474.7L172.2,474.7L172.2,474.7l30.1-24.6c-1.3-0.4-2.5-0.9-3.8-1.3
	c-1.1-0.4-2.1-0.8-3.2-1.2l-32.6,22.2l3.8,41c2.7,1.1,5.4,2.2,8.2,3.2c1.6,0.6,3.2,1.1,4.9,1.7L172.2,474.7z"/>
<path class="st0 event aprovisionamiento" d="M106.9,429.2L106.9,429.2L106.9,429.2L106.9,429.2L106.9,429.2l35.1-12.3c-33.4-27.1-56.6-64.3-66.7-105.4
	L40,298.1L7.4,325.7c13.5,57,45.6,108.7,92.1,146L106.9,429.2z"/>
<path class="st0 event consumidor" d="M486.7,320L486.7,320L486.7,320L486.7,320L486.7,320l-28.3-24.3c-1.9,12.1-5,24.2-9.4,36.1
	c-10.6,29.2-27.5,54.3-48.5,74.4l6.1,37.2l40.2,14.4c29.3-27.5,52.7-62,67.4-102.3c6.1-16.7,10.3-33.6,13-50.5L486.7,320z"/>
<path class="st2" d="M106.8,477.3c9.6,7.2,19.8,13.8,30.5,19.7l-0.2-41.6l0,0l0,0l0,0h0.1l33.8-18.9c-7.5-4.1-14.6-8.7-21.3-13.6
	l-35.6,12.2L106.8,477.3z"/>
<path class="st3" d="M186.3,443.8c-2.3-1-4.5-2-6.7-3.1l-34.3,19.2l0.2,41.2c4.1,2.1,8.3,4.1,12.6,6l-3.8-41.4l0,0l0,0l0,0h0.1
	L186.3,443.8z"/>
<path class="st0 event produccion" d="M76.1,137.4L76.1,137.4L76.1,137.4L76.1,137.4L76.1,137.4l18.3,32.5c21.2-38.2,54-67.2,92.2-84l7-37.1
	l-32.9-27.2C107.6,44.4,62,84.5,32.9,137.7L76.1,137.4z"/>
<path class="st0 event logistica-produccion" d="M38.4,288.9L38.4,288.9L38.4,288.9L38.4,288.9L38.4,288.9L73.3,302c-6.5-33.7-4.3-69.5,8.3-104
	c2.5-6.7,5.3-13.3,8.3-19.6l-18.5-32.9l-42.7,0.2c-4.6,9.2-8.8,18.7-12.4,28.6C-0.9,221.6-3.8,270.7,5.4,316.8L38.4,288.9z"/>
<g>
	<path class="st4" d="M298.5,520h-66v-66h66V520z M233.7,518.8h63.7v-63.6h-63.6v63.6H233.7z"/>
</g>
<g>
	<path class="st4" d="M237.9,501.2v4.7c0,1-0.8,1.9-1.9,1.9h-23.9c-1,0-1.9-0.8-1.9-1.9v-9.8v-28c0-1,0.8-1.9,1.9-1.9H236
		c1,0,1.9,0.8,1.9,1.9v4.7h55.3v-4.7c0-1,0.8-1.9,1.9-1.9H319c1,0,1.9,0.8,1.9,1.9v26.7v11.1c0,1-0.8,1.9-1.9,1.9h-23.9
		c-1,0-1.9-0.8-1.9-1.9v-4.7L237.9,501.2L237.9,501.2z"/>
	<g>
		<path class="st5" d="M313.9,473.8c0,0.6,0.5,1.1,1.1,1.1s1.1-0.5,1.1-1.1s-0.5-1.1-1.1-1.1S313.9,473.2,313.9,473.8z M315.9,473.8
			c0,0.5-0.4,0.9-0.9,0.9s-0.9-0.4-0.9-0.9s0.4-0.9,0.9-0.9S315.9,473.3,315.9,473.8z M314.6,474.5h0.2v-0.6h0.2l0.4,0.6h0.2
			l-0.4-0.6c0.2,0,0.3-0.1,0.3-0.4c0-0.2-0.1-0.4-0.4-0.4h-0.5L314.6,474.5L314.6,474.5z M314.8,473.4h0.3c0.1,0,0.2,0.1,0.2,0.2
			s-0.1,0.2-0.3,0.2h-0.2V473.4z"/>
		<g>
			<path class="st5" d="M228.1,485.7c-1.6,1.2-3.6,1.7-6.1,1.7h-1.4v6.7c0,0.5-0.2,0.7-0.8,0.7h-2.4c-0.5,0-0.7-0.2-0.7-0.8v-19.4
				c0-0.6,0.2-0.8,0.8-0.8h4.4c3.2,0,5.6,0.6,7.1,2.3c1,1.1,1.5,2.7,1.5,4.3C230.5,482.8,229.6,484.6,228.1,485.7z M222.2,476.8
				h-1.6v7.6h0.8c1.8,0,3.2-0.1,4.2-1.1c0.6-0.6,0.9-1.5,0.9-2.7C226.6,477.8,224.9,476.8,222.2,476.8z"/>
			<path class="st5" d="M246.7,494.2c0,0.4-0.2,0.6-0.6,0.6h-1.5c-1.6,0-2.3-0.8-2.5-1.8H242c-0.9,1.2-2.7,2.2-4.4,2.2
				c-4.3,0-6.2-3.5-6.2-7.5c0-5.3,3.2-8,6.6-8c1.6,0,3.1,0.7,3.9,1.8l0.1-0.8c0-0.3,0.3-0.5,0.6-0.5h2.1c0.4,0,0.6,0.2,0.6,0.7v10.7
				c0,0.5,0.1,0.8,0.5,0.8h0.2c0.4,0,0.5,0.1,0.5,0.5v1.3L246.7,494.2L246.7,494.2z M241.7,484.2c-0.6-0.9-1.9-1.6-3-1.6
				c-1.9,0-3.4,1.6-3.4,4.8c0,2.6,1,4.7,3.2,4.7c1.5,0,2.8-1.1,3.2-2.1V484.2L241.7,484.2z"/>
			<path class="st5" d="M253.3,495.2c-1.6,0-3.3-0.5-4.7-1.1c-0.3-0.2-0.5-0.4-0.3-0.7l0.5-1.7c0.1-0.4,0.4-0.5,0.7-0.3
				c1.4,0.6,2.8,0.9,3.8,0.9c1.3,0,2.3-0.6,2.3-1.6c0-0.9-0.6-1.3-1.8-1.8l-2.4-0.9c-1.7-0.6-3.1-2-3.1-4c0-3,2.8-4.3,5.5-4.3
				c1.5,0,2.9,0.2,4.4,0.9c0.4,0.2,0.4,0.4,0.3,0.7l-0.5,1.6c-0.1,0.4-0.4,0.4-0.7,0.3c-1-0.4-2.3-0.7-3.3-0.7
				c-1.3,0-1.9,0.7-1.9,1.4c0,0.7,0.3,1.1,1.5,1.5l2.7,1.1c1.6,0.7,2.9,1.9,2.9,3.9C259.2,493.6,256.4,495.2,253.3,495.2z"/>
			<path class="st5" d="M271.7,491.6c0.3-0.1,0.6-0.1,0.7,0.2l0.4,1.5c0.1,0.5,0.1,0.7-0.4,0.9c-1.5,0.7-2.8,0.9-4.4,0.9
				c-4.7,0-7.3-2.9-7.3-7.6s2.8-7.9,7.5-7.9c1.4,0,2.8,0.3,4.1,0.9c0.4,0.2,0.4,0.4,0.3,0.8l-0.4,1.6c-0.1,0.3-0.3,0.5-0.7,0.3
				c-0.9-0.4-1.9-0.7-2.9-0.7c-2.6,0-4.1,1.9-4.1,4.8s1.3,4.9,4,4.9C269.8,492.3,270.6,492.1,271.7,491.6z"/>
			<path class="st5" d="M287.8,494c0,0.6-0.2,0.9-0.8,0.9h-1.9c-0.4,0-0.7-0.2-0.7-0.6v-0.8c-1.4,1.1-3.1,1.7-4.8,1.7
				c-3.4,0-4.8-2.2-4.8-5.4v-9c0-0.5,0.3-0.7,0.8-0.7h2.1c0.5,0,0.8,0.2,0.8,0.7v8.3c0,1.7,0.4,2.8,2.2,2.8c1.2,0,2.6-0.6,3.5-1.5
				v-9.7c0-0.5,0.3-0.7,0.8-0.7h2.2c0.5,0,0.8,0.2,0.8,0.7V494L287.8,494L287.8,494z"/>
			<path class="st5" d="M305.6,494.2c0,0.4-0.2,0.6-0.6,0.6h-1.5c-1.6,0-2.3-0.8-2.5-1.8h-0.1c-0.9,1.2-2.7,2.2-4.4,2.2
				c-4.3,0-6.2-3.5-6.2-7.5c0-5.3,3.2-8,6.6-8c1.6,0,3.1,0.7,3.9,1.8l0.1-0.8c0-0.3,0.3-0.5,0.6-0.5h2.1c0.4,0,0.6,0.2,0.6,0.7v10.7
				c0,0.5,0.1,0.8,0.5,0.8h0.2c0.4,0,0.5,0.1,0.5,0.5v1.3L305.6,494.2L305.6,494.2z M300.6,484.2c-0.6-0.9-1.9-1.6-3-1.6
				c-1.9,0-3.4,1.6-3.4,4.8c0,2.6,1,4.7,3.2,4.7c1.5,0,2.8-1.1,3.2-2.1L300.6,484.2L300.6,484.2z"/>
			<path class="st5" d="M311.3,494c0,0.5-0.2,0.8-0.7,0.8h-2.3c-0.4,0-0.7-0.2-0.7-0.7v-19.9c0-0.5,0.1-0.8,0.6-0.8l2.5-0.3
				c0.3,0,0.6,0.1,0.6,0.5V494z"/>
		</g>
	</g>
</g>
<g>
	<path class="st4" d="M253.3,466.5c0.1,0.2,0,0.3-0.2,0.3c-0.7,0.3-1.4,0.5-2.2,0.5c-2.4,0-3.5-1.7-3.5-4s1.4-4.1,3.6-4.1
		c0.8,0,1.5,0.2,2.1,0.5c0.2,0.1,0.2,0.1,0.1,0.3l-0.3,0.7c0,0.1-0.1,0.2-0.3,0.1c-0.6-0.3-1.1-0.4-1.6-0.4c-1.6,0-2.2,1.4-2.2,2.8
		c0,1.7,0.8,2.8,2.2,2.8c0.5,0,1.1-0.1,1.6-0.4c0.1-0.1,0.2-0.1,0.3,0.1L253.3,466.5z"/>
	<path class="st4" d="M259.6,467c0,0.1-0.1,0.2-0.2,0.2h-0.5c-0.6,0-0.8-0.3-0.9-0.7l0,0c-0.3,0.5-1,0.8-1.6,0.8
		c-1.6,0-2.3-1.3-2.3-2.8c0-1.9,1.2-3,2.4-3c0.6,0,1.2,0.3,1.4,0.7v-0.3c0-0.1,0.1-0.2,0.2-0.2h0.8c0.1,0,0.2,0.1,0.2,0.2v4
		c0,0.2,0,0.3,0.2,0.3h0.1c0.1,0,0.2,0,0.2,0.2L259.6,467L259.6,467z M257.7,463.3c-0.2-0.3-0.7-0.6-1.1-0.6c-0.7,0-1.3,0.6-1.3,1.8
		c0,0.9,0.4,1.7,1.2,1.7c0.6,0,1-0.4,1.2-0.8V463.3L257.7,463.3z"/>
	<path class="st4" d="M261.9,466.9c0,0.2-0.1,0.3-0.2,0.3h-0.9c-0.2,0-0.3-0.1-0.3-0.3v-7.4c0-0.2,0-0.3,0.2-0.3l0.9-0.1
		c0.1,0,0.2,0,0.2,0.2L261.9,466.9L261.9,466.9z"/>
	<path class="st4" d="M264.1,461c-0.4,0-0.8-0.2-0.8-0.7s0.4-0.7,0.8-0.7s0.8,0.3,0.8,0.7C264.9,460.8,264.5,461,264.1,461z
		 M264.8,466.9c0,0.2-0.1,0.3-0.3,0.3h-0.8c-0.2,0-0.3-0.1-0.3-0.3V462c0-0.2,0.1-0.3,0.3-0.3h0.8c0.2,0,0.3,0.1,0.3,0.3V466.9z"/>
	<path class="st4" d="M271.1,466.9c0,0.2-0.1,0.3-0.2,0.3h-0.7c-0.2,0-0.3-0.1-0.3-0.2v-0.3c-0.3,0.4-0.9,0.7-1.5,0.7
		c-1.6,0-2.4-1.3-2.4-2.8c0-1.6,0.9-2.9,2.5-2.9c0.5,0,1,0.2,1.4,0.5v-2.5c0-0.2,0-0.3,0.2-0.3l0.9-0.1c0.1,0,0.2,0,0.2,0.2v7.4
		L271.1,466.9L271.1,466.9z M269.8,463.3c-0.2-0.3-0.7-0.6-1.1-0.6c-0.9,0-1.3,0.8-1.3,1.8c0,0.9,0.3,1.8,1.2,1.8
		c0.4,0,0.9-0.3,1.1-0.6L269.8,463.3L269.8,463.3z"/>
	<path class="st4" d="M277.9,467c0,0.1-0.1,0.2-0.2,0.2h-0.5c-0.6,0-0.8-0.3-0.9-0.7l0,0c-0.3,0.5-1,0.8-1.6,0.8
		c-1.6,0-2.3-1.3-2.3-2.8c0-1.9,1.2-3,2.4-3c0.6,0,1.2,0.3,1.4,0.7v-0.3c0-0.1,0.1-0.2,0.2-0.2h0.8c0.1,0,0.2,0.1,0.2,0.2v4
		c0,0.2,0,0.3,0.2,0.3h0.1c0.1,0,0.2,0,0.2,0.2L277.9,467L277.9,467z M276,463.3c-0.2-0.3-0.7-0.6-1.1-0.6c-0.7,0-1.3,0.6-1.3,1.8
		c0,0.9,0.4,1.7,1.2,1.7c0.5,0,1-0.4,1.2-0.8L276,463.3L276,463.3z"/>
	<path class="st4" d="M283.7,466.9c0,0.2-0.1,0.3-0.2,0.3h-0.7c-0.2,0-0.3-0.1-0.3-0.2v-0.3c-0.3,0.4-0.9,0.7-1.5,0.7
		c-1.6,0-2.4-1.3-2.4-2.8c0-1.6,0.9-2.9,2.5-2.9c0.5,0,1,0.2,1.4,0.5v-2.5c0-0.2,0-0.3,0.2-0.3l0.9-0.1c0.1,0,0.2,0,0.2,0.2v7.4
		L283.7,466.9L283.7,466.9z M282.3,463.3c-0.2-0.3-0.7-0.6-1.1-0.6c-0.9,0-1.3,0.8-1.3,1.8c0,0.9,0.3,1.8,1.3,1.8
		c0.4,0,0.9-0.3,1.1-0.6V463.3z"/>
</g>
<g>
	<path class="st5" d="M55.7,357.7c0,0-0.7,1.4-0.1,2.8c0.4,1,1.4,1.5,2.4,1.1c2.2-1-0.2-5.2,2.6-6.5c1.3-0.6,2.8,0.1,3.5,1.7
		c0.4,0.9,0.7,2.6-0.5,3.1l-0.6,0.3l-0.4-0.8l0.4-0.2c0.5-0.2,0.6-1.2,0.2-2c-0.5-1.2-1.5-1.5-2.3-1.2c-2.1,0.9,0.4,5.1-2.6,6.4
		c-1.3,0.6-2.9,0.1-3.7-1.6c-0.8-1.8,0-3.4,0-3.4L55.7,357.7z"/>
	<path class="st5" d="M62.3,362.9c0.2-0.1,0.2-0.2,0.1-0.4l-0.3-0.5l0.7-0.4l0.4,0.9c0.3,0.5,0.1,0.9-0.4,1.1l-3.1,1.5
		c-1,0.5-1.8,1.1-1.2,2.3c0.7,1.4,2.4,1.7,3.8,1.1l3-1.5l0.4,0.9l-5.3,2.6c-0.2,0.1-0.2,0.2-0.1,0.4l0.3,0.5l-0.7,0.4l-0.4-0.9
		c-0.3-0.5-0.1-0.9,0.3-1.1l0.3-0.1c0.3-0.1,0.5-0.2,0.5-0.2l0,0c-0.7,0-2.1-0.3-2.8-1.7c-0.7-1.5-0.2-2.5,1.4-3.3L62.3,362.9z"/>
	<path class="st5" d="M66.1,370.5c0.2-0.1,0.2-0.2,0.1-0.4l-0.3-0.5l0.7-0.4l0.5,0.9c0.3,0.5,0.2,0.9-0.3,1.1
		c-0.2,0.1-0.4,0.2-0.4,0.2l0,0c0,0,1.5-0.2,2.4,1.5c0.9,1.7,0.1,3.4-1.8,4.4c-2,1-3.9,0.5-4.7-1.1c-0.8-1.5,0.1-2.7,0.1-2.7l0,0
		c0,0-0.2,0.1-0.5,0.3l-3,1.6l-0.4-0.8L66.1,370.5z M62.9,375.8c0.6,1.1,2,1.5,3.6,0.7c1.5-0.8,2.1-2.1,1.5-3.3
		c-0.5-1-1.8-1.6-3.6-0.7C63.1,373.1,62.2,374.5,62.9,375.8z"/>
	<path class="st5" d="M70,377.8c0.2-0.1,0.2-0.3,0.1-0.4l-0.3-0.5l0.7-0.4l0.5,0.8c0.3,0.5,0.2,0.9-0.2,1.1
		c-0.2,0.1-0.4,0.2-0.4,0.2l0,0c0,0,1.5-0.2,2.4,1.4c0.9,1.6,0.2,3.4-1.7,4.5c-1.9,1.1-3.9,0.7-4.8-0.9c-0.9-1.5,0-2.7,0-2.7l0,0
		c0,0-0.2,0.2-0.5,0.3l-2.9,1.7l-0.5-0.8L70,377.8z M67,383.1c0.6,1.1,2,1.4,3.6,0.5c1.5-0.9,2-2.2,1.3-3.3c-0.6-1-1.9-1.6-3.6-0.6
		C67.1,380.5,66.3,381.9,67,383.1z"/>
	<path class="st5" d="M76.4,383.3c0.2-0.1,0.2-0.3,0.1-0.4l-0.3-0.5l0.7-0.4l0.5,0.8c0.3,0.5,0.2,0.9-0.3,1.2l-6.7,4.1
		c-0.2,0.1-0.2,0.3-0.1,0.4l0.3,0.5l-0.7,0.4l-0.5-0.8c-0.3-0.5-0.2-0.9,0.3-1.2L76.4,383.3z"/>
	<path class="st5" d="M69.4,392.4c0.3,0.5,1,0.6,1.7,0.5l1-0.2l3.6-5.3c0.2-0.2,0.1-0.4,0-0.6l-0.1-0.1l0.7-0.4l0.2,0.4
		c0.3,0.5,0.3,0.8-0.1,1.3l-2.7,3.9c-0.2,0.3-0.5,0.6-0.5,0.6l0,0c0,0,0.4-0.1,0.8-0.2l4.6-0.9c0.7-0.1,0.9,0,1.2,0.5l0.2,0.4
		l-0.7,0.4l-0.1-0.1c-0.1-0.2-0.3-0.3-0.5-0.2l-7.8,1.4c-0.9,0.2-1.8-0.1-2.3-0.9c-0.5-0.8-0.3-1.7-0.3-1.7l0.8,0
		C69.2,391.2,69,391.8,69.4,392.4z"/>
</g>
<g>
	<path class="st5" d="M92,113.1l-0.6,0.7l-0.6-0.6l2.8-3.1c1.2-1.3,2.9-1.5,4.2-0.2c1.4,1.2,1.3,3,0.2,4.3l-1.5,1.7l2.9,2.6
		l-0.7,0.7L92,113.1z M97.2,113.6c0.9-1,0.9-2.1-0.1-3c-1-0.9-2.1-0.8-3,0.2l-1.5,1.6l3.1,2.9L97.2,113.6z"/>
	<path class="st5" d="M99.7,109.3c-0.1-0.1-0.3-0.1-0.4,0l-0.4,0.4l-0.6-0.6l0.7-0.7c0.4-0.4,0.8-0.4,1.2-0.1l0.3,0.3
		c0.2,0.2,0.4,0.4,0.4,0.4l0,0c-0.5-1-0.6-2.1,0.2-2.9c0.1-0.1,0.3-0.2,0.3-0.2l0.7,0.7c0,0-0.1,0.1-0.3,0.2
		c-0.7,0.7-0.6,1.8-0.1,2.7c0.2,0.4,0.5,0.8,0.8,1.1l2.1,2.1l-0.7,0.7L99.7,109.3z"/>
	<path class="st5" d="M104.3,102.8c1.5-1.4,3.8-1.5,5.2,0c1.5,1.5,1.4,3.8-0.1,5.3c-1.5,1.4-3.8,1.5-5.3-0.1
		C102.8,106.5,102.9,104.2,104.3,102.8z M108.9,107.4c1.1-1,1.1-2.8,0-4c-1.1-1.1-2.8-1.1-3.9-0.1c-1.1,1.1-1.1,2.8,0,3.9
		C106.1,108.5,107.8,108.5,108.9,107.4z"/>
	<path class="st5" d="M110.3,97.1c1.3-1.1,2.6-0.6,2.6-0.6l0,0c0,0-0.2-0.2-0.4-0.4l-1.5-1.7c-0.1-0.1-0.3-0.2-0.4,0l-0.4,0.4
		l-0.6-0.6l0.7-0.7c0.4-0.4,0.8-0.4,1.2,0.1l5.3,5.8c0.1,0.2,0.3,0.2,0.4,0l0.4-0.4l0.6,0.6l-0.7,0.7c-0.4,0.4-0.8,0.4-1.1,0
		c-0.2-0.2-0.3-0.4-0.3-0.4l0,0c0,0,0.5,1.4-0.9,2.7c-1.4,1.3-3.3,0.9-4.8-0.7C108.9,100.3,108.9,98.4,110.3,97.1z M114.5,98.3
		c-1-1.1-2.4-1.6-3.6-0.6c-0.9,0.8-1,2.3,0.2,3.6c1.2,1.3,2.6,1.5,3.6,0.6C115.6,101.2,115.9,99.8,114.5,98.3z"/>
	<path class="st5" d="M115.6,94.2c-0.1-0.2-0.3-0.2-0.4,0l-0.5,0.4l-0.5-0.6l0.8-0.6c0.5-0.4,0.8-0.4,1.2,0.1l2.2,2.6
		c0.7,0.8,1.5,1.5,2.5,0.6c1.2-1,1.1-2.7,0.1-3.9l-2.2-2.6l0.7-0.6l3.8,4.5c0.1,0.2,0.3,0.2,0.4,0l0.5-0.4l0.5,0.6l-0.7,0.6
		c-0.5,0.4-0.8,0.4-1.2-0.1l-0.2-0.2c-0.2-0.2-0.3-0.4-0.3-0.4l0,0c0.2,0.7,0.2,2.1-1,3.1c-1.3,1.1-2.4,0.8-3.6-0.6L115.6,94.2z"/>
	<path class="st5" d="M123.8,85.9c0.6-0.5,2.2-1.3,2.9-0.4l0.4,0.5l-0.7,0.6l-0.2-0.3c-0.4-0.5-1.3-0.1-1.8,0.3
		c-1.2,0.9-1.5,2.6-0.4,3.9c1.1,1.4,2.7,1.4,3.9,0.5c1.1-0.9,1.2-2.2,1.2-2.2l0.8,0.3c0,0,0,1.5-1.5,2.6c-1.7,1.3-3.8,1.1-5.2-0.6
		C121.8,89.4,122.1,87.2,123.8,85.9z"/>
	<path class="st5" d="M128,83.9l-0.7,0.5l-0.5-0.6l0.8-0.6l-1.2-1.6l0.8-0.6l1.2,1.6l1.4-1l0.5,0.6l-1.4,1l2.1,2.9
		c1,1.3,2,0.9,2.4,0.6c0.2-0.1,0.2-0.2,0.2-0.2l0.5,0.7c0,0-0.1,0.1-0.3,0.3c-0.7,0.5-2.1,1.2-3.5-0.7L128,83.9z"/>
	<path class="st5" d="M129.7,78.2l0.8-0.5l0.7,1l-0.8,0.5L129.7,78.2z M132,81.4c-0.1-0.2-0.3-0.2-0.4-0.1l-0.5,0.3l-0.5-0.7
		l0.8-0.6c0.5-0.3,0.8-0.3,1.2,0.2l2.9,4.1c0.1,0.2,0.3,0.2,0.4,0.1l0.5-0.3l0.5,0.7l-0.8,0.6c-0.5,0.3-0.8,0.3-1.2-0.2L132,81.4z"
		/>
	<path class="st5" d="M136.7,76.5c1.7-1.1,4-0.8,5.1,1c1.2,1.8,0.7,4-1,5.2c-1.7,1.1-4,0.7-5.2-1C134.5,79.9,135,77.7,136.7,76.5z
		 M140.4,82c1.2-0.8,1.6-2.5,0.7-3.9c-0.9-1.3-2.6-1.6-3.8-0.8c-1.3,0.8-1.6,2.5-0.7,3.8C137.4,82.5,139.1,82.8,140.4,82z"/>
	<path class="st5" d="M142.1,74.5c-0.1-0.2-0.3-0.2-0.4-0.1l-0.5,0.3l-0.4-0.7l0.8-0.5c0.5-0.3,0.9-0.2,1.1,0.2l0.2,0.3
		c0.1,0.2,0.2,0.4,0.2,0.4l0,0c-0.1-0.7,0-2.1,1.5-3c1.5-0.9,2.5-0.4,3.4,1.1l1.8,2.8c0.1,0.2,0.3,0.2,0.4,0.1l0.5-0.3l0.4,0.7
		l-0.8,0.5c-0.5,0.3-0.9,0.2-1.2-0.3l-1.8-2.9c-0.6-0.9-1.2-1.7-2.4-1c-1,0.6-1.5,1.9-1.1,3c0.1,0.3,0.2,0.6,0.4,0.9l1.8,2.9
		l-0.8,0.5L142.1,74.5z"/>
</g>
<g>
	<path class="st5" d="M41.4,269.5c-0.2,0-0.3,0.1-0.3,0.3l0,0.6l-0.8,0l0-1c0-0.6,0.3-0.8,0.7-0.8c0.3,0,0.5,0,0.5,0l0,0
		c0,0-1.4-0.6-1.4-2.4c0-1.9,1.5-3.1,3.7-3c2.2,0,3.7,1.4,3.7,3.2c0,1.7-1.3,2.3-1.3,2.3l0,0c0,0,0.3,0,0.6,0l3.3,0l0,1L41.4,269.5z
		 M46.7,266.4c0-1.2-1-2.3-2.8-2.3c-1.7,0-2.8,0.9-2.8,2.2c0,1.2,0.8,2.3,2.8,2.3C45.2,268.6,46.7,267.8,46.7,266.4z"/>
	<path class="st5" d="M38.7,261.2c-0.2,0-0.3,0.1-0.3,0.3l0,0.6l-0.8,0l0-1c0-0.6,0.3-0.8,0.9-0.8l7.9,0.3c0.2,0,0.3-0.1,0.3-0.3
		l0-0.6l0.8,0l0,1c0,0.6-0.3,0.8-0.9,0.8L38.7,261.2z"/>
	<path class="st5" d="M43.4,254.2l0-0.4l-0.1,0c-1.5-0.1-2,0.4-2.1,1.7c0,0.3,0,1.4,0.5,1.4l0.4,0l-0.1,0.9l-0.7,0
		c-1-0.1-1.1-1.7-1.1-2.4c0.1-2.2,1.3-2.7,2.9-2.6l3.4,0.2c0.2,0,0.3-0.1,0.3-0.3l0-0.6l0.8,0l-0.1,1c0,0.6-0.3,0.8-0.9,0.8
		c-0.3,0-0.5,0-0.5,0l0,0c0,0,1.5,0.7,1.4,2.4c-0.1,1.2-0.8,2.4-2.2,2.3C43.3,258.5,43.4,255.4,43.4,254.2z M47,256.2
		c0.1-1.3-1.3-2.2-2.5-2.3l-0.3,0l0,0.4c-0.1,1.1-0.2,3.3,1.4,3.4C46.3,257.7,47,257.3,47,256.2z"/>
	<path class="st5" d="M42.1,250.3c-0.2,0-0.3,0.1-0.3,0.3l-0.1,0.6l-0.8-0.1l0.1-1c0.1-0.6,0.3-0.8,0.9-0.8l0.3,0
		c0.3,0,0.5,0.1,0.5,0.1l0,0c-0.6-0.3-1.7-1.3-1.5-3c0.2-1.7,1.2-2.3,2.9-2.1l3.3,0.3c0.2,0,0.3-0.1,0.3-0.3l0.1-0.6l0.8,0.1l-0.1,1
		c-0.1,0.6-0.3,0.8-0.9,0.8l-3.4-0.3c-1.1-0.1-2.1,0-2.2,1.3c-0.1,1.2,0.6,2.3,1.7,2.7c0.3,0.1,0.6,0.2,0.9,0.2l3.4,0.3l-0.1,0.9
		L42.1,250.3z"/>
	<path class="st5" d="M42.7,241.6l-0.1,0.9l-0.8-0.1l0.1-0.9l-1.9-0.2l0.1-0.9l1.9,0.2l0.2-1.8l0.8,0.1l-0.2,1.7l3.6,0.4
		c1.6,0.2,2-0.8,2-1.3c0-0.2,0-0.3,0-0.3l0.8,0.1c0,0,0,0.2,0,0.4c-0.1,0.8-0.6,2.4-2.9,2.1L42.7,241.6z"/>
	<path class="st5" d="M41.4,232.8c-0.2,0-0.3,0.1-0.4,0.3l-0.1,0.6l-0.8-0.1l0.2-1c0.1-0.6,0.4-0.8,1-0.7L49,233
		c0.2,0,0.3-0.1,0.4-0.3l0.1-0.6l0.8,0.1l-0.2,1c-0.1,0.6-0.4,0.8-1,0.7L41.4,232.8z"/>
	<path class="st5" d="M44,226.4c0.4-2,2.2-3.4,4.3-3c2.1,0.4,3.4,2.3,3,4.3c-0.4,2-2.3,3.4-4.4,3C44.9,230.4,43.6,228.4,44,226.4z
		 M50.4,227.6c0.3-1.5-0.7-2.9-2.3-3.2c-1.6-0.3-3,0.7-3.2,2.2c-0.3,1.5,0.7,2.9,2.2,3.2C48.7,230.1,50.2,229.1,50.4,227.6z"/>
	<path class="st5" d="M45.7,218.5c0.4-1.8,1.7-2,1.7-2l0,0c0,0-0.1,0-0.3-0.1c-0.5-0.1-0.7-0.4-0.6-0.9l0.2-1l0.8,0.2l-0.1,0.6
		c0,0.2,0,0.3,0.2,0.4l5.6,1.3c2.2,0.5,2.7,2.3,2.3,4c-0.2,0.8-0.6,1.5-1.1,2.1l-0.7-0.5c0,0,0.7-0.7,0.9-1.7
		c0.3-1.3-0.1-2.5-1.6-2.9l-0.6-0.1c-0.3-0.1-0.5-0.1-0.5-0.1l0,0c0.7,0.6,0.9,1.4,0.7,2.4c-0.4,1.8-2.2,2.7-4.2,2.3
		C46.4,221.8,45.3,220.4,45.7,218.5z M49.7,217.1c-2-0.5-2.8,0.4-3.1,1.6c-0.3,1.3,0.5,2.3,2.1,2.7c1.6,0.4,2.9-0.3,3.2-1.6
		C52.1,218.6,51.7,217.5,49.7,217.1z"/>
	<path class="st5" d="M44.5,212.2l0.2-0.9l1.2,0.3l-0.2,0.9L44.5,212.2z M48.3,213.1c-0.2,0-0.3,0-0.4,0.2l-0.1,0.6l-0.8-0.2l0.2-1
		c0.1-0.6,0.5-0.8,1-0.6l4.9,1.3c0.2,0.1,0.3,0,0.4-0.2l0.1-0.6l0.8,0.2l-0.2,1c-0.1,0.6-0.5,0.8-1,0.6L48.3,213.1z"/>
	<path class="st5" d="M53.2,211.1c0,0,1.2-0.5,1.6-1.8c0.2-0.8,0-1.5-0.7-1.7c-1.5-0.4-2.3,3.5-4.5,2.9c-1.2-0.3-1.5-1.6-1.2-2.9
		c0.2-0.7,0.8-2,1.8-1.7l0.6,0.2l-0.2,0.9l-0.3-0.1c-0.5-0.1-0.9,0.5-1,1c-0.3,0.9-0.1,1.6,0.6,1.8c1.5,0.4,2.2-3.5,4.5-2.8
		c1.1,0.3,1.6,1.6,1.2,2.9c-0.5,1.8-1.9,2.3-1.9,2.3L53.2,211.1z"/>
	<path class="st5" d="M50.6,203.5l-0.3,0.9l-0.8-0.2l0.3-0.9l-1.9-0.6l0.3-0.9l1.9,0.6l0.5-1.7l0.8,0.2l-0.5,1.7l3.4,1.1
		c1.6,0.5,2.1-0.5,2.2-1c0.1-0.2,0.1-0.3,0.1-0.3l0.8,0.3c0,0,0,0.2-0.1,0.4c-0.2,0.8-1,2.3-3.2,1.6L50.6,203.5z"/>
	<path class="st5" d="M48.6,197.9l0.3-0.9l1.1,0.4l-0.3,0.9L48.6,197.9z M52.4,199.1c-0.2-0.1-0.3,0-0.4,0.2l-0.2,0.6l-0.8-0.3
		l0.3-0.9c0.2-0.6,0.5-0.7,1.1-0.5l4.8,1.6c0.2,0.1,0.3,0,0.4-0.2l0.2-0.6l0.8,0.3l-0.3,0.9c-0.2,0.6-0.5,0.7-1.1,0.5L52.4,199.1z"
		/>
	<path class="st5" d="M53.3,192.5c0.3-0.8,1.1-2.3,2.2-1.9l0.6,0.2l-0.3,0.8l-0.4-0.1c-0.6-0.2-1.2,0.7-1.3,1.2
		c-0.5,1.4,0.2,2.9,1.8,3.5c1.6,0.6,3.1-0.3,3.6-1.7c0.5-1.4-0.2-2.5-0.2-2.5l0.8-0.2c0,0,0.8,1.3,0.2,3c-0.7,2-2.6,3-4.7,2.3
		C53.5,196.5,52.6,194.5,53.3,192.5z"/>
	<path class="st5" d="M59.8,190.5c0,0,1.3-0.3,1.8-1.6c0.3-0.7,0.2-1.5-0.5-1.8c-1.4-0.6-2.6,3.2-4.7,2.4c-1.2-0.5-1.4-1.7-0.9-3
		c0.3-0.7,1-1.9,2-1.5l0.6,0.2l-0.3,0.8l-0.3-0.1c-0.5-0.2-0.9,0.4-1.1,0.9c-0.4,0.9-0.3,1.6,0.4,1.8c1.5,0.6,2.6-3.2,4.7-2.4
		c1.1,0.4,1.5,1.7,0.9,3c-0.7,1.7-2.1,2.1-2.1,2.1L59.8,190.5z"/>
</g>
<g>
	<path class="st5" d="M21.7,256.3l-0.1,0.9l-0.9-0.1l0.2-4.1c0.1-1.7,1.3-3,3.1-2.9c1.8,0.1,2.9,1.5,2.8,3.2l-0.1,2.3l3.9,0.2
		l-0.1,1L21.7,256.3z M26.2,253.5c0.1-1.3-0.7-2.2-2-2.3c-1.3-0.1-2.1,0.7-2.2,2l-0.1,2.2l4.2,0.3L26.2,253.5z"/>
	<path class="st5" d="M25.3,248.6c-0.2,0-0.3,0.1-0.3,0.3l-0.1,0.6l-0.8-0.1l0.1-1c0.1-0.6,0.3-0.8,0.9-0.8l0.5,0
		c0.3,0,0.5,0.1,0.5,0.1l0,0c-1-0.4-1.8-1.3-1.7-2.4c0-0.2,0.1-0.4,0.1-0.4l0.9,0.1c0,0,0,0.2-0.1,0.3c-0.1,1,0.6,1.8,1.6,2.2
		c0.4,0.2,0.9,0.3,1.4,0.3l3,0.3l-0.1,0.9L25.3,248.6z"/>
	<path class="st5" d="M24.8,240.6c0.2-2,2-3.5,4.1-3.3c2.1,0.2,3.5,2.1,3.3,4.1c-0.2,2-2,3.5-4.1,3.3
		C26,244.4,24.6,242.6,24.8,240.6z M31.3,241.3c0.2-1.5-0.9-2.9-2.5-3c-1.6-0.2-2.9,0.9-3.1,2.4c-0.2,1.5,0.9,2.9,2.5,3
		C29.8,243.9,31.1,242.8,31.3,241.3z"/>
	<path class="st5" d="M25.9,232.4c0.3-1.7,1.6-2.1,1.6-2.1l0,0c0,0-0.2,0-0.5-0.1l-2.3-0.3c-0.2,0-0.3,0.1-0.4,0.3l-0.1,0.6
		l-0.8-0.1l0.1-1c0.1-0.6,0.4-0.8,1-0.7l7.8,1.2c0.2,0,0.3-0.1,0.4-0.3l0.1-0.6l0.8,0.1l-0.1,1c-0.1,0.6-0.4,0.8-0.9,0.7
		c-0.3,0-0.4-0.1-0.4-0.1l0,0c0,0,1.3,0.8,1,2.6c-0.3,1.9-2,2.8-4.1,2.5C26.9,235.8,25.6,234.3,25.9,232.4z M29.9,230.7
		c-1.4-0.2-2.9,0.3-3.1,1.8c-0.2,1.2,0.7,2.4,2.5,2.7c1.7,0.3,2.9-0.5,3.1-1.8C32.5,232.2,31.9,231,29.9,230.7z"/>
	<path class="st5" d="M28.1,226.9c-0.2,0-0.3,0.1-0.4,0.2l-0.1,0.6l-0.8-0.2l0.2-1c0.1-0.6,0.4-0.8,1-0.7l3.3,0.6
		c1.1,0.2,2.1,0.2,2.3-1.1c0.3-1.6-0.9-2.8-2.4-3.1l-3.3-0.6l0.2-0.9l5.8,1.1c0.2,0,0.3-0.1,0.4-0.2l0.1-0.6l0.8,0.2l-0.2,0.9
		c-0.1,0.6-0.4,0.8-0.9,0.7l-0.3-0.1c-0.3-0.1-0.5-0.1-0.5-0.1l0,0c0.6,0.4,1.5,1.5,1.2,3c-0.3,1.6-1.3,2.2-3.1,1.8L28.1,226.9z"/>
	<path class="st5" d="M29.1,215.2c0.2-0.8,0.9-2.4,2-2.1l0.6,0.1l-0.2,0.9l-0.4-0.1c-0.6-0.1-1.1,0.8-1.2,1.4
		c-0.3,1.5,0.5,2.9,2.2,3.3c1.7,0.4,3-0.6,3.3-2.1c0.3-1.4-0.5-2.4-0.5-2.4l0.8-0.3c0,0,0.9,1.2,0.5,2.9c-0.5,2.1-2.3,3.3-4.4,2.8
		C29.8,219.2,28.7,217.3,29.1,215.2z"/>
	<path class="st5" d="M31.1,211l-0.2,0.9l-0.8-0.2l0.2-0.9l-1.9-0.5l0.2-0.9l1.9,0.5l0.4-1.7l0.8,0.2l-0.4,1.7l3.5,0.9
		c1.6,0.4,2.1-0.6,2.2-1.1c0-0.2,0.1-0.3,0.1-0.3l0.8,0.2c0,0,0,0.2-0.1,0.4c-0.2,0.8-0.8,2.3-3.1,1.7L31.1,211z"/>
	<path class="st5" d="M28.8,205.5l0.2-0.9l1.2,0.3l-0.2,0.9L28.8,205.5z M32.6,206.5c-0.2-0.1-0.3,0-0.4,0.2l-0.2,0.6l-0.8-0.2
		l0.3-1c0.2-0.6,0.5-0.8,1-0.6l4.9,1.3c0.2,0.1,0.3,0,0.4-0.2l0.2-0.6l0.8,0.2l-0.3,1c-0.2,0.6-0.5,0.8-1,0.6L32.6,206.5z"/>
	<path class="st5" d="M33.1,199.8c0.6-2,2.6-3.1,4.6-2.5c2,0.6,3.1,2.7,2.5,4.6c-0.6,2-2.6,3.1-4.6,2.5
		C33.6,203.8,32.5,201.8,33.1,199.8z M39.4,201.6c0.4-1.4-0.4-3-2-3.4c-1.5-0.5-3,0.4-3.4,1.8c-0.4,1.5,0.4,3,1.9,3.4
		C37.4,203.9,39,203.1,39.4,201.6z"/>
	<path class="st5" d="M36,194.8c-0.2-0.1-0.3,0-0.4,0.2l-0.2,0.6l-0.8-0.3l0.3-0.9c0.2-0.6,0.5-0.7,1-0.6l0.3,0.1
		c0.3,0.1,0.5,0.2,0.5,0.2l0,0c-0.5-0.4-1.3-1.7-0.8-3.2c0.6-1.7,1.7-1.9,3.3-1.4l3.2,1.1c0.2,0.1,0.3,0,0.4-0.2l0.2-0.6l0.8,0.3
		l-0.3,0.9c-0.2,0.6-0.5,0.7-1.1,0.5l-3.2-1.1c-1-0.4-2-0.5-2.5,0.8c-0.4,1.1,0.1,2.4,1.1,3.1c0.3,0.2,0.5,0.3,0.9,0.4l3.2,1.1
		l-0.3,0.9L36,194.8z"/>
</g>
<g>
	<path class="st5" d="M242.6,42.6c0-0.2-0.1-0.3-0.3-0.3l-0.6,0.1l-0.1-0.8l1-0.1c0.6-0.1,0.9,0.2,0.9,0.8l0.8,7.8
		c0,0.2,0.1,0.3,0.3,0.3l0.6-0.1l0.1,0.8l-1,0.1c-0.6,0.1-0.9-0.2-0.9-0.8L242.6,42.6z"/>
	<path class="st5" d="M249.4,43.5c2.1-0.1,3.8,1.3,4,3.4c0.2,2.1-1.4,3.8-3.4,4c-2.1,0.1-3.8-1.3-4-3.5
		C245.8,45.3,247.3,43.7,249.4,43.5z M249.8,50c1.5-0.1,2.6-1.4,2.5-3.1c-0.1-1.6-1.4-2.7-2.9-2.6c-1.5,0.1-2.7,1.4-2.5,3
		C247,49,248.3,50.1,249.8,50z"/>
	<path class="st5" d="M257.5,43.1c1.9-0.1,2.4,1.1,2.4,1.1h0c0,0,0-0.1,0-0.3c0-0.5,0.2-0.8,0.8-0.8l1,0l0,0.8l-0.6,0
		c-0.2,0-0.3,0.1-0.3,0.3L261,50c0.1,2.2-1.5,3.2-3.3,3.2c-0.8,0-1.6-0.2-2.3-0.5l0.3-0.8c0,0,0.9,0.5,1.9,0.4
		c1.4,0,2.4-0.7,2.4-2.3l0-0.6c0-0.3,0-0.5,0-0.5l0,0c-0.4,0.8-1.1,1.3-2.2,1.3c-1.9,0.1-3.2-1.4-3.3-3.5
		C254.5,44.6,255.6,43.1,257.5,43.1z M259.9,46.6c-0.1-2.1-1.1-2.7-2.3-2.6c-1.4,0-2.1,1.1-2.1,2.7c0.1,1.7,1,2.7,2.4,2.7
		C259,49.3,260,48.6,259.9,46.6z"/>
	<path class="st5" d="M263.4,44.3c0-0.2-0.1-0.3-0.3-0.3l-0.6,0l0-0.8l1,0c0.6,0,0.9,0.2,0.9,0.8l0,5.1c0,0.2,0.1,0.3,0.3,0.3l0.6,0
		l0,0.8l-1,0c-0.6,0-0.9-0.2-0.9-0.8L263.4,44.3z M263.3,40.3l0.9,0l0,1.2l-0.9,0L263.3,40.3z"/>
	<path class="st5" d="M266.5,48.4c0,0,0.8,1.1,2.2,1.1c0.8,0,1.5-0.4,1.5-1.1c0-1.5-3.9-1.3-3.9-3.6c0-1.3,1.1-1.9,2.5-1.9
		c0.7,0,2.1,0.3,2.1,1.3l0,0.6l-0.9,0l0-0.3c0-0.5-0.7-0.7-1.2-0.7c-1,0-1.6,0.3-1.6,1c0,1.6,3.9,1.3,3.9,3.6c0,1.2-1.1,2-2.5,1.9
		c-1.8,0-2.7-1.3-2.7-1.3L266.5,48.4z"/>
	<path class="st5" d="M273.2,44l-0.9,0l0-0.8l0.9,0l0.1-1.9l0.9,0l-0.1,1.9l1.8,0.1l0,0.8l-1.8-0.1l-0.1,3.6c-0.1,1.7,1,1.9,1.5,1.9
		c0.2,0,0.3,0,0.3,0l0,0.9c0,0-0.2,0-0.4,0c-0.8,0-2.4-0.4-2.3-2.7L273.2,44z"/>
	<path class="st5" d="M277.9,44.6c0-0.2-0.1-0.3-0.3-0.3l-0.6,0l0-0.8l1,0.1c0.6,0,0.8,0.3,0.8,0.9l-0.3,5c0,0.2,0.1,0.3,0.3,0.3
		l0.6,0l0,0.8l-1-0.1c-0.6,0-0.8-0.3-0.8-0.9L277.9,44.6z M278.1,40.7l0.9,0.1l-0.1,1.2l-0.9-0.1L278.1,40.7z"/>
	<path class="st5" d="M284.6,43.8c0.8,0.1,2.5,0.5,2.4,1.7l-0.1,0.6L286,46l0-0.4c0-0.6-0.9-1-1.5-1c-1.5-0.1-2.8,0.9-3,2.6
		c-0.1,1.7,1,2.9,2.5,3c1.4,0.1,2.3-0.8,2.3-0.8l0.4,0.7c0,0-1,1.1-2.8,0.9c-2.1-0.2-3.6-1.8-3.4-4C280.8,45,282.5,43.6,284.6,43.8z
		"/>
	<path class="st5" d="M288.2,49.6c0,0,0.7,1.1,2,1.3c0.8,0.1,1.5-0.2,1.6-0.9c0.2-1.5-3.8-1.7-3.5-4c0.1-1.3,1.3-1.8,2.7-1.6
		c0.7,0.1,2.1,0.5,2,1.5l-0.1,0.6l-0.9-0.1l0-0.3c0.1-0.5-0.7-0.8-1.1-0.8c-1-0.1-1.6,0.2-1.7,0.8c-0.2,1.6,3.8,1.7,3.5,4
		c-0.1,1.2-1.3,1.8-2.7,1.7c-1.8-0.2-2.5-1.5-2.5-1.5L288.2,49.6z"/>
</g>
<g>
	<path class="st5" d="M219.2,29c0-0.2-0.2-0.3-0.4-0.2l-0.6,0.1l-0.2-0.9l1-0.2c0.6-0.1,0.9,0.1,1,0.7l1.4,7.7
		c0,0.2,0.2,0.3,0.4,0.2l3.2-0.6c0.2,0,0.3-0.2,0.2-0.4l-0.1-0.6l0.9-0.2l0.2,1c0.1,0.6-0.1,0.9-0.7,1l-4,0.7
		c-0.6,0.1-0.9-0.1-1-0.7L219.2,29z"/>
	<path class="st5" d="M229.5,28.7c2-0.3,3.9,1,4.2,3.1c0.3,2.1-1.1,3.9-3.1,4.2c-2,0.3-3.9-1-4.2-3.1
		C226.1,30.8,227.5,29,229.5,28.7z M230.5,35.2c1.5-0.2,2.5-1.6,2.3-3.2c-0.2-1.6-1.6-2.6-3.1-2.4c-1.5,0.2-2.5,1.6-2.3,3.2
		C227.6,34.4,229,35.4,230.5,35.2z"/>
	<path class="st5" d="M235.3,29.2c0-0.2-0.1-0.3-0.3-0.3l-0.6,0.1l-0.1-0.8l1-0.1c0.6-0.1,0.9,0.2,0.9,0.7l0,0.3c0,0.3,0,0.5,0,0.5
		l0,0c0.2-0.7,0.9-1.9,2.6-2.1c1.7-0.2,2.5,0.7,2.7,2.4l0.4,3.3c0,0.2,0.1,0.3,0.3,0.3l0.6-0.1l0.1,0.8l-1,0.1
		c-0.6,0.1-0.9-0.2-0.9-0.8l-0.4-3.4c-0.1-1.1-0.4-2.1-1.8-1.9c-1.2,0.1-2.1,1.1-2.3,2.3c0,0.3,0,0.6,0,1l0.4,3.4l-0.9,0.1
		L235.3,29.2z"/>
	<path class="st5" d="M246.2,26.8c1.9-0.1,2.4,1,2.4,1l0,0c0,0,0-0.1,0-0.3c0-0.5,0.2-0.8,0.7-0.8l1-0.1l0.1,0.8l-0.6,0
		c-0.2,0-0.3,0.1-0.3,0.3l0.4,5.7c0.2,2.2-1.4,3.2-3.1,3.4c-0.8,0.1-1.6-0.1-2.3-0.4l0.3-0.8c0,0,0.9,0.4,1.9,0.3
		c1.4-0.1,2.4-0.8,2.3-2.4l0-0.6c0-0.3,0-0.5,0-0.5l0,0c-0.4,0.8-1,1.3-2.1,1.4c-1.9,0.1-3.2-1.2-3.4-3.4
		C243.3,28.5,244.3,27,246.2,26.8z M248.8,30.2c-0.2-2.1-1.2-2.6-2.4-2.5c-1.4,0.1-2.1,1.2-2,2.8c0.1,1.7,1.1,2.7,2.5,2.6
		C248,33,249,32.2,248.8,30.2z"/>
	<path class="st5" d="M251.9,29.2l4-0.2l0,0.9l-4,0.2L251.9,29.2z"/>
	<path class="st5" d="M260.7,26.1c1.7,0,2.3,1.3,2.3,1.3l0,0c0,0,0-0.2,0-0.5l0-2.3c0-0.2-0.1-0.3-0.3-0.3l-0.6,0l0-0.8l1,0
		c0.6,0,0.9,0.2,0.9,0.8l0.1,7.9c0,0.2,0.1,0.3,0.3,0.3l0.6,0l0,0.8l-1,0c-0.6,0-0.8-0.3-0.9-0.8c0-0.3,0-0.4,0-0.4l0,0
		c0,0-0.5,1.4-2.4,1.4c-1.9,0-3.1-1.5-3.1-3.6C257.6,27.6,258.9,26.1,260.7,26.1z M263.1,29.7c0-1.4-0.8-2.8-2.3-2.8
		c-1.2,0-2.3,1.1-2.2,2.9c0,1.7,1,2.8,2.3,2.8C262.1,32.6,263.1,31.7,263.1,29.7z"/>
	<path class="st5" d="M266.6,27.4c0-0.2-0.1-0.3-0.3-0.3l-0.6,0l0-0.8l1,0c0.6,0,0.9,0.3,0.8,0.9l0,5.1c0,0.2,0.1,0.3,0.3,0.3l0.6,0
		l0,0.8l-1,0c-0.6,0-0.9-0.3-0.8-0.9L266.6,27.4z M266.6,23.4l0.9,0l0,1.2l-0.9,0L266.6,23.4z"/>
	<path class="st5" d="M269.8,31.6c0,0,0.8,1.1,2.1,1.1c0.8,0,1.5-0.3,1.5-1.1c0-1.5-3.9-1.4-3.8-3.6c0-1.3,1.1-1.9,2.6-1.8
		c0.7,0,2.1,0.3,2.1,1.3l0,0.6l-0.9,0l0-0.3c0-0.5-0.7-0.7-1.2-0.7c-1,0-1.6,0.3-1.6,1c0,1.6,3.9,1.3,3.8,3.7c0,1.2-1.1,1.9-2.5,1.9
		c-1.8-0.1-2.7-1.3-2.7-1.3L269.8,31.6z"/>
	<path class="st5" d="M276.5,27.3l-0.9,0l0-0.8l0.9,0l0.1-1.9l0.9,0l-0.1,1.9l1.8,0.1l0,0.8l-1.8-0.1l-0.2,3.6
		c-0.1,1.6,1,1.9,1.5,1.9c0.2,0,0.3,0,0.3,0l0,0.9c0,0-0.2,0-0.4,0c-0.8,0-2.4-0.4-2.3-2.7L276.5,27.3z"/>
	<path class="st5" d="M284.6,29.7l0.4,0l0-0.1c0.1-1.5-0.4-2-1.7-2.1c-0.3,0-1.4,0-1.4,0.5l0,0.4l-0.9-0.1l0.1-0.7
		c0.1-1,1.8-1.1,2.4-1c2.2,0.2,2.7,1.4,2.5,2.9l-0.3,3.4c0,0.2,0.1,0.3,0.3,0.3l0.6,0l-0.1,0.8l-1-0.1c-0.6,0-0.8-0.3-0.8-0.9
		c0-0.3,0.1-0.5,0.1-0.5l0,0c0,0-0.7,1.5-2.4,1.3c-1.2-0.1-2.3-0.9-2.2-2.3C280.2,29.5,283.3,29.6,284.6,29.7z M282.5,33.3
		c1.3,0.1,2.3-1.2,2.4-2.4l0-0.3l-0.4,0c-1.1-0.1-3.3-0.2-3.4,1.4C281,32.5,281.5,33.2,282.5,33.3z"/>
	<path class="st5" d="M288.5,28.5c0-0.2-0.1-0.3-0.3-0.3l-0.6-0.1l0.1-0.8l1,0.1c0.6,0.1,0.8,0.3,0.8,0.9l0,0.3
		c0,0.3-0.1,0.5-0.1,0.5l0,0c0.3-0.6,1.3-1.6,3-1.5c1.7,0.2,2.2,1.2,2.1,3l-0.4,3.3c0,0.2,0.1,0.3,0.3,0.3l0.6,0.1l-0.1,0.8l-1-0.1
		c-0.6-0.1-0.8-0.3-0.8-0.9l0.4-3.4c0.1-1.1,0.1-2.1-1.3-2.2c-1.2-0.1-2.3,0.6-2.8,1.7c-0.1,0.3-0.2,0.6-0.2,0.9l-0.4,3.4l-0.9-0.1
		L288.5,28.5z"/>
	<path class="st5" d="M300.3,28.6c0.8,0.1,2.4,0.7,2.3,1.8l-0.1,0.6l-0.9-0.1l0.1-0.4c0.1-0.6-0.9-1-1.5-1.1
		c-1.5-0.2-2.9,0.7-3.1,2.4c-0.2,1.7,0.9,3,2.3,3.2c1.4,0.2,2.4-0.7,2.4-0.7l0.3,0.8c0,0-1.1,1-2.9,0.7c-2.1-0.3-3.4-2-3.1-4.2
		C296.4,29.6,298.2,28.3,300.3,28.6z"/>
	<path class="st5" d="M307.5,29.8c1.9,0.3,2.6,2,2.3,3.7c0,0.2-0.1,0.5-0.1,0.5l-5.3-0.9c-0.3,1.8,0.8,3,2.2,3.2
		c1.3,0.2,2.2-0.5,2.2-0.5l0.3,0.8c0,0-1.2,0.8-2.8,0.5c-2.1-0.4-3.4-2.1-3-4.3C303.8,30.6,305.6,29.5,307.5,29.8z M308.9,33.1
		c0.2-1.4-0.6-2.3-1.6-2.5c-1.1-0.2-2.3,0.4-2.8,1.7L308.9,33.1z"/>
</g>
<g>
	<path class="st5" d="M392.6,80.7c0.1-0.2,0.1-0.3-0.1-0.4l-0.5-0.3l0.5-0.7l0.8,0.6c0.5,0.3,0.6,0.7,0.2,1.2l-4.4,6.5
		c-0.1,0.2-0.1,0.3,0.1,0.4l0.5,0.3l-0.5,0.7l-0.8-0.6c-0.5-0.3-0.6-0.7-0.2-1.2L392.6,80.7z"/>
	<path class="st5" d="M397.2,85.7c1.7,1.2,2.1,3.5,0.9,5.1c-1.2,1.7-3.5,2-5.2,0.8c-1.7-1.2-2.1-3.5-0.8-5.2
		C393.3,84.8,395.6,84.5,397.2,85.7z M393.4,91c1.2,0.9,2.9,0.6,3.9-0.7c0.9-1.3,0.6-3-0.6-3.9c-1.2-0.9-2.9-0.6-3.9,0.7
		C391.9,88.4,392.2,90.1,393.4,91z"/>
	<path class="st5" d="M403.7,90.6c1.5,1.2,1.1,2.4,1.1,2.4l0,0c0,0,0.1-0.1,0.2-0.2c0.3-0.4,0.7-0.5,1.1-0.1l0.8,0.6l-0.5,0.7
		l-0.5-0.4c-0.2-0.1-0.3-0.1-0.4,0.1l-3.5,4.5c-1.4,1.8-3.2,1.4-4.6,0.4c-0.6-0.5-1.1-1.2-1.5-1.9l0.8-0.4c0,0,0.4,0.9,1.2,1.6
		c1.1,0.8,2.3,1,3.3-0.2l0.4-0.5c0.2-0.2,0.3-0.4,0.3-0.4l0,0c-0.8,0.3-1.6,0.3-2.5-0.4c-1.5-1.2-1.5-3.1-0.2-4.8
		C400.4,89.8,402.2,89.4,403.7,90.6z M403.3,94.8c1.3-1.6,0.9-2.7-0.1-3.5c-1.1-0.8-2.3-0.6-3.4,0.8c-1,1.3-1,2.7,0.1,3.6
		C400.9,96.4,402.1,96.4,403.3,94.8z"/>
	<path class="st5" d="M407.5,95.3c0.1-0.2,0.1-0.3,0-0.4l-0.5-0.4l0.5-0.6l0.8,0.6c0.5,0.4,0.5,0.7,0.1,1.2l-3.2,3.9
		c-0.1,0.2-0.1,0.3,0,0.4l0.5,0.4l-0.5,0.6l-0.8-0.6c-0.5-0.4-0.5-0.7-0.1-1.2L407.5,95.3z M409.9,92.2l0.7,0.6l-0.8,0.9l-0.7-0.6
		L409.9,92.2z"/>
	<path class="st5" d="M407.2,100.5c0,0-0.1,1.3,0.9,2.2c0.6,0.5,1.4,0.7,1.9,0.1c1-1.2-2.2-3.5-0.7-5.3c0.8-1,2.1-0.7,3.1,0.2
		c0.5,0.5,1.4,1.6,0.8,2.4l-0.4,0.5l-0.7-0.6l0.2-0.3c0.3-0.4-0.1-1-0.5-1.3c-0.7-0.6-1.4-0.8-1.9-0.3c-1,1.2,2.2,3.5,0.7,5.3
		c-0.8,0.9-2.1,0.8-3.2-0.1c-1.4-1.2-1.2-2.7-1.2-2.7L407.2,100.5z"/>
	<path class="st5" d="M415.2,101.4l-0.7-0.6l0.5-0.6l0.7,0.6l1.3-1.4l0.7,0.6l-1.3,1.4l1.3,1.2l-0.5,0.6l-1.3-1.2l-2.4,2.7
		c-1.1,1.2-0.5,2.1-0.1,2.4c0.1,0.1,0.3,0.2,0.3,0.2l-0.6,0.6c0,0-0.1-0.1-0.3-0.3c-0.6-0.5-1.6-1.8-0.1-3.6L415.2,101.4z"/>
	<path class="st5" d="M418.4,104.9c0.1-0.1,0.1-0.3,0-0.4L418,104l0.6-0.6l0.7,0.7c0.4,0.4,0.4,0.8,0,1.2l-3.5,3.7
		c-0.1,0.2-0.1,0.3,0,0.4l0.4,0.4l-0.6,0.6l-0.7-0.7c-0.4-0.4-0.5-0.8,0-1.2L418.4,104.9z M421.1,102l0.7,0.6l-0.8,0.9l-0.7-0.6
		L421.1,102z"/>
	<path class="st5" d="M424.1,108.5c0.6,0.6,1.5,2,0.7,2.8l-0.4,0.4l-0.6-0.6l0.3-0.3c0.4-0.4-0.1-1.3-0.5-1.7
		c-1.1-1.1-2.7-1.1-3.9,0.1c-1.2,1.2-1.1,2.9,0,3.9c1,1,2.3,0.9,2.3,0.9l-0.2,0.8c0,0-1.5,0.1-2.8-1.1c-1.5-1.5-1.6-3.7,0-5.2
		C420.4,107,422.6,107.1,424.1,108.5z"/>
	<path class="st5" d="M423.1,115.3c0,0-0.2,1.3,0.7,2.3c0.5,0.6,1.3,0.8,1.8,0.3c1.1-1.1-1.8-3.7-0.2-5.3c0.9-0.9,2.1-0.5,3.1,0.5
		c0.5,0.5,1.3,1.7,0.6,2.4l-0.4,0.4l-0.6-0.6l0.2-0.2c0.4-0.4,0-1-0.3-1.4c-0.7-0.7-1.3-0.9-1.8-0.4c-1.1,1.1,1.8,3.7,0.1,5.3
		c-0.9,0.8-2.2,0.6-3.1-0.4c-1.3-1.3-1-2.8-1-2.8L423.1,115.3z"/>
</g>
<g>
	<path class="st5" d="M382.3,62.4c0,0,0.3,1.5,1.6,2.3c0.9,0.5,2,0.4,2.6-0.5c1.2-2.1-3.2-4.1-1.7-6.8c0.7-1.2,2.3-1.6,3.9-0.7
		c0.8,0.5,2.1,1.7,1.4,2.8l-0.4,0.6l-0.8-0.5l0.2-0.4c0.3-0.5-0.2-1.3-1-1.7c-1.1-0.6-2.1-0.4-2.5,0.4c-1.1,2,3.3,3.9,1.7,6.7
		c-0.7,1.3-2.3,1.8-3.9,0.8c-1.7-1-2-2.8-2-2.8L382.3,62.4z"/>
	<path class="st5" d="M392.2,60.3c0.1-0.2,0.1-0.3-0.1-0.4l-0.5-0.3l0.4-0.7l0.8,0.5c0.5,0.3,0.6,0.7,0.3,1.2l-1.6,2.5
		c-0.2,0.3-0.3,0.5-0.3,0.5l0,0c0.6-0.4,1.9-0.8,3.3,0c1.5,0.9,1.5,2.1,0.6,3.6l-1.8,2.8c-0.1,0.2-0.1,0.3,0.1,0.4l0.5,0.3l-0.4,0.7
		l-0.8-0.5c-0.5-0.3-0.6-0.7-0.3-1.2l1.8-2.9c0.6-0.9,1-1.9-0.2-2.6c-1-0.6-2.3-0.5-3.2,0.3c-0.2,0.2-0.4,0.5-0.6,0.7l-1.8,2.9
		l-0.8-0.5L392.2,60.3z"/>
	<path class="st5" d="M401.3,68c1.7,1.2,2.2,3.4,1,5.1c-1.2,1.8-3.5,2.1-5.2,1c-1.7-1.2-2.2-3.4-1-5.2
		C397.3,67.2,399.6,66.8,401.3,68z M397.6,73.4c1.2,0.8,3,0.5,3.9-0.8c0.9-1.3,0.5-3-0.7-3.8c-1.3-0.8-2.9-0.6-3.8,0.8
		C396.1,70.8,396.4,72.5,397.6,73.4z"/>
	<path class="st5" d="M405.1,72.2c0.1-0.2,0.1-0.3-0.1-0.4l-0.5-0.3l0.5-0.7l0.8,0.6c0.5,0.3,0.6,0.7,0.2,1.1l-0.3,0.4
		c-0.2,0.2-0.3,0.4-0.3,0.4l0,0c0.9-0.7,2-0.9,2.9-0.2c0.2,0.1,0.3,0.3,0.3,0.3l-0.5,0.8c0,0-0.1-0.1-0.3-0.2
		c-0.8-0.6-1.9-0.4-2.7,0.3c-0.4,0.3-0.7,0.6-1,1l-1.7,2.4l-0.8-0.6L405.1,72.2z"/>
	<path class="st5" d="M409.6,75l-0.7-0.6l0.5-0.6l0.8,0.6l1.2-1.6l0.7,0.6l-1.2,1.6l1.4,1.1l-0.5,0.6l-1.4-1.1l-2.2,2.9
		c-1,1.3-0.3,2.1,0.1,2.4c0.2,0.1,0.3,0.2,0.3,0.2l-0.5,0.7c0,0-0.2-0.1-0.3-0.2c-0.6-0.5-1.8-1.7-0.4-3.6L409.6,75z"/>
	<path class="st5" d="M411.9,79.1l3.1,2.5l-0.5,0.7l-3.1-2.5L411.9,79.1z"/>
	<path class="st5" d="M420.5,82.5c1.3,1.1,0.9,2.5,0.9,2.5l0,0c0,0,0.1-0.2,0.3-0.4l1.5-1.7c0.1-0.2,0.1-0.3,0-0.4l-0.5-0.4l0.5-0.6
		L424,82c0.5,0.4,0.5,0.7,0.1,1.2l-5,6c-0.1,0.2-0.1,0.3,0,0.4l0.5,0.4l-0.5,0.6l-0.8-0.6c-0.5-0.4-0.5-0.7-0.1-1.1
		c0.2-0.2,0.3-0.3,0.3-0.3l0,0c0,0-1.3,0.7-2.8-0.5c-1.4-1.2-1.4-3.1,0-4.8C417.2,81.6,419.1,81.3,420.5,82.5z M419.9,86.8
		c0.9-1.1,1.3-2.6,0.1-3.6c-1-0.8-2.4-0.7-3.6,0.7c-1.1,1.3-1.1,2.8-0.1,3.6C417.3,88.2,418.6,88.3,419.9,86.8z"/>
	<path class="st5" d="M424.1,87.3c0.1-0.1,0.1-0.3,0-0.4l-0.4-0.4l0.5-0.6l0.7,0.7c0.5,0.4,0.5,0.8,0.1,1.2l-3.3,3.8
		c-0.1,0.2-0.1,0.3,0,0.4l0.4,0.4l-0.5,0.6l-0.7-0.7c-0.5-0.4-0.5-0.8-0.1-1.2L424.1,87.3z M426.7,84.3l0.7,0.6l-0.8,0.9l-0.7-0.6
		L426.7,84.3z"/>
	<path class="st5" d="M423.7,92.5c0,0-0.1,1.3,0.9,2.3c0.6,0.5,1.3,0.7,1.9,0.2c1-1.1-2.1-3.6-0.5-5.3c0.9-0.9,2.1-0.7,3.1,0.3
		c0.5,0.5,1.4,1.7,0.7,2.4l-0.4,0.4l-0.7-0.6l0.2-0.2c0.3-0.4-0.1-1-0.4-1.4c-0.7-0.7-1.4-0.8-1.8-0.3c-1.1,1.2,2.1,3.6,0.5,5.3
		c-0.8,0.9-2.1,0.7-3.2-0.2c-1.3-1.2-1.2-2.7-1.2-2.7L423.7,92.5z"/>
	<path class="st5" d="M431.6,93.7L431,93l0.6-0.6l0.7,0.7l1.3-1.4l0.7,0.6l-1.3,1.4l1.3,1.2l-0.6,0.6l-1.3-1.2l-2.5,2.6
		c-1.1,1.2-0.5,2.1-0.2,2.4c0.1,0.1,0.3,0.2,0.3,0.2l-0.6,0.6c0,0-0.1-0.1-0.3-0.3c-0.6-0.6-1.6-1.9,0-3.6L431.6,93.7z"/>
	<path class="st5" d="M436.2,100.8l0.3,0.3l0.1-0.1c1-1,1-1.8,0.1-2.7c-0.2-0.2-1-0.9-1.4-0.5l-0.3,0.3l-0.6-0.6l0.5-0.5
		c0.7-0.7,2,0.4,2.5,0.8c1.6,1.6,1.1,2.8,0,3.9l-2.4,2.4c-0.1,0.1-0.1,0.3,0,0.4l0.4,0.4l-0.6,0.6l-0.7-0.7c-0.4-0.4-0.4-0.8,0-1.2
		c0.2-0.2,0.4-0.4,0.4-0.4l0,0c0,0-1.5,0.7-2.7-0.6c-0.8-0.8-1.2-2.2-0.2-3.2C433.1,97.8,435.3,99.9,436.2,100.8z M432.3,102.1
		c0.9,1,2.5,0.5,3.4-0.3l0.2-0.2l-0.3-0.3c-0.8-0.8-2.4-2.3-3.5-1.2C431.7,100.6,431.5,101.4,432.3,102.1z"/>
	<path class="st5" d="M440,102.5c0.1-0.1,0.1-0.3,0-0.4l-0.4-0.4l0.6-0.6l0.7,0.7c0.4,0.4,0.4,0.8,0,1.2l-0.2,0.2
		c-0.2,0.2-0.4,0.3-0.4,0.3l0,0c0.6-0.3,2.1-0.4,3.2,0.8c1.2,1.3,0.9,2.4-0.4,3.6l-2.5,2.3c-0.2,0.1-0.2,0.3,0,0.4l0.4,0.4l-0.6,0.6
		l-0.7-0.7c-0.4-0.4-0.4-0.8,0-1.2l2.5-2.3c0.8-0.8,1.4-1.5,0.5-2.5c-0.8-0.9-2.1-1.1-3.2-0.5c-0.3,0.1-0.5,0.3-0.8,0.6l-2.5,2.3
		l-0.6-0.7L440,102.5z"/>
	<path class="st5" d="M448.8,110.3c0.5,0.6,1.4,2.1,0.5,2.9l-0.5,0.4l-0.6-0.7l0.3-0.3c0.4-0.4,0-1.3-0.4-1.8
		c-1-1.1-2.6-1.3-3.9-0.2c-1.3,1.1-1.3,2.8-0.3,3.9c0.9,1.1,2.2,1.1,2.2,1.1l-0.2,0.8c0,0-1.5,0-2.7-1.3c-1.4-1.6-1.3-3.8,0.4-5.2
		C445.2,108.5,447.4,108.7,448.8,110.3z"/>
	<path class="st5" d="M453.5,115.9c1.2,1.5,0.7,3.2-0.7,4.3c-0.1,0.1-0.4,0.3-0.4,0.3l-3.4-4.2c-1.4,1.1-1.4,2.8-0.5,3.9
		c0.8,1,2,1.1,2,1.1l-0.3,0.8c0,0-1.4-0.2-2.4-1.4c-1.3-1.6-1.1-3.8,0.5-5.2C450.2,114.1,452.3,114.5,453.5,115.9z M452.4,119.3
		c1.1-1,1.1-2.1,0.4-2.9c-0.7-0.9-2-1.2-3.2-0.5L452.4,119.3z"/>
</g>
<g>
	<path class="st5" d="M490.8,207.7c0.4,1.4,0.4,3.7-1,4.1l-0.8,0.2l-0.2-0.9l0.5-0.1c0.9-0.2,1-1.9,0.7-3c-0.6-2.1-2.7-3.3-5-2.7
		c-2.3,0.6-3.7,2.7-3.1,4.9c0.5,2,2.2,2.7,2.2,2.7l-0.5,0.7c0,0-1.9-0.9-2.5-3.2c-0.8-2.8,0.9-5.3,3.7-6.1
		C487.4,203.6,490,205,490.8,207.7z"/>
	<path class="st5" d="M488.2,214.3c0.2,0,0.3-0.2,0.2-0.4l-0.1-0.6l0.8-0.2l0.2,1c0.1,0.6-0.1,0.9-0.6,1l-3.3,0.8
		c-1.1,0.2-2,0.6-1.7,2c0.4,1.6,2,2.2,3.4,1.9l3.3-0.8l0.2,0.9l-5.8,1.3c-0.2,0-0.3,0.2-0.2,0.4l0.1,0.6l-0.8,0.2l-0.2-0.9
		c-0.1-0.6,0.1-0.9,0.6-1l0.3-0.1c0.3-0.1,0.5-0.1,0.5-0.1l0,0c-0.7-0.1-2-0.8-2.3-2.3c-0.4-1.6,0.3-2.5,2.1-2.9L488.2,214.3z"/>
	<path class="st5" d="M485.9,223.2c0,0-0.9,1-0.6,2.3c0.2,0.8,0.7,1.4,1.4,1.2c1.5-0.3,0.5-4.1,2.7-4.5c1.2-0.2,2.1,0.7,2.3,2.1
		c0.1,0.7,0.1,2.2-0.8,2.3l-0.6,0.1l-0.2-0.9l0.3-0.1c0.5-0.1,0.6-0.9,0.5-1.3c-0.2-1-0.6-1.5-1.3-1.3c-1.6,0.3-0.4,4.1-2.7,4.6
		c-1.2,0.2-2.1-0.7-2.4-2c-0.4-1.8,0.7-2.9,0.7-2.9L485.9,223.2z"/>
	<path class="st5" d="M491.6,228.8l-0.2-0.9l0.8-0.1l0.2,0.9l1.9-0.3l0.2,0.9l-1.9,0.3l0.3,1.7l-0.8,0.1l-0.3-1.7l-3.5,0.6
		c-1.6,0.3-1.7,1.3-1.6,1.9c0,0.2,0.1,0.3,0.1,0.3l-0.8,0.1c0,0-0.1-0.2-0.1-0.4c-0.1-0.8-0.1-2.5,2.2-2.9L491.6,228.8z"/>
	<path class="st5" d="M493.7,236.2c0.3,2-1,3.9-3.1,4.2c-2.1,0.3-3.9-1.1-4.2-3.2c-0.3-2,1.1-3.9,3.2-4.2
		C491.7,232.8,493.4,234.2,493.7,236.2z M487.3,237.1c0.2,1.5,1.6,2.5,3.2,2.3c1.6-0.2,2.6-1.6,2.4-3.1c-0.2-1.5-1.6-2.6-3.1-2.3
		C488.1,234.3,487.1,235.6,487.3,237.1z"/>
	<path class="st5" d="M493.2,242c0.2,0,0.3-0.1,0.3-0.3l-0.1-0.6l0.8-0.1l0.1,1c0.1,0.6-0.2,0.9-0.7,0.9l-0.3,0c-0.3,0-0.5,0-0.5,0
		l0,0c1,0.3,1.9,1.3,2,2.4c0.1,1.3-0.4,2-1.6,2.3l0,0c1,0.3,1.9,1.2,2,2.4c0.2,1.7-0.8,2.4-2.5,2.6l-3.3,0.3c-0.2,0-0.3,0.1-0.3,0.3
		l0.1,0.6l-0.8,0.1l-0.1-1c-0.1-0.6,0.2-0.9,0.8-0.9l3.4-0.3c1.1-0.1,2.1-0.4,2-1.7c-0.1-1.1-1.1-1.9-2.2-2c-0.3-0.1-0.7-0.1-1,0
		l-3.3,0.3l-0.1-0.9l4.2-0.4c1.1-0.1,2.1-0.3,2-1.7c-0.1-1.1-1.2-1.9-2.3-2.1c-0.3-0.1-0.6-0.1-0.9,0l-3.3,0.3l-0.1-0.9L493.2,242z"
		/>
	<path class="st5" d="M495.7,257.9c0.1,1.9-1.4,3-3.1,3.1c-0.2,0-0.5,0-0.5,0l-0.2-5.4c-1.8,0.1-2.7,1.4-2.7,2.9
		c0.1,1.3,1,2.1,1,2.1l-0.7,0.5c0,0-1.1-1-1.1-2.6c-0.1-2.1,1.3-3.7,3.5-3.8C494.2,254.5,495.6,256,495.7,257.9z M492.8,260
		c1.5-0.1,2.1-1,2.1-2.1c-0.1-1.2-0.9-2.1-2.3-2.3L492.8,260z"/>
	<path class="st5" d="M494.6,262.9c0.2,0,0.3-0.1,0.3-0.3l0-0.6l0.8,0l0,1c0,0.6-0.2,0.9-0.8,0.9l-0.5,0c-0.3,0-0.5,0-0.5,0v0
		c1.1,0.3,1.9,1.1,1.9,2.2c0,0.2,0,0.4,0,0.4l-0.9,0c0,0,0-0.2,0-0.4c0-1-0.8-1.7-1.9-2c-0.5-0.1-0.9-0.2-1.4-0.2l-3,0.1l0-1
		L494.6,262.9z"/>
</g>
<g>
	<path class="st5" d="M438.8,403.1c0.9-1.1,2.7-2.5,3.9-1.6l0.6,0.5l-0.6,0.7l-0.4-0.3c-0.7-0.6-2.1,0.4-2.8,1.3
		c-1.3,1.7-1,4.1,0.8,5.6c1.9,1.4,4.4,1.3,5.8-0.5c1.2-1.6,0.9-3.4,0.9-3.4l0.9,0c0,0,0.4,2.1-1.1,4c-1.8,2.3-4.8,2.5-7.1,0.7
		C437.5,408.3,437.1,405.3,438.8,403.1z"/>
	<path class="st5" d="M446.1,398c1.2-1.7,3.4-2.1,5.1-0.9c1.7,1.2,2.1,3.5,0.9,5.2c-1.2,1.7-3.5,2.1-5.2,0.9
		C445.2,401.9,444.9,399.6,446.1,398z M451.4,401.8c0.9-1.2,0.6-2.9-0.7-3.9c-1.3-0.9-3-0.6-3.9,0.6c-0.9,1.2-0.6,2.9,0.7,3.9
		C448.8,403.3,450.5,403,451.4,401.8z"/>
	<path class="st5" d="M450.3,394.2c-0.2-0.1-0.3-0.1-0.4,0.1l-0.3,0.5l-0.7-0.5l0.5-0.8c0.3-0.5,0.7-0.6,1.1-0.3l0.3,0.2
		c0.2,0.2,0.4,0.3,0.4,0.3l0,0c-0.4-0.6-0.9-1.9,0.1-3.3c1-1.5,2.1-1.4,3.6-0.5l2.8,1.8c0.2,0.1,0.3,0.1,0.4-0.1l0.3-0.5l0.7,0.5
		l-0.5,0.8c-0.3,0.5-0.7,0.6-1.2,0.2l-2.8-1.9c-0.9-0.6-1.8-1-2.6,0.1c-0.7,1-0.5,2.3,0.2,3.2c0.2,0.2,0.5,0.4,0.7,0.6l2.8,1.9
		l-0.5,0.8L450.3,394.2z"/>
	<path class="st5" d="M458.4,389.5c0,0,1.3-0.1,2-1.3c0.4-0.7,0.5-1.5-0.2-1.8c-1.3-0.8-3.1,2.7-5.1,1.5c-1.1-0.7-1.1-1.9-0.3-3.1
		c0.4-0.6,1.4-1.7,2.2-1.2l0.5,0.3l-0.5,0.8l-0.3-0.2c-0.4-0.3-1,0.3-1.2,0.7c-0.5,0.8-0.5,1.5,0,1.9c1.3,0.8,3.1-2.7,5.1-1.5
		c1,0.6,1.1,1.9,0.4,3.1c-1,1.6-2.5,1.7-2.5,1.7L458.4,389.5z"/>
	<path class="st5" d="M458.2,381.8c-0.2-0.1-0.3-0.1-0.4,0.1l-0.3,0.5l-0.7-0.4l0.5-0.9c0.3-0.5,0.6-0.6,1.1-0.3l3,1.7
		c1,0.5,1.9,0.9,2.6-0.3c0.8-1.4,0.1-2.9-1.3-3.7l-2.9-1.7l0.5-0.8l5.1,2.9c0.2,0.1,0.3,0.1,0.4-0.1l0.3-0.5l0.7,0.4l-0.5,0.8
		c-0.3,0.5-0.6,0.6-1.1,0.4l-0.3-0.2c-0.2-0.1-0.4-0.3-0.4-0.3l0,0c0.5,0.6,0.9,1.9,0.2,3.3c-0.8,1.4-2,1.6-3.5,0.7L458.2,381.8z"/>
	<path class="st5" d="M462.4,374.5c-0.2-0.1-0.3,0-0.4,0.1l-0.3,0.5l-0.7-0.4l0.4-0.9c0.3-0.5,0.6-0.6,1.1-0.4l0.3,0.1
		c0.2,0.1,0.4,0.3,0.4,0.3l0,0c-0.7-0.7-0.9-2.1-0.4-3.1c0.6-1.2,1.4-1.5,2.6-1.1l0,0c-0.7-0.8-0.9-2-0.4-3.1
		c0.8-1.5,1.9-1.6,3.5-0.8l3,1.5c0.2,0.1,0.3,0,0.4-0.1l0.3-0.5l0.7,0.4l-0.5,0.9c-0.3,0.5-0.6,0.6-1.1,0.4l-3-1.5
		c-1-0.5-2-0.7-2.6,0.4c-0.5,0.9,0,2.2,0.8,2.9c0.2,0.2,0.5,0.4,0.9,0.6l3,1.5l-0.4,0.8l-3.8-1.9c-0.9-0.5-1.9-0.8-2.5,0.4
		c-0.5,1,0,2.2,0.8,3c0.2,0.2,0.5,0.4,0.8,0.5l3,1.5l-0.4,0.8L462.4,374.5z"/>
	<path class="st5" d="M468.2,359.7c0.8-1.8,2.6-2.1,4.2-1.4c0.2,0.1,0.4,0.2,0.4,0.2l-2.2,4.9c1.6,0.7,3.1,0,3.7-1.3
		c0.5-1.2,0.1-2.3,0.1-2.3l0.8-0.1c0,0,0.5,1.3-0.2,2.8c-0.9,1.9-2.9,2.7-4.9,1.8C468,363.5,467.4,361.4,468.2,359.7z M471.7,359.1
		c-1.3-0.5-2.4,0-2.8,0.9c-0.5,1.1-0.2,2.3,1,3.1L471.7,359.1z"/>
	<path class="st5" d="M471.3,355.8c-0.2-0.1-0.3,0-0.4,0.2l-0.2,0.5l-0.8-0.3l0.4-0.9c0.2-0.5,0.5-0.7,1.1-0.5l0.4,0.2
		c0.3,0.1,0.5,0.2,0.5,0.2l0,0c-0.9-0.7-1.3-1.8-0.9-2.8c0.1-0.2,0.2-0.3,0.2-0.3l0.9,0.4c0,0-0.1,0.1-0.2,0.3
		c-0.4,0.9,0.1,1.9,0.9,2.6c0.4,0.3,0.8,0.5,1.2,0.7l2.7,1.1l-0.4,0.9L471.3,355.8z"/>
</g>
</svg>
