<?xml version="1.0" encoding="UTF-8"?>
<svg width="28px" height="35px" viewBox="0 0 28 35" version="1.1" xmlns="http://www.w3.org/2000/svg" xmlns:xlink="http://www.w3.org/1999/xlink">
    <!-- Generator: Sketch 45.2 (43514) - http://www.bohemiancoding.com/sketch -->
    <title>basura</title>
    <desc>Created with Sketch.</desc>
    <defs></defs>
    <g id="Visual-cadena-de-valor-1280" stroke="none" stroke-width="1" fill="none" fill-rule="evenodd">
        <g id="Cadena-de-valor-1280" transform="translate(-329.000000, -1882.000000)" fill="#FFFFFF">
            <g id="basura" transform="translate(329.000000, 1882.000000)">
                <path d="M2.89411111,35 L24.9036667,35 L24.9036667,7.67161111 L2.89411111,7.67161111 L2.89411111,35 Z M4.44966667,33.4448333 L23.3481111,33.4448333 L23.3481111,9.22755556 L4.44966667,9.22755556 L4.44966667,33.4448333 Z" id="Fill-1"></path>
                <path d="M25.8531389,3.6008 L1.94463889,3.6008 L0.388694444,3.6008 L0.388694444,5.15635556 L0.388694444,7.67168889 L0.388694444,9.22724444 L1.94463889,9.22724444 L25.8531389,9.22724444 L27.4086944,9.22724444 L27.4086944,3.6008 L25.8531389,3.6008 Z M1.94463889,7.67168889 L25.8531389,7.67168889 L25.8531389,5.15635556 L1.94463889,5.15635556 L1.94463889,7.67168889 Z" id="Fill-2"></path>
                <path d="M8.17327778,5.15627778 L19.6245,5.15627778 L19.6245,0 L8.17327778,0 L8.17327778,5.15627778 Z M9.72883333,3.60111111 L18.0689444,3.60111111 L18.0689444,1.55555556 L9.72883333,1.55555556 L9.72883333,3.60111111 Z" id="Fill-3"></path>
                <polygon id="Fill-4" points="8.04844444 30.8657222 9.604 30.8657222 9.604 11.8055 8.04844444 11.8055"></polygon>
                <polygon id="Fill-5" points="13.1211111 30.8657222 14.6766667 30.8657222 14.6766667 11.8055 13.1211111 11.8055"></polygon>
                <polygon id="Fill-6" points="18.1941667 30.8657222 19.7497222 30.8657222 19.7497222 11.8055 18.1941667 11.8055"></polygon>
            </g>
        </g>
    </g>
</svg>