<?xml version="1.0" encoding="UTF-8"?>
<svg width="42px" height="35px" viewBox="0 0 42 35" version="1.1" xmlns="http://www.w3.org/2000/svg" xmlns:xlink="http://www.w3.org/1999/xlink">
    <!-- Generator: Sketch 46.2 (44496) - http://www.bohemiancoding.com/sketch -->
    <title>reciclar</title>
    <desc>Created with Sketch.</desc>
    <defs>
        <polygon id="path-1" points="1.46795101e-15 34.9999222 1.46795101e-15 0 34.9998833 0 34.9998833 34.9999222"></polygon>
    </defs>
    <g id="Visual-cadena-de-valor-1280" stroke="none" stroke-width="1" fill="none" fill-rule="evenodd">
        <g id="Nuestro-compromiso/Cadena-de-valor/Cadena-de-valor-1280-2" transform="translate(-1077.000000, -3850.000000)">
            <g id="Group-2-Copy-8" transform="translate(541.000000, 3715.000000)">
                <g id="reciclar" transform="translate(536.000000, 135.000000)">
                    <polygon id="Fill-1" fill="#FFFFFF" points="17.87065 0.9709 17.4518167 0.986066667 17.01665 0.996955556 16.5900389 1.01912222 16.1649833 1.05062222 15.73565 1.09534444 15.3105944 1.1529 14.8902056 1.20656667 14.4690389 1.28473333 14.0478722 1.35162222 13.6290389 1.44028889 13.2175944 1.54256667 12.8092611 1.6429 12.41415 1.75256667 12.01515 1.86378889 11.6208167 1.99951111 11.2373722 2.13134444 10.8605389 2.26473333 10.4899278 2.42067778 10.1150389 2.57856667 9.75803889 2.74578889 9.16498333 3.03317778 8.59953889 3.3474 8.03409444 3.65734444 7.49315 4.01512222 6.96387222 4.35734444 6.45870556 4.73767778 5.96753889 5.12578889 5.49853889 5.54151111 5.04353889 5.95334444 4.59437222 6.38423333 4.17126111 6.8299 3.77848333 7.28801111 3.39348333 7.76556667 3.03103889 8.24623333 2.67831667 8.74751111 2.35748333 9.25034444 2.04909444 9.77028889 1.76987222 10.2995667 1.49337222 10.8432333 1.25109444 11.3876778 1.02242778 11.9332889 0.830316667 12.5014556 0.651816667 13.0711778 0.481094444 13.6467333 0.348872222 14.2409556 0.232594444 14.8293444 0.144316667 15.4196778 0.0743166667 16.0247889 0.02415 16.6248444 3.88888889e-05 17.2369556 0.00781666667 17.8494556 0.03815 18.4604 0.0743166667 19.0398444 0.144316667 19.6317333 0.242705556 20.2092333 0.348872222 20.7774 0.49315 21.3455667 0.663094444 21.9133444 0.840038889 22.4686778 1.06248333 23.0271222 1.28881667 23.5750667 1.55365 24.1210667 1.82820556 24.6554 2.11676111 25.1769 2.42981667 25.6894556 2.76620556 26.1907333 3.12942778 26.6920111 3.50003889 27.1730667 3.88659444 27.6405111 4.29337222 28.1083444 4.71881667 28.5423444 5.16176111 28.9736222 5.61676111 29.3893444 6.09820556 29.7918444 6.58276111 30.1671222 7.08792778 30.5365667 7.59348333 30.8819 8.12081667 31.2144 8.65981667 31.5262889 9.21709444 31.8175667 9.76620556 32.0847333 10.3437056 32.3394556 10.9348167 32.5638444 11.5200944 32.7629556 11.3622056 32.6960667 11.1934278 32.6175111 11.0269833 32.5397333 10.8725944 32.4619556 10.7007056 32.3837889 10.5478722 32.3079556 10.3794833 32.2150111 10.2274278 32.1275111 10.0590389 32.0384556 9.90037222 31.9509556 9.73198333 31.8622889 9.57759444 31.7584556 9.41970556 31.6709556 9.26298333 31.5706222 9.10470556 31.4722333 8.94837222 31.3719 8.79203889 31.2696222 8.63803889 31.1603444 8.49142778 31.0491222 8.33509444 30.9487889 8.18848333 30.8224 8.05042778 30.7240111 7.89409444 30.6034556 7.74748333 30.4883444 7.60126111 30.3677889 7.45892778 30.2468444 7.32437222 30.1224 7.19020556 30.0018444 7.05176111 29.8665111 6.91759444 29.7327333 6.78537222 29.6121778 6.65315 29.4784 6.45870556 29.2649 6.26620556 29.0665667 6.08809444 28.8546222 5.90726111 28.6411222 5.73887222 28.4186778 5.57281667 28.2067333 5.41415 27.9951778 5.25587222 27.7742889 5.09953889 27.5514556 4.95759444 27.3192889 4.82109444 27.0933444 4.67681667 26.8588444 4.54848333 26.6360111 4.42598333 26.4038444 4.30776111 26.1572889 4.18526111 25.9251222 4.08920556 25.6894556 3.98303889 25.4464 3.87687222 25.2014 3.78859444 24.9544556 3.70809444 24.7001222 3.62059444 24.4531778 3.54009444 24.2097333 3.46387222 23.9534556 3.40748333 23.6956222 3.33320556 23.4412889 3.27370556 23.1721778 3.22742778 22.9159 3.17531667 22.6506778 3.12942778 22.3811778 3.09092778 22.1268444 3.05903889 21.8561778 3.00498333 21.3121222 2.99448333 20.7645667 2.99448333 20.2317889 3.01470556 19.6970667 3.06876111 19.1751778 3.13915 18.6536778 3.22742778 18.1154556 3.33320556 17.6137889 3.46387222 17.1016222 3.61009444 16.5871222 3.77848333 16.0990667 3.96903889 15.6110111 4.18526111 15.1315111 4.41820556 14.6508444 4.65659444 14.1834 4.92298333 13.7373444 5.21192778 13.2940111 5.50670556 12.8576778 5.82170556 12.4365111 6.15615 12.0223444 6.50887222 11.6214 6.88376111 11.2204556 7.26448333 10.8529556 7.66309444 10.4850667 8.08465 10.1304 8.51553889 9.79478889 8.96042778 9.46967778 9.41970556 9.16906667 9.90037222 8.88284444 10.3794833 8.60245556 10.8889278 8.34656667 11.4042056 8.10312222 11.59865 8.02495556 11.7748167 7.94756667 11.9552611 7.86745556 12.1497056 7.80251111 12.33015 7.72434444 12.5207056 7.65784444 12.7128167 7.59095556 12.9072611 7.5334 13.0997611 7.46495556 13.2903167 7.41245556 13.4843722 7.35684444 13.6768722 7.31056667 13.8794833 7.25651111 14.0739278 7.20128889 14.2765389 7.15306667 14.4690389 7.12273333 14.6712611 7.07684444 14.8660944 7.03406667 15.0725944 6.99673333 15.2790944 6.96717778 15.4789833 6.93217778 15.6839278 6.89834444 15.8880944 6.87617778 16.1085944 6.84273333 16.3112056 6.82095556 16.5138167 6.80928889 16.7343167 6.78867778 16.9384833 6.76495556 17.1508167 6.75523333 17.3553722 6.7424 17.5758722 6.73345556 17.7885944 6.72256667 17.7885944 6.47484444 17.7885944 6.22828889 17.7885944 5.99612222 17.7885944 5.75112222 17.7885944 5.51895556 17.7885944 5.28328889 17.7885944 5.05112222 17.7784833 4.81545556 17.7784833 4.58367778 17.7784833 4.35734444 17.7784833 4.12517778 17.7784833 3.88912222 17.7784833 3.64956667 17.7784833 3.41428889 17.7885944 3.18017778 17.80065 2.9239 18.1852611 3.03317778 18.57415 3.1689 18.94515 3.31395556 19.3180944 3.45667778 19.6890944 3.62584444 20.04765 3.80162222 20.4244833 3.98206667 20.7752611 4.18234444 21.1318722 4.39428889 21.4830389 4.6039 21.8198167 4.83762222 22.1682611 5.07367778 22.5054278 5.31867778 22.8180944 5.57301111 23.1404833 5.82928889 23.4554833 6.0984 23.7580389 6.3749 24.0532056 6.66656667 24.3452611 6.9559 24.6240944 7.25651111 24.8970944 7.55556667 25.1514278 7.85656667 25.4018722 8.18128889 25.6565944 8.49317778 25.8848722 8.8144 26.1034278 9.14884444 26.3157611 9.48251111 26.5203167 9.81851111 26.7007611 10.1510111 26.8672056 10.4959556 27.0375389 10.8319556 27.1962056 11.1741778 27.0375389 11.5230111 26.8672056 11.8679556 26.69065 12.2136778 26.4965944 12.5364556 26.3040944 12.8689556 26.0913722 13.1917333 25.8708722 13.5168444 25.6425944 13.8396222 25.4018722 14.1515111 25.1514278 14.4637889 24.8970944 14.7644 24.6342056 15.0646222 24.3553722 15.3508444 24.0784833 15.6308444 23.7945944 15.9100667 23.4893167 16.1881222 23.1890944 16.4428444 22.8620389 16.7135111 22.5513167 16.9569556 22.2265944 17.2019556 21.9018722 17.4356778 21.5650944 17.6569556 21.2162611 17.8720111 20.8693722 18.0839556 20.5310389 18.2822889 20.17015 18.4604 19.8112056 18.6536778 19.4507056 18.8189556 19.0793167 18.9729556 18.7125944 19.1199556 18.3439278 19.2642333 17.9690389 19.3851778 17.8243722 19.3851778 17.8243722 19.1514556 17.8127056 18.9060667 17.8127056 18.6610667 17.8127056 18.4176222 17.8127056 18.1722333 17.8127056 17.9276222 17.8127056 17.6787333 17.8127056 17.4356778 17.8127056 17.1887333 17.8127056 16.9569556 17.8127056 16.7135111 17.8127056 16.4794 17.80065 16.2456778 17.80065 16.0119556 17.7885944 15.7778444 17.7885944 15.5639556 17.4074833 15.6759556 17.0310389 15.7984556 16.6479833 15.9454556 16.2750389 16.0990667 15.9040389 16.2659 15.52915 16.4331222 15.1682611 16.6248444 14.8058167 16.8231778 14.4425944 17.0347333 14.0984278 17.2478444 13.7492056 17.4823444 13.4027056 17.7160667 13.0655389 17.9571778 12.7373167 18.2173444 12.41415 18.4845111 12.1038167 18.7501222 11.7989278 19.0305111 11.4882056 19.3194556 11.1934278 19.6076222 10.91265 19.9082333 10.6443167 20.2092333 10.3794833 20.5230667 10.1150389 20.8326222 9.87470556 21.1561778 9.63398333 21.4805111 9.41970556 21.8130111 9.19687222 22.1342333 8.99659444 22.4815111 8.81809444 22.8175111 8.63803889 23.1496222 8.47937222 23.4969 8.32109444 23.8387333 8.47937222 24.1856222 8.64970556 24.5348444 8.82626111 24.8762889 9.00865 25.2122889 9.21709444 25.5428444 9.43370556 25.8769 9.65809444 26.2148444 9.90037222 26.5376222 10.13915 26.8588444 10.4074833 27.1730667 10.6680389 27.4826222 10.9449278 27.7832333 11.2257056 28.0861778 11.5099833 28.3759 11.8129278 28.6632889 12.1255944 28.9436778 12.4382611 29.2225111 12.7629833 29.4784 13.0997611 29.7327333 13.4244833 29.9886222 13.7737056 30.2246778 14.1100944 30.4587889 14.4565944 30.6687889 14.8198167 30.8819 15.1764278 31.0825667 15.5373167 31.2696222 15.9122056 31.4465667 16.28515 31.6169 16.65965 31.7728444 17.0310389 31.9159556 17.4074833 32.0493444 17.7885944 32.1629 17.8465389 32.1275111 17.87065 28.4408444 17.8807611 28.2973444 18.0409833 28.2849 18.1852611 28.2736222 18.3439278 28.2623444 18.5002611 28.2514556 18.6542611 28.2421222 18.8129278 28.2308444 18.9673167 28.2199556 19.1232611 28.2067333 19.2698722 28.1958444 19.4285389 28.1736778 19.5844833 28.1620111 19.7412056 28.1530667 19.8932611 28.1305111 20.0390944 28.1176778 20.1938722 28.0951222 20.3505944 28.0752889 20.8195944 27.9951778 21.30065 27.9080667 21.7735389 27.7832333 22.23865 27.6626778 22.7095944 27.5180111 23.1785944 27.3488444 23.6335944 27.1730667 24.0924833 26.9832889 24.5362056 26.7717333 24.9807056 26.5376222 25.4139278 26.3039 25.8490944 26.0480111 26.2597611 25.7785111 26.6785944 25.5004556 27.0694278 25.2122889 27.46065 24.9116778 27.8452611 24.5997889 28.2162611 24.2766222 28.56315 23.9312889 28.9135389 23.5972333 29.2507056 23.2371222 29.5610389 22.8715667 29.8760389 22.5056222 30.1665389 22.1136222 30.4434278 21.7259 30.6962056 21.3358444 30.9384833 20.9329556 31.1628722 20.5230667 31.3794833 20.1089 31.5599278 19.6838444 31.7302611 19.2642333 31.8749278 18.8391778 32.0409833 18.3713444 32.17515 17.8922333 32.2957056 17.4244 32.3898167 16.9472333 32.4757611 16.4794 32.5360389 16.0006778 32.5780389 15.5196222 32.6103167 15.0300111 32.6344278 14.5621778 32.6180944 14.0846222 32.5939833 13.6055111 32.56015 13.1380667 32.4979278 12.6589556 32.40965 12.1911222 32.3314833 11.7326222 32.2233722 11.2647889 32.0892056 10.8101778 31.9488167 10.3532333 31.7905389 9.90795556 31.6100944 9.44906667 31.4273167 9.01506667 31.2110944 8.58223333 30.9968167 8.15873333 30.75415 7.74495556 30.5033167 7.33506667 30.2248722 6.93217778 29.9499278 6.54173333 29.6473722 6.15245556 29.33665 5.78651111 28.9998722 5.41901111 28.6630944 5.06045556 28.3045389 4.71706667 28.1559833 4.58367778 28.0140389 4.45923333 27.8689833 4.33634444 27.7130389 4.21228889 27.5668167 4.09367778 27.4264278 3.98206667 27.26815 3.85956667 27.1234833 3.74484444 26.9694833 3.62584444 26.8088722 3.51423333 26.6529278 3.40106667 26.4965944 3.30034444 26.3398722 3.18912222 26.1714833 3.09073333 26.01515 2.98884444 25.86115 2.88851111 25.6904278 2.79945556 25.5239833 2.69912222 25.36765 2.61201111 25.1992611 2.51906667 25.0289278 2.43234444 24.8504278 2.35184444 24.6940944 2.26473333 24.5140389 2.19784444 24.3452611 2.12006667 24.1628722 2.05123333 23.9944833 1.98628889 23.8140389 1.92095556 23.6335944 1.86378889 23.4554833 1.7969 23.2750389 1.75256667 23.0945944 1.69695556 23.0323722 1.68723333 22.99815 1.66312222 22.9507056 1.65223333 22.88615 1.6429 22.5054278 1.53167778 22.0963167 1.4294 21.6852611 1.3419 21.2683722 1.26256667 20.8553722 1.1844 20.4384833 1.12878889 20.0153722 1.08601111 19.5945944 1.04128889 19.1594278 1.00784444 18.7425389 0.986066667 18.3077611 0.9709"></polygon>
                    <g id="Group-4">
                        <mask id="mask-2" fill="white">
                            <use xlink:href="#path-1"></use>
                        </mask>
                        <g id="Clip-3"></g>
                        <path d="M17.4998833,-7.77777778e-05 C7.83482778,-7.77777778e-05 -0.000116666667,7.83486667 -0.000116666667,17.4999222 C-0.000116666667,27.1653667 7.83482778,34.9999222 17.4998833,34.9999222 C27.1653278,34.9999222 34.9998833,27.1653667 34.9998833,17.4999222 C34.9998833,7.83486667 27.1653278,-7.77777778e-05 17.4998833,-7.77777778e-05 M17.4998833,1.55547778 C26.2914944,1.55547778 33.4443278,8.70831111 33.4443278,17.4999222 C33.4443278,26.2915333 26.2914944,33.4443667 17.4998833,33.4443667 C8.70827222,33.4443667 1.55543889,26.2915333 1.55543889,17.4999222 C1.55543889,8.70831111 8.70827222,1.55547778 17.4998833,1.55547778" id="Fill-2" fill="#FFFFFF" mask="url(#mask-2)"></path>
                    </g>
                    <path d="M38.4972883,3.80650522 C38.8396408,3.80650522 39.1824675,3.6291548 39.1824675,3.13129155 C39.1824675,2.63366572 38.917168,2.45631529 38.4972883,2.45631529 L37.2046943,2.45631529 L37.2046943,3.80650522 L38.4972883,3.80650522 Z M40.0222268,6.10778727 L39.0719853,6.10778727 L38.2760869,4.56980057 L37.2046943,4.56980057 L37.2046943,6.0968661 L36.3758409,6.0968661 L36.3758409,1.69301994 L38.4861453,1.69301994 C39.4145749,1.69301994 40.0001778,2.25735992 40.0001778,3.13129155 C40.0001778,3.76210826 39.6355392,4.2711301 39.0831284,4.47032289 L40.0222268,6.10778727 Z M38.0001185,0.741215575 C36.2319296,0.741215575 34.7954242,2.20204179 34.7954242,3.99453941 C34.7954242,5.79795821 36.2319296,7.25854701 38.0001185,7.25854701 C39.7678333,7.25854701 41.2048129,5.79795821 41.2048129,3.99453941 C41.2048129,2.20204179 39.7678333,0.741215575 38.0001185,0.741215575 L38.0001185,0.741215575 Z M38.0001185,8 C35.7900009,8 34,6.20750237 34,3.99453941 C34,1.79249763 35.7900009,0 38.0001185,0 C40.2102362,0 42,1.79249763 42,3.99453941 C42,6.20750237 40.2102362,8 38.0001185,8 L38.0001185,8 Z" id="R" fill="#FFFFFF"></path>
                </g>
            </g>
        </g>
    </g>
</svg>