<?xml version="1.0" encoding="utf-8"?>
<!-- Generator: Adobe Illustrator 21.1.0, SVG Export Plug-In . SVG Version: 6.00 Build 0)  -->
<svg version="1.1" id="Capa_1" xmlns="http://www.w3.org/2000/svg" xmlns:xlink="http://www.w3.org/1999/xlink" x="0px" y="0px"
	 viewBox="0 0 530 521" style="enable-background:new 0 0 530 521;" xml:space="preserve">
<style type="text/css">
	.st0{fill:#36A9DF;}
	.st1{opacity:0.2;fill:#36A9DF;enable-background:new    ;}
	.st2{opacity:0.8;fill:#36A9DF;enable-background:new    ;}
	.st3{opacity:0.5;fill:#36A9DF;enable-background:new    ;}
	.st4{fill:#E21F13;}
	.st5{fill:#FFFFFF;}
</style>
<g>
	<g>
		<path class="st0 event logistica-larga" d="M202,46.1L202,46.1L202,46.1L202,46.1L202,46.1l-6.9,36.7c38.7-14.8,82.3-17.5,124.6-5.1L349,53.8l-7.6-42
			c-58.5-17.7-119-14-172.5,6.8L202,46.1z"/>
		<path class="st1" d="M347.5,479.6L347.5,479.6L347.5,479.6L347.5,479.6L347.5,479.6l3.8-38.7c-2.2,1.1-4.5,2.1-6.7,3.1l-7.3,38.7
			L369,509c4.3-1.8,8.5-3.8,12.7-5.8L347.5,479.6z"/>
		<path class="st0 event clientes" d="M488,311.3l40.1-14.8c7.1-59.7-6.6-118.9-36.7-168.6L470,165.3v0.1l0,0l0,0l0,0l-37.2-0.5
			c21.6,36,31.5,78.7,26.7,121.8L488,311.3z"/>
		<path class="st2" d="M373.9,466.9l35.8,20.4c10.6-6.9,20.6-14.5,30.2-22.8l-40.6-14.6h-0.1l0,0l0,0l0,0l-6-36.7
			c-6,5.2-12.3,10-18.8,14.4L373.9,466.9z"/>
		<path class="st0 event logistica-corta" d="M357.7,56.9L357.7,56.9L357.7,56.9L357.7,56.9L357.7,56.9l-28.9,23.7c1,0.4,2,0.7,3.1,1.1
			c40.6,14.8,73.4,41.7,95.7,75.1l37.8,0.5l21.2-37.1c-30.3-46.2-75.1-83.4-131-103.7c-1.9-0.7-3.7-1.3-5.6-2L357.7,56.9z"/>
		<path class="st3" d="M365.8,471.6L365.8,471.6L365.8,471.6L365.8,471.6L365.8,471.6l0.4-38.9c-2.1,1.3-4.3,2.5-6.4,3.7l-3.9,39.2
			l33.9,23.5c4.1-2.2,8.2-4.5,12.1-6.9L365.8,471.6z"/>
		<path class="st1" d="M171.9,475.2L171.9,475.2L171.9,475.2L171.9,475.2L171.9,475.2l30.1-24.6c-1.3-0.4-2.5-0.9-3.8-1.3
			c-1.1-0.4-2.1-0.8-3.2-1.2l-32.6,22.2l3.8,41c2.7,1.1,5.4,2.2,8.2,3.2c1.6,0.6,3.2,1.1,4.9,1.7L171.9,475.2z"/>
		<path class="st0 event aprovisionamiento" d="M106.6,429.7L106.6,429.7L106.6,429.7L106.6,429.7L106.6,429.7l35.1-12.3C108.3,390.3,85.1,353.1,75,312
			l-35.3-13.4L7.1,326.2c13.5,57,45.6,108.7,92.1,146L106.6,429.7z"/>
		<path class="st0 event consumidor" d="M486.4,320.5L486.4,320.5L486.4,320.5L486.4,320.5L486.4,320.5l-28.3-24.3c-1.9,12.1-5,24.2-9.4,36.1
			c-10.6,29.2-27.5,54.3-48.5,74.4l6.1,37.2l40.2,14.4c29.3-27.5,52.7-62,67.4-102.3c6.1-16.7,10.3-33.6,13-50.5L486.4,320.5z"/>
		<path class="st2" d="M106.5,477.8c9.6,7.2,19.8,13.8,30.5,19.7l-0.2-41.6l0,0l0,0l0,0h0.1l33.8-18.9c-7.5-4.1-14.6-8.7-21.3-13.6
			l-35.6,12.2L106.5,477.8z"/>
		<path class="st3" d="M186,444.3c-2.3-1-4.5-2-6.7-3.1L145,460.4l0.2,41.2c4.1,2.1,8.3,4.1,12.6,6l-3.8-41.4l0,0l0,0l0,0h0.1
			L186,444.3z"/>
		<path class="st0 event produccion" d="M75.8,137.9L75.8,137.9L75.8,137.9L75.8,137.9L75.8,137.9l18.3,32.5c21.2-38.2,54-67.2,92.2-84l7-37.1
			l-32.9-27.2C107.3,44.9,61.7,85,32.6,138.2L75.8,137.9z"/>
		<path class="st0 event logistica-produccion" d="M38.1,289.4L38.1,289.4L38.1,289.4L38.1,289.4L38.1,289.4L73,302.5c-6.5-33.7-4.3-69.5,8.3-104
			c2.5-6.7,5.3-13.3,8.3-19.6L71.1,146l-42.7,0.2c-4.6,9.2-8.8,18.7-12.4,28.6C-1.2,222.1-4.1,271.2,5.1,317.3L38.1,289.4z"/>
	</g>
	<g>
		<g>
			<path class="st4" d="M298.2,520.5h-66v-66h66V520.5z M233.4,519.3h63.7v-63.6h-63.6v63.6H233.4z"/>
		</g>
		<g>
			<path class="st4" d="M237.6,501.7v4.7c0,1-0.8,1.9-1.9,1.9h-23.9c-1,0-1.9-0.8-1.9-1.9v-9.8v-28c0-1,0.8-1.9,1.9-1.9h23.9
				c1,0,1.9,0.8,1.9,1.9v4.7h55.3v-4.7c0-1,0.8-1.9,1.9-1.9h23.9c1,0,1.9,0.8,1.9,1.9v26.7v11.1c0,1-0.8,1.9-1.9,1.9h-23.9
				c-1,0-1.9-0.8-1.9-1.9v-4.7H237.6z"/>
			<g>
				<path class="st5" d="M313.6,474.3c0,0.6,0.5,1.1,1.1,1.1s1.1-0.5,1.1-1.1s-0.5-1.1-1.1-1.1S313.6,473.7,313.6,474.3z
					 M315.6,474.3c0,0.5-0.4,0.9-0.9,0.9s-0.9-0.4-0.9-0.9s0.4-0.9,0.9-0.9C315.2,473.4,315.6,473.8,315.6,474.3z M314.3,475h0.2
					v-0.6h0.2l0.4,0.6h0.2l-0.4-0.6c0.2,0,0.3-0.1,0.3-0.4c0-0.2-0.1-0.4-0.4-0.4h-0.5L314.3,475L314.3,475z M314.5,473.9h0.3
					c0.1,0,0.2,0.1,0.2,0.2s-0.1,0.2-0.3,0.2h-0.2V473.9z"/>
				<g>
					<path class="st5" d="M227.8,486.2c-1.6,1.2-3.6,1.7-6.1,1.7h-1.4v6.7c0,0.5-0.2,0.7-0.8,0.7h-2.4c-0.5,0-0.7-0.2-0.7-0.8v-19.4
						c0-0.6,0.2-0.8,0.8-0.8h4.4c3.2,0,5.6,0.6,7.1,2.3c1,1.1,1.5,2.7,1.5,4.3C230.2,483.3,229.3,485.1,227.8,486.2z M221.9,477.3
						h-1.6v7.6h0.8c1.8,0,3.2-0.1,4.2-1.1c0.6-0.6,0.9-1.5,0.9-2.7C226.3,478.3,224.6,477.3,221.9,477.3z"/>
					<path class="st5" d="M246.4,494.7c0,0.4-0.2,0.6-0.6,0.6h-1.5c-1.6,0-2.3-0.8-2.5-1.8h-0.1c-0.9,1.2-2.7,2.2-4.4,2.2
						c-4.3,0-6.2-3.5-6.2-7.5c0-5.3,3.2-8,6.6-8c1.6,0,3.1,0.7,3.9,1.8l0.1-0.8c0-0.3,0.3-0.5,0.6-0.5h2.1c0.4,0,0.6,0.2,0.6,0.7
						v10.7c0,0.5,0.1,0.8,0.5,0.8h0.2c0.4,0,0.5,0.1,0.5,0.5v1.3H246.4z M241.4,484.7c-0.6-0.9-1.9-1.6-3-1.6
						c-1.9,0-3.4,1.6-3.4,4.8c0,2.6,1,4.7,3.2,4.7c1.5,0,2.8-1.1,3.2-2.1L241.4,484.7L241.4,484.7z"/>
					<path class="st5" d="M253,495.7c-1.6,0-3.3-0.5-4.7-1.1c-0.3-0.2-0.5-0.4-0.3-0.7l0.5-1.7c0.1-0.4,0.4-0.5,0.7-0.3
						c1.4,0.6,2.8,0.9,3.8,0.9c1.3,0,2.3-0.6,2.3-1.6c0-0.9-0.6-1.3-1.8-1.8l-2.4-0.9c-1.7-0.6-3.1-2-3.1-4c0-3,2.8-4.3,5.5-4.3
						c1.5,0,2.9,0.2,4.4,0.9c0.4,0.2,0.4,0.4,0.3,0.7l-0.5,1.6c-0.1,0.4-0.4,0.4-0.7,0.3c-1-0.4-2.3-0.7-3.3-0.7
						c-1.3,0-1.9,0.7-1.9,1.4c0,0.7,0.3,1.1,1.5,1.5l2.7,1.1c1.6,0.7,2.9,1.9,2.9,3.9C258.9,494.1,256.1,495.7,253,495.7z"/>
					<path class="st5" d="M271.4,492.1c0.3-0.1,0.6-0.1,0.7,0.2l0.4,1.5c0.1,0.5,0.1,0.7-0.4,0.9c-1.5,0.7-2.8,0.9-4.4,0.9
						c-4.7,0-7.3-2.9-7.3-7.6s2.8-7.9,7.5-7.9c1.4,0,2.8,0.3,4.1,0.9c0.4,0.2,0.4,0.4,0.3,0.8l-0.4,1.6c-0.1,0.3-0.3,0.5-0.7,0.3
						c-0.9-0.4-1.9-0.7-2.9-0.7c-2.6,0-4.1,1.9-4.1,4.8s1.3,4.9,4,4.9C269.5,492.8,270.3,492.6,271.4,492.1z"/>
					<path class="st5" d="M287.5,494.5c0,0.6-0.2,0.9-0.8,0.9h-1.9c-0.4,0-0.7-0.2-0.7-0.6V494c-1.4,1.1-3.1,1.7-4.8,1.7
						c-3.4,0-4.8-2.2-4.8-5.4v-9c0-0.5,0.3-0.7,0.8-0.7h2.1c0.5,0,0.8,0.2,0.8,0.7v8.3c0,1.7,0.4,2.8,2.2,2.8c1.2,0,2.6-0.6,3.5-1.5
						v-9.7c0-0.5,0.3-0.7,0.8-0.7h2.2c0.5,0,0.8,0.2,0.8,0.7v13.3H287.5z"/>
					<path class="st5" d="M305.3,494.7c0,0.4-0.2,0.6-0.6,0.6h-1.5c-1.6,0-2.3-0.8-2.5-1.8h-0.1c-0.9,1.2-2.7,2.2-4.4,2.2
						c-4.3,0-6.2-3.5-6.2-7.5c0-5.3,3.2-8,6.6-8c1.6,0,3.1,0.7,3.9,1.8l0.1-0.8c0-0.3,0.3-0.5,0.6-0.5h2.1c0.4,0,0.6,0.2,0.6,0.7
						v10.7c0,0.5,0.1,0.8,0.5,0.8h0.2c0.4,0,0.5,0.1,0.5,0.5v1.3H305.3z M300.3,484.7c-0.6-0.9-1.9-1.6-3-1.6
						c-1.9,0-3.4,1.6-3.4,4.8c0,2.6,1,4.7,3.2,4.7c1.5,0,2.8-1.1,3.2-2.1L300.3,484.7L300.3,484.7z"/>
					<path class="st5" d="M311,494.5c0,0.5-0.2,0.8-0.7,0.8H308c-0.4,0-0.7-0.2-0.7-0.7v-19.9c0-0.5,0.1-0.8,0.6-0.8l2.5-0.3
						c0.3,0,0.6,0.1,0.6,0.5V494.5z"/>
				</g>
			</g>
		</g>
		<g>
			<path class="st4" d="M253,467c0.1,0.2,0,0.3-0.2,0.3c-0.7,0.3-1.4,0.5-2.2,0.5c-2.4,0-3.5-1.7-3.5-4s1.4-4.1,3.6-4.1
				c0.8,0,1.5,0.2,2.1,0.5c0.2,0.1,0.2,0.1,0.1,0.3l-0.3,0.7c0,0.1-0.1,0.2-0.3,0.1c-0.6-0.3-1.1-0.4-1.6-0.4
				c-1.6,0-2.2,1.4-2.2,2.8c0,1.7,0.8,2.8,2.2,2.8c0.5,0,1.1-0.1,1.6-0.4c0.1-0.1,0.2-0.1,0.3,0.1L253,467z"/>
			<path class="st4" d="M259.3,467.5c0,0.1-0.1,0.2-0.2,0.2h-0.5c-0.6,0-0.8-0.3-0.9-0.7l0,0c-0.3,0.5-1,0.8-1.6,0.8
				c-1.6,0-2.3-1.3-2.3-2.8c0-1.9,1.2-3,2.4-3c0.6,0,1.2,0.3,1.4,0.7v-0.3c0-0.1,0.1-0.2,0.2-0.2h0.8c0.1,0,0.2,0.1,0.2,0.2v4
				c0,0.2,0,0.3,0.2,0.3h0.1c0.1,0,0.2,0,0.2,0.2L259.3,467.5L259.3,467.5z M257.4,463.8c-0.2-0.3-0.7-0.6-1.1-0.6
				c-0.7,0-1.3,0.6-1.3,1.8c0,0.9,0.4,1.7,1.2,1.7c0.6,0,1-0.4,1.2-0.8L257.4,463.8L257.4,463.8z"/>
			<path class="st4" d="M261.6,467.4c0,0.2-0.1,0.3-0.2,0.3h-0.9c-0.2,0-0.3-0.1-0.3-0.3V460c0-0.2,0-0.3,0.2-0.3l0.9-0.1
				c0.1,0,0.2,0,0.2,0.2L261.6,467.4L261.6,467.4z"/>
			<path class="st4" d="M263.8,461.5c-0.4,0-0.8-0.2-0.8-0.7s0.4-0.7,0.8-0.7s0.8,0.3,0.8,0.7C264.6,461.3,264.2,461.5,263.8,461.5z
				 M264.5,467.4c0,0.2-0.1,0.3-0.3,0.3h-0.8c-0.2,0-0.3-0.1-0.3-0.3v-4.9c0-0.2,0.1-0.3,0.3-0.3h0.8c0.2,0,0.3,0.1,0.3,0.3V467.4z"
				/>
			<path class="st4" d="M270.8,467.4c0,0.2-0.1,0.3-0.2,0.3h-0.7c-0.2,0-0.3-0.1-0.3-0.2v-0.3c-0.3,0.4-0.9,0.7-1.5,0.7
				c-1.6,0-2.4-1.3-2.4-2.8c0-1.6,0.9-2.9,2.5-2.9c0.5,0,1,0.2,1.4,0.5v-2.5c0-0.2,0-0.3,0.2-0.3l0.9-0.1c0.1,0,0.2,0,0.2,0.2v7.4
				H270.8z M269.5,463.8c-0.2-0.3-0.7-0.6-1.1-0.6c-0.9,0-1.3,0.8-1.3,1.8c0,0.9,0.3,1.8,1.2,1.8c0.4,0,0.9-0.3,1.1-0.6L269.5,463.8
				L269.5,463.8z"/>
			<path class="st4" d="M277.6,467.5c0,0.1-0.1,0.2-0.2,0.2h-0.5c-0.6,0-0.8-0.3-0.9-0.7l0,0c-0.3,0.5-1,0.8-1.6,0.8
				c-1.6,0-2.3-1.3-2.3-2.8c0-1.9,1.2-3,2.4-3c0.6,0,1.2,0.3,1.4,0.7v-0.3c0-0.1,0.1-0.2,0.2-0.2h0.8c0.1,0,0.2,0.1,0.2,0.2v4
				c0,0.2,0,0.3,0.2,0.3h0.1c0.1,0,0.2,0,0.2,0.2L277.6,467.5L277.6,467.5z M275.7,463.8c-0.2-0.3-0.7-0.6-1.1-0.6
				c-0.7,0-1.3,0.6-1.3,1.8c0,0.9,0.4,1.7,1.2,1.7c0.5,0,1-0.4,1.2-0.8L275.7,463.8L275.7,463.8z"/>
			<path class="st4" d="M283.4,467.4c0,0.2-0.1,0.3-0.2,0.3h-0.7c-0.2,0-0.3-0.1-0.3-0.2v-0.3c-0.3,0.4-0.9,0.7-1.5,0.7
				c-1.6,0-2.4-1.3-2.4-2.8c0-1.6,0.9-2.9,2.5-2.9c0.5,0,1,0.2,1.4,0.5v-2.5c0-0.2,0-0.3,0.2-0.3l0.9-0.1c0.1,0,0.2,0,0.2,0.2v7.4
				H283.4z M282,463.8c-0.2-0.3-0.7-0.6-1.1-0.6c-0.9,0-1.3,0.8-1.3,1.8c0,0.9,0.3,1.8,1.3,1.8c0.4,0,0.9-0.3,1.1-0.6V463.8z"/>
		</g>
	</g>
	<g class="texto aprovisionamiento">
		<path class="st5" d="M39.3,318.1v0.2c0.1,0.2,0.1,0.4,0.4,0.4l9.3,1l0.3,1l-7.7,5.3c-0.2,0.2-0.2,0.3-0.2,0.6v0.2l-0.9,0.2
			l-0.1-0.4c-0.2-0.7-0.1-0.9,0.5-1.3l2.1-1.4l-1-3.8l-2.5-0.3c-0.7-0.1-0.9-0.2-1.1-0.9l-0.1-0.5L39.3,318.1z M43.9,323.3l3.1-2.2
			c0.4-0.3,1.2-0.7,1.2-0.7l0,0c0,0-0.9,0-1.3-0.1l-3.8-0.4L43.9,323.3z"/>
		<path class="st5" d="M46.8,326.7c0.2-0.1,0.3-0.2,0.2-0.4l-0.2-0.6l0.8-0.2l0.3,0.9c0.2,0.6,0,0.9-0.5,1c-0.3,0.1-0.5,0.1-0.5,0.1
			l0,0c0,0,1.5,0.1,2,2c0.5,1.8-0.6,3.4-2.7,4c-2.2,0.6-4-0.2-4.5-2c-0.5-1.7,0.6-2.6,0.6-2.6l0,0c0,0-0.2,0.1-0.6,0.2l-3.3,1
			l-0.3-0.9L46.8,326.7z M42.6,331.3c0.4,1.2,1.7,1.9,3.4,1.4s2.5-1.7,2.1-3c-0.3-1.1-1.5-2-3.4-1.4
			C43.3,328.7,42.2,329.8,42.6,331.3z"/>
		<path class="st5" d="M49.2,334.6c0.2-0.1,0.3-0.2,0.2-0.4l-0.2-0.6l0.8-0.3l0.3,0.9c0.2,0.6,0,0.9-0.5,1.1l-0.5,0.2
			c-0.3,0.1-0.5,0.1-0.5,0.1l0,0c1.1,0,2.2,0.5,2.5,1.6c0.1,0.2,0.1,0.4,0.1,0.4l-0.9,0.3c0,0,0-0.2-0.1-0.3c-0.3-1-1.3-1.4-2.4-1.4
			c-0.5,0-1,0.1-1.4,0.2l-2.9,0.9l-0.3-0.9L49.2,334.6z"/>
		<path class="st5" d="M53,341.5c0.7,2-0.2,4.1-2.2,4.8c-2,0.7-4.1-0.3-4.8-2.3s0.2-4.1,2.3-4.8C50.2,338.5,52.3,339.6,53,341.5z
			 M46.7,343.8c0.5,1.4,2.1,2.2,3.7,1.6c1.5-0.5,2.2-2.1,1.7-3.6c-0.5-1.4-2.1-2.2-3.6-1.7C47,340.8,46.2,342.4,46.7,343.8z"/>
		<path class="st5" d="M53.4,346.6c0.2-0.2,0.2-0.3,0.1-0.6v-0.1l0.8-0.3l0.1,0.4c0.3,0.6,0.2,0.9-0.3,1.3l-3.5,3.2
			c-0.3,0.3-0.7,0.5-0.7,0.5l0,0c0,0,0.5-0.1,0.9-0.1l4.8-0.1c0.7,0,0.9,0.1,1.1,0.8l0.1,0.3l-0.8,0.3v-0.1
			c-0.1-0.2-0.2-0.4-0.5-0.3l-6.4,0.1l-0.4-1L53.4,346.6z"/>
		<path class="st5" d="M56.3,353.8c0.2-0.1,0.2-0.2,0.2-0.4l-0.2-0.5l0.8-0.3l0.4,0.9c0.2,0.6,0.1,0.9-0.5,1.1l-4.7,2
			c-0.2,0.1-0.2,0.2-0.2,0.4l0.2,0.5l-0.8,0.3l-0.4-0.9c-0.2-0.6-0.1-0.9,0.5-1.1L56.3,353.8z M60,352.2l0.4,0.9l-1.1,0.5l-0.4-0.9
			L60,352.2z"/>
		<path class="st5" d="M53.7,358.5c0,0-0.7,1.2-0.1,2.5c0.3,0.7,1,1.2,1.7,0.9c1.4-0.6-0.5-4.2,1.6-5.1c1.2-0.5,2.2,0.2,2.8,1.5
			c0.3,0.7,0.6,2.1-0.3,2.5l-0.6,0.3l-0.4-0.8l0.3-0.1c0.5-0.2,0.3-1,0.2-1.4c-0.4-0.9-1-1.3-1.6-1c-1.5,0.7,0.5,4.2-1.6,5.1
			c-1.1,0.5-2.3-0.2-2.9-1.5c-0.8-1.7,0-3,0-3L53.7,358.5z"/>
		<path class="st5" d="M60.3,362.7c0.2-0.1,0.2-0.2,0.1-0.4l-0.3-0.5l0.8-0.4l0.4,0.9c0.3,0.6,0.1,0.9-0.4,1.2l-4.6,2.2
			c-0.2,0.1-0.2,0.2-0.1,0.4l0.3,0.5l-0.8,0.4l-0.4-0.9c-0.3-0.5-0.1-0.9,0.4-1.2L60.3,362.7z M63.9,360.9l0.4,0.8l-1.1,0.5
			l-0.4-0.8L63.9,360.9z"/>
		<path class="st5" d="M64.4,367.9c1,1.9,0.3,4.1-1.6,5.1c-1.9,1-4.1,0.2-5.1-1.6c-1-1.9-0.3-4.1,1.6-5.1
			C61.3,365.3,63.4,366.1,64.4,367.9z M58.5,370.9c0.7,1.4,2.4,1.9,3.9,1.1c1.4-0.7,1.9-2.4,1.3-3.8c-0.7-1.4-2.3-1.9-3.8-1.2
			C58.3,367.9,57.8,369.6,58.5,370.9z"/>
		<path class="st5" d="M65.7,373.4c0.2-0.1,0.2-0.3,0.1-0.4l-0.3-0.5l0.7-0.4l0.5,0.9c0.3,0.5,0.2,0.9-0.3,1.1l-0.3,0.2
			c-0.2,0.1-0.5,0.2-0.5,0.2l0,0c0.7-0.1,2.1,0.1,3,1.6c0.9,1.6,0.3,2.6-1.2,3.4l-3,1.7c-0.2,0.1-0.2,0.3-0.1,0.4l0.3,0.5l-0.7,0.4
			l-0.5-0.9c-0.3-0.5-0.2-0.9,0.3-1.2l3-1.7c1-0.5,1.8-1.2,1.1-2.4c-0.6-1.1-1.8-1.6-3-1.3c-0.3,0.1-0.6,0.2-0.9,0.4l-3,1.7
			l-0.5-0.8L65.7,373.4z"/>
		<path class="st5" d="M70.5,384.8l0.2,0.3h0.1c1.3-0.8,1.4-1.5,0.8-2.6c-0.2-0.3-0.8-1.1-1.3-0.9l-0.4,0.2l-0.5-0.8l0.6-0.4
			c0.8-0.5,1.9,0.8,2.2,1.4c1.2,1.9,0.4,3-0.9,3.8l-2.9,1.8c-0.2,0.1-0.2,0.3-0.1,0.4l0.3,0.5l-0.7,0.4l-0.5-0.8
			c-0.3-0.5-0.2-0.9,0.3-1.2c0.3-0.2,0.5-0.3,0.5-0.3l0,0c0,0-1.6,0.3-2.6-1.2c-0.6-1-0.7-2.4,0.6-3.2
			C68.2,381.1,69.9,383.8,70.5,384.8z M66.4,385.2c0.7,1.2,2.4,1.1,3.4,0.5l0.3-0.2l-0.2-0.4c-0.6-1-1.8-2.9-3.1-2
			C66.1,383.5,65.8,384.3,66.4,385.2z"/>
		<path class="st5" d="M73.7,387.1c0.2-0.1,0.2-0.3,0.1-0.4l-0.3-0.5l0.7-0.5l0.6,0.8c0.3,0.5,0.3,0.9-0.2,1.2l-0.3,0.2
			c-0.2,0.2-0.4,0.3-0.4,0.3l0,0c1-0.2,2.3,0.2,2.9,1.1c0.7,1.1,0.6,2-0.3,2.8l0,0c1-0.2,2.3,0.2,2.9,1.2c1,1.4,0.5,2.5-1,3.5
			l-2.8,1.9c-0.2,0.1-0.2,0.3-0.1,0.4l0.3,0.5l-0.7,0.5l-0.6-0.8c-0.3-0.5-0.3-0.9,0.2-1.2l2.9-1.9c1-0.6,1.6-1.4,0.9-2.5
			c-0.6-0.9-1.9-1.1-2.9-0.8c-0.3,0.1-0.6,0.3-0.9,0.5l-2.8,1.9l-0.5-0.8l3.6-2.4c0.9-0.6,1.7-1.3,0.9-2.4c-0.6-1-2-1.1-3-0.8
			c-0.3,0.1-0.6,0.3-0.9,0.4l-2.8,1.9l-0.5-0.8L73.7,387.1z"/>
		<path class="st5" d="M81.1,397.9c0.2-0.1,0.2-0.3,0.1-0.4l-0.3-0.5l0.7-0.5l0.6,0.8c0.4,0.5,0.3,0.9-0.2,1.2l-4.2,3
			c-0.2,0.1-0.2,0.3-0.1,0.4l0.4,0.5l-0.7,0.5l-0.6-0.8c-0.4-0.5-0.3-0.9,0.2-1.2L81.1,397.9z M84.4,395.6l0.5,0.8l-1,0.7l-0.5-0.8
			L84.4,395.6z"/>
		<path class="st5" d="M85.9,402.1c1.2,1.6,0.6,3.3-0.8,4.4c-0.1,0.1-0.4,0.3-0.4,0.3l-3.3-4.4c-1.4,1.1-1.5,2.7-0.6,3.9
			c0.8,1,2,1.2,2,1.2l-0.3,0.8c0,0-1.4-0.2-2.4-1.5c-1.3-1.7-1-3.9,0.7-5.2C82.6,400.2,84.7,400.6,85.9,402.1z M84.7,405.5
			c1.1-0.9,1.2-2.1,0.5-2.9c-0.7-0.9-2-1.3-3.2-0.6L84.7,405.5z"/>
		<path class="st5" d="M87.7,406.7c0.2-0.1,0.2-0.3,0-0.4l-0.4-0.5l0.6-0.5l0.6,0.8c0.4,0.5,0.4,0.8-0.1,1.2l-0.3,0.2
			c-0.2,0.2-0.4,0.3-0.4,0.3l0,0c0.7-0.2,2.1-0.2,3.2,1.1c1.1,1.4,0.7,2.5-0.6,3.6l-2.6,2.2c-0.2,0.1-0.2,0.3,0,0.4l0.4,0.5
			l-0.6,0.5l-0.6-0.8c-0.4-0.5-0.4-0.8,0.1-1.2l2.6-2.2c0.9-0.7,1.5-1.5,0.7-2.5c-0.8-0.9-2.1-1.2-3.2-0.7c-0.3,0.1-0.6,0.3-0.8,0.5
			l-2.6,2.2l-0.6-0.7L87.7,406.7z"/>
		<path class="st5" d="M93.5,413.1l-0.6-0.7l0.6-0.5l0.6,0.7l1.5-1.3l0.6,0.7l-1.5,1.3l1.2,1.4l-0.6,0.5l-1.2-1.4l-2.7,2.4
			c-1.3,1.1-0.7,2-0.4,2.4c0.1,0.2,0.2,0.2,0.2,0.2l-0.7,0.6c0,0-0.1-0.1-0.3-0.3c-0.5-0.6-1.4-2.1,0.4-3.6L93.5,413.1z"/>
		<path class="st5" d="M99.2,418c1.4,1.5,1.4,3.9-0.2,5.3c-1.6,1.5-3.9,1.3-5.3-0.2c-1.4-1.5-1.4-3.9,0.2-5.3
			C95.5,416.3,97.8,416.5,99.2,418z M94.3,422.5c1,1.1,2.8,1.2,4,0.1s1.2-2.8,0.2-4c-1-1.1-2.8-1.2-4-0.1
			C93.4,419.6,93.3,421.4,94.3,422.5z"/>
	</g>
	<g class="texto produccion">
		<path class="st5" d="M88.7,109.7l-0.6,0.7l-0.7-0.6l2.8-3.1c1.2-1.3,2.9-1.5,4.3-0.3c1.4,1.2,1.4,3,0.2,4.3l-1.5,1.7l2.9,2.6
			l-0.7,0.7L88.7,109.7z M94,110.2c0.9-1,0.9-2.2-0.1-3.1s-2.2-0.8-3,0.2l-1.5,1.6l3.2,2.9L94,110.2z"/>
		<path class="st5" d="M96.4,105.9c-0.1-0.1-0.3-0.1-0.4,0l-0.4,0.4l-0.6-0.6l0.7-0.7c0.4-0.4,0.8-0.5,1.2-0.1l0.3,0.3
			c0.2,0.2,0.4,0.4,0.4,0.4l0,0c-0.5-1-0.6-2.1,0.2-2.9c0.1-0.1,0.3-0.2,0.3-0.2l0.7,0.7c0,0-0.1,0.1-0.3,0.2
			c-0.7,0.7-0.6,1.8-0.1,2.8c0.2,0.4,0.5,0.8,0.9,1.1l2.2,2.1l-0.7,0.7L96.4,105.9z"/>
		<path class="st5" d="M101.1,99.2c1.5-1.5,3.8-1.5,5.3,0s1.4,3.9,0,5.3c-1.5,1.5-3.8,1.5-5.3,0C99.6,102.9,99.7,100.6,101.1,99.2z
			 M105.8,103.9c1.1-1.1,1.1-2.8-0.1-4c-1.1-1.2-2.9-1.1-4-0.1c-1.1,1.1-1.1,2.8,0,4C102.9,104.9,104.7,104.9,105.8,103.9z"/>
		<path class="st5" d="M107.2,93.4c1.3-1.2,2.6-0.6,2.6-0.6l0,0c0,0-0.2-0.2-0.4-0.4l-1.6-1.7c-0.1-0.1-0.3-0.2-0.4,0l-0.4,0.4
			l-0.6-0.6l0.7-0.7c0.5-0.4,0.8-0.4,1.2,0.1l5.4,5.9c0.1,0.2,0.3,0.2,0.4,0l0.4-0.4l0.6,0.6l-0.7,0.7c-0.4,0.4-0.8,0.4-1.2,0
			c-0.2-0.2-0.3-0.4-0.3-0.4l0,0c0,0,0.5,1.4-0.9,2.7c-1.4,1.3-3.3,1-4.8-0.7C105.8,96.7,105.8,94.7,107.2,93.4z M111.4,94.6
			c-1-1.1-2.5-1.6-3.6-0.6c-0.9,0.9-1,2.3,0.2,3.7c1.2,1.3,2.6,1.5,3.6,0.6C112.6,97.5,112.8,96.1,111.4,94.6z"/>
		<path class="st5" d="M112.4,90.5c-0.1-0.2-0.3-0.2-0.4,0l-0.5,0.4l-0.5-0.6l0.8-0.7c0.5-0.4,0.8-0.4,1.2,0.1l2.2,2.6
			c0.7,0.9,1.5,1.5,2.6,0.6c1.2-1,1.1-2.8,0.1-4l-2.2-2.6l0.7-0.6l3.9,4.6c0.1,0.2,0.3,0.2,0.4,0l0.5-0.4l0.5,0.6l-0.7,0.6
			c-0.5,0.4-0.8,0.4-1.2,0l-0.2-0.2c-0.2-0.2-0.3-0.4-0.3-0.4l0,0c0.2,0.7,0.2,2.2-1,3.2c-1.3,1.1-2.4,0.9-3.6-0.6L112.4,90.5z"/>
		<path class="st5" d="M120.8,81.9c0.6-0.5,2.2-1.3,2.9-0.4l0.4,0.5l-0.7,0.6l-0.3-0.3c-0.4-0.5-1.4-0.1-1.8,0.3
			c-1.2,1-1.5,2.6-0.4,4s2.8,1.4,4,0.5c1.1-0.9,1.2-2.2,1.2-2.2l0.8,0.3c0,0,0,1.5-1.5,2.6c-1.7,1.3-3.9,1.1-5.3-0.6
			C118.8,85.5,119.1,83.2,120.8,81.9z"/>
		<path class="st5" d="M126.9,77.3c0.7-0.5,2.2-1.2,2.9-0.3l0.4,0.5l-0.7,0.5l-0.2-0.3c-0.4-0.5-1.4-0.1-1.8,0.3
			c-1.2,0.9-1.5,2.6-0.5,4s2.7,1.5,3.9,0.6c1.2-0.9,1.3-2.2,1.3-2.2l0.8,0.3c0,0-0.1,1.5-1.6,2.6c-1.7,1.3-3.9,1-5.2-0.8
			C124.8,80.8,125.2,78.5,126.9,77.3z"/>
		<path class="st5" d="M129.1,72.4l0.8-0.5l0.7,1l-0.8,0.5L129.1,72.4z M131.4,75.7c-0.1-0.2-0.3-0.2-0.4-0.1l-0.5,0.3l-0.5-0.7
			l0.8-0.6c0.5-0.3,0.9-0.3,1.2,0.2l2.9,4.2c0.1,0.2,0.3,0.2,0.4,0.1l0.5-0.3l0.5,0.7l-0.8,0.6c-0.5,0.3-0.9,0.3-1.2-0.2L131.4,75.7
			z"/>
		<path class="st5" d="M136.1,70.8c1.7-1.2,4-0.8,5.2,1c1.2,1.8,0.7,4.1-1.1,5.2c-1.7,1.2-4,0.7-5.2-1.1
			C133.9,74.2,134.4,72,136.1,70.8z M135.2,68.3l0.9-0.6l-0.1,2.1l-0.7,0.5L135.2,68.3z M139.8,76.3c1.3-0.8,1.6-2.6,0.7-4
			s-2.6-1.7-3.9-0.8c-1.3,0.8-1.7,2.5-0.8,3.9C136.8,76.8,138.5,77.2,139.8,76.3z"/>
		<path class="st5" d="M141.7,68.8c-0.1-0.2-0.3-0.2-0.4-0.1l-0.5,0.3l-0.4-0.7l0.9-0.5c0.5-0.3,0.9-0.2,1.2,0.2l0.2,0.3
			c0.1,0.2,0.2,0.5,0.2,0.5l0,0c-0.1-0.7,0.1-2.1,1.5-3c1.5-0.9,2.6-0.4,3.5,1.1l1.8,2.9c0.1,0.2,0.3,0.2,0.4,0.1l0.5-0.3l0.4,0.7
			l-0.9,0.5c-0.5,0.3-0.9,0.2-1.2-0.3l-1.8-2.9c-0.6-1-1.2-1.7-2.4-1c-1,0.6-1.5,1.9-1.2,3.1c0.1,0.3,0.2,0.6,0.4,0.9l1.8,2.9
			l-0.8,0.5L141.7,68.8z"/>
	</g>
	<g class="texto logistica-produccion">
		<path class="st5" d="M37.2,267.5c0-1.7,1.3-2.3,1.3-2.3l0,0c0,0-0.2,0-0.5,0h-2.3c-0.2,0-0.3,0.1-0.3,0.3v0.6h-0.8v-1
			c0-0.6,0.2-0.9,0.9-0.9l8-0.1c0.2,0,0.3-0.1,0.3-0.3v-0.6h0.8v1c0,0.6-0.3,0.9-0.8,0.9c-0.3,0-0.5,0-0.5,0l0,0
			c0,0,1.4,0.6,1.4,2.4c0,1.9-1.5,3.1-3.7,3.1C38.7,270.7,37.2,269.4,37.2,267.5z M40.9,265.1c-1.4,0-2.9,0.8-2.9,2.3
			c0,1.3,1.1,2.3,2.9,2.3c1.8,0,2.9-0.9,2.9-2.3C43.8,266.2,42.9,265.1,40.9,265.1z"/>
		<path class="st5" d="M37.3,258.7c0.1-2,1.6-3,3.4-2.9c0.2,0,0.5,0,0.5,0l-0.2,5.5c1.8,0,2.9-1.2,2.9-2.7c0-1.3-0.8-2.2-0.8-2.2
			l0.7-0.4c0,0,1,1.1,0.9,2.7c-0.1,2.1-1.6,3.7-3.8,3.6C38.6,262.2,37.2,260.6,37.3,258.7z M40.4,256.8c-1.5,0-2.2,0.9-2.3,2
			c0,1.2,0.7,2.2,2.1,2.5L40.4,256.8z"/>
		<path class="st5" d="M39,249.7c-0.2,0-0.3,0.1-0.3,0.3v0.6l-0.8-0.1l0.1-1c0-0.6,0.3-0.8,0.8-0.8c0.3,0,0.5,0.1,0.5,0.1l0,0
			c0,0-1.4-0.7-1.2-2.6c0.2-1.9,1.8-3,4-2.8c2.3,0.2,3.6,1.7,3.5,3.5c-0.1,1.7-1.5,2.2-1.5,2.2l0,0c0,0,0.3,0,0.6,0l3.4,0.3l-0.1,1
			L39,249.7z M44.6,246.9c0.1-1.3-0.9-2.4-2.7-2.5c-1.7-0.1-2.9,0.7-3,2c-0.1,1.2,0.7,2.4,2.7,2.5C43,249.1,44.5,248.4,44.6,246.9z"
			/>
		<path class="st5" d="M39.8,241.3c-0.2,0-0.3,0.1-0.3,0.3l-0.1,0.6l-0.8-0.1l0.1-1c0.1-0.6,0.3-0.8,0.9-0.8l0.5,0.1
			c0.3,0,0.5,0.1,0.5,0.1l0,0c-1-0.5-1.8-1.3-1.6-2.5c0-0.2,0.1-0.4,0.1-0.4l0.9,0.1c0,0,0,0.2-0.1,0.3c-0.1,1,0.6,1.8,1.6,2.3
			c0.4,0.2,0.9,0.3,1.4,0.4l3,0.3l-0.1,1L39.8,241.3z"/>
		<path class="st5" d="M39.5,233.1c0.3-2.1,2.1-3.5,4.2-3.2c2.1,0.3,3.5,2.2,3.2,4.3s-2.1,3.5-4.3,3.2
			C40.5,237.1,39.2,235.2,39.5,233.1z M46.1,234.1c0.2-1.5-0.8-2.9-2.5-3.2c-1.6-0.2-3,0.8-3.2,2.3s0.8,2.9,2.4,3.2
			C44.4,236.6,45.8,235.6,46.1,234.1z"/>
		<path class="st5" d="M40.8,224.9c0.3-1.7,1.7-2,1.7-2l0,0c0,0-0.2,0-0.5-0.1l-2.3-0.4c-0.2,0-0.3,0.1-0.4,0.3l-0.1,0.6l-0.8-0.2
			l0.2-1c0.1-0.6,0.4-0.8,1-0.7l7.8,1.4c0.2,0,0.3-0.1,0.4-0.3l0.1-0.6l0.8,0.2l-0.2,1c-0.1,0.6-0.4,0.8-0.9,0.7
			c-0.3,0-0.4-0.1-0.4-0.1l0,0c0,0,1.3,0.8,1,2.7s-2.1,2.8-4.3,2.4C41.7,228.3,40.5,226.7,40.8,224.9z M44.9,223.2
			c-1.4-0.3-3,0.2-3.2,1.7c-0.2,1.2,0.6,2.5,2.4,2.8c1.7,0.3,3-0.4,3.2-1.7C47.6,224.9,46.9,223.6,44.9,223.2z"/>
		<path class="st5" d="M43.3,219.4c-0.2,0-0.3,0-0.4,0.2l-0.1,0.6L42,220l0.2-1c0.1-0.6,0.4-0.8,1-0.7l3.4,0.8
			c1.1,0.2,2.1,0.3,2.4-1.1c0.4-1.6-0.8-2.9-2.3-3.2l-3.3-0.7l0.2-0.9l5.9,1.3c0.2,0,0.3,0,0.4-0.2l0.1-0.6l0.8,0.2l-0.2,1
			c-0.1,0.6-0.4,0.8-1,0.7l-0.3-0.1c-0.3-0.1-0.5-0.1-0.5-0.1l0,0c0.6,0.4,1.5,1.6,1.2,3.1c-0.4,1.6-1.4,2.1-3.2,1.7L43.3,219.4z"/>
		<path class="st5" d="M44.7,207.5c0.2-0.8,1-2.4,2.1-2.1l0.6,0.2l-0.2,0.9l-0.4-0.1c-0.6-0.2-1.1,0.8-1.3,1.4
			c-0.4,1.5,0.4,3,2.1,3.4c1.7,0.4,3.1-0.5,3.5-2c0.4-1.4-0.4-2.5-0.4-2.5l0.8-0.3c0,0,0.9,1.2,0.4,3c-0.5,2.1-2.4,3.2-4.6,2.7
			C45.3,211.5,44.2,209.6,44.7,207.5z"/>
		<path class="st5" d="M46.8,200.1c0.2-0.8,1.1-2.3,2.2-2l0.6,0.2l-0.3,0.9l-0.4-0.1c-0.6-0.2-1.1,0.7-1.3,1.3c-0.4,1.5,0.3,3,2,3.5
			s3.1-0.4,3.5-1.9c0.4-1.4-0.3-2.5-0.3-2.5l0.8-0.2c0,0,0.8,1.3,0.3,3c-0.6,2-2.5,3.2-4.7,2.5C47.2,204.2,46.2,202.2,46.8,200.1z"
			/>
		<path class="st5" d="M45.6,195l0.3-0.9l1.2,0.4l-0.3,0.9L45.6,195z M49.4,196.2c-0.2-0.1-0.3,0-0.4,0.2l-0.2,0.6l-0.8-0.3l0.3-1
			c0.2-0.6,0.5-0.7,1.1-0.6l4.9,1.6c0.2,0.1,0.3,0,0.4-0.2l0.2-0.6l0.8,0.3l-0.3,1c-0.2,0.6-0.5,0.7-1.1,0.6L49.4,196.2z"/>
		<path class="st5" d="M48,188l0.4-1l1.2,1.7l-0.3,0.8L48,188z M50.3,189.4c0.7-2,2.7-3.1,4.7-2.4c2,0.7,3,2.8,2.3,4.8
			s-2.8,3-4.8,2.3C50.6,193.5,49.6,191.4,50.3,189.4z M56.6,191.6c0.5-1.4-0.3-3-1.8-3.6c-1.5-0.5-3.1,0.3-3.6,1.7
			c-0.5,1.5,0.2,3,1.8,3.6C54.5,193.8,56.1,193,56.6,191.6z"/>
		<path class="st5" d="M53.5,184.5c-0.2-0.1-0.3,0-0.4,0.2l-0.2,0.6l-0.8-0.3l0.4-0.9c0.2-0.6,0.6-0.7,1.1-0.5l0.3,0.1
			c0.3,0.1,0.5,0.2,0.5,0.2l0,0c-0.5-0.5-1.2-1.7-0.6-3.3c0.7-1.7,1.8-1.9,3.5-1.2l3.2,1.3c0.2,0.1,0.3,0,0.4-0.2l0.2-0.6l0.8,0.3
			l-0.4,0.9c-0.2,0.6-0.6,0.7-1.1,0.5l-3.2-1.3c-1-0.4-2-0.6-2.5,0.7c-0.5,1.1-0.1,2.4,0.9,3.2c0.2,0.2,0.5,0.3,0.9,0.5l3.2,1.3
			l-0.4,0.9L53.5,184.5z"/>
	</g>
	<g class="texto logistica-produccion">
		<path class="st5" d="M18.7,272c-0.2,0-0.3,0.1-0.3,0.3v0.6h-0.9v-1.1c0-0.6,0.2-0.9,0.9-0.9l7.9-0.1c0.2,0,0.3-0.1,0.3-0.3
			l-0.1-3.3c0-0.2-0.1-0.3-0.3-0.3h-0.7V266h1c0.6,0,0.9,0.2,0.9,0.8l0.1,4.1c0,0.6-0.2,0.9-0.8,0.9L18.7,272z"/>
		<path class="st5" d="M20.1,261.7c0-2.1,1.6-3.8,3.8-3.7c2.2,0,3.7,1.7,3.7,3.8s-1.7,3.8-3.8,3.7C21.7,265.5,20.1,263.7,20.1,261.7
			z M26.7,261.8c0-1.5-1.2-2.8-2.9-2.8c-1.6,0-2.8,1.2-2.9,2.7c0,1.5,1.2,2.8,2.8,2.8C25.5,264.5,26.7,263.3,26.7,261.8z"/>
		<path class="st5" d="M20.4,253.4c0.1-1.9,1.3-2.3,1.3-2.3l0,0c0,0-0.1,0-0.3,0c-0.5,0-0.8-0.3-0.7-0.8l0.1-1h0.8v0.6
			c0,0.2,0.1,0.3,0.3,0.3l5.8,0.3c2.3,0.1,3.1,1.8,3,3.6c0,0.8-0.3,1.6-0.7,2.3l-0.8-0.4c0,0,0.5-0.9,0.6-1.9
			c0.1-1.4-0.5-2.5-2.1-2.6h-0.6c-0.3,0-0.5,0-0.5,0l0,0c0.8,0.5,1.2,1.2,1.1,2.3c-0.1,1.9-1.7,3.1-3.8,3
			C21.7,256.6,20.3,255.4,20.4,253.4z M24.1,251.3c-2.1-0.1-2.8,0.9-2.8,2.1c-0.1,1.4,0.9,2.2,2.6,2.3c1.7,0.1,2.9-0.8,2.9-2.2
			C26.9,252.4,26.2,251.4,24.1,251.3z"/>
		<path class="st5" d="M18.2,246.3l0.1-1.1l1.6,1.4l-0.1,0.8L18.2,246.3z M22.1,247.6c-0.2,0-0.3,0.1-0.3,0.3v0.6l-0.8-0.1l0.1-1
			c0-0.6,0.3-0.8,0.9-0.8l5.1,0.4c0.2,0,0.3-0.1,0.3-0.3v-0.6l0.8,0.1l-0.1,1c0,0.6-0.3,0.8-0.9,0.8L22.1,247.6z"/>
		<path class="st5" d="M26.6,244.7c0,0,1.2-0.7,1.3-2.1c0.1-0.8-0.2-1.5-1-1.6c-1.6-0.2-1.7,3.9-3.9,3.6c-1.3-0.1-1.8-1.3-1.7-2.7
			c0.1-0.7,0.5-2.1,1.5-2l0.6,0.1l-0.1,0.9H23c-0.5-0.1-0.8,0.7-0.8,1.2c-0.1,1,0.2,1.6,0.9,1.7c1.6,0.2,1.6-3.9,4-3.6
			c1.2,0.1,1.9,1.3,1.8,2.7c-0.2,1.9-1.5,2.6-1.5,2.6L26.6,244.7z"/>
		<path class="st5" d="M22.7,237.6l-0.1,0.9l-0.8-0.1l0.1-0.9l-2-0.2l0.1-0.9l2,0.2l0.2-1.8l0.8,0.1l-0.2,1.8l3.6,0.4
			c1.7,0.2,2-0.8,2.1-1.4c0-0.2,0-0.3,0-0.3l0.9,0.1c0,0,0,0.2,0,0.4c-0.1,0.8-0.6,2.4-2.9,2.2L22.7,237.6z"/>
		<path class="st5" d="M19.7,232.3l0.1-0.9l1.2,0.2l-0.1,0.9L19.7,232.3z M23.6,232.9c-0.2,0-0.3,0.1-0.4,0.3l-0.1,0.6l-0.8-0.1
			l0.1-1c0.1-0.6,0.4-0.8,1-0.7l5.1,0.7c0.2,0,0.3-0.1,0.4-0.3l0.1-0.6l0.8,0.1l-0.1,1c-0.1,0.6-0.4,0.8-1,0.7L23.6,232.9z"/>
		<path class="st5" d="M23.3,226.1c0.1-0.8,0.7-2.5,1.9-2.3l0.6,0.1l-0.1,0.9l-0.4-0.1c-0.6-0.1-1,0.9-1.1,1.5
			c-0.2,1.5,0.7,2.9,2.4,3.2s3-0.8,3.3-2.3c0.2-1.4-0.6-2.4-0.6-2.4l0.8-0.3c0,0,1,1.1,0.7,2.9c-0.3,2.1-2.1,3.5-4.3,3.1
			C24.3,230,23,228.2,23.3,226.1z"/>
		<path class="st5" d="M27.6,218.5l0.1-0.4h-0.1c-1.5-0.3-2.1,0.1-2.3,1.4c-0.1,0.3-0.2,1.4,0.3,1.5l0.4,0.1l-0.2,0.9l-0.7-0.1
			c-1-0.2-0.9-1.9-0.7-2.5c0.4-2.2,1.7-2.5,3.2-2.2l3.4,0.7c0.2,0,0.3-0.1,0.4-0.2l0.1-0.6l0.8,0.2l-0.2,1c-0.1,0.6-0.4,0.8-1,0.7
			c-0.3-0.1-0.5-0.1-0.5-0.1l0,0c0,0,1.4,0.9,1.1,2.6c-0.2,1.2-1.1,2.3-2.5,2C26.9,222.8,27.4,219.7,27.6,218.5z M31,221
			c0.3-1.3-1-2.4-2.2-2.7l-0.3-0.1l-0.1,0.4c-0.2,1.1-0.6,3.3,1,3.6C30,222.4,30.8,222,31,221z"/>
		<path class="st5" d="M27.7,210.5c-0.2,0-0.3,0-0.4,0.2l-0.1,0.6l-0.8-0.2l0.2-1c0.1-0.6,0.5-0.8,0.9-0.6c0.3,0.1,0.5,0.1,0.5,0.1
			l0,0c0,0-1.2-0.9-0.8-2.7c0.5-1.9,2.2-2.7,4.4-2.1c2.2,0.5,3.3,2.2,2.9,4c-0.4,1.7-1.9,2-1.9,2l0,0c0,0,0.3,0,0.6,0.1l3.3,0.8
			l-0.2,0.9L27.7,210.5z M33.6,208.6c0.3-1.2-0.5-2.5-2.3-2.9c-1.7-0.4-3,0.2-3.3,1.5c-0.3,1.2,0.3,2.5,2.2,2.9
			C31.7,210.5,33.3,210.1,33.6,208.6z"/>
		<path class="st5" d="M27,201.8c-0.2-0.1-0.3,0-0.4,0.2l-0.2,0.6l-0.8-0.2l0.3-1c0.2-0.6,0.5-0.8,1.1-0.6l7.7,2.1
			c0.2,0.1,0.3,0,0.4-0.2l0.2-0.6l0.8,0.2l-0.3,1c-0.2,0.6-0.5,0.8-1.1,0.6L27,201.8z"/>
		<path class="st5" d="M33.3,195.9l0.1-0.4h-0.1c-1.4-0.4-2.1-0.1-2.5,1.2c-0.1,0.3-0.3,1.4,0.2,1.5l0.4,0.1l-0.3,0.9l-0.7-0.2
			c-1-0.3-0.7-2-0.5-2.6c0.6-2.2,2-2.3,3.4-1.9l3.3,1c0.2,0.1,0.3,0,0.4-0.2l0.2-0.6l0.8,0.2l-0.3,0.9c-0.2,0.6-0.5,0.7-1.1,0.6
			c-0.3-0.1-0.5-0.2-0.5-0.2l0,0c0,0,1.3,1,0.8,2.7c-0.3,1.1-1.4,2.1-2.7,1.7C32.1,200.1,32.9,197.1,33.3,195.9z M36.4,198.7
			c0.4-1.3-0.7-2.5-1.9-2.9l-0.3-0.1l-0.1,0.4c-0.3,1.1-0.9,3.2,0.6,3.7C35.3,200,36.1,199.7,36.4,198.7z"/>
		<path class="st5" d="M32.9,191.7c-0.2-0.1-0.3,0-0.4,0.2l-0.2,0.6l-0.8-0.3l0.3-0.9c0.2-0.6,0.5-0.7,1-0.6l0.3,0.1
			c0.3,0.1,0.5,0.2,0.5,0.2l0,0c-0.5-0.4-1.3-1.7-0.8-3.3c0.6-1.7,1.7-2,3.4-1.4l3.2,1.1c0.2,0.1,0.3,0,0.4-0.2l0.2-0.6l0.8,0.3
			l-0.3,1c-0.2,0.6-0.5,0.7-1.1,0.5l-3.2-1.1c-1.1-0.4-2.1-0.5-2.5,0.8c-0.4,1.2,0.1,2.4,1.1,3.1c0.3,0.2,0.6,0.3,0.9,0.4l3.2,1.1
			l-0.3,0.9L32.9,191.7z"/>
		<path class="st5" d="M35.4,183.3l-0.3,0.9l-0.8-0.3l0.3-0.9l-1.9-0.6l0.3-0.9l1.9,0.6l0.6-1.7l0.8,0.3l-0.6,1.7l3.4,1.2
			c1.6,0.5,2.1-0.4,2.3-0.9c0.1-0.2,0.1-0.3,0.1-0.3l0.8,0.3c0,0,0,0.2-0.1,0.4c-0.3,0.8-1.1,2.3-3.3,1.5L35.4,183.3z"/>
		<path class="st5" d="M40.2,176.1l0.1-0.4h-0.1c-1.4-0.5-2.1-0.2-2.6,1c-0.1,0.3-0.4,1.3,0.1,1.5l0.4,0.2l-0.3,0.9l-0.6-0.2
			c-0.9-0.4-0.5-2-0.3-2.6c0.8-2.1,2.1-2.2,3.6-1.6l3.2,1.2c0.2,0.1,0.3,0,0.4-0.2l0.2-0.6l0.8,0.3l-0.4,0.9
			c-0.2,0.6-0.6,0.7-1.1,0.5c-0.3-0.1-0.5-0.2-0.5-0.2l0,0c0,0,1.2,1.1,0.6,2.8c-0.4,1.1-1.5,2-2.9,1.5
			C38.7,180.2,39.7,177.3,40.2,176.1z M43,179.1c0.5-1.3-0.5-2.6-1.7-3L41,176l-0.2,0.4c-0.4,1-1.2,3.1,0.3,3.7
			C41.8,180.4,42.6,180.1,43,179.1z"/>
		<path class="st5" d="M44,173.8c0,0,1.3-0.3,1.9-1.6c0.3-0.7,0.2-1.5-0.5-1.8c-1.4-0.6-2.7,3.2-4.9,2.3c-1.2-0.5-1.3-1.8-0.8-3.1
			c0.3-0.7,1.1-1.9,2-1.5l0.6,0.2l-0.4,0.8l-0.3-0.1c-0.5-0.2-1,0.4-1.1,0.9c-0.4,0.9-0.3,1.6,0.3,1.9c1.5,0.6,2.7-3.2,4.9-2.3
			c1.1,0.5,1.4,1.8,0.9,3.1c-0.7,1.7-2.2,2-2.2,2L44,173.8z"/>
	</g>
	<g class="texto logistica-larga">
		<path class="st5" d="M221.3,40.3c0-0.2-0.2-0.3-0.4-0.2l-0.6,0.1l-0.2-0.8l1-0.2c0.6-0.1,0.9,0.1,1,0.7l1.5,7.8
			c0,0.2,0.2,0.3,0.4,0.2l0.6-0.1l0.2,0.8l-1,0.2c-0.6,0.1-0.9-0.1-1-0.7L221.3,40.3z"/>
		<path class="st5" d="M229.3,43.4l0.4-0.1v-0.1c-0.2-1.5-0.9-1.9-2.2-1.7c-0.4,0.1-1.4,0.3-1.3,0.8l0.1,0.4l-0.9,0.2l-0.1-0.7
			c-0.2-1,1.5-1.5,2.1-1.6c2.2-0.4,3,0.7,3.2,2.2l0.6,3.4c0,0.2,0.2,0.3,0.4,0.3l0.6-0.1l0.1,0.8l-1,0.2c-0.6,0.1-0.9-0.1-1-0.7
			c-0.1-0.3-0.1-0.5-0.1-0.5l0,0c0,0-0.3,1.6-2.1,1.9c-1.2,0.2-2.5-0.3-2.7-1.7C225,44.2,228,43.6,229.3,43.4z M228.1,47.4
			c1.3-0.2,1.9-1.8,1.7-3l-0.1-0.3l-0.4,0.1c-1.1,0.2-3.3,0.6-3,2.2C226.4,47,227.1,47.6,228.1,47.4z"/>
		<path class="st5" d="M232.9,41.2c0-0.2-0.2-0.3-0.4-0.3l-0.6,0.1l-0.1-0.8l1-0.1c0.6-0.1,0.9,0.1,1,0.7l0.1,0.5c0,0.3,0,0.5,0,0.5
			l0,0c0.2-1.1,0.9-2,2-2.2c0.2,0,0.4,0,0.4,0l0.1,0.9c0,0-0.2,0-0.4,0c-1,0.1-1.6,1-1.8,2.1c-0.1,0.5-0.1,1,0,1.4l0.4,3l-1,0.1
			L232.9,41.2z"/>
		<path class="st5" d="M240.1,39c1.9-0.2,2.5,1,2.5,1l0,0c0,0,0-0.1,0-0.3c-0.1-0.5,0.1-0.8,0.7-0.9l1-0.1l0.1,0.8l-0.6,0.1
			c-0.2,0-0.3,0.1-0.3,0.3l0.6,5.8c0.2,2.3-1.3,3.3-3.1,3.5c-0.8,0.1-1.6,0-2.4-0.3l0.3-0.8c0,0,0.9,0.4,2,0.3
			c1.4-0.1,2.4-0.9,2.2-2.5l-0.1-0.6c0-0.3,0-0.5,0-0.5l0,0c-0.3,0.8-1,1.4-2.1,1.5c-1.9,0.2-3.3-1.2-3.6-3.3
			C237.2,40.8,238.2,39.2,240.1,39z M242.8,42.3c-0.2-2.1-1.3-2.6-2.5-2.5c-1.4,0.1-2.1,1.2-1.9,2.9c0.2,1.7,1.2,2.7,2.6,2.5
			C242.1,45.2,243.1,44.4,242.8,42.3z"/>
		<path class="st5" d="M249.9,41h0.4v-0.1c-0.1-1.5-0.7-2-2-1.9c-0.4,0-1.4,0.2-1.3,0.7v0.5l-0.9,0.1v-0.7c-0.1-1,1.6-1.3,2.2-1.4
			c2.3-0.2,2.9,1,3,2.5l0.2,3.4c0,0.2,0.1,0.3,0.3,0.3h0.6l0.1,0.8l-1,0.1c-0.6,0-0.9-0.2-0.9-0.8c0-0.3,0-0.5,0-0.5l0,0
			c0,0-0.5,1.6-2.3,1.7c-1.2,0.1-2.5-0.5-2.6-1.9C245.5,41.4,248.7,41.1,249.9,41z M248.4,44.9c1.4-0.1,2.1-1.6,2-2.8v-0.3H250
			c-1.1,0.1-3.4,0.3-3.2,1.9C246.8,44.3,247.3,45,248.4,44.9z"/>
		<path class="st5" d="M260.2,37.7c1.7,0,2.4,1.3,2.4,1.3l0,0c0,0,0-0.2,0-0.5v-2.3c0-0.2-0.1-0.3-0.3-0.3h-0.6v-0.8h1
			c0.6,0,0.9,0.2,0.9,0.8l0.2,8c0,0.2,0.1,0.3,0.3,0.3h0.6V45h-1c-0.6,0-0.9-0.3-0.9-0.8c0-0.3,0-0.5,0-0.5l0,0c0,0-0.6,1.4-2.4,1.5
			c-1.9,0-3.1-1.5-3.2-3.7C257,39.2,258.3,37.7,260.2,37.7z M262.6,41.3c0-1.4-0.8-2.9-2.3-2.8c-1.3,0-2.3,1.1-2.2,2.9
			c0,1.8,1,2.9,2.3,2.8C261.5,44.2,262.6,43.4,262.6,41.3z"/>
		<path class="st5" d="M266.2,38.9c0-0.2-0.1-0.3-0.3-0.3h-0.6v-0.8h1c0.6,0,0.9,0.3,0.9,0.9v5.1c0,0.2,0.1,0.3,0.3,0.3h0.6v0.8h-1
			c-0.6,0-0.9-0.3-0.9-0.9V38.9z M266.2,34.9h0.9v1.2h-0.9V34.9z"/>
		<path class="st5" d="M269.3,43.2c0,0,0.8,1.1,2.2,1.1c0.8,0,1.5-0.3,1.5-1.1c0-1.6-4-1.4-3.9-3.7c0-1.3,1.2-1.9,2.6-1.9
			c0.7,0,2.2,0.3,2.1,1.4v0.6h-0.9v-0.3c0-0.5-0.7-0.7-1.2-0.8c-1,0-1.6,0.3-1.6,1c0,1.6,4,1.3,3.9,3.7c0,1.2-1.1,2-2.6,1.9
			c-1.9-0.1-2.7-1.3-2.7-1.3L269.3,43.2z"/>
		<path class="st5" d="M276.2,38.9l-0.9-0.1V38l1,0.1l0.1-2l0.9,0.1l-0.1,2l1.8,0.1v0.8l-1.8-0.1l-0.2,3.6c-0.1,1.7,1,1.9,1.5,2
			c0.2,0,0.3,0,0.3,0v0.9c0,0-0.2,0-0.4,0c-0.8,0-2.5-0.4-2.3-2.8L276.2,38.9z"/>
		<path class="st5" d="M284.4,41.4h0.4v-0.1c0.1-1.5-0.4-2.1-1.7-2.2c-0.4,0-1.4,0-1.4,0.5v0.5l-0.9-0.1l0.1-0.7
			c0.1-1,1.8-1.1,2.4-1c2.2,0.2,2.7,1.4,2.6,3l-0.3,3.4c0,0.2,0.1,0.3,0.3,0.3h0.6l-0.1,0.8l-1-0.1c-0.6,0-0.8-0.3-0.8-0.9
			c0-0.3,0.1-0.5,0.1-0.5l0,0c0,0-0.7,1.5-2.5,1.3c-1.2-0.1-2.4-0.9-2.2-2.3C280,41.1,283.2,41.3,284.4,41.4z M282.3,44.9
			c1.4,0.1,2.3-1.2,2.4-2.5v-0.3h-0.4c-1.1-0.1-3.4-0.2-3.5,1.4C280.8,44.1,281.3,44.9,282.3,44.9z"/>
		<path class="st5" d="M288.5,40.1c0-0.2-0.1-0.3-0.3-0.3l-0.6-0.1l0.1-0.8l1,0.1c0.6,0.1,0.8,0.4,0.8,0.9v0.3
			c0,0.3-0.1,0.5-0.1,0.5l0,0c0.3-0.6,1.4-1.7,3-1.5c1.8,0.2,2.3,1.3,2.1,3l-0.4,3.4c0,0.2,0.1,0.3,0.3,0.3L295,46l-0.1,0.8l-1-0.1
			c-0.6-0.1-0.8-0.4-0.8-1l0.4-3.4c0.1-1.1,0.1-2.1-1.3-2.3c-1.2-0.1-2.4,0.6-2.8,1.7c-0.1,0.3-0.2,0.6-0.2,0.9l-0.4,3.4l-1-0.1
			L288.5,40.1z"/>
		<path class="st5" d="M300.4,40.4c0.8,0.1,2.5,0.7,2.3,1.9l-0.1,0.6l-0.9-0.1l0.1-0.4c0.1-0.6-0.9-1-1.5-1.1
			c-1.5-0.2-2.9,0.7-3.2,2.4c-0.3,1.7,0.8,3,2.3,3.3c1.4,0.2,2.4-0.6,2.4-0.6l0.3,0.8c0,0-1.1,1-2.9,0.7c-2.1-0.3-3.5-2.1-3.1-4.3
			C296.4,41.4,298.3,40.1,300.4,40.4z"/>
		<path class="st5" d="M304.7,42.4c0-0.2-0.1-0.3-0.3-0.4l-0.6-0.1l0.1-0.8l1,0.2c0.6,0.1,0.8,0.4,0.7,1l-0.9,5
			c0,0.2,0.1,0.3,0.3,0.4l0.6,0.1l-0.2,0.8l-1-0.2c-0.6-0.1-0.8-0.4-0.7-1L304.7,42.4z M305.4,38.5l0.9,0.2l-0.2,1.2l-0.9-0.2
			L305.4,38.5z"/>
		<path class="st5" d="M311.5,45.4l0.4,0.1v-0.1c0.3-1.5-0.1-2.1-1.4-2.3c-0.3-0.1-1.4-0.2-1.5,0.3l-0.1,0.4l-0.8-0.2l0.1-0.7
			c0.2-1,1.9-0.8,2.5-0.7c2.2,0.5,2.5,1.7,2.2,3.2l-0.7,3.4c0,0.2,0,0.3,0.2,0.4l0.6,0.1l-0.2,0.8l-1-0.2c-0.6-0.1-0.8-0.4-0.7-1
			c0.1-0.3,0.1-0.5,0.1-0.5l0,0c0,0-0.9,1.4-2.6,1c-1.2-0.2-2.2-1.2-1.9-2.6C307.2,44.6,310.3,45.2,311.5,45.4z M309,48.7
			c1.3,0.3,2.4-0.9,2.7-2.2l0.1-0.3l-0.4-0.1c-1.1-0.2-3.3-0.7-3.6,0.9C307.6,47.7,308,48.5,309,48.7z"/>
	</g>
	<g class="texto logistica-larga">
		<path class="st5" d="M236.5,20.7c0-0.2-0.1-0.3-0.3-0.3l-0.6,0.1l-0.2-0.9l1-0.1c0.6-0.1,0.9,0.2,1,0.8l0.9,7.9
			c0,0.2,0.1,0.3,0.3,0.3l3.3-0.4c0.2,0,0.3-0.1,0.3-0.3l-0.1-0.7L243,27l0.1,1c0.1,0.6-0.2,0.9-0.8,1l-4.1,0.4
			c-0.6,0.1-0.9-0.2-1-0.8L236.5,20.7z"/>
		<path class="st5" d="M246.9,21.2c2.1-0.2,3.9,1.3,4,3.4c0.2,2.2-1.4,3.9-3.5,4c-2.1,0.2-3.9-1.3-4-3.5
			C243.3,23.1,244.9,21.4,246.9,21.2z M247.4,27.8c1.5-0.1,2.7-1.5,2.5-3.1c-0.1-1.6-1.5-2.7-3-2.6s-2.7,1.4-2.6,3
			C244.6,26.8,245.9,27.9,247.4,27.8z"/>
		<path class="st5" d="M255.1,20.7c1.9-0.1,2.4,1.1,2.4,1.1l0,0c0,0,0-0.1,0-0.3c0-0.5,0.2-0.8,0.8-0.8h1v0.8h-0.6
			c-0.2,0-0.3,0.1-0.3,0.3l0.2,5.8c0.1,2.3-1.5,3.2-3.3,3.3c-0.8,0-1.6-0.1-2.4-0.5l0.3-0.8c0,0,0.9,0.5,1.9,0.4
			c1.4-0.1,2.5-0.8,2.4-2.3v-0.6c0-0.3,0-0.5,0-0.5l0,0c-0.4,0.8-1.1,1.3-2.2,1.3c-1.9,0.1-3.2-1.4-3.3-3.5
			C252.1,22.3,253.2,20.8,255.1,20.7z M257.6,24.2c-0.1-2.1-1.1-2.7-2.4-2.6c-1.4,0.1-2.2,1.1-2.1,2.8c0.1,1.7,1,2.8,2.4,2.7
			C256.7,27.1,257.7,26.3,257.6,24.2z"/>
		<path class="st5" d="M261.1,21.9c0-0.2-0.1-0.3-0.3-0.3h-0.6v-0.8h1c0.6,0,0.9,0.2,0.9,0.9l0.1,5.1c0,0.2,0.1,0.3,0.3,0.3h0.6v0.8
			h-1c-0.6,0-0.9-0.2-0.9-0.9L261.1,21.9z M262,17.9h1.1l-1.2,1.7h-0.8L262,17.9z"/>
		<path class="st5" d="M264.4,26.1c0,0,0.8,1.1,2.2,1.1c0.8,0,1.5-0.4,1.5-1.1c0-1.6-4-1.3-4-3.6c0-1.3,1.1-1.9,2.6-1.9
			c0.7,0,2.2,0.3,2.2,1.3v0.6H268v-0.3c0-0.5-0.8-0.7-1.2-0.7c-1,0-1.6,0.3-1.6,1c0,1.6,4,1.3,4,3.6c0,1.2-1.1,2-2.5,2
			c-1.9,0-2.7-1.3-2.7-1.3L264.4,26.1z"/>
		<path class="st5" d="M271.1,21.6h-0.9v-0.8h1l0.1-2h0.9l-0.1,2l1.8,0.1v0.8l-1.8-0.1l-0.1,3.6c-0.1,1.7,1,1.9,1.5,1.9
			c0.2,0,0.3,0,0.3,0V28c0,0-0.2,0-0.4,0c-0.8,0-2.5-0.3-2.4-2.7L271.1,21.6z"/>
		<path class="st5" d="M275.9,22.1c0-0.2-0.1-0.3-0.3-0.3H275V21h1c0.6,0,0.9,0.3,0.8,0.9l-0.2,5.1c0,0.2,0.1,0.3,0.3,0.3h0.6v0.8
			h-1c-0.6,0-0.9-0.3-0.8-0.9L275.9,22.1z M276.1,18.1h0.9l-0.1,1.2H276L276.1,18.1z"/>
		<path class="st5" d="M282.7,21.2c0.8,0.1,2.5,0.5,2.4,1.7v0.6l-1-0.1V23c0-0.6-1-1-1.6-1c-1.5-0.1-2.8,1-3,2.7
			c-0.1,1.8,1.1,2.9,2.6,3c1.5,0.1,2.4-0.8,2.4-0.8l0.4,0.8c0,0-1,1.1-2.9,1c-2.1-0.2-3.6-1.8-3.5-4C278.8,22.5,280.5,21,282.7,21.2
			z"/>
		<path class="st5" d="M290.6,24.8h0.4v-0.1c0.2-1.5-0.3-2.1-1.6-2.2c-0.4,0-1.4,0-1.4,0.5v0.5l-0.9-0.1l0.1-0.7c0.1-1,1.8-1,2.4-1
			c2.2,0.2,2.7,1.5,2.5,3l-0.4,3.4c0,0.2,0.1,0.3,0.3,0.3l0.6,0.1l-0.1,0.8l-1-0.1c-0.6-0.1-0.8-0.4-0.8-0.9c0-0.3,0.1-0.5,0.1-0.5
			l0,0c0,0-0.7,1.5-2.5,1.3c-1.2-0.1-2.3-0.9-2.2-2.4C286.3,24.4,289.4,24.7,290.6,24.8z M288.5,28.3c1.4,0.1,2.3-1.2,2.4-2.4v-0.3
			h-0.4c-1.1-0.1-3.4-0.3-3.5,1.3C286.9,27.5,287.4,28.2,288.5,28.3z"/>
	</g>
	<g class="texto logistica-corta">
		<path class="st5" d="M377.2,67.2c0.7,0.4,2.1,1.5,1.5,2.6l-0.3,0.6l-0.8-0.4l0.2-0.4c0.3-0.5-0.5-1.3-1-1.6
			c-1.3-0.8-3-0.4-3.8,1.2c-0.9,1.5-0.3,3.1,1,3.9c1.3,0.7,2.5,0.2,2.5,0.2v0.9c0,0-1.4,0.5-3-0.4c-1.9-1-2.5-3.2-1.4-5.1
			C373.1,66.7,375.3,66.1,377.2,67.2z"/>
		<path class="st5" d="M383.8,71.1c1.8,1.1,2.4,3.3,1.3,5.1c-1.1,1.8-3.4,2.3-5.2,1.3c-1.8-1.1-2.4-3.3-1.3-5.2
			C379.7,70.5,382,70,383.8,71.1z M380.4,76.7c1.3,0.8,3,0.4,3.9-1c0.8-1.4,0.4-3.1-0.9-3.9c-1.3-0.8-3-0.4-3.8,1
			C378.6,74.2,379,75.9,380.4,76.7z"/>
		<path class="st5" d="M387.9,75.2c0.1-0.2,0.1-0.3-0.1-0.4l-0.5-0.3l0.5-0.7l0.8,0.5c0.5,0.3,0.6,0.7,0.3,1.2l-0.3,0.4
			c-0.2,0.2-0.3,0.4-0.3,0.4l0,0c0.9-0.7,2-1,2.9-0.4c0.2,0.1,0.3,0.2,0.3,0.2l-0.5,0.8c0,0-0.1-0.1-0.3-0.2
			c-0.8-0.6-1.9-0.3-2.7,0.4c-0.4,0.3-0.7,0.7-0.9,1.1l-1.6,2.5l-0.8-0.5L387.9,75.2z"/>
		<path class="st5" d="M392.5,77.9l-0.8-0.5l0.5-0.7l0.8,0.5l1.1-1.6l0.8,0.5l-1.1,1.6l1.5,1l-0.5,0.7l-1.5-1l-2.1,3
			c-0.9,1.4-0.2,2.2,0.3,2.5c0.2,0.1,0.3,0.2,0.3,0.2l-0.5,0.7c0,0-0.2-0.1-0.4-0.2c-0.7-0.5-1.9-1.6-0.5-3.6L392.5,77.9z"/>
		<path class="st5" d="M398.2,84.3l0.3,0.2l0.1-0.1c0.9-1.2,0.8-1.9-0.3-2.7c-0.3-0.2-1.2-0.7-1.5-0.3l-0.3,0.4l-0.7-0.5l0.4-0.6
			c0.6-0.8,2.1,0,2.6,0.4c1.8,1.3,1.6,2.6,0.7,3.9l-2,2.8c-0.1,0.2-0.1,0.3,0.1,0.4l0.5,0.4l-0.5,0.7l-0.8-0.6
			c-0.5-0.4-0.5-0.7-0.2-1.2c0.2-0.3,0.3-0.4,0.3-0.4l0,0c0,0-1.4,0.9-2.8-0.1c-1-0.7-1.6-2-0.7-3.1
			C394.7,81.8,397.2,83.5,398.2,84.3z M394.6,86.3c1.1,0.8,2.6,0.1,3.3-0.9l0.2-0.3l-0.3-0.2c-0.9-0.7-2.7-2-3.7-0.7
			C393.7,84.8,393.7,85.6,394.6,86.3z"/>
		<path class="st5" d="M408.3,88.3c1.3,1.1,1,2.5,1,2.5l0,0c0,0,0.1-0.2,0.3-0.4l1.5-1.8c0.1-0.2,0.1-0.3,0-0.4l-0.5-0.4l0.5-0.7
			l0.8,0.6c0.5,0.4,0.5,0.7,0.1,1.2l-5,6.2c-0.1,0.2-0.1,0.3,0,0.4l0.5,0.4l-0.5,0.7l-0.8-0.6c-0.5-0.4-0.5-0.7-0.2-1.2
			c0.2-0.2,0.3-0.3,0.3-0.3l0,0c0,0-1.3,0.7-2.8-0.4c-1.5-1.2-1.5-3.1-0.1-4.9C404.9,87.5,406.8,87.2,408.3,88.3z M407.8,92.7
			c0.9-1.1,1.2-2.7,0-3.7c-1-0.8-2.5-0.6-3.6,0.8s-1.1,2.8-0.1,3.7C405.1,94.3,406.5,94.3,407.8,92.7z"/>
		<path class="st5" d="M412,93.1c0.1-0.2,0.1-0.3,0-0.4l-0.5-0.4l0.5-0.6l0.8,0.7c0.5,0.4,0.5,0.8,0.1,1.2l-3.3,3.9
			c-0.1,0.2-0.1,0.3,0,0.4l0.5,0.4l-0.5,0.6l-0.8-0.7c-0.5-0.4-0.5-0.8-0.1-1.2L412,93.1z M414.6,90.1l0.7,0.6l-0.8,0.9l-0.7-0.6
			L414.6,90.1z"/>
		<path class="st5" d="M411.7,98.5c0,0-0.1,1.3,0.9,2.3c0.6,0.5,1.4,0.7,1.9,0.2c1-1.2-2.1-3.6-0.6-5.3c0.9-1,2.1-0.7,3.2,0.3
			c0.5,0.5,1.4,1.7,0.8,2.4l-0.4,0.5l-0.7-0.6L417,98c0.4-0.4-0.1-1.1-0.4-1.4c-0.7-0.7-1.4-0.8-1.9-0.3c-1.1,1.2,2.2,3.6,0.6,5.4
			c-0.8,0.9-2.1,0.8-3.2-0.2c-1.4-1.2-1.2-2.8-1.2-2.8L411.7,98.5z"/>
		<path class="st5" d="M419.8,99.6l-0.7-0.6l0.6-0.6l0.7,0.7l1.4-1.4l0.7,0.7l-1.4,1.4l1.3,1.2l-0.6,0.6l-1.3-1.2l-2.5,2.7
			c-1.1,1.2-0.5,2.1-0.1,2.5c0.1,0.1,0.3,0.2,0.3,0.2l-0.6,0.6c0,0-0.1-0.1-0.3-0.3c-0.6-0.6-1.6-1.9,0-3.6L419.8,99.6z"/>
		<path class="st5" d="M424.4,106.8l0.3,0.3l0.1-0.1c1.1-1.1,1-1.8,0.1-2.7c-0.3-0.2-1.1-0.9-1.4-0.5l-0.3,0.3l-0.7-0.7l0.5-0.5
			c0.7-0.7,2.1,0.3,2.5,0.8c1.6,1.6,1.1,2.8,0.1,3.9l-2.4,2.4c-0.2,0.2-0.1,0.3,0,0.4l0.4,0.4l-0.6,0.6l-0.7-0.7
			c-0.4-0.4-0.4-0.8,0-1.2c0.2-0.2,0.4-0.4,0.4-0.4l0,0c0,0-1.5,0.7-2.8-0.6c-0.8-0.8-1.2-2.2-0.2-3.2
			C421.2,103.7,423.5,105.9,424.4,106.8z M420.5,108.2c1,1,2.6,0.5,3.4-0.3l0.2-0.2l-0.3-0.3c-0.8-0.8-2.4-2.4-3.5-1.2
			C419.9,106.6,419.7,107.4,420.5,108.2z"/>
		<path class="st5" d="M428.3,108.4c0.1-0.1,0.2-0.3,0-0.4l-0.4-0.4l0.6-0.6l0.7,0.7c0.4,0.4,0.4,0.8,0,1.2l-0.2,0.2
			c-0.2,0.2-0.4,0.3-0.4,0.3l0,0c0.7-0.3,2.1-0.4,3.3,0.8c1.2,1.3,0.9,2.4-0.4,3.6l-2.5,2.3c-0.2,0.1-0.2,0.3,0,0.4l0.4,0.4
			l-0.6,0.6l-0.7-0.7c-0.4-0.4-0.4-0.8,0-1.2l2.5-2.3c0.8-0.8,1.4-1.6,0.5-2.6c-0.8-0.9-2.2-1.1-3.2-0.5c-0.3,0.1-0.5,0.3-0.8,0.6
			l-2.5,2.3l-0.7-0.7L428.3,108.4z"/>
		<path class="st5" d="M437.3,116.3c0.5,0.6,1.4,2.1,0.5,2.9l-0.5,0.4l-0.6-0.7l0.3-0.3c0.4-0.4,0-1.4-0.4-1.8c-1-1.2-2.7-1.3-4-0.2
			c-1.3,1.2-1.3,2.9-0.3,4s2.3,1.1,2.3,1.1l-0.2,0.8c0,0-1.5,0-2.7-1.3c-1.4-1.6-1.3-3.8,0.4-5.3
			C433.6,114.5,435.9,114.7,437.3,116.3z"/>
		<path class="st5" d="M439.2,120.7c0.2-0.1,0.2-0.3,0-0.4l-0.4-0.5l0.6-0.5l0.6,0.8c0.4,0.5,0.4,0.8-0.1,1.2l-3.9,3.3
			c-0.2,0.1-0.2,0.3,0,0.4l0.4,0.5l-0.6,0.5l-0.6-0.8c-0.4-0.5-0.4-0.8,0.1-1.2L439.2,120.7z M442.3,118.1l0.6,0.7l-0.9,0.8
			l-0.6-0.7L442.3,118.1z"/>
		<path class="st5" d="M442.6,127.4l0.2,0.3l0.1-0.1c1.2-0.9,1.3-1.7,0.4-2.7c-0.2-0.3-0.9-1-1.4-0.7l-0.4,0.3l-0.6-0.7l0.5-0.4
			c0.8-0.6,2,0.6,2.4,1.1c1.4,1.8,0.8,2.9-0.4,3.9l-2.7,2.1c-0.2,0.1-0.2,0.3-0.1,0.4l0.4,0.5l-0.7,0.5l-0.6-0.8
			c-0.4-0.5-0.3-0.8,0.1-1.2c0.2-0.2,0.4-0.3,0.4-0.3l0,0c0,0-1.6,0.5-2.7-0.9c-0.7-0.9-1-2.3,0.2-3.2
			C439.8,124,441.8,126.4,442.6,127.4z M438.5,128.3c0.8,1.1,2.5,0.8,3.4,0.1l0.3-0.2l-0.3-0.3c-0.7-0.9-2.1-2.6-3.4-1.6
			C438.1,126.6,437.8,127.4,438.5,128.3z"/>
	</g>
	<g class="texto logistica-corta">
		<path class="st5" d="M403.4,61.6c0.1-0.2,0.1-0.3-0.1-0.4l-0.5-0.3l0.5-0.7l0.9,0.6c0.5,0.3,0.6,0.7,0.2,1.2l-4.5,6.5
			c-0.1,0.2-0.1,0.3,0.1,0.4l2.7,1.9c0.2,0.1,0.3,0.1,0.4-0.1l0.4-0.5l0.8,0.5l-0.6,0.8c-0.3,0.5-0.7,0.6-1.2,0.2l-3.4-2.4
			c-0.5-0.3-0.6-0.7-0.2-1.2L403.4,61.6z"/>
		<path class="st5" d="M411,68.8c1.7,1.2,2.1,3.5,0.8,5.2c-1.3,1.7-3.6,2-5.3,0.8c-1.7-1.2-2.1-3.5-0.8-5.3
			C407,67.9,409.3,67.6,411,68.8z M407,74.1c1.2,0.9,3,0.6,4-0.7c1-1.3,0.7-3-0.5-3.9s-3-0.7-3.9,0.6
			C405.5,71.5,405.8,73.2,407,74.1z"/>
		<path class="st5" d="M417.5,73.8c1.5,1.2,1.1,2.4,1.1,2.4l0,0c0,0,0.1-0.1,0.2-0.2c0.3-0.4,0.7-0.5,1.1-0.1l0.8,0.6l-0.5,0.7
			l-0.5-0.4c-0.2-0.1-0.3-0.1-0.4,0l-3.6,4.6c-1.4,1.8-3.3,1.4-4.7,0.3c-0.6-0.5-1.1-1.2-1.5-1.9l0.8-0.4c0,0,0.4,0.9,1.2,1.6
			c1.1,0.9,2.4,1,3.4-0.2l0.4-0.5c0.2-0.2,0.3-0.4,0.3-0.4l0,0c-0.8,0.3-1.7,0.3-2.5-0.4c-1.5-1.2-1.5-3.2-0.2-4.8
			C414.2,73,416,72.6,417.5,73.8z M417.1,78.1c1.3-1.6,0.9-2.8-0.1-3.5c-1.1-0.9-2.4-0.6-3.4,0.7c-1.1,1.3-1,2.8,0.1,3.7
			C414.6,79.7,415.8,79.7,417.1,78.1z"/>
		<path class="st5" d="M421.3,78.6c0.1-0.2,0.1-0.3,0-0.4l-0.5-0.4l0.5-0.6l0.8,0.6c0.5,0.4,0.5,0.8,0.1,1.2l-3.3,3.9
			c-0.1,0.2-0.1,0.3,0,0.4l0.5,0.4l-0.5,0.6l-0.8-0.6c-0.5-0.4-0.5-0.8-0.1-1.2L421.3,78.6z M424.6,76.2l0.8,0.7l-2,0.5l-0.6-0.5
			L424.6,76.2z"/>
		<path class="st5" d="M421,83.9c0,0-0.1,1.3,0.9,2.3c0.6,0.5,1.4,0.7,1.9,0.1c1-1.2-2.2-3.6-0.7-5.3c0.8-1,2.1-0.7,3.2,0.2
			c0.5,0.5,1.4,1.6,0.8,2.4l-0.4,0.5l-0.7-0.6l0.2-0.3c0.3-0.4-0.1-1-0.5-1.4c-0.7-0.7-1.4-0.8-1.9-0.3c-1.1,1.2,2.2,3.6,0.6,5.3
			c-0.8,0.9-2.1,0.8-3.2-0.1c-1.4-1.2-1.2-2.7-1.2-2.7L421,83.9z"/>
		<path class="st5" d="M429.1,84.9l-0.7-0.6l0.5-0.6l0.7,0.6l1.3-1.5l0.7,0.6l-1.3,1.5l1.3,1.2l-0.5,0.6l-1.3-1.2l-2.5,2.7
			c-1.1,1.2-0.5,2.1-0.1,2.5c0.1,0.1,0.3,0.2,0.3,0.2l-0.6,0.6c0,0-0.1-0.1-0.3-0.3c-0.6-0.6-1.6-1.9,0-3.6L429.1,84.9z"/>
		<path class="st5" d="M432.3,88.4c0.1-0.1,0.1-0.3,0-0.4l-0.4-0.4l0.6-0.6l0.7,0.7c0.4,0.4,0.5,0.8,0,1.2l-3.5,3.7
			c-0.1,0.2-0.1,0.3,0,0.4l0.4,0.4l-0.6,0.6l-0.7-0.7c-0.4-0.4-0.5-0.8,0-1.2L432.3,88.4z M435.1,85.5l0.7,0.6L435,87l-0.7-0.6
			L435.1,85.5z"/>
		<path class="st5" d="M438.1,92.1c0.6,0.6,1.6,2,0.7,2.9l-0.5,0.5l-0.6-0.6l0.3-0.3c0.4-0.4-0.1-1.4-0.5-1.8
			c-1.1-1.1-2.8-1.1-4,0.1s-1.1,2.9,0,4c1,1,2.3,0.9,2.3,0.9l-0.2,0.8c0,0-1.5,0.1-2.8-1.1c-1.5-1.5-1.6-3.7,0-5.3
			C434.3,90.6,436.5,90.6,438.1,92.1z"/>
		<path class="st5" d="M441.7,100.1l0.3,0.3l0.1-0.1c1.1-1,1.1-1.8,0.2-2.7c-0.2-0.3-1-0.9-1.4-0.6l-0.3,0.3l-0.6-0.7l0.5-0.5
			c0.7-0.7,2,0.4,2.5,0.9c1.6,1.6,1,2.9-0.1,3.9l-2.5,2.4c-0.2,0.1-0.2,0.3,0,0.4l0.4,0.4l-0.6,0.6l-0.7-0.7c-0.4-0.4-0.4-0.8,0-1.2
			c0.2-0.2,0.4-0.4,0.4-0.4l0,0c0,0-1.5,0.6-2.8-0.7c-0.8-0.9-1.2-2.2-0.1-3.2C438.6,97,440.9,99.2,441.7,100.1z M437.8,101.4
			c0.9,1,2.5,0.6,3.4-0.2l0.2-0.2l-0.3-0.4c-0.8-0.8-2.3-2.4-3.5-1.3C437.2,99.7,437,100.6,437.8,101.4z"/>
	</g>
	<g class="texto logistica-cliente">
		<path class="st5" d="M495.5,213.5c0.3,1.4,0.2,3.8-1.2,4.1l-0.8,0.2l-0.2-0.9l0.5-0.1c0.9-0.2,1.1-1.9,0.8-3
			c-0.5-2.2-2.6-3.4-4.9-2.9c-2.3,0.5-3.8,2.6-3.3,4.8c0.5,2,2.1,2.9,2.1,2.9l-0.6,0.7c0,0-1.9-1-2.4-3.4c-0.7-2.8,1.2-5.4,4-6
			C492.3,209.2,494.9,210.8,495.5,213.5z"/>
		<path class="st5" d="M495.4,219.5c0.2,0,0.3-0.2,0.2-0.4l-0.1-0.6l0.8-0.2l0.2,1c0.1,0.6-0.1,0.9-0.7,1l-7.8,1.5
			c-0.2,0-0.3,0.2-0.2,0.4l0.1,0.6l-0.8,0.2l-0.2-1c-0.1-0.6,0.1-0.9,0.7-1L495.4,219.5z"/>
		<path class="st5" d="M493.3,223.6c0.2,0,0.3-0.2,0.3-0.4l-0.1-0.6l0.8-0.2l0.2,1c0.1,0.6-0.1,0.9-0.7,1l-5,0.9
			c-0.2,0-0.3,0.2-0.3,0.4l0.1,0.6l-0.8,0.2l-0.2-1c-0.1-0.6,0.1-0.9,0.7-1L493.3,223.6z M497.3,222.8l0.2,0.9l-1.2,0.2l-0.2-0.9
			L497.3,222.8z"/>
		<path class="st5" d="M495.7,229.7c0.3,1.9-1,3.2-2.8,3.5c-0.2,0-0.5,0-0.5,0l-0.8-5.4c-1.8,0.3-2.6,1.7-2.4,3.2
			c0.2,1.3,1.2,2,1.2,2l-0.6,0.6c0,0-1.2-0.9-1.4-2.5c-0.3-2.1,0.9-3.9,3.1-4.3C493.8,226.5,495.4,227.8,495.7,229.7z M493,232.2
			c1.5-0.3,2-1.3,1.9-2.3c-0.2-1.2-1.1-2.1-2.6-2.1L493,232.2z"/>
		<path class="st5" d="M495.2,234.9c0.2,0,0.3-0.2,0.3-0.3l-0.1-0.6l0.8-0.1l0.1,1c0.1,0.6-0.2,0.9-0.7,1h-0.3c-0.3,0-0.5,0-0.5,0
			l0,0c0.7,0.2,1.9,0.9,2.1,2.6c0.2,1.8-0.7,2.5-2.5,2.7l-3.4,0.4c-0.2,0-0.3,0.2-0.3,0.3l0.1,0.6l-0.8,0.1l-0.1-1
			c-0.1-0.6,0.2-0.9,0.8-1l3.4-0.4c1.1-0.1,2.1-0.4,1.9-1.8c-0.1-1.2-1.1-2.2-2.3-2.3c-0.3-0.1-0.6,0-1,0l-3.4,0.4l-0.1-1
			L495.2,234.9z"/>
		<path class="st5" d="M496.5,243.7l-0.1-0.9l0.8-0.1l0.1,0.9l2-0.2l0.1,0.9l-2,0.2l0.2,1.8l-0.8,0.1l-0.2-1.8l-3.6,0.3
			c-1.7,0.1-1.8,1.2-1.7,1.8c0,0.2,0.1,0.3,0.1,0.3l-0.9,0.1c0,0,0-0.2-0.1-0.4c-0.1-0.8,0-2.5,2.4-2.7L496.5,243.7z"/>
		<path class="st5" d="M498,251.1c0.1,2-1.3,3.1-3.1,3.2c-0.2,0-0.5,0-0.5,0l-0.3-5.5c-1.8,0.1-2.8,1.5-2.7,2.9c0.1,1.3,1,2.1,1,2.1
			l-0.7,0.5c0,0-1.1-1-1.2-2.6c-0.1-2.1,1.3-3.8,3.5-4C496.4,247.7,497.9,249.2,498,251.1z M495.2,253.3c1.5-0.1,2.1-1.1,2.1-2.2
			c-0.1-1.2-0.9-2.2-2.4-2.3L495.2,253.3z"/>
	</g>
	<g class="texto logistica-consumidor">
		<path class="st5" d="M437,406.6c0.9-1.1,2.8-2.5,4-1.5l0.6,0.5l-0.6,0.7l-0.4-0.4c-0.7-0.6-2.1,0.3-2.9,1.2
			c-1.4,1.7-1.2,4.1,0.7,5.7c1.8,1.5,4.4,1.4,5.8-0.3c1.3-1.6,1-3.4,1-3.4h0.9c0,0,0.4,2.1-1.2,4c-1.9,2.3-5,2.4-7.2,0.5
			C435.5,411.8,435.2,408.8,437,406.6z"/>
		<path class="st5" d="M444.4,401.8c1.3-1.7,3.6-2.1,5.2-0.8c1.7,1.3,2,3.6,0.7,5.3c-1.3,1.7-3.6,2-5.3,0.7
			C443.4,405.8,443.1,403.4,444.4,401.8z M449.7,405.8c0.9-1.2,0.7-3-0.6-4s-3-0.7-3.9,0.5s-0.7,2.9,0.6,3.9
			C447,407.2,448.7,407,449.7,405.8z"/>
		<path class="st5" d="M448.7,398.3c-0.2-0.1-0.3-0.1-0.4,0.1l-0.3,0.5l-0.7-0.5l0.6-0.8c0.3-0.5,0.7-0.6,1.1-0.3l0.3,0.2
			c0.2,0.2,0.4,0.3,0.4,0.3l0,0c-0.4-0.6-0.8-2,0.2-3.4c1-1.5,2.2-1.4,3.6-0.4l2.8,2c0.2,0.1,0.3,0.1,0.4-0.1l0.3-0.5l0.7,0.5
			l-0.6,0.8c-0.4,0.5-0.7,0.6-1.2,0.2l-2.8-2c-0.9-0.6-1.8-1.1-2.6,0.1c-0.7,1-0.6,2.3,0.2,3.3c0.2,0.2,0.4,0.5,0.7,0.6l2.8,2
			l-0.6,0.8L448.7,398.3z"/>
		<path class="st5" d="M456.9,393.8c0,0,1.3-0.1,2.1-1.3c0.4-0.7,0.5-1.5-0.1-1.9c-1.3-0.9-3.3,2.7-5.2,1.4c-1.1-0.7-1-2-0.2-3.2
			c0.4-0.6,1.4-1.7,2.3-1.1l0.5,0.3l-0.5,0.8l-0.3-0.2c-0.4-0.3-1,0.2-1.3,0.6c-0.5,0.8-0.6,1.5,0,1.9c1.3,0.9,3.2-2.7,5.2-1.4
			c1,0.7,1.1,2,0.3,3.2c-1,1.6-2.5,1.6-2.5,1.6L456.9,393.8z"/>
		<path class="st5" d="M456.8,386.2c-0.2-0.1-0.3-0.1-0.4,0.1l-0.3,0.5l-0.7-0.4l0.5-0.9c0.3-0.5,0.7-0.6,1.2-0.3l2.9,1.8
			c1,0.6,1.9,0.9,2.6-0.2c0.8-1.4,0.1-3-1.2-3.8l-2.9-1.8l0.5-0.8l5.1,3.1c0.2,0.1,0.3,0.1,0.4-0.1l0.3-0.5l0.7,0.4l-0.5,0.8
			c-0.3,0.5-0.7,0.6-1.1,0.3l-0.3-0.2c-0.2-0.1-0.4-0.3-0.4-0.3l0,0c0.4,0.6,0.9,2,0.1,3.3c-0.9,1.4-2,1.6-3.6,0.6L456.8,386.2z"/>
		<path class="st5" d="M461.2,378.9c-0.2-0.1-0.3-0.1-0.4,0.1l-0.3,0.5l-0.7-0.4l0.5-0.9c0.3-0.5,0.6-0.6,1.1-0.4l0.3,0.2
			c0.2,0.1,0.4,0.3,0.4,0.3l0,0c-0.7-0.8-0.9-2.2-0.3-3.1c0.6-1.2,1.5-1.5,2.6-1.1l0,0c-0.7-0.8-0.9-2.1-0.3-3.2
			c0.8-1.5,2-1.6,3.6-0.8l3,1.6c0.2,0.1,0.3,0.1,0.4-0.1l0.3-0.5l0.7,0.4l-0.5,0.9c-0.3,0.5-0.6,0.6-1.2,0.3l-3-1.6
			c-1-0.6-2-0.8-2.6,0.3c-0.5,0.9-0.1,2.2,0.7,2.9c0.2,0.2,0.5,0.4,0.8,0.6l3,1.6l-0.5,0.8l-3.8-2.1c-0.9-0.5-1.9-0.9-2.6,0.3
			c-0.6,1-0.1,2.3,0.7,3c0.2,0.2,0.5,0.4,0.8,0.6l3,1.6l-0.5,0.8L461.2,378.9z"/>
		<path class="st5" d="M463.9,365.5l0.4-0.8l1.1,0.5L465,366L463.9,365.5z M467.4,367.3c-0.2-0.1-0.3,0-0.4,0.1l-0.3,0.5l-0.8-0.4
			l0.5-0.9c0.3-0.5,0.6-0.7,1.2-0.4l4.6,2.3c0.2,0.1,0.3,0,0.4-0.1l0.3-0.5l0.8,0.4l-0.5,0.9c-0.3,0.5-0.6,0.7-1.2,0.4L467.4,367.3z
			"/>
		<path class="st5" d="M468.9,361.3c0.7-1.6,2.2-1.5,2.2-1.5l0,0c0,0-0.2-0.1-0.5-0.2l-2.1-1c-0.2-0.1-0.3,0-0.4,0.2l-0.3,0.5
			l-0.8-0.4l0.4-0.9c0.3-0.6,0.6-0.7,1.2-0.4l7.2,3.4c0.2,0.1,0.3,0,0.4-0.2l0.3-0.5l0.8,0.4l-0.4,0.9c-0.3,0.5-0.6,0.7-1.1,0.4
			c-0.2-0.1-0.4-0.2-0.4-0.2l0,0c0,0,1,1.1,0.2,2.8c-0.8,1.7-2.7,2.2-4.7,1.2C468.9,364.9,468.1,363,468.9,361.3z M473.3,360.8
			c-1.3-0.6-2.9-0.5-3.6,0.8c-0.5,1.1,0,2.5,1.6,3.3c1.6,0.7,3,0.4,3.6-0.8C475.4,363,475.1,361.6,473.3,360.8z"/>
		<path class="st5" d="M472.4,353.4c0.8-1.9,2.9-2.9,4.9-2c2,0.8,2.8,3,2,4.9s-3,2.8-5,2C472.4,357.5,471.6,355.3,472.4,353.4z
			 M478.5,356c0.6-1.4-0.1-3-1.6-3.7c-1.5-0.6-3.1,0-3.7,1.4c-0.6,1.4,0,3,1.5,3.7C476.3,358,477.9,357.4,478.5,356z"/>
		<path class="st5" d="M475.7,348.8c-0.2-0.1-0.3,0-0.4,0.2l-0.2,0.6l-0.8-0.3l0.4-0.9c0.2-0.6,0.5-0.7,1.1-0.5l0.5,0.2
			c0.3,0.1,0.5,0.2,0.5,0.2l0,0c-0.9-0.7-1.4-1.8-1-2.8c0.1-0.2,0.2-0.3,0.2-0.3l0.9,0.3c0,0-0.1,0.1-0.2,0.3
			c-0.4,0.9,0.1,1.9,1,2.6c0.4,0.3,0.8,0.5,1.2,0.7l2.8,1.1l-0.4,0.9L475.7,348.8z"/>
	</g>
</g>
</svg>
