<?xml version="1.0" encoding="utf-8"?>
<!-- Generator: Adobe Illustrator 21.1.0, SVG Export Plug-In . SVG Version: 6.00 Build 0)  -->
<svg version="1.1" id="Capa_1" xmlns="http://www.w3.org/2000/svg" xmlns:xlink="http://www.w3.org/1999/xlink" x="0px" y="0px"
	 viewBox="0 0 257 143" style="enable-background:new 0 0 257 143;" xml:space="preserve">
<style type="text/css">
	.st0{fill:#FFFFFF;}
</style>
<title>icono-consumidor-grande</title>
<desc>Created with Sketch.</desc>
<g id="Visual-cadena-de-valor-1280">
	<g id="Nuestro-compromiso_x2F_Cadena-de-valor_x2F_Cadena-de-valor-1280-3" transform="translate(-189.000000, -3742.000000)">
		<g id="icono-consumidor-grande" transform="translate(189.000000, 3742.000000)">
			<g id="Clip-2">
			</g>
			<path id="Fill-1" class="st0" d="M250.1,112.4H195l-19.1-9.9l-10.4-5.4l29.8-15.5L205.8,92l10-10L250,99.8v12.6H250.1z
				 M190.8,136.1H65.3v-17.7V117l49.5-25.8l13.5,13.5l13.3-13.4l49.2,25.6v1.4V136.1z M6,99.8l35.1-18.3l9.6,9.6l9.8-9.8L90.6,97
				l-22.1,11.5l-7.4,3.9H6V99.8z M25.6,44.5c0-13.9,11.3-25.3,25.3-25.3s25.3,11.3,25.3,25.3c0,10.7-6.8,20.3-17,23.8l-2,0.7v7.1
				l-6.5,6.5l-6-6V69l-2-0.7C32.5,64.9,25.6,55.3,25.6,44.5L25.6,44.5z M92.2,41.8C92.2,22.1,108.3,6,128,6s35.8,16.1,35.8,35.8
				c0,15.2-9.7,28.8-24.1,33.8l-2,0.7v10.5l-9.5,9.5l-9.9-9.9v-10l-2-0.7C101.9,70.6,92.2,57,92.2,41.8L92.2,41.8z M179.9,44.5
				c0-13.9,11.3-25.3,25.3-25.3c13.9,0,25.3,11.3,25.3,25.3c0,10.7-6.8,20.3-17,23.8l-2,0.7v8.8l-5.6,5.6l-6.9-6.9v-7.6l-2-0.7
				C186.7,64.9,179.9,55.3,179.9,44.5L179.9,44.5z M256.1,96.2l-38.6-20.1v-2.8c11.5-4.9,19-16.2,19-28.7c0-17.2-14-31.3-31.3-31.3
				c-17.2,0-31.3,14-31.3,31.3c0,12.6,7.6,23.9,19,28.7v2.8L159,93.7l-15.3-8v-5.2c15.7-6.4,26.1-21.7,26.1-38.7
				C169.8,18.8,151,0,128,0S86.2,18.8,86.2,41.8c0,17,10.4,32.3,26.1,38.7v5.2l-15.3,8L63.2,76.1v-2.8c11.5-4.9,19-16.2,19-28.7
				c0-17.2-14-31.3-31.3-31.3s-31.3,14-31.3,31.3c0,12.6,7.6,23.9,19,28.7v2.8L0,96.2v22.3h59.3v23.7h137.5v-23.7h59.3V96.2z"/>
		</g>
	</g>
</g>
</svg>
