<?xml version="1.0" encoding="utf-8"?>
<!-- Generator: Adobe Illustrator 21.1.0, SVG Export Plug-In . SVG Version: 6.00 Build 0)  -->
<svg version="1.1" id="Capa_1" xmlns="http://www.w3.org/2000/svg" xmlns:xlink="http://www.w3.org/1999/xlink" x="0px" y="0px"
	 viewBox="0 0 530 530" style="enable-background:new 0 0 530 530;" xml:space="preserve">
<style type="text/css">
	.st0{opacity:0.6;fill:#FFFFFF;enable-background:new    ;}
	.st1{display:none;}
	.st2{display:inline;fill:#EB2C24;}
	.st3{display:inline;fill:#FFFFFF;}
	.st4{display:inline;fill:none;stroke:#FFFFFF;stroke-width:1.5283;}
	.st5{display:inline;fill:#706F6F;}
	.st6{font-family:'Oswald-Regular';}
	.st7{font-size:9.2075px;}
	.st8{display:inline;}
	.st9{fill:#706F6F;}
	.st10{fill:#E31F13;}
	.st11{display:inline;fill:none;stroke:#FFFFFF;stroke-width:1.6812;}
	.st12{font-size:9.2856px;}
	.st13{fill:#EB2C24;}
	.st14{fill:#FFFFFF;}
	.st15{fill:none;stroke:#FFFFFF;stroke-width:1.5283;}
	.st16{font-size:9.2755px;}
	.st17{fill:none;stroke:#FFFFFF;stroke-width:1.1;}
	.st18{fill:none;stroke:#EB2C24;stroke-width:0.87;}
</style>
<circle class="st0" cx="265" cy="265" r="132.5"/>
<g class="st1">
	<path class="st2" d="M208.5,307.5c23.8,0,43.1-19.3,43.1-43.1s-19.3-43.1-43.1-43.1s-43.1,19.3-43.1,43.1
		C165.4,288.3,184.7,307.5,208.5,307.5"/>
	<path class="st3" d="M230,239.7v-2.3h-9.3v2.4h6.9l-5.4,25.3h2.5L230,239.7z M218.5,265.1v-27.7h-1.7c-0.6,1.1-1.7,1.8-4.3,2.2v2.1
		l3.5-0.3v23.8h2.5V265.1z M207.7,256.1h-4.3l4.3-13.7V256.1z M212.2,258.3V256H210v-18.7h-2.9l-5.9,18.4v2.5h6.4v6.8h2.4v-6.8
		L212.2,258.3L212.2,258.3z M199.9,260.5h-3.1v4.5h3.1V260.5z M193.3,265.1v-27.7h-1.7c-0.6,1.1-1.7,1.8-4.3,2.2v2.1l3.5-0.3v23.8
		h2.5V265.1z"/>
	<line class="st4" x1="193.3" y1="269.7" x2="223.6" y2="269.7"/>
	<path class="st5" d="M316.8,300.1v-64.9l-0.4-0.7l-3.8-6.4v-1.5v-7.1h-37.9v8.7l-6.2,14l0,0l-0.7,1.6v2.4v63.4h33.9h2.7l0,0l1.3-1
		l0,0L316.8,300.1z M312.8,298.1l-7.1,5.4v-58.4l7.1-5.4V298.1z M312.2,235.1l-3.4,2.6l2.1-4.8L312.2,235.1z M278.7,223.4h29.9v3.1
		h-29.9V223.4z M278,230.6h29.5l-5.1,11.5h-29.5L278,230.6z M301.7,305.5h-29.9v-59.4h29.9V305.5z"/>
	<text transform="matrix(1 0 0 1 186.4806 281.9668)" class="st3 st6 st7">MILLONES DE</text>
	<text transform="matrix(1 0 0 1 193.4806 291.1668)" class="st3 st6 st7">ENVASES</text>
</g>
<g class="st1">
	<path class="st2" d="M208.5,307.7c23.8,0,43.1-19.3,43.1-43.1s-19.3-43.1-43.1-43.1s-43.1,19.3-43.1,43.1
		C165.5,288.5,184.7,307.7,208.5,307.7"/>
	<path class="st3" d="M222.9,251.3c0,2.7,0,5.7-0.3,9.4c-0.1,1.6-0.7,2.5-2.1,2.5s-2-1-2.2-2.5c-0.2-2.5-0.3-7.2-0.3-9.3
		c0-2.2,0-6,0.2-9.1c0.1-1.5,0.7-2.6,2.2-2.6s2.2,1,2.3,2.6C222.8,243.7,222.9,248.2,222.9,251.3 M220.5,237.4
		c-3.2,0-4.5,2.1-4.8,4.8c-0.1,2.3-0.2,6.5-0.2,9.2c0,2.4,0.1,7.3,0.3,9c0.3,3.6,1.7,5.1,4.6,5.1c2.8,0,4.3-1.6,4.6-5.1
		c0.2-2.3,0.3-6.8,0.3-9c0-2.4,0-6.1-0.2-9.2C224.9,239.5,223.6,237.4,220.5,237.4 M210.8,251.3c0,2.7,0,5.7-0.3,9.4
		c-0.1,1.6-0.7,2.5-2.1,2.5s-2-1-2.2-2.5c-0.2-2.5-0.3-7.2-0.3-9.3c0-2.2,0-6,0.2-9.1c0.1-1.5,0.7-2.6,2.2-2.6s2.2,1,2.3,2.6
		C210.7,243.7,210.8,248.2,210.8,251.3 M208.4,237.4c-3.2,0-4.5,2.1-4.8,4.8c-0.1,2.3-0.2,6.5-0.2,9.2c0,2.4,0.1,7.3,0.3,9
		c0.3,3.6,1.7,5.1,4.6,5.1c2.8,0,4.3-1.6,4.6-5.1c0.2-2.3,0.3-6.8,0.3-9c0-2.4,0-6.1-0.2-9.2C212.9,239.5,211.5,237.4,208.4,237.4
		 M198.7,261.1c-0.2,1.6-0.9,2.2-2.2,2.2c-1.2,0-2.1-0.5-2.3-2.1c-0.2-1.2-0.1-6.7-0.1-8.3c0.2-1.3,1-2.3,2.6-2.3
		c1.3,0,1.9,0.7,2,1.8C198.8,254,198.8,260,198.7,261.1 M201.1,261.7c0.3-1.6,0.2-6.9,0-10c-0.1-2.2-1.5-3.4-3.4-3.4
		c-1.6,0-2.9,0.5-3.6,1.9c0-0.7,0-4.5,0.1-7.3c0.1-2,0.7-3.1,2.3-3.1s2,0.9,2.2,2.6c0,0.3,0,1.4,0,1.9h2.4c0-0.6,0-2.2-0.1-3
		c-0.3-2.2-1.5-3.9-4.5-3.9c-3.1,0-4.4,2-4.6,5.2c-0.1,1.4-0.2,6.2-0.2,8.7c0,2.6,0,7.7,0.3,10c0.5,2.8,2,4.1,4.6,4.1
		C199.4,265.5,200.6,263.8,201.1,261.7"/>
	<line class="st4" x1="193.4" y1="269.9" x2="223.7" y2="269.9"/>
	<g class="st8">
		<rect x="335.2" y="241.5" class="st9" width="4" height="17"/>
		<rect x="260.3" y="241.5" class="st9" width="4" height="17"/>
		<rect x="290.1" y="284.9" class="st9" width="19.4" height="4"/>
		<rect x="290.1" y="276.1" class="st9" width="19.4" height="4"/>
		<path class="st9" d="M286.5,276.1h-10.8v12.8h10.8V276.1z M282.5,284.9h-2.8v-4.8h2.8V284.9z"/>
		<path class="st9" d="M323.8,276.1H313v12.8h10.8V276.1z M319.7,284.9h-2.8v-4.8h2.8V284.9z"/>
		<path class="st9" d="M311.4,219.4h-4.1h-35.2l-6.8,7.3v0.7v3l0,0v6.6v23.3v7.4v2v2v1.6v21.8v3.7v11h12.9v-11h43.2v11h12.9v-11
			v-3.7v-21.8v-3.6v-9.4V237v-6.6v-3.7l-6.8-7.3H311.4z M274.2,305.9h-4.9v-6.7h4.9V305.9z M330.2,305.9h-4.9v-6.7h4.9V305.9z
			 M269.3,241h60.9v15.3h-60.9V241z M330.2,271.8v1.6v21.5h-60.9v-21.5v-1.6H330.2z M330.2,267.8h-60.9v-7.4h60.9V267.8z M269.3,237
			v-6.3h60.9v6.3H269.3z M271,226.5l2.8-3h33.5h4.1h14.3l2.8,3H271z"/>
	</g>
	<text transform="matrix(1 0 0 1 190.7381 282.1168)" class="st3 st6 st7">CAMIONES</text>
	<text transform="matrix(1 0 0 1 194.538 291.3168)" class="st3 st6 st7">DIARIOS</text>
</g>
<g class="st1">
	<g class="st8">
		<circle class="st10" cx="208.8" cy="264.3" r="43.4"/>
	</g>
	<line class="st11" x1="193.7" y1="269.5" x2="223.8" y2="269.5"/>
	<path class="st3" d="M213.4,261.2c0.1-2.3,0.1-8,0-10.1c-0.2-2.4-1.6-3.8-3.9-3.8c-1.4,0-2.5,0.6-3,1.6v-8.7h6.4v-2.4h-8.6
		l-0.1,14.2h2.3c0.2-1.8,1.2-2.3,2.2-2.3c1.2,0,1.9,0.7,1.9,2.2c0.1,1.7,0.1,7.6,0.1,8.8c-0.1,1.6-0.7,2.5-2.2,2.5
		c-1.4,0-2-0.9-2.1-2.5c0-0.4,0-2.5,0-2.8H204c0,1.6,0,1.6,0,3.2c0.2,2.7,1.7,4.3,4.6,4.3C211.6,265.4,213.3,263.6,213.4,261.2"/>
	<text transform="matrix(1 0 0 1 190.3229 281.7816)" class="st3 st6 st12">ESTRELLAS</text>
	<text transform="matrix(1 0 0 1 193.2468 291.0599)" class="st3 st6 st12">ECOSTAR</text>
	<g class="st8">
		<polygon class="st9" points="310.7,233.3 309.6,236.7 306,236.2 308.9,238.6 307.8,241.9 310.7,240.2 313.6,242.7 312.5,239.1 
			315.4,237.5 311.8,237 		"/>
		<polygon class="st9" points="311.8,292 310.7,288.5 309.6,291.7 306,291.2 308.9,293.7 307.8,297 310.7,295.3 313.6,297.8 
			312.5,294.3 315.4,292.5 		"/>
		<polygon class="st9" points="337.2,268.1 333.6,267.6 336.5,270.2 335.4,273.4 338.3,271.7 341.2,274.2 340.1,270.7 343,268.9 
			339.5,268.4 338.3,264.9 		"/>
		<polygon class="st9" points="283.2,263.9 286.1,266.4 285,262.8 287.8,261.1 284.3,260.6 283.2,257 282.1,260.3 278.4,259.8 
			281.4,262.3 280.3,265.6 		"/>
		<polygon class="st9" points="286.8,243.6 285.7,246.9 282.2,246.4 285,248.9 283.9,252.1 286.8,250.4 289.7,252.9 288.6,249.4 
			291.6,247.7 287.9,247.2 		"/>
		<polygon class="st9" points="296.7,234.9 295.6,238.2 292,237.7 294.9,240.1 293.8,243.4 296.7,241.7 299.5,244.2 298.4,240.6 
			301.3,239 297.8,238.5 		"/>
		<polygon class="st9" points="331.2,258.8 334.1,257 337,259.6 335.9,256 338.9,254.3 335.2,253.8 334.1,250.3 333,253.5 
			329.5,253 332.3,255.5 		"/>
		<polygon class="st9" points="324.2,238.8 323.1,242 319.5,241.5 322.4,244 321.3,247.3 324.2,245.5 327.2,248.1 326,244.5 
			328.9,242.8 325.3,242.3 		"/>
		<polygon class="st9" points="287.9,274.7 286.8,271.2 285.7,274.4 282.2,273.9 285,276.4 283.9,279.6 286.8,278 289.7,280.4 
			288.6,276.9 291.6,275.2 		"/>
		<polygon class="st9" points="297.8,285.9 296.7,282.4 295.6,285.6 292,285.1 294.9,287.6 293.8,290.9 296.7,289.2 299.5,291.7 
			298.4,288.1 301.3,286.4 		"/>
		<polygon class="st9" points="331.2,286.3 334.1,284.6 337,287.1 335.9,283.6 338.9,281.8 335.2,281.3 334.1,277.8 333,281 
			329.5,280.5 332.3,283.1 		"/>
		<polygon class="st9" points="325.3,289.8 324.2,286.2 323.1,289.5 319.5,289 322.4,291.5 321.3,294.8 324.2,293 327.2,295.6 
			326,292 328.9,290.3 		"/>
		<path class="st9" d="M329.1,229.4c-5.3,0-11.4-1.1-17.9-3.9c-13-5.7-25.9-7-34.7-7c-7,0-11.4,0.8-11.4,0.8v80.4
			c0,0,4.4-0.8,11.4-0.8c8.8,0,21.7,1.2,34.7,7c6.5,2.8,12.5,3.9,17.9,3.9c16.5,0,27.2-10.1,27.2-10.1v-80.4
			C356.3,219.3,345.7,229.4,329.1,229.4z M352.3,297.8c-3,2.3-11.5,7.9-23.2,7.9c-5.3,0-10.9-1.2-16.2-3.5
			c-13.8-6.1-27.3-7.3-36.3-7.3c-2.9,0-5.3,0.1-7.4,0.3V223c1.8-0.2,4.3-0.3,7.4-0.3l0,0c8.2,0,20.6,1.1,33.1,6.7
			c6.5,2.8,13,4.2,19.5,4.2c10,0,18-3.3,23.2-6.4L352.3,297.8L352.3,297.8z"/>
	</g>
</g>
<g class="st1">
	<g class="st8">
		<path class="st13" d="M208.5,307.1c23.8,0,43.1-19.3,43.1-43.1s-19.3-43.1-43.1-43.1s-43.1,19.3-43.1,43.1
			C165.5,287.9,184.8,307.1,208.5,307.1"/>
		<text transform="matrix(1 0 0 1 194.8883 281.55)" class="st14 st6 st7">PUNTOS</text>
		<text transform="matrix(1 0 0 1 192.4884 290.75)" class="st14 st6 st7">DE VENTA</text>
		<line class="st15" x1="193.4" y1="269.3" x2="223.7" y2="269.3"/>
		<g>
			<path class="st14" d="M240.2,264.6v-2.3h-6.7c1.6-4.6,6.4-10,6.6-16.4c0-0.5,0-3.1,0-3.5c-0.2-2.4-1.2-4.3-4.3-4.3
				s-4.6,1.9-4.7,4.4v3.6h2.3v-3.5c0.1-1.6,0.8-2.2,2.1-2.2c1.4,0,2.1,0.6,2.1,2.5v2.7c-0.2,6.4-4.8,11.5-6.7,16.7v2.3H240.2z"/>
			<polygon class="st14" points="203.5,241.3 203.5,239.2 195,239.2 195,241.4 201.3,241.4 196.4,264.7 198.6,264.7 			"/>
			<path class="st14" d="M182.4,264.7v-25.5h-1.6c-0.5,1-1.5,1.7-4,2v1.9l3.3-0.3v21.9H182.4L182.4,264.7z"/>
			<path class="st14" d="M229.3,241.6c-0.6-2.4-1.9-3.5-4.3-3.5c-2.5,0-4.1,1.4-4.4,3.6c-0.2,1.9-0.3,7.7,0,9.9
				c0.3,1.9,1.6,2.8,3.5,2.8c1.3,0,2.5-0.5,3.1-1.5c0,0.7,0,6.1-0.1,7.4c-0.1,1.5-0.9,2.3-2.1,2.3c-1.3,0-2-0.5-2.1-2.2v-2.1h-2.3
				c0,0.5,0,2.2,0.1,3c0.2,2.2,1.8,3.5,4.1,3.5c2.9,0,4.4-1.5,4.6-4.5c0.1-1.3,0.2-7.1,0.2-9.5C229.6,248.3,229.6,242.9,229.3,241.6
				z M224.9,252.2c-1.3,0-1.9-0.6-2-1.7c-0.1-0.9-0.1-7.2,0-8.1c0.1-1.3,0.9-2,2.1-2c1.3,0,2,0.7,2.1,2.1c0.1,0.9,0.1,6.5,0.1,8
				C227,251.4,226.2,252.2,224.9,252.2z"/>
			<path class="st14" d="M218.4,264.6v-2.3h-6.7c1.6-4.6,6.4-10,6.6-16.4c0-0.5,0-3.1,0-3.5c-0.2-2.4-1.2-4.3-4.3-4.3
				s-4.6,1.9-4.7,4.4v3.6h2.3v-3.5c0.1-1.6,0.8-2.2,2.1-2.2c1.4,0,2.1,0.6,2.1,2.5v2.7c-0.2,6.4-4.8,11.5-6.7,16.7v2.3H218.4z"/>
			<rect x="203.8" y="260.5" class="st14" width="2.9" height="4.2"/>
			<path class="st14" d="M193.9,243.4c-0.2-2.4-1.5-4.3-4.3-4.3c-2.9,0-4.1,1.9-4.4,4.4c-0.1,2.1-0.2,5.9-0.2,8.5
				c0,2.2,0.1,6.7,0.3,8.2c0.3,3.3,1.6,4.7,4.3,4.7c2.6,0,3.9-1.4,4.2-4.7c0.2-2.1,0.3-6.3,0.3-8.3
				C194.1,249.6,194.1,246.2,193.9,243.4z M191.5,260.5c-0.1,1.5-0.6,2.3-1.9,2.3s-1.9-0.9-2-2.3c-0.2-2.3-0.3-6.6-0.3-8.6
				s0-5.6,0.2-8.4c0.1-1.4,0.6-2.4,2-2.4c1.3,0,2,0.9,2.1,2.4c0.1,1.3,0.1,5.4,0.1,8.3C191.8,254.3,191.8,257.1,191.5,260.5z"/>
		</g>
	</g>
	<g class="st8">
		<path class="st9" d="M281.1,288.5c-4.7,0-8.5,3.8-8.5,8.5s3.8,8.5,8.5,8.5s8.5-3.8,8.5-8.5C289.7,292.3,285.8,288.5,281.1,288.5z
			 M281.1,301.5c-2.5,0-4.5-2-4.5-4.5s2-4.5,4.5-4.5s4.5,2,4.5,4.5S283.6,301.5,281.1,301.5z"/>
		<path class="st9" d="M322.3,288.5c-4.7,0-8.5,3.8-8.5,8.5s3.8,8.5,8.5,8.5s8.5-3.8,8.5-8.5S327,288.5,322.3,288.5z M322.3,301.5
			c-2.5,0-4.5-2-4.5-4.5s2-4.5,4.5-4.5s4.5,2,4.5,4.5S324.8,301.5,322.3,301.5z"/>
		<path class="st9" d="M314.8,283.8L314.8,283.8h15.5l10.6-47.1h-26.1h-4h-16.9h-4h-23.5l-5.4-14.1h-10.1v4h7.4l4.3,11.3l10.3,45.8
			H290l0,0h4l0,0h16.9l0,0h3.9V283.8z M314.8,279.8v-10.9h14.7l-2.4,10.9H314.8z M270.6,255.6h19.3v9.3h-17.2L270.6,255.6z
			 M293.9,255.6h16.9v9.3h-16.9V255.6z M314.8,255.6h17.7l-2.1,9.3h-15.6V255.6z M335.9,240.7l-2.4,10.9h-18.6v-10.9H335.9z
			 M310.8,240.7v10.9h-16.9v-10.9H310.8z M289.9,240.7v10.9h-20.2l-2.4-10.9H289.9z M276,279.8l-2.4-10.9h16.3v10.9H276z
			 M293.9,279.8v-10.9h16.9v10.9H293.9z"/>
	</g>
</g>
<g class="st1">
	<g class="st8">
		<path class="st13" d="M208.5,307.7c24,0,43.4-19.4,43.4-43.4s-19.4-43.4-43.4-43.4S165,240.3,165,264.3S184.5,307.7,208.5,307.7"
			/>
		<line class="st15" x1="193.2" y1="269.3" x2="223.7" y2="269.3"/>
		<text transform="matrix(1 0 0 1 186.1091 281.9285)" class="st14 st6 st16">MILLONES DE</text>
		<text transform="matrix(1 0 0 1 180.7702 291.1966)" class="st14 st6 st16">CONSUMIDORES</text>
		<path class="st14" d="M226,260.4c-0.2,1.7-1,2.3-2.2,2.3c-1.3,0-2.2-0.5-2.4-2.1c-0.2-1.3-0.1-7-0.1-8.6c0.2-1.3,1-2.3,2.7-2.3
			c1.4,0,2,0.8,2.1,1.9C226.1,253.2,226.1,259.3,226,260.4 M228.4,261.1c0.3-1.7,0.3-7.3,0-10.4c-0.1-2.2-1.6-3.5-3.5-3.5
			c-1.6,0-3,0.5-3.7,1.9c0-0.8,0-4.6,0.1-7.7c0.1-2,0.7-3.2,2.3-3.2s2.1,1,2.2,2.6c0,0.3,0,1.5,0,2h2.5c0-0.6,0-2.3-0.1-3.1
			c-0.3-2.3-1.5-4-4.7-4s-4.5,2.1-4.8,5.4c-0.1,1.4-0.2,6.4-0.2,9.1c0,2.7,0,8,0.3,10.4c0.5,2.9,2.1,4.3,4.8,4.3
			C226.7,265.1,227.9,263.4,228.4,261.1 M216.1,265v-4.8H213v4.7h0.9l0.1,0.1l-1.3,2.7l1.5,0.5L216.1,265z M208,249.5
			c-0.3,1-1.1,1.9-2.5,1.9s-2.1-0.6-2.2-1.9c-0.1-1-0.1-7.9,0-8.9c0.1-1.4,0.9-2.2,2.3-2.2c1.4,0,2.1,0.7,2.3,2.3
			C208,241.6,208,247.7,208,249.5 M210.4,260.1c0.1-1.4,0.2-7.8,0.2-10.4c0-2.7,0-8.7-0.3-10.1c-0.6-2.6-2.1-3.8-4.7-3.8
			c-2.8,0-4.5,1.5-4.7,3.9c-0.3,2.1-0.3,8.5,0,10.9c0.3,2.1,1.8,3.1,3.8,3.1c1.4,0,2.8-0.5,3.3-1.6c0,0.8,0,6.6-0.1,8.1
			c-0.1,1.6-1,2.5-2.3,2.5c-1.4,0-2.2-0.5-2.3-2.4V258h-2.5c0,0.5,0,2.4,0.1,3.2c0.2,2.4,1.9,3.8,4.4,3.8
			C208.5,265.1,210.1,263.5,210.4,260.1 M198.3,264.9v-2.5h-7.4c1.7-5,7-11,7.3-17.9c0-0.6,0-3.4,0-3.8c-0.2-2.6-1.3-4.6-4.7-4.6
			s-5,2-5.1,4.8v3.9h2.5V241c0.1-1.7,0.9-2.4,2.3-2.4c1.5,0,2.3,0.7,2.3,2.7v3c-0.2,7.1-5.3,12.6-7.4,18.2v2.5h10.2L198.3,264.9
			L198.3,264.9z"/>
	</g>
	<path class="st5" d="M376.3,275.3l-17.5-9.2v-0.4c5.2-2.4,8.7-7.7,8.7-13.5c0-8.2-6.6-14.8-14.8-14.8s-14.8,6.6-14.8,14.8
		c0,5.8,3.4,11.1,8.7,13.5v0.4l-14.7,7.7l-6.2-3.2v-1.5c7.2-3.1,11.8-10.2,11.8-18c0-10.8-8.8-19.6-19.6-19.6
		c-10.8,0-19.6,8.8-19.6,19.6c0,7.9,4.7,14.9,11.8,18v1.5l-6.2,3.2l-14.7-7.7v-0.4c5.2-2.4,8.7-7.7,8.7-13.5
		c0-8.2-6.6-14.8-14.8-14.8s-14.8,6.6-14.8,14.8c0,5.8,3.4,11.1,8.7,13.5v0.4l-17.5,9.2v11.2h26.7v10.8h63.7v-10.8h26.9v-11.2H376.3
		z M341.7,252.3c0-5.9,4.8-10.8,10.8-10.8c5.9,0,10.8,4.8,10.8,10.8c0,4.6-2.9,8.7-7.3,10.2l-1.3,0.5v4.2l-1.9,1.9l-2.5-2.5V263
		l-1.3-0.5C344.7,261,341.7,256.9,341.7,252.3z M302,251.1c0-8.6,7-15.6,15.6-15.6s15.6,7,15.6,15.6c0,6.6-4.2,12.5-10.5,14.7
		l-1.3,0.5v4.9l-3.6,3.6L314,271v-4.7l-1.3-0.5C306.2,263.6,302,257.7,302,251.1z M271.8,252.3c0-5.9,4.8-10.8,10.8-10.8
		c5.9,0,10.8,4.8,10.8,10.8c0,4.6-2.9,8.7-7.3,10.2l-1.3,0.5v3.4l-2.3,2.3l-2.1-2.1V263l-1.3-0.5C274.7,261,271.8,256.9,271.8,252.3
		z M262.9,277.8l15.1-7.9l4.4,4.4l4.5-4.5l12.1,6.3l-12.1,6.3h-24.2v-4.7h0.2V277.8z M345.4,293.2h-55.6v-6.7v-0.9l21.7-11.3
		l6.2,6.2l6.1-6.1l3.4,1.8l0,0l18.1,9.5v0.9L345.4,293.2L345.4,293.2z M372.3,282.5h-24.2l-12.1-6.3l12-6.2l4.8,4.8l4.6-4.6
		l14.7,7.7v4.7h0.2V282.5z"/>
</g>
<g>
	<path class="st10" d="M172.6,218c-12.2,10.3-30,10.3-42.1,0c-12.9,11.6-13.8,31.5-2.2,44.3s31.5,13.8,44.3,2.2
		c12.9-11.6,13.8-31.5,2.2-44.3C174.1,219.4,173.4,218.7,172.6,218L172.6,218z"/>
	<line class="st17" x1="140.7" y1="253.7" x2="162.4" y2="253.7"/>
	<path class="st14" d="M163.4,250.6v-1.7h-5c1.2-3.5,4.8-7.6,5-12.4c0-0.4,0-2.3,0-2.6c-0.1-1.8-0.9-3.2-3.3-3.2
		c-1.8-0.2-3.3,1.1-3.5,2.9c0,0.1,0,0.3,0,0.4v2.7h1.8v-2.6c0-1.2,0.6-1.7,1.6-1.7s1.6,0.5,1.6,1.9v2.1c-0.1,4.9-3.7,8.7-5,12.6v1.7
		L163.4,250.6z M155.1,247.7c0.1-1.7,0.1-5.8,0-7.3c0-1.5-1.1-2.7-2.6-2.8c-0.1,0-0.2,0-0.2,0c-0.9-0.1-1.7,0.4-2.2,1.2v-6.3h4.6
		v-1.8h-6.2V241h1.7c0.1-1.3,0.9-1.7,1.6-1.7c0.9,0,1.4,0.5,1.4,1.6c0.1,1.3,0.1,5.5,0,6.3c-0.1,1.1-0.5,1.8-1.6,1.8
		s-1.5-0.7-1.6-1.8c0-0.3,0-1.8,0-2.1h-1.8c0,1.2,0,1.2,0,2.3c-0.1,1.7,1.2,3.1,2.9,3.2c0.2,0,0.3,0,0.5,0c1.7,0.2,3.3-1.1,3.4-2.8
		C155.1,247.8,155.1,247.8,155.1,247.7 M144,244.1h-3.1l3.1-9.9V244.1z M147.2,245.7v-1.6h-1.5v-13.5h-2.1l-4.2,13.2v1.8h4.6v4.9
		h1.7v-4.9L147.2,245.7z"/>
	<path class="st14" d="M167,261c0-0.7-0.4-1.3-1-1.6l-0.5-0.3c-0.6-0.4-0.8-0.6-0.8-1s0.2-0.7,0.8-0.7s0.8,0.2,0.8,0.6
		c0,0.1,0,0.3,0,0.4h0.6c0-0.2,0-0.4,0-0.6c-0.1-0.6-0.5-1-1.4-1s-1.4,0.5-1.4,1.2c0,0.6,0.4,1.2,1,1.5l0.5,0.3
		c0.6,0.4,0.8,0.6,0.8,1.1s-0.3,0.8-0.8,0.8s-0.8-0.1-0.9-0.5c0-0.1,0-0.4,0-0.5h-0.6c0,0.2,0,0.4,0,0.7c0.1,0.6,0.5,0.9,1.4,0.9
		c0.7,0.1,1.3-0.4,1.4-1C167,261.2,167,261.1,167,261 M162.9,260.4h-1.2c0,0,0.5-2.2,0.6-2.3s0.1-0.5,0.1-0.5s0.1,0.5,0.1,0.5
		C162.4,258.1,162.9,260.4,162.9,260.4 M161.6,260.9h1.5l0.3,1.3h0.6l-1.2-5.4h-0.8l-1.3,5.4h0.6L161.6,260.9z M159.7,256.6h0.5
		l0.6-0.9h-0.6L159.7,256.6z M160.3,256.9h-0.6v5.4h0.6V256.9z M158.3,258.4c0,0.2,0,0.4-0.1,0.6c-0.1,0.2-0.2,0.3-0.4,0.2h-1v-1.9
		h0.9c0.2,0,0.5,0.1,0.5,0.4C158.3,258,158.3,258.2,158.3,258.4 M158.9,258.4c0-0.3,0-0.6-0.1-0.9c-0.1-0.4-0.5-0.6-1-0.6h-1.6v5.4
		h0.6v-2.4h0.9l0.8,2.4h0.6l-0.8-2.5c0.2-0.1,0.4-0.2,0.5-0.4C158.9,259,158.9,258.7,158.9,258.4 M155.7,262.3v-0.6h-1.9v-1.9h1.8
		v-0.6h-1.8v-1.8h1.9v-0.6h-2.5v5.4L155.7,262.3z M151.8,261.4c-0.2,0.2-0.4,0.4-0.7,0.3h-0.8v-4.2h0.8c0.3,0,0.6,0.1,0.7,0.4
		c0.2,0.5,0.2,1.1,0.2,1.6C152.1,260.1,152,260.7,151.8,261.4 M152.4,261.7c0.2-0.4,0.3-0.8,0.3-2.2c0.1-0.7,0-1.4-0.2-2
		c-0.3-0.4-0.7-0.6-1.2-0.6h-1.4v5.4h1.5C151.7,262.3,152.1,262.1,152.4,261.7 M148.4,260.4h-1.2c0,0,0.5-2.2,0.5-2.3
		s0.1-0.5,0.1-0.5s0.1,0.5,0.1,0.5C147.9,258.1,148.4,260.4,148.4,260.4 M147,260.9h1.5l0.3,1.3h0.6l-1.2-5.4h-0.8l-1.3,5.4h0.6
		L147,260.9z M145.7,262.3v-5.4h-0.6v4.1l-1.5-4.1H143v5.4h0.6v-4.1l1.5,4.1H145.7z M141.6,260.4h-1.2c0,0,0.5-2.2,0.5-2.3
		s0.1-0.5,0.1-0.5s0.1,0.5,0.1,0.5C141.1,258.1,141.6,260.4,141.6,260.4 M140.3,260.9h1.5l0.3,1.3h0.6l-1.2-5.4h-0.8l-1.3,5.4h0.6
		L140.3,260.9z M139.1,262.3c0,0,0-0.7,0-1.3v-1.6h-1.6v0.5h1v1.2c-0.1,0.4-0.4,0.7-0.9,0.6c-0.8,0-0.9-0.6-0.9-2.2
		c0-1.6,0.2-2.2,0.9-2.2s0.8,0.6,0.8,1.2h0.6c0-1-0.3-1.8-1.4-1.8s-1.5,0.9-1.5,2.8c0,2.1,0.4,2.7,1.5,2.7c0.4,0,0.8-0.1,1-0.5v0.4
		L139.1,262.3z"/>
	<circle class="st10" cx="151.5" cy="193" r="31.4"/>
	<line class="st17" x1="140.7" y1="196.8" x2="162.4" y2="196.8"/>
	<path class="st14" d="M163.3,190.8c0.1-1.7,0.1-5.7,0-7.3c0-1.5-1.1-2.7-2.6-2.8c-0.1,0-0.2,0-0.2,0c-0.9-0.1-1.7,0.4-2.2,1.2v-6.3
		h4.6v-1.8h-6.2l0,10.3h1.7c0.1-1.3,0.9-1.7,1.6-1.7s1.4,0.5,1.4,1.6c0.1,1.3,0.1,5.5,0,6.3c-0.1,1.1-0.5,1.8-1.6,1.8
		s-1.5-0.7-1.6-1.8c0-0.3,0-1.8,0-2.1h-1.8c0,1.2,0,1.2,0,2.3c-0.1,1.7,1.2,3.1,2.9,3.2c0.2,0,0.3,0,0.5,0c1.7,0.2,3.3-1.1,3.4-2.8
		C163.2,191,163.2,190.9,163.3,190.8 M153.1,183.1c-0.2,0.8-0.9,1.4-1.8,1.3c-0.7,0.1-1.4-0.4-1.5-1.1c0-0.1,0-0.2,0-0.2
		c-0.1-0.7,0-5.4,0-6.1c0-0.8,0.6-1.5,1.4-1.5c0.1,0,0.1,0,0.2,0c1,0,1.5,0.5,1.6,1.6C153,177.7,153,181.9,153.1,183.1 M154.7,190.5
		c0.1-1,0.1-5.3,0.1-7.1c0.1-2.3,0-4.7-0.2-7c-0.4-1.8-2.2-2.9-4-2.5c-1.3,0.3-2.3,1.3-2.6,2.6c-0.2,2.5-0.2,5,0,7.5
		c0.2,1.3,1.3,2.3,2.7,2.1c0.9,0.1,1.8-0.4,2.3-1.1c0,0.5,0,4.6,0,5.6c-0.1,1.1-0.7,1.8-1.6,1.8s-1.5-0.4-1.6-1.7V189h-1.7
		c0,0.4,0,1.6,0.1,2.2c0.1,1.6,1.4,2.7,2.9,2.7c0,0,0.1,0,0.1,0C153.4,193.9,154.5,192.7,154.7,190.5 M143.9,183
		c1.4-0.2,2.1-1.4,2.3-3c0.1-1.1,0.1-2.3,0-3.4c0.1-1.5-1.1-2.9-2.6-2.9c-0.2,0-0.3,0-0.5,0c-1.7-0.1-3.1,1.2-3.1,2.9
		c0,0,0,0.1,0,0.1c0,0.6-0.1,2.6-0.1,2.8h1.7c0-0.1,0-1.9,0-2.5c0-0.8,0.6-1.4,1.3-1.4c0.1,0,0.1,0,0.2,0c0.7-0.1,1.3,0.4,1.4,1.1
		c0,0.1,0,0.2,0,0.2c0.1,1.2,0.1,2.3,0,3.5c-0.2,1.3-0.5,1.9-1.9,2c-0.2,0-1.3,0-1.3,0v1.7c0,0,1.1,0.1,1.3,0.1c1.4,0.1,2,0.8,2.1,2
		c0.1,1.5,0.1,3,0,4.5c0,0.8-0.6,1.6-1.5,1.6c-0.1,0-0.2,0-0.2,0c-0.9,0-1.5-0.4-1.5-1.2s-0.1-3-0.1-3.1h-1.8c0,0.2,0,1.8,0.1,3.3
		c0.2,1.7,1.2,2.7,3.3,2.7c1.8,0.2,3.3-1.1,3.5-2.8c0-0.1,0-0.2,0-0.3c0.1-1.6,0.1-3.2,0-4.9C146.6,184.3,145.5,183.1,143.9,183"/>
	<path class="st14" d="M172.5,212.2v-0.6h-1.9v-1.9h1.8v-0.6h-1.8v-1.8h1.9v-0.6H170v5.4H172.5z M169.3,212.2v-5.4h-0.6v2.4h-1.6
		v-2.4h-0.6v5.4h0.6v-2.4h1.6v2.4H169.3z M165.9,210.4h-0.6c0,0.3,0,0.6-0.1,0.9c-0.1,0.3-0.4,0.5-0.7,0.4c-0.3,0-0.6-0.1-0.8-0.4
		c-0.2-0.6-0.2-1.2-0.2-1.8c0-0.6,0-1.2,0.2-1.7c0.1-0.3,0.4-0.5,0.8-0.4c0.3,0,0.6,0.1,0.7,0.4c0.1,0.3,0.2,0.6,0.2,0.9h0.6
		c0-0.4,0-0.8-0.2-1.1c-0.2-0.5-0.7-0.8-1.3-0.8c-0.5-0.1-1.1,0.2-1.3,0.7c-0.2,0.6-0.3,1.3-0.3,2c0,0.7,0.1,1.4,0.3,2.1
		c0.5,0.7,1.4,0.9,2.1,0.4c0.2-0.2,0.4-0.4,0.5-0.6C165.9,211.1,165.9,210.7,165.9,210.4 M162.5,212.2v-0.6h-1.9v-1.9h1.8v-0.6h-1.8
		v-1.9h1.9v-0.6H160v5.4L162.5,212.2z M159.5,212.2v-0.6h-1.8v-4.8h-0.6v5.4H159.5z M155.3,212.2v-0.6h-1.9v-1.9h1.8v-0.6h-1.8v-1.9
		h1.9v-0.6h-2.5v5.4L155.3,212.2z M151.5,211.3c-0.2,0.2-0.4,0.4-0.7,0.3H150v-4.3h0.8c0.3,0,0.6,0.1,0.7,0.4
		c0.2,0.5,0.2,1.1,0.2,1.6C151.7,210,151.7,210.7,151.5,211.3 M152,211.6c0.2-0.4,0.3-0.8,0.3-2.2c0.1-0.7,0-1.4-0.2-2
		c-0.3-0.4-0.7-0.6-1.2-0.6h-1.4v5.4h1.5C151.3,212.2,151.8,212,152,211.6 M147.5,210.9c0-0.7-0.4-1.3-1-1.6L146,209
		c-0.6-0.4-0.8-0.6-0.8-1.1s0.2-0.7,0.8-0.7s0.8,0.2,0.8,0.6c0,0.1,0,0.3,0,0.4h0.6c0-0.2,0-0.4,0-0.6c-0.1-0.6-0.5-1-1.4-1
		s-1.4,0.5-1.4,1.2c0,0.6,0.4,1.2,1,1.5l0.5,0.3c0.6,0.4,0.8,0.6,0.8,1.1s-0.3,0.8-0.8,0.8s-0.8-0.1-0.9-0.5c0-0.1,0-0.4,0-0.5h-0.6
		c0,0.2,0,0.4,0,0.7c0.1,0.6,0.5,0.9,1.4,0.9c0.7,0.1,1.3-0.4,1.4-1C147.5,211.1,147.5,211,147.5,210.9 M142.7,211.7
		c-0.3,0-0.6-0.2-0.8-0.4c-0.2-0.6-0.2-1.2-0.2-1.8c0-0.6,0-1.2,0.2-1.7c0.1-0.3,0.4-0.5,0.8-0.5c0.3,0,0.6,0.2,0.8,0.5
		c0.1,0.6,0.2,1.1,0.2,1.7c0,0.6,0,1.2-0.2,1.8C143.3,211.6,143,211.7,142.7,211.7 M142.7,206.7c-0.6,0-1.1,0.3-1.3,0.8
		c-0.2,0.6-0.3,1.3-0.3,2c0,0.7,0,1.4,0.3,2c0.2,0.5,0.7,0.8,1.3,0.8c0.6,0.1,1.1-0.3,1.3-0.8c0.2-0.6,0.3-1.3,0.3-2
		c0-0.7,0-1.4-0.2-2C143.8,206.9,143.2,206.6,142.7,206.7 M140,208.3c0,0.2,0,0.4-0.1,0.6c-0.1,0.2-0.2,0.3-0.4,0.2h-1v-1.9h0.9
		c0.2,0,0.5,0.1,0.5,0.4C139.9,207.9,139.9,208.1,140,208.3 M140.5,208.2c0-0.3,0-0.6-0.1-0.9c-0.1-0.4-0.5-0.6-1-0.6h-1.5v5.4h0.6
		v-2.3h0.9l0.8,2.4h0.6l-0.8-2.5c0.2-0.1,0.4-0.2,0.5-0.4C140.6,208.9,140.6,208.6,140.5,208.2 M137.5,207.4v-0.6h-2.9v0.6h1.1v4.8
		h0.6v-4.8H137.5z M134.3,206.8h-0.6v5.4h0.6V206.8z M133.2,212.2v-0.6h-1.8v-4.8h-0.6v5.4H133.2z"/>
	<path class="st14" d="M167.5,205.4v-0.6h-1.9V203h1.8v-0.6h-1.8v-1.8h1.9V200H165v5.4L167.5,205.4z M163.7,204.5
		c-0.2,0.2-0.4,0.4-0.7,0.3h-0.8v-4.2h0.7c0.3,0,0.6,0.1,0.7,0.4c0.2,0.5,0.2,1.1,0.2,1.6C163.9,203.2,163.8,203.9,163.7,204.5
		 M164.2,204.8c0.2-0.4,0.3-0.8,0.3-2.2c0.1-0.7,0-1.4-0.2-2c-0.3-0.4-0.7-0.6-1.2-0.6h-1.4v5.4h1.5
		C163.5,205.4,163.9,205.2,164.2,204.8 M159.7,204.1c0-0.7-0.4-1.3-1-1.6l-0.5-0.3c-0.6-0.4-0.8-0.6-0.8-1.1s0.2-0.7,0.8-0.7
		s0.8,0.2,0.8,0.6c0,0.1,0,0.3,0,0.4h0.6c0-0.2,0-0.4,0-0.6c-0.1-0.6-0.5-1-1.4-1s-1.4,0.5-1.4,1.2c0,0.6,0.4,1.2,1,1.5l0.5,0.3
		c0.6,0.4,0.8,0.6,0.8,1.1s-0.3,0.8-0.8,0.8s-0.8-0.1-0.9-0.5c0-0.1,0-0.4,0-0.5h-0.6c0,0.2,0,0.4,0,0.7c0.1,0.6,0.5,0.9,1.4,0.9
		c0.7,0.1,1.3-0.4,1.4-1C159.7,204.3,159.7,204.2,159.7,204.1 M156.4,205.4v-0.6h-1.9V203h1.8v-0.6h-1.8v-1.8h1.9V200H154v5.4
		L156.4,205.4z M153.2,205.4V200h-0.6v4.1l-1.5-4.1h-0.7v5.4h0.6v-4.1l1.5,4.1H153.2z M148.3,204.9c-0.3,0-0.6-0.2-0.8-0.4
		c-0.2-0.6-0.2-1.2-0.2-1.8c0-0.6,0-1.2,0.2-1.7c0.1-0.3,0.4-0.5,0.8-0.5c0.3,0,0.6,0.2,0.8,0.5c0.1,0.6,0.2,1.1,0.2,1.7
		c0,0.6,0,1.2-0.2,1.8C148.9,204.8,148.6,204.9,148.3,204.9 M148.3,199.9c-0.6-0.1-1.1,0.3-1.3,0.8c-0.2,0.6-0.3,1.3-0.3,2
		c0,0.7,0,1.4,0.3,2c0.2,0.5,0.7,0.8,1.3,0.8c0.6,0.1,1.1-0.3,1.3-0.8c0.2-0.6,0.3-1.3,0.3-2c0-0.7,0-1.4-0.2-2
		C149.4,200.2,148.9,199.8,148.3,199.9 M146.7,205.3v-0.6h-1.8v-4.8h-0.6v5.4H146.7z M143.9,205.3v-0.6h-1.8v-4.8h-0.6v5.4H143.9z
		 M140.8,199.9h-0.6v5.4h0.6V199.9z M139.4,205.3v-5.4h-0.7l-1.1,4.4l-1.1-4.4h-0.7v5.4h0.6v-3.8l0.9,3.8h0.6l1-3.8v3.8H139.4z"/>
	<circle class="st9" cx="212.9" cy="211.4" r="1.9"/>
	<circle class="st9" cx="230.2" cy="211.4" r="1.9"/>
	<circle class="st9" cx="218" cy="237.7" r="1.9"/>
	<circle class="st9" cx="225.1" cy="237.7" r="1.9"/>
	<path class="st9" d="M250.9,210.7c-1.6-2.1-4-3.5-6.6-3.8c-2.1-0.1-4.2,0.5-5.9,1.8v-6.3h11.7v-13.5l-6.6,6.6h-44l-6.6-6.6v13.5
		h11.7v6.1c-1.3-0.9-2.7-1.4-4.3-1.6c-2.8-0.2-5.5,1-8.1,3.6l-0.9,0.9l0.9,0.9c2.4,2.4,5,3.7,7.5,3.7h0.6c2-0.2,3.9-1,5.3-2.4
		l5.9,22.5l-1.6,9.3h23l-1.6-9.3l6-22.7c1.7,1.6,4,2.5,6.3,2.6h0.6c2.6-0.3,5-1.7,6.6-3.8l0.6-0.8L250.9,210.7z M244.6,198l2.9-2.9
		v4.6h-9.1V198L244.6,198z M207.3,198h28.5v11.3l-6.1,23.1h-16.3l-6.1-23.1L207.3,198z M195.6,199.7v-4.6l2.9,2.9h6.2v1.7H195.6z
		 M200.2,213.4c-1.9,0-3.7-0.7-5-2c1.3-1.3,3.1-2,5-2c1.5,0.2,2.9,0.9,4,2C203.1,212.5,201.7,213.2,200.2,213.4L200.2,213.4z
		 M225.4,242.8h-12.3l1.4-7.9h14.1l1.4,7.9H225.4z M244.1,213.4c-1.9,0-3.7-0.7-5-2c1.3-1.3,3.1-2,5-2c1.5,0.2,2.9,0.9,4,2
		C247,212.5,245.6,213.2,244.1,213.4L244.1,213.4z"/>
	<path class="st10" d="M317.8,248.5c17.3,0,31.4-14,31.4-31.4s-14-31.4-31.4-31.4s-31.4,14-31.4,31.4S300.5,248.5,317.8,248.5
		L317.8,248.5"/>
	<line class="st17" x1="309.4" y1="220.6" x2="326.2" y2="220.6"/>
	<path class="st14" d="M326.8,211.6h-3.1l3.1-9.9V211.6z M330.1,213.2v-1.6h-1.5v-13.4h-2.1l-4.2,13.2v1.8h4.6v4.9h1.7v-4.9
		L330.1,213.2z M321.5,218.1v-1.7h-5c1.2-3.5,4.8-7.6,5-12.4c0-0.4,0-2.3,0-2.6c-0.1-1.8-0.9-3.2-3.3-3.2c-1.8-0.2-3.3,1.1-3.5,2.9
		c0,0.1,0,0.3,0,0.4v2.7h1.8v-2.6c0-1.2,0.6-1.7,1.6-1.7s1.6,0.5,1.6,1.9v2.1c-0.1,4.9-3.7,8.7-5,12.6v1.7L321.5,218.1z
		 M310.3,211.6h-3.1l3.1-9.9V211.6z M313.5,213.2v-1.6H312v-13.4h-2.1l-4.2,13.2v1.8h4.6v4.9h1.7v-4.9L313.5,213.2z"/>
	<path class="st14" d="M336.7,234.2h-1.2l0.5-2.3c0-0.1,0.1-0.5,0.1-0.5s0.1,0.5,0.1,0.5S336.7,234.2,336.7,234.2 M335.3,234.8h1.5
		l0.3,1.3h0.6l-1.2-5.4h-0.8l-1.3,5.4h0.6L335.3,234.8z M334.1,234.9v-4.2h-0.6v4.1c0,0.4-0.3,0.7-0.6,0.7c0,0-0.1,0-0.1,0
		c-0.5,0-0.8-0.2-0.8-0.8v-4.1h-0.6v4.2c0,0.9,0.6,1.2,1.4,1.2S334.1,235.7,334.1,234.9 M330.8,236c0,0,0-0.7,0-1.3v-1.6h-1.6v0.5h1
		v1.2c-0.1,0.4-0.4,0.7-0.9,0.6c-0.8,0-0.9-0.6-0.9-2.2s0.2-2.2,0.9-2.2s0.8,0.6,0.8,1.2h0.6c0-1-0.3-1.8-1.4-1.8s-1.5,0.9-1.5,2.8
		c0,2.1,0.4,2.7,1.5,2.7c0.4,0,0.8-0.1,1-0.5v0.4H330.8z M326.7,234.2h-1.2l0.5-2.3c0-0.1,0.1-0.5,0.1-0.5s0.1,0.5,0.1,0.5
		S326.7,234.2,326.7,234.2 M325.3,234.7h1.5l0.3,1.3h0.6l-1.2-5.4h-0.8l-1.3,5.4h0.6L325.3,234.7z M322.9,236.1v-0.6H321v-1.8h1.8
		v-0.6H321v-1.8h1.9v-0.6h-2.5v5.4L322.9,236.1z M319.1,235.2c-0.2,0.2-0.4,0.4-0.7,0.3h-0.8v-4.2h0.8c0.3,0,0.6,0.1,0.7,0.4
		c0.2,0.5,0.2,1.1,0.1,1.6C319.3,233.9,319.3,234.6,319.1,235.2 M319.6,235.5c0.2-0.4,0.3-0.8,0.3-2.2c0.1-0.7,0-1.4-0.2-2
		c-0.3-0.4-0.7-0.6-1.2-0.6H317v5.4h1.5C318.9,236.1,319.4,235.9,319.6,235.5 M315.1,234.8c0-0.7-0.4-1.3-1-1.6l-0.5-0.3
		c-0.6-0.4-0.8-0.6-0.8-1.1s0.2-0.7,0.8-0.7s0.8,0.2,0.8,0.6c0,0.1,0,0.3,0,0.4h0.6c0-0.2,0-0.4,0-0.6c-0.1-0.6-0.5-1-1.4-1
		s-1.4,0.5-1.4,1.2c0,0.6,0.4,1.2,1,1.5l0.5,0.3c0.6,0.4,0.8,0.6,0.8,1.1s-0.3,0.8-0.8,0.8s-0.8-0.1-0.9-0.5c0-0.1,0-0.4,0-0.5h-0.6
		c0,0.2,0,0.4,0,0.7c0.1,0.6,0.5,0.9,1.4,0.9c0.7,0.1,1.3-0.4,1.4-1C315.2,235,315.2,234.9,315.1,234.8 M310.3,235.6
		c-0.3,0-0.6-0.2-0.8-0.4c-0.2-0.6-0.2-1.2-0.2-1.8c0-0.6,0-1.2,0.2-1.7c0.1-0.3,0.4-0.5,0.8-0.5c0.3,0,0.6,0.2,0.8,0.5
		c0.1,0.6,0.2,1.1,0.2,1.7c0,0.6,0,1.2-0.2,1.8C310.9,235.4,310.6,235.6,310.3,235.6 M310.3,230.6c-0.6-0.1-1.1,0.3-1.3,0.8
		c-0.2,0.6-0.3,1.3-0.3,2c0,0.7,0,1.4,0.3,2c0.2,0.5,0.8,0.8,1.3,0.8c0.6,0.1,1.1-0.3,1.3-0.8c0.2-0.6,0.3-1.3,0.3-2
		c0-0.7,0-1.4-0.2-2C311.4,230.8,310.9,230.5,310.3,230.6 M307.6,232.2c0,0.2,0,0.4-0.1,0.6c-0.1,0.2-0.2,0.3-0.4,0.2h-1v-1.9h0.9
		c0.2,0,0.5,0.1,0.5,0.4C307.6,231.8,307.6,232,307.6,232.2 M308.2,232.1c0-0.3,0-0.6-0.1-0.9c-0.1-0.4-0.5-0.6-1-0.6h-1.6v5.4h0.6
		v-2.3h0.9l0.8,2.4h0.6l-0.8-2.5c0.2-0.1,0.4-0.2,0.5-0.4C308.1,232.8,308.2,232.5,308.2,232.1 M305.1,231.3v-0.6h-2.9v0.6h1.1v4.8
		h0.6v-4.8L305.1,231.3z M301.8,230.7h-0.6v5.4h0.6V230.7z M300.7,236.1v-0.6H299v-4.9h-0.6v5.4L300.7,236.1z"/>
	<path class="st14" d="M333.8,229.3v-0.6h-1.9v-1.9h1.8v-0.6h-1.8v-1.8h1.9v-0.6h-2.5v5.4L333.8,229.3z M330,228.4
		c-0.2,0.2-0.4,0.4-0.7,0.3h-0.8v-4.2h0.8c0.3,0,0.6,0.1,0.7,0.4c0.2,0.5,0.2,1.1,0.2,1.6C330.2,227.1,330.2,227.8,330,228.4
		 M330.5,228.7c0.2-0.4,0.3-0.8,0.3-2.2c0.1-0.7,0-1.4-0.2-2c-0.3-0.4-0.7-0.6-1.2-0.6h-1.4v5.4h1.5
		C329.8,229.3,330.3,229.1,330.5,228.7 M326,228c0-0.7-0.4-1.3-1-1.6l-0.5-0.3c-0.6-0.4-0.8-0.6-0.8-1.1s0.2-0.7,0.8-0.7
		s0.8,0.2,0.8,0.6c0,0.1,0,0.3,0,0.4h0.6c0-0.2,0-0.4,0-0.6c-0.1-0.6-0.5-1-1.4-1s-1.4,0.5-1.4,1.2c0,0.6,0.4,1.2,1,1.5l0.5,0.3
		c0.6,0.4,0.8,0.6,0.8,1.1s-0.3,0.8-0.8,0.8s-0.8-0.1-0.9-0.5c0-0.1,0-0.4,0-0.5h-0.6c0,0.2,0,0.4,0,0.7c0.1,0.6,0.5,0.9,1.4,0.9
		c0.7,0.1,1.3-0.4,1.4-1C326,228.2,326,228.1,326,228 M322.8,229.3v-0.6h-1.9v-1.9h1.8v-0.6h-1.8v-1.8h1.9v-0.6h-2.5v5.4
		L322.8,229.3z M319.5,229.3v-5.4h-0.6v4.1l-1.5-4.1h-0.7v5.4h0.6v-4.1l1.5,4.1L319.5,229.3z M314.6,228.8c-0.3,0-0.6-0.2-0.8-0.4
		c-0.2-0.6-0.2-1.2-0.2-1.8c0-0.6,0-1.2,0.2-1.7c0.1-0.3,0.4-0.5,0.8-0.5c0.3,0,0.6,0.2,0.8,0.5c0.1,0.6,0.2,1.1,0.2,1.7
		c0,0.6,0,1.2-0.2,1.8C315.2,228.7,315,228.8,314.6,228.8 M314.6,223.8c-0.6-0.1-1.1,0.3-1.3,0.8c-0.2,0.6-0.3,1.3-0.3,2
		c0,0.7,0,1.4,0.3,2c0.2,0.5,0.8,0.8,1.3,0.8c0.6,0.1,1.1-0.3,1.3-0.8c0.2-0.6,0.3-1.3,0.3-2c0-0.7,0-1.4-0.2-2
		C315.7,224.1,315.2,223.7,314.6,223.8 M313,229.2v-0.5h-1.8v-4.8h-0.6v5.4L313,229.2z M310.2,229.2v-0.5h-1.8v-4.8h-0.6v5.4
		L310.2,229.2z M307.1,223.8h-0.6v5.4h0.6V223.8z M305.7,229.2v-5.4H305l-1.1,4.4l-1.1-4.4h-0.7v5.4h0.6v-3.8l0.9,3.8h0.6l1-3.8v3.8
		H305.7z"/>
	<path class="st9" d="M387.3,187.8c-7.6,7.8-21.8,24.7-21.7,34.9c0.2,13.2,10.1,23.8,22.2,23.8h0.3c12.2-0.2,22-11.1,21.8-24.4
		C409.7,211.9,395,195.4,387.3,187.8z M401.6,237.5c-3.4,4-8.4,6.3-13.6,6.4h-0.2c-10.6,0-19.4-9.5-19.6-21.2
		c-0.1-7.3,9.3-20.5,19.1-31.1c10.1,10.3,19.8,23.3,19.9,30.6C407.4,227.8,405.4,233.2,401.6,237.5L401.6,237.5z"/>
	<path class="st9" d="M375.9,224.2h-2.6c0,7.9,6.5,14.4,14.4,14.4V236C381.2,236,375.9,230.7,375.9,224.2z"/>
	<path class="st10" d="M151.5,368.4c17.3,0,31.4-14,31.4-31.4s-14-31.4-31.4-31.4s-31.4,14-31.4,31.4S134.2,368.4,151.5,368.4
		L151.5,368.4"/>
	<line class="st17" x1="140.7" y1="337.5" x2="162.4" y2="337.5"/>
	<path class="st14" d="M158.3,326.7h-3.1l3.1-9.9V326.7z M161.6,328.3v-1.6H160v-13.4h-2.1l-4.2,13.2v1.8h4.6v4.9h1.7v-4.9H161.6z
		 M152.7,333.2v-3.3h-2.1v3.3h0.6v0.1l-0.9,1.9l1,0.3L152.7,333.2z M147,322.5c-0.2,0.8-0.9,1.4-1.8,1.3c-0.7,0.1-1.4-0.4-1.5-1.1
		c0-0.1,0-0.2,0-0.2c-0.1-0.7,0-5.4,0-6.1c0-0.8,0.6-1.5,1.4-1.5c0.1,0,0.1,0,0.2,0c0.9,0,1.5,0.5,1.6,1.6
		C147,317.1,147,321.4,147,322.5 M148.7,329.9c0.1-1,0.1-5.3,0.1-7.1c0.1-2.3,0-4.7-0.2-7c-0.4-1.8-2.2-2.9-4-2.5
		c-1.3,0.3-2.3,1.3-2.6,2.6c-0.2,2.5-0.2,5,0,7.5c0.2,1.3,1.3,2.3,2.7,2.1c0.9,0.1,1.8-0.4,2.3-1.1c0,0.5,0,4.6,0,5.5
		c-0.1,1.1-0.7,1.8-1.6,1.8s-1.5-0.4-1.6-1.7v-1.6h-1.7c0,0.4,0,1.6,0.1,2.2c0.1,1.6,1.4,2.7,2.9,2.7c0,0,0.1,0,0.1,0
		C147.4,333.3,148.5,332.1,148.7,329.9"/>
	<path class="st14" d="M159,358.9h-1.2l0.5-2.3c0-0.1,0.1-0.5,0.1-0.5s0.1,0.5,0.1,0.5S159,358.9,159,358.9 M157.6,359.4h1.5
		l0.3,1.3h0.6l-1.2-5.4H158l-1.3,5.4h0.6L157.6,359.4z M156.4,359.6v-4.2h-0.6v4.1c0,0.5-0.2,0.7-0.7,0.7c-0.2,0-0.4,0-0.6,0v0.5
		c0.2,0,0.5,0.1,0.7,0c0.6,0.1,1.1-0.3,1.2-0.9C156.4,359.7,156.4,359.7,156.4,359.6 M152.8,360.2c-0.3,0-0.6-0.2-0.8-0.5
		c-0.2-0.6-0.2-1.2-0.2-1.8c0-0.6,0-1.2,0.2-1.7c0.1-0.3,0.4-0.5,0.8-0.5c0.3,0,0.6,0.2,0.8,0.5c0.1,0.6,0.2,1.1,0.2,1.7
		c0,0.6,0,1.2-0.2,1.8C153.4,360.1,153.1,360.3,152.8,360.2 M152.8,355.2c-0.6-0.1-1.1,0.3-1.3,0.8c-0.2,0.6-0.3,1.3-0.3,2
		c0,0.7,0,1.4,0.3,2c0.2,0.5,0.8,0.8,1.3,0.8c0.6,0.1,1.1-0.3,1.3-0.8c0.2-0.6,0.3-1.3,0.3-2c0-0.7,0-1.4-0.2-2
		C153.9,355.5,153.3,355.2,152.8,355.2 M150.8,359.4c0-0.7-0.4-1.3-1-1.5l-0.5-0.3c-0.6-0.4-0.8-0.6-0.8-1.1s0.2-0.7,0.8-0.7
		s0.8,0.2,0.8,0.6c0,0.1,0,0.3,0,0.4h0.6c0-0.2,0-0.4,0-0.5c-0.1-0.6-0.5-1-1.4-1s-1.4,0.5-1.4,1.2c0,0.6,0.4,1.2,1,1.5l0.5,0.3
		c0.6,0.4,0.8,0.6,0.8,1.1s-0.3,0.8-0.8,0.8s-0.8-0.1-0.9-0.5c0-0.1,0-0.4,0-0.5h-0.6c0,0.2,0,0.4,0,0.7c0.1,0.6,0.5,0.9,1.4,0.9
		c0.7,0.1,1.3-0.4,1.4-1C150.8,359.6,150.8,359.5,150.8,359.4 M146.4,355.3h-0.6c0,0-1.1,2.7-1.1,2.8c0-0.1-1-2.8-1-2.8H143l1.3,3.5
		v1.9h0.6v-1.9L146.4,355.3z"/>
	<path class="st14" d="M167.7,348.3h0.5l0.6-0.9h-0.6L167.7,348.3z M169.2,353.9v-0.6h-1.9v-1.9h1.8V351h-1.8v-1.8h1.9v-0.6h-2.5
		v5.4H169.2z M166.2,349.1v-0.6h-2.4v5.4h0.6v-2.4h1.7v-0.6h-1.7v-1.8H166.2z M162.4,352.1h-1.2l0.5-2.3l0.1-0.5
		c0,0,0.1,0.5,0.1,0.5S162.4,352.1,162.4,352.1 M161,352.6h1.5l0.3,1.3h0.6l-1.2-5.4h-0.8l-1.3,5.4h0.6L161,352.6z M160,352.1h-0.6
		c0,0.3,0,0.6-0.1,0.9c-0.1,0.3-0.4,0.5-0.7,0.5c-0.3,0-0.6-0.1-0.8-0.4c-0.2-0.6-0.2-1.2-0.2-1.8c0-0.6,0-1.2,0.2-1.7
		c0.1-0.3,0.4-0.5,0.8-0.4c0.3,0,0.6,0.1,0.7,0.4c0.1,0.3,0.2,0.6,0.2,0.9h0.6c0-0.4,0-0.8-0.2-1.1c-0.2-0.5-0.7-0.8-1.3-0.8
		c-0.6-0.1-1.1,0.2-1.3,0.7c-0.2,0.6-0.3,1.3-0.3,2c0,0.7,0.1,1.4,0.3,2.1c0.2,0.5,0.7,0.7,1.3,0.7c0.6,0.1,1.1-0.3,1.3-0.9
		C160,352.8,160,352.5,160,352.1 M155.3,354v-0.6h-1.9v-1.9h1.8V351h-1.8v-1.8h1.9v-0.6h-2.5v5.4H155.3z M151.4,353.1
		c-0.2,0.2-0.4,0.4-0.7,0.3h-0.8v-4.2h0.8c0.3,0,0.6,0.1,0.7,0.4c0.2,0.5,0.2,1.1,0.2,1.6C151.7,351.8,151.6,352.5,151.4,353.1
		 M151.9,353.4c0.2-0.4,0.3-0.8,0.3-2.2c0.1-0.7,0-1.4-0.2-2c-0.3-0.4-0.7-0.6-1.2-0.6h-1.4v5.4h1.5
		C151.3,354,151.7,353.8,151.9,353.4 M147.5,352.7c0-0.7-0.4-1.3-1-1.6l-0.5-0.3c-0.6-0.4-0.8-0.6-0.8-1.1s0.2-0.7,0.8-0.7
		s0.8,0.2,0.8,0.6c0,0.1,0,0.3,0,0.4h0.6c0-0.2,0-0.4,0-0.5c-0.1-0.6-0.5-1-1.4-1s-1.4,0.5-1.4,1.2c0,0.6,0.4,1.2,1,1.5l0.5,0.3
		c0.6,0.4,0.8,0.6,0.8,1.1s-0.3,0.8-0.8,0.8s-0.8-0.1-0.9-0.5c0-0.1,0-0.4,0-0.5h-0.6c0,0.2,0,0.4,0,0.7c0.1,0.6,0.5,0.9,1.4,0.9
		c0.7,0.1,1.3-0.4,1.4-1C147.5,352.9,147.5,352.8,147.5,352.7 M142.6,353.5c-0.3,0-0.6-0.2-0.8-0.5c-0.2-0.6-0.2-1.2-0.2-1.8
		c0-0.6,0-1.2,0.2-1.7c0.1-0.3,0.4-0.5,0.8-0.5c0.3,0,0.6,0.2,0.8,0.5c0.1,0.6,0.2,1.1,0.2,1.7c0,0.6,0,1.2-0.2,1.8
		C143.2,353.4,143,353.5,142.6,353.5 M142.6,348.5c-0.6-0.1-1.1,0.3-1.3,0.8c-0.2,0.6-0.3,1.3-0.3,2c0,0.7,0,1.4,0.3,2
		c0.2,0.5,0.8,0.8,1.3,0.8c0.6,0.1,1.1-0.3,1.3-0.8c0.2-0.6,0.3-1.3,0.3-2c0-0.7,0-1.4-0.2-2C143.7,348.7,143.2,348.4,142.6,348.5
		 M141,353.9v-0.6h-1.8v-4.8h-0.6v5.4H141z M137.9,348.6h-0.6v5.4h0.6V348.6z M136.9,353.9l-1.5-3l1.5-2.3h-0.7l-1.6,2.5v-2.5H134
		v5.4h0.6v-2l0.3-0.5l1.3,2.5L136.9,353.9z"/>
	<path class="st14" d="M167.5,347.2v-0.6h-1.9v-1.9h1.8v-0.6h-1.8v-1.8h1.9v-0.6H165v5.4H167.5z M163.7,346.3
		c-0.2,0.2-0.4,0.4-0.7,0.3h-0.8v-4.2h0.7c0.3,0,0.6,0.1,0.7,0.4c0.2,0.5,0.2,1.1,0.2,1.6C163.9,345,163.8,345.6,163.7,346.3
		 M164.2,346.6c0.2-0.4,0.3-0.8,0.3-2.2c0.1-0.7,0-1.4-0.2-2c-0.3-0.4-0.7-0.6-1.2-0.6h-1.4v5.4h1.5
		C163.5,347.2,163.9,347,164.2,346.6 M159.7,345.9c0-0.7-0.4-1.3-1-1.6l-0.5-0.3c-0.6-0.4-0.8-0.6-0.8-1.1s0.2-0.7,0.8-0.7
		s0.8,0.2,0.8,0.6c0,0.1,0,0.3,0,0.4h0.6c0-0.2,0-0.4,0-0.5c-0.1-0.6-0.5-1-1.4-1s-1.4,0.5-1.4,1.2c0,0.6,0.4,1.2,1,1.5l0.5,0.3
		c0.6,0.4,0.8,0.6,0.8,1.1s-0.3,0.8-0.8,0.8s-0.8-0.1-0.9-0.5c0-0.1,0-0.4,0-0.5h-0.6c0,0.2,0,0.4,0,0.7c0.1,0.6,0.5,0.9,1.4,0.9
		c0.7,0.1,1.3-0.4,1.4-1C159.7,346.1,159.7,346,159.7,345.9 M156.4,347.1v-0.6h-1.9v-1.9h1.8v-0.6h-1.8v-1.8h1.9v-0.6H154v5.4H156.4
		z M153.2,347.1v-5.4h-0.6v4.1l-1.5-4.1h-0.7v5.4h0.6V343l1.5,4.1H153.2z M148.3,346.7c-0.3,0-0.6-0.2-0.8-0.5
		c-0.2-0.6-0.2-1.2-0.2-1.8c0-0.6,0-1.2,0.2-1.7c0.1-0.3,0.4-0.5,0.8-0.5c0.3,0,0.6,0.2,0.8,0.5c0.1,0.6,0.2,1.1,0.2,1.7
		c0,0.6,0,1.2-0.2,1.8C148.9,346.5,148.6,346.7,148.3,346.7 M148.3,341.7c-0.6-0.1-1.1,0.3-1.3,0.8c-0.2,0.6-0.3,1.3-0.3,2
		c0,0.7,0,1.4,0.3,2c0.2,0.5,0.8,0.8,1.3,0.8c0.6,0.1,1.1-0.3,1.3-0.8c0.2-0.6,0.3-1.3,0.3-2c0-0.7,0-1.4-0.2-2
		C149.4,341.9,148.9,341.6,148.3,341.7 M146.7,347.1v-0.6h-1.8v-4.8h-0.6v5.4H146.7z M143.9,347.1v-0.6h-1.8v-4.8h-0.6v5.4H143.9z
		 M140.8,341.7h-0.6v5.4h0.6V341.7z M139.4,347.1v-5.4h-0.7l-1.1,4.5l-1.1-4.5h-0.7v5.4h0.6v-3.8l0.9,3.8h0.6l1-3.8v3.8H139.4z"/>
	<path class="st9" d="M253.8,310.4c-3.8-1.8-7.9-2.7-12.1-2.7l0,0c-4.9,0-9.7,1.5-13.7,4.4c-3.3,2.4-5.8,5.8-7,9.7
		c-1.1,3.9-0.3,7.4,2,9.8c-1,1.5-1.8,3.2-2.4,4.9c-0.6-1.6-1.4-3-2.3-4.3l0.2-0.2c1.4-2.4,1.6-5.3,0.5-7.8c-1.2-2.8-3.3-5.2-5.9-6.9
		c-3-1.9-6.6-3-10.2-3l0,0c-5.1,0.1-10,1.9-14.1,4.9l-2.4,1.7l2.9,0.8c4.7,1.3,8.5,4.9,11.8,8.1s6.6,6.4,10.3,6.4l0,0
		c2-0.1,3.9-0.8,5.3-2.2c2,3.1,2.9,6.7,2.8,10.4v21.9h2.6v-21.9c-0.1-4,1-8,3.1-11.4l0.6,0.4c1.5,0.8,3.1,1.3,4.8,1.4l0,0
		c5,0,8.2-4.8,11.6-9.8c3.1-4.5,6.5-9.6,11.7-12.2l2.5-1.3L253.8,310.4z M214.8,332.2c-1,0.9-2.2,1.4-3.5,1.5
		c-2.6,0-5.5-2.7-8.5-5.6s-6.4-6.1-10.6-8c3.2-2,6.9-3.1,10.6-3.1l0,0c3.1,0,6.2,0.9,8.9,2.5c2.2,1.3,3.9,3.3,4.9,5.6
		c0.7,1.6,0.7,3.4,0,5c-1.4-1.4-3.2-2.5-5-3.2l-0.8,2.5c1.6,0.6,3,1.5,4.2,2.7L214.8,332.2z M240.1,323.7c-3.2,4.6-5.9,8.6-9.5,8.6
		c-1.2,0-2.4-0.4-3.4-1l-0.5-0.3c1.4-1.8,3.1-3.3,5.1-4.4l-0.6-1.1l-0.6-1.1c-2.3,1.3-4.3,3.1-5.9,5.1c-1.5-2-1.9-4.6-1.1-7
		c1.1-3.3,3.2-6.2,6-8.3c3.5-2.6,7.8-3.9,12.1-3.9l0,0c3,0,5.9,0.6,8.7,1.6C246,314.9,242.9,319.5,240.1,323.7z"/>
	<line class="st18" x1="317.3" y1="334.8" x2="330.6" y2="334.8"/>
	<path class="st10" d="M317.8,368.4c17.3,0,31.4-14,31.4-31.4s-14-31.4-31.4-31.4s-31.4,14-31.4,31.4S300.5,368.4,317.8,368.4
		L317.8,368.4"/>
	<line class="st17" x1="307" y1="342.1" x2="328.7" y2="342.1"/>
	<path class="st14" d="M326.6,335.3c-0.1,1.2-0.7,1.6-1.5,1.6c-0.8,0.1-1.6-0.5-1.7-1.3c0-0.1,0-0.1,0-0.2c-0.1-0.9-0.1-4.8-0.1-5.9
		c0.1-1,0.9-1.7,1.8-1.6c0,0,0,0,0,0c0.7-0.1,1.4,0.4,1.5,1.2c0,0,0,0.1,0,0.1C326.7,330.3,326.7,334.6,326.6,335.3 M328.3,335.8
		c0.2-2.4,0.2-4.8,0-7.2c0-1.3-1-2.4-2.3-2.4c0,0-0.1,0-0.1,0c-1.1-0.1-2.1,0.4-2.6,1.3c0-0.5,0-3.2,0.1-5.2
		c0.1-1.4,0.5-2.2,1.6-2.2s1.4,0.7,1.5,1.8c0,0.2,0,1,0,1.4h1.7c0-0.4,0-1.6,0-2.2c-0.1-1.6-1.4-2.9-3-2.8c-0.1,0-0.1,0-0.2,0
		c-2.2,0-3.2,1.4-3.3,3.8c-0.1,1-0.1,4.4-0.1,6.3c-0.1,2.4,0,4.8,0.2,7.1c0.3,2,1.4,3,3.3,3C326.8,338.7,328.2,337.5,328.3,335.8
		 M319.5,338.4v-19.9h-1.2c-0.4,0.8-1.2,1.3-3.1,1.6v1.5l2.5-0.2v17L319.5,338.4z M311.3,327.7c1.4-0.2,2.1-1.4,2.3-3
		c0.1-1.1,0.1-2.3,0-3.4c0.1-1.5-1.1-2.9-2.6-2.9c-0.2,0-0.3,0-0.5,0c-1.7-0.1-3.1,1.2-3.2,2.8c0,0,0,0.1,0,0.1
		c0,0.6-0.1,2.6-0.1,2.8h1.7c0-0.1,0-1.9,0-2.5c0-0.8,0.6-1.4,1.3-1.4c0.1,0,0.1,0,0.2,0c0.7-0.1,1.3,0.4,1.4,1.1c0,0.1,0,0.2,0,0.2
		c0.1,1.2,0.1,2.3,0,3.5c-0.2,1.3-0.5,1.9-1.9,2c-0.2,0-1.3,0-1.3,0v1.8c0,0,1.1,0,1.3,0.1c1.4,0.1,2,0.8,2.1,2c0.1,1.5,0.1,3,0,4.5
		c0,0.8-0.6,1.6-1.5,1.6c-0.1,0-0.2,0-0.2,0c-0.9,0-1.5-0.4-1.5-1.2s-0.1-3-0.1-3.1h-1.8c0,0.2,0,1.8,0.1,3.3
		c0.2,1.7,1.2,2.7,3.3,2.7c1.8,0.2,3.3-1.1,3.5-2.8c0-0.1,0-0.2,0-0.3c0.1-1.6,0.1-3.2,0-4.9C314,329,312.8,327.7,311.3,327.7"/>
	<path class="st14" d="M327.2,358.1v-5.4h-0.6v2.4H325v-2.4h-0.6v5.4h0.6v-2.4h1.6v2.4H327.2z M324,352.7h-0.6c0,0-0.8,4.1-0.8,4.5
		c0-0.3-0.7-4.5-0.7-4.5h-0.7c0,0-0.7,4.1-0.7,4.5c0-0.3-0.8-4.5-0.8-4.5h-0.6l1,5.4h0.7c0,0,0.7-4,0.7-4.4c0,0.4,0.7,4.4,0.7,4.4
		h0.7L324,352.7z M319.2,358.1l-1.5-3l1.5-2.3h-0.7l-1.6,2.5v-2.5h-0.6v5.4h0.6v-2l0.4-0.5l1.3,2.5L319.2,358.1z M314.4,358.1v-0.6
		h-1.9v-1.8h1.8v-0.6h-1.8v-1.8h1.9v-0.6h-2.5v5.4H314.4z M310.6,357.2c-0.2,0.2-0.4,0.4-0.7,0.3h-0.8v-4.2h0.8
		c0.3,0,0.6,0.1,0.7,0.4c0.2,0.5,0.2,1.1,0.2,1.6C310.8,355.9,310.8,356.5,310.6,357.2 M311.1,357.5c0.2-0.4,0.3-0.8,0.3-2.2
		c0.1-0.7,0-1.4-0.2-2c-0.3-0.4-0.7-0.6-1.2-0.6h-1.4v5.4h1.5C310.4,358.1,310.9,357.9,311.1,357.5"/>
	<path class="st14" d="M329.9,350c0-0.7-0.4-1.3-1-1.6l-0.5-0.3c-0.6-0.4-0.8-0.6-0.8-1.1s0.2-0.7,0.8-0.7s0.8,0.2,0.8,0.6
		c0,0.1,0,0.3,0,0.4h0.6c0-0.2,0-0.4,0-0.5c-0.1-0.6-0.5-1-1.4-1s-1.4,0.5-1.4,1.2c0,0.6,0.4,1.2,1,1.5l0.5,0.3
		c0.6,0.4,0.8,0.6,0.8,1.1s-0.3,0.8-0.8,0.8s-0.8-0.1-0.9-0.5c0-0.1,0-0.4,0-0.5h-0.6c0,0.2,0,0.4,0,0.7c0.1,0.6,0.5,0.9,1.4,0.9
		c0.7,0.1,1.3-0.4,1.4-1C329.9,350.2,329.9,350.1,329.9,350 M326.7,351.3v-0.6h-1.9v-1.9h1.8v-0.6h-1.8v-1.8h1.9v-0.6h-2.5v5.4
		L326.7,351.3z M323.4,351.3v-5.4h-0.6v4.1l-1.5-4.1h-0.7v5.4h0.6v-4.1l1.5,4.1H323.4z M318.5,350.8c-0.3,0-0.6-0.2-0.8-0.5
		c-0.2-0.6-0.2-1.2-0.2-1.8c0-0.6,0-1.2,0.2-1.7c0.1-0.3,0.4-0.5,0.8-0.5c0.3,0,0.6,0.2,0.8,0.5c0.1,0.6,0.2,1.1,0.2,1.7
		c0,0.6,0,1.2-0.2,1.8C319.1,350.7,318.9,350.9,318.5,350.8 M318.5,345.8c-0.6-0.1-1.1,0.3-1.3,0.8c-0.2,0.6-0.3,1.3-0.3,2
		c0,0.7,0,1.4,0.3,2c0.2,0.5,0.8,0.8,1.3,0.8c0.6,0.1,1.1-0.3,1.3-0.8c0.2-0.6,0.3-1.3,0.3-2c0-0.7,0-1.4-0.2-2
		C319.6,346.1,319.1,345.8,318.5,345.8 M316.9,351.2v-0.6h-1.8v-4.8h-0.6v5.4H316.9z M314.1,351.2v-0.6h-1.8v-4.8h-0.6v5.4H314.1z
		 M311,345.9h-0.6v5.4h0.6V345.9z M309.6,351.2v-5.4h-0.7l-1.1,4.5l-1.1-4.5H306v5.4h0.6v-3.8l0.9,3.8h0.6l1-3.8v3.8H309.6z"/>
	<path class="st9" d="M375.2,327.7h2.6c0-5.5,4.4-9.9,9.9-9.9v-2.6C380.8,315.2,375.2,320.8,375.2,327.7z"/>
	<path class="st9" d="M407.6,329.1c-0.2-11.9-9.1-21.4-19.9-21.4h-0.2c-11,0.1-19.8,10-19.6,21.9c0,3.6,2.2,8.1,5.1,12.7l0,0
		c2,3.3,5.8,8.4,5.8,13.5l0,0v2.6l0,0v2.6l0,0v5.3h18v-10.5c0-3.8,2.1-7.5,4-10.6C404.6,339.5,407.7,333.6,407.6,329.1z
		 M381.3,355.8h12.8v2.6h-12.8V355.8z M388.1,363.7h-6.7V361h12.8v2.7H388.1z M398.5,343.7L398.5,343.7c-1.9,2.9-3.3,6.1-4.1,9.4
		h-13.3c-0.7-3-1.8-5.8-3.5-8.3h0.1l-2.6-4c-3.8-5.9-4.7-9.4-4.7-11.3c-0.1-5,1.7-9.9,5-13.6c3-3.5,7.4-5.6,12.1-5.7h0.2
		c9.4,0,17.2,8.4,17.3,18.8C405.1,331.4,404,335.8,398.5,343.7L398.5,343.7z"/>
</g>
</svg>
