<?xml version="1.0" encoding="utf-8"?>
<!-- Generator: Adobe Illustrator 21.1.0, SVG Export Plug-In . SVG Version: 6.00 Build 0)  -->
<svg version="1.1" id="Capa_1" xmlns="http://www.w3.org/2000/svg" xmlns:xlink="http://www.w3.org/1999/xlink" x="0px" y="0px"
	 viewBox="0 0 200 183" style="enable-background:new 0 0 200 183;" xml:space="preserve">
<style type="text/css">
	.st0{fill:#FFFFFF;}
</style>
<title>icono-cliente-grande</title>
<desc>Created with Sketch.</desc>
<g>
	<path class="st0" d="M176.6,134.4L200,29.9H31.9L20.4,0H0v6h16.3l9.1,23.9l23.5,104.5H176.6z M171.8,128.4h-31V99.9h37.4
		L171.8,128.4z M140.7,35.9h51.8l-6.4,28.5h-45.4L140.7,35.9L140.7,35.9z M140.7,70.4h44.1l-5.3,23.5h-38.8L140.7,70.4L140.7,70.4z
		 M94.3,35.9h40.4v28.5H94.3V35.9z M94.3,70.4h40.4v23.5H94.3V70.4z M94.3,99.9h40.4v28.5H94.3V99.9z M32.9,35.9h55.3v28.5H39.3
		L32.9,35.9z M40.7,70.4h47.6v23.5H45.9L40.7,70.4z M88.3,99.9v28.5H53.7l-6.4-28.5C47.3,99.9,88.3,99.9,88.3,99.9z"/>
	<path class="st0" d="M158.7,144.9c-10.4,0-18.9,8.5-18.9,18.9s8.5,18.9,18.9,18.9s18.9-8.5,18.9-18.9
		C177.6,153.3,169.1,144.9,158.7,144.9z M158.7,176.7c-7.1,0-12.9-5.8-12.9-12.9s5.8-12.9,12.9-12.9s12.9,5.8,12.9,12.9
		C171.6,170.9,165.8,176.7,158.7,176.7z"/>
	<path class="st0" d="M67.3,144.9c-10.4,0-18.9,8.5-18.9,18.9s8.5,18.9,18.9,18.9s18.9-8.5,18.9-18.9
		C86.2,153.3,77.8,144.9,67.3,144.9z M67.3,176.7c-7.1,0-12.9-5.8-12.9-12.9s5.8-12.9,12.9-12.9s12.9,5.8,12.9,12.9
		S74.4,176.7,67.3,176.7z"/>
</g>
</svg>
