<?xml version="1.0" encoding="utf-8"?>
<!-- Generator: Adobe Illustrator 21.1.0, SVG Export Plug-In . SVG Version: 6.00 Build 0)  -->
<svg version="1.1" id="Capa_1" xmlns="http://www.w3.org/2000/svg" xmlns:xlink="http://www.w3.org/1999/xlink" x="0px" y="0px"
	 viewBox="0 0 202 185" style="enable-background:new 0 0 202 185;" xml:space="preserve">
<style type="text/css">
	.st0{fill:#FFFFFF;}
</style>
<title>icono-aprovisionamiento-grande</title>
<desc>Created with Sketch.</desc>
<g id="Visual-cadena-de-valor-1280">
	<g id="Nuestro-compromiso_x2F_Cadena-de-valor_x2F_Cadena-de-valor-1280-3" transform="translate(-870.000000, -953.000000)">
		<g id="icono-aprovisionamiento-grande" transform="translate(870.000000, 953.000000)">
			<g id="Clip-2">
			</g>
			<path id="Fill-1" class="st0" d="M193.4,68.5c-2.6-2.7-8.2-7.6-15.7-8.1c-6.4-0.5-12.9,2.3-19.5,8.1c6.6,5.9,13.1,8.6,19.5,8.1
				C185.2,76,190.9,71.2,193.4,68.5L193.4,68.5z M132.9,178.4l-5.6-32.6h-13.2h-4.6h-35l-5.6,32.6h40.6h4.6H132.9z M43.8,68.5
				c-2.6-2.7-8.2-7.6-15.7-8.1c-6.4-0.5-12.9,2.3-19.5,8.1c6.6,5.9,13.1,8.6,19.5,8.1C35.6,76,41.2,71.2,43.8,68.5L43.8,68.5z
				 M50.8,61.3l20.7,78.5h37.9h4.6h16.1l20.7-78.5V21.2h-100V61.3z M201.1,68.5l-1.3,1.8c-0.3,0.5-8.4,11.3-21.5,12.3
				c-0.7,0.1-1.3,0.1-2,0.1c-7.5,0-15-3.3-22.2-9.9l-20.2,76.4l6.1,35.3h-25.9h-4.6H61.6l6.1-35.3l-20-76.1c-3.4,3.4-10,8.8-19,9.5
				c-0.7,0.1-1.3,0.1-2,0.1c-8.3,0-16.5-4-24.6-12.1L0,68.5l2.1-2.1c8.6-8.6,17.6-12.7,26.5-12c6.9,0.5,12.4,3.8,16.1,6.8v-40H22.8
				l-17-17L10.1,0l15.2,15.2h19.5h3h106.1h3h19.5L191.6,0l4.2,4.2l-17,17h-21.9v40.6c7-5.5,14.2-8,21.4-7.4
				c13.1,1,21.2,11.9,21.5,12.3L201.1,68.5z M112.9,151.5c-3.6,0-6.5,2.9-6.5,6.5s2.9,6.5,6.5,6.5s6.5-2.9,6.5-6.5
				S116.5,151.5,112.9,151.5L112.9,151.5z M88.8,151.5c-3.6,0-6.5,2.9-6.5,6.5s2.9,6.5,6.5,6.5s6.5-2.9,6.5-6.5
				C95.2,154.4,92.3,151.5,88.8,151.5L88.8,151.5z M130.3,75c3.6,0,6.5-2.9,6.5-6.5s-2.9-6.5-6.5-6.5c-3.6,0-6.5,2.9-6.5,6.5
				S126.7,75,130.3,75L130.3,75z M71.4,75c-3.6,0-6.5-2.9-6.5-6.5s2.9-6.5,6.5-6.5s6.5,2.9,6.5,6.5S75,75,71.4,75L71.4,75z"/>
		</g>
	</g>
</g>
</svg>
