<?xml version="1.0" encoding="utf-8"?>
<!-- Generator: Adobe Illustrator 21.1.0, SVG Export Plug-In . SVG Version: 6.00 Build 0)  -->
<svg version="1.1" id="Capa_1" xmlns="http://www.w3.org/2000/svg" xmlns:xlink="http://www.w3.org/1999/xlink" x="0px" y="0px"
	 viewBox="0 0 200 225" style="enable-background:new 0 0 200 225;" xml:space="preserve">
<style type="text/css">
	.st0{fill:#FFFFFF;}
</style>
<title>icono-logistica-produccion-grande</title>
<desc>Created with Sketch.</desc>
<g id="Visual-cadena-de-valor-1280">
	<g id="Nuestro-compromiso_x2F_Cadena-de-valor_x2F_Cadena-de-valor-1280-3" transform="translate(-213.000000, -1264.000000)">
		<g id="icono-logistica-produccion-grande" transform="translate(213.000000, 1264.000000)">
			<g id="Clip-2">
			</g>
			<path id="Fill-1" class="st0" d="M102.2,64.8h-4.5L98.2,53h3.5L102.2,64.8z M101.3,41.3h-2.5l0.5-11.8h1.5L101.3,41.3z
				 M100.3,17.8h-0.5l0.3-6L100.3,17.8z M101.1,155.6c-0.3-0.1-0.7-0.2-1.1-0.2s-0.7,0.1-1.1,0.2L52,173.7l47.9-70.2l47.9,70.2
				L101.1,155.6z M102.5,96.5c-0.6-0.8-1.5-1.3-2.5-1.3s-1.9,0.5-2.5,1.3l-55.9,81.8c-0.7,1.1-0.7,2.5,0.1,3.6
				c0.8,1,2.2,1.4,3.4,0.9l54.8-21.2l54.8,21.2c0.4,0.1,0.7,0.2,1.1,0.2c0.9,0,1.8-0.4,2.4-1.1c0.8-1,0.9-2.5,0.1-3.6L102.5,96.5z
				 M181.2,184.6c-0.1,0.1-0.3,0.2-0.4,0.4C180.9,184.8,181.1,184.7,181.2,184.6L181.2,184.6z M100,205.5c-19,0-37.1-3.4-52.2-9.8
				c-14-5.9-25.2-14.2-32.6-24c-8.7-11.6-11.3-24.4-7.6-37.1c8.2-27.9,48-49,92.4-49s84.1,21.1,92.4,49c3.7,12.6,1.1,25.5-7.6,37.1
				c-7.3,9.8-18.6,18.1-32.6,24C137.1,202.1,119,205.5,100,205.5L100,205.5z M49.5,88.9L49.5,88.9L49.5,88.9L49.5,88.9z M147.1,87.6
				L147.1,87.6L147.1,87.6L147.1,87.6z M183.4,182.5c14.1-14.1,20-31.8,14.8-49.5c-5.7-19.3-23.9-34.8-47.5-44l0,0L120.2,2
				c-0.5-1.6-2.3-2.4-3.8-1.8c-1.6,0.5-2.4,2.3-1.8,3.8l28.8,82.4l0,0c-12.6-4.1-26.4-6.4-40.5-6.7l-0.1-3.1h-5.5l-0.1,3.1
				c-15.4,0.3-30.4,3.1-43.9,7.8l0,0L82.5,4c0.5-1.6-0.3-3.3-1.8-3.8C79-0.4,77.3,0.4,76.8,2L45.9,90.4l0,0
				C24,99.7,7.3,114.7,1.9,133c-5,16.8,0,33.5,12.6,47.3l0,0l-14,39.8c-0.5,1.6,0.3,3.3,1.8,3.8c0.3,0.1,0.7,0.2,1,0.2
				c1.2,0,2.4-0.8,2.8-2l13-37.2c17.5,15.8,45.8,26.6,80.8,26.6c33.5,0,60.9-9.8,78.5-24.6l12.3,35.2c0.4,1.2,1.6,2,2.8,2
				c0.3,0,0.7-0.1,1-0.2c1.6-0.5,2.4-2.3,1.8-3.8L183.4,182.5z"/>
		</g>
	</g>
</g>
</svg>
