<?xml version="1.0" encoding="utf-8"?>
<!-- Generator: Adobe Illustrator 21.1.0, SVG Export Plug-In . SVG Version: 6.00 Build 0)  -->
<svg version="1.1" id="Capa_1" xmlns="http://www.w3.org/2000/svg" xmlns:xlink="http://www.w3.org/1999/xlink" x="0px" y="0px"
	 viewBox="0 0 173 201" style="enable-background:new 0 0 173 201;" xml:space="preserve">
<style type="text/css">
	.st0{fill:#FFFFFF;}
</style>
<title>icono-logistica-larga-grande</title>
<desc>Created with Sketch.</desc>
<g>
	<rect x="64.6" y="146.7" class="st0" width="43" height="6"/>
	<path class="st0" d="M55.2,127.2h-21v25.5h21V127.2z M49.2,146.7h-9v-13.5h9V146.7z"/>
	<path class="st0" d="M137.9,127.2h-21v25.5h21V127.2z M131.9,146.7h-9v-13.5h9V146.7z"/>
	<rect x="64.6" y="127.2" class="st0" width="43" height="6"/>
	<rect y="49" class="st0" width="6" height="37.7"/>
	<path class="st0" d="M111.9,0h-9.1H24.6l-15,16.2v1.6v6.6v87.3v8.1v56.6v24.4h28.6v-24.4H134v24.4h28.6v-30.3v-50.7v-5.1v-6V90.8
		V39.1V24.4v-8.2L147.6,0H111.9z M32.2,194.8H15.6v-18.3h16.6V194.8z M156.6,194.8H140v-18.3h16.6V194.8z M156.6,119.8v50.6h-141
		v-50.6v-5.1h141V119.8z M156.6,108.7h-141V90.8h141V108.7z M156.6,84.8h-141V45.1h141V84.8z M156.6,39.1h-141V24.4h141V39.1z
		 M17.8,16.2L27.2,6h75.6h9.1h33l9.5,10.2H17.8z"/>
	<rect x="166.2" y="49" class="st0" width="6" height="37.7"/>
</g>
</svg>
