<?xml version="1.0" encoding="utf-8"?>
<!-- Generator: Adobe Illustrator 21.1.0, SVG Export Plug-In . SVG Version: 6.00 Build 0)  -->
<svg version="1.1" id="Capa_1" xmlns="http://www.w3.org/2000/svg" xmlns:xlink="http://www.w3.org/1999/xlink" x="0px" y="0px"
	 viewBox="0 0 173 188" style="enable-background:new 0 0 173 188;" xml:space="preserve">
<style type="text/css">
	.st0{fill:#FFFFFF;}
</style>
<title>icono-logistica-corta-grande</title>
<desc>Created with Sketch.</desc>
<g>
	<rect y="75.8" class="st0" width="6" height="23.2"/>
	<rect x="166.2" y="75.8" class="st0" width="6" height="23.2"/>
	<path class="st0" d="M9.6,98.3v8.1V163v24.4h28.6V163H134v24.4h28.6V163v-6v-11.7v-6v-32.9v-8.1V0H9.6V98.3z M156.6,181.4H140V163
		h16.6V181.4z M15.6,6h141v64.7L150,40.3h-18.1V26.4l-8.7-9.4H49.1l-8.7,9.4v13.9H22.2l-6.6,30.4V6z M145.1,46.3l10,46H17l10-46
		H145.1z M46.3,40.2V28.7l5.4-5.8h68.8l5.4,5.8v11.5H46.3z M15.6,106.4v-8.1h141v8.1v13.3h-30.1H45.7H15.6V106.4z M153.6,125.7v13.5
		h-30.7v-13.5H153.6z M116.9,125.7v13.5H55.3v-13.5H116.9z M49.2,125.7v13.5H18.7v-13.5H49.2z M15.6,145.2h39.7h61.6h39.7V157H134
		H38.1H15.6V145.2z M15.6,163h16.6v18.4H15.6V163z"/>
</g>
</svg>
