<?xml version="1.0" encoding="utf-8"?>
<!-- Generator: Adobe Illustrator 21.1.0, SVG Export Plug-In . SVG Version: 6.00 Build 0)  -->
<svg version="1.1" id="Capa_1" xmlns="http://www.w3.org/2000/svg" xmlns:xlink="http://www.w3.org/1999/xlink" x="0px" y="0px"
	 viewBox="0 0 530 530" style="enable-background:new 0 0 530 530;" xml:space="preserve">
<style type="text/css">
	.st0{display:none;}
	.st1{display:inline;fill:#EB2C24;}
	.st2{display:inline;fill:#FFFFFF;}
	.st3{display:inline;fill:none;stroke:#FFFFFF;stroke-width:1.5283;}
	.st4{font-family:'Oswald-Regular';}
	.st5{font-size:9.2075px;}
	.st6{display:inline;}
	.st7{fill:#706F6F;}
	.st8{display:inline;fill:#706F6F;}
	.st9{fill:#EB2C24;}
	.st10{fill:#FFFFFF;}
	.st11{fill:none;stroke:#FFFFFF;stroke-width:1.5283;}
	.st12{font-size:9.2755px;}
	.st13{opacity:0.6;fill:#FFFFFF;enable-background:new    ;}
	.st14{fill:#E31F13;}
	.st15{fill:none;stroke:#FFFFFF;stroke-width:1.6827;}
</style>
<g class="st0">
	<path class="st1" d="M208.5,307.7c23.8,0,43.1-19.3,43.1-43.1s-19.3-43.1-43.1-43.1s-43.1,19.3-43.1,43.1
		C165.4,288.5,184.7,307.7,208.5,307.7"/>
	<path class="st2" d="M217.7,265.3v-2.4h-7c1.7-4.8,6.7-10.5,6.9-17.3c0-0.6,0-3.3,0-3.7c-0.2-2.5-1.2-4.5-4.5-4.5s-4.8,2-4.9,4.6
		v3.8h2.5v-3.6c0.1-1.6,0.8-2.4,2.3-2.4c1.4,0,2.2,0.7,2.2,2.6v2.9c-0.2,6.8-5.1,12.1-7,17.5v2.4h9.5V265.3z M205.3,265.3v-27.7
		h-1.7c-0.6,1.1-1.7,1.8-4.3,2.2v2.1l3.5-0.3v23.8h2.5V265.3z"/>
	<line class="st3" x1="193.3" y1="269.9" x2="223.6" y2="269.9"/>
	<text transform="matrix(1 0 0 1 186.2961 282.1168)" class="st2 st4 st5">MILLONES DE</text>
	<text transform="matrix(1 0 0 1 179.996 291.3168)" class="st2 st4 st5">KM RECORRÍDOS</text>
	<g class="st6">
		<path class="st7" d="M351.2,275.2c-2.5-8.5-10.4-15.5-20.8-19.7l-12.2-35h-4.3l11.6,33.3c-5.5-1.7-11.4-2.6-17.5-2.8l-0.2-4.4
			h-2.5l-0.2,4.4c-6.6,0.1-13.1,1.3-19,3.3l11.8-33.8h-4.3l-12.5,35.7c-9.6,4.3-16.8,10.9-19.2,19c-2.2,7.4-0.1,14.8,5.2,20.9
			l-5.3,15.3h4.3l4.2-12.1c8,6.9,20.6,11.6,36.2,11.6c14.9,0,27.1-4.3,35.2-10.7l3.9,11.3h4.3l-5-14.2
			C351,290.9,353.5,283.1,351.2,275.2z M306.6,306.9c-16.3,0-30.7-5.7-37.5-14.8c-3.7-4.9-4.8-10.4-3.2-15.7
			c3.6-12.2,21.1-21.3,40.7-21.3s37.1,9.2,40.7,21.3c1.6,5.3,0.5,10.8-3.2,15.7C337.3,301.2,322.9,306.9,306.6,306.9z"/>
		<path class="st7" d="M308.2,258.3c-0.4-0.6-1-0.9-1.7-0.9s-1.3,0.3-1.7,0.9l-25.3,37.2c-0.5,0.7-0.5,1.7,0.1,2.4s1.5,1,2.3,0.6
			l24.7-9.5l24.7,9.5c0.2,0.1,0.5,0.1,0.7,0.1c0.6,0,1.2-0.3,1.6-0.8c0.5-0.7,0.6-1.7,0.1-2.4L308.2,258.3z M307.3,284.9
			c-0.2-0.1-0.5-0.1-0.7-0.1s-0.5,0-0.7,0.1l-19.3,7.5l20.1-29.4l20.1,29.4L307.3,284.9z"/>
		<polygon class="st7" points="306.6,220.5 306.3,226.6 306.9,226.6 		"/>
		<polygon class="st7" points="307.2,233.3 306,233.3 305.7,240 307.5,240 		"/>
	</g>
</g>
<g class="st0">
	<path class="st1" d="M208.5,307.5c23.8,0,43.1-19.3,43.1-43.1s-19.3-43.1-43.1-43.1s-43.1,19.3-43.1,43.1
		C165.4,288.3,184.7,307.5,208.5,307.5"/>
	<path class="st2" d="M230,239.7v-2.3h-9.3v2.4h6.9l-5.4,25.3h2.5L230,239.7z M218.5,265.1v-27.7h-1.7c-0.6,1.1-1.7,1.8-4.3,2.2v2.1
		l3.5-0.3v23.8h2.5V265.1z M207.7,256.1h-4.3l4.3-13.7V256.1z M212.2,258.3V256H210v-18.7h-2.9l-5.9,18.4v2.5h6.4v6.8h2.4v-6.8
		L212.2,258.3L212.2,258.3z M199.9,260.5h-3.1v4.5h3.1V260.5z M193.3,265.1v-27.7h-1.7c-0.6,1.1-1.7,1.8-4.3,2.2v2.1l3.5-0.3v23.8
		h2.5V265.1z"/>
	<line class="st3" x1="193.3" y1="269.7" x2="223.6" y2="269.7"/>
	<path class="st8" d="M316.8,300.1v-64.9l-0.4-0.7l-3.8-6.4v-1.5v-7.1h-37.9v8.7l-6.2,14l0,0l-0.7,1.6v2.4v63.4h33.9h2.7l0,0l1.3-1
		l0,0L316.8,300.1z M312.8,298.1l-7.1,5.4v-58.4l7.1-5.4V298.1z M312.2,235.1l-3.4,2.6l2.1-4.8L312.2,235.1z M278.7,223.4h29.9v3.1
		h-29.9V223.4z M278,230.6h29.5l-5.1,11.5h-29.5L278,230.6z M301.7,305.5h-29.9v-59.4h29.9V305.5z"/>
	<text transform="matrix(1 0 0 1 186.4806 281.9668)" class="st2 st4 st5">MILLONES DE</text>
	<text transform="matrix(1 0 0 1 193.4806 291.1668)" class="st2 st4 st5">ENVASES</text>
</g>
<g class="st0">
	<path class="st1" d="M208.5,307.7c23.8,0,43.1-19.3,43.1-43.1s-19.3-43.1-43.1-43.1s-43.1,19.3-43.1,43.1
		C165.5,288.5,184.7,307.7,208.5,307.7"/>
	<path class="st2" d="M222.9,251.3c0,2.7,0,5.7-0.3,9.4c-0.1,1.6-0.7,2.5-2.1,2.5s-2-1-2.2-2.5c-0.2-2.5-0.3-7.2-0.3-9.3
		c0-2.2,0-6,0.2-9.1c0.1-1.5,0.7-2.6,2.2-2.6s2.2,1,2.3,2.6C222.8,243.7,222.9,248.2,222.9,251.3 M220.5,237.4
		c-3.2,0-4.5,2.1-4.8,4.8c-0.1,2.3-0.2,6.5-0.2,9.2c0,2.4,0.1,7.3,0.3,9c0.3,3.6,1.7,5.1,4.6,5.1c2.8,0,4.3-1.6,4.6-5.1
		c0.2-2.3,0.3-6.8,0.3-9c0-2.4,0-6.1-0.2-9.2C224.9,239.5,223.6,237.4,220.5,237.4 M210.8,251.3c0,2.7,0,5.7-0.3,9.4
		c-0.1,1.6-0.7,2.5-2.1,2.5s-2-1-2.2-2.5c-0.2-2.5-0.3-7.2-0.3-9.3c0-2.2,0-6,0.2-9.1c0.1-1.5,0.7-2.6,2.2-2.6s2.2,1,2.3,2.6
		C210.7,243.7,210.8,248.2,210.8,251.3 M208.4,237.4c-3.2,0-4.5,2.1-4.8,4.8c-0.1,2.3-0.2,6.5-0.2,9.2c0,2.4,0.1,7.3,0.3,9
		c0.3,3.6,1.7,5.1,4.6,5.1c2.8,0,4.3-1.6,4.6-5.1c0.2-2.3,0.3-6.8,0.3-9c0-2.4,0-6.1-0.2-9.2C212.9,239.5,211.5,237.4,208.4,237.4
		 M198.7,261.1c-0.2,1.6-0.9,2.2-2.2,2.2c-1.2,0-2.1-0.5-2.3-2.1c-0.2-1.2-0.1-6.7-0.1-8.3c0.2-1.3,1-2.3,2.6-2.3
		c1.3,0,1.9,0.7,2,1.8C198.8,254,198.8,260,198.7,261.1 M201.1,261.7c0.3-1.6,0.2-6.9,0-10c-0.1-2.2-1.5-3.4-3.4-3.4
		c-1.6,0-2.9,0.5-3.6,1.9c0-0.7,0-4.5,0.1-7.3c0.1-2,0.7-3.1,2.3-3.1s2,0.9,2.2,2.6c0,0.3,0,1.4,0,1.9h2.4c0-0.6,0-2.2-0.1-3
		c-0.3-2.2-1.5-3.9-4.5-3.9c-3.1,0-4.4,2-4.6,5.2c-0.1,1.4-0.2,6.2-0.2,8.7c0,2.6,0,7.7,0.3,10c0.5,2.8,2,4.1,4.6,4.1
		C199.4,265.5,200.6,263.8,201.1,261.7"/>
	<line class="st3" x1="193.4" y1="269.9" x2="223.7" y2="269.9"/>
	<g class="st6">
		<rect x="335.2" y="241.5" class="st7" width="4" height="17"/>
		<rect x="260.3" y="241.5" class="st7" width="4" height="17"/>
		<rect x="290.1" y="284.9" class="st7" width="19.4" height="4"/>
		<rect x="290.1" y="276.1" class="st7" width="19.4" height="4"/>
		<path class="st7" d="M286.5,276.1h-10.8v12.8h10.8V276.1z M282.5,284.9h-2.8v-4.8h2.8V284.9z"/>
		<path class="st7" d="M323.8,276.1H313v12.8h10.8V276.1z M319.7,284.9h-2.8v-4.8h2.8V284.9z"/>
		<path class="st7" d="M311.4,219.4h-4.1h-35.2l-6.8,7.3v0.7v3l0,0v6.6v23.3v7.4v2v2v1.6v21.8v3.7v11h12.9v-11h43.2v11h12.9v-11
			v-3.7v-21.8v-3.6v-9.4V237v-6.6v-3.7l-6.8-7.3H311.4z M274.2,305.9h-4.9v-6.7h4.9V305.9z M330.2,305.9h-4.9v-6.7h4.9V305.9z
			 M269.3,241h60.9v15.3h-60.9V241z M330.2,271.8v1.6v21.5h-60.9v-21.5v-1.6H330.2z M330.2,267.8h-60.9v-7.4h60.9V267.8z M269.3,237
			v-6.3h60.9v6.3H269.3z M271,226.5l2.8-3h33.5h4.1h14.3l2.8,3H271z"/>
	</g>
	<text transform="matrix(1 0 0 1 190.7381 282.1168)" class="st2 st4 st5">CAMIONES</text>
	<text transform="matrix(1 0 0 1 194.538 291.3168)" class="st2 st4 st5">DIARIOS</text>
</g>
<g class="st0">
	<g class="st6">
		<path class="st9" d="M208.5,307.1c23.8,0,43.1-19.3,43.1-43.1s-19.3-43.1-43.1-43.1s-43.1,19.3-43.1,43.1
			C165.5,287.9,184.8,307.1,208.5,307.1"/>
		<text transform="matrix(1 0 0 1 194.8883 281.55)" class="st10 st4 st5">PUNTOS</text>
		<text transform="matrix(1 0 0 1 192.4884 290.75)" class="st10 st4 st5">DE VENTA</text>
		<line class="st11" x1="193.4" y1="269.3" x2="223.7" y2="269.3"/>
		<g>
			<path class="st10" d="M240.2,264.6v-2.3h-6.7c1.6-4.6,6.4-10,6.6-16.4c0-0.5,0-3.1,0-3.5c-0.2-2.4-1.2-4.3-4.3-4.3
				s-4.6,1.9-4.7,4.4v3.6h2.3v-3.5c0.1-1.6,0.8-2.2,2.1-2.2c1.4,0,2.1,0.6,2.1,2.5v2.7c-0.2,6.4-4.8,11.5-6.7,16.7v2.3H240.2z"/>
			<polygon class="st10" points="203.5,241.3 203.5,239.2 195,239.2 195,241.4 201.3,241.4 196.4,264.7 198.6,264.7 			"/>
			<path class="st10" d="M182.4,264.7v-25.5h-1.6c-0.5,1-1.5,1.7-4,2v1.9l3.3-0.3v21.9H182.4L182.4,264.7z"/>
			<path class="st10" d="M229.3,241.6c-0.6-2.4-1.9-3.5-4.3-3.5c-2.5,0-4.1,1.4-4.4,3.6c-0.2,1.9-0.3,7.7,0,9.9
				c0.3,1.9,1.6,2.8,3.5,2.8c1.3,0,2.5-0.5,3.1-1.5c0,0.7,0,6.1-0.1,7.4c-0.1,1.5-0.9,2.3-2.1,2.3c-1.3,0-2-0.5-2.1-2.2v-2.1h-2.3
				c0,0.5,0,2.2,0.1,3c0.2,2.2,1.8,3.5,4.1,3.5c2.9,0,4.4-1.5,4.6-4.5c0.1-1.3,0.2-7.1,0.2-9.5C229.6,248.3,229.6,242.9,229.3,241.6
				z M224.9,252.2c-1.3,0-1.9-0.6-2-1.7c-0.1-0.9-0.1-7.2,0-8.1c0.1-1.3,0.9-2,2.1-2c1.3,0,2,0.7,2.1,2.1c0.1,0.9,0.1,6.5,0.1,8
				C227,251.4,226.2,252.2,224.9,252.2z"/>
			<path class="st10" d="M218.4,264.6v-2.3h-6.7c1.6-4.6,6.4-10,6.6-16.4c0-0.5,0-3.1,0-3.5c-0.2-2.4-1.2-4.3-4.3-4.3
				s-4.6,1.9-4.7,4.4v3.6h2.3v-3.5c0.1-1.6,0.8-2.2,2.1-2.2c1.4,0,2.1,0.6,2.1,2.5v2.7c-0.2,6.4-4.8,11.5-6.7,16.7v2.3H218.4z"/>
			<rect x="203.8" y="260.5" class="st10" width="2.9" height="4.2"/>
			<path class="st10" d="M193.9,243.4c-0.2-2.4-1.5-4.3-4.3-4.3c-2.9,0-4.1,1.9-4.4,4.4c-0.1,2.1-0.2,5.9-0.2,8.5
				c0,2.2,0.1,6.7,0.3,8.2c0.3,3.3,1.6,4.7,4.3,4.7c2.6,0,3.9-1.4,4.2-4.7c0.2-2.1,0.3-6.3,0.3-8.3
				C194.1,249.6,194.1,246.2,193.9,243.4z M191.5,260.5c-0.1,1.5-0.6,2.3-1.9,2.3s-1.9-0.9-2-2.3c-0.2-2.3-0.3-6.6-0.3-8.6
				s0-5.6,0.2-8.4c0.1-1.4,0.6-2.4,2-2.4c1.3,0,2,0.9,2.1,2.4c0.1,1.3,0.1,5.4,0.1,8.3C191.8,254.3,191.8,257.1,191.5,260.5z"/>
		</g>
	</g>
	<g class="st6">
		<path class="st7" d="M281.1,288.5c-4.7,0-8.5,3.8-8.5,8.5s3.8,8.5,8.5,8.5s8.5-3.8,8.5-8.5C289.7,292.3,285.8,288.5,281.1,288.5z
			 M281.1,301.5c-2.5,0-4.5-2-4.5-4.5s2-4.5,4.5-4.5s4.5,2,4.5,4.5S283.6,301.5,281.1,301.5z"/>
		<path class="st7" d="M322.3,288.5c-4.7,0-8.5,3.8-8.5,8.5s3.8,8.5,8.5,8.5s8.5-3.8,8.5-8.5S327,288.5,322.3,288.5z M322.3,301.5
			c-2.5,0-4.5-2-4.5-4.5s2-4.5,4.5-4.5s4.5,2,4.5,4.5S324.8,301.5,322.3,301.5z"/>
		<path class="st7" d="M314.8,283.8L314.8,283.8h15.5l10.6-47.1h-26.1h-4h-16.9h-4h-23.5l-5.4-14.1h-10.1v4h7.4l4.3,11.3l10.3,45.8
			H290l0,0h4l0,0h16.9l0,0h3.9V283.8z M314.8,279.8v-10.9h14.7l-2.4,10.9H314.8z M270.6,255.6h19.3v9.3h-17.2L270.6,255.6z
			 M293.9,255.6h16.9v9.3h-16.9V255.6z M314.8,255.6h17.7l-2.1,9.3h-15.6V255.6z M335.9,240.7l-2.4,10.9h-18.6v-10.9H335.9z
			 M310.8,240.7v10.9h-16.9v-10.9H310.8z M289.9,240.7v10.9h-20.2l-2.4-10.9H289.9z M276,279.8l-2.4-10.9h16.3v10.9H276z
			 M293.9,279.8v-10.9h16.9v10.9H293.9z"/>
	</g>
</g>
<g class="st0">
	<g class="st6">
		<path class="st9" d="M208.5,307.7c24,0,43.4-19.4,43.4-43.4s-19.4-43.4-43.4-43.4S165,240.3,165,264.3S184.5,307.7,208.5,307.7"/>
		<line class="st11" x1="193.2" y1="269.3" x2="223.7" y2="269.3"/>
		<text transform="matrix(1 0 0 1 186.1091 281.9285)" class="st10 st4 st12">MILLONES DE</text>
		<text transform="matrix(1 0 0 1 180.7702 291.1966)" class="st10 st4 st12">CONSUMIDORES</text>
		<path class="st10" d="M226,260.4c-0.2,1.7-1,2.3-2.2,2.3c-1.3,0-2.2-0.5-2.4-2.1c-0.2-1.3-0.1-7-0.1-8.6c0.2-1.3,1-2.3,2.7-2.3
			c1.4,0,2,0.8,2.1,1.9C226.1,253.2,226.1,259.3,226,260.4 M228.4,261.1c0.3-1.7,0.3-7.3,0-10.4c-0.1-2.2-1.6-3.5-3.5-3.5
			c-1.6,0-3,0.5-3.7,1.9c0-0.8,0-4.6,0.1-7.7c0.1-2,0.7-3.2,2.3-3.2s2.1,1,2.2,2.6c0,0.3,0,1.5,0,2h2.5c0-0.6,0-2.3-0.1-3.1
			c-0.3-2.3-1.5-4-4.7-4s-4.5,2.1-4.8,5.4c-0.1,1.4-0.2,6.4-0.2,9.1c0,2.7,0,8,0.3,10.4c0.5,2.9,2.1,4.3,4.8,4.3
			C226.7,265.1,227.9,263.4,228.4,261.1 M216.1,265v-4.8H213v4.7h0.9l0.1,0.1l-1.3,2.7l1.5,0.5L216.1,265z M208,249.5
			c-0.3,1-1.1,1.9-2.5,1.9s-2.1-0.6-2.2-1.9c-0.1-1-0.1-7.9,0-8.9c0.1-1.4,0.9-2.2,2.3-2.2c1.4,0,2.1,0.7,2.3,2.3
			C208,241.6,208,247.7,208,249.5 M210.4,260.1c0.1-1.4,0.2-7.8,0.2-10.4c0-2.7,0-8.7-0.3-10.1c-0.6-2.6-2.1-3.8-4.7-3.8
			c-2.8,0-4.5,1.5-4.7,3.9c-0.3,2.1-0.3,8.5,0,10.9c0.3,2.1,1.8,3.1,3.8,3.1c1.4,0,2.8-0.5,3.3-1.6c0,0.8,0,6.6-0.1,8.1
			c-0.1,1.6-1,2.5-2.3,2.5c-1.4,0-2.2-0.5-2.3-2.4V258h-2.5c0,0.5,0,2.4,0.1,3.2c0.2,2.4,1.9,3.8,4.4,3.8
			C208.5,265.1,210.1,263.5,210.4,260.1 M198.3,264.9v-2.5h-7.4c1.7-5,7-11,7.3-17.9c0-0.6,0-3.4,0-3.8c-0.2-2.6-1.3-4.6-4.7-4.6
			s-5,2-5.1,4.8v3.9h2.5V241c0.1-1.7,0.9-2.4,2.3-2.4c1.5,0,2.3,0.7,2.3,2.7v3c-0.2,7.1-5.3,12.6-7.4,18.2v2.5h10.2L198.3,264.9
			L198.3,264.9z"/>
	</g>
	<path class="st8" d="M376.3,275.3l-17.5-9.2v-0.4c5.2-2.4,8.7-7.7,8.7-13.5c0-8.2-6.6-14.8-14.8-14.8s-14.8,6.6-14.8,14.8
		c0,5.8,3.4,11.1,8.7,13.5v0.4l-14.7,7.7l-6.2-3.2v-1.5c7.2-3.1,11.8-10.2,11.8-18c0-10.8-8.8-19.6-19.6-19.6
		c-10.8,0-19.6,8.8-19.6,19.6c0,7.9,4.7,14.9,11.8,18v1.5l-6.2,3.2l-14.7-7.7v-0.4c5.2-2.4,8.7-7.7,8.7-13.5
		c0-8.2-6.6-14.8-14.8-14.8s-14.8,6.6-14.8,14.8c0,5.8,3.4,11.1,8.7,13.5v0.4l-17.5,9.2v11.2h26.7v10.8h63.7v-10.8h26.9v-11.2H376.3
		z M341.7,252.3c0-5.9,4.8-10.8,10.8-10.8c5.9,0,10.8,4.8,10.8,10.8c0,4.6-2.9,8.7-7.3,10.2l-1.3,0.5v4.2l-1.9,1.9l-2.5-2.5V263
		l-1.3-0.5C344.7,261,341.7,256.9,341.7,252.3z M302,251.1c0-8.6,7-15.6,15.6-15.6s15.6,7,15.6,15.6c0,6.6-4.2,12.5-10.5,14.7
		l-1.3,0.5v4.9l-3.6,3.6L314,271v-4.7l-1.3-0.5C306.2,263.6,302,257.7,302,251.1z M271.8,252.3c0-5.9,4.8-10.8,10.8-10.8
		c5.9,0,10.8,4.8,10.8,10.8c0,4.6-2.9,8.7-7.3,10.2l-1.3,0.5v3.4l-2.3,2.3l-2.1-2.1V263l-1.3-0.5C274.7,261,271.8,256.9,271.8,252.3
		z M262.9,277.8l15.1-7.9l4.4,4.4l4.5-4.5l12.1,6.3l-12.1,6.3h-24.2v-4.7h0.2V277.8z M345.4,293.2h-55.6v-6.7v-0.9l21.7-11.3
		l6.2,6.2l6.1-6.1l3.4,1.8l0,0l18.1,9.5v0.9L345.4,293.2L345.4,293.2z M372.3,282.5h-24.2l-12.1-6.3l12-6.2l4.8,4.8l4.6-4.6
		l14.7,7.7v4.7h0.2V282.5z"/>
</g>
<g>
	<circle class="st13" cx="265" cy="265" r="132.5"/>
	<g>
		<g>
			<circle class="st14" cx="208.4" cy="264.2" r="43"/>
		</g>
		<line class="st15" x1="193.5" y1="269.5" x2="223.3" y2="269.5"/>
		<path class="st10" d="M213.1,261.2c0.1-2.3,0.1-7.9,0-10c-0.2-2.4-1.6-3.8-3.9-3.8c-1.4,0-2.5,0.6-3,1.6l0-8.6h6.3V238H204
			l-0.1,14.1h2.3c0.2-1.8,1.2-2.3,2.2-2.3c1.2,0,1.9,0.7,1.9,2.2c0.1,1.7,0.1,7.5,0.1,8.7c-0.1,1.6-0.7,2.5-2.2,2.5
			c-1.4,0-2-0.9-2.1-2.5c0-0.4,0-2.5,0-2.8h-2.4c0,1.6,0,1.6,0,3.2c0.2,2.7,1.7,4.3,4.6,4.3C211.3,265.4,212.9,263.6,213.1,261.2"/>
		<g>
			<path class="st10" d="M202.3,274.2h2.9v0.8h-1.9v2.5h1.5v0.7h-1.5v2.7h1.9v0.7h-2.9V274.2z"/>
			<path class="st10" d="M206.3,281.1c-0.3-0.4-0.5-1-0.5-1.8v-2.6c0-0.8,0.1-1.4,0.4-1.9c0.3-0.4,0.8-0.6,1.6-0.6
				c0.7,0,1.2,0.2,1.4,0.5s0.4,0.9,0.4,1.6v0.6h-1v-0.5c0-0.3,0-0.6,0-0.8c0-0.2-0.1-0.3-0.2-0.4c-0.1-0.1-0.3-0.2-0.6-0.2
				c-0.3,0-0.5,0.1-0.6,0.2c-0.1,0.1-0.2,0.3-0.3,0.5s-0.1,0.5-0.1,0.9v3c0,0.4,0,0.7,0.1,0.9s0.2,0.4,0.3,0.5
				c0.1,0.1,0.3,0.1,0.6,0.1c0.3,0,0.5-0.1,0.6-0.2c0.1-0.1,0.2-0.3,0.2-0.5c0-0.2,0.1-0.5,0.1-0.8v-0.6h1v0.6
				c0,0.7-0.1,1.3-0.4,1.7c-0.3,0.4-0.8,0.6-1.5,0.6C207.2,281.7,206.6,281.5,206.3,281.1z"/>
			<path class="st10" d="M211.1,281.1c-0.3-0.4-0.5-1-0.5-1.8v-2.8c0-0.8,0.2-1.4,0.5-1.8c0.3-0.4,0.8-0.6,1.6-0.6s1.2,0.2,1.6,0.6
				c0.3,0.4,0.5,1,0.5,1.8v2.8c0,0.8-0.2,1.4-0.5,1.8c-0.3,0.4-0.8,0.6-1.6,0.6C211.9,281.7,211.4,281.5,211.1,281.1z M213.5,280.5
				c0.1-0.2,0.2-0.6,0.2-1v-3.3c0-0.5-0.1-0.8-0.2-1s-0.4-0.3-0.8-0.3c-0.4,0-0.7,0.1-0.8,0.3c-0.1,0.2-0.2,0.6-0.2,1v3.3
				c0,0.5,0.1,0.8,0.2,1c0.1,0.2,0.4,0.3,0.8,0.3C213.1,280.9,213.3,280.8,213.5,280.5z"/>
			<path class="st10" d="M198.5,290.3c-0.3-0.4-0.5-0.9-0.5-1.6l0.9-0.2c0,0.5,0.1,0.9,0.3,1.2c0.2,0.3,0.4,0.4,0.8,0.4
				c0.3,0,0.5-0.1,0.6-0.2c0.1-0.2,0.2-0.4,0.2-0.6c0-0.3-0.1-0.6-0.2-0.8c-0.1-0.2-0.3-0.4-0.6-0.7l-1.3-1.1
				c-0.3-0.2-0.4-0.5-0.5-0.7c-0.1-0.3-0.2-0.6-0.2-0.9c0-0.6,0.2-1,0.5-1.3c0.3-0.3,0.8-0.4,1.3-0.4c0.6,0,1,0.2,1.3,0.5
				c0.3,0.3,0.5,0.8,0.5,1.5l-0.9,0.2c0-0.4-0.1-0.8-0.2-1c-0.1-0.2-0.4-0.4-0.7-0.4c-0.6,0-0.9,0.3-0.9,0.8c0,0.2,0,0.4,0.1,0.5
				c0.1,0.1,0.2,0.3,0.4,0.5l1.3,1.1c0.3,0.3,0.6,0.6,0.8,1c0.2,0.3,0.3,0.7,0.3,1.1c0,0.5-0.2,1-0.5,1.3c-0.3,0.3-0.8,0.5-1.3,0.5
				C199.3,290.9,198.8,290.7,198.5,290.3z"/>
			<path class="st10" d="M203.3,284.2h-1.4v-0.8h3.7v0.8h-1.3v6.7h-1V284.2z"/>
			<path class="st10" d="M207.4,283.4h1l1.6,7.5h-1l-0.3-1.9h-1.5l-0.4,1.9h-1L207.4,283.4z M208.5,288.2l-0.6-3.4l-0.6,3.4H208.5z"
				/>
			<path class="st10" d="M210.7,283.4h1.5c0.8,0,1.3,0.2,1.7,0.5s0.5,0.8,0.5,1.5c0,1-0.3,1.5-0.9,1.7l1.1,3.7h-1l-1-3.5h-0.8v3.5
				h-1V283.4z M212.1,286.6c0.4,0,0.8-0.1,1-0.3c0.2-0.2,0.3-0.5,0.3-1c0-0.3,0-0.5-0.1-0.7c-0.1-0.2-0.2-0.3-0.4-0.4
				s-0.4-0.1-0.7-0.1h-0.5v2.5H212.1z"/>
			<path class="st10" d="M215.8,290.3c-0.3-0.4-0.5-0.9-0.5-1.6l0.9-0.2c0,0.5,0.1,0.9,0.3,1.2c0.2,0.3,0.4,0.4,0.8,0.4
				c0.3,0,0.5-0.1,0.6-0.2c0.1-0.2,0.2-0.4,0.2-0.6c0-0.3-0.1-0.6-0.2-0.8c-0.1-0.2-0.3-0.4-0.6-0.7l-1.3-1.1
				c-0.3-0.2-0.4-0.5-0.5-0.7c-0.1-0.3-0.2-0.6-0.2-0.9c0-0.6,0.2-1,0.5-1.3c0.3-0.3,0.8-0.4,1.3-0.4c0.6,0,1,0.2,1.3,0.5
				c0.3,0.3,0.5,0.8,0.5,1.5l-0.9,0.2c0-0.4-0.1-0.8-0.2-1c-0.1-0.2-0.4-0.4-0.7-0.4c-0.6,0-0.9,0.3-0.9,0.8c0,0.2,0,0.4,0.1,0.5
				c0.1,0.1,0.2,0.3,0.4,0.5l1.3,1.1c0.3,0.3,0.6,0.6,0.8,1c0.2,0.3,0.3,0.7,0.3,1.1c0,0.5-0.2,1-0.5,1.3c-0.3,0.3-0.8,0.5-1.3,0.5
				C216.6,290.9,216.1,290.7,215.8,290.3z"/>
		</g>
		<g>
			<polygon class="st7" points="309.6,233.6 308.5,236.8 305,236.3 307.9,238.8 306.8,242 309.6,240.3 312.5,242.8 311.4,239.3 
				314.3,237.6 310.7,237.1 			"/>
			<polygon class="st7" points="310.7,291.8 309.6,288.3 308.5,291.5 305,291 307.9,293.5 306.8,296.7 309.6,295 312.5,297.5 
				311.4,294 314.3,292.3 			"/>
			<polygon class="st7" points="335.9,268.1 332.4,267.6 335.2,270.1 334.1,273.3 337,271.6 339.9,274.1 338.8,270.6 341.7,268.9 
				338.1,268.4 337,264.9 			"/>
			<polygon class="st7" points="282.3,263.8 285.2,266.3 284.1,262.8 286.9,261.1 283.4,260.6 282.3,257.1 281.2,260.3 277.6,259.8 
				280.5,262.3 279.4,265.5 			"/>
			<polygon class="st7" points="285.9,243.7 284.8,247 281.3,246.5 284.2,249 283.1,252.2 285.9,250.5 288.8,253 287.7,249.5 
				290.6,247.8 287,247.3 			"/>
			<polygon class="st7" points="295.7,235.1 294.6,238.3 291,237.8 293.9,240.3 292.8,243.5 295.7,241.8 298.6,244.3 297.5,240.8 
				300.3,239.1 296.8,238.6 			"/>
			<polygon class="st7" points="330,258.8 332.9,257.1 335.8,259.6 334.7,256.1 337.5,254.4 334,253.9 332.9,250.3 331.8,253.6 
				328.2,253.1 331.1,255.6 			"/>
			<polygon class="st7" points="323,238.9 321.9,242.2 318.4,241.7 321.3,244.1 320.2,247.4 323,245.7 325.9,248.2 324.8,244.6 
				327.7,243 324.1,242.5 			"/>
			<polygon class="st7" points="287,274.6 285.9,271.1 284.8,274.3 281.3,273.8 284.2,276.3 283.1,279.5 285.9,277.8 288.8,280.3 
				287.7,276.8 290.6,275.1 			"/>
			<polygon class="st7" points="296.8,285.7 295.7,282.2 294.6,285.4 291,284.9 293.9,287.4 292.8,290.7 295.7,289 298.6,291.5 
				297.5,287.9 300.3,286.2 			"/>
			<polygon class="st7" points="330,286.1 332.9,284.4 335.8,286.9 334.7,283.4 337.5,281.7 334,281.2 332.9,277.7 331.8,280.9 
				328.2,280.4 331.1,282.9 			"/>
			<polygon class="st7" points="324.1,289.6 323,286 321.9,289.3 318.4,288.8 321.3,291.3 320.2,294.5 323,292.8 325.9,295.3 
				324.8,291.8 327.7,290.1 			"/>
			<path class="st7" d="M327.9,229.7c-5.4,0-11.3-1.1-17.7-3.9c-12.9-5.7-25.7-6.9-34.4-6.9c-6.9,0-11.3,0.8-11.3,0.8v79.8
				c0,0,4.4-0.8,11.3-0.8c8.8,0,21.5,1.2,34.4,6.9c6.4,2.8,12.4,3.9,17.7,3.9c16.4,0,27-10,27-10v-79.8
				C354.9,219.7,344.3,229.7,327.9,229.7z M350.9,297.5c-3,2.4-11.4,7.9-23,7.9c-5.3,0-10.8-1.2-16.1-3.5c-13.7-6-27.2-7.2-36.1-7.2
				c-2.9,0-5.4,0.1-7.3,0.3v-71.7c1.8-0.2,4.3-0.3,7.3-0.3h0c8.1,0,20.4,1.1,32.8,6.6c6.4,2.8,12.9,4.2,19.4,4.2
				c9.9,0,17.8-3.3,23-6.3V297.5z"/>
		</g>
	</g>
</g>
</svg>
