<?xml version="1.0" encoding="utf-8"?>
<!-- Generator: Adobe Illustrator 21.1.0, SVG Export Plug-In . SVG Version: 6.00 Build 0)  -->
<svg version="1.1" id="Capa_1" xmlns="http://www.w3.org/2000/svg" xmlns:xlink="http://www.w3.org/1999/xlink" x="0px" y="0px"
	 viewBox="0 0 530 530" style="enable-background:new 0 0 530 530;" xml:space="preserve">
<style type="text/css">
	.st0{opacity:0.6;fill:#FFFFFF;enable-background:new    ;}
	.st1{fill:#E31F13;}
	.st2{fill:none;stroke:#FFFFFF;stroke-width:1.0961;}
	.st3{fill:#FFFFFF;}
	.st4{fill:#706F6F;}
	.st5{fill:none;stroke:#FFFFFF;stroke-width:1.0966;}
	.st6{display:none;}
	.st7{display:inline;fill:#EB2C24;}
	.st8{display:inline;fill:#FFFFFF;}
	.st9{display:inline;fill:none;stroke:#FFFFFF;stroke-width:1.5283;}
	.st10{display:inline;fill:#706F6F;}
	.st11{font-family:'Oswald-Regular';}
	.st12{font-size:9.2075px;}
	.st13{display:inline;}
	.st14{display:inline;fill:none;stroke:#FFFFFF;stroke-width:1.6812;}
	.st15{font-size:9.2856px;}
	.st16{fill:#EB2C24;}
	.st17{fill:none;stroke:#FFFFFF;stroke-width:1.5283;}
	.st18{font-size:9.2755px;}
</style>
<g>
	<circle class="st0" cx="265" cy="265" r="132.5"/>
	<g>
		<path class="st1" d="M172.6,218c-12.2,10.3-30,10.3-42.1,0c-12.9,11.6-13.8,31.5-2.2,44.3s31.5,13.8,44.3,2.2
			c12.9-11.6,13.8-31.5,2.2-44.3C174.1,219.4,173.4,218.7,172.6,218L172.6,218z"/>
		<circle class="st1" cx="151.5" cy="193" r="31.4"/>
		<line class="st2" x1="140.7" y1="253.7" x2="162.5" y2="253.7"/>
		<path class="st3" d="M163.5,250.6v-1.7h-5.1c1.2-3.5,4.8-7.6,5-12.4c0-0.4,0-2.3,0-2.6c-0.1-1.8-0.9-3.2-3.3-3.2
			c-2.3,0-3.5,1.4-3.5,3.3v2.7h1.8V234c0.1-1.2,0.6-1.7,1.6-1.7c1,0,1.6,0.5,1.6,1.9v2.1c-0.1,4.9-3.7,8.7-5.1,12.6v1.7H163.5z
			 M155.2,247.7c0.1-1.7,0.1-5.7,0-7.3c-0.1-1.7-1.1-2.8-2.8-2.8c-1,0-1.8,0.4-2.2,1.2l0-6.3h4.6v-1.8h-6.2l0,10.3h1.7
			c0.1-1.3,0.9-1.7,1.6-1.7c0.9,0,1.4,0.5,1.4,1.6c0.1,1.3,0.1,5.5,0.1,6.3c-0.1,1.1-0.5,1.8-1.6,1.8c-1,0-1.5-0.7-1.6-1.8
			c0-0.3,0-1.8,0-2.1h-1.8c0,1.2,0,1.2,0,2.3c0.1,2,1.2,3.2,3.4,3.2C153.9,250.7,155.1,249.4,155.2,247.7 M144,244.1H141l3.1-9.9
			V244.1z M147.3,245.7v-1.6h-1.5v-13.4h-2.1l-4.2,13.2v1.8h4.6v4.9h1.7v-4.9H147.3z"/>
		<g>
			<g>
				<path class="st3" d="M133.2,200.2h0.7l1,4.4l1-4.4h0.7l0.1,5.4h-0.6l-0.1-3.9l-0.9,3.9h-0.4l-0.9-3.9l-0.1,3.9h-0.6L133.2,200.2
					z"/>
				<path class="st3" d="M137.6,200.2h0.7v5.4h-0.7V200.2z"/>
				<path class="st3" d="M139.2,200.2h0.8v4.9h1.4v0.5h-2.1V200.2z"/>
				<path class="st3" d="M141.9,200.2h0.8v4.9h1.4v0.5h-2.1V200.2z"/>
				<path class="st3" d="M144.6,200.2h0.7v5.4h-0.7V200.2z"/>
				<path class="st3" d="M146.5,205.3c-0.2-0.3-0.3-0.7-0.3-1.3v-2.1c0-0.6,0.1-1,0.3-1.3s0.6-0.4,1.1-0.4s0.9,0.1,1.1,0.4
					s0.3,0.7,0.3,1.3v2.1c0,0.6-0.1,1-0.3,1.3c-0.2,0.3-0.6,0.5-1.1,0.5C147.1,205.7,146.7,205.6,146.5,205.3z M148.2,204.9
					c0.1-0.2,0.1-0.4,0.1-0.8v-2.4c0-0.3-0.1-0.6-0.1-0.7c-0.1-0.2-0.3-0.2-0.6-0.2c-0.3,0-0.5,0.1-0.6,0.2
					c-0.1,0.2-0.1,0.4-0.1,0.7v2.4c0,0.3,0,0.6,0.1,0.8c0.1,0.2,0.3,0.2,0.6,0.2C147.9,205.1,148.1,205,148.2,204.9z"/>
				<path class="st3" d="M149.8,200.2h0.5l1.5,3.6v-3.6h0.6v5.4H152l-1.6-3.7v3.7h-0.6V200.2z"/>
				<path class="st3" d="M154.9,200.2h0.8v4.9h1.4v0.5h-2.1V200.2z"/>
				<path class="st3" d="M157.6,200.2h0.7v5.4h-0.7V200.2z"/>
				<path class="st3" d="M159.8,200.8h-1v-0.6h2.7v0.6h-1v4.9h-0.8V200.8z"/>
				<path class="st3" d="M161.9,200.2h1.1c0.5,0,1,0.1,1.2,0.3c0.3,0.2,0.4,0.6,0.4,1.1c0,0.7-0.2,1.1-0.7,1.3l0.8,2.7H164l-0.7-2.5
					h-0.6v2.5h-0.8V200.2z M163,202.6c0.3,0,0.6-0.1,0.7-0.2s0.2-0.4,0.2-0.7c0-0.2,0-0.4-0.1-0.5c0-0.1-0.1-0.2-0.3-0.3
					s-0.3-0.1-0.5-0.1h-0.3v1.8H163z"/>
				<path class="st3" d="M165.4,200.2h2.1v0.6h-1.3v1.8h1.1v0.5h-1.1v2h1.4v0.5h-2.1V200.2z"/>
				<path class="st3" d="M168.4,205.3c-0.2-0.3-0.4-0.7-0.4-1.2l0.7-0.2c0,0.3,0.1,0.6,0.2,0.8c0.1,0.2,0.3,0.3,0.6,0.3
					c0.2,0,0.3-0.1,0.4-0.2c0.1-0.1,0.2-0.3,0.2-0.5c0-0.2,0-0.4-0.1-0.5s-0.2-0.3-0.4-0.5l-0.9-0.8c-0.2-0.2-0.3-0.3-0.4-0.5
					c-0.1-0.2-0.1-0.4-0.1-0.7c0-0.4,0.1-0.7,0.3-0.9c0.2-0.2,0.6-0.3,1-0.3c0.4,0,0.7,0.1,1,0.3c0.2,0.2,0.3,0.6,0.4,1.1l-0.6,0.2
					c0-0.3-0.1-0.6-0.2-0.7c-0.1-0.2-0.3-0.3-0.5-0.3c-0.4,0-0.7,0.2-0.7,0.6c0,0.2,0,0.3,0.1,0.4c0.1,0.1,0.1,0.2,0.3,0.3l0.9,0.8
					c0.2,0.2,0.4,0.5,0.6,0.7c0.1,0.2,0.2,0.5,0.2,0.8c0,0.4-0.1,0.7-0.4,0.9c-0.2,0.2-0.6,0.3-0.9,0.3
					C169,205.7,168.6,205.6,168.4,205.3z"/>
				<path class="st3" d="M142.5,212c-0.2-0.3-0.3-0.7-0.3-1.3v-2.1c0-0.6,0.1-1,0.3-1.3c0.2-0.3,0.6-0.4,1.1-0.4s0.9,0.1,1.1,0.4
					s0.3,0.7,0.3,1.3v2.1c0,0.6-0.1,1-0.3,1.3c-0.2,0.3-0.6,0.5-1.1,0.5C143.2,212.4,142.8,212.3,142.5,212z M144.3,211.6
					c0.1-0.2,0.1-0.4,0.1-0.8v-2.4c0-0.3-0.1-0.6-0.1-0.7c-0.1-0.2-0.3-0.2-0.6-0.2c-0.3,0-0.5,0.1-0.6,0.2
					c-0.1,0.2-0.1,0.4-0.1,0.7v2.4c0,0.3,0,0.6,0.1,0.8c0.1,0.2,0.3,0.2,0.6,0.2C144,211.8,144.2,211.7,144.3,211.6z"/>
				<path class="st3" d="M145.9,206.9h2.1v0.5h-1.3v1.8h1v0.5h-1v2.5h-0.8V206.9z"/>
				<path class="st3" d="M150.2,206.9h0.7l1,4.4l1-4.4h0.7l0.1,5.4h-0.6l-0.1-3.9l-0.9,3.9h-0.4l-0.9-3.9l-0.1,3.9h-0.6L150.2,206.9
					z"/>
				<path class="st3" d="M154.5,206.9h0.7v5.4h-0.7V206.9z"/>
				<path class="st3" d="M156.2,206.9h0.8v4.9h1.4v0.5h-2.1V206.9z"/>
				<path class="st3" d="M158.8,206.9h0.8v2.6l1.2-2.6h0.7l-1.1,2.4l1.2,3H161l-1-2.5l-0.3,0.6v1.9h-0.8V206.9z"/>
			</g>
			<line class="st2" x1="140.7" y1="196.8" x2="162.5" y2="196.8"/>
			<path class="st3" d="M163.3,190.8c0.1-1.7,0.1-5.7,0-7.3c-0.1-1.7-1.1-2.8-2.8-2.8c-1,0-1.8,0.4-2.2,1.2l0-6.3h4.6v-1.8h-6.2
				l-0.1,10.3h1.7c0.1-1.3,0.9-1.7,1.6-1.7c0.9,0,1.4,0.5,1.4,1.6c0.1,1.3,0.1,5.5,0,6.3c-0.1,1.1-0.5,1.8-1.6,1.8
				c-1,0-1.5-0.7-1.6-1.8c0-0.3,0-1.8,0-2.1h-1.8c0,1.2,0,1.2,0,2.3c0.1,2,1.2,3.2,3.4,3.2C162.1,193.8,163.2,192.5,163.3,190.8
				 M153.2,183c-0.2,0.7-0.7,1.3-1.8,1.3c-0.9,0-1.4-0.4-1.5-1.3c-0.1-0.7-0.1-5.4,0-6.1c0.1-1,0.6-1.5,1.6-1.5
				c0.9,0,1.5,0.5,1.6,1.6C153.1,177.6,153.1,181.9,153.2,183 M154.8,190.4c0.1-1,0.1-5.3,0.1-7.1c0-1.9,0-5.9-0.2-7
				c-0.4-1.8-1.5-2.6-3.2-2.6c-1.9,0-3.1,1.1-3.3,2.7c-0.2,1.4-0.2,5.8,0,7.5c0.2,1.4,1.2,2.1,2.7,2.1c1,0,1.9-0.3,2.3-1.1
				c0,0.5,0,4.6-0.1,5.5c-0.1,1.1-0.7,1.8-1.6,1.8c-1,0-1.5-0.3-1.6-1.7v-1.6h-1.7c0,0.4,0,1.6,0.1,2.2c0.2,1.7,1.3,2.7,3.1,2.7
				C153.5,193.8,154.6,192.7,154.8,190.4 M144,183c1.4-0.2,2.1-1.4,2.3-3c0.1-0.8,0.1-2.7,0-3.4c-0.1-1.8-1-2.9-3.1-2.9
				c-1.9,0-3,1.2-3.2,2.9c-0.1,0.6-0.1,2.6-0.1,2.8h1.7c0-0.1,0-1.9,0-2.5c0.1-0.9,0.5-1.4,1.5-1.4c0.8,0,1.3,0.3,1.4,1.3
				c0.1,0.5,0.1,2.8,0,3.5c-0.2,1.3-0.5,1.9-1.9,2c-0.2,0-1.3,0-1.3,0v1.7c0,0,1.1,0.1,1.3,0.1c1.4,0.1,2,0.7,2.1,2
				c0.1,1.8,0.1,3.3,0,4.5c0,1-0.6,1.6-1.7,1.6c-0.9,0-1.5-0.3-1.5-1.2c-0.1-1-0.1-3-0.1-3.1h-1.8c0,0.2,0,1.8,0.1,3.3
				c0.2,1.7,1.2,2.7,3.3,2.7c2.1,0,3.4-1.1,3.6-3.2c0.1-1.1,0.1-3.6,0-4.9C146.5,184.1,145.5,183.1,144,183"/>
		</g>
		<g>
			<circle class="st4" cx="213" cy="211.4" r="1.9"/>
			<circle class="st4" cx="230.3" cy="211.4" r="1.9"/>
			<circle class="st4" cx="218.1" cy="237.7" r="1.9"/>
			<circle class="st4" cx="225.2" cy="237.7" r="1.9"/>
			<path class="st4" d="M251,210.6c-0.1-0.1-2.6-3.5-6.6-3.8c-2-0.2-4,0.4-5.9,1.8v-6.3h11.7v-13.5l-6.6,6.6h-5.1h-1.3H206h-1.3
				h-5.1l-6.6-6.6v13.5h11.7v6.1c-1.1-0.8-2.5-1.4-4.3-1.6c-2.8-0.2-5.5,1-8.1,3.6l-0.9,0.9l0.9,0.9c2.4,2.4,5,3.7,7.5,3.7
				c0.2,0,0.4,0,0.6,0c2.4-0.2,4.2-1.4,5.3-2.4l5.9,22.5l-1.6,9.3h14h1.4h7.6l-1.6-9.3l6-22.7c2.1,1.7,4.2,2.6,6.3,2.6
				c0.2,0,0.4,0,0.6,0c4-0.3,6.5-3.7,6.6-3.8l0.6-0.8L251,210.6z M244.7,197.9l2.9-2.9v4.6h-9.1v-1.7H244.7z M207.3,197.9h28.5v11.3
				l-6.1,23.1h-4.3h-1.4h-10.7l-6.1-23.1V197.9z M195.7,199.7v-4.6l2.9,2.9h6.2v1.7H195.7z M200.2,213.4c-1.6,0.1-3.3-0.5-5-2
				c1.7-1.4,3.4-2.1,5-2c1.8,0.1,3.2,1.2,4,2C203.5,212.2,202.1,213.2,200.2,213.4z M225.5,242.8h-1.4h-10.9l1.4-7.9h9.6h1.4h3.2
				l1.4,7.9H225.5z M244.2,213.4c-1.6,0.1-3.3-0.5-5-2c1.7-1.4,3.4-2.1,5-2c1.8,0.1,3.2,1.2,4,2C247.4,212.2,246,213.2,244.2,213.4z
				"/>
		</g>
		<path class="st1" d="M317.9,248.5c17.3,0,31.4-14.1,31.4-31.4s-14.1-31.4-31.4-31.4c-17.3,0-31.4,14.1-31.4,31.4
			S300.5,248.5,317.9,248.5"/>
		<line class="st5" x1="309.5" y1="220.6" x2="326.3" y2="220.6"/>
		<path class="st3" d="M326.8,211.6h-3.1l3.1-9.9V211.6z M330.1,213.2v-1.6h-1.5v-13.4h-2.1l-4.2,13.2v1.8h4.6v4.9h1.7v-4.9H330.1z
			 M321.4,218v-1.7h-5.1c1.2-3.5,4.8-7.6,5-12.4c0-0.4,0-2.3,0-2.6c-0.1-1.8-0.9-3.2-3.3-3.2c-2.3,0-3.5,1.4-3.5,3.3v2.7h1.8v-2.6
			c0-1.2,0.6-1.7,1.6-1.7c1,0,1.6,0.5,1.6,1.9v2.1c-0.1,4.9-3.7,8.7-5.1,12.6v1.7H321.4z M310.3,211.6h-3.1l3.1-9.9V211.6z
			 M313.5,213.2v-1.6H312v-13.4h-2.1l-4.2,13.2v1.8h4.6v4.9h1.7v-4.9H313.5z"/>
		<g>
			<path class="st4" d="M387.3,187.7c-7.6,7.8-21.8,24.7-21.7,34.9c0.2,13.2,10.1,23.8,22.2,23.8c0.1,0,0.2,0,0.3,0
				c12.2-0.2,22-11.1,21.8-24.4C409.8,211.9,395.1,195.4,387.3,187.7z M401.7,237.4c-3.6,4.1-8.5,6.3-13.6,6.4l-0.2,0
				c-10.6,0-19.4-9.5-19.6-21.2c-0.1-7.3,9.3-20.5,19.1-31.1c10.1,10.3,19.8,23.3,19.9,30.6C407.4,227.9,405.4,233.3,401.7,237.4z"
				/>
			<path class="st4" d="M376,224.2h-2.6c0,7.9,6.5,14.4,14.4,14.4V236C381.3,236,376,230.7,376,224.2z"/>
		</g>
		<path class="st1" d="M151.6,368.4c17.3,0,31.4-14.1,31.4-31.4c0-17.3-14.1-31.4-31.4-31.4c-17.3,0-31.4,14.1-31.4,31.4
			C120.2,354.4,134.2,368.4,151.6,368.4"/>
		<line class="st5" x1="140.7" y1="337.5" x2="162.5" y2="337.5"/>
		<path class="st3" d="M158.4,326.7h-3.1l3.1-9.9V326.7z M161.6,328.4v-1.6h-1.5v-13.4H158l-4.2,13.2v1.8h4.6v4.9h1.7v-4.9H161.6z
			 M152.7,333.3v-3.3h-2.1v3.3h0.6l0,0.1l-0.9,1.9l1,0.3L152.7,333.3z M147.1,322.6c-0.2,0.7-0.7,1.3-1.8,1.3
			c-0.9,0-1.4-0.4-1.5-1.3c-0.1-0.7,0-5.4,0-6.1c0.1-1,0.6-1.5,1.6-1.5c0.9,0,1.5,0.5,1.6,1.6C147.1,317.2,147.1,321.4,147.1,322.6
			 M148.8,329.9c0.1-1,0.1-5.3,0.1-7.1c0-1.9,0-5.9-0.2-7c-0.4-1.8-1.5-2.6-3.2-2.6c-1.9,0-3.1,1.1-3.3,2.7c-0.2,1.4-0.2,5.8,0,7.5
			c0.2,1.4,1.2,2.1,2.7,2.1c1,0,1.9-0.3,2.3-1.1c0,0.5,0,4.6,0,5.5c-0.1,1.1-0.7,1.8-1.6,1.8c-1,0-1.5-0.3-1.6-1.7v-1.6h-1.7
			c0,0.4,0,1.6,0.1,2.2c0.1,1.7,1.3,2.7,3.1,2.7C147.4,333.4,148.5,332.2,148.8,329.9"/>
		<path class="st4" d="M253.9,310.4c-4.1-1.8-8.2-2.8-12.1-2.8c0,0,0,0,0,0c-5.1,0-9.8,1.5-13.7,4.4c-3.4,2.5-6,6.1-7,9.7
			c-1.1,3.9-0.3,7.4,2,9.8c-0.9,1.4-1.7,3.1-2.4,4.9c-0.6-1.7-1.5-3.2-2.3-4.3l0.2-0.2c1.4-2.2,1.6-5,0.5-7.8
			c-1-2.6-3.2-5.1-5.9-6.9c-3-1.9-6.6-2.9-10.3-2.9c0,0,0,0,0,0c-4.7,0-9.6,1.7-14.1,4.9l-2.4,1.7l2.9,0.8c4.7,1.3,8.5,4.9,11.8,8.1
			c3.4,3.3,6.6,6.4,10.3,6.4c0,0,0,0,0,0c1.8,0,3.6-0.7,5.3-2.2c1.6,2.3,2.8,5.6,2.8,10.4v21.9h2.6v-21.9c0-4.8,1.4-8.6,3.2-11.4
			l0.6,0.4c1.7,0.9,3.2,1.4,4.8,1.4c0,0,0,0,0,0c5,0,8.2-4.8,11.7-9.8c3.1-4.5,6.5-9.6,11.7-12.2l2.5-1.3L253.9,310.4z M214.9,332.2
			c-1.2,1-2.3,1.5-3.5,1.5c-2.7,0-5.5-2.7-8.5-5.6c-3-2.9-6.4-6.1-10.6-8c3.4-2.1,7.1-3.1,10.6-3.1h0c3.2,0,6.3,0.9,8.9,2.5
			c2.3,1.5,4.1,3.5,4.9,5.6c0.7,1.8,0.7,3.5,0,5c-2.5-2.4-5-3.2-5.1-3.2l-0.8,2.5c0.2,0.1,2.1,0.7,4.2,2.7L214.9,332.2z
			 M240.2,323.7c-3.2,4.6-5.9,8.6-9.5,8.6c-1.1,0-2.2-0.3-3.4-1l-0.4-0.3c2.4-2.9,4.9-4.3,5.1-4.4l-0.6-1.1l-0.6-1.2
			c-0.2,0.1-3.1,1.7-5.9,5.1c-1.5-1.8-1.9-4.2-1.1-7c0.9-3.1,3.1-6.1,6-8.3c3.4-2.5,7.6-3.9,12.1-3.9h0c2.8,0,5.8,0.5,8.7,1.6
			C246.1,315,243,319.5,240.2,323.7z"/>
		<path class="st1" d="M317.8,368.4c17.3,0,31.4-14.1,31.4-31.4c0-17.3-14.1-31.4-31.4-31.4c-17.3,0-31.4,14.1-31.4,31.4
			C286.4,354.4,300.5,368.4,317.8,368.4"/>
		<line class="st5" x1="306.9" y1="340.4" x2="328.7" y2="340.4"/>
		<path class="st3" d="M326.6,333.6c-0.1,1.2-0.7,1.6-1.5,1.6c-0.9,0-1.5-0.4-1.7-1.5c-0.1-0.9-0.1-4.8-0.1-5.9
			c0.1-0.9,0.7-1.6,1.8-1.6c0.9,0,1.4,0.5,1.5,1.3C326.7,328.5,326.7,332.8,326.6,333.6 M328.3,334c0.2-1.2,0.2-5,0-7.2
			c-0.1-1.5-1.1-2.4-2.4-2.4c-1.1,0-2.1,0.3-2.6,1.3c0-0.5,0-3.2,0.1-5.3c0.1-1.4,0.5-2.2,1.6-2.2c1.1,0,1.4,0.7,1.5,1.8
			c0,0.2,0,1,0,1.4h1.7c0-0.4,0-1.6,0-2.2c-0.2-1.6-1.1-2.8-3.2-2.8c-2.2,0-3.2,1.4-3.3,3.8c-0.1,1-0.1,4.4-0.1,6.3
			c0,1.9,0,5.5,0.2,7.1c0.3,2,1.4,3,3.3,3C327.2,336.7,328,335.5,328.3,334 M319.5,336.6v-19.9h-1.2c-0.4,0.8-1.2,1.3-3.1,1.6v1.5
			l2.5-0.2v17H319.5z M311.3,325.9c1.4-0.2,2.1-1.4,2.3-3c0.1-0.8,0.1-2.7,0-3.4c-0.1-1.8-1-2.9-3.1-2.9c-1.9,0-3,1.2-3.2,2.9
			c0,0.6-0.1,2.6-0.1,2.8h1.7c0-0.1,0-1.9,0-2.5c0.1-0.9,0.5-1.4,1.5-1.4c0.8,0,1.3,0.3,1.4,1.3c0.1,0.5,0.1,2.8,0,3.5
			c-0.2,1.3-0.5,1.9-1.9,2c-0.2,0-1.3,0-1.3,0v1.7c0,0,1.1,0,1.3,0.1c1.4,0.1,2,0.7,2.1,2c0.1,1.8,0,3.3,0,4.5c0,1-0.6,1.6-1.7,1.6
			c-0.9,0-1.5-0.3-1.5-1.2c-0.1-1-0.1-3-0.1-3.1h-1.8c0,0.2,0,1.8,0.1,3.3c0.2,1.7,1.2,2.7,3.3,2.7c2.1,0,3.4-1.1,3.6-3.2
			c0.1-1.1,0.1-3.6,0-4.9C313.7,327,312.8,326.1,311.3,325.9"/>
		<g>
			<path class="st4" d="M375.3,327.7h2.6c0-5.5,4.4-9.9,9.9-9.9v-2.6C380.9,315.2,375.3,320.8,375.3,327.7z"/>
			<path class="st4" d="M407.7,329.1c-0.2-11.9-9.1-21.4-19.9-21.4c-0.1,0-0.2,0-0.2,0c-11,0.1-19.8,10-19.6,21.9
				c0,3.6,2.1,8.1,5.1,12.7h0c2,3.3,5.8,8.4,5.8,13.6h0v2.6h0v2.6h0v5.3h8.7h0.7h8.7v-10.5c0-3.8,2.1-7.6,4-10.6
				C404.7,339.5,407.7,333.6,407.7,329.1z M381.4,355.9h12.8v2.6h-12.8V355.9z M388.1,363.8h-0.7h-6.1v-2.7h12.8v2.7H388.1z
				 M398.5,343.8L398.5,343.8c-1.7,2.8-3.5,6-4.1,9.4h-13.3c-0.6-3-2-5.9-3.5-8.3h0.1l-2.6-4c-3.8-5.9-4.7-9.4-4.7-11.3
				c-0.1-5.1,1.7-10,5-13.6c3.2-3.6,7.5-5.6,12.1-5.7l0.2,0c9.4,0,17.2,8.4,17.3,18.8C405.1,331.5,404,335.9,398.5,343.8
				L398.5,343.8z"/>
		</g>
		<g>
			<path class="st3" d="M299.3,224.4h0.7l1,4.4l1-4.4h0.7l0.1,5.4h-0.6l-0.1-3.9l-0.9,3.9h-0.4l-0.9-3.9l-0.1,3.9h-0.6L299.3,224.4z
				"/>
			<path class="st3" d="M303.7,224.4h0.7v5.4h-0.7V224.4z"/>
			<path class="st3" d="M305.3,224.4h0.8v4.9h1.4v0.5h-2.1V224.4z"/>
			<path class="st3" d="M308,224.4h0.8v4.9h1.4v0.5H308V224.4z"/>
			<path class="st3" d="M310.7,224.4h0.7v5.4h-0.7V224.4z"/>
			<path class="st3" d="M312.5,229.4c-0.2-0.3-0.3-0.7-0.3-1.3v-2.1c0-0.6,0.1-1,0.3-1.3c0.2-0.3,0.6-0.4,1.1-0.4
				c0.5,0,0.9,0.1,1.1,0.4s0.3,0.7,0.3,1.3v2.1c0,0.6-0.1,1-0.3,1.3c-0.2,0.3-0.6,0.5-1.1,0.5C313.1,229.9,312.8,229.7,312.5,229.4z
				 M314.2,229c0.1-0.2,0.1-0.4,0.1-0.8v-2.4c0-0.3,0-0.6-0.1-0.7c-0.1-0.2-0.3-0.2-0.6-0.2c-0.3,0-0.5,0.1-0.6,0.2
				c-0.1,0.2-0.1,0.4-0.1,0.7v2.4c0,0.3,0.1,0.6,0.1,0.8c0.1,0.2,0.3,0.2,0.6,0.2C314,229.3,314.1,229.2,314.2,229z"/>
			<path class="st3" d="M315.9,224.4h0.5l1.5,3.6v-3.6h0.6v5.4h-0.5l-1.6-3.7v3.7h-0.6V224.4z"/>
			<path class="st3" d="M321,224.4h0.8v4.9h1.4v0.5H321V224.4z"/>
			<path class="st3" d="M323.7,224.4h0.7v5.4h-0.7V224.4z"/>
			<path class="st3" d="M325.9,225h-1v-0.6h2.7v0.6h-1v4.9h-0.8V225z"/>
			<path class="st3" d="M328,224.4h1.1c0.6,0,1,0.1,1.2,0.3c0.3,0.2,0.4,0.6,0.4,1.1c0,0.7-0.2,1.1-0.7,1.3l0.8,2.7h-0.7l-0.7-2.5
				h-0.6v2.5H328V224.4z M329,226.7c0.3,0,0.6-0.1,0.7-0.2s0.2-0.4,0.2-0.7c0-0.2,0-0.4-0.1-0.5c-0.1-0.1-0.1-0.2-0.3-0.3
				s-0.3-0.1-0.5-0.1h-0.3v1.8H329z"/>
			<path class="st3" d="M331.5,224.4h2.1v0.6h-1.3v1.8h1.1v0.5h-1.1v2h1.4v0.5h-2.1V224.4z"/>
			<path class="st3" d="M334.4,229.5c-0.2-0.3-0.4-0.7-0.4-1.2l0.7-0.2c0,0.3,0.1,0.6,0.2,0.8c0.1,0.2,0.3,0.3,0.6,0.3
				c0.2,0,0.3-0.1,0.4-0.2c0.1-0.1,0.2-0.3,0.2-0.5c0-0.2,0-0.4-0.1-0.5c-0.1-0.1-0.2-0.3-0.5-0.5l-0.9-0.8
				c-0.2-0.2-0.3-0.3-0.4-0.5c-0.1-0.2-0.1-0.4-0.1-0.7c0-0.4,0.1-0.7,0.3-0.9s0.6-0.3,1-0.3c0.4,0,0.7,0.1,1,0.3
				c0.2,0.2,0.3,0.6,0.4,1.1l-0.6,0.2c0-0.3-0.1-0.6-0.2-0.7s-0.3-0.3-0.5-0.3c-0.4,0-0.7,0.2-0.7,0.6c0,0.2,0,0.3,0.1,0.4
				c0.1,0.1,0.1,0.2,0.3,0.3l0.9,0.8c0.2,0.2,0.4,0.5,0.6,0.7c0.1,0.2,0.2,0.5,0.2,0.8c0,0.4-0.1,0.7-0.4,0.9
				c-0.2,0.2-0.6,0.3-0.9,0.3C335,229.9,334.7,229.8,334.4,229.5z"/>
			<path class="st3" d="M306.3,236.2c-0.2-0.3-0.3-0.7-0.3-1.3v-2.1c0-0.6,0.1-1,0.3-1.3s0.6-0.4,1.1-0.4s0.9,0.1,1.1,0.4
				s0.3,0.7,0.3,1.3v2.1c0,0.6-0.1,1-0.3,1.3c-0.2,0.3-0.6,0.5-1.1,0.5C306.9,236.6,306.5,236.5,306.3,236.2z M308,235.8
				c0.1-0.2,0.1-0.4,0.1-0.8v-2.4c0-0.3-0.1-0.6-0.1-0.7c-0.1-0.2-0.3-0.2-0.6-0.2c-0.3,0-0.5,0.1-0.6,0.2c-0.1,0.2-0.1,0.4-0.1,0.7
				v2.4c0,0.3,0,0.6,0.1,0.8c0.1,0.2,0.3,0.2,0.6,0.2C307.7,236,307.9,235.9,308,235.8z"/>
			<path class="st3" d="M309.7,231.1h2.1v0.5h-1.3v1.8h1v0.5h-1v2.5h-0.8V231.1z"/>
			<path class="st3" d="M313.7,231.1h0.6l0.6,3.9l0.7-3.9h0.5l0.7,3.9l0.6-3.9h0.6l-0.9,5.4h-0.6l-0.8-4l-0.8,4h-0.6L313.7,231.1z"
				/>
			<path class="st3" d="M319.4,231.1h0.7l1.2,5.4h-0.7l-0.2-1.4h-1.1l-0.3,1.4h-0.7L319.4,231.1z M320.2,234.6l-0.5-2.4l-0.4,2.4
				H320.2z"/>
			<path class="st3" d="M322.2,231.7h-1v-0.6h2.7v0.6h-1v4.9h-0.8V231.7z"/>
			<path class="st3" d="M324.3,231.1h2.1v0.6h-1.3v1.8h1.1v0.5h-1.1v2h1.4v0.5h-2.1V231.1z"/>
			<path class="st3" d="M327,231.1h1.1c0.5,0,1,0.1,1.2,0.3c0.3,0.2,0.4,0.6,0.4,1.1c0,0.7-0.2,1.1-0.7,1.3l0.8,2.7h-0.7l-0.7-2.5
				h-0.6v2.5H327V231.1z M328.1,233.4c0.3,0,0.6-0.1,0.7-0.2s0.2-0.4,0.2-0.7c0-0.2,0-0.4-0.1-0.5c0-0.1-0.1-0.2-0.3-0.3
				s-0.3-0.1-0.5-0.1h-0.3v1.8H328.1z"/>
		</g>
		<g>
			<path class="st3" d="M143.5,257.5h2.1v0.5h-1.3v1.8h1v0.5h-1v2.5h-0.8V257.5z"/>
			<path class="st3" d="M146.9,257.5h0.7l1.2,5.4h-0.7l-0.2-1.4h-1.1l-0.3,1.4h-0.7L146.9,257.5z M147.7,261l-0.5-2.4l-0.4,2.4
				H147.7z"/>
			<path class="st3" d="M149.3,257.5h1.1c0.6,0,1,0.1,1.2,0.3c0.3,0.2,0.4,0.6,0.4,1.1c0,0.7-0.2,1.1-0.7,1.3l0.8,2.7h-0.7l-0.7-2.5
				h-0.6v2.5h-0.8V257.5z M150.4,259.9c0.3,0,0.6-0.1,0.7-0.2s0.2-0.4,0.2-0.7c0-0.2,0-0.4-0.1-0.5c-0.1-0.1-0.1-0.2-0.3-0.3
				s-0.3-0.1-0.5-0.1h-0.3v1.8H150.4z"/>
			<path class="st3" d="M152.9,257.5h0.7l1,4.4l1-4.4h0.7l0.1,5.4h-0.6l-0.1-3.9l-0.9,3.9h-0.4l-0.9-3.9l-0.1,3.9h-0.6L152.9,257.5z
				"/>
			<path class="st3" d="M157.5,262.6c-0.2-0.3-0.4-0.7-0.4-1.2l0.7-0.2c0,0.3,0.1,0.6,0.2,0.8c0.1,0.2,0.3,0.3,0.6,0.3
				c0.2,0,0.3-0.1,0.4-0.2c0.1-0.1,0.2-0.3,0.2-0.5c0-0.2,0-0.4-0.1-0.5c-0.1-0.1-0.2-0.3-0.5-0.5l-0.9-0.8
				c-0.2-0.2-0.3-0.3-0.4-0.5c-0.1-0.2-0.1-0.4-0.1-0.7c0-0.4,0.1-0.7,0.3-0.9c0.2-0.2,0.6-0.3,1-0.3c0.4,0,0.7,0.1,1,0.3
				c0.2,0.2,0.3,0.6,0.4,1.1l-0.6,0.2c0-0.3-0.1-0.6-0.2-0.7c-0.1-0.2-0.3-0.3-0.5-0.3c-0.4,0-0.7,0.2-0.7,0.6c0,0.2,0,0.3,0.1,0.4
				c0.1,0.1,0.1,0.2,0.3,0.3l0.9,0.8c0.2,0.2,0.4,0.5,0.6,0.7c0.1,0.2,0.2,0.5,0.2,0.8c0,0.4-0.1,0.7-0.4,0.9s-0.6,0.3-0.9,0.3
				C158.1,263,157.7,262.9,157.5,262.6z"/>
		</g>
		<g>
			<path class="st3" d="M308.3,344.3h0.7l1,4.4l1-4.4h0.7l0.1,5.4h-0.6l-0.1-3.9l-0.9,3.9h-0.4l-0.9-3.9l-0.1,3.9h-0.6L308.3,344.3z
				"/>
			<path class="st3" d="M312.6,344.3h0.7v5.4h-0.7V344.3z"/>
			<path class="st3" d="M314.3,344.3h0.8v4.9h1.4v0.5h-2.1V344.3z"/>
			<path class="st3" d="M316.9,344.3h0.8v4.9h1.4v0.5h-2.1V344.3z"/>
			<path class="st3" d="M319.6,344.3h0.7v5.4h-0.7V344.3z"/>
			<path class="st3" d="M321.5,349.4c-0.2-0.3-0.3-0.7-0.3-1.3V346c0-0.6,0.1-1,0.3-1.3c0.2-0.3,0.6-0.4,1.1-0.4
				c0.5,0,0.9,0.1,1.1,0.4s0.3,0.7,0.3,1.3v2.1c0,0.6-0.1,1-0.3,1.3c-0.2,0.3-0.6,0.5-1.1,0.5C322.1,349.8,321.7,349.7,321.5,349.4z
				 M323.2,349c0.1-0.2,0.1-0.4,0.1-0.8v-2.4c0-0.3,0-0.6-0.1-0.7c-0.1-0.2-0.3-0.2-0.6-0.2c-0.3,0-0.5,0.1-0.6,0.2
				c-0.1,0.2-0.1,0.4-0.1,0.7v2.4c0,0.3,0.1,0.6,0.1,0.8c0.1,0.2,0.3,0.2,0.6,0.2C322.9,349.2,323.1,349.2,323.2,349z"/>
			<path class="st3" d="M324.9,344.3h0.5l1.5,3.6v-3.6h0.6v5.4h-0.5l-1.6-3.7v3.7h-0.6V344.3z"/>
			<path class="st3" d="M312.3,351h0.8v2.6l1.2-2.6h0.7l-1.1,2.4l1.2,3h-0.7l-1-2.5l-0.3,0.6v1.9h-0.8V351z"/>
			<path class="st3" d="M315.4,351h0.6l0.6,3.9l0.7-3.9h0.5l0.7,3.9l0.6-3.9h0.6l-0.9,5.4h-0.6l-0.8-4l-0.8,4h-0.6L315.4,351z"/>
			<path class="st3" d="M320.5,351h0.8v2.3h1.4V351h0.8v5.4h-0.8v-2.5h-1.4v2.5h-0.8V351z"/>
		</g>
		<g>
			<path class="st3" d="M134.2,341.8h0.7l1,4.4l1-4.4h0.7l0.1,5.4h-0.6l-0.1-3.9l-0.9,3.9h-0.4l-0.9-3.9l-0.1,3.9h-0.6L134.2,341.8z
				"/>
			<path class="st3" d="M138.6,341.8h0.7v5.4h-0.7V341.8z"/>
			<path class="st3" d="M140.2,341.8h0.8v4.9h1.4v0.5h-2.1V341.8z"/>
			<path class="st3" d="M142.9,341.8h0.8v4.9h1.4v0.5h-2.1V341.8z"/>
			<path class="st3" d="M145.6,341.8h0.7v5.4h-0.7V341.8z"/>
			<path class="st3" d="M147.5,346.9c-0.2-0.3-0.3-0.7-0.3-1.3v-2.1c0-0.6,0.1-1,0.3-1.3c0.2-0.3,0.6-0.4,1.1-0.4
				c0.5,0,0.9,0.1,1.1,0.4s0.3,0.7,0.3,1.3v2.1c0,0.6-0.1,1-0.3,1.3c-0.2,0.3-0.6,0.5-1.1,0.5C148.1,347.3,147.7,347.2,147.5,346.9z
				 M149.2,346.5c0.1-0.2,0.1-0.4,0.1-0.8v-2.4c0-0.3,0-0.6-0.1-0.7c-0.1-0.2-0.3-0.2-0.6-0.2c-0.3,0-0.5,0.1-0.6,0.2
				c-0.1,0.2-0.1,0.4-0.1,0.7v2.4c0,0.3,0.1,0.6,0.1,0.8c0.1,0.2,0.3,0.2,0.6,0.2C148.9,346.7,149.1,346.6,149.2,346.5z"/>
			<path class="st3" d="M150.8,341.8h0.5l1.5,3.6v-3.6h0.6v5.4H153l-1.6-3.7v3.7h-0.6V341.8z"/>
			<path class="st3" d="M155.9,341.8h0.8v2.6l1.2-2.6h0.7l-1.1,2.4l1.2,3h-0.7l-1-2.5l-0.3,0.6v1.9h-0.8V341.8z"/>
			<path class="st3" d="M159.3,341.8h0.7v5.4h-0.7V341.8z"/>
			<path class="st3" d="M160.9,341.8h0.8v4.9h1.4v0.5h-2.1V341.8z"/>
			<path class="st3" d="M163.8,346.9c-0.2-0.3-0.3-0.7-0.3-1.3v-2.1c0-0.6,0.1-1,0.3-1.3c0.2-0.3,0.6-0.4,1.1-0.4s0.9,0.1,1.1,0.4
				s0.3,0.7,0.3,1.3v2.1c0,0.6-0.1,1-0.3,1.3c-0.2,0.3-0.6,0.5-1.1,0.5C164.4,347.3,164,347.2,163.8,346.9z M165.5,346.5
				c0.1-0.2,0.1-0.4,0.1-0.8v-2.4c0-0.3-0.1-0.6-0.1-0.7c-0.1-0.2-0.3-0.2-0.6-0.2c-0.3,0-0.5,0.1-0.6,0.2c-0.1,0.2-0.1,0.4-0.1,0.7
				v2.4c0,0.3,0,0.6,0.1,0.8c0.1,0.2,0.3,0.2,0.6,0.2C165.2,346.7,165.4,346.6,165.5,346.5z"/>
			<path class="st3" d="M167.4,346.9c-0.2-0.3-0.4-0.7-0.4-1.2l0.7-0.2c0,0.3,0.1,0.6,0.2,0.8c0.1,0.2,0.3,0.3,0.6,0.3
				c0.2,0,0.3-0.1,0.4-0.2c0.1-0.1,0.2-0.3,0.2-0.5c0-0.2,0-0.4-0.1-0.5s-0.2-0.3-0.4-0.5l-0.9-0.8c-0.2-0.2-0.3-0.3-0.4-0.5
				c-0.1-0.2-0.1-0.4-0.1-0.7c0-0.4,0.1-0.7,0.3-0.9s0.6-0.3,1-0.3c0.4,0,0.7,0.1,1,0.3c0.2,0.2,0.3,0.6,0.4,1.1l-0.6,0.2
				c0-0.3-0.1-0.6-0.2-0.7s-0.3-0.3-0.5-0.3c-0.4,0-0.7,0.2-0.7,0.6c0,0.2,0,0.3,0.1,0.4c0.1,0.1,0.1,0.2,0.3,0.3l0.9,0.8
				c0.2,0.2,0.4,0.5,0.6,0.7c0.1,0.2,0.2,0.5,0.2,0.8c0,0.4-0.1,0.7-0.4,0.9c-0.2,0.2-0.6,0.3-0.9,0.3
				C168,347.3,167.6,347.2,167.4,346.9z"/>
			<path class="st3" d="M139.7,353.6c-0.2-0.3-0.3-0.7-0.3-1.3v-2.1c0-0.6,0.1-1,0.3-1.3s0.6-0.4,1.1-0.4c0.5,0,0.9,0.1,1.1,0.4
				s0.3,0.7,0.3,1.3v2.1c0,0.6-0.1,1-0.3,1.3c-0.2,0.3-0.6,0.5-1.1,0.5C140.3,354,139.9,353.9,139.7,353.6z M141.4,353.2
				c0.1-0.2,0.1-0.4,0.1-0.8V350c0-0.3,0-0.6-0.1-0.7c-0.1-0.2-0.3-0.2-0.6-0.2c-0.3,0-0.5,0.1-0.6,0.2c-0.1,0.2-0.1,0.4-0.1,0.7
				v2.4c0,0.3,0.1,0.6,0.1,0.8c0.1,0.2,0.3,0.2,0.6,0.2C141.1,353.4,141.3,353.3,141.4,353.2z"/>
			<path class="st3" d="M143.1,348.5h2.1v0.5h-1.3v1.8h1v0.5h-1v2.5h-0.8V348.5z"/>
			<path class="st3" d="M147.4,353.5c-0.2-0.3-0.3-0.8-0.3-1.3v-1.9c0-0.6,0.1-1,0.3-1.4s0.6-0.5,1.1-0.5c0.5,0,0.8,0.1,1,0.4
				c0.2,0.3,0.3,0.7,0.3,1.2v0.4h-0.7v-0.4c0-0.2,0-0.4,0-0.6c0-0.1-0.1-0.2-0.2-0.3c-0.1-0.1-0.2-0.1-0.4-0.1c-0.2,0-0.4,0-0.5,0.1
				c-0.1,0.1-0.2,0.2-0.2,0.4s0,0.4,0,0.6v2.2c0,0.3,0,0.5,0.1,0.7s0.1,0.3,0.2,0.3c0.1,0.1,0.2,0.1,0.4,0.1c0.2,0,0.3,0,0.4-0.1
				s0.2-0.2,0.2-0.3c0-0.1,0-0.3,0-0.6v-0.4h0.7v0.4c0,0.5-0.1,1-0.3,1.2c-0.2,0.3-0.6,0.4-1.1,0.4C148,354,147.7,353.9,147.4,353.5
				z"/>
			<path class="st3" d="M150.9,353.6c-0.2-0.3-0.3-0.7-0.3-1.3v-2.1c0-0.6,0.1-1,0.3-1.3s0.6-0.4,1.1-0.4s0.9,0.1,1.1,0.4
				s0.3,0.7,0.3,1.3v2.1c0,0.6-0.1,1-0.3,1.3c-0.2,0.3-0.6,0.5-1.1,0.5C151.5,354,151.2,353.9,150.9,353.6z M152.6,353.2
				c0.1-0.2,0.1-0.4,0.1-0.8V350c0-0.3-0.1-0.6-0.1-0.7c-0.1-0.2-0.3-0.2-0.6-0.2c-0.3,0-0.5,0.1-0.6,0.2c-0.1,0.2-0.1,0.4-0.1,0.7
				v2.4c0,0.3,0,0.6,0.1,0.8c0.1,0.2,0.3,0.2,0.6,0.2C152.3,353.4,152.5,353.3,152.6,353.2z"/>
			<path class="st3" d="M154.3,348.5h2.1v0.5h-1.3v1.8h1v0.5h-1v2.5h-0.8V348.5z"/>
			<path class="st3" d="M156.9,348.5h2.1v0.5h-1.3v1.8h1v0.5h-1v2.5h-0.8V348.5z"/>
			<path class="st3" d="M159.5,348.5h2.1v0.6h-1.3v1.8h1.1v0.5h-1.1v2h1.4v0.5h-2.1V348.5z"/>
			<path class="st3" d="M162.3,348.5h2.1v0.6H163v1.8h1.1v0.5H163v2h1.4v0.5h-2.1V348.5z"/>
			<path class="st3" d="M140.5,355.2h0.7l1.2,5.4h-0.7l-0.2-1.4h-1.1l-0.3,1.4h-0.7L140.5,355.2z M141.4,358.8l-0.5-2.4l-0.4,2.4
				H141.4z"/>
			<path class="st3" d="M143,355.2h0.5l1.5,3.6v-3.6h0.6v5.4h-0.5l-1.6-3.7v3.7H143V355.2z"/>
			<path class="st3" d="M146.5,355.2h1.2c0.6,0,1,0.1,1.2,0.4s0.4,0.7,0.4,1.3v2c0,0.6-0.1,1-0.4,1.3c-0.2,0.3-0.6,0.4-1.2,0.4h-1.2
				V355.2z M147.7,360.1c0.3,0,0.5-0.1,0.6-0.2c0.1-0.1,0.2-0.2,0.2-0.4c0-0.2,0-0.4,0-0.8V357c0-0.3,0-0.5-0.1-0.7
				c0-0.2-0.1-0.3-0.2-0.4c-0.1-0.1-0.3-0.1-0.6-0.1h-0.4v4.3H147.7z"/>
			<path class="st3" d="M151.8,360.3c-0.2-0.3-0.4-0.7-0.4-1.2l0.7-0.2c0,0.3,0.1,0.6,0.2,0.8c0.1,0.2,0.3,0.3,0.6,0.3
				c0.2,0,0.3-0.1,0.4-0.2c0.1-0.1,0.2-0.3,0.2-0.5c0-0.2,0-0.4-0.1-0.5c-0.1-0.1-0.2-0.3-0.5-0.5l-0.9-0.8
				c-0.2-0.2-0.3-0.3-0.4-0.5c-0.1-0.2-0.1-0.4-0.1-0.7c0-0.4,0.1-0.7,0.3-0.9s0.6-0.3,1-0.3c0.4,0,0.7,0.1,1,0.3
				c0.2,0.2,0.3,0.6,0.4,1.1l-0.6,0.2c0-0.3-0.1-0.6-0.2-0.7s-0.3-0.3-0.5-0.3c-0.4,0-0.7,0.2-0.7,0.6c0,0.2,0,0.3,0.1,0.4
				c0.1,0.1,0.1,0.2,0.3,0.3l0.9,0.8c0.2,0.2,0.4,0.5,0.6,0.7c0.1,0.2,0.2,0.5,0.2,0.8c0,0.4-0.1,0.7-0.4,0.9
				c-0.2,0.2-0.6,0.3-0.9,0.3C152.4,360.7,152.1,360.6,151.8,360.3z"/>
			<path class="st3" d="M155,360.3c-0.2-0.3-0.3-0.7-0.3-1.3v-2.1c0-0.6,0.1-1,0.3-1.3c0.2-0.3,0.6-0.4,1.1-0.4s0.9,0.1,1.1,0.4
				s0.3,0.7,0.3,1.3v2.1c0,0.6-0.1,1-0.3,1.3c-0.2,0.3-0.6,0.5-1.1,0.5C155.6,360.7,155.2,360.6,155,360.3z M156.7,359.9
				c0.1-0.2,0.1-0.4,0.1-0.8v-2.4c0-0.3-0.1-0.6-0.1-0.7c-0.1-0.2-0.3-0.2-0.6-0.2c-0.3,0-0.5,0.1-0.6,0.2c-0.1,0.2-0.1,0.4-0.1,0.7
				v2.4c0,0.3,0,0.6,0.1,0.8c0.1,0.2,0.3,0.2,0.6,0.2C156.4,360.1,156.6,360.1,156.7,359.9z"/>
			<path class="st3" d="M159.2,358.8l-1.2-3.5h0.7l0.8,2.6l0.8-2.6h0.7l-1.2,3.5v1.9h-0.7V358.8z"/>
			<path class="st3" d="M162.3,355.2h0.7l1.2,5.4h-0.7l-0.2-1.4h-1.1l-0.3,1.4h-0.7L162.3,355.2z M163.2,358.8l-0.5-2.4l-0.4,2.4
				H163.2z"/>
		</g>
	</g>
</g>
<g class="st6">
	<path class="st7" d="M208.5,307.5c23.8,0,43.1-19.3,43.1-43.1s-19.3-43.1-43.1-43.1s-43.1,19.3-43.1,43.1
		C165.4,288.3,184.7,307.5,208.5,307.5"/>
	<path class="st8" d="M230,239.7v-2.3h-9.3v2.4h6.9l-5.4,25.3h2.5L230,239.7z M218.5,265.1v-27.7h-1.7c-0.6,1.1-1.7,1.8-4.3,2.2v2.1
		l3.5-0.3v23.8h2.5V265.1z M207.7,256.1h-4.3l4.3-13.7V256.1z M212.2,258.3V256H210v-18.7h-2.9l-5.9,18.4v2.5h6.4v6.8h2.4v-6.8
		L212.2,258.3L212.2,258.3z M199.9,260.5h-3.1v4.5h3.1V260.5z M193.3,265.1v-27.7h-1.7c-0.6,1.1-1.7,1.8-4.3,2.2v2.1l3.5-0.3v23.8
		h2.5V265.1z"/>
	<line class="st9" x1="193.3" y1="269.7" x2="223.6" y2="269.7"/>
	<path class="st10" d="M316.8,300.1v-64.9l-0.4-0.7l-3.8-6.4v-1.5v-7.1h-37.9v8.7l-6.2,14l0,0l-0.7,1.6v2.4v63.4h33.9h2.7l0,0l1.3-1
		l0,0L316.8,300.1z M312.8,298.1l-7.1,5.4v-58.4l7.1-5.4V298.1z M312.2,235.1l-3.4,2.6l2.1-4.8L312.2,235.1z M278.7,223.4h29.9v3.1
		h-29.9V223.4z M278,230.6h29.5l-5.1,11.5h-29.5L278,230.6z M301.7,305.5h-29.9v-59.4h29.9V305.5z"/>
	<text transform="matrix(1 0 0 1 186.4806 281.9668)" class="st8 st11 st12">MILLONES DE</text>
	<text transform="matrix(1 0 0 1 193.4806 291.1668)" class="st8 st11 st12">ENVASES</text>
</g>
<g class="st6">
	<path class="st7" d="M208.5,307.7c23.8,0,43.1-19.3,43.1-43.1s-19.3-43.1-43.1-43.1s-43.1,19.3-43.1,43.1
		C165.5,288.5,184.7,307.7,208.5,307.7"/>
	<path class="st8" d="M222.9,251.3c0,2.7,0,5.7-0.3,9.4c-0.1,1.6-0.7,2.5-2.1,2.5s-2-1-2.2-2.5c-0.2-2.5-0.3-7.2-0.3-9.3
		c0-2.2,0-6,0.2-9.1c0.1-1.5,0.7-2.6,2.2-2.6s2.2,1,2.3,2.6C222.8,243.7,222.9,248.2,222.9,251.3 M220.5,237.4
		c-3.2,0-4.5,2.1-4.8,4.8c-0.1,2.3-0.2,6.5-0.2,9.2c0,2.4,0.1,7.3,0.3,9c0.3,3.6,1.7,5.1,4.6,5.1c2.8,0,4.3-1.6,4.6-5.1
		c0.2-2.3,0.3-6.8,0.3-9c0-2.4,0-6.1-0.2-9.2C224.9,239.5,223.6,237.4,220.5,237.4 M210.8,251.3c0,2.7,0,5.7-0.3,9.4
		c-0.1,1.6-0.7,2.5-2.1,2.5s-2-1-2.2-2.5c-0.2-2.5-0.3-7.2-0.3-9.3c0-2.2,0-6,0.2-9.1c0.1-1.5,0.7-2.6,2.2-2.6s2.2,1,2.3,2.6
		C210.7,243.7,210.8,248.2,210.8,251.3 M208.4,237.4c-3.2,0-4.5,2.1-4.8,4.8c-0.1,2.3-0.2,6.5-0.2,9.2c0,2.4,0.1,7.3,0.3,9
		c0.3,3.6,1.7,5.1,4.6,5.1c2.8,0,4.3-1.6,4.6-5.1c0.2-2.3,0.3-6.8,0.3-9c0-2.4,0-6.1-0.2-9.2C212.9,239.5,211.5,237.4,208.4,237.4
		 M198.7,261.1c-0.2,1.6-0.9,2.2-2.2,2.2c-1.2,0-2.1-0.5-2.3-2.1c-0.2-1.2-0.1-6.7-0.1-8.3c0.2-1.3,1-2.3,2.6-2.3
		c1.3,0,1.9,0.7,2,1.8C198.8,254,198.8,260,198.7,261.1 M201.1,261.7c0.3-1.6,0.2-6.9,0-10c-0.1-2.2-1.5-3.4-3.4-3.4
		c-1.6,0-2.9,0.5-3.6,1.9c0-0.7,0-4.5,0.1-7.3c0.1-2,0.7-3.1,2.3-3.1s2,0.9,2.2,2.6c0,0.3,0,1.4,0,1.9h2.4c0-0.6,0-2.2-0.1-3
		c-0.3-2.2-1.5-3.9-4.5-3.9c-3.1,0-4.4,2-4.6,5.2c-0.1,1.4-0.2,6.2-0.2,8.7c0,2.6,0,7.7,0.3,10c0.5,2.8,2,4.1,4.6,4.1
		C199.4,265.5,200.6,263.8,201.1,261.7"/>
	<line class="st9" x1="193.4" y1="269.9" x2="223.7" y2="269.9"/>
	<g class="st13">
		<rect x="335.2" y="241.5" class="st4" width="4" height="17"/>
		<rect x="260.3" y="241.5" class="st4" width="4" height="17"/>
		<rect x="290.1" y="284.9" class="st4" width="19.4" height="4"/>
		<rect x="290.1" y="276.1" class="st4" width="19.4" height="4"/>
		<path class="st4" d="M286.5,276.1h-10.8v12.8h10.8V276.1z M282.5,284.9h-2.8v-4.8h2.8V284.9z"/>
		<path class="st4" d="M323.8,276.1H313v12.8h10.8V276.1z M319.7,284.9h-2.8v-4.8h2.8V284.9z"/>
		<path class="st4" d="M311.4,219.4h-4.1h-35.2l-6.8,7.3v0.7v3l0,0v6.6v23.3v7.4v2v2v1.6v21.8v3.7v11h12.9v-11h43.2v11h12.9v-11
			v-3.7v-21.8v-3.6v-9.4V237v-6.6v-3.7l-6.8-7.3H311.4z M274.2,305.9h-4.9v-6.7h4.9V305.9z M330.2,305.9h-4.9v-6.7h4.9V305.9z
			 M269.3,241h60.9v15.3h-60.9V241z M330.2,271.8v1.6v21.5h-60.9v-21.5v-1.6H330.2z M330.2,267.8h-60.9v-7.4h60.9V267.8z M269.3,237
			v-6.3h60.9v6.3H269.3z M271,226.5l2.8-3h33.5h4.1h14.3l2.8,3H271z"/>
	</g>
	<text transform="matrix(1 0 0 1 190.7381 282.1168)" class="st8 st11 st12">CAMIONES</text>
	<text transform="matrix(1 0 0 1 194.538 291.3168)" class="st8 st11 st12">DIARIOS</text>
</g>
<g class="st6">
	<g class="st13">
		<circle class="st1" cx="208.8" cy="264.3" r="43.4"/>
	</g>
	<line class="st14" x1="193.7" y1="269.5" x2="223.8" y2="269.5"/>
	<path class="st8" d="M213.4,261.2c0.1-2.3,0.1-8,0-10.1c-0.2-2.4-1.6-3.8-3.9-3.8c-1.4,0-2.5,0.6-3,1.6v-8.7h6.4v-2.4h-8.6
		l-0.1,14.2h2.3c0.2-1.8,1.2-2.3,2.2-2.3c1.2,0,1.9,0.7,1.9,2.2c0.1,1.7,0.1,7.6,0.1,8.8c-0.1,1.6-0.7,2.5-2.2,2.5
		c-1.4,0-2-0.9-2.1-2.5c0-0.4,0-2.5,0-2.8H204c0,1.6,0,1.6,0,3.2c0.2,2.7,1.7,4.3,4.6,4.3C211.6,265.4,213.3,263.6,213.4,261.2"/>
	<text transform="matrix(1 0 0 1 190.3229 281.7816)" class="st8 st11 st15">ESTRELLAS</text>
	<text transform="matrix(1 0 0 1 193.2468 291.0599)" class="st8 st11 st15">ECOSTAR</text>
	<g class="st13">
		<polygon class="st4" points="310.7,233.3 309.6,236.7 306,236.2 308.9,238.6 307.8,241.9 310.7,240.2 313.6,242.7 312.5,239.1 
			315.4,237.5 311.8,237 		"/>
		<polygon class="st4" points="311.8,292 310.7,288.5 309.6,291.7 306,291.2 308.9,293.7 307.8,297 310.7,295.3 313.6,297.8 
			312.5,294.3 315.4,292.5 		"/>
		<polygon class="st4" points="337.2,268.1 333.6,267.6 336.5,270.2 335.4,273.4 338.3,271.7 341.2,274.2 340.1,270.7 343,268.9 
			339.5,268.4 338.3,264.9 		"/>
		<polygon class="st4" points="283.2,263.9 286.1,266.4 285,262.8 287.8,261.1 284.3,260.6 283.2,257 282.1,260.3 278.4,259.8 
			281.4,262.3 280.3,265.6 		"/>
		<polygon class="st4" points="286.8,243.6 285.7,246.9 282.2,246.4 285,248.9 283.9,252.1 286.8,250.4 289.7,252.9 288.6,249.4 
			291.6,247.7 287.9,247.2 		"/>
		<polygon class="st4" points="296.7,234.9 295.6,238.2 292,237.7 294.9,240.1 293.8,243.4 296.7,241.7 299.5,244.2 298.4,240.6 
			301.3,239 297.8,238.5 		"/>
		<polygon class="st4" points="331.2,258.8 334.1,257 337,259.6 335.9,256 338.9,254.3 335.2,253.8 334.1,250.3 333,253.5 
			329.5,253 332.3,255.5 		"/>
		<polygon class="st4" points="324.2,238.8 323.1,242 319.5,241.5 322.4,244 321.3,247.3 324.2,245.5 327.2,248.1 326,244.5 
			328.9,242.8 325.3,242.3 		"/>
		<polygon class="st4" points="287.9,274.7 286.8,271.2 285.7,274.4 282.2,273.9 285,276.4 283.9,279.6 286.8,278 289.7,280.4 
			288.6,276.9 291.6,275.2 		"/>
		<polygon class="st4" points="297.8,285.9 296.7,282.4 295.6,285.6 292,285.1 294.9,287.6 293.8,290.9 296.7,289.2 299.5,291.7 
			298.4,288.1 301.3,286.4 		"/>
		<polygon class="st4" points="331.2,286.3 334.1,284.6 337,287.1 335.9,283.6 338.9,281.8 335.2,281.3 334.1,277.8 333,281 
			329.5,280.5 332.3,283.1 		"/>
		<polygon class="st4" points="325.3,289.8 324.2,286.2 323.1,289.5 319.5,289 322.4,291.5 321.3,294.8 324.2,293 327.2,295.6 
			326,292 328.9,290.3 		"/>
		<path class="st4" d="M329.1,229.4c-5.3,0-11.4-1.1-17.9-3.9c-13-5.7-25.9-7-34.7-7c-7,0-11.4,0.8-11.4,0.8v80.4
			c0,0,4.4-0.8,11.4-0.8c8.8,0,21.7,1.2,34.7,7c6.5,2.8,12.5,3.9,17.9,3.9c16.5,0,27.2-10.1,27.2-10.1v-80.4
			C356.3,219.3,345.7,229.4,329.1,229.4z M352.3,297.8c-3,2.3-11.5,7.9-23.2,7.9c-5.3,0-10.9-1.2-16.2-3.5
			c-13.8-6.1-27.3-7.3-36.3-7.3c-2.9,0-5.3,0.1-7.4,0.3V223c1.8-0.2,4.3-0.3,7.4-0.3l0,0c8.2,0,20.6,1.1,33.1,6.7
			c6.5,2.8,13,4.2,19.5,4.2c10,0,18-3.3,23.2-6.4L352.3,297.8L352.3,297.8z"/>
	</g>
</g>
<g class="st6">
	<g class="st13">
		<path class="st16" d="M208.5,307.1c23.8,0,43.1-19.3,43.1-43.1s-19.3-43.1-43.1-43.1s-43.1,19.3-43.1,43.1
			C165.5,287.9,184.8,307.1,208.5,307.1"/>
		<text transform="matrix(1 0 0 1 194.8883 281.55)" class="st3 st11 st12">PUNTOS</text>
		<text transform="matrix(1 0 0 1 192.4884 290.75)" class="st3 st11 st12">DE VENTA</text>
		<line class="st17" x1="193.4" y1="269.3" x2="223.7" y2="269.3"/>
		<g>
			<path class="st3" d="M240.2,264.6v-2.3h-6.7c1.6-4.6,6.4-10,6.6-16.4c0-0.5,0-3.1,0-3.5c-0.2-2.4-1.2-4.3-4.3-4.3
				s-4.6,1.9-4.7,4.4v3.6h2.3v-3.5c0.1-1.6,0.8-2.2,2.1-2.2c1.4,0,2.1,0.6,2.1,2.5v2.7c-0.2,6.4-4.8,11.5-6.7,16.7v2.3H240.2z"/>
			<polygon class="st3" points="203.5,241.3 203.5,239.2 195,239.2 195,241.4 201.3,241.4 196.4,264.7 198.6,264.7 			"/>
			<path class="st3" d="M182.4,264.7v-25.5h-1.6c-0.5,1-1.5,1.7-4,2v1.9l3.3-0.3v21.9H182.4L182.4,264.7z"/>
			<path class="st3" d="M229.3,241.6c-0.6-2.4-1.9-3.5-4.3-3.5c-2.5,0-4.1,1.4-4.4,3.6c-0.2,1.9-0.3,7.7,0,9.9
				c0.3,1.9,1.6,2.8,3.5,2.8c1.3,0,2.5-0.5,3.1-1.5c0,0.7,0,6.1-0.1,7.4c-0.1,1.5-0.9,2.3-2.1,2.3c-1.3,0-2-0.5-2.1-2.2v-2.1h-2.3
				c0,0.5,0,2.2,0.1,3c0.2,2.2,1.8,3.5,4.1,3.5c2.9,0,4.4-1.5,4.6-4.5c0.1-1.3,0.2-7.1,0.2-9.5C229.6,248.3,229.6,242.9,229.3,241.6
				z M224.9,252.2c-1.3,0-1.9-0.6-2-1.7c-0.1-0.9-0.1-7.2,0-8.1c0.1-1.3,0.9-2,2.1-2c1.3,0,2,0.7,2.1,2.1c0.1,0.9,0.1,6.5,0.1,8
				C227,251.4,226.2,252.2,224.9,252.2z"/>
			<path class="st3" d="M218.4,264.6v-2.3h-6.7c1.6-4.6,6.4-10,6.6-16.4c0-0.5,0-3.1,0-3.5c-0.2-2.4-1.2-4.3-4.3-4.3
				s-4.6,1.9-4.7,4.4v3.6h2.3v-3.5c0.1-1.6,0.8-2.2,2.1-2.2c1.4,0,2.1,0.6,2.1,2.5v2.7c-0.2,6.4-4.8,11.5-6.7,16.7v2.3H218.4z"/>
			<rect x="203.8" y="260.5" class="st3" width="2.9" height="4.2"/>
			<path class="st3" d="M193.9,243.4c-0.2-2.4-1.5-4.3-4.3-4.3c-2.9,0-4.1,1.9-4.4,4.4c-0.1,2.1-0.2,5.9-0.2,8.5
				c0,2.2,0.1,6.7,0.3,8.2c0.3,3.3,1.6,4.7,4.3,4.7c2.6,0,3.9-1.4,4.2-4.7c0.2-2.1,0.3-6.3,0.3-8.3
				C194.1,249.6,194.1,246.2,193.9,243.4z M191.5,260.5c-0.1,1.5-0.6,2.3-1.9,2.3s-1.9-0.9-2-2.3c-0.2-2.3-0.3-6.6-0.3-8.6
				s0-5.6,0.2-8.4c0.1-1.4,0.6-2.4,2-2.4c1.3,0,2,0.9,2.1,2.4c0.1,1.3,0.1,5.4,0.1,8.3C191.8,254.3,191.8,257.1,191.5,260.5z"/>
		</g>
	</g>
	<g class="st13">
		<path class="st4" d="M281.1,288.5c-4.7,0-8.5,3.8-8.5,8.5s3.8,8.5,8.5,8.5s8.5-3.8,8.5-8.5C289.7,292.3,285.8,288.5,281.1,288.5z
			 M281.1,301.5c-2.5,0-4.5-2-4.5-4.5s2-4.5,4.5-4.5s4.5,2,4.5,4.5S283.6,301.5,281.1,301.5z"/>
		<path class="st4" d="M322.3,288.5c-4.7,0-8.5,3.8-8.5,8.5s3.8,8.5,8.5,8.5s8.5-3.8,8.5-8.5S327,288.5,322.3,288.5z M322.3,301.5
			c-2.5,0-4.5-2-4.5-4.5s2-4.5,4.5-4.5s4.5,2,4.5,4.5S324.8,301.5,322.3,301.5z"/>
		<path class="st4" d="M314.8,283.8L314.8,283.8h15.5l10.6-47.1h-26.1h-4h-16.9h-4h-23.5l-5.4-14.1h-10.1v4h7.4l4.3,11.3l10.3,45.8
			H290l0,0h4l0,0h16.9l0,0h3.9V283.8z M314.8,279.8v-10.9h14.7l-2.4,10.9H314.8z M270.6,255.6h19.3v9.3h-17.2L270.6,255.6z
			 M293.9,255.6h16.9v9.3h-16.9V255.6z M314.8,255.6h17.7l-2.1,9.3h-15.6V255.6z M335.9,240.7l-2.4,10.9h-18.6v-10.9H335.9z
			 M310.8,240.7v10.9h-16.9v-10.9H310.8z M289.9,240.7v10.9h-20.2l-2.4-10.9H289.9z M276,279.8l-2.4-10.9h16.3v10.9H276z
			 M293.9,279.8v-10.9h16.9v10.9H293.9z"/>
	</g>
</g>
<g class="st6">
	<g class="st13">
		<path class="st16" d="M208.5,307.7c24,0,43.4-19.4,43.4-43.4s-19.4-43.4-43.4-43.4S165,240.3,165,264.3S184.5,307.7,208.5,307.7"
			/>
		<line class="st17" x1="193.2" y1="269.3" x2="223.7" y2="269.3"/>
		<text transform="matrix(1 0 0 1 186.1091 281.9285)" class="st3 st11 st18">MILLONES DE</text>
		<text transform="matrix(1 0 0 1 180.7702 291.1966)" class="st3 st11 st18">CONSUMIDORES</text>
		<path class="st3" d="M226,260.4c-0.2,1.7-1,2.3-2.2,2.3c-1.3,0-2.2-0.5-2.4-2.1c-0.2-1.3-0.1-7-0.1-8.6c0.2-1.3,1-2.3,2.7-2.3
			c1.4,0,2,0.8,2.1,1.9C226.1,253.2,226.1,259.3,226,260.4 M228.4,261.1c0.3-1.7,0.3-7.3,0-10.4c-0.1-2.2-1.6-3.5-3.5-3.5
			c-1.6,0-3,0.5-3.7,1.9c0-0.8,0-4.6,0.1-7.7c0.1-2,0.7-3.2,2.3-3.2s2.1,1,2.2,2.6c0,0.3,0,1.5,0,2h2.5c0-0.6,0-2.3-0.1-3.1
			c-0.3-2.3-1.5-4-4.7-4s-4.5,2.1-4.8,5.4c-0.1,1.4-0.2,6.4-0.2,9.1c0,2.7,0,8,0.3,10.4c0.5,2.9,2.1,4.3,4.8,4.3
			C226.7,265.1,227.9,263.4,228.4,261.1 M216.1,265v-4.8H213v4.7h0.9l0.1,0.1l-1.3,2.7l1.5,0.5L216.1,265z M208,249.5
			c-0.3,1-1.1,1.9-2.5,1.9s-2.1-0.6-2.2-1.9c-0.1-1-0.1-7.9,0-8.9c0.1-1.4,0.9-2.2,2.3-2.2c1.4,0,2.1,0.7,2.3,2.3
			C208,241.6,208,247.7,208,249.5 M210.4,260.1c0.1-1.4,0.2-7.8,0.2-10.4c0-2.7,0-8.7-0.3-10.1c-0.6-2.6-2.1-3.8-4.7-3.8
			c-2.8,0-4.5,1.5-4.7,3.9c-0.3,2.1-0.3,8.5,0,10.9c0.3,2.1,1.8,3.1,3.8,3.1c1.4,0,2.8-0.5,3.3-1.6c0,0.8,0,6.6-0.1,8.1
			c-0.1,1.6-1,2.5-2.3,2.5c-1.4,0-2.2-0.5-2.3-2.4V258h-2.5c0,0.5,0,2.4,0.1,3.2c0.2,2.4,1.9,3.8,4.4,3.8
			C208.5,265.1,210.1,263.5,210.4,260.1 M198.3,264.9v-2.5h-7.4c1.7-5,7-11,7.3-17.9c0-0.6,0-3.4,0-3.8c-0.2-2.6-1.3-4.6-4.7-4.6
			s-5,2-5.1,4.8v3.9h2.5V241c0.1-1.7,0.9-2.4,2.3-2.4c1.5,0,2.3,0.7,2.3,2.7v3c-0.2,7.1-5.3,12.6-7.4,18.2v2.5h10.2L198.3,264.9
			L198.3,264.9z"/>
	</g>
	<path class="st10" d="M376.3,275.3l-17.5-9.2v-0.4c5.2-2.4,8.7-7.7,8.7-13.5c0-8.2-6.6-14.8-14.8-14.8s-14.8,6.6-14.8,14.8
		c0,5.8,3.4,11.1,8.7,13.5v0.4l-14.7,7.7l-6.2-3.2v-1.5c7.2-3.1,11.8-10.2,11.8-18c0-10.8-8.8-19.6-19.6-19.6
		c-10.8,0-19.6,8.8-19.6,19.6c0,7.9,4.7,14.9,11.8,18v1.5l-6.2,3.2l-14.7-7.7v-0.4c5.2-2.4,8.7-7.7,8.7-13.5
		c0-8.2-6.6-14.8-14.8-14.8s-14.8,6.6-14.8,14.8c0,5.8,3.4,11.1,8.7,13.5v0.4l-17.5,9.2v11.2h26.7v10.8h63.7v-10.8h26.9v-11.2H376.3
		z M341.7,252.3c0-5.9,4.8-10.8,10.8-10.8c5.9,0,10.8,4.8,10.8,10.8c0,4.6-2.9,8.7-7.3,10.2l-1.3,0.5v4.2l-1.9,1.9l-2.5-2.5V263
		l-1.3-0.5C344.7,261,341.7,256.9,341.7,252.3z M302,251.1c0-8.6,7-15.6,15.6-15.6s15.6,7,15.6,15.6c0,6.6-4.2,12.5-10.5,14.7
		l-1.3,0.5v4.9l-3.6,3.6L314,271v-4.7l-1.3-0.5C306.2,263.6,302,257.7,302,251.1z M271.8,252.3c0-5.9,4.8-10.8,10.8-10.8
		c5.9,0,10.8,4.8,10.8,10.8c0,4.6-2.9,8.7-7.3,10.2l-1.3,0.5v3.4l-2.3,2.3l-2.1-2.1V263l-1.3-0.5C274.7,261,271.8,256.9,271.8,252.3
		z M262.9,277.8l15.1-7.9l4.4,4.4l4.5-4.5l12.1,6.3l-12.1,6.3h-24.2v-4.7h0.2V277.8z M345.4,293.2h-55.6v-6.7v-0.9l21.7-11.3
		l6.2,6.2l6.1-6.1l3.4,1.8l0,0l18.1,9.5v0.9L345.4,293.2L345.4,293.2z M372.3,282.5h-24.2l-12.1-6.3l12-6.2l4.8,4.8l4.6-4.6
		l14.7,7.7v4.7h0.2V282.5z"/>
</g>
</svg>
