<?xml version="1.0" encoding="utf-8"?>
<!-- Generator: Adobe Illustrator 21.1.0, SVG Export Plug-In . SVG Version: 6.00 Build 0)  -->
<svg version="1.1" id="Capa_1" xmlns="http://www.w3.org/2000/svg" xmlns:xlink="http://www.w3.org/1999/xlink" x="0px" y="0px"
	 viewBox="0 0 530 530" style="enable-background:new 0 0 530 530;" xml:space="preserve">
<style type="text/css">
	.st0{opacity:0.6;fill:#FFFFFF;enable-background:new    ;}
	.st1{display:none;}
	.st2{display:inline;fill:#EB2C24;}
	.st3{display:inline;fill:#FFFFFF;}
	.st4{display:inline;fill:none;stroke:#FFFFFF;stroke-width:1.5283;}
	.st5{font-family:'Oswald-Regular';}
	.st6{font-size:9.2075px;}
	.st7{display:inline;}
	.st8{fill:#706F6F;}
	.st9{display:inline;fill:#706F6F;}
	.st10{fill:#EB2C24;}
	.st11{fill:none;stroke:#FFFFFF;stroke-width:1.6812;}
	.st12{fill:#FFFFFF;}
	.st13{enable-background:new    ;}
	.st14{fill:none;stroke:#FFFFFF;stroke-width:1.5283;}
	.st15{font-size:9.2755px;}
</style>
<circle class="st0" cx="265" cy="265" r="132.5"/>
<g class="st1">
	<path class="st2" d="M208.5,307.7c23.8,0,43.1-19.3,43.1-43.1s-19.3-43.1-43.1-43.1s-43.1,19.3-43.1,43.1
		C165.4,288.5,184.7,307.7,208.5,307.7"/>
	<path class="st3" d="M217.7,265.3v-2.4h-7c1.7-4.8,6.7-10.5,6.9-17.3c0-0.6,0-3.3,0-3.7c-0.2-2.5-1.2-4.5-4.5-4.5s-4.8,2-4.9,4.6
		v3.8h2.5v-3.6c0.1-1.6,0.8-2.4,2.3-2.4c1.4,0,2.2,0.7,2.2,2.6v2.9c-0.2,6.8-5.1,12.1-7,17.5v2.4h9.5V265.3z M205.3,265.3v-27.7
		h-1.7c-0.6,1.1-1.7,1.8-4.3,2.2v2.1l3.5-0.3v23.8h2.5V265.3z"/>
	<line class="st4" x1="193.3" y1="269.9" x2="223.6" y2="269.9"/>
	<text transform="matrix(1 0 0 1 186.2961 282.1168)" class="st3 st5 st6">MILLONES DE</text>
	<text transform="matrix(1 0 0 1 179.996 291.3168)" class="st3 st5 st6">KM RECORRÍDOS</text>
	<g class="st7">
		<path class="st8" d="M351.2,275.2c-2.5-8.5-10.4-15.5-20.8-19.7l-12.2-35h-4.3l11.6,33.3c-5.5-1.7-11.4-2.6-17.5-2.8l-0.2-4.4
			h-2.5l-0.2,4.4c-6.6,0.1-13.1,1.3-19,3.3l11.8-33.8h-4.3l-12.5,35.7c-9.6,4.3-16.8,10.9-19.2,19c-2.2,7.4-0.1,14.8,5.2,20.9
			l-5.3,15.3h4.3l4.2-12.1c8,6.9,20.6,11.6,36.2,11.6c14.9,0,27.1-4.3,35.2-10.7l3.9,11.3h4.3l-5-14.2
			C351,290.9,353.5,283.1,351.2,275.2z M306.6,306.9c-16.3,0-30.7-5.7-37.5-14.8c-3.7-4.9-4.8-10.4-3.2-15.7
			c3.6-12.2,21.1-21.3,40.7-21.3s37.1,9.2,40.7,21.3c1.6,5.3,0.5,10.8-3.2,15.7C337.3,301.2,322.9,306.9,306.6,306.9z"/>
		<path class="st8" d="M308.2,258.3c-0.4-0.6-1-0.9-1.7-0.9s-1.3,0.3-1.7,0.9l-25.3,37.2c-0.5,0.7-0.5,1.7,0.1,2.4s1.5,1,2.3,0.6
			l24.7-9.5l24.7,9.5c0.2,0.1,0.5,0.1,0.7,0.1c0.6,0,1.2-0.3,1.6-0.8c0.5-0.7,0.6-1.7,0.1-2.4L308.2,258.3z M307.3,284.9
			c-0.2-0.1-0.5-0.1-0.7-0.1s-0.5,0-0.7,0.1l-19.3,7.5l20.1-29.4l20.1,29.4L307.3,284.9z"/>
		<polygon class="st8" points="306.6,220.5 306.3,226.6 306.9,226.6 		"/>
		<polygon class="st8" points="307.2,233.3 306,233.3 305.7,240 307.5,240 		"/>
	</g>
</g>
<g class="st1">
	<path class="st2" d="M208.5,307.5c23.8,0,43.1-19.3,43.1-43.1s-19.3-43.1-43.1-43.1s-43.1,19.3-43.1,43.1
		C165.4,288.3,184.7,307.5,208.5,307.5"/>
	<path class="st3" d="M230,239.7v-2.3h-9.3v2.4h6.9l-5.4,25.3h2.5L230,239.7z M218.5,265.1v-27.7h-1.7c-0.6,1.1-1.7,1.8-4.3,2.2v2.1
		l3.5-0.3v23.8h2.5V265.1z M207.7,256.1h-4.3l4.3-13.7V256.1z M212.2,258.3V256H210v-18.7h-2.9l-5.9,18.4v2.5h6.4v6.8h2.4v-6.8
		L212.2,258.3L212.2,258.3z M199.9,260.5h-3.1v4.5h3.1V260.5z M193.3,265.1v-27.7h-1.7c-0.6,1.1-1.7,1.8-4.3,2.2v2.1l3.5-0.3v23.8
		h2.5V265.1z"/>
	<line class="st4" x1="193.3" y1="269.7" x2="223.6" y2="269.7"/>
	<path class="st9" d="M316.8,300.1v-64.9l-0.4-0.7l-3.8-6.4v-1.5v-7.1h-37.9v8.7l-6.2,14l0,0l-0.7,1.6v2.4v63.4h33.9h2.7l0,0l1.3-1
		l0,0L316.8,300.1z M312.8,298.1l-7.1,5.4v-58.4l7.1-5.4V298.1z M312.2,235.1l-3.4,2.6l2.1-4.8L312.2,235.1z M278.7,223.4h29.9v3.1
		h-29.9V223.4z M278,230.6h29.5l-5.1,11.5h-29.5L278,230.6z M301.7,305.5h-29.9v-59.4h29.9V305.5z"/>
	<text transform="matrix(1 0 0 1 186.4806 281.9668)" class="st3 st5 st6">MILLONES DE</text>
	<text transform="matrix(1 0 0 1 193.4806 291.1668)" class="st3 st5 st6">ENVASES</text>
</g>
<g class="st1">
	<path class="st2" d="M208.5,307.7c23.8,0,43.1-19.3,43.1-43.1s-19.3-43.1-43.1-43.1s-43.1,19.3-43.1,43.1
		C165.5,288.5,184.7,307.7,208.5,307.7"/>
	<path class="st3" d="M222.9,251.3c0,2.7,0,5.7-0.3,9.4c-0.1,1.6-0.7,2.5-2.1,2.5s-2-1-2.2-2.5c-0.2-2.5-0.3-7.2-0.3-9.3
		c0-2.2,0-6,0.2-9.1c0.1-1.5,0.7-2.6,2.2-2.6s2.2,1,2.3,2.6C222.8,243.7,222.9,248.2,222.9,251.3 M220.5,237.4
		c-3.2,0-4.5,2.1-4.8,4.8c-0.1,2.3-0.2,6.5-0.2,9.2c0,2.4,0.1,7.3,0.3,9c0.3,3.6,1.7,5.1,4.6,5.1c2.8,0,4.3-1.6,4.6-5.1
		c0.2-2.3,0.3-6.8,0.3-9c0-2.4,0-6.1-0.2-9.2C224.9,239.5,223.6,237.4,220.5,237.4 M210.8,251.3c0,2.7,0,5.7-0.3,9.4
		c-0.1,1.6-0.7,2.5-2.1,2.5s-2-1-2.2-2.5c-0.2-2.5-0.3-7.2-0.3-9.3c0-2.2,0-6,0.2-9.1c0.1-1.5,0.7-2.6,2.2-2.6s2.2,1,2.3,2.6
		C210.7,243.7,210.8,248.2,210.8,251.3 M208.4,237.4c-3.2,0-4.5,2.1-4.8,4.8c-0.1,2.3-0.2,6.5-0.2,9.2c0,2.4,0.1,7.3,0.3,9
		c0.3,3.6,1.7,5.1,4.6,5.1c2.8,0,4.3-1.6,4.6-5.1c0.2-2.3,0.3-6.8,0.3-9c0-2.4,0-6.1-0.2-9.2C212.9,239.5,211.5,237.4,208.4,237.4
		 M198.7,261.1c-0.2,1.6-0.9,2.2-2.2,2.2c-1.2,0-2.1-0.5-2.3-2.1c-0.2-1.2-0.1-6.7-0.1-8.3c0.2-1.3,1-2.3,2.6-2.3
		c1.3,0,1.9,0.7,2,1.8C198.8,254,198.8,260,198.7,261.1 M201.1,261.7c0.3-1.6,0.2-6.9,0-10c-0.1-2.2-1.5-3.4-3.4-3.4
		c-1.6,0-2.9,0.5-3.6,1.9c0-0.7,0-4.5,0.1-7.3c0.1-2,0.7-3.1,2.3-3.1s2,0.9,2.2,2.6c0,0.3,0,1.4,0,1.9h2.4c0-0.6,0-2.2-0.1-3
		c-0.3-2.2-1.5-3.9-4.5-3.9c-3.1,0-4.4,2-4.6,5.2c-0.1,1.4-0.2,6.2-0.2,8.7c0,2.6,0,7.7,0.3,10c0.5,2.8,2,4.1,4.6,4.1
		C199.4,265.5,200.6,263.8,201.1,261.7"/>
	<line class="st4" x1="193.4" y1="269.9" x2="223.7" y2="269.9"/>
	<g class="st7">
		<rect x="335.2" y="241.5" class="st8" width="4" height="17"/>
		<rect x="260.3" y="241.5" class="st8" width="4" height="17"/>
		<rect x="290.1" y="284.9" class="st8" width="19.4" height="4"/>
		<rect x="290.1" y="276.1" class="st8" width="19.4" height="4"/>
		<path class="st8" d="M286.5,276.1h-10.8v12.8h10.8V276.1z M282.5,284.9h-2.8v-4.8h2.8V284.9z"/>
		<path class="st8" d="M323.8,276.1H313v12.8h10.8V276.1z M319.7,284.9h-2.8v-4.8h2.8V284.9z"/>
		<path class="st8" d="M311.4,219.4h-4.1h-35.2l-6.8,7.3v0.7v3l0,0v6.6v23.3v7.4v2v2v1.6v21.8v3.7v11h12.9v-11h43.2v11h12.9v-11
			v-3.7v-21.8v-3.6v-9.4V237v-6.6v-3.7l-6.8-7.3H311.4z M274.2,305.9h-4.9v-6.7h4.9V305.9z M330.2,305.9h-4.9v-6.7h4.9V305.9z
			 M269.3,241h60.9v15.3h-60.9V241z M330.2,271.8v1.6v21.5h-60.9v-21.5v-1.6H330.2z M330.2,267.8h-60.9v-7.4h60.9V267.8z M269.3,237
			v-6.3h60.9v6.3H269.3z M271,226.5l2.8-3h33.5h4.1h14.3l2.8,3H271z"/>
	</g>
	<text transform="matrix(1 0 0 1 190.7381 282.1168)" class="st3 st5 st6">CAMIONES</text>
	<text transform="matrix(1 0 0 1 194.538 291.3168)" class="st3 st5 st6">DIARIOS</text>
</g>
<g>
	<g>
		<circle class="st10" cx="208.8" cy="264.3" r="43.4"/>
	</g>
	<line class="st11" x1="193.7" y1="269.5" x2="223.8" y2="269.5"/>
	<path class="st12" d="M213.4,261.2c0.1-2.3,0.1-8,0-10.1c-0.2-2.4-1.6-3.8-3.9-3.8c-1.4,0-2.5,0.6-3,1.6v-8.7h6.4v-2.4h-8.6
		l-0.1,14.2h2.3c0.2-1.8,1.2-2.3,2.2-2.3c1.2,0,1.9,0.7,1.9,2.2c0.1,1.7,0.1,7.6,0.1,8.8c-0.1,1.6-0.7,2.5-2.2,2.5
		c-1.4,0-2-0.9-2.1-2.5c0-0.4,0-2.5,0-2.8H204c0,1.6,0,1.6,0,3.2c0.2,2.7,1.7,4.3,4.6,4.3C211.6,265.4,213.3,263.6,213.4,261.2"/>
	<g class="st13">
		<path class="st12" d="M190.9,274.3h2.9v0.8H192v2.5h1.5v0.7H192v2.8h1.9v0.8H191v-7.6H190.9z"/>
		<path class="st12" d="M195,281.3c-0.3-0.4-0.5-0.9-0.6-1.6l0.9-0.3c0,0.5,0.1,0.9,0.3,1.2c0.2,0.3,0.4,0.4,0.8,0.4
			c0.3,0,0.5-0.1,0.6-0.2c0.1-0.2,0.2-0.4,0.2-0.7c0-0.3-0.1-0.6-0.2-0.8c-0.1-0.2-0.3-0.4-0.6-0.7l-1.3-1.1
			c-0.3-0.2-0.4-0.5-0.6-0.7c-0.1-0.3-0.2-0.6-0.2-0.9c0-0.6,0.2-1,0.5-1.3s0.8-0.5,1.3-0.5c0.6,0,1,0.2,1.3,0.5s0.5,0.8,0.5,1.5
			l-0.9,0.2c0-0.4-0.1-0.8-0.2-1c-0.1-0.2-0.4-0.4-0.7-0.4c-0.6,0-0.9,0.3-0.9,0.8c0,0.2,0,0.4,0.1,0.6c0.1,0.1,0.2,0.3,0.4,0.5
			l1.3,1.1c0.3,0.3,0.6,0.6,0.8,1c0.2,0.3,0.3,0.7,0.3,1.1c0,0.6-0.2,1-0.5,1.3s-0.8,0.5-1.3,0.5C195.8,281.9,195.3,281.7,195,281.3
			z"/>
		<path class="st12" d="M199.8,275h-1.4v-0.8h3.7v0.8h-1.3v6.7h-1V275z"/>
		<path class="st12" d="M202.8,274.3h1.5c0.8,0,1.3,0.2,1.7,0.5s0.5,0.8,0.5,1.5c0,1-0.3,1.6-0.9,1.8l1.1,3.8h-1l-1-3.5h-0.8v3.5h-1
			v-7.6H202.8z M204.2,277.5c0.5,0,0.8-0.1,1-0.3s0.3-0.5,0.3-1c0-0.3,0-0.6-0.1-0.7c-0.1-0.2-0.2-0.3-0.4-0.4s-0.4-0.1-0.7-0.1
			h-0.5v2.5H204.2z"/>
		<path class="st12" d="M207.6,274.3h2.9v0.8h-1.9v2.5h1.5v0.7h-1.5v2.8h1.9v0.8h-2.9V274.3z"/>
		<path class="st12" d="M211.4,274.3h1v6.8h1.9v0.8h-3v-7.6H211.4z"/>
		<path class="st12" d="M215.1,274.3h1v6.8h1.9v0.8h-3v-7.6H215.1z"/>
		<path class="st12" d="M220,274.3h1l1.6,7.5h-1l-0.3-1.9h-1.5l-0.4,1.9h-1L220,274.3z M221.1,279.1l-0.6-3.4l-0.6,3.4H221.1z"/>
		<path class="st12" d="M223.7,281.3c-0.3-0.4-0.5-0.9-0.6-1.6l0.9-0.3c0,0.5,0.1,0.9,0.3,1.2c0.2,0.3,0.4,0.4,0.8,0.4
			c0.3,0,0.5-0.1,0.6-0.2c0.1-0.2,0.2-0.4,0.2-0.7c0-0.3-0.1-0.6-0.2-0.8c-0.1-0.2-0.3-0.4-0.6-0.7l-1.3-1.1
			c-0.3-0.2-0.4-0.5-0.6-0.7c-0.1-0.3-0.2-0.6-0.2-0.9c0-0.6,0.2-1,0.5-1.3s0.8-0.5,1.3-0.5c0.6,0,1,0.2,1.3,0.5s0.5,0.8,0.5,1.5
			l-0.9,0.2c0-0.4-0.1-0.8-0.2-1c-0.1-0.2-0.4-0.4-0.7-0.4c-0.6,0-0.9,0.3-0.9,0.8c0,0.2,0,0.4,0.1,0.6c0.1,0.1,0.2,0.3,0.4,0.5
			l1.3,1.1c0.3,0.3,0.6,0.6,0.8,1c0.2,0.3,0.3,0.7,0.3,1.1c0,0.6-0.2,1-0.5,1.3s-0.8,0.5-1.3,0.5C224.5,281.9,224,281.7,223.7,281.3
			z"/>
	</g>
	<g class="st13">
		<path class="st12" d="M193.8,283.5h2.9v0.8h-1.9v2.5h1.5v0.7h-1.5v2.8h1.9v0.8h-2.9V283.5z"/>
		<path class="st12" d="M197.9,290.5c-0.3-0.4-0.5-1.1-0.5-1.8V286c0-0.8,0.1-1.4,0.4-1.9c0.3-0.4,0.8-0.6,1.6-0.6
			c0.7,0,1.2,0.2,1.5,0.5c0.3,0.4,0.4,0.9,0.4,1.6v0.6h-1v-0.5c0-0.3,0-0.6,0-0.8c0-0.2-0.1-0.3-0.2-0.4c-0.1-0.1-0.3-0.2-0.6-0.2
			s-0.5,0.1-0.6,0.2s-0.2,0.3-0.3,0.5c0,0.2-0.1,0.5-0.1,0.9v3c0,0.4,0,0.7,0.1,0.9c0.1,0.2,0.2,0.4,0.3,0.5s0.3,0.1,0.6,0.1
			s0.5-0.1,0.6-0.2s0.2-0.3,0.2-0.5s0.1-0.5,0.1-0.8v-0.6h1v0.6c0,0.8-0.1,1.3-0.4,1.7c-0.3,0.4-0.8,0.6-1.5,0.6
			C198.8,291.1,198.2,290.9,197.9,290.5z"/>
		<path class="st12" d="M202.7,290.5c-0.3-0.4-0.5-1-0.5-1.8v-2.9c0-0.8,0.2-1.4,0.5-1.8s0.8-0.6,1.6-0.6c0.7,0,1.3,0.2,1.6,0.6
			s0.5,1,0.5,1.8v2.9c0,0.8-0.2,1.4-0.5,1.8s-0.8,0.6-1.6,0.6C203.6,291.1,203.1,290.9,202.7,290.5z M205.1,290
			c0.1-0.2,0.2-0.6,0.2-1v-3.3c0-0.5-0.1-0.8-0.2-1s-0.4-0.3-0.8-0.3c-0.4,0-0.7,0.1-0.8,0.3s-0.2,0.6-0.2,1v3.3
			c0,0.5,0.1,0.8,0.2,1c0.1,0.2,0.4,0.3,0.8,0.3C204.7,290.3,205,290.2,205.1,290z"/>
		<path class="st12" d="M207.7,290.6c-0.3-0.4-0.5-0.9-0.6-1.6l0.9-0.3c0,0.5,0.1,0.9,0.3,1.2c0.2,0.3,0.4,0.4,0.8,0.4
			c0.3,0,0.5-0.1,0.6-0.2c0.1-0.2,0.2-0.4,0.2-0.7c0-0.3-0.1-0.6-0.2-0.8c-0.1-0.2-0.3-0.4-0.6-0.7l-1.3-1.1
			c-0.3-0.2-0.4-0.5-0.6-0.7c-0.1-0.3-0.2-0.6-0.2-0.9c0-0.6,0.2-1,0.5-1.3s0.8-0.5,1.3-0.5c0.6,0,1,0.2,1.3,0.5s0.5,0.8,0.5,1.5
			l-0.9,0.2c0-0.4-0.1-0.8-0.2-1c-0.1-0.2-0.4-0.4-0.7-0.4c-0.6,0-0.9,0.3-0.9,0.8c0,0.2,0,0.4,0.1,0.6c0.1,0.1,0.2,0.3,0.4,0.5
			l1.3,1.1c0.3,0.3,0.6,0.6,0.8,1c0.2,0.3,0.3,0.7,0.3,1.1c0,0.6-0.2,1-0.5,1.3s-0.8,0.5-1.3,0.5
			C208.5,291.1,208.1,290.9,207.7,290.6z"/>
		<path class="st12" d="M212.6,284.3h-1.4v-0.8h3.7v0.8h-1.3v6.7h-1V284.3z"/>
		<path class="st12" d="M216.7,283.5h1l1.6,7.5h-1l-0.3-1.9h-1.5l-0.4,1.9h-1L216.7,283.5z M217.8,288.4l-0.6-3.4l-0.6,3.4H217.8z"
			/>
		<path class="st12" d="M220,283.5h1.5c0.8,0,1.3,0.2,1.7,0.5s0.5,0.8,0.5,1.5c0,1-0.3,1.6-0.9,1.8l1.1,3.8h-1l-1-3.5h-0.8v3.5h-1
			v-7.6H220z M221.5,286.8c0.5,0,0.8-0.1,1-0.3s0.3-0.5,0.3-1c0-0.3,0-0.6-0.1-0.7c-0.1-0.2-0.2-0.3-0.4-0.4s-0.4-0.1-0.7-0.1h-0.5
			v2.5H221.5z"/>
	</g>
	<g>
		<polygon class="st8" points="310.7,233.3 309.6,236.7 306,236.2 308.9,238.6 307.8,241.9 310.7,240.2 313.6,242.7 312.5,239.1 
			315.4,237.5 311.8,237 		"/>
		<polygon class="st8" points="311.8,292 310.7,288.5 309.6,291.7 306,291.2 308.9,293.7 307.8,297 310.7,295.3 313.6,297.8 
			312.5,294.3 315.4,292.5 		"/>
		<polygon class="st8" points="337.2,268.1 333.6,267.6 336.5,270.2 335.4,273.4 338.3,271.7 341.2,274.2 340.1,270.7 343,268.9 
			339.5,268.4 338.3,264.9 		"/>
		<polygon class="st8" points="283.2,263.9 286.1,266.4 285,262.8 287.8,261.1 284.3,260.6 283.2,257 282.1,260.3 278.4,259.8 
			281.4,262.3 280.3,265.6 		"/>
		<polygon class="st8" points="286.8,243.6 285.7,246.9 282.2,246.4 285,248.9 283.9,252.1 286.8,250.4 289.7,252.9 288.6,249.4 
			291.6,247.7 287.9,247.2 		"/>
		<polygon class="st8" points="296.7,234.9 295.6,238.2 292,237.7 294.9,240.1 293.8,243.4 296.7,241.7 299.5,244.2 298.4,240.6 
			301.3,239 297.8,238.5 		"/>
		<polygon class="st8" points="331.2,258.8 334.1,257 337,259.6 335.9,256 338.9,254.3 335.2,253.8 334.1,250.3 333,253.5 
			329.5,253 332.3,255.5 		"/>
		<polygon class="st8" points="324.2,238.8 323.1,242 319.5,241.5 322.4,244 321.3,247.3 324.2,245.5 327.2,248.1 326,244.5 
			328.9,242.8 325.3,242.3 		"/>
		<polygon class="st8" points="287.9,274.7 286.8,271.2 285.7,274.4 282.2,273.9 285,276.4 283.9,279.6 286.8,278 289.7,280.4 
			288.6,276.9 291.6,275.2 		"/>
		<polygon class="st8" points="297.8,285.9 296.7,282.4 295.6,285.6 292,285.1 294.9,287.6 293.8,290.9 296.7,289.2 299.5,291.7 
			298.4,288.1 301.3,286.4 		"/>
		<polygon class="st8" points="331.2,286.3 334.1,284.6 337,287.1 335.9,283.6 338.9,281.8 335.2,281.3 334.1,277.8 333,281 
			329.5,280.5 332.3,283.1 		"/>
		<polygon class="st8" points="325.3,289.8 324.2,286.2 323.1,289.5 319.5,289 322.4,291.5 321.3,294.8 324.2,293 327.2,295.6 
			326,292 328.9,290.3 		"/>
		<path class="st8" d="M329.1,229.4c-5.3,0-11.4-1.1-17.9-3.9c-13-5.7-25.9-7-34.7-7c-7,0-11.4,0.8-11.4,0.8v80.4
			c0,0,4.4-0.8,11.4-0.8c8.8,0,21.7,1.2,34.7,7c6.5,2.8,12.5,3.9,17.9,3.9c16.5,0,27.2-10.1,27.2-10.1v-80.4
			C356.3,219.3,345.7,229.4,329.1,229.4z M352.3,297.8c-3,2.3-11.5,7.9-23.2,7.9c-5.3,0-10.9-1.2-16.2-3.5
			c-13.8-6.1-27.3-7.3-36.3-7.3c-2.9,0-5.3,0.1-7.4,0.3V223c1.8-0.2,4.3-0.3,7.4-0.3l0,0c8.2,0,20.6,1.1,33.1,6.7
			c6.5,2.8,13,4.2,19.5,4.2c10,0,18-3.3,23.2-6.4L352.3,297.8L352.3,297.8z"/>
	</g>
</g>
<g class="st1">
	<g class="st7">
		<path class="st10" d="M208.5,307.1c23.8,0,43.1-19.3,43.1-43.1s-19.3-43.1-43.1-43.1s-43.1,19.3-43.1,43.1
			C165.5,287.9,184.8,307.1,208.5,307.1"/>
		<text transform="matrix(1 0 0 1 194.8883 281.55)" class="st12 st5 st6">PUNTOS</text>
		<text transform="matrix(1 0 0 1 192.4884 290.75)" class="st12 st5 st6">DE VENTA</text>
		<line class="st14" x1="193.4" y1="269.3" x2="223.7" y2="269.3"/>
		<g>
			<path class="st12" d="M240.2,264.6v-2.3h-6.7c1.6-4.6,6.4-10,6.6-16.4c0-0.5,0-3.1,0-3.5c-0.2-2.4-1.2-4.3-4.3-4.3
				s-4.6,1.9-4.7,4.4v3.6h2.3v-3.5c0.1-1.6,0.8-2.2,2.1-2.2c1.4,0,2.1,0.6,2.1,2.5v2.7c-0.2,6.4-4.8,11.5-6.7,16.7v2.3H240.2z"/>
			<polygon class="st12" points="203.5,241.3 203.5,239.2 195,239.2 195,241.4 201.3,241.4 196.4,264.7 198.6,264.7 			"/>
			<path class="st12" d="M182.4,264.7v-25.5h-1.6c-0.5,1-1.5,1.7-4,2v1.9l3.3-0.3v21.9H182.4L182.4,264.7z"/>
			<path class="st12" d="M229.3,241.6c-0.6-2.4-1.9-3.5-4.3-3.5c-2.5,0-4.1,1.4-4.4,3.6c-0.2,1.9-0.3,7.7,0,9.9
				c0.3,1.9,1.6,2.8,3.5,2.8c1.3,0,2.5-0.5,3.1-1.5c0,0.7,0,6.1-0.1,7.4c-0.1,1.5-0.9,2.3-2.1,2.3c-1.3,0-2-0.5-2.1-2.2v-2.1h-2.3
				c0,0.5,0,2.2,0.1,3c0.2,2.2,1.8,3.5,4.1,3.5c2.9,0,4.4-1.5,4.6-4.5c0.1-1.3,0.2-7.1,0.2-9.5C229.6,248.3,229.6,242.9,229.3,241.6
				z M224.9,252.2c-1.3,0-1.9-0.6-2-1.7c-0.1-0.9-0.1-7.2,0-8.1c0.1-1.3,0.9-2,2.1-2c1.3,0,2,0.7,2.1,2.1c0.1,0.9,0.1,6.5,0.1,8
				C227,251.4,226.2,252.2,224.9,252.2z"/>
			<path class="st12" d="M218.4,264.6v-2.3h-6.7c1.6-4.6,6.4-10,6.6-16.4c0-0.5,0-3.1,0-3.5c-0.2-2.4-1.2-4.3-4.3-4.3
				s-4.6,1.9-4.7,4.4v3.6h2.3v-3.5c0.1-1.6,0.8-2.2,2.1-2.2c1.4,0,2.1,0.6,2.1,2.5v2.7c-0.2,6.4-4.8,11.5-6.7,16.7v2.3H218.4z"/>
			<rect x="203.8" y="260.5" class="st12" width="2.9" height="4.2"/>
			<path class="st12" d="M193.9,243.4c-0.2-2.4-1.5-4.3-4.3-4.3c-2.9,0-4.1,1.9-4.4,4.4c-0.1,2.1-0.2,5.9-0.2,8.5
				c0,2.2,0.1,6.7,0.3,8.2c0.3,3.3,1.6,4.7,4.3,4.7c2.6,0,3.9-1.4,4.2-4.7c0.2-2.1,0.3-6.3,0.3-8.3
				C194.1,249.6,194.1,246.2,193.9,243.4z M191.5,260.5c-0.1,1.5-0.6,2.3-1.9,2.3s-1.9-0.9-2-2.3c-0.2-2.3-0.3-6.6-0.3-8.6
				s0-5.6,0.2-8.4c0.1-1.4,0.6-2.4,2-2.4c1.3,0,2,0.9,2.1,2.4c0.1,1.3,0.1,5.4,0.1,8.3C191.8,254.3,191.8,257.1,191.5,260.5z"/>
		</g>
	</g>
	<g class="st7">
		<path class="st8" d="M281.1,288.5c-4.7,0-8.5,3.8-8.5,8.5s3.8,8.5,8.5,8.5s8.5-3.8,8.5-8.5C289.7,292.3,285.8,288.5,281.1,288.5z
			 M281.1,301.5c-2.5,0-4.5-2-4.5-4.5s2-4.5,4.5-4.5s4.5,2,4.5,4.5S283.6,301.5,281.1,301.5z"/>
		<path class="st8" d="M322.3,288.5c-4.7,0-8.5,3.8-8.5,8.5s3.8,8.5,8.5,8.5s8.5-3.8,8.5-8.5S327,288.5,322.3,288.5z M322.3,301.5
			c-2.5,0-4.5-2-4.5-4.5s2-4.5,4.5-4.5s4.5,2,4.5,4.5S324.8,301.5,322.3,301.5z"/>
		<path class="st8" d="M314.8,283.8L314.8,283.8h15.5l10.6-47.1h-26.1h-4h-16.9h-4h-23.5l-5.4-14.1h-10.1v4h7.4l4.3,11.3l10.3,45.8
			H290l0,0h4l0,0h16.9l0,0h3.9V283.8z M314.8,279.8v-10.9h14.7l-2.4,10.9H314.8z M270.6,255.6h19.3v9.3h-17.2L270.6,255.6z
			 M293.9,255.6h16.9v9.3h-16.9V255.6z M314.8,255.6h17.7l-2.1,9.3h-15.6V255.6z M335.9,240.7l-2.4,10.9h-18.6v-10.9H335.9z
			 M310.8,240.7v10.9h-16.9v-10.9H310.8z M289.9,240.7v10.9h-20.2l-2.4-10.9H289.9z M276,279.8l-2.4-10.9h16.3v10.9H276z
			 M293.9,279.8v-10.9h16.9v10.9H293.9z"/>
	</g>
</g>
<g class="st1">
	<g class="st7">
		<path class="st10" d="M208.5,307.7c24,0,43.4-19.4,43.4-43.4s-19.4-43.4-43.4-43.4S165,240.3,165,264.3S184.5,307.7,208.5,307.7"
			/>
		<line class="st14" x1="193.2" y1="269.3" x2="223.7" y2="269.3"/>
		<text transform="matrix(1 0 0 1 186.1091 281.9285)" class="st12 st5 st15">MILLONES DE</text>
		<text transform="matrix(1 0 0 1 180.7702 291.1966)" class="st12 st5 st15">CONSUMIDORES</text>
		<path class="st12" d="M226,260.4c-0.2,1.7-1,2.3-2.2,2.3c-1.3,0-2.2-0.5-2.4-2.1c-0.2-1.3-0.1-7-0.1-8.6c0.2-1.3,1-2.3,2.7-2.3
			c1.4,0,2,0.8,2.1,1.9C226.1,253.2,226.1,259.3,226,260.4 M228.4,261.1c0.3-1.7,0.3-7.3,0-10.4c-0.1-2.2-1.6-3.5-3.5-3.5
			c-1.6,0-3,0.5-3.7,1.9c0-0.8,0-4.6,0.1-7.7c0.1-2,0.7-3.2,2.3-3.2s2.1,1,2.2,2.6c0,0.3,0,1.5,0,2h2.5c0-0.6,0-2.3-0.1-3.1
			c-0.3-2.3-1.5-4-4.7-4s-4.5,2.1-4.8,5.4c-0.1,1.4-0.2,6.4-0.2,9.1c0,2.7,0,8,0.3,10.4c0.5,2.9,2.1,4.3,4.8,4.3
			C226.7,265.1,227.9,263.4,228.4,261.1 M216.1,265v-4.8H213v4.7h0.9l0.1,0.1l-1.3,2.7l1.5,0.5L216.1,265z M208,249.5
			c-0.3,1-1.1,1.9-2.5,1.9s-2.1-0.6-2.2-1.9c-0.1-1-0.1-7.9,0-8.9c0.1-1.4,0.9-2.2,2.3-2.2c1.4,0,2.1,0.7,2.3,2.3
			C208,241.6,208,247.7,208,249.5 M210.4,260.1c0.1-1.4,0.2-7.8,0.2-10.4c0-2.7,0-8.7-0.3-10.1c-0.6-2.6-2.1-3.8-4.7-3.8
			c-2.8,0-4.5,1.5-4.7,3.9c-0.3,2.1-0.3,8.5,0,10.9c0.3,2.1,1.8,3.1,3.8,3.1c1.4,0,2.8-0.5,3.3-1.6c0,0.8,0,6.6-0.1,8.1
			c-0.1,1.6-1,2.5-2.3,2.5c-1.4,0-2.2-0.5-2.3-2.4V258h-2.5c0,0.5,0,2.4,0.1,3.2c0.2,2.4,1.9,3.8,4.4,3.8
			C208.5,265.1,210.1,263.5,210.4,260.1 M198.3,264.9v-2.5h-7.4c1.7-5,7-11,7.3-17.9c0-0.6,0-3.4,0-3.8c-0.2-2.6-1.3-4.6-4.7-4.6
			s-5,2-5.1,4.8v3.9h2.5V241c0.1-1.7,0.9-2.4,2.3-2.4c1.5,0,2.3,0.7,2.3,2.7v3c-0.2,7.1-5.3,12.6-7.4,18.2v2.5h10.2L198.3,264.9
			L198.3,264.9z"/>
	</g>
	<path class="st9" d="M376.3,275.3l-17.5-9.2v-0.4c5.2-2.4,8.7-7.7,8.7-13.5c0-8.2-6.6-14.8-14.8-14.8s-14.8,6.6-14.8,14.8
		c0,5.8,3.4,11.1,8.7,13.5v0.4l-14.7,7.7l-6.2-3.2v-1.5c7.2-3.1,11.8-10.2,11.8-18c0-10.8-8.8-19.6-19.6-19.6
		c-10.8,0-19.6,8.8-19.6,19.6c0,7.9,4.7,14.9,11.8,18v1.5l-6.2,3.2l-14.7-7.7v-0.4c5.2-2.4,8.7-7.7,8.7-13.5
		c0-8.2-6.6-14.8-14.8-14.8s-14.8,6.6-14.8,14.8c0,5.8,3.4,11.1,8.7,13.5v0.4l-17.5,9.2v11.2h26.7v10.8h63.7v-10.8h26.9v-11.2H376.3
		z M341.7,252.3c0-5.9,4.8-10.8,10.8-10.8c5.9,0,10.8,4.8,10.8,10.8c0,4.6-2.9,8.7-7.3,10.2l-1.3,0.5v4.2l-1.9,1.9l-2.5-2.5V263
		l-1.3-0.5C344.7,261,341.7,256.9,341.7,252.3z M302,251.1c0-8.6,7-15.6,15.6-15.6s15.6,7,15.6,15.6c0,6.6-4.2,12.5-10.5,14.7
		l-1.3,0.5v4.9l-3.6,3.6L314,271v-4.7l-1.3-0.5C306.2,263.6,302,257.7,302,251.1z M271.8,252.3c0-5.9,4.8-10.8,10.8-10.8
		c5.9,0,10.8,4.8,10.8,10.8c0,4.6-2.9,8.7-7.3,10.2l-1.3,0.5v3.4l-2.3,2.3l-2.1-2.1V263l-1.3-0.5C274.7,261,271.8,256.9,271.8,252.3
		z M262.9,277.8l15.1-7.9l4.4,4.4l4.5-4.5l12.1,6.3l-12.1,6.3h-24.2v-4.7h0.2V277.8z M345.4,293.2h-55.6v-6.7v-0.9l21.7-11.3
		l6.2,6.2l6.1-6.1l3.4,1.8l0,0l18.1,9.5v0.9L345.4,293.2L345.4,293.2z M372.3,282.5h-24.2l-12.1-6.3l12-6.2l4.8,4.8l4.6-4.6
		l14.7,7.7v4.7h0.2V282.5z"/>
</g>
</svg>
