<?xml version="1.0" encoding="utf-8"?>
<!-- Generator: Adobe Illustrator 21.1.0, SVG Export Plug-In . SVG Version: 6.00 Build 0)  -->
<svg version="1.1" id="Capa_1" xmlns="http://www.w3.org/2000/svg" xmlns:xlink="http://www.w3.org/1999/xlink" x="0px" y="0px"
	 viewBox="0 0 109 200" style="enable-background:new 0 0 109 200;" xml:space="preserve">
<style type="text/css">
	.st0{fill:#FFFFFF;}
</style>
<title>icono-producccion-grande</title>
<desc>Created with Sketch.</desc>
<path class="st0" d="M106.7,31.5l-7.2-12.2V16V0H15.4v19.3l-13.8,31L0,53.8v5.4V200h78.2h3.1l2.9-2.2l24.6-18.7V34.9L106.7,31.5z
	 M101.1,33.4l-10.9,9.2l7-15.8L101.1,33.4z M21.4,6h72.2v9.8H21.4V6z M78.2,194H6V59.2h72.2V194z M80.1,50.3H8.2l11.4-25.6h71.9
	L80.1,50.3z M102.8,176l-18.6,14.2V55.7l0.3-0.6l18.3-15.4V176z"/>
</svg>
