<?xml version="1.0" encoding="UTF-8"?>
<svg width="90px" height="119px" viewBox="0 0 90 119" version="1.1" xmlns="http://www.w3.org/2000/svg" xmlns:xlink="http://www.w3.org/1999/xlink">
    <!-- Generator: Sketch 45.2 (43514) - http://www.bohemiancoding.com/sketch -->
    <title>agua verde</title>
    <desc>Created with Sketch.</desc>
    <defs></defs>
    <g id="Visual-Medioambiente-1280" stroke="none" stroke-width="1" fill="none" fill-rule="evenodd">
        <g id="Medioambiente-1280" transform="translate(-498.000000, -804.000000)" fill="#ADE069">
            <g id="agua-verde" transform="translate(498.000000, 804.000000)">
                <path d="M43.8439121,0 C28.5419341,15.8531868 -0.269934066,49.9648352 0.00171428571,70.563956 C0.351164835,97.2197802 20.4109451,118.681319 44.8381978,118.681319 C45.0188571,118.681319 45.2008352,118.68 45.3814945,118.677363 C70.0632527,118.355604 89.857978,96.2294505 89.5058901,69.3969231 C89.2342418,48.7885714 59.5573187,15.4523077 43.8439121,0 M43.9428132,7.56527473 C64.4324835,28.4769231 84.036,54.7318681 84.2311648,69.4668132 C84.3841319,81.12 80.3595165,92.127033 72.8997363,100.461099 C65.552044,108.671209 55.7542418,113.268132 45.3129231,113.403956 L44.8381978,113.406593 C23.3331429,113.406593 5.58632967,94.1551648 5.27643956,70.4940659 C5.08127473,55.770989 23.9990769,29.010989 43.9428132,7.56527473" id="Fill-1"></path>
                <path d="M44.7544615,102.788835 C28.6995165,102.788835 15.637978,89.7272967 15.637978,73.6723516 L20.9127033,73.6723516 C20.9127033,86.8196044 31.6072088,97.5141099 44.7544615,97.5141099 L44.7544615,102.788835 Z" id="Fill-4"></path>
            </g>
        </g>
    </g>
</svg>