<?xml version="1.0" encoding="UTF-8"?>
<svg width="92px" height="119px" viewBox="0 0 92 119" version="1.1" xmlns="http://www.w3.org/2000/svg" xmlns:xlink="http://www.w3.org/1999/xlink">
    <!-- Generator: Sketch 45.2 (43514) - http://www.bohemiancoding.com/sketch -->
    <title>basura verde</title>
    <desc>Created with Sketch.</desc>
    <defs></defs>
    <g id="Visual-Medioambiente-1280" stroke="none" stroke-width="1" fill="none" fill-rule="evenodd">
        <g id="Medioambiente-1280" transform="translate(-692.000000, -804.000000)" fill="#ADE069">
            <g id="basura-verde" transform="translate(691.000000, 804.000000)">
                <path d="M9.81362637,118.681319 L84.4457143,118.681319 L84.4457143,26.0136264 L9.81362637,26.0136264 L9.81362637,118.681319 Z M15.0883516,113.407912 L79.170989,113.407912 L79.170989,31.2896703 L15.0883516,31.2896703 L15.0883516,113.407912 Z" id="Fill-1"></path>
                <path d="M87.6652747,12.2099341 L6.59406593,12.2099341 L1.31802198,12.2099341 L1.31802198,17.4846593 L1.31802198,26.0138901 L1.31802198,31.2886154 L6.59406593,31.2886154 L87.6652747,31.2886154 L92.94,31.2886154 L92.94,12.2099341 L87.6652747,12.2099341 Z M6.59406593,26.0138901 L87.6652747,26.0138901 L87.6652747,17.4846593 L6.59406593,17.4846593 L6.59406593,26.0138901 Z" id="Fill-2"></path>
                <path d="M27.7147253,17.4843956 L66.5446154,17.4843956 L66.5446154,0 L27.7147253,0 L27.7147253,17.4843956 Z M32.9894505,12.210989 L61.2698901,12.210989 L61.2698901,5.27472527 L32.9894505,5.27472527 L32.9894505,12.210989 Z" id="Fill-3"></path>
                <polygon id="Fill-4" points="27.2914286 104.662418 32.5661538 104.662418 32.5661538 40.0312088 27.2914286 40.0312088"></polygon>
                <polygon id="Fill-5" points="44.4923077 104.662418 49.767033 104.662418 49.767033 40.0312088 44.4923077 40.0312088"></polygon>
                <polygon id="Fill-6" points="61.6945055 104.662418 66.9692308 104.662418 66.9692308 40.0312088 61.6945055 40.0312088"></polygon>
            </g>
        </g>
    </g>
</svg>