<?xml version="1.0" encoding="UTF-8"?>
<svg width="62px" height="109px" viewBox="0 0 62 109" version="1.1" xmlns="http://www.w3.org/2000/svg" xmlns:xlink="http://www.w3.org/1999/xlink">
    <!-- Generator: Sketch 45.2 (43514) - http://www.bohemiancoding.com/sketch -->
    <title>basura flecha</title>
    <desc>Created with Sketch.</desc>
    <defs></defs>
    <g id="Visual-Medioambiente-1280" stroke="none" stroke-width="1" fill="none" fill-rule="evenodd">
        <g id="Medioambiente-1280" transform="translate(-921.000000, -2691.000000)" fill="#FFFFFF">
            <g id="basura-flecha" transform="translate(921.000000, 2690.000000)">
                <path d="M57.0456,8.4399 L4.0006,8.4399 L-0.0004,8.4399 L-0.0004,12.4409 L-0.0004,18.0209 L-0.0004,22.0199 L4.0006,22.0199 L57.0456,22.0199 L61.0456,22.0199 L61.0456,8.4399 L57.0456,8.4399 Z M4.0006,18.0209 L57.0456,18.0209 L57.0456,12.4409 L4.0006,12.4409 L4.0006,18.0209 Z" id="Fill-1"></path>
                <path d="M17.819,12.44 L43.226,12.44 L43.226,0.999 L17.819,0.999 L17.819,12.44 Z M21.82,8.44 L39.226,8.44 L39.226,4.999 L21.82,4.999 L21.82,8.44 Z" id="Fill-2"></path>
                <polygon id="Fill-3" points="17.268 69.481 21.268 69.481 21.268 27.193 17.268 27.193"></polygon>
                <polygon id="Fill-4" points="28.523 69.481 32.523 69.481 32.523 27.193 28.523 27.193"></polygon>
                <polygon id="Fill-5" points="39.777 69.481 43.777 69.481 43.777 27.193 39.777 27.193"></polygon>
                <polygon id="Fill-6" points="6.1066 18.0201 6.1066 78.6531 18.9336 78.6531 18.9336 74.6531 10.1066 74.6531 10.1066 22.0201 50.9396 22.0201 50.9396 74.6531 42.1116 74.6531 42.1116 78.6531 54.9396 78.6531 54.9396 18.0201"></polygon>
                <polygon id="Fill-7" points="28.523 106.321 32.523 106.321 32.523 68.851 28.523 68.851"></polygon>
                <polygon id="Fill-8" points="30.5226 103.4925 15.9246 88.8945 13.0966 91.7225 30.5226 109.1485 47.9496 91.7225 45.1216 88.8945"></polygon>
            </g>
        </g>
    </g>
</svg>