<?xml version="1.0" encoding="UTF-8"?>
<svg width="41px" height="109px" viewBox="0 0 41 109" version="1.1" xmlns="http://www.w3.org/2000/svg" xmlns:xlink="http://www.w3.org/1999/xlink">
    <!-- Generator: Sketch 45.2 (43514) - http://www.bohemiancoding.com/sketch -->
    <title>botella flecha</title>
    <desc>Created with Sketch.</desc>
    <defs></defs>
    <g id="Visual-Medioambiente-1280" stroke="none" stroke-width="1" fill="none" fill-rule="evenodd">
        <g id="Medioambiente-1280" transform="translate(-776.000000, -2691.000000)" fill="#FFFFFF">
            <g id="botella-flecha" transform="translate(776.000000, 2691.000000)">
                <path d="M8.423,12.218 L31.601,12.218 L31.601,0 L8.423,0 L8.423,12.218 Z M12.424,8.218 L27.602,8.218 L27.602,3.999 L12.424,3.999 L12.424,8.218 Z" id="Fill-1"></path>
                <polygon id="Fill-2" points="3.919 63.34 36.105 63.34 36.105 59.34 3.919 59.34"></polygon>
                <polygon id="Fill-3" points="3.919 55.17 36.105 55.17 36.105 51.17 3.919 51.17"></polygon>
                <polygon id="Fill-4" points="3.919 47 36.105 47 36.105 43 3.919 43"></polygon>
                <polygon id="Fill-5" points="26.4843 8.2184 13.5393 8.2184 9.5393 8.2184 9.5393 12.2184 9.5393 14.7354 1.5333 21.0034 0.0003 22.2044 0.0003 24.1524 0.0003 77.6524 0.0003 81.6534 4.0003 81.6534 8.4233 81.6534 8.4233 77.6524 4.0003 77.6524 4.0003 24.1524 13.5393 16.6834 13.5393 12.2184 26.4843 12.2184 26.4843 16.6834 36.0233 24.1524 36.0233 77.6524 31.6013 77.6524 31.6013 81.6534 36.0233 81.6534 40.0243 81.6534 40.0243 22.2044 38.4903 21.0034 30.4853 14.7354 30.4853 12.2184 30.4853 8.2184"></polygon>
                <polygon id="Fill-6" points="18.012 105.321 22.012 105.321 22.012 67.851 18.012 67.851"></polygon>
                <polygon id="Fill-7" points="20.0124 102.4925 5.4144 87.8945 2.5864 90.7225 20.0124 108.1485 37.4384 90.7225 34.6094 87.8945"></polygon>
            </g>
        </g>
    </g>
</svg>