<?xml version="1.0" encoding="utf-8"?>
<!-- Generator: Adobe Illustrator 21.1.0, SVG Export Plug-In . SVG Version: 6.00 Build 0)  -->
<svg version="1.1" id="Capa_1" xmlns="http://www.w3.org/2000/svg" xmlns:xlink="http://www.w3.org/1999/xlink" x="0px" y="0px"
	 viewBox="0 0 520 510" style="enable-background:new 0 0 520 510;" xml:space="preserve">
<style type="text/css">
	.st0{fill:#36A9DF;}
	.st1{fill:#E31F13;}
	.st2{fill:#FFFFFF;}
</style>
<title>diagrama cadena valor</title>
<desc>Created with Sketch.</desc>
<g id="Visual-cadena-de-valor-1280">
	<g id="Nuestro-compromiso_x2F_Cadena-de-valor_x2F_Cadena-de-valor-1280-2" transform="translate(-624.000000, -228.000000)">
		<g id="diagrama-cadena-valor" transform="translate(624.000000, 228.000000)">
			<path id="Fill-1" class="st0" d="M197.9,44.8L197.9,44.8L197.9,44.8L197.9,44.8L197.9,44.8l-6.8,35.9
				c37.9-14.5,80.6-17.1,122.1-5l28.7-23.4l-7.5-41.2c-57.4-17.3-116.6-13.7-169,6.7L197.9,44.8z"/>
			<path id="Fill-3" class="st0" d="M340.5,469.5L340.5,469.5L340.5,469.5L340.5,469.5L340.5,469.5l3.8-37.9
				c-2.2,1.1-4.4,2.1-6.6,3.1l-7.2,37.9l31,25.8c4.2-1.8,8.4-3.7,12.5-5.7L340.5,469.5z"/>
			<g id="Group-7" transform="translate(423.844282, 123.676496)">
				<path id="Fill-5" class="st0" d="M54.4,180.9l39.3-14.5c7-58.5-6.4-116.5-36-165.2L36.7,37.8l0,0.1h0l0,0l0,0L0.2,37.4
					C21.3,72.7,31,114.6,26.4,156.8L54.4,180.9z"/>
			</g>
			<path id="Fill-8" class="st0" d="M366.3,457.1l35.1,20c10.3-6.7,20.2-14.2,29.6-22.4l-39.8-14.3l0,0l0,0l0,0l0,0l-5.9-36
				c-5.9,5.1-12,9.8-18.4,14.1L366.3,457.1z"/>
			<path id="Fill-10" class="st0" d="M350.5,55.3L350.5,55.3L350.5,55.3L350.5,55.3L350.5,55.3l-28.3,23.2c1,0.3,2,0.7,3,1
				c39.8,14.5,71.9,40.8,93.8,73.6l37,0.5l20.8-36.3C447.1,72,403.2,35.6,348.5,15.7c-1.8-0.7-3.7-1.3-5.5-1.9L350.5,55.3z"/>
			<path id="Fill-12" class="st0" d="M358.4,461.7L358.4,461.7L358.4,461.7L358.4,461.7L358.4,461.7l0.4-38.1
				c-2.1,1.3-4.2,2.5-6.3,3.6l-3.9,38.4l33.2,23c4-2.1,8-4.4,11.9-6.8L358.4,461.7z"/>
			<path id="Fill-14" class="st0" d="M168.4,465.2L168.4,465.2L168.4,465.2L168.4,465.2L168.4,465.2l29.4-24.1
				c-1.2-0.4-2.5-0.9-3.7-1.3c-1-0.4-2.1-0.8-3.1-1.2l-31.9,21.7l3.7,40.2c2.7,1.1,5.3,2.1,8.1,3.1c1.6,0.6,3.2,1.1,4.8,1.7
				L168.4,465.2z"/>
			<path id="Fill-16" class="st0" d="M104.4,420.6L104.4,420.6L104.4,420.6L104.4,420.6L104.4,420.6l34.4-12.1
				c-32.7-26.5-55.5-63-65.4-103.2l-34.6-13.1L7,319.2C20.2,375,51.7,425.8,97.3,462.3L104.4,420.6z"/>
			<path id="Fill-18" class="st0" d="M476.6,313.6L476.6,313.6L476.6,313.6L476.6,313.6L476.6,313.6l-27.7-23.8
				c-1.9,11.8-4.9,23.7-9.2,35.4c-10.4,28.6-26.9,53.2-47.5,72.9l6,36.5l39.4,14.1c28.7-26.9,51.6-60.8,66-100.3
				c5.9-16.3,10.1-32.9,12.7-49.5L476.6,313.6z"/>
			<path id="Fill-20" class="st0" d="M104.4,467.7c9.4,7,19.4,13.5,29.9,19.3l-0.2-40.8l0,0l0,0v0l0,0l33.1-18.6
				c-7.3-4-14.3-8.5-20.9-13.3l-34.9,12.2L104.4,467.7z"/>
			<path id="Fill-22" class="st0" d="M182.3,435c-2.2-1-4.4-2-6.6-3L142,450.8l0.2,40.4c4,2,8.2,4,12.4,5.8l-3.7-40.6l0,0l0,0l0,0
				l0,0L182.3,435z"/>
			<path id="Fill-24" class="st0" d="M74.2,134.7L74.2,134.7L74.2,134.7L74.2,134.7L74.2,134.7l17.9,31.8
				c20.7-37.4,52.9-65.8,90.3-82.3l6.9-36.4l-32.2-26.7C105.1,43.6,60.4,82.8,32,134.9L74.2,134.7z"/>
			<path id="Fill-26" class="st0" d="M37.3,283.1L37.3,283.1L37.3,283.1L37.3,283.1L37.3,283.1L71.5,296c-6.4-33-4.2-68.1,8.1-101.9
				c2.4-6.6,5.1-13,8.2-19.2l-18.1-32.3l-41.8,0.2c-4.5,9-8.6,18.3-12.1,28C-1.2,217.3-4,265.4,5.1,310.5L37.3,283.1z"/>
			<path id="Fill-28" class="st1" d="M217.5,467.3h-1.5v7.4h0.8c1.7,0,3.2-0.1,4.1-1.1c0.6-0.6,0.9-1.5,0.9-2.7
				C221.7,468.2,220,467.3,217.5,467.3"/>
			<path id="Fill-30" class="st1" d="M308.7,464.1c0-0.1-0.1-0.2-0.2-0.2h-0.3v0.4h0.2C308.5,464.3,308.7,464.2,308.7,464.1"/>
			<path id="Fill-32" class="st1" d="M233.4,482.3c1.5,0,2.7-1.1,3.2-2v-5.7c-0.6-0.9-1.8-1.5-3-1.5c-1.8,0-3.4,1.5-3.4,4.7
				C230.2,480.2,231.2,482.3,233.4,482.3"/>
			<path id="Fill-34" class="st1" d="M308.3,465.5c-0.6,0-1.1-0.5-1.1-1.1s0.5-1.1,1.1-1.1c0.6,0,1.1,0.5,1.1,1.1
				S308.9,465.5,308.3,465.5L308.3,465.5z M304.7,484.2c0,0.5-0.2,0.7-0.7,0.7h-2.3c-0.4,0-0.7-0.2-0.7-0.7v-19.5
				c0-0.5,0.1-0.7,0.6-0.8l2.4-0.3c0.3,0,0.6,0.1,0.6,0.5V484.2z M299.1,484.3c0,0.4-0.2,0.6-0.6,0.6h-1.4c-1.5,0-2.2-0.7-2.4-1.8
				h-0.1c-0.9,1.2-2.6,2.1-4.3,2.1c-4.2,0-6.1-3.5-6.1-7.3c0-5.2,3.1-7.9,6.4-7.9c1.6,0,3.1,0.7,3.8,1.7l0.1-0.8
				c0-0.3,0.3-0.5,0.6-0.5h2.1c0.4,0,0.6,0.2,0.6,0.7v10.5c0,0.5,0.1,0.8,0.5,0.8h0.2c0.4,0,0.5,0.1,0.5,0.5V484.3z M291.1,508.4
				h-62.4v-10.8h2.2c1,0,1.8-0.8,1.8-1.8v-4.6l54.2,0l0,4.6c0,1,0.8,1.8,1.8,1.8h2.2V508.4z M226.5,477.9c0-5.2,3.1-7.9,6.4-7.9
				c1.6,0,3.1,0.7,3.8,1.7l0.1-0.8c0-0.3,0.3-0.5,0.6-0.5h2.1c0.4,0,0.6,0.2,0.6,0.7v10.5c0,0.5,0.1,0.8,0.5,0.8h0.2
				c0.4,0,0.5,0.1,0.5,0.5v1.4c0,0.4-0.2,0.6-0.6,0.6h-1.4c-1.6,0-2.2-0.7-2.4-1.8h-0.1c-0.9,1.2-2.6,2.1-4.3,2.1
				C228.4,485.3,226.5,481.8,226.5,477.9L226.5,477.9z M223.2,476c-1.5,1.2-3.5,1.6-6,1.6h-1.3v6.5c0,0.4-0.2,0.7-0.7,0.7h-2.4
				c-0.5,0-0.7-0.2-0.7-0.8v-19c0-0.6,0.2-0.8,0.7-0.8h4.3c3.2,0,5.5,0.6,6.9,2.3c1,1.1,1.5,2.6,1.5,4.2
				C225.6,473.1,224.7,474.9,223.2,476L223.2,476z M248.4,479.2l-2.4-0.9c-1.7-0.6-3.1-1.9-3.1-4c0-2.9,2.7-4.3,5.4-4.3
				c1.4,0,2.9,0.2,4.3,0.9c0.4,0.2,0.4,0.4,0.3,0.7l-0.5,1.6c-0.1,0.4-0.4,0.4-0.7,0.3c-1-0.4-2.3-0.7-3.2-0.7
				c-1.2,0-1.9,0.7-1.9,1.4c0,0.7,0.3,1.1,1.5,1.5l2.7,1.1c1.6,0.7,2.8,1.9,2.8,3.8c0,3.1-2.7,4.6-5.7,4.6c-1.6,0-3.2-0.4-4.6-1
				c-0.3-0.1-0.4-0.4-0.3-0.7l0.5-1.6c0.1-0.4,0.4-0.4,0.7-0.3c1.4,0.6,2.7,0.9,3.8,0.9c1.3,0,2.2-0.6,2.2-1.6
				C250.2,480.1,249.7,479.7,248.4,479.2L248.4,479.2z M262.7,482.5c1.3,0,2.1-0.2,3.1-0.7c0.3-0.1,0.6-0.1,0.7,0.2l0.4,1.5
				c0.1,0.4,0.1,0.7-0.4,0.9c-1.4,0.7-2.7,0.9-4.3,0.9c-4.6,0-7.1-2.9-7.1-7.4c0-4.6,2.8-7.7,7.4-7.7c1.3,0,2.7,0.3,4,0.8
				c0.4,0.2,0.4,0.4,0.3,0.8l-0.4,1.6c-0.1,0.3-0.3,0.4-0.7,0.3c-0.9-0.4-1.8-0.7-2.9-0.7c-2.6,0-4,1.8-4,4.7
				C258.9,480.5,260.2,482.5,262.7,482.5L262.7,482.5z M274.7,482.1c1.1,0,2.6-0.6,3.5-1.4v-9.5c0-0.5,0.3-0.7,0.7-0.7h2.1
				c0.5,0,0.7,0.1,0.7,0.7v12.9c0,0.6-0.2,0.8-0.8,0.8H279c-0.4,0-0.7-0.2-0.7-0.6l0-0.7c-1.4,1.1-3,1.7-4.7,1.7
				c-3.3,0-4.7-2.1-4.7-5.3v-8.8c0-0.5,0.3-0.7,0.8-0.7h2.1c0.5,0,0.7,0.1,0.7,0.7v8.2C272.5,481,272.9,482.1,274.7,482.1
				L274.7,482.1z M228.7,446.1h62.4v10.8h-2.3c-1,0-1.8,0.8-1.8,1.8v4.6l-54.2,0v-4.6c0-1-0.8-1.8-1.8-1.8h-2.2V446.1z M314.1,458.8
				c0-1-0.8-1.8-1.8-1.8h-20v-12h-64.6v12h-20c-1,0-1.8,0.8-1.8,1.8v27.4l0,9.6c0,1,0.8,1.8,1.8,1.8h20v12h64.6v-12h20
				c1,0,1.8-0.8,1.8-1.8v-10.9L314.1,458.8z"/>
			<path id="Fill-36" class="st1" d="M291.3,473c-1.8,0-3.4,1.5-3.4,4.7c0,2.5,1,4.6,3.2,4.6c1.5,0,2.7-1.1,3.2-2v-5.7
				C293.6,473.7,292.4,473,291.3,473"/>
			<path id="Fill-38" class="st1" d="M308.6,465l-0.4-0.6h-0.2v0.6h-0.2v-1.3h0.5c0.3,0,0.4,0.1,0.4,0.4c0,0.2-0.1,0.3-0.3,0.4
				l0.4,0.6H308.6z M308.3,463.5c-0.5,0-0.9,0.4-0.9,0.9c0,0.5,0.4,0.9,0.9,0.9c0.5,0,0.9-0.4,0.9-0.9
				C309.2,463.9,308.8,463.5,308.3,463.5L308.3,463.5z"/>
			<path id="Fill-40" class="st1" d="M245.6,458c0.8,0,1.5-0.2,2.2-0.5c0.2-0.1,0.2-0.2,0.2-0.3l-0.2-0.7c-0.1-0.2-0.2-0.2-0.3-0.1
				c-0.5,0.2-1.1,0.4-1.6,0.4c-1.4,0-2.2-1.1-2.2-2.8c0-1.3,0.6-2.7,2.1-2.7c0.6,0,1,0.1,1.6,0.4c0.1,0.1,0.2,0,0.3-0.1l0.3-0.7
				c0.1-0.2,0-0.2-0.1-0.3c-0.6-0.3-1.3-0.5-2.1-0.5c-2.2,0-3.6,1.7-3.6,4C242.1,456.4,243.3,458,245.6,458"/>
			<path id="Fill-42" class="st1" d="M251.1,453.5c0.4,0,0.9,0.2,1.1,0.6v2.1c-0.2,0.3-0.6,0.8-1.2,0.8c-0.8,0-1.2-0.8-1.2-1.7
				C249.9,454.1,250.5,453.5,251.1,453.5 M250.8,458c0.6,0,1.3-0.3,1.6-0.8h0c0.1,0.4,0.3,0.7,0.9,0.7h0.5c0.1,0,0.2-0.1,0.2-0.2
				v-0.5c0-0.1-0.1-0.2-0.2-0.2h-0.1c-0.2,0-0.2-0.1-0.2-0.3v-3.9c0-0.2-0.1-0.2-0.2-0.2h-0.8c-0.1,0-0.2,0.1-0.2,0.2l0,0.3
				c-0.3-0.4-0.8-0.6-1.4-0.6c-1.2,0-2.4,1-2.4,2.9C248.5,456.7,249.2,458,250.8,458"/>
			<path id="Fill-44" class="st1" d="M255.3,457.9h0.8c0.2,0,0.2-0.1,0.2-0.3v-7.4c0-0.2-0.1-0.2-0.2-0.2l-0.9,0.1
				c-0.2,0-0.2,0.1-0.2,0.3v7.2C255,457.8,255.1,457.9,255.3,457.9"/>
			<path id="Fill-46" class="st1" d="M258.5,451.8c0.4,0,0.7-0.3,0.7-0.7c0-0.4-0.4-0.7-0.7-0.7c-0.4,0-0.8,0.3-0.8,0.7
				C257.7,451.6,258.1,451.8,258.5,451.8"/>
			<path id="Fill-48" class="st1" d="M258.9,452.5h-0.8c-0.2,0-0.3,0.1-0.3,0.3v4.8c0,0.2,0.1,0.3,0.3,0.3h0.8
				c0.2,0,0.3-0.1,0.3-0.3v-4.8C259.2,452.6,259.1,452.5,258.9,452.5"/>
			<path id="Fill-50" class="st1" d="M263,453.5c0.4,0,0.8,0.2,1.1,0.5v2.4c-0.2,0.3-0.7,0.6-1.1,0.6c-0.9,0-1.2-0.8-1.2-1.7
				C261.7,454.3,262.1,453.5,263,453.5 M262.6,458c0.6,0,1.2-0.3,1.5-0.7l0,0.3c0,0.1,0.1,0.2,0.3,0.2h0.7c0.1,0,0.2-0.1,0.2-0.3
				v-7.4c0-0.2-0.1-0.2-0.2-0.2l-0.9,0.1c-0.2,0-0.2,0.1-0.2,0.3v2.5c-0.3-0.3-0.8-0.5-1.3-0.5c-1.6,0-2.4,1.3-2.4,2.9
				C260.3,456.7,261,458,262.6,458"/>
			<path id="Fill-52" class="st1" d="M269,453.5c0.4,0,0.9,0.2,1.1,0.6v2.1c-0.2,0.3-0.6,0.8-1.2,0.8c-0.8,0-1.2-0.8-1.2-1.7
				C267.8,454.1,268.4,453.5,269,453.5 M268.7,458c0.6,0,1.3-0.3,1.6-0.8h0c0.1,0.4,0.3,0.7,0.9,0.7h0.5c0.1,0,0.2-0.1,0.2-0.2v-0.5
				c0-0.1-0.1-0.2-0.2-0.2h-0.1c-0.2,0-0.2-0.1-0.2-0.3v-3.9c0-0.2-0.1-0.2-0.2-0.2h-0.8c-0.1,0-0.2,0.1-0.2,0.2l0,0.3
				c-0.3-0.4-0.8-0.6-1.4-0.6c-1.2,0-2.4,1-2.4,2.9C266.4,456.7,267.1,458,268.7,458"/>
			<path id="Fill-54" class="st1" d="M275.3,453.5c0.4,0,0.8,0.2,1.1,0.5v2.4c-0.2,0.3-0.7,0.6-1.1,0.6c-0.9,0-1.2-0.8-1.2-1.7
				C274,454.3,274.4,453.5,275.3,453.5 M274.9,458c0.6,0,1.2-0.3,1.5-0.7l0,0.3c0,0.1,0.1,0.2,0.3,0.2h0.7c0.1,0,0.2-0.1,0.2-0.3
				v-7.4c0-0.2-0.1-0.2-0.2-0.2l-0.9,0.1c-0.2,0-0.2,0.1-0.2,0.3v2.5c-0.3-0.3-0.8-0.5-1.3-0.5c-1.6,0-2.4,1.3-2.4,2.9
				C272.6,456.7,273.3,458,274.9,458"/>
			<path id="Fill-56" class="st2" d="M43,316.4l3.1-2.1c0.4-0.3,1.1-0.7,1.1-0.7l0,0c0,0-0.8,0-1.3-0.1l-3.7-0.4L43,316.4z
				 M38.5,311.2l0,0.2c0.1,0.2,0.1,0.4,0.4,0.4l9.1,1l0.3,1l-7.6,5.2c-0.2,0.2-0.2,0.3-0.2,0.6l0,0.2l-0.8,0.2l-0.1-0.4
				c-0.2-0.7-0.1-0.9,0.5-1.3l2-1.4l-1-3.8l-2.5-0.3c-0.7-0.1-0.9-0.2-1.1-0.9l-0.1-0.4L38.5,311.2z"/>
			<path id="Fill-58" class="st2" d="M41.7,324.2c0.3,1.2,1.6,1.9,3.3,1.4c1.6-0.5,2.4-1.7,2.1-2.9c-0.3-1.1-1.4-1.9-3.4-1.4
				C42.4,321.6,41.3,322.8,41.7,324.2L41.7,324.2z M45.8,319.7c0.2-0.1,0.3-0.2,0.2-0.4l-0.2-0.6l0.8-0.2l0.3,0.9
				c0.2,0.6,0,0.9-0.5,1c-0.3,0.1-0.5,0.1-0.5,0.1l0,0c0,0,1.5,0.1,2,1.9c0.5,1.8-0.6,3.3-2.7,4c-2.1,0.6-3.9-0.2-4.4-2
				c-0.5-1.6,0.6-2.6,0.6-2.6l0,0c0,0-0.2,0.1-0.6,0.2l-3.2,0.9l-0.3-0.9L45.8,319.7z"/>
			<path id="Fill-60" class="st2" d="M48.2,327.4c0.2-0.1,0.3-0.2,0.2-0.4l-0.2-0.6l0.8-0.3l0.3,0.9c0.2,0.6,0,0.9-0.5,1.1l-0.4,0.1
				c-0.3,0.1-0.5,0.1-0.5,0.1l0,0c1.1,0,2.1,0.5,2.5,1.5c0.1,0.2,0.1,0.4,0.1,0.4l-0.9,0.3c0,0,0-0.2-0.1-0.3
				c-0.3-0.9-1.3-1.4-2.4-1.4c-0.5,0-0.9,0.1-1.4,0.2l-2.8,0.9l-0.3-0.9L48.2,327.4z"/>
			<path id="Fill-62" class="st2" d="M45.8,336.4c0.5,1.4,2.1,2.1,3.6,1.6c1.5-0.5,2.2-2.1,1.7-3.5c-0.5-1.4-2-2.2-3.5-1.6
				C46,333.5,45.3,335,45.8,336.4 M51.9,334.2c0.7,1.9-0.2,4-2.2,4.7c-2,0.7-4-0.3-4.7-2.2c-0.7-1.9,0.2-4,2.2-4.7
				C49.1,331.3,51.2,332.3,51.9,334.2"/>
			<path id="Fill-64" class="st2" d="M52.3,339.2c0.2-0.2,0.2-0.3,0.1-0.6l0-0.1l0.8-0.3l0.1,0.3c0.2,0.6,0.2,0.9-0.3,1.3l-3.4,3.2
				c-0.3,0.2-0.7,0.5-0.7,0.5l0,0c0,0,0.5-0.1,0.9-0.1l4.7-0.1c0.7,0,0.9,0.1,1.1,0.7l0.1,0.3l-0.8,0.3l0-0.1
				c-0.1-0.2-0.2-0.3-0.5-0.3l-6.3,0.1l-0.4-1L52.3,339.2z"/>
			<path id="Fill-66" class="st2" d="M58.8,344.7l0.4,0.8L58,346l-0.4-0.8L58.8,344.7z M55.2,346.3c0.2-0.1,0.2-0.2,0.2-0.4
				l-0.2-0.5l0.8-0.3l0.4,0.9c0.2,0.6,0.1,0.9-0.4,1.1l-4.6,2c-0.2,0.1-0.2,0.2-0.2,0.4l0.2,0.5l-0.8,0.3l-0.4-0.9
				c-0.2-0.5-0.1-0.9,0.4-1.1L55.2,346.3z"/>
			<path id="Fill-68" class="st2" d="M52.6,350.8c0,0-0.6,1.1-0.1,2.4c0.3,0.7,0.9,1.2,1.6,0.9c1.4-0.6-0.5-4.1,1.6-5
				c1.2-0.5,2.2,0.2,2.8,1.5c0.3,0.6,0.6,2.1-0.3,2.5l-0.5,0.2l-0.4-0.8l0.3-0.1c0.5-0.2,0.3-1,0.1-1.4c-0.4-0.9-0.9-1.3-1.6-1
				c-1.4,0.6,0.5,4.1-1.6,5c-1.1,0.5-2.2-0.2-2.8-1.4c-0.8-1.7,0-3,0-3L52.6,350.8z"/>
			<path id="Fill-70" class="st2" d="M62.6,353.2l0.4,0.8l-1.1,0.5l-0.4-0.8L62.6,353.2z M59.1,355c0.2-0.1,0.2-0.2,0.1-0.4L59,354
				l0.7-0.4l0.4,0.9c0.3,0.5,0.1,0.9-0.4,1.1l-4.5,2.2c-0.2,0.1-0.2,0.2-0.1,0.4l0.3,0.5l-0.7,0.4l-0.4-0.9
				c-0.3-0.5-0.1-0.9,0.4-1.1L59.1,355z"/>
			<path id="Fill-72" class="st2" d="M57.3,363.1c0.7,1.3,2.3,1.9,3.8,1.1c1.4-0.7,1.9-2.4,1.2-3.7c-0.7-1.3-2.3-1.9-3.7-1.2
				C57.1,360.1,56.6,361.7,57.3,363.1 M63.1,360.1c0.9,1.8,0.3,4-1.6,5c-1.9,1-4.1,0.2-5-1.6c-0.9-1.8-0.3-4,1.6-5
				C60,357.5,62.1,358.3,63.1,360.1"/>
			<path id="Fill-74" class="st2" d="M64.4,365.4c0.2-0.1,0.2-0.2,0.1-0.4l-0.3-0.5l0.7-0.4l0.5,0.9c0.3,0.5,0.2,0.9-0.3,1.1
				l-0.3,0.2c-0.2,0.1-0.5,0.2-0.5,0.2l0,0c0.7-0.1,2.1,0.1,2.9,1.6c0.9,1.5,0.3,2.5-1.2,3.4l-2.9,1.6c-0.2,0.1-0.2,0.2-0.1,0.4
				l0.3,0.5l-0.7,0.4l-0.5-0.9c-0.3-0.5-0.2-0.9,0.3-1.2l2.9-1.6c1-0.5,1.7-1.2,1.1-2.3c-0.6-1-1.8-1.5-3-1.3
				c-0.3,0.1-0.6,0.2-0.9,0.4l-2.9,1.6l-0.5-0.8L64.4,365.4z"/>
			<path id="Fill-76" class="st2" d="M65,377c0.7,1.1,2.3,1.1,3.3,0.5l0.3-0.2l-0.2-0.3c-0.6-0.9-1.7-2.8-3.1-2
				C64.8,375.4,64.5,376.2,65,377 M69.1,376.6l0.2,0.3l0.1,0c1.2-0.8,1.4-1.5,0.8-2.6c-0.2-0.3-0.8-1.1-1.2-0.9l-0.4,0.2L68,373
				l0.6-0.3c0.8-0.5,1.9,0.8,2.2,1.3c1.1,1.9,0.4,3-0.9,3.7l-2.9,1.7c-0.2,0.1-0.2,0.3-0.1,0.4l0.3,0.5l-0.7,0.4L66,380
				c-0.3-0.5-0.2-0.9,0.3-1.1c0.3-0.2,0.4-0.3,0.4-0.3l0,0c0,0-1.6,0.3-2.5-1.2c-0.6-1-0.7-2.4,0.5-3.1
				C66.8,373,68.4,375.6,69.1,376.6"/>
			<path id="Fill-78" class="st2" d="M72.2,378.9c0.2-0.1,0.2-0.3,0.1-0.4L72,378l0.7-0.5l0.5,0.8c0.3,0.5,0.3,0.8-0.2,1.1l-0.3,0.2
				c-0.2,0.2-0.4,0.3-0.4,0.3l0,0c1-0.2,2.3,0.2,2.9,1.1c0.7,1.1,0.6,2-0.3,2.8l0,0c1-0.2,2.2,0.2,2.9,1.2c0.9,1.4,0.5,2.5-1,3.4
				l-2.8,1.8c-0.2,0.1-0.2,0.3-0.1,0.4l0.3,0.5l-0.7,0.5l-0.5-0.8c-0.3-0.5-0.3-0.8,0.2-1.2l2.8-1.9c0.9-0.6,1.6-1.4,0.9-2.4
				c-0.6-0.9-1.9-1.1-2.9-0.7c-0.3,0.1-0.6,0.3-0.9,0.5l-2.8,1.8l-0.5-0.8l3.5-2.3c0.9-0.6,1.6-1.3,0.9-2.4c-0.6-0.9-1.9-1.1-3-0.8
				c-0.3,0.1-0.6,0.2-0.8,0.4l-2.8,1.8l-0.5-0.8L72.2,378.9z"/>
			<path id="Fill-80" class="st2" d="M82.6,387.2l0.5,0.7l-1,0.7l-0.5-0.7L82.6,387.2z M79.5,389.5c0.2-0.1,0.2-0.3,0.1-0.4
				l-0.3-0.5l0.7-0.5l0.6,0.8c0.4,0.5,0.3,0.8-0.2,1.2l-4.1,2.9c-0.2,0.1-0.2,0.3-0.1,0.4l0.3,0.5l-0.7,0.5l-0.6-0.8
				c-0.4-0.5-0.3-0.8,0.2-1.2L79.5,389.5z"/>
			<path id="Fill-82" class="st2" d="M83,396.9c1.1-0.9,1.1-2.1,0.5-2.9c-0.7-0.9-1.9-1.3-3.2-0.6L83,396.9z M84.1,393.6
				c1.2,1.5,0.6,3.2-0.8,4.3c-0.1,0.1-0.4,0.3-0.4,0.3l-3.3-4.3c-1.4,1.1-1.4,2.7-0.6,3.8c0.8,1,2,1.2,2,1.2l-0.3,0.8
				c0,0-1.4-0.2-2.4-1.5c-1.3-1.6-1-3.8,0.7-5.1C80.9,391.7,83,392.1,84.1,393.6L84.1,393.6z"/>
			<path id="Fill-84" class="st2" d="M85.9,398.1c0.2-0.1,0.2-0.3,0-0.4l-0.4-0.5l0.6-0.5l0.6,0.8c0.4,0.5,0.3,0.8-0.1,1.2l-0.2,0.2
				c-0.2,0.2-0.4,0.3-0.4,0.3l0,0c0.7-0.2,2.1-0.2,3.1,1c1.1,1.3,0.7,2.4-0.6,3.5l-2.6,2.1c-0.2,0.1-0.2,0.3,0,0.4l0.4,0.5l-0.6,0.5
				l-0.6-0.8c-0.4-0.5-0.3-0.8,0.1-1.2l2.6-2.1c0.9-0.7,1.5-1.4,0.6-2.5c-0.8-0.9-2-1.2-3.1-0.7c-0.3,0.1-0.5,0.3-0.8,0.5l-2.6,2.1
				l-0.6-0.7L85.9,398.1z"/>
			<path id="Fill-86" class="st2" d="M91.6,404.3l-0.6-0.7l0.6-0.5l0.6,0.7l1.5-1.3l0.6,0.7l-1.5,1.3l1.1,1.3l-0.6,0.5l-1.1-1.3
				l-2.7,2.3c-1.2,1.1-0.7,2-0.4,2.4c0.1,0.1,0.2,0.2,0.2,0.2l-0.6,0.6c0,0-0.1-0.1-0.3-0.3c-0.5-0.6-1.4-2,0.4-3.5L91.6,404.3z"/>
			<path id="Fill-88" class="st2" d="M92.4,413.6c1,1.1,2.7,1.2,3.9,0.1c1.2-1.1,1.2-2.8,0.2-3.9c-1-1.1-2.7-1.2-3.9-0.1
				C91.5,410.7,91.4,412.5,92.4,413.6 M97.2,409.2c1.4,1.5,1.4,3.8-0.2,5.2c-1.6,1.4-3.8,1.3-5.2-0.2c-1.4-1.5-1.3-3.8,0.2-5.2
				C93.5,407.5,95.8,407.7,97.2,409.2"/>
			<path id="Fill-90" class="st2" d="M92.1,107.6c0.9-1,0.8-2.1-0.1-3c-1-0.9-2.1-0.8-3,0.2l-1.4,1.6l3.1,2.8L92.1,107.6z M86.9,107
				l-0.6,0.7l-0.6-0.6l2.8-3.1c1.2-1.3,2.9-1.5,4.2-0.3c1.4,1.2,1.4,3,0.2,4.2l-1.5,1.7l2.9,2.6l-0.7,0.7L86.9,107z"/>
			<path id="Fill-92" class="st2" d="M94.4,103.3c-0.1-0.1-0.3-0.1-0.4,0l-0.4,0.4l-0.6-0.6l0.7-0.7c0.4-0.4,0.8-0.5,1.2-0.1
				l0.3,0.3c0.2,0.2,0.4,0.4,0.4,0.4l0,0c-0.5-1-0.6-2.1,0.2-2.9c0.1-0.1,0.3-0.2,0.3-0.2l0.7,0.6c0,0-0.1,0.1-0.3,0.2
				c-0.7,0.7-0.6,1.8-0.1,2.7c0.2,0.4,0.5,0.8,0.9,1.1l2.1,2l-0.7,0.7L94.4,103.3z"/>
			<path id="Fill-94" class="st2" d="M103.6,101.3c1.1-1,1.1-2.8-0.1-3.9c-1.1-1.1-2.8-1.1-3.9-0.1c-1.1,1.1-1.1,2.8,0,3.9
				C100.8,102.4,102.6,102.4,103.6,101.3 M99.1,96.7c1.5-1.4,3.7-1.5,5.2,0c1.5,1.5,1.4,3.8,0,5.2c-1.5,1.4-3.8,1.5-5.2,0
				C97.5,100.4,97.6,98.1,99.1,96.7"/>
			<path id="Fill-96" class="st2" d="M109.2,92.2c-1-1-2.4-1.6-3.5-0.6c-0.9,0.8-1,2.3,0.2,3.6c1.2,1.3,2.6,1.5,3.5,0.6
				C110.3,95.1,110.5,93.7,109.2,92.2 M105,91.1c1.3-1.1,2.6-0.6,2.6-0.6l0,0c0,0-0.2-0.2-0.4-0.4l-1.5-1.7c-0.1-0.1-0.3-0.2-0.4,0
				l-0.4,0.4l-0.6-0.6l0.7-0.7c0.4-0.4,0.8-0.4,1.2,0.1l5.3,5.8c0.1,0.2,0.3,0.2,0.4,0l0.4-0.4l0.6,0.6l-0.7,0.7
				c-0.4,0.4-0.8,0.4-1.1,0c-0.2-0.2-0.3-0.3-0.3-0.3l0,0c0,0,0.5,1.4-0.8,2.7c-1.4,1.3-3.3,0.9-4.7-0.7
				C103.7,94.3,103.6,92.3,105,91.1"/>
			<path id="Fill-98" class="st2" d="M110.2,88.2c-0.1-0.1-0.3-0.2-0.4,0l-0.4,0.4l-0.5-0.6l0.8-0.6c0.5-0.4,0.8-0.4,1.2,0.1
				l2.2,2.6c0.7,0.8,1.5,1.5,2.5,0.6c1.2-1,1.1-2.7,0.1-3.9l-2.2-2.6l0.7-0.6l3.8,4.5c0.1,0.2,0.3,0.2,0.4,0l0.4-0.4l0.5,0.6
				l-0.7,0.6c-0.4,0.4-0.8,0.4-1.2,0l-0.2-0.2c-0.2-0.2-0.3-0.4-0.3-0.4l0,0c0.2,0.7,0.2,2.1-0.9,3.1c-1.3,1.1-2.4,0.8-3.5-0.5
				L110.2,88.2z"/>
			<path id="Fill-100" class="st2" d="M118.3,79.8c0.6-0.5,2.2-1.3,2.9-0.4l0.4,0.5l-0.7,0.6l-0.2-0.3c-0.4-0.5-1.3,0-1.8,0.3
				c-1.2,0.9-1.4,2.6-0.4,3.9c1.1,1.4,2.7,1.4,3.9,0.5c1.1-0.9,1.2-2.2,1.2-2.2l0.8,0.3c0,0,0,1.5-1.4,2.6c-1.6,1.3-3.8,1.1-5.1-0.6
				C116.4,83.3,116.7,81.1,118.3,79.8"/>
			<path id="Fill-102" class="st2" d="M124.3,75.3c0.6-0.5,2.2-1.2,2.9-0.3l0.4,0.5l-0.7,0.5l-0.2-0.3c-0.3-0.5-1.3-0.1-1.8,0.3
				c-1.2,0.9-1.5,2.5-0.5,3.9c1,1.4,2.7,1.5,3.9,0.6c1.2-0.9,1.2-2.1,1.2-2.1l0.8,0.3c0,0-0.1,1.5-1.5,2.5c-1.7,1.2-3.8,1-5.1-0.8
				C122.2,78.7,122.6,76.5,124.3,75.3"/>
			<path id="Fill-104" class="st2" d="M128.7,73.7c-0.1-0.2-0.3-0.2-0.4-0.1l-0.5,0.3l-0.5-0.7l0.8-0.6c0.5-0.3,0.8-0.3,1.2,0.2
				l2.9,4.1c0.1,0.2,0.3,0.2,0.4,0.1l0.5-0.3l0.5,0.7l-0.8,0.6c-0.5,0.3-0.8,0.3-1.2-0.2L128.7,73.7z M126.4,70.5l0.8-0.5l0.7,1
				l-0.8,0.5L126.4,70.5z"/>
			<path id="Fill-106" class="st2" d="M137,74.3c1.2-0.8,1.6-2.5,0.7-3.9c-0.9-1.3-2.5-1.6-3.8-0.8c-1.3,0.8-1.6,2.5-0.7,3.8
				C134,74.8,135.7,75.2,137,74.3L137,74.3z M132.4,66.4l0.9-0.6l-0.1,2l-0.7,0.5L132.4,66.4z M133.4,68.9c1.7-1.1,3.9-0.7,5.1,1
				c1.2,1.8,0.7,4-1,5.1c-1.7,1.1-4,0.7-5.1-1C131.2,72.3,131.7,70.1,133.4,68.9L133.4,68.9z"/>
			<path id="Fill-108" class="st2" d="M138.8,67c-0.1-0.2-0.3-0.2-0.4-0.1l-0.5,0.3l-0.4-0.7l0.8-0.5c0.5-0.3,0.9-0.2,1.1,0.2
				l0.2,0.3c0.1,0.2,0.2,0.4,0.2,0.4l0,0c-0.1-0.7,0.1-2.1,1.5-3c1.5-0.9,2.5-0.4,3.4,1.1l1.7,2.8c0.1,0.2,0.3,0.2,0.4,0.1l0.5-0.3
				l0.4,0.7l-0.8,0.5c-0.5,0.3-0.9,0.2-1.2-0.3l-1.7-2.9c-0.6-0.9-1.2-1.7-2.4-1c-1,0.6-1.5,1.9-1.2,3c0.1,0.3,0.2,0.6,0.4,0.9
				l1.7,2.9l-0.8,0.5L138.8,67z"/>
			<path id="Fill-110" class="st2" d="M40.1,259.3c-1.4,0-2.8,0.7-2.8,2.2c0,1.2,1.1,2.2,2.8,2.2c1.7,0,2.8-0.9,2.8-2.2
				C42.9,260.4,42,259.3,40.1,259.3 M36.4,261.7c0-1.7,1.3-2.3,1.3-2.3l0,0c0,0-0.2,0-0.5,0l-2.3,0c-0.2,0-0.3,0.1-0.3,0.3l0,0.6
				l-0.8,0l0-1c0-0.6,0.2-0.9,0.8-0.9l7.8-0.1c0.2,0,0.3-0.1,0.3-0.3l0-0.6l0.8,0l0,1c0,0.6-0.3,0.8-0.8,0.8c-0.3,0-0.4,0-0.4,0v0
				c0,0,1.4,0.6,1.4,2.4c0,1.9-1.5,3.1-3.7,3.1C37.9,264.8,36.4,263.5,36.4,261.7"/>
			<path id="Fill-112" class="st2" d="M39.5,251.2c-1.4,0-2.2,0.9-2.2,1.9c0,1.2,0.7,2.2,2.1,2.5L39.5,251.2z M36.5,253
				c0.1-1.9,1.6-2.9,3.3-2.8c0.2,0,0.5,0,0.5,0l-0.2,5.4c1.8,0,2.8-1.2,2.9-2.6c0-1.3-0.8-2.1-0.8-2.1l0.7-0.4c0,0,1,1,0.9,2.6
				c-0.1,2.1-1.6,3.6-3.8,3.6C37.8,256.5,36.5,254.9,36.5,253L36.5,253z"/>
			<path id="Fill-114" class="st2" d="M43.7,241.5c0.1-1.2-0.9-2.3-2.6-2.5c-1.7-0.1-2.9,0.7-3,2c-0.1,1.2,0.6,2.3,2.6,2.5
				C42.1,243.6,43.5,243,43.7,241.5L43.7,241.5z M38.2,244.2c-0.2,0-0.3,0.1-0.3,0.3l0,0.6L37,245l0.1-1c0-0.6,0.3-0.8,0.8-0.8
				c0.3,0,0.5,0.1,0.5,0.1l0,0c0,0-1.3-0.7-1.2-2.5c0.2-1.9,1.8-2.9,3.9-2.7c2.2,0.2,3.5,1.6,3.4,3.4c-0.1,1.7-1.5,2.2-1.5,2.2l0,0
				c0,0,0.3,0,0.6,0l3.3,0.3l-0.1,0.9L38.2,244.2z"/>
			<path id="Fill-116" class="st2" d="M39,236c-0.2,0-0.3,0.1-0.3,0.3l-0.1,0.6l-0.8-0.1l0.1-1c0.1-0.6,0.3-0.8,0.9-0.8l0.5,0.1
				c0.3,0,0.5,0.1,0.5,0.1l0,0c-1-0.5-1.7-1.3-1.6-2.4c0-0.2,0.1-0.4,0.1-0.4l0.9,0.1c0,0,0,0.2-0.1,0.3c-0.1,1,0.6,1.8,1.6,2.2
				c0.4,0.2,0.9,0.3,1.3,0.3l2.9,0.3l-0.1,0.9L39,236z"/>
			<path id="Fill-118" class="st2" d="M45.1,228.9c0.2-1.5-0.8-2.9-2.4-3.1c-1.6-0.2-2.9,0.8-3.1,2.3c-0.2,1.5,0.8,2.9,2.3,3.1
				C43.5,231.4,44.9,230.4,45.1,228.9 M38.7,228c0.3-2,2.1-3.4,4.1-3.1c2.1,0.3,3.4,2.2,3.1,4.2c-0.3,2-2.1,3.4-4.2,3.1
				C39.7,231.9,38.4,230,38.7,228"/>
			<path id="Fill-120" class="st2" d="M44,218.3c-1.4-0.3-2.9,0.2-3.2,1.7c-0.2,1.2,0.6,2.4,2.4,2.7c1.7,0.3,2.9-0.4,3.2-1.7
				C46.6,219.9,46,218.7,44,218.3 M40,219.9c0.3-1.7,1.7-2,1.7-2l0,0c0,0-0.2,0-0.5-0.1l-2.2-0.4c-0.2,0-0.3,0.1-0.4,0.2l-0.1,0.6
				l-0.8-0.1l0.2-1c0.1-0.6,0.4-0.8,1-0.7l7.7,1.4c0.2,0,0.3-0.1,0.4-0.2L47,217l0.8,0.1l-0.2,1c-0.1,0.6-0.4,0.8-0.9,0.7
				c-0.3,0-0.4-0.1-0.4-0.1l0,0c0,0,1.3,0.8,0.9,2.6c-0.3,1.8-2,2.7-4.2,2.3C40.9,223.3,39.7,221.7,40,219.9"/>
			<path id="Fill-122" class="st2" d="M42.4,214.5c-0.2,0-0.3,0-0.4,0.2l-0.1,0.6l-0.8-0.2l0.2-1c0.1-0.6,0.4-0.8,1-0.6l3.3,0.7
				c1.1,0.2,2.1,0.3,2.4-1c0.3-1.5-0.8-2.8-2.3-3.2l-3.3-0.7l0.2-0.9l5.7,1.3c0.2,0,0.3,0,0.4-0.2l0.1-0.6l0.8,0.2l-0.2,0.9
				c-0.1,0.6-0.4,0.8-0.9,0.7l-0.3-0.1c-0.3-0.1-0.5-0.1-0.5-0.1l0,0c0.6,0.4,1.5,1.6,1.1,3c-0.4,1.6-1.4,2.1-3.2,1.7L42.4,214.5z"
				/>
			<path id="Fill-124" class="st2" d="M43.8,202.9c0.2-0.8,1-2.3,2.1-2l0.6,0.2l-0.2,0.9l-0.4-0.1c-0.6-0.1-1.1,0.8-1.2,1.3
				c-0.4,1.5,0.4,2.9,2,3.3c1.7,0.4,3-0.5,3.4-1.9c0.4-1.4-0.4-2.4-0.4-2.4l0.8-0.3c0,0,0.9,1.2,0.4,2.9c-0.5,2-2.4,3.2-4.5,2.6
				C44.3,206.8,43.3,204.9,43.8,202.9"/>
			<path id="Fill-126" class="st2" d="M45.8,195.7c0.2-0.8,1-2.3,2.1-2l0.6,0.2l-0.3,0.9l-0.4-0.1c-0.6-0.2-1.1,0.7-1.3,1.3
				c-0.4,1.4,0.3,2.9,1.9,3.4c1.7,0.5,3-0.4,3.5-1.8c0.4-1.4-0.3-2.4-0.3-2.4l0.8-0.2c0,0,0.8,1.2,0.3,3c-0.6,2-2.5,3.1-4.6,2.5
				C46.2,199.6,45.2,197.7,45.8,195.7"/>
			<path id="Fill-128" class="st2" d="M48.4,191.8c-0.2-0.1-0.3,0-0.4,0.2l-0.2,0.6l-0.8-0.3l0.3-0.9c0.2-0.6,0.5-0.7,1.1-0.5
				l4.8,1.5c0.2,0.1,0.3,0,0.4-0.2l0.2-0.6l0.8,0.3l-0.3,0.9c-0.2,0.6-0.5,0.7-1.1,0.5L48.4,191.8z M44.7,190.6l0.3-0.9l1.1,0.4
				l-0.3,0.9L44.7,190.6z"/>
			<path id="Fill-130" class="st2" d="M55.4,187.3c0.5-1.4-0.3-3-1.8-3.5c-1.5-0.5-3,0.3-3.5,1.7c-0.5,1.4,0.2,3,1.7,3.5
				C53.4,189.4,54.9,188.7,55.4,187.3L55.4,187.3z M49.3,185.2c0.7-1.9,2.7-3,4.6-2.3c2,0.7,3,2.8,2.3,4.7c-0.7,1.9-2.7,3-4.7,2.3
				C49.5,189.2,48.6,187.1,49.3,185.2L49.3,185.2z M47,183.8l0.3-1l1.2,1.7l-0.3,0.8L47,183.8z"/>
			<path id="Fill-132" class="st2" d="M52.4,180.3c-0.2-0.1-0.3,0-0.4,0.2l-0.2,0.5l-0.8-0.3l0.4-0.9c0.2-0.5,0.5-0.7,1-0.5l0.3,0.1
				c0.3,0.1,0.5,0.2,0.5,0.2l0,0c-0.5-0.5-1.2-1.7-0.6-3.2c0.6-1.6,1.8-1.8,3.4-1.2l3.1,1.2c0.2,0.1,0.3,0,0.4-0.2l0.2-0.5l0.8,0.3
				l-0.4,0.9c-0.2,0.6-0.5,0.7-1.1,0.5l-3.1-1.2c-1-0.4-2-0.6-2.5,0.6c-0.4,1.1-0.1,2.4,0.9,3.1c0.2,0.2,0.5,0.3,0.8,0.5l3.1,1.2
				l-0.4,0.9L52.4,180.3z"/>
			<path id="Fill-134" class="st2" d="M18.3,266.1c-0.2,0-0.3,0.1-0.3,0.3l0,0.6l-0.9,0l0-1c0-0.6,0.2-0.9,0.8-0.9l7.8-0.1
				c0.2,0,0.3-0.1,0.3-0.3l-0.1-3.2c0-0.2-0.1-0.3-0.3-0.3l-0.7,0l0-0.9l1,0c0.6,0,0.9,0.2,0.9,0.8l0.1,4.1c0,0.6-0.2,0.9-0.8,0.9
				L18.3,266.1z"/>
			<path id="Fill-136" class="st2" d="M26.2,256.1c0-1.5-1.2-2.7-2.8-2.8c-1.6,0-2.8,1.2-2.8,2.7c0,1.5,1.1,2.7,2.7,2.8
				C24.9,258.8,26.2,257.6,26.2,256.1 M19.7,256c0-2,1.6-3.7,3.7-3.6c2.1,0,3.7,1.7,3.6,3.7c0,2-1.6,3.7-3.8,3.6
				C21.2,259.7,19.7,258,19.7,256"/>
			<path id="Fill-138" class="st2" d="M23.6,245.8c-2-0.1-2.7,0.8-2.8,2.1c-0.1,1.4,0.9,2.2,2.5,2.3c1.7,0.1,2.8-0.8,2.9-2.1
				C26.3,246.9,25.7,245.9,23.6,245.8 M20,247.9c0.1-1.9,1.3-2.3,1.3-2.3v0c0,0-0.1,0-0.3,0c-0.5,0-0.8-0.3-0.7-0.8l0-1l0.8,0l0,0.6
				c0,0.2,0.1,0.3,0.3,0.3l5.7,0.3c2.2,0.1,3,1.8,2.9,3.5c0,0.8-0.3,1.6-0.7,2.3l-0.8-0.4c0,0,0.5-0.8,0.6-1.9
				c0.1-1.4-0.5-2.5-2.1-2.6l-0.6,0c-0.3,0-0.5,0-0.5,0v0c0.7,0.5,1.2,1.2,1.1,2.3c-0.1,1.9-1.6,3-3.7,2.9
				C21.2,251,19.9,249.8,20,247.9"/>
			<path id="Fill-140" class="st2" d="M21.6,242.2c-0.2,0-0.3,0.1-0.3,0.3l0,0.6l-0.8-0.1l0.1-1c0-0.6,0.3-0.8,0.9-0.8l5,0.4
				c0.2,0,0.3-0.1,0.3-0.3l0-0.6l0.8,0.1l-0.1,1c0,0.6-0.3,0.8-0.9,0.8L21.6,242.2z M17.8,240.9l0.1-1.1l1.6,1.3l-0.1,0.8
				L17.8,240.9z"/>
			<path id="Fill-142" class="st2" d="M26,239.3c0,0,1.1-0.7,1.3-2c0.1-0.8-0.2-1.5-1-1.6c-1.5-0.1-1.6,3.8-3.9,3.6
				c-1.3-0.1-1.8-1.3-1.6-2.7c0.1-0.7,0.5-2.1,1.5-2l0.6,0.1l-0.1,0.9l-0.3,0c-0.5,0-0.8,0.7-0.8,1.1c-0.1,1,0.2,1.6,0.9,1.6
				c1.6,0.2,1.6-3.8,3.9-3.6c1.2,0.1,1.8,1.2,1.7,2.6c-0.2,1.8-1.5,2.6-1.5,2.6L26,239.3z"/>
			<path id="Fill-144" class="st2" d="M22.2,232.4l-0.1,0.9l-0.8-0.1l0.1-0.9l-1.9-0.2l0.1-0.9l1.9,0.2l0.2-1.7l0.8,0.1l-0.2,1.7
				l3.5,0.4c1.6,0.2,2-0.8,2-1.3c0-0.2,0-0.3,0-0.3l0.8,0.1c0,0,0,0.2,0,0.4c-0.1,0.8-0.6,2.4-2.9,2.1L22.2,232.4z"/>
			<path id="Fill-146" class="st2" d="M23.1,227.7c-0.2,0-0.3,0.1-0.3,0.3l-0.1,0.6l-0.8-0.1l0.1-1c0.1-0.6,0.4-0.8,1-0.7l5,0.7
				c0.2,0,0.3-0.1,0.3-0.3l0.1-0.6l0.8,0.1l-0.1,1c-0.1,0.6-0.4,0.8-1,0.7L23.1,227.7z M19.2,227.2l0.1-0.9l1.2,0.2l-0.1,0.9
				L19.2,227.2z"/>
			<path id="Fill-148" class="st2" d="M22.8,221.1c0.1-0.8,0.7-2.4,1.9-2.2l0.6,0.1l-0.1,0.9l-0.4-0.1c-0.6-0.1-1,0.9-1.1,1.4
				c-0.2,1.5,0.7,2.9,2.4,3.1c1.7,0.3,3-0.8,3.2-2.3c0.2-1.4-0.6-2.4-0.6-2.4l0.8-0.3c0,0,1,1.1,0.7,2.9c-0.3,2.1-2.1,3.4-4.2,3
				C23.7,225,22.5,223.1,22.8,221.1"/>
			<path id="Fill-150" class="st2" d="M30.3,216.1c0.3-1.3-1-2.4-2.1-2.6l-0.3-0.1l-0.1,0.4c-0.2,1.1-0.6,3.2,0.9,3.5
				C29.4,217.5,30.1,217.1,30.3,216.1 M27.1,213.7l0.1-0.4l-0.1,0c-1.4-0.3-2,0.1-2.3,1.4c-0.1,0.3-0.2,1.4,0.3,1.5l0.4,0.1
				l-0.2,0.9l-0.7-0.1c-1-0.2-0.8-1.9-0.7-2.5c0.4-2.2,1.7-2.5,3.2-2.2l3.3,0.6c0.2,0,0.3-0.1,0.4-0.2l0.1-0.6l0.8,0.2l-0.2,0.9
				c-0.1,0.6-0.4,0.8-1,0.7c-0.3-0.1-0.5-0.1-0.5-0.1l0,0c0,0,1.4,0.8,1,2.6c-0.2,1.1-1.1,2.2-2.5,1.9
				C26.3,217.9,26.8,214.8,27.1,213.7"/>
			<path id="Fill-152" class="st2" d="M32.9,204c0.3-1.2-0.5-2.4-2.2-2.9c-1.7-0.4-2.9,0.2-3.3,1.5c-0.3,1.1,0.3,2.4,2.2,2.9
				C31,205.8,32.6,205.4,32.9,204L32.9,204z M27.1,205.8c-0.2,0-0.3,0-0.4,0.2l-0.1,0.6l-0.8-0.2l0.2-0.9c0.1-0.6,0.4-0.8,0.9-0.6
				c0.3,0.1,0.5,0.1,0.5,0.1l0,0c0,0-1.2-0.9-0.8-2.7c0.4-1.8,2.2-2.6,4.3-2.1c2.1,0.5,3.2,2.2,2.8,3.9c-0.4,1.7-1.8,1.9-1.8,1.9
				l0,0c0,0,0.2,0,0.6,0.1l3.2,0.8l-0.2,0.9L27.1,205.8z"/>
			<path id="Fill-154" class="st2" d="M26.4,197.3c-0.2-0.1-0.3,0-0.4,0.2l-0.2,0.6l-0.8-0.2l0.3-1c0.2-0.6,0.5-0.8,1-0.6l7.5,2
				c0.2,0.1,0.3,0,0.4-0.2l0.2-0.6l0.8,0.2l-0.3,1c-0.2,0.6-0.5,0.8-1,0.6L26.4,197.3z"/>
			<path id="Fill-156" class="st2" d="M35.6,194.2c0.4-1.3-0.7-2.5-1.9-2.8l-0.3-0.1l-0.1,0.4c-0.3,1.1-0.9,3.2,0.6,3.6
				C34.5,195.5,35.3,195.2,35.6,194.2 M32.6,191.5l0.1-0.4l-0.1,0c-1.4-0.4-2-0.1-2.4,1.2c-0.1,0.3-0.3,1.3,0.2,1.5l0.4,0.1
				l-0.3,0.9l-0.6-0.2c-0.9-0.3-0.7-1.9-0.5-2.5c0.6-2.1,1.9-2.3,3.4-1.9l3.2,1c0.2,0.1,0.3,0,0.4-0.2l0.2-0.6l0.8,0.2l-0.3,0.9
				c-0.2,0.6-0.5,0.7-1,0.6c-0.3-0.1-0.5-0.2-0.5-0.2l0,0c0,0,1.3,1,0.8,2.7c-0.3,1.1-1.3,2.1-2.7,1.7
				C31.4,195.6,32.2,192.7,32.6,191.5"/>
			<path id="Fill-158" class="st2" d="M32.2,187.4c-0.2-0.1-0.3,0-0.4,0.2l-0.2,0.6l-0.8-0.3l0.3-0.9c0.2-0.6,0.5-0.7,1-0.6l0.3,0.1
				c0.3,0.1,0.5,0.2,0.5,0.2l0,0c-0.5-0.4-1.3-1.6-0.8-3.2c0.5-1.7,1.7-1.9,3.3-1.4l3.2,1.1c0.2,0.1,0.3,0,0.4-0.2l0.2-0.6l0.8,0.3
				l-0.3,0.9c-0.2,0.6-0.5,0.7-1.1,0.5l-3.2-1.1c-1-0.3-2-0.5-2.4,0.8c-0.4,1.1,0.1,2.4,1.1,3c0.3,0.2,0.5,0.3,0.9,0.4l3.2,1.1
				l-0.3,0.9L32.2,187.4z"/>
			<path id="Fill-160" class="st2" d="M34.6,179.2l-0.3,0.9l-0.8-0.3l0.3-0.9l-1.8-0.6l0.3-0.9l1.8,0.6l0.6-1.7l0.7,0.3l-0.6,1.7
				l3.4,1.2c1.6,0.5,2.1-0.4,2.3-0.9c0.1-0.2,0.1-0.3,0.1-0.3l0.8,0.3c0,0,0,0.2-0.1,0.4c-0.3,0.8-1,2.2-3.3,1.5L34.6,179.2z"/>
			<path id="Fill-162" class="st2" d="M42.1,175.1c0.5-1.2-0.5-2.5-1.6-2.9l-0.3-0.1l-0.1,0.4c-0.4,1-1.2,3.1,0.3,3.7
				C40.9,176.3,41.7,176.1,42.1,175.1 M39.3,172.1l0.1-0.4l-0.1,0c-1.4-0.5-2-0.2-2.5,1c-0.1,0.3-0.4,1.3,0.1,1.5l0.4,0.2l-0.3,0.8
				l-0.6-0.2c-0.9-0.4-0.5-2-0.3-2.6c0.8-2.1,2.1-2.1,3.5-1.6l3.1,1.2c0.2,0.1,0.3,0,0.4-0.2l0.2-0.5l0.8,0.3l-0.3,0.9
				c-0.2,0.6-0.6,0.7-1.1,0.5c-0.3-0.1-0.5-0.2-0.5-0.2l0,0c0,0,1.2,1.1,0.6,2.7c-0.4,1.1-1.5,2-2.8,1.5
				C37.8,176.1,38.9,173.2,39.3,172.1"/>
			<path id="Fill-164" class="st2" d="M43,169.9c0,0,1.3-0.3,1.8-1.6c0.3-0.7,0.2-1.5-0.5-1.8c-1.4-0.6-2.7,3.1-4.8,2.2
				c-1.2-0.5-1.3-1.7-0.8-3c0.3-0.7,1.1-1.9,2-1.5l0.6,0.2l-0.3,0.8l-0.3-0.1c-0.5-0.2-0.9,0.4-1.1,0.8c-0.4,0.9-0.3,1.6,0.3,1.8
				c1.4,0.6,2.6-3.1,4.8-2.2c1.1,0.5,1.4,1.7,0.9,3c-0.7,1.7-2.2,2-2.2,2L43,169.9z"/>
			<path id="Fill-166" class="st2" d="M216.8,39.1c0-0.2-0.2-0.3-0.4-0.2l-0.6,0.1l-0.2-0.8l1-0.2c0.6-0.1,0.9,0.1,1,0.7l1.5,7.7
				c0,0.2,0.2,0.3,0.4,0.2l0.6-0.1l0.2,0.8l-1,0.2c-0.6,0.1-0.9-0.1-1-0.7L216.8,39.1z"/>
			<path id="Fill-168" class="st2" d="M223.5,46c1.3-0.2,1.9-1.7,1.7-2.9l-0.1-0.3l-0.4,0.1c-1.1,0.2-3.2,0.6-3,2.1
				C221.9,45.6,222.5,46.2,223.5,46 M224.6,42.1L225,42l0-0.1c-0.2-1.4-0.8-1.9-2.1-1.6c-0.3,0.1-1.3,0.3-1.2,0.8l0.1,0.4l-0.9,0.1
				l-0.1-0.7c-0.2-1,1.4-1.4,2.1-1.5c2.2-0.4,2.9,0.7,3.1,2.2l0.6,3.3c0,0.2,0.2,0.3,0.4,0.3l0.6-0.1l0.1,0.8l-0.9,0.2
				c-0.6,0.1-0.9-0.1-1-0.7c-0.1-0.3-0.1-0.5-0.1-0.5l0,0c0,0-0.3,1.6-2,1.9c-1.2,0.2-2.5-0.3-2.7-1.7
				C220.4,42.9,223.4,42.3,224.6,42.1"/>
			<path id="Fill-170" class="st2" d="M228.2,40c0-0.2-0.2-0.3-0.3-0.3l-0.6,0.1l-0.1-0.8l1-0.1c0.6-0.1,0.9,0.1,0.9,0.7l0.1,0.5
				c0,0.3,0,0.5,0,0.5l0,0c0.2-1.1,0.8-2,1.9-2.1c0.2,0,0.4,0,0.4,0l0.1,0.9c0,0-0.2,0-0.3,0c-1,0.1-1.6,1-1.8,2.1
				c-0.1,0.5-0.1,0.9,0,1.4l0.4,2.9l-0.9,0.1L228.2,40z"/>
			<path id="Fill-172" class="st2" d="M237.9,41c-0.2-2-1.3-2.6-2.5-2.4c-1.4,0.1-2,1.2-1.9,2.9c0.2,1.7,1.2,2.6,2.6,2.5
				C237.2,43.8,238.1,43.1,237.9,41 M235.2,37.8c1.9-0.2,2.4,0.9,2.4,0.9l0,0c0,0,0-0.1,0-0.3c-0.1-0.5,0.1-0.8,0.7-0.8l1-0.1
				l0.1,0.8l-0.6,0.1c-0.2,0-0.3,0.1-0.3,0.3l0.6,5.7c0.2,2.2-1.3,3.2-3,3.4c-0.8,0.1-1.6,0-2.3-0.3l0.3-0.8c0,0,0.9,0.4,1.9,0.3
				c1.4-0.1,2.4-0.9,2.2-2.4l-0.1-0.6c0-0.3,0-0.5,0-0.5l0,0c-0.3,0.8-1,1.3-2.1,1.4c-1.9,0.2-3.3-1.1-3.5-3.2
				C232.4,39.5,233.4,38,235.2,37.8"/>
			<path id="Fill-174" class="st2" d="M243.4,43.5c1.3-0.1,2-1.5,1.9-2.8l0-0.3l-0.4,0c-1.1,0.1-3.3,0.3-3.2,1.8
				C241.8,43,242.3,43.6,243.4,43.5 M244.9,39.8l0.4,0l0-0.1c-0.1-1.5-0.7-1.9-1.9-1.8c-0.3,0-1.4,0.2-1.3,0.7l0,0.4l-0.9,0.1l0-0.7
				c-0.1-1,1.6-1.3,2.2-1.3c2.2-0.2,2.8,1,2.9,2.5l0.2,3.3c0,0.2,0.1,0.3,0.3,0.3l0.6,0l0.1,0.8l-1,0.1c-0.6,0-0.9-0.2-0.9-0.8
				c0-0.3,0-0.5,0-0.5l0,0c0,0-0.5,1.6-2.2,1.7c-1.2,0.1-2.4-0.5-2.5-1.9C240.6,40.1,243.7,39.8,244.9,39.8"/>
			<path id="Fill-176" class="st2" d="M257.3,40.1c0-1.4-0.8-2.8-2.3-2.8c-1.2,0-2.2,1.1-2.2,2.9c0,1.7,1,2.8,2.3,2.8
				C256.3,42.9,257.3,42.1,257.3,40.1 M254.9,36.5c1.7,0,2.3,1.3,2.3,1.3h0c0,0,0-0.2,0-0.5l0-2.3c0-0.2-0.1-0.3-0.3-0.3l-0.6,0
				l0-0.8l1,0c0.6,0,0.9,0.2,0.9,0.8l0.2,7.8c0,0.2,0.1,0.3,0.3,0.3l0.6,0l0,0.8l-1,0c-0.6,0-0.8-0.2-0.9-0.8c0-0.3,0-0.4,0-0.4h0
				c0,0-0.5,1.4-2.4,1.4c-1.9,0-3.1-1.4-3.1-3.6C251.8,38,253.1,36.5,254.9,36.5"/>
			<path id="Fill-178" class="st2" d="M260.8,33.8l0.9,0l0,1.2l-0.9,0L260.8,33.8z M260.8,37.7c0-0.2-0.1-0.3-0.3-0.3l-0.6,0l0-0.8
				l1,0c0.6,0,0.8,0.3,0.8,0.9l0,5c0,0.2,0.1,0.3,0.3,0.3l0.6,0l0,0.8l-1,0c-0.6,0-0.8-0.3-0.8-0.9L260.8,37.7z"/>
			<path id="Fill-180" class="st2" d="M263.9,41.9c0,0,0.8,1.1,2.1,1.1c0.8,0,1.5-0.3,1.5-1.1c0-1.5-3.9-1.4-3.8-3.6
				c0-1.3,1.1-1.9,2.5-1.8c0.7,0,2.1,0.3,2.1,1.3l0,0.6l-0.9,0l0-0.3c0-0.5-0.7-0.7-1.2-0.7c-1,0-1.6,0.3-1.6,1
				c0,1.6,3.9,1.3,3.8,3.6c0,1.2-1.1,1.9-2.5,1.9c-1.8-0.1-2.6-1.3-2.6-1.3L263.9,41.9z"/>
			<path id="Fill-182" class="st2" d="M270.6,37.6l-0.9,0l0-0.8l0.9,0.1l0.1-1.9l0.9,0.1l-0.1,1.9l1.8,0.1l0,0.8l-1.8-0.1l-0.2,3.6
				c-0.1,1.6,0.9,1.9,1.5,1.9c0.2,0,0.3,0,0.3,0l0,0.8c0,0-0.2,0-0.4,0c-0.8,0-2.4-0.4-2.3-2.7L270.6,37.6z"/>
			<path id="Fill-184" class="st2" d="M276.6,43.6c1.3,0.1,2.2-1.2,2.3-2.4l0-0.3l-0.4,0c-1.1-0.1-3.3-0.2-3.4,1.3
				C275.1,42.8,275.6,43.5,276.6,43.6 M278.7,40.1l0.4,0l0-0.1c0.1-1.5-0.4-2-1.6-2.1c-0.3,0-1.4,0-1.4,0.5l0,0.4l-0.9-0.1l0.1-0.7
				c0.1-1,1.8-1,2.4-1c2.2,0.2,2.6,1.4,2.5,2.9l-0.3,3.3c0,0.2,0.1,0.3,0.3,0.3l0.6,0l-0.1,0.8l-1-0.1c-0.6,0-0.8-0.3-0.8-0.9
				c0-0.3,0.1-0.5,0.1-0.5l0,0c0,0-0.7,1.5-2.4,1.3c-1.2-0.1-2.3-0.9-2.2-2.3C274.4,39.8,277.5,40,278.7,40.1"/>
			<path id="Fill-186" class="st2" d="M282.6,38.9c0-0.2-0.1-0.3-0.3-0.3l-0.6-0.1l0.1-0.8l1,0.1c0.6,0.1,0.8,0.3,0.8,0.9l0,0.3
				c0,0.3-0.1,0.5-0.1,0.5l0,0c0.3-0.6,1.3-1.6,3-1.4c1.7,0.2,2.2,1.3,2,3l-0.4,3.3c0,0.2,0.1,0.3,0.3,0.3l0.6,0.1l-0.1,0.8l-1-0.1
				c-0.6-0.1-0.8-0.3-0.7-0.9l0.4-3.3c0.1-1.1,0.1-2.1-1.3-2.2c-1.2-0.1-2.3,0.6-2.8,1.7c-0.1,0.3-0.2,0.6-0.2,0.9l-0.4,3.3
				l-0.9-0.1L282.6,38.9z"/>
			<path id="Fill-188" class="st2" d="M294.3,39.1c0.8,0.1,2.4,0.7,2.2,1.9l-0.1,0.6l-0.9-0.1l0.1-0.4c0.1-0.6-0.9-1-1.4-1.1
				c-1.5-0.2-2.9,0.7-3.1,2.4c-0.3,1.7,0.8,3,2.3,3.2c1.4,0.2,2.4-0.6,2.4-0.6l0.3,0.8c0,0-1.1,1-2.9,0.7c-2.1-0.3-3.4-2-3.1-4.2
				C290.5,40.1,292.3,38.8,294.3,39.1"/>
			<path id="Fill-190" class="st2" d="M299.2,37.3l0.9,0.2l-0.2,1.2l-0.9-0.2L299.2,37.3z M298.5,41.1c0-0.2-0.1-0.3-0.2-0.4
				l-0.6-0.1l0.1-0.8l1,0.2c0.6,0.1,0.8,0.4,0.7,1l-0.9,4.9c0,0.2,0.1,0.3,0.2,0.4l0.6,0.1l-0.1,0.8l-1-0.2c-0.6-0.1-0.8-0.4-0.7-1
				L298.5,41.1z"/>
			<path id="Fill-192" class="st2" d="M302.8,47.3c1.3,0.3,2.4-0.9,2.6-2.1l0.1-0.3l-0.4-0.1c-1.1-0.2-3.2-0.6-3.6,0.9
				C301.4,46.3,301.8,47.1,302.8,47.3 M305.2,44l0.4,0.1l0-0.1c0.3-1.4-0.1-2-1.4-2.3c-0.3-0.1-1.4-0.2-1.5,0.3l-0.1,0.4l-0.9-0.2
				l0.1-0.7c0.2-1,1.9-0.8,2.5-0.7c2.2,0.4,2.4,1.7,2.1,3.2l-0.7,3.3c0,0.2,0,0.3,0.2,0.4l0.6,0.1l-0.2,0.8l-0.9-0.2
				c-0.6-0.1-0.8-0.4-0.6-1c0.1-0.3,0.1-0.5,0.1-0.5l0,0c0,0-0.9,1.4-2.6,1c-1.1-0.2-2.2-1.2-1.9-2.5C301,43.3,304.1,43.8,305.2,44"
				/>
			<path id="Fill-194" class="st2" d="M231.7,19.8c0-0.2-0.1-0.3-0.3-0.3l-0.6,0.1l-0.1-0.9l1-0.1c0.6-0.1,0.9,0.2,0.9,0.8l0.8,7.7
				c0,0.2,0.1,0.3,0.3,0.3l3.2-0.3c0.2,0,0.3-0.1,0.3-0.3l-0.1-0.6l0.9-0.1l0.1,1c0.1,0.6-0.2,0.9-0.8,0.9l-4,0.4
				c-0.6,0.1-0.9-0.2-0.9-0.8L231.7,19.8z"/>
			<path id="Fill-196" class="st2" d="M242.4,26.8c1.5-0.1,2.6-1.4,2.5-3c-0.1-1.6-1.4-2.7-2.9-2.6c-1.5,0.1-2.6,1.4-2.5,3
				C239.6,25.8,240.9,26.9,242.4,26.8 M241.9,20.3c2-0.2,3.8,1.3,4,3.3c0.2,2.1-1.4,3.8-3.4,4c-2,0.2-3.8-1.3-4-3.4
				C238.4,22.1,239.9,20.5,241.9,20.3"/>
			<path id="Fill-198" class="st2" d="M252.4,23.3c-0.1-2-1.1-2.6-2.3-2.6c-1.4,0.1-2.1,1.1-2,2.7c0.1,1.7,1,2.7,2.4,2.7
				C251.6,26.1,252.5,25.4,252.4,23.3 M250,19.9c1.9-0.1,2.4,1.1,2.4,1.1l0,0c0,0,0-0.1,0-0.3c0-0.5,0.2-0.8,0.8-0.8l1,0l0,0.8
				l-0.6,0c-0.2,0-0.3,0.1-0.3,0.3l0.2,5.7c0.1,2.2-1.5,3.2-3.2,3.2c-0.8,0-1.6-0.1-2.3-0.5l0.3-0.8c0,0,0.9,0.5,1.9,0.4
				c1.4-0.1,2.4-0.7,2.4-2.3l0-0.6c0-0.3,0-0.5,0-0.5l0,0c-0.4,0.8-1.1,1.3-2.1,1.3c-1.9,0.1-3.2-1.4-3.3-3.5
				C247,21.4,248.1,19.9,250,19.9"/>
			<path id="Fill-200" class="st2" d="M256.7,17.1l1.1,0l-1.2,1.7l-0.8,0L256.7,17.1z M255.8,21c0-0.2-0.1-0.3-0.3-0.3l-0.6,0l0-0.8
				l1,0c0.6,0,0.9,0.2,0.9,0.8l0.1,5c0,0.2,0.1,0.3,0.3,0.3l0.6,0l0,0.8l-1,0c-0.6,0-0.9-0.2-0.9-0.8L255.8,21z"/>
			<path id="Fill-202" class="st2" d="M259,25.1c0,0,0.8,1.1,2.1,1.1c0.8,0,1.5-0.4,1.5-1.1c0-1.5-3.9-1.3-3.9-3.5
				c0-1.3,1.1-1.9,2.5-1.9c0.7,0,2.1,0.3,2.1,1.3l0,0.6l-0.9,0l0-0.3c0-0.5-0.7-0.7-1.2-0.7c-1,0-1.6,0.3-1.6,1
				c0,1.6,3.9,1.2,3.9,3.6c0,1.2-1.1,2-2.5,1.9c-1.8,0-2.7-1.2-2.7-1.2L259,25.1z"/>
			<path id="Fill-204" class="st2" d="M265.6,20.7l-0.9,0l0-0.8l0.9,0l0.1-1.9l0.9,0l-0.1,1.9l1.8,0.1l0,0.8l-1.8-0.1l-0.1,3.6
				c0,1.6,1,1.9,1.5,1.9c0.2,0,0.3,0,0.3,0l0,0.8c0,0-0.2,0-0.4,0c-0.8,0-2.4-0.3-2.4-2.7L265.6,20.7z"/>
			<path id="Fill-206" class="st2" d="M270.5,17.3l0.9,0l-0.1,1.2l-0.9,0L270.5,17.3z M270.4,21.2c0-0.2-0.1-0.3-0.3-0.3l-0.6,0
				l0-0.8l1,0c0.6,0,0.8,0.3,0.8,0.9l-0.2,5c0,0.2,0.1,0.3,0.3,0.3l0.6,0l0,0.8l-1,0c-0.6,0-0.8-0.3-0.8-0.9L270.4,21.2z"/>
			<path id="Fill-208" class="st2" d="M277,20.3c0.8,0.1,2.5,0.5,2.4,1.7l0,0.6l-0.9-0.1l0-0.4c0-0.6-1-0.9-1.5-1
				c-1.5-0.1-2.8,0.9-2.9,2.6c-0.1,1.7,1.1,2.9,2.5,3c1.4,0.1,2.3-0.8,2.3-0.8l0.4,0.7c0,0-1,1.1-2.8,0.9c-2.1-0.1-3.6-1.7-3.4-3.9
				C273.2,21.6,274.9,20.1,277,20.3"/>
			<path id="Fill-210" class="st2" d="M282.6,27.3c1.3,0.1,2.3-1.2,2.4-2.4l0-0.3l-0.4,0c-1.1-0.1-3.3-0.3-3.4,1.3
				C281.2,26.5,281.6,27.2,282.6,27.3 M284.8,23.9l0.4,0l0-0.1c0.1-1.5-0.3-2-1.6-2.1c-0.3,0-1.4,0-1.4,0.5l0,0.4l-0.9-0.1l0.1-0.7
				c0.1-1,1.8-1,2.4-0.9c2.2,0.2,2.6,1.5,2.5,3l-0.3,3.3c0,0.2,0.1,0.3,0.3,0.3l0.6,0.1l-0.1,0.8l-1-0.1c-0.6-0.1-0.8-0.3-0.7-0.9
				c0-0.3,0.1-0.5,0.1-0.5l0,0c0,0-0.7,1.5-2.5,1.3c-1.2-0.1-2.3-0.9-2.2-2.3C280.5,23.5,283.5,23.7,284.8,23.9"/>
			<path id="Fill-212" class="st2" d="M369.6,65.4c0.7,0.4,2,1.5,1.4,2.5l-0.3,0.5l-0.8-0.4l0.2-0.4c0.3-0.5-0.5-1.3-1-1.5
				c-1.3-0.7-2.9-0.3-3.8,1.1c-0.8,1.5-0.3,3.1,1,3.8c1.3,0.7,2.5,0.2,2.5,0.2l0,0.8c0,0-1.4,0.5-3-0.3c-1.8-1-2.5-3.1-1.4-5
				C365.6,64.9,367.7,64.4,369.6,65.4"/>
			<path id="Fill-214" class="st2" d="M372.7,74.7c1.3,0.8,3,0.4,3.8-1c0.8-1.4,0.4-3-0.9-3.8c-1.3-0.8-2.9-0.4-3.8,0.9
				C371,72.3,371.4,74,372.7,74.7 M376.1,69.2c1.7,1.1,2.3,3.3,1.3,5c-1.1,1.8-3.3,2.3-5.1,1.2c-1.7-1.1-2.3-3.3-1.2-5.1
				C372.1,68.6,374.3,68.1,376.1,69.2"/>
			<path id="Fill-216" class="st2" d="M380.1,73.3c0.1-0.2,0.1-0.3-0.1-0.4l-0.5-0.3l0.4-0.7l0.8,0.5c0.5,0.3,0.6,0.7,0.3,1.1
				l-0.3,0.4c-0.2,0.2-0.3,0.4-0.3,0.4l0,0c0.9-0.7,2-1,2.9-0.4c0.2,0.1,0.3,0.2,0.3,0.2l-0.5,0.8c0,0-0.1-0.1-0.3-0.2
				c-0.8-0.5-1.9-0.3-2.7,0.4c-0.4,0.3-0.7,0.7-0.9,1l-1.6,2.5l-0.8-0.5L380.1,73.3z"/>
			<path id="Fill-218" class="st2" d="M384.6,75.9l-0.8-0.5l0.5-0.7l0.8,0.5l1.1-1.6l0.8,0.5l-1.1,1.6l1.4,1l-0.4,0.7l-1.4-1l-2,2.9
				c-0.9,1.4-0.2,2.1,0.3,2.4c0.2,0.1,0.3,0.2,0.3,0.2l-0.5,0.7c0,0-0.2-0.1-0.3-0.2c-0.7-0.5-1.9-1.6-0.5-3.5L384.6,75.9z"/>
			<path id="Fill-220" class="st2" d="M386.6,84.1c1.1,0.8,2.6,0.1,3.3-0.8l0.2-0.3l-0.3-0.2c-0.9-0.6-2.7-1.9-3.6-0.6
				C385.8,82.6,385.8,83.5,386.6,84.1 M390.2,82.1l0.3,0.2l0-0.1c0.9-1.2,0.7-1.9-0.3-2.7c-0.3-0.2-1.2-0.7-1.5-0.3l-0.3,0.4
				l-0.7-0.5l0.4-0.5c0.6-0.8,2,0,2.5,0.4c1.8,1.3,1.5,2.6,0.6,3.8l-2,2.7c-0.1,0.2-0.1,0.3,0.1,0.4l0.5,0.3l-0.5,0.7l-0.8-0.6
				c-0.5-0.4-0.5-0.7-0.2-1.2c0.2-0.2,0.3-0.4,0.3-0.4l0,0c0,0-1.4,0.9-2.8-0.1c-0.9-0.7-1.5-2-0.7-3.1
				C386.7,79.7,389.2,81.4,390.2,82.1"/>
			<path id="Fill-222" class="st2" d="M399.6,90.4c0.9-1.1,1.2-2.6,0-3.6c-1-0.8-2.4-0.6-3.5,0.8c-1.1,1.3-1.1,2.8-0.1,3.6
				C396.9,91.9,398.3,92,399.6,90.4 M400.1,86.1c1.3,1.1,0.9,2.5,0.9,2.5l0,0c0,0,0.1-0.2,0.3-0.4l1.4-1.8c0.1-0.2,0.1-0.3,0-0.4
				l-0.5-0.4l0.5-0.6l0.8,0.6c0.5,0.4,0.5,0.7,0.1,1.2l-4.9,6.1c-0.1,0.2-0.1,0.3,0,0.4l0.5,0.4l-0.5,0.6l-0.8-0.6
				c-0.5-0.4-0.5-0.7-0.2-1.1c0.2-0.2,0.3-0.3,0.3-0.3l0,0c0,0-1.3,0.7-2.7-0.4c-1.5-1.2-1.4-3.1-0.1-4.8
				C396.7,85.3,398.7,85,400.1,86.1"/>
			<path id="Fill-224" class="st2" d="M406.2,87.8l0.7,0.6l-0.8,0.9l-0.7-0.6L406.2,87.8z M403.7,90.8c0.1-0.1,0.1-0.3,0-0.4
				l-0.4-0.4l0.5-0.6l0.8,0.6c0.5,0.4,0.5,0.7,0.1,1.2l-3.3,3.8c-0.1,0.2-0.1,0.3,0,0.4l0.4,0.4l-0.5,0.6l-0.8-0.6
				c-0.5-0.4-0.5-0.7-0.1-1.2L403.7,90.8z"/>
			<path id="Fill-226" class="st2" d="M403.4,96.1c0,0-0.1,1.3,0.9,2.2c0.6,0.5,1.3,0.7,1.8,0.2c1-1.1-2.1-3.5-0.6-5.2
				c0.8-0.9,2.1-0.7,3.1,0.2c0.5,0.5,1.4,1.6,0.7,2.4l-0.4,0.4l-0.7-0.6l0.2-0.2c0.3-0.4-0.1-1-0.4-1.3c-0.7-0.6-1.4-0.8-1.8-0.3
				c-1,1.2,2.1,3.5,0.6,5.2c-0.8,0.9-2.1,0.8-3.1-0.2c-1.4-1.2-1.2-2.7-1.2-2.7L403.4,96.1z"/>
			<path id="Fill-228" class="st2" d="M411.3,97.1l-0.7-0.6l0.5-0.6l0.7,0.6l1.3-1.4l0.7,0.6l-1.3,1.4l1.3,1.2l-0.5,0.6l-1.3-1.2
				l-2.4,2.6c-1.1,1.2-0.5,2.1-0.1,2.4c0.1,0.1,0.3,0.2,0.3,0.2l-0.6,0.6c0,0-0.1-0.1-0.3-0.3c-0.6-0.6-1.6-1.9,0-3.6L411.3,97.1z"
				/>
			<path id="Fill-230" class="st2" d="M412,105.5c0.9,0.9,2.5,0.5,3.4-0.3l0.2-0.2l-0.3-0.3c-0.8-0.8-2.4-2.3-3.5-1.2
				C411.4,104,411.3,104.8,412,105.5 M415.9,104.2l0.3,0.3l0.1-0.1c1-1,1-1.8,0.1-2.7c-0.2-0.2-1-0.9-1.4-0.5l-0.3,0.3l-0.6-0.6
				l0.5-0.5c0.7-0.7,2,0.3,2.5,0.8c1.6,1.6,1.1,2.8,0.1,3.8l-2.4,2.4c-0.1,0.1-0.1,0.3,0,0.4l0.4,0.4l-0.6,0.6l-0.7-0.7
				c-0.4-0.4-0.4-0.8,0-1.2c0.2-0.2,0.4-0.4,0.4-0.4l0,0c0,0-1.5,0.7-2.7-0.6c-0.8-0.8-1.2-2.2-0.2-3.1
				C412.8,101.2,415,103.3,415.9,104.2"/>
			<path id="Fill-232" class="st2" d="M419.7,105.8c0.1-0.1,0.1-0.3,0-0.4l-0.4-0.4l0.6-0.6l0.7,0.7c0.4,0.4,0.4,0.8,0,1.2l-0.2,0.2
				c-0.2,0.2-0.4,0.3-0.4,0.3l0,0c0.6-0.3,2.1-0.4,3.2,0.8c1.2,1.3,0.9,2.4-0.4,3.6l-2.4,2.3c-0.2,0.1-0.1,0.3,0,0.4l0.4,0.4
				l-0.6,0.6l-0.7-0.7c-0.4-0.4-0.4-0.8,0-1.2l2.4-2.3c0.8-0.8,1.4-1.5,0.5-2.5c-0.8-0.9-2.1-1.1-3.2-0.5c-0.3,0.1-0.5,0.3-0.8,0.6
				l-2.5,2.3l-0.6-0.7L419.7,105.8z"/>
			<path id="Fill-234" class="st2" d="M428.5,113.5c0.5,0.6,1.4,2.1,0.5,2.9l-0.5,0.4l-0.6-0.7l0.3-0.3c0.4-0.4,0-1.3-0.4-1.8
				c-1-1.1-2.6-1.3-3.9-0.2c-1.3,1.1-1.3,2.8-0.3,3.9c0.9,1.1,2.2,1.1,2.2,1.1l-0.2,0.8c0,0-1.5,0-2.7-1.3c-1.4-1.6-1.3-3.8,0.3-5.2
				C424.9,111.8,427.1,112,428.5,113.5"/>
			<path id="Fill-236" class="st2" d="M433.4,115.3l0.6,0.7l-0.9,0.8l-0.6-0.7L433.4,115.3z M430.4,117.8c0.2-0.1,0.2-0.3,0-0.4
				l-0.4-0.5l0.6-0.5l0.6,0.8c0.4,0.5,0.4,0.8-0.1,1.2l-3.9,3.2c-0.2,0.1-0.2,0.3,0,0.4l0.4,0.4L427,123l-0.6-0.8
				c-0.4-0.5-0.3-0.8,0.1-1.2L430.4,117.8z"/>
			<path id="Fill-238" class="st2" d="M429.7,125.2c0.8,1.1,2.4,0.8,3.4,0.1l0.3-0.2l-0.3-0.3c-0.7-0.9-2.1-2.6-3.3-1.6
				C429.2,123.6,429,124.4,429.7,125.2 M433.6,124.3l0.2,0.3l0.1-0.1c1.2-0.9,1.2-1.6,0.4-2.6c-0.2-0.3-0.9-1-1.3-0.7l-0.4,0.3
				l-0.6-0.7l0.5-0.4c0.8-0.6,2,0.6,2.3,1.1c1.4,1.7,0.8,2.9-0.4,3.8l-2.6,2.1c-0.2,0.1-0.2,0.3-0.1,0.4l0.4,0.5l-0.6,0.5L431,128
				c-0.4-0.5-0.3-0.8,0.1-1.2c0.2-0.2,0.4-0.3,0.4-0.3l0,0c0,0-1.5,0.5-2.6-0.9c-0.7-0.9-0.9-2.3,0.2-3.2
				C430.9,121,432.9,123.4,433.6,124.3"/>
			<path id="Fill-240" class="st2" d="M395.3,59.9c0.1-0.2,0.1-0.3-0.1-0.4l-0.5-0.3l0.5-0.7L396,59c0.5,0.3,0.6,0.7,0.2,1.2
				l-4.4,6.4c-0.1,0.2-0.1,0.3,0.1,0.4l2.7,1.8c0.2,0.1,0.3,0.1,0.4-0.1l0.4-0.5l0.8,0.5l-0.6,0.8c-0.3,0.5-0.7,0.6-1.2,0.2
				l-3.3-2.3c-0.5-0.3-0.6-0.7-0.2-1.2L395.3,59.9z"/>
			<path id="Fill-242" class="st2" d="M398.8,72.2c1.2,0.9,2.9,0.6,3.9-0.7c0.9-1.3,0.7-3-0.5-3.8c-1.2-0.9-2.9-0.7-3.8,0.6
				C397.4,69.6,397.6,71.3,398.8,72.2 M402.7,67c1.6,1.2,2,3.5,0.8,5.1c-1.3,1.7-3.5,2-5.2,0.8c-1.6-1.2-2-3.5-0.8-5.2
				C398.8,66,401.1,65.8,402.7,67"/>
			<path id="Fill-244" class="st2" d="M408.7,76.1c1.3-1.6,0.9-2.7-0.1-3.5c-1.1-0.9-2.3-0.6-3.3,0.7c-1,1.3-1,2.7,0.1,3.6
				C406.2,77.6,407.4,77.7,408.7,76.1 M409.1,71.9c1.5,1.2,1.1,2.4,1.1,2.4l0,0c0,0,0.1-0.1,0.2-0.2c0.3-0.4,0.7-0.5,1.1-0.1
				l0.8,0.6l-0.5,0.6l-0.4-0.4c-0.2-0.1-0.3-0.1-0.4,0l-3.6,4.5c-1.4,1.7-3.2,1.4-4.6,0.3c-0.6-0.5-1.1-1.2-1.4-1.9l0.8-0.4
				c0,0,0.4,0.9,1.2,1.6c1.1,0.9,2.3,1,3.3-0.2l0.4-0.5c0.2-0.2,0.3-0.4,0.3-0.4l0,0c-0.8,0.3-1.6,0.3-2.5-0.4
				c-1.5-1.2-1.5-3.1-0.2-4.8C405.8,71.1,407.6,70.7,409.1,71.9"/>
			<path id="Fill-246" class="st2" d="M416,74.2l0.8,0.7l-2,0.5l-0.6-0.5L416,74.2z M412.8,76.6c0.1-0.1,0.1-0.3,0-0.4l-0.4-0.4
				l0.5-0.6l0.8,0.6c0.5,0.4,0.5,0.7,0.1,1.2l-3.2,3.9c-0.1,0.2-0.1,0.3,0,0.4l0.4,0.4l-0.5,0.6l-0.8-0.6c-0.5-0.4-0.5-0.7-0.1-1.2
				L412.8,76.6z"/>
			<path id="Fill-248" class="st2" d="M412.5,81.8c0,0-0.1,1.3,0.9,2.2c0.6,0.5,1.4,0.7,1.8,0.1c1-1.2-2.1-3.5-0.7-5.2
				c0.8-1,2.1-0.7,3.1,0.2c0.5,0.5,1.4,1.6,0.8,2.4l-0.4,0.5l-0.7-0.6l0.2-0.3c0.3-0.4-0.1-1-0.4-1.3c-0.7-0.6-1.4-0.8-1.8-0.3
				c-1,1.2,2.2,3.5,0.6,5.2c-0.8,0.9-2.1,0.8-3.1-0.1c-1.4-1.2-1.2-2.7-1.2-2.7L412.5,81.8z"/>
			<path id="Fill-250" class="st2" d="M420.4,82.8l-0.7-0.6l0.5-0.6l0.7,0.6l1.3-1.4l0.7,0.6l-1.3,1.4l1.3,1.2l-0.5,0.6l-1.3-1.2
				l-2.4,2.6c-1.1,1.2-0.5,2.1-0.1,2.4c0.1,0.1,0.3,0.2,0.3,0.2l-0.6,0.6c0,0-0.1-0.1-0.3-0.3c-0.6-0.5-1.6-1.8,0-3.6L420.4,82.8z"
				/>
			<path id="Fill-252" class="st2" d="M426.3,83.3L427,84l-0.8,0.9l-0.7-0.6L426.3,83.3z M423.6,86.2c0.1-0.1,0.1-0.3,0-0.4
				l-0.4-0.4l0.6-0.6l0.7,0.7c0.4,0.4,0.4,0.8,0,1.2l-3.5,3.6c-0.1,0.2-0.1,0.3,0,0.4l0.4,0.4l-0.6,0.6l-0.7-0.7
				c-0.4-0.4-0.4-0.8,0-1.2L423.6,86.2z"/>
			<path id="Fill-254" class="st2" d="M429.2,89.8c0.6,0.6,1.5,2,0.7,2.8l-0.4,0.4l-0.6-0.6l0.3-0.3c0.4-0.4-0.1-1.3-0.5-1.7
				c-1.1-1.1-2.7-1.1-3.9,0.1c-1.2,1.2-1.1,2.9,0,3.9c1,1,2.3,0.9,2.3,0.9l-0.2,0.8c0,0-1.5,0.1-2.7-1.1c-1.5-1.5-1.6-3.6,0-5.2
				C425.5,88.3,427.8,88.4,429.2,89.8"/>
			<path id="Fill-256" class="st2" d="M428.9,98.9c0.9,1,2.5,0.6,3.4-0.2l0.2-0.2l-0.3-0.3c-0.8-0.8-2.3-2.4-3.4-1.3
				C428.4,97.3,428.2,98.1,428.9,98.9 M432.8,97.6l0.3,0.3l0.1-0.1c1.1-1,1.1-1.7,0.2-2.7c-0.2-0.3-1-0.9-1.4-0.6l-0.3,0.3l-0.6-0.7
				l0.5-0.5c0.7-0.7,2,0.4,2.4,0.8c1.5,1.6,1,2.8-0.1,3.8l-2.4,2.3c-0.2,0.1-0.1,0.3,0,0.4l0.4,0.4l-0.6,0.6l-0.7-0.7
				c-0.4-0.4-0.4-0.8,0-1.2c0.2-0.2,0.4-0.3,0.4-0.3l0,0c0,0-1.5,0.6-2.7-0.6c-0.8-0.9-1.1-2.2-0.1-3.2
				C429.8,94.6,432,96.7,432.8,97.6"/>
			<path id="Fill-258" class="st2" d="M485.5,208.8c0.3,1.4,0.2,3.7-1.2,4l-0.8,0.2l-0.2-0.9l0.5-0.1c0.9-0.2,1-1.9,0.8-3
				c-0.5-2.1-2.5-3.4-4.8-2.8c-2.3,0.5-3.7,2.6-3.2,4.7c0.5,2,2.1,2.8,2.1,2.8l-0.6,0.7c0,0-1.8-1-2.4-3.3c-0.6-2.8,1.1-5.3,3.9-5.9
				C482.4,204.6,484.9,206.1,485.5,208.8"/>
			<path id="Fill-260" class="st2" d="M485.5,214.6c0.2,0,0.3-0.2,0.2-0.4l-0.1-0.6l0.8-0.2l0.2,1c0.1,0.6-0.1,0.9-0.7,1l-7.7,1.5
				c-0.2,0-0.3,0.2-0.2,0.4l0.1,0.6l-0.8,0.2l-0.2-1c-0.1-0.6,0.1-0.9,0.7-1L485.5,214.6z"/>
			<path id="Fill-262" class="st2" d="M487.2,217.9l0.2,0.9l-1.2,0.2l-0.2-0.9L487.2,217.9z M483.4,218.7c0.2,0,0.3-0.2,0.2-0.4
				l-0.1-0.6l0.8-0.1l0.2,1c0.1,0.6-0.1,0.9-0.7,1l-4.9,0.9c-0.2,0-0.3,0.2-0.2,0.4l0.1,0.6l-0.8,0.1l-0.2-1c-0.1-0.6,0.1-0.9,0.7-1
				L483.4,218.7z"/>
			<path id="Fill-264" class="st2" d="M483.1,227.1c1.4-0.3,2-1.3,1.8-2.3c-0.2-1.1-1.1-2-2.5-2L483.1,227.1z M485.7,224.7
				c0.3,1.9-1,3.1-2.7,3.4c-0.2,0-0.5,0-0.5,0l-0.8-5.3c-1.7,0.3-2.6,1.7-2.3,3.1c0.2,1.3,1.2,1.9,1.2,1.9l-0.6,0.6
				c0,0-1.1-0.9-1.4-2.4c-0.3-2,0.9-3.8,3.1-4.2C483.8,221.5,485.4,222.8,485.7,224.7L485.7,224.7z"/>
			<path id="Fill-266" class="st2" d="M485.2,229.8c0.2,0,0.3-0.1,0.3-0.3l-0.1-0.6l0.8-0.1l0.1,1c0.1,0.6-0.1,0.9-0.7,0.9l-0.3,0
				c-0.3,0-0.5,0-0.5,0l0,0c0.7,0.2,1.9,0.9,2.1,2.6c0.2,1.7-0.7,2.5-2.4,2.7l-3.3,0.4c-0.2,0-0.3,0.1-0.3,0.3l0.1,0.6l-0.8,0.1
				l-0.1-1c-0.1-0.6,0.1-0.9,0.7-0.9l3.3-0.4c1.1-0.1,2-0.4,1.9-1.8c-0.1-1.2-1.1-2.1-2.3-2.3c-0.3-0.1-0.6,0-1,0l-3.3,0.4l-0.1-0.9
				L485.2,229.8z"/>
			<path id="Fill-268" class="st2" d="M486.5,238.3l-0.1-0.9l0.8-0.1l0.1,0.9l1.9-0.2l0.1,0.9l-1.9,0.2l0.2,1.7l-0.8,0.1l-0.2-1.7
				l-3.5,0.3c-1.6,0.1-1.8,1.2-1.7,1.7c0,0.2,0.1,0.3,0.1,0.3l-0.8,0.1c0,0,0-0.2-0.1-0.4c-0.1-0.8,0-2.4,2.4-2.7L486.5,238.3z"/>
			<path id="Fill-270" class="st2" d="M485.2,247.7c1.4-0.1,2.1-1.1,2-2.1c-0.1-1.2-0.9-2.1-2.3-2.3L485.2,247.7z M488,245.6
				c0.1,1.9-1.3,3-3,3.1c-0.2,0-0.5,0-0.5,0l-0.3-5.4c-1.8,0.1-2.7,1.4-2.6,2.9c0.1,1.3,1,2,1,2l-0.7,0.5c0,0-1.1-1-1.2-2.5
				c-0.1-2.1,1.3-3.7,3.4-3.9C486.4,242.2,487.9,243.7,488,245.6L488,245.6z"/>
			<path id="Fill-272" class="st2" d="M428.2,398c0.9-1.1,2.8-2.4,3.9-1.5l0.6,0.5l-0.6,0.7l-0.4-0.3c-0.7-0.6-2.1,0.3-2.8,1.2
				c-1.4,1.7-1.1,4,0.7,5.5c1.8,1.5,4.3,1.4,5.7-0.3c1.3-1.6,1-3.3,1-3.3l0.9,0c0,0,0.4,2.1-1.2,3.9c-1.8,2.2-4.9,2.3-7.1,0.5
				C426.8,403.1,426.4,400.1,428.2,398"/>
			<path id="Fill-274" class="st2" d="M440.6,397.2c0.9-1.2,0.7-2.9-0.6-3.9c-1.3-1-2.9-0.7-3.8,0.5c-0.9,1.2-0.7,2.9,0.6,3.9
				C438,398.6,439.7,398.4,440.6,397.2 M435.4,393.3c1.2-1.6,3.5-2,5.1-0.8c1.7,1.3,1.9,3.6,0.7,5.2c-1.2,1.6-3.5,2-5.2,0.7
				C434.5,397.2,434.2,394.9,435.4,393.3"/>
			<path id="Fill-276" class="st2" d="M439.6,389.8c-0.2-0.1-0.3-0.1-0.4,0.1l-0.3,0.5l-0.7-0.5l0.6-0.8c0.3-0.5,0.7-0.6,1.1-0.2
				l0.3,0.2c0.2,0.2,0.4,0.3,0.4,0.3l0,0c-0.4-0.6-0.8-1.9,0.2-3.3c1-1.4,2.2-1.4,3.6-0.4l2.7,1.9c0.2,0.1,0.3,0.1,0.4-0.1l0.3-0.5
				l0.7,0.5l-0.6,0.8c-0.3,0.5-0.7,0.6-1.2,0.2l-2.7-1.9c-0.9-0.6-1.8-1.1-2.6,0.1c-0.7,1-0.6,2.3,0.2,3.2c0.2,0.2,0.4,0.4,0.7,0.6
				l2.7,1.9l-0.5,0.8L439.6,389.8z"/>
			<path id="Fill-278" class="st2" d="M447.7,385.4c0,0,1.3-0.1,2.1-1.2c0.4-0.7,0.5-1.4-0.1-1.8c-1.3-0.8-3.2,2.6-5.1,1.4
				c-1.1-0.7-1-1.9-0.2-3.1c0.4-0.6,1.4-1.6,2.2-1.1l0.5,0.3l-0.5,0.7l-0.3-0.2c-0.4-0.3-1,0.2-1.3,0.6c-0.5,0.8-0.6,1.5,0,1.9
				c1.3,0.9,3.2-2.6,5.1-1.3c1,0.6,1.1,2,0.3,3.1c-1,1.5-2.5,1.6-2.5,1.6L447.7,385.4z"/>
			<path id="Fill-280" class="st2" d="M447.6,378c-0.2-0.1-0.3-0.1-0.4,0.1l-0.3,0.5l-0.7-0.4l0.5-0.8c0.3-0.5,0.7-0.6,1.1-0.3
				l2.9,1.8c0.9,0.6,1.9,0.9,2.6-0.2c0.8-1.4,0.1-2.9-1.2-3.7l-2.9-1.7l0.5-0.8l5,3.1c0.2,0.1,0.3,0.1,0.4-0.1l0.3-0.5l0.7,0.4
				l-0.5,0.8c-0.3,0.5-0.7,0.6-1.1,0.3l-0.3-0.2c-0.2-0.1-0.4-0.3-0.4-0.3l0,0c0.4,0.6,0.9,1.9,0.1,3.2c-0.9,1.4-2,1.5-3.5,0.6
				L447.6,378z"/>
			<path id="Fill-282" class="st2" d="M451.9,370.9c-0.2-0.1-0.3,0-0.4,0.1l-0.3,0.5l-0.7-0.4l0.5-0.9c0.3-0.5,0.6-0.6,1.1-0.4
				l0.3,0.2c0.2,0.1,0.4,0.3,0.4,0.3l0,0c-0.7-0.8-0.9-2.1-0.3-3.1c0.6-1.1,1.5-1.4,2.6-1.1l0,0c-0.7-0.8-0.9-2.1-0.3-3.1
				c0.8-1.5,2-1.6,3.5-0.7l2.9,1.6c0.2,0.1,0.3,0.1,0.4-0.1l0.3-0.5l0.7,0.4l-0.5,0.9c-0.3,0.5-0.6,0.6-1.2,0.3l-3-1.6
				c-1-0.5-1.9-0.8-2.6,0.3c-0.5,0.9-0.1,2.1,0.7,2.9c0.2,0.2,0.5,0.4,0.8,0.6l2.9,1.6l-0.5,0.8l-3.7-2c-0.9-0.5-1.9-0.9-2.5,0.3
				c-0.5,1-0.1,2.2,0.7,3c0.2,0.2,0.5,0.4,0.8,0.5l2.9,1.6l-0.5,0.8L451.9,370.9z"/>
			<path id="Fill-284" class="st2" d="M458,359.5c-0.2-0.1-0.3,0-0.4,0.1l-0.3,0.5l-0.7-0.4l0.4-0.9c0.3-0.5,0.6-0.6,1.1-0.4
				l4.5,2.3c0.2,0.1,0.3,0,0.4-0.1l0.3-0.5l0.7,0.4l-0.4,0.9c-0.3,0.5-0.6,0.6-1.1,0.4L458,359.5z M454.5,357.7l0.4-0.8l1.1,0.5
				l-0.4,0.8L454.5,357.7z"/>
			<path id="Fill-286" class="st2" d="M463.7,353.1c-1.3-0.6-2.9-0.5-3.5,0.8c-0.5,1.1,0,2.5,1.6,3.2c1.6,0.7,2.9,0.4,3.5-0.8
				C465.8,355.3,465.5,353.9,463.7,353.1 M459.4,353.6c0.7-1.5,2.2-1.5,2.2-1.5l0,0c0,0-0.2-0.1-0.5-0.2l-2.1-1
				c-0.2-0.1-0.3,0-0.4,0.1l-0.2,0.5l-0.7-0.3l0.4-0.9c0.3-0.5,0.6-0.7,1.1-0.4l7.1,3.3c0.2,0.1,0.3,0,0.4-0.1l0.2-0.5l0.7,0.3
				l-0.4,0.9c-0.2,0.5-0.6,0.6-1.1,0.4c-0.2-0.1-0.4-0.2-0.4-0.2l0,0c0,0,1,1.1,0.2,2.8c-0.8,1.7-2.7,2.1-4.6,1.2
				C459.4,357.1,458.7,355.3,459.4,353.6"/>
			<path id="Fill-288" class="st2" d="M468.9,348.4c0.6-1.4-0.1-3-1.6-3.6c-1.5-0.6-3,0-3.6,1.4c-0.6,1.4,0,3,1.5,3.6
				C466.7,350.4,468.3,349.8,468.9,348.4 M462.9,345.8c0.8-1.9,2.9-2.8,4.8-2c1.9,0.8,2.8,3,2,4.8c-0.8,1.9-2.9,2.8-4.9,2
				C462.9,349.9,462.1,347.7,462.9,345.8"/>
			<path id="Fill-290" class="st2" d="M466.2,341.4c-0.2-0.1-0.3,0-0.4,0.2l-0.2,0.5l-0.8-0.3l0.4-0.9c0.2-0.5,0.5-0.7,1-0.5
				l0.4,0.2c0.3,0.1,0.5,0.2,0.5,0.2l0,0c-0.9-0.7-1.3-1.7-0.9-2.7c0.1-0.2,0.2-0.3,0.2-0.3l0.9,0.3c0,0-0.1,0.1-0.1,0.3
				c-0.4,0.9,0.1,1.9,0.9,2.6c0.4,0.3,0.8,0.5,1.2,0.7l2.8,1.1l-0.3,0.9L466.2,341.4z"/>
		</g>
	</g>
</g>
</svg>
