<?xml version="1.0" encoding="UTF-8"?>
<svg width="104px" height="119px" viewBox="0 0 104 119" version="1.1" xmlns="http://www.w3.org/2000/svg" xmlns:xlink="http://www.w3.org/1999/xlink">
    <!-- Generator: Sketch 45.2 (43514) - http://www.bohemiancoding.com/sketch -->
    <title>camion verde</title>
    <desc>Created with Sketch.</desc>
    <defs></defs>
    <g id="Visual-Medioambiente-1280" stroke="none" stroke-width="1" fill="none" fill-rule="evenodd">
        <g id="Medioambiente-1280" transform="translate(-296.000000, -807.000000)" fill="#ADE069">
            <g id="camion-verde" transform="translate(296.000000, 807.000000)">
                <path d="M6.49138462,118.184654 L23.2991538,118.184654 L23.2991538,98.9864231 L6.49138462,98.9864231 L6.49138462,118.184654 Z M11.7234615,112.955192 L18.0696923,112.955192 L18.0696923,104.2185 L11.7234615,104.2185 L11.7234615,112.955192 Z" id="Fill-1"></path>
                <path d="M79.7103846,118.184654 L96.5168462,118.184654 L96.5168462,98.9864231 L79.7103846,98.9864231 L79.7103846,118.184654 Z M84.9411538,112.955192 L91.2873846,112.955192 L91.2873846,104.2185 L84.9411538,104.2185 L84.9411538,112.955192 Z" id="Fill-2"></path>
                <path d="M6.49269231,53.4512692 L96.5181538,53.4512692 L96.5181538,22.9938077 L6.49269231,22.9938077 L6.49269231,53.4512692 Z M11.7234615,48.2205 L91.2873846,48.2205 L91.2873846,28.2245769 L11.7234615,28.2245769 L11.7234615,48.2205 Z" id="Fill-3"></path>
                <polygon id="Fill-4" points="97.7774615 51.0320385 103.009538 51.0320385 103.009538 28.8444231 97.7774615 28.8444231"></polygon>
                <polygon id="Fill-5" points="0 51.0320385 5.23076923 51.0320385 5.23076923 28.8444231 0 28.8444231"></polygon>
                <polygon id="Fill-6" points="38.8384615 90.7348846 64.1710769 90.7348846 64.1710769 85.5041154 38.8384615 85.5041154"></polygon>
                <polygon id="Fill-7" points="38.8384615 79.2389615 64.1710769 79.2389615 64.1710769 74.0081923 38.8384615 74.0081923"></polygon>
                <path d="M25.3731538,85.5041154 L28.9954615,85.5041154 L28.9954615,79.2376538 L25.3731538,79.2376538 L25.3731538,85.5041154 Z M20.1423846,90.7348846 L34.2262308,90.7348846 L34.2262308,74.0068846 L20.1423846,74.0068846 L20.1423846,90.7348846 Z" id="Fill-8"></path>
                <path d="M74.0153846,85.5041154 L77.6376923,85.5041154 L77.6376923,79.2376538 L74.0153846,79.2376538 L74.0153846,85.5041154 Z M68.7833077,90.7348846 L82.8671538,90.7348846 L82.8671538,74.0068846 L68.7833077,74.0068846 L68.7833077,90.7348846 Z" id="Fill-9"></path>
                <path d="M96.5176308,9.53922308 L6.49216923,9.53922308 L6.49216923,65.7556077 L6.49216923,70.4959923 L6.49216923,103.813377 L96.5176308,103.813377 L96.5176308,70.4959923 L96.5176308,65.7556077 L96.5176308,9.53922308 Z M91.2868615,14.7699923 L91.2868615,65.7556077 L91.2868615,70.4959923 L91.2868615,98.5826077 L11.7229385,98.5826077 L11.7229385,70.4959923 L11.7229385,65.7556077 L11.7229385,14.7699923 L91.2868615,14.7699923 Z" id="Fill-10"></path>
                <polygon id="Fill-11" points="6.49269231 68.3707308 96.5181538 68.3707308 96.5181538 63.1399615 6.49269231 63.1399615"></polygon>
                <path d="M15.3307308,0.000392307692 L6.49203846,9.54000769 L6.49203846,10.4710846 L6.49203846,14.3797769 L96.5175,14.3797769 L96.5175,9.54000769 L87.6801154,0.000392307692 L15.3307308,0.000392307692 Z M17.6178846,5.23116154 L61.3771923,5.23116154 L66.7138846,5.23116154 L85.3929615,5.23116154 L89.0244231,9.15031538 L13.9851154,9.15031538 L17.6178846,5.23116154 Z" id="Fill-12"></path>
            </g>
        </g>
    </g>
</svg>