<?xml version="1.0" encoding="UTF-8"?>
<svg width="110px" height="102px" viewBox="0 0 110 102" version="1.1" xmlns="http://www.w3.org/2000/svg" xmlns:xlink="http://www.w3.org/1999/xlink">
    <!-- Generator: Sketch 45.2 (43514) - http://www.bohemiancoding.com/sketch -->
    <title>carro</title>
    <desc>Created with Sketch.</desc>
    <defs></defs>
    <g id="Visual-Medioambiente-1280" stroke="none" stroke-width="1" fill="none" fill-rule="evenodd">
        <g id="Medioambiente-1280" transform="translate(-585.000000, -3360.000000)" fill="#36A9DF">
            <g id="carro" transform="translate(585.000000, 3360.000000)">
                <path d="M110.030594,17.5539685 L13.9910012,17.5539685 L26.8878094,75.1794653 L97.135008,75.1794653 L110.030594,17.5539685 Z M103.922673,22.4555546 L93.220364,70.2778792 L30.8024534,70.2778792 L20.1001443,22.4555546 L103.922673,22.4555546 Z" id="Fill-1"></path>
                <polygon id="Fill-2" points="0 0.286293474 0 5.18787955 9.02250867 5.18787955 15.2979202 21.5971644 19.8629673 19.8423965 12.3845546 0.286293474"></polygon>
                <g id="Group-14" transform="translate(21.557846, 17.006829)">
                    <path d="M65.7431166,63.9589587 C60.0031873,63.9589587 55.3488932,68.6252686 55.3488932,74.3785053 C55.3488932,80.1329673 60.0031873,84.7980519 65.7431166,84.7980519 C71.4842685,84.7980519 76.1385626,80.1329673 76.1385626,74.3785053 C76.1385626,68.6252686 71.4842685,63.9589587 65.7431166,63.9589587 M65.7431166,68.8605447 C68.7787385,68.8605447 71.248314,71.3370711 71.248314,74.3785053 C71.248314,77.4199394 68.7787385,79.8964658 65.7431166,79.8964658 C62.7087174,79.8964658 60.2391418,77.4199394 60.2391418,74.3785053 C60.2391418,71.3370711 62.7087174,68.8605447 65.7431166,68.8605447" id="Fill-6"></path>
                    <path d="M15.4867653,63.9589587 C9.74561343,63.9589587 5.09131932,68.6252686 5.09131932,74.3785053 C5.09131932,80.1329673 9.74561343,84.7980519 15.4867653,84.7980519 C21.2266946,84.7980519 25.8809887,80.1329673 25.8809887,74.3785053 C25.8809887,68.6252686 21.2266946,63.9589587 15.4867653,63.9589587 M15.4867653,68.8605447 C18.5211645,68.8605447 20.9907401,71.3370711 20.9907401,74.3785053 C20.9907401,77.4199394 18.5211645,79.8964658 15.4867653,79.8964658 C12.452366,79.8964658 9.98156793,77.4199394 9.98156793,74.3785053 C9.98156793,71.3370711 12.452366,68.8605447 15.4867653,68.8605447" id="Fill-3"></path>
                    <polygon id="Fill-9" points="26.2039896 58.173249 31.0942382 58.173249 31.0942382 0.547752244 26.2039896 0.547752244"></polygon>
                    <polygon id="Fill-11" points="51.7579837 58.173249 56.6482323 58.173249 56.6482323 0.547752244 51.7579837 0.547752244"></polygon>
                    <polygon id="Fill-12" points="3.05233017 39.9442504 77.9342619 39.9442504 77.9342619 35.0426643 3.05233017 35.0426643"></polygon>
                    <polygon id="Fill-13" points="0.760026137 23.6758862 82.0909732 23.6758862 82.0909732 18.7743001 0.760026137 18.7743001"></polygon>
                </g>
            </g>
        </g>
    </g>
</svg>