<?xml version="1.0" encoding="UTF-8"?>
<svg width="112px" height="83px" viewBox="0 0 112 83" version="1.1" xmlns="http://www.w3.org/2000/svg" xmlns:xlink="http://www.w3.org/1999/xlink">
    <!-- Generator: Sketch 45.2 (43514) - http://www.bohemiancoding.com/sketch -->
    <title>co2</title>
    <desc>Created with Sketch.</desc>
    <defs>
        <polygon id="path-1" points="111.057081 0.263363082 111.057081 82.6407689 0.000435172387 82.6407689 0.000435172387 0.263363082"></polygon>
    </defs>
    <g id="Visual-Medioambiente-1280" stroke="none" stroke-width="1" fill="none" fill-rule="evenodd">
        <g id="Medioambiente-1280" transform="translate(-486.000000, -2302.000000)">
            <g id="co2" transform="translate(486.000000, 2301.000000)">
                <g id="Group-3" transform="translate(0.000000, 0.824233)">
                    <mask id="mask-2" fill="white">
                        <use xlink:href="#path-1"></use>
                    </mask>
                    <g id="Clip-2"></g>
                    <path d="M58.6018367,0.263363082 C52.3897509,0.263363082 46.3386788,2.04231437 41.1557757,5.40122668 C36.8366898,8.18382836 33.2541331,11.9494202 30.7192539,16.3794004 C29.6237075,16.1717111 28.4813799,16.0575364 27.3401404,16.0575364 C17.6347082,16.0575364 9.72871388,23.9562541 9.72871388,33.6556706 C9.72871388,34.9105055 9.86470525,36.1240199 10.0964345,37.3070878 C3.81472114,41.8740776 0.000435172387,49.2236692 0.000435172387,57.0517073 C0.000435172387,63.3726387 2.35580572,69.5163275 6.64551752,74.3747348 C11.0549017,79.3516663 16.8785962,82.2962874 23.090682,82.6409864 L42.9116963,82.6409864 L68.1266723,82.6170641 L85.2985747,82.6170641 C92.2602449,82.1114331 98.7704238,78.9188897 103.612805,73.5776863 C108.432339,68.2799781 111.057516,61.4816874 111.057516,54.4050279 C111.033582,41.6011456 102.286617,30.2119428 90.320464,27.0607198 C89.1313555,20.0068952 85.6390971,13.571789 80.2951802,8.68402249 C74.3572529,3.25474144 66.6405586,0.263363082 58.6018367,0.263363082 M58.6018367,4.61287724 C65.562419,4.61287724 72.2238203,7.1986634 77.3566786,11.8928766 C81.9934404,16.1336529 84.9917781,21.6270892 86.0296643,27.7838265 L86.4974746,30.5512049 L89.2129503,31.2667 C99.3296204,33.9307774 106.685122,43.6649901 106.705792,54.4050279 C106.705792,60.4073574 104.463567,66.176988 100.388177,70.6569875 C96.3519533,75.1087153 90.9405847,77.8075888 85.1342971,78.2675499 L68.1234085,78.2675499 L42.9116963,78.2914723 L23.2190579,78.2914723 C18.2417737,77.9837441 13.5179774,75.5719385 9.90931042,71.4975312 C6.32457788,67.4383471 4.35215904,62.3091825 4.35215904,57.0517073 C4.35215904,50.6698826 7.45602609,44.6044851 12.6563361,40.8247573 L14.8996498,39.1947769 L14.3676515,36.4741558 C14.1739998,35.483554 14.0804377,34.561457 14.0804377,33.6556706 C14.0804377,26.3506616 20.0281563,20.4070505 27.3401404,20.4070505 C28.1876386,20.4070505 29.0525437,20.4907787 29.9087454,20.6527981 L32.9571279,21.2301961 L34.4965503,18.5389342 C36.6735001,14.7341967 39.7915103,11.454663 43.5231135,9.05046905 C48.0021253,6.14716836 53.2165784,4.61287724 58.6018367,4.61287724" id="Fill-1" fill="#FFFFFF" mask="url(#mask-2)"></path>
                </g>
                <path d="M48.1039556,57.7788373 C44.5823231,58.797711 41.5839853,59.3066041 39.1089424,59.3066041 C35.4415271,59.3066041 32.6324893,58.2018276 30.6818291,55.9890122 C28.9063258,54.0110707 28.0185741,51.349168 28.0185741,48.0033042 L28.0185741,38.8377905 C28.0185741,35.4919268 28.9063258,32.8158882 30.6818291,30.8075 C32.6324893,28.6251313 35.4415271,27.535578 39.1089424,27.535578 C41.8461767,27.535578 44.8292834,27.9998886 48.0604384,28.931772 L47.2303471,32.3363542 C44.756392,31.4914611 42.0496198,31.0706456 39.1089424,31.0706456 C34.2480668,31.0706456 31.8165411,33.7608201 31.8165411,39.1433439 L31.8165411,47.6977509 C31.8165411,53.0802746 34.2339237,55.7715365 39.0654252,55.7715365 C41.5992164,55.7715365 44.2907576,55.3202744 47.1433126,54.4188376 L48.1039556,57.7788373 Z M73.2112265,48.1337897 C73.2112265,51.3926631 72.3376179,54.0404299 70.5914887,56.0770899 C68.7572371,58.2018276 66.268051,59.263109 63.1250185,59.263109 C60.0396463,59.263109 57.5646033,58.1866043 55.7020655,56.0335947 C53.9265622,53.9675755 53.0377226,51.3339447 53.0377226,48.1337897 L53.0377226,39.4499846 C53.0377226,36.1617519 53.9407053,33.4922376 55.7455827,31.4403543 C57.5504602,29.3895584 60.0102721,28.3641604 63.1250185,28.3641604 C66.2397648,28.3641604 68.7289509,29.4395778 70.5914887,31.5936747 C72.3376179,33.6303347 73.2112265,36.2487422 73.2112265,39.4499846 L73.2112265,48.1337897 Z M69.3686543,48.1337897 L69.3686543,39.4499846 C69.3686543,37.382878 68.932394,35.6952666 68.0598733,34.3860628 C67.0111079,32.7278105 65.3661563,31.8992281 63.1250185,31.8992281 C60.8838807,31.8992281 59.224786,32.7278105 58.1466464,34.3860628 C57.2741257,35.6952666 56.8367775,37.382878 56.8367775,39.4499846 L56.8367775,48.1337897 C56.8367775,50.2291681 57.2741257,51.9309155 58.1466464,53.2401193 C59.224786,54.8994589 60.8838807,55.7280414 63.1250185,55.7280414 C65.3378701,55.7280414 66.9828217,54.8994589 68.0598733,53.2401193 C68.932394,51.9309155 69.3686543,50.2291681 69.3686543,48.1337897 L69.3686543,48.1337897 Z" id="Fill-4" fill="#FFFFFF"></path>
                <path d="M88.0747569,70.2455235 C88.0747569,70.5673876 87.9213587,70.7283196 87.6156501,70.7283196 L77.9929007,70.7283196 L77.9929007,68.871077 C77.9929007,66.2591938 79.138492,64.1388056 81.4307625,62.511 L83.2628383,61.2387671 C83.975433,60.7461846 84.5444209,60.2710002 84.968714,59.8132138 C85.5289985,59.2195051 85.8085967,58.4898741 85.8085967,57.6254082 C85.8085967,56.8783791 85.5540209,56.2683598 85.0448692,55.7931753 C84.4682658,55.2505735 83.6534055,54.9787288 82.6013762,54.9787288 C81.6516125,54.9787288 80.4625039,55.2842822 79.0373144,55.8953889 L78.2996972,54.0381464 C79.9446488,53.2911173 81.3796298,52.9181465 82.6013762,52.9181465 C84.1462382,52.9181465 85.4310847,53.3639717 86.4580915,54.2534473 C87.4850983,55.1440104 87.9986018,56.2683598 87.9986018,57.6254082 C87.9986018,58.8465343 87.6069466,59.9328254 86.8269001,60.8821069 C86.3340674,61.4758156 85.4691623,62.2043592 84.2310968,63.0699125 C82.9059969,64.0028833 82.0073659,64.7238153 81.5319401,65.2327084 C80.665947,66.1656792 80.225335,67.3106888 80.209016,68.6677372 L88.0747569,68.6677372 L88.0747569,70.2455235 Z" id="Fill-6" fill="#FFFFFF"></path>
            </g>
        </g>
    </g>
</svg>