<?xml version="1.0" encoding="UTF-8"?>
<svg width="103px" height="107px" viewBox="0 0 103 107" version="1.1" xmlns="http://www.w3.org/2000/svg" xmlns:xlink="http://www.w3.org/1999/xlink">
    <!-- Generator: Sketch 45.2 (43514) - http://www.bohemiancoding.com/sketch -->
    <title>co2 flecha</title>
    <desc>Created with Sketch.</desc>
    <defs>
        <polygon id="path-1" points="0 76.5036 0 0.746 102.081 0.746 102.081 76.5036"></polygon>
        <polygon id="path-3" points="0 107.254 102.081 107.254 102.081 1 0 1"></polygon>
    </defs>
    <g id="Visual-Medioambiente-1280" stroke="none" stroke-width="1" fill="none" fill-rule="evenodd">
        <g id="Medioambiente-1280" transform="translate(-276.000000, -2693.000000)">
            <g id="co2-flecha" transform="translate(276.000000, 2692.000000)">
                <path d="M44.2162,53.1358 C40.9792,54.0728 38.2232,54.5408 35.9482,54.5408 C32.5772,54.5408 29.9952,53.5248 28.2022,51.4898 C26.5702,49.6708 25.7542,47.2228 25.7542,44.1458 L25.7542,35.7168 C25.7542,32.6398 26.5702,30.1788 28.2022,28.3318 C29.9952,26.3248 32.5772,25.3228 35.9482,25.3228 C38.4642,25.3228 41.2062,25.7498 44.1762,26.6068 L43.4132,29.7378 C41.1392,28.9608 38.6512,28.5738 35.9482,28.5738 C31.4802,28.5738 29.2452,31.0478 29.2452,35.9978 L29.2452,43.8648 C29.2452,48.8148 31.4662,51.2898 35.9082,51.2898 C38.2372,51.2898 40.7112,50.8748 43.3332,50.0458 L44.2162,53.1358 Z M67.2942,44.2658 C67.2942,47.2628 66.4912,49.6978 64.8862,51.5708 C63.2002,53.5248 60.9122,54.5008 58.0232,54.5008 C55.1872,54.5008 52.9122,53.5108 51.1992,51.5308 C49.5682,49.6308 48.7512,47.2088 48.7512,44.2658 L48.7512,36.2798 C48.7512,33.2558 49.5812,30.8008 51.2392,28.9138 C52.8992,27.0278 55.1602,26.0848 58.0232,26.0848 C60.8862,26.0848 63.1742,27.0738 64.8862,29.0548 C66.4912,30.9278 67.2942,33.3358 67.2942,36.2798 L67.2942,44.2658 Z M63.7622,44.2658 L63.7622,36.2798 C63.7622,34.3788 63.3612,32.8268 62.5582,31.6228 C61.5952,30.0988 60.0832,29.3358 58.0232,29.3358 C55.9632,29.3358 54.4382,30.0988 53.4472,31.6228 C52.6452,32.8268 52.2432,34.3788 52.2432,36.2798 L52.2432,44.2658 C52.2432,46.1928 52.6452,47.7578 53.4472,48.9618 C54.4382,50.4878 55.9632,51.2498 58.0232,51.2498 C60.0572,51.2498 61.5692,50.4878 62.5582,48.9618 C63.3612,47.7578 63.7622,46.1928 63.7622,44.2658 Z" id="Fill-1" fill="#FFFFFF"></path>
                <path d="M80.9564,64.6007 C80.9564,64.8967 80.8154,65.0447 80.5344,65.0447 L71.6894,65.0447 L71.6894,63.3367 C71.6894,60.9347 72.7424,58.9847 74.8494,57.4877 L76.5334,56.3177 C77.1884,55.8657 77.7114,55.4277 78.1014,55.0067 C78.6154,54.4607 78.8734,53.7897 78.8734,52.9947 C78.8734,52.3077 78.6394,51.7467 78.1714,51.3097 C77.6414,50.8107 76.8924,50.5607 75.9254,50.5607 C75.0514,50.5607 73.9594,50.8417 72.6484,51.4037 L71.9704,49.6957 C73.4834,49.0087 74.8024,48.6657 75.9254,48.6657 C77.3444,48.6657 78.5254,49.0757 79.4704,49.8947 C80.4134,50.7127 80.8854,51.7467 80.8854,52.9947 C80.8854,54.1177 80.5264,55.1167 79.8094,55.9897 C79.3564,56.5357 78.5604,57.2057 77.4224,58.0017 C76.2054,58.8597 75.3794,59.5227 74.9424,59.9917 C74.1464,60.8487 73.7404,61.9017 73.7264,63.1497 L80.9564,63.1497 L80.9564,64.6007 Z" id="Fill-3" fill="#FFFFFF"></path>
                <g id="Group-7" transform="translate(0.000000, 0.254000)">
                    <mask id="mask-2" fill="white">
                        <use xlink:href="#path-1"></use>
                    </mask>
                    <g id="Clip-6"></g>
                    <path d="M83.0209,25.3896 C81.9279,18.9036 78.7169,12.9856 73.8059,8.4906 C68.3479,3.4966 61.2539,0.7456 53.8659,0.7456 C48.1559,0.7456 42.5929,2.3816 37.8299,5.4706 C33.8599,8.0306 30.5669,11.4936 28.2369,15.5676 C27.2299,15.3756 26.1799,15.2716 25.1289,15.2716 C16.2089,15.2716 8.9419,22.5356 8.9419,31.4546 C8.9419,32.6096 9.0679,33.7246 9.2809,34.8136 C3.5049,39.0136 -0.0001,45.7736 -0.0001,52.9706 C-0.0001,58.7856 2.1659,64.4336 6.1089,68.9026 C10.1619,73.4796 15.5149,76.1876 21.2249,76.5036 L39.4429,76.5036 L39.4519,76.5036 L39.4519,72.5036 L39.4429,72.5036 L21.3419,72.5036 C16.7679,72.2206 12.4249,70.0026 9.1079,66.2556 C5.8139,62.5236 3.9999,57.8056 3.9999,52.9706 C3.9999,47.1026 6.8539,41.5246 11.6329,38.0486 L13.6949,36.5486 L13.2069,34.0466 C13.0289,33.1356 12.9419,32.2876 12.9419,31.4546 C12.9419,24.7376 18.4099,19.2716 25.1289,19.2716 C25.9099,19.2716 26.7039,19.3476 27.4909,19.4966 L30.2919,20.0286 L31.7079,17.5526 C33.7089,14.0536 36.5759,11.0386 40.0049,8.8276 C44.1229,6.1576 48.9159,4.7456 53.8659,4.7456 C60.2639,4.7456 66.3859,7.1236 71.1049,11.4416 C75.3659,15.3406 78.1229,20.3946 79.0769,26.0546 L79.5059,28.5996 L82.0019,29.2576 C91.2999,31.7076 98.0629,40.6606 98.0819,50.5366 C98.0819,56.0566 96.0209,61.3636 92.2749,65.4836 C88.5649,69.5776 83.5889,72.0596 78.2529,72.4826 L62.6289,72.4826 L62.6289,76.4826 L78.4049,76.4826 C84.8039,76.0176 90.7879,73.0806 95.2389,68.1686 C99.6679,63.2966 102.0819,57.0446 102.0819,50.5366 C102.0589,38.7616 94.0199,28.2876 83.0209,25.3896" id="Fill-5" fill="#FFFFFF" mask="url(#mask-2)"></path>
                </g>
                <mask id="mask-4" fill="white">
                    <use xlink:href="#path-3"></use>
                </mask>
                <g id="Clip-9"></g>
                <polygon id="Fill-8" fill="#FFFFFF" mask="url(#mask-4)" points="49.04 104.426 53.04 104.426 53.04 66.956 49.04 66.956"></polygon>
                <polygon id="Fill-10" fill="#FFFFFF" mask="url(#mask-4)" points="51.0404 107.254 33.6144 89.827 36.4424 86.999 51.0404 101.598 65.6394 86.999 68.4674 89.827"></polygon>
            </g>
        </g>
    </g>
</svg>