<?xml version="1.0" encoding="UTF-8"?>
<svg width="98px" height="98px" viewBox="0 0 98 98" version="1.1" xmlns="http://www.w3.org/2000/svg" xmlns:xlink="http://www.w3.org/1999/xlink">
    <!-- Generator: Sketch 45.2 (43514) - http://www.bohemiancoding.com/sketch -->
    <title>coche electrico</title>
    <desc>Created with Sketch.</desc>
    <defs>
        <polygon id="path-1" points="0 97.8640685 97.913787 97.8640685 97.913787 0 0 0"></polygon>
    </defs>
    <g id="Visual-Medioambiente-1280" stroke="none" stroke-width="1" fill="none" fill-rule="evenodd">
        <g id="Medioambiente-1280" transform="translate(-689.000000, -2294.000000)">
            <g id="coche-electrico" transform="translate(689.000000, 2294.000000)">
                <path d="M6.15007375,78.9523809 L22.1328676,78.9523809 L22.1328676,58.9000333 L6.15007375,58.9000333 L6.15007375,78.9523809 Z M10.5017976,74.6028668 L17.7811437,74.6028668 L17.7811437,63.2495475 L10.5017976,63.2495475 L10.5017976,74.6028668 Z" id="Fill-1" fill="#FFFFFF"></path>
                <path d="M75.7830953,78.9523809 L91.7658891,78.9523809 L91.7658891,58.9000333 L75.7830953,58.9000333 L75.7830953,78.9523809 Z M80.1348191,74.6028668 L87.4141652,74.6028668 L87.4141652,63.2495475 L80.1348191,63.2495475 L80.1348191,74.6028668 Z" id="Fill-2" fill="#FFFFFF"></path>
                <path d="M72.9105224,8.90073703 L59.0274353,8.90073703 L55.4938355,8.90073703 L25.0045702,8.90073703 L19.1504136,26.8664052 L55.4938355,26.8664052 L59.0274353,26.8664052 L78.763591,26.8664052 L72.9105224,8.90073703 Z M69.7511708,13.2502512 L72.7701793,22.5168911 L59.0274353,22.5168911 L55.4938355,22.5168911 L25.1449133,22.5168911 L28.1639217,13.2502512 L55.4938355,13.2502512 L59.0274353,13.2502512 L69.7511708,13.2502512 Z" id="Fill-3" fill="#FFFFFF"></path>
                <polygon id="Fill-4" fill="#FFFFFF" points="15.7619438 42.2283456 29.5220947 42.2283456 29.5220947 37.8788314 15.7619438 37.8788314"></polygon>
                <polygon id="Fill-5" fill="#FFFFFF" points="68.3927802 42.2283456 82.1529311 42.2283456 82.1529311 37.8788314 68.3927802 37.8788314"></polygon>
                <polygon id="Fill-6" fill="#FFFFFF" points="0 30.8554534 9.28005115 30.8554534 9.28005115 26.5048519 0 26.5048519"></polygon>
                <polygon id="Fill-7" fill="#FFFFFF" points="88.6337359 30.8554534 97.913787 30.8554534 97.913787 26.5048519 88.6337359 26.5048519"></polygon>
                <polygon id="Fill-8" fill="#FFFFFF" points="17.8017056 0 6.14887703 35.7671423 6.14887703 63.29413 36.3487527 63.29413 36.3487527 58.9446158 10.5016888 58.9446158 10.5016888 36.458715 20.9610571 4.34951416 45.438416 4.34951416 52.4751535 4.34951416 76.9536002 4.34951416 87.4140564 36.458715 87.4140564 58.9446158 61.5648167 58.9446158 61.5648167 63.29413 91.7657803 63.29413 91.7657803 35.7671423 80.1118638 0"></polygon>
                <polygon id="Fill-9" fill="#FFFFFF" points="46.7810316 71.4353331 51.1327554 71.4353331 51.1327554 58.9000333 46.7810316 58.9000333"></polygon>
                <g id="Group-15">
                    <path d="M48.9568935,68.8478071 C54.9731517,68.8478071 59.8503463,73.7214377 59.8503463,79.7357284 L59.8503463,90.6225624 L38.0634407,90.6225624 L38.0634407,79.7357284 C38.0634407,73.7214377 42.9417232,68.8478071 48.9568935,68.8478071 Z M48.9568935,73.1973213 C45.3504023,73.1973213 42.4151646,76.1299812 42.4151646,79.7357284 L42.4151646,86.2730482 L55.4986224,86.2730482 L55.4986224,79.7357284 C55.4986224,76.1299812 52.5633847,73.1973213 48.9568935,73.1973213 Z" id="Fill-10" fill="#FFFFFF"></path>
                    <mask id="mask-2" fill="white">
                        <use xlink:href="#path-1"></use>
                    </mask>
                    <g id="Clip-13"></g>
                    <polygon id="Fill-12" fill="#FFFFFF" mask="url(#mask-2)" points="52.8375433 97.8640685 57.1892671 97.8640685 57.1892671 90.6232148 52.8375433 90.6232148"></polygon>
                    <polygon id="Fill-14" fill="#FFFFFF" mask="url(#mask-2)" points="40.7245199 97.8640685 45.0762437 97.8640685 45.0762437 90.6232148 40.7245199 90.6232148"></polygon>
                </g>
            </g>
        </g>
    </g>
</svg>