<?xml version="1.0" encoding="UTF-8"?>
<svg width="127px" height="71px" viewBox="0 0 127 71" version="1.1" xmlns="http://www.w3.org/2000/svg" xmlns:xlink="http://www.w3.org/1999/xlink">
    <!-- Generator: Sketch 45.2 (43514) - http://www.bohemiancoding.com/sketch -->
    <title>equipo</title>
    <desc>Created with Sketch.</desc>
    <defs>
        <polygon id="path-1" points="53.8852208 53.6606086 53.8852208 0.781390218 0.961078216 0.781390218 0.961078216 53.6606086 53.8852208 53.6606086"></polygon>
    </defs>
    <g id="Visual-Medioambiente-1280" stroke="none" stroke-width="1" fill="none" fill-rule="evenodd">
        <g id="Medioambiente-1280" transform="translate(-284.000000, -2307.000000)">
            <g id="equipo" transform="translate(284.000000, 2307.000000)">
                <path d="M33.3794627,66.6041103 L93.3973504,66.6041103 L93.3973504,58.3867906 L67.4382296,44.8739375 L67.4382296,37.5341324 L68.8993209,37.0263266 C75.6629877,34.6786764 80.2072753,28.3012012 80.2072753,21.159299 C80.2072753,11.8904843 72.6613862,4.34951416 63.3878626,4.34951416 C54.114339,4.34951416 46.5695378,11.8904843 46.5695378,21.159299 C46.5695378,28.3012012 51.1138254,34.6786764 57.8774923,37.0263266 L59.3385835,37.5341324 L59.3385835,44.8739375 L33.3794627,58.3867906 L33.3794627,66.6041103 Z M97.7490742,70.9536244 L29.0277389,70.9536244 L29.0277389,55.7498977 L54.9868597,42.2359572 L54.9868597,40.5668311 C47.2886602,37.2383654 42.2178139,29.6267157 42.2178139,21.159299 C42.2178139,9.49281464 51.7154513,-1.42108547e-14 63.3878626,-1.42108547e-14 C75.0613619,-1.42108547e-14 84.5589992,9.49281464 84.5589992,21.159299 C84.5589992,29.6267157 79.488153,37.2383654 71.7899535,40.5668311 L71.7899535,42.2359572 L97.7490742,55.7498977 L97.7490742,70.9536244 Z" id="Fill-1" fill="#FFFFFF"></path>
                <path d="M4.35172387,55.0220065 L30.4239895,55.0220065 L43.5020076,48.2128421 L27.9870241,40.1368817 L27.9870241,34.010591 L29.4481154,33.5027852 C34.1392737,31.8760669 37.2899218,27.4536984 37.2899218,22.5006892 C37.2899218,16.0721072 32.0580618,10.8418165 25.6273019,10.8418165 C19.195454,10.8418165 13.962506,16.0721072 13.962506,22.5006892 C13.962506,27.452611 17.1131541,31.8749795 21.8043124,33.5027852 L23.2664917,34.010591 L23.2664917,40.1368817 L4.35172387,49.982007 L4.35172387,55.0220065 Z M33.3798979,59.3715206 L0,59.3715206 L0,47.3440266 L18.9147678,37.4989013 L18.9147678,37.0226295 C13.2912526,34.4292317 9.61078216,28.7748633 9.61078216,22.5006892 C9.61078216,13.6744376 16.7954783,6.4923023 25.6273019,6.4923023 C34.4580375,6.4923023 41.6416457,13.6744376 41.6416457,22.5006892 C41.6416457,28.7759507 37.9622632,34.4292317 32.338748,37.0226295 L32.338748,37.4989013 L52.9224019,48.2128421 L33.3798979,58.3874431 L33.3798979,59.3715206 Z" id="Fill-3" fill="#FFFFFF"></path>
                <g id="Group-7" transform="translate(72.891375, 5.710912)">
                    <mask id="mask-2" fill="white">
                        <use xlink:href="#path-1"></use>
                    </mask>
                    <g id="Clip-6"></g>
                    <path d="M23.4616665,49.3110944 L49.5339321,49.3110944 L49.5339321,44.2710949 L30.6191643,34.4259696 L30.6191643,28.2996789 L32.0813435,27.7918731 C36.7714139,26.1640674 39.9231499,21.7416989 39.9231499,16.7897771 C39.9231499,10.3611951 34.690202,5.13090437 28.2583541,5.13090437 C21.8265062,5.13090437 16.5946462,10.3611951 16.5946462,16.7897771 C16.5946462,21.7416989 19.7452943,26.1640674 24.4364526,27.7918731 L25.8975439,28.2996789 L25.8975439,34.4259696 L10.3836483,42.50193 L23.4616665,49.3110944 Z M53.885656,53.6606086 L20.505758,53.6606086 L20.505758,52.676531 L0.961078216,42.50193 L21.54582,31.7879893 L21.54582,31.3117175 C15.9223049,28.7183196 12.2418344,23.0639512 12.2418344,16.7897771 C12.2418344,7.96352547 19.4276184,0.781390218 28.2583541,0.781390218 C37.0890898,0.781390218 44.2748738,7.96352547 44.2748738,16.7897771 C44.2748738,23.0639512 40.5944033,28.7183196 34.9708882,31.3117175 L34.9708882,31.7879893 L53.885656,41.6331145 L53.885656,53.6606086 Z" id="Fill-5" fill="#FFFFFF" mask="url(#mask-2)"></path>
                </g>
                <polygon id="Fill-8" fill="#FFFFFF" points="63.4941535 52.9577271 55.6251488 45.0927181 58.7018175 42.0165242 63.4941535 46.8075141 68.182048 42.1219999 71.2587168 45.1971064"></polygon>
                <polygon id="Fill-10" fill="#FFFFFF" points="25.5121988 46.3113432 19.551425 40.3546836 22.6291817 37.2795771 25.5121988 40.1611302 28.5105365 37.1654023 31.5872053 40.2405088"></polygon>
                <polygon id="Fill-12" fill="#FFFFFF" points="101.467622 46.7435762 95.0749399 40.3552273 98.1516087 37.2801208 101.467622 40.5933632 104.46596 37.5976353 107.542629 40.6727418"></polygon>
            </g>
        </g>
    </g>
</svg>