<?xml version="1.0" encoding="utf-8"?>
<!-- Generator: Adobe Illustrator 21.1.0, SVG Export Plug-In . SVG Version: 6.00 Build 0)  -->
<svg version="1.1" id="Capa_1" xmlns="http://www.w3.org/2000/svg" xmlns:xlink="http://www.w3.org/1999/xlink" x="0px" y="0px"
	 viewBox="0 0 769 377" style="enable-background:new 0 0 769 377;" xml:space="preserve">
<style type="text/css">
	.st0{opacity:0.3;}
	.st1{fill:none;stroke:#B2B2B2;stroke-miterlimit:10;}
	.st2{fill:#36A9DF;}
	.st3{fill:#8CC63F;}
	.st4{fill:#4A4A4A;}
	.st5{fill:#FFFFFF;}
</style>
<g>
	<g class="st0">
		<line class="st1" x1="34.3" y1="99.8" x2="769" y2="99.8"/>
		<line class="st1" x1="34.3" y1="59.5" x2="769" y2="59.5"/>
		<line class="st1" x1="34.3" y1="19.3" x2="769" y2="19.3"/>
		<line class="st1" x1="34.3" y1="140" x2="769" y2="140"/>
		<line class="st1" x1="34.3" y1="180.2" x2="769" y2="180.2"/>
		<line class="st1" x1="34.3" y1="220.4" x2="769" y2="220.4"/>
		<line class="st1" x1="34.3" y1="260.6" x2="769" y2="260.6"/>
		<line class="st1" x1="34.3" y1="300.8" x2="769" y2="300.8"/>
		<line class="st1" x1="34.3" y1="341" x2="769" y2="341"/>
	</g>
	<rect x="52.3" y="109" class="st2" width="92.9" height="232"/>
	<rect x="572.1" y="177.7" class="st2" width="92.9" height="163.3"/>
	<rect x="468.2" y="167.7" class="st2" width="92.9" height="173.3"/>
	<rect x="364.2" y="167.7" class="st2" width="92.9" height="173.3"/>
	<rect x="260.3" y="167.7" class="st2" width="92.9" height="173.3"/>
	<rect x="156.3" y="158" class="st2" width="92.9" height="183"/>
	<rect x="676.1" y="177.7" class="st3" width="92.9" height="163.3"/>
	<g>
		<path class="st4" d="M90.7,358.8c0,0.2-0.1,0.2-0.2,0.2H86v-0.9c0-1.2,0.5-2.2,1.6-3c0.3-0.2,0.6-0.4,0.9-0.6
			c0.3-0.2,0.6-0.5,0.8-0.7c0.3-0.3,0.4-0.6,0.4-1c0-0.4-0.1-0.6-0.4-0.9c-0.3-0.3-0.7-0.4-1.2-0.4c-0.4,0-1,0.1-1.7,0.4l-0.3-0.9
			c0.8-0.4,1.5-0.5,2-0.5c0.7,0,1.3,0.2,1.8,0.6c0.5,0.4,0.7,0.9,0.7,1.6c0,0.6-0.2,1.1-0.6,1.5c-0.2,0.3-0.6,0.6-1.2,1
			c-0.6,0.4-1.1,0.8-1.3,1c-0.4,0.4-0.6,1-0.6,1.6h3.7V358.8z"/>
		<path class="st4" d="M98.1,356c0,0.9-0.2,1.6-0.7,2.2c-0.5,0.6-1.2,0.9-2,0.9c-0.8,0-1.5-0.3-2-0.9c-0.5-0.6-0.7-1.3-0.7-2.2v-2.4
			c0-0.9,0.2-1.6,0.7-2.2c0.5-0.6,1.2-0.8,2-0.8c0.9,0,1.5,0.3,2,0.9c0.5,0.6,0.7,1.3,0.7,2.2V356z M97,356v-2.4
			c0-0.6-0.1-1-0.4-1.4c-0.3-0.5-0.7-0.7-1.4-0.7c-0.6,0-1.1,0.2-1.4,0.7c-0.2,0.4-0.4,0.8-0.4,1.4v2.4c0,0.6,0.1,1,0.4,1.4
			c0.3,0.5,0.8,0.7,1.4,0.7c0.6,0,1.1-0.2,1.4-0.7C96.9,357.1,97,356.6,97,356z"/>
		<path class="st4" d="M104.8,359h-4.6v-1h1.8v-6.2l-1.7,0.7l-0.4-0.8l2.3-1h0.9v7.3l1.7,0.1V359z"/>
		<path class="st4" d="M112,356c0,0.9-0.2,1.6-0.7,2.2c-0.5,0.6-1.2,0.9-2,0.9c-0.8,0-1.5-0.3-2-0.9c-0.5-0.6-0.7-1.3-0.7-2.2v-2.4
			c0-0.9,0.2-1.6,0.7-2.2c0.5-0.6,1.2-0.8,2-0.8c0.9,0,1.5,0.3,2,0.9c0.5,0.6,0.7,1.3,0.7,2.2V356z M110.9,356v-2.4
			c0-0.6-0.1-1-0.4-1.4c-0.3-0.5-0.7-0.7-1.4-0.7c-0.6,0-1.1,0.2-1.4,0.7c-0.2,0.4-0.4,0.8-0.4,1.4v2.4c0,0.6,0.1,1,0.4,1.4
			c0.3,0.5,0.8,0.7,1.4,0.7c0.6,0,1.1-0.2,1.4-0.7C110.8,357.1,110.9,356.6,110.9,356z"/>
	</g>
	<g>
		<path class="st4" d="M27.6,341.4c0,0.9-0.2,1.6-0.7,2.2c-0.5,0.6-1.2,0.9-2,0.9c-0.8,0-1.5-0.3-2-0.9c-0.5-0.6-0.7-1.3-0.7-2.2
			V339c0-0.9,0.2-1.6,0.7-2.2c0.5-0.6,1.2-0.8,2-0.8c0.9,0,1.5,0.3,2,0.9c0.5,0.6,0.7,1.3,0.7,2.2V341.4z M26.6,341.4V339
			c0-0.6-0.1-1-0.4-1.4c-0.3-0.5-0.7-0.7-1.4-0.7c-0.6,0-1.1,0.2-1.4,0.7c-0.2,0.4-0.4,0.8-0.4,1.4v2.4c0,0.6,0.1,1,0.4,1.4
			c0.3,0.5,0.8,0.7,1.4,0.7c0.6,0,1.1-0.2,1.4-0.7C26.4,342.5,26.6,342,26.6,341.4z"/>
	</g>
	<g>
		<path class="st4" d="M17.8,301.2c0,0.9-0.2,1.6-0.7,2.2c-0.5,0.6-1.2,0.9-2,0.9c-0.8,0-1.5-0.3-2-0.9c-0.5-0.6-0.7-1.3-0.7-2.2
			v-2.4c0-0.9,0.2-1.6,0.7-2.2c0.5-0.6,1.2-0.8,2-0.8c0.9,0,1.5,0.3,2,0.9c0.5,0.6,0.7,1.3,0.7,2.2V301.2z M16.7,301.2v-2.4
			c0-0.6-0.1-1-0.4-1.4c-0.3-0.5-0.7-0.7-1.4-0.7c-0.6,0-1.1,0.2-1.4,0.7c-0.2,0.4-0.4,0.8-0.4,1.4v2.4c0,0.6,0.1,1,0.4,1.4
			c0.3,0.5,0.8,0.7,1.4,0.7c0.6,0,1.1-0.2,1.4-0.7C16.6,302.3,16.7,301.8,16.7,301.2z"/>
		<path class="st4" d="M20.7,303.6l-0.8,2.1l-0.8-0.2l0.4-2.2c0.1-0.3,0.3-0.5,0.6-0.5c0.2,0,0.3,0.1,0.5,0.2s0.2,0.3,0.2,0.5
			C20.8,303.5,20.7,303.6,20.7,303.6z"/>
		<path class="st4" d="M27.4,301.5c0,0.8-0.3,1.5-0.9,2c-0.6,0.5-1.3,0.8-2.1,0.8c-0.5,0-1.2-0.2-2.2-0.5l0.3-0.9
			c0.8,0.3,1.4,0.5,2,0.5c0.6,0,1.1-0.2,1.4-0.6c0.3-0.3,0.5-0.8,0.5-1.3c0-0.5-0.1-0.9-0.4-1.2c-0.3-0.3-0.7-0.5-1.3-0.5
			c-0.6,0-1.1,0.1-1.7,0.3l-0.4-0.7v-3.6H27l-0.1,1h-3.3v2.2c0.4-0.1,0.8-0.1,1.1-0.1c0.8,0,1.5,0.2,2,0.7S27.4,300.7,27.4,301.5z"
			/>
	</g>
	<g>
		<path class="st4" d="M27.4,264h-4.6v-1h1.8v-6.2l-1.7,0.7l-0.4-0.8l2.3-1h0.9v7.3l1.7,0.1V264z"/>
	</g>
	<g>
		<path class="st4" d="M17.6,223.8H13v-1h1.8v-6.2l-1.7,0.7l-0.4-0.8l2.3-1h0.9v7.3l1.7,0.1V223.8z"/>
		<path class="st4" d="M20.7,223.3l-0.8,2.1l-0.8-0.2l0.4-2.2c0.1-0.3,0.3-0.5,0.6-0.5c0.2,0,0.3,0.1,0.5,0.2s0.2,0.3,0.2,0.5
			C20.8,223.1,20.7,223.2,20.7,223.3z"/>
		<path class="st4" d="M27.4,221.1c0,0.8-0.3,1.5-0.9,2c-0.6,0.5-1.3,0.8-2.1,0.8c-0.5,0-1.2-0.2-2.2-0.5l0.3-0.9
			c0.8,0.3,1.4,0.5,2,0.5c0.6,0,1.1-0.2,1.4-0.6c0.3-0.3,0.5-0.8,0.5-1.3c0-0.5-0.1-0.9-0.4-1.2c-0.3-0.3-0.7-0.5-1.3-0.5
			c-0.6,0-1.1,0.1-1.7,0.3l-0.4-0.7v-3.6H27l-0.1,1h-3.3v2.2c0.4-0.1,0.8-0.1,1.1-0.1c0.8,0,1.5,0.2,2,0.7S27.4,220.3,27.4,221.1z"
			/>
	</g>
	<g>
		<path class="st4" d="M27.2,183.4c0,0.2-0.1,0.2-0.2,0.2h-4.5v-0.9c0-1.2,0.5-2.2,1.6-3c0.3-0.2,0.6-0.4,0.9-0.6
			c0.3-0.2,0.6-0.5,0.8-0.7c0.3-0.3,0.4-0.6,0.4-1c0-0.4-0.1-0.6-0.4-0.9c-0.3-0.3-0.7-0.4-1.2-0.4c-0.4,0-1,0.1-1.7,0.4l-0.3-0.9
			c0.8-0.4,1.5-0.5,2-0.5c0.7,0,1.3,0.2,1.8,0.6c0.5,0.4,0.7,0.9,0.7,1.6c0,0.6-0.2,1.1-0.6,1.5c-0.2,0.3-0.6,0.6-1.2,1
			c-0.6,0.4-1.1,0.8-1.3,1c-0.4,0.4-0.6,1-0.6,1.6h3.7V183.4z"/>
	</g>
	<g>
		<path class="st4" d="M17.4,143.2c0,0.2-0.1,0.2-0.2,0.2h-4.5v-0.9c0-1.2,0.5-2.2,1.6-3c0.3-0.2,0.6-0.4,0.9-0.6
			c0.3-0.2,0.6-0.5,0.8-0.7c0.3-0.3,0.4-0.6,0.4-1c0-0.4-0.1-0.6-0.4-0.9c-0.3-0.3-0.7-0.4-1.2-0.4c-0.4,0-1,0.1-1.7,0.4l-0.3-0.9
			c0.8-0.4,1.5-0.5,2-0.5c0.7,0,1.3,0.2,1.8,0.6c0.5,0.4,0.7,0.9,0.7,1.6c0,0.6-0.2,1.1-0.6,1.5c-0.2,0.3-0.6,0.6-1.2,1
			c-0.6,0.4-1.1,0.8-1.3,1c-0.4,0.4-0.6,1-0.6,1.6h3.7V143.2z"/>
		<path class="st4" d="M20.7,142.9l-0.8,2.1l-0.8-0.2l0.4-2.2c0.1-0.3,0.3-0.5,0.6-0.5c0.2,0,0.3,0.1,0.5,0.2s0.2,0.3,0.2,0.5
			C20.8,142.8,20.7,142.8,20.7,142.9z"/>
		<path class="st4" d="M27.4,140.7c0,0.8-0.3,1.5-0.9,2c-0.6,0.5-1.3,0.8-2.1,0.8c-0.5,0-1.2-0.2-2.2-0.5l0.3-0.9
			c0.8,0.3,1.4,0.5,2,0.5c0.6,0,1.1-0.2,1.4-0.6c0.3-0.3,0.5-0.8,0.5-1.3c0-0.5-0.1-0.9-0.4-1.2c-0.3-0.3-0.7-0.5-1.3-0.5
			c-0.6,0-1.1,0.1-1.7,0.3l-0.4-0.7v-3.6H27l-0.1,1h-3.3v2.2c0.4-0.1,0.8-0.1,1.1-0.1c0.8,0,1.5,0.2,2,0.7S27.4,140,27.4,140.7z"/>
	</g>
	<g>
		<path class="st4" d="M27,100.9c0,0.7-0.2,1.3-0.7,1.7c-0.5,0.5-1.2,0.7-2.1,0.7c-0.6,0-1.3-0.1-1.9-0.4l0.3-0.9
			c0.6,0.2,1.2,0.3,1.7,0.3c0.6,0,1-0.1,1.3-0.4s0.5-0.6,0.5-1.1c0-0.5-0.2-0.9-0.5-1.2c-0.3-0.3-0.7-0.4-1.2-0.4h-0.6v-0.9h0.5
			c0.5,0,0.9-0.1,1.2-0.4c0.3-0.2,0.4-0.6,0.4-0.9c0-0.4-0.1-0.7-0.4-0.9c-0.3-0.2-0.7-0.4-1.2-0.4c-0.4,0-0.9,0.1-1.5,0.3l-0.3-0.9
			c0.7-0.3,1.4-0.4,1.8-0.4c0.8,0,1.4,0.2,1.9,0.6c0.5,0.4,0.7,0.9,0.7,1.6c0,0.7-0.4,1.3-1.2,1.7v0C26.6,99.3,27,100,27,100.9z"/>
	</g>
	<g>
		<path class="st4" d="M17.2,60.7c0,0.7-0.2,1.3-0.7,1.7c-0.5,0.5-1.2,0.7-2.1,0.7c-0.6,0-1.3-0.1-1.9-0.4l0.3-0.9
			c0.6,0.2,1.2,0.3,1.7,0.3c0.6,0,1-0.1,1.3-0.4s0.5-0.6,0.5-1.1c0-0.5-0.2-0.9-0.5-1.2c-0.3-0.3-0.7-0.4-1.2-0.4h-0.6v-0.9h0.5
			c0.5,0,0.9-0.1,1.2-0.4c0.3-0.2,0.4-0.6,0.4-0.9c0-0.4-0.1-0.7-0.4-0.9c-0.3-0.2-0.7-0.4-1.2-0.4c-0.4,0-0.9,0.1-1.5,0.3l-0.3-0.9
			c0.7-0.3,1.4-0.4,1.8-0.4c0.8,0,1.4,0.2,1.9,0.6c0.5,0.4,0.7,0.9,0.7,1.6c0,0.7-0.4,1.3-1.2,1.7v0C16.8,59.1,17.2,59.8,17.2,60.7z
			"/>
		<path class="st4" d="M20.7,62.5l-0.8,2.1l-0.8-0.2l0.4-2.2c0.1-0.3,0.3-0.5,0.6-0.5c0.2,0,0.3,0.1,0.5,0.2s0.2,0.3,0.2,0.5
			C20.8,62.4,20.7,62.5,20.7,62.5z"/>
		<path class="st4" d="M27.4,60.4c0,0.8-0.3,1.5-0.9,2c-0.6,0.5-1.3,0.8-2.1,0.8c-0.5,0-1.2-0.2-2.2-0.5l0.3-0.9
			c0.8,0.3,1.4,0.5,2,0.5c0.6,0,1.1-0.2,1.4-0.6c0.3-0.3,0.5-0.8,0.5-1.3c0-0.5-0.1-0.9-0.4-1.2c-0.3-0.3-0.7-0.5-1.3-0.5
			c-0.6,0-1.1,0.1-1.7,0.3l-0.4-0.7v-3.6H27l-0.1,1h-3.3v2.2c0.4-0.1,0.8-0.1,1.1-0.1c0.8,0,1.5,0.2,2,0.7S27.4,59.6,27.4,60.4z"/>
	</g>
	<g>
		<path class="st4" d="M27.9,20l-0.2,1h-1.4v1.9h-1V21h-1.8c-0.3,0-0.6-0.1-0.9-0.2c-0.3-0.2-0.4-0.5-0.4-0.9c0-0.1,0-0.2,0-0.3
			l0.8-5h1l-0.8,5.2c0,0,0,0,0,0c0,0.2,0.1,0.2,0.3,0.2h1.8v-4l1,0.2V20H27.9z"/>
	</g>
	<g>
		<path class="st4" d="M194.4,358.8c0,0.2-0.1,0.2-0.2,0.2h-4.5v-0.9c0-1.2,0.5-2.2,1.6-3c0.3-0.2,0.6-0.4,0.9-0.6
			c0.3-0.2,0.6-0.5,0.8-0.7c0.3-0.3,0.4-0.6,0.4-1c0-0.4-0.1-0.6-0.4-0.9c-0.3-0.3-0.7-0.4-1.2-0.4c-0.4,0-1,0.1-1.7,0.4l-0.3-0.9
			c0.8-0.4,1.5-0.5,2-0.5c0.7,0,1.3,0.2,1.8,0.6c0.5,0.4,0.7,0.9,0.7,1.6c0,0.6-0.2,1.1-0.6,1.5c-0.2,0.3-0.6,0.6-1.2,1
			c-0.6,0.4-1.1,0.8-1.3,1c-0.4,0.4-0.6,1-0.6,1.6h3.7V358.8z"/>
		<path class="st4" d="M201.8,356c0,0.9-0.2,1.6-0.7,2.2c-0.5,0.6-1.2,0.9-2,0.9c-0.8,0-1.5-0.3-2-0.9c-0.5-0.6-0.7-1.3-0.7-2.2
			v-2.4c0-0.9,0.2-1.6,0.7-2.2c0.5-0.6,1.2-0.8,2-0.8c0.9,0,1.5,0.3,2,0.9c0.5,0.6,0.7,1.3,0.7,2.2V356z M200.7,356v-2.4
			c0-0.6-0.1-1-0.4-1.4c-0.3-0.5-0.7-0.7-1.4-0.7c-0.6,0-1.1,0.2-1.4,0.7c-0.2,0.4-0.4,0.8-0.4,1.4v2.4c0,0.6,0.1,1,0.4,1.4
			c0.3,0.5,0.8,0.7,1.4,0.7c0.6,0,1.1-0.2,1.4-0.7C200.6,357.1,200.7,356.6,200.7,356z"/>
		<path class="st4" d="M208.5,359h-4.6v-1h1.8v-6.2l-1.7,0.7l-0.4-0.8l2.3-1h0.9v7.3l1.7,0.1V359z"/>
		<path class="st4" d="M215.5,359h-4.6v-1h1.8v-6.2l-1.7,0.7l-0.4-0.8l2.3-1h0.9v7.3l1.7,0.1V359z"/>
	</g>
	<g>
		<path class="st4" d="M298.1,358.8c0,0.2-0.1,0.2-0.2,0.2h-4.5v-0.9c0-1.2,0.5-2.2,1.6-3c0.3-0.2,0.6-0.4,0.9-0.6
			c0.3-0.2,0.6-0.5,0.8-0.7c0.3-0.3,0.4-0.6,0.4-1c0-0.4-0.1-0.6-0.4-0.9c-0.3-0.3-0.7-0.4-1.2-0.4c-0.4,0-1,0.1-1.7,0.4l-0.3-0.9
			c0.8-0.4,1.5-0.5,2-0.5c0.7,0,1.3,0.2,1.8,0.6c0.5,0.4,0.7,0.9,0.7,1.6c0,0.6-0.2,1.1-0.6,1.5c-0.2,0.3-0.6,0.6-1.2,1
			c-0.6,0.4-1.1,0.8-1.3,1c-0.4,0.4-0.6,1-0.6,1.6h3.7V358.8z"/>
		<path class="st4" d="M305.5,356c0,0.9-0.2,1.6-0.7,2.2c-0.5,0.6-1.2,0.9-2,0.9c-0.8,0-1.5-0.3-2-0.9c-0.5-0.6-0.7-1.3-0.7-2.2
			v-2.4c0-0.9,0.2-1.6,0.7-2.2c0.5-0.6,1.2-0.8,2-0.8c0.9,0,1.5,0.3,2,0.9c0.5,0.6,0.7,1.3,0.7,2.2V356z M304.4,356v-2.4
			c0-0.6-0.1-1-0.4-1.4c-0.3-0.5-0.7-0.7-1.4-0.7c-0.6,0-1.1,0.2-1.4,0.7c-0.2,0.4-0.4,0.8-0.4,1.4v2.4c0,0.6,0.1,1,0.4,1.4
			c0.3,0.5,0.8,0.7,1.4,0.7c0.6,0,1.1-0.2,1.4-0.7C304.3,357.1,304.4,356.6,304.4,356z"/>
		<path class="st4" d="M312.2,359h-4.6v-1h1.8v-6.2l-1.7,0.7l-0.4-0.8l2.3-1h0.9v7.3l1.7,0.1V359z"/>
		<path class="st4" d="M319,358.8c0,0.2-0.1,0.2-0.2,0.2h-4.5v-0.9c0-1.2,0.5-2.2,1.6-3c0.3-0.2,0.6-0.4,0.9-0.6
			c0.3-0.2,0.6-0.5,0.8-0.7c0.3-0.3,0.4-0.6,0.4-1c0-0.4-0.1-0.6-0.4-0.9c-0.3-0.3-0.7-0.4-1.2-0.4c-0.4,0-1,0.1-1.7,0.4l-0.3-0.9
			c0.8-0.4,1.5-0.5,2-0.5c0.7,0,1.3,0.2,1.8,0.6c0.5,0.4,0.7,0.9,0.7,1.6c0,0.6-0.2,1.1-0.6,1.5c-0.2,0.3-0.6,0.6-1.2,1
			c-0.6,0.4-1.1,0.8-1.3,1c-0.4,0.4-0.6,1-0.6,1.6h3.7V358.8z"/>
	</g>
	<g>
		<path class="st4" d="M402,358.8c0,0.2-0.1,0.2-0.2,0.2h-4.5v-0.9c0-1.2,0.5-2.2,1.6-3c0.3-0.2,0.6-0.4,0.9-0.6
			c0.3-0.2,0.6-0.5,0.8-0.7c0.3-0.3,0.4-0.6,0.4-1c0-0.4-0.1-0.6-0.4-0.9c-0.3-0.3-0.7-0.4-1.2-0.4c-0.4,0-1,0.1-1.7,0.4l-0.3-0.9
			c0.8-0.4,1.5-0.5,2-0.5c0.7,0,1.3,0.2,1.8,0.6c0.5,0.4,0.7,0.9,0.7,1.6c0,0.6-0.2,1.1-0.6,1.5c-0.2,0.3-0.6,0.6-1.2,1
			c-0.6,0.4-1.1,0.8-1.3,1c-0.4,0.4-0.6,1-0.6,1.6h3.7V358.8z"/>
		<path class="st4" d="M409.3,356c0,0.9-0.2,1.6-0.7,2.2c-0.5,0.6-1.2,0.9-2,0.9c-0.8,0-1.5-0.3-2-0.9c-0.5-0.6-0.7-1.3-0.7-2.2
			v-2.4c0-0.9,0.2-1.6,0.7-2.2c0.5-0.6,1.2-0.8,2-0.8c0.9,0,1.5,0.3,2,0.9c0.5,0.6,0.7,1.3,0.7,2.2V356z M408.3,356v-2.4
			c0-0.6-0.1-1-0.4-1.4c-0.3-0.5-0.7-0.7-1.4-0.7c-0.6,0-1.1,0.2-1.4,0.7c-0.2,0.4-0.4,0.8-0.4,1.4v2.4c0,0.6,0.1,1,0.4,1.4
			c0.3,0.5,0.8,0.7,1.4,0.7c0.6,0,1.1-0.2,1.4-0.7C408.2,357.1,408.3,356.6,408.3,356z"/>
		<path class="st4" d="M416.1,359h-4.6v-1h1.8v-6.2l-1.7,0.7l-0.4-0.8l2.3-1h0.9v7.3l1.7,0.1V359z"/>
		<path class="st4" d="M422.3,356.6c0,0.7-0.2,1.3-0.7,1.7c-0.5,0.5-1.2,0.7-2.1,0.7c-0.6,0-1.3-0.1-1.9-0.4l0.3-0.9
			c0.6,0.2,1.2,0.3,1.7,0.3c0.6,0,1-0.1,1.3-0.4c0.3-0.3,0.5-0.6,0.5-1.1c0-0.5-0.2-0.9-0.5-1.2c-0.3-0.3-0.7-0.4-1.2-0.4h-0.6v-0.9
			h0.5c0.5,0,0.9-0.1,1.2-0.4c0.3-0.2,0.4-0.6,0.4-0.9c0-0.4-0.1-0.7-0.4-0.9c-0.3-0.2-0.7-0.4-1.2-0.4c-0.4,0-0.9,0.1-1.5,0.3
			l-0.3-0.9c0.7-0.3,1.4-0.4,1.8-0.4c0.8,0,1.4,0.2,1.9,0.6c0.5,0.4,0.7,0.9,0.7,1.6c0,0.7-0.4,1.3-1.2,1.7v0
			C421.9,355.1,422.3,355.7,422.3,356.6z"/>
	</g>
	<g>
		<path class="st4" d="M505.7,358.8c0,0.2-0.1,0.2-0.2,0.2h-4.5v-0.9c0-1.2,0.5-2.2,1.6-3c0.3-0.2,0.6-0.4,0.9-0.6
			c0.3-0.2,0.6-0.5,0.8-0.7c0.3-0.3,0.4-0.6,0.4-1c0-0.4-0.1-0.6-0.4-0.9c-0.3-0.3-0.7-0.4-1.2-0.4c-0.4,0-1,0.1-1.7,0.4l-0.3-0.9
			c0.8-0.4,1.5-0.5,2-0.5c0.7,0,1.3,0.2,1.8,0.6c0.5,0.4,0.7,0.9,0.7,1.6c0,0.6-0.2,1.1-0.6,1.5c-0.2,0.3-0.6,0.6-1.2,1
			c-0.6,0.4-1.1,0.8-1.3,1c-0.4,0.4-0.6,1-0.6,1.6h3.7V358.8z"/>
		<path class="st4" d="M513.1,356c0,0.9-0.2,1.6-0.7,2.2c-0.5,0.6-1.2,0.9-2,0.9c-0.8,0-1.5-0.3-2-0.9c-0.5-0.6-0.7-1.3-0.7-2.2
			v-2.4c0-0.9,0.2-1.6,0.7-2.2c0.5-0.6,1.2-0.8,2-0.8s1.5,0.3,2,0.9c0.5,0.6,0.7,1.3,0.7,2.2V356z M512,356v-2.4
			c0-0.6-0.1-1-0.4-1.4c-0.3-0.5-0.7-0.7-1.4-0.7s-1.1,0.2-1.4,0.7c-0.2,0.4-0.4,0.8-0.4,1.4v2.4c0,0.6,0.1,1,0.4,1.4
			c0.3,0.5,0.8,0.7,1.4,0.7c0.6,0,1.1-0.2,1.4-0.7C511.9,357.1,512,356.6,512,356z"/>
		<path class="st4" d="M519.8,359h-4.6v-1h1.8v-6.2l-1.7,0.7l-0.4-0.8l2.3-1h0.9v7.3l1.7,0.1V359z"/>
		<path class="st4" d="M526.9,356.1l-0.2,1h-1.4v1.9h-1v-1.9h-1.8c-0.3,0-0.6-0.1-0.9-0.2c-0.3-0.2-0.4-0.5-0.4-0.9
			c0-0.1,0-0.2,0-0.3l0.8-5h1l-0.8,5.2c0,0,0,0,0,0c0,0.2,0.1,0.2,0.3,0.2h1.8v-4l1,0.2v3.8H526.9z"/>
	</g>
	<g>
		<path class="st4" d="M609.2,358.8c0,0.2-0.1,0.2-0.2,0.2h-4.5v-0.9c0-1.2,0.5-2.2,1.6-3c0.3-0.2,0.6-0.4,0.9-0.6
			c0.3-0.2,0.6-0.5,0.8-0.7c0.3-0.3,0.4-0.6,0.4-1c0-0.4-0.1-0.6-0.4-0.9c-0.3-0.3-0.7-0.4-1.2-0.4c-0.4,0-1,0.1-1.7,0.4l-0.3-0.9
			c0.8-0.4,1.5-0.5,2-0.5c0.7,0,1.3,0.2,1.8,0.6c0.5,0.4,0.7,0.9,0.7,1.6c0,0.6-0.2,1.1-0.6,1.5c-0.2,0.3-0.6,0.6-1.2,1
			c-0.6,0.4-1.1,0.8-1.3,1c-0.4,0.4-0.6,1-0.6,1.6h3.7V358.8z"/>
		<path class="st4" d="M616.6,356c0,0.9-0.2,1.6-0.7,2.2c-0.5,0.6-1.2,0.9-2,0.9c-0.8,0-1.5-0.3-2-0.9c-0.5-0.6-0.7-1.3-0.7-2.2
			v-2.4c0-0.9,0.2-1.6,0.7-2.2c0.5-0.6,1.2-0.8,2-0.8c0.9,0,1.5,0.3,2,0.9c0.5,0.6,0.7,1.3,0.7,2.2V356z M615.5,356v-2.4
			c0-0.6-0.1-1-0.4-1.4c-0.3-0.5-0.7-0.7-1.4-0.7c-0.6,0-1.1,0.2-1.4,0.7c-0.2,0.4-0.4,0.8-0.4,1.4v2.4c0,0.6,0.1,1,0.4,1.4
			c0.3,0.5,0.8,0.7,1.4,0.7c0.6,0,1.1-0.2,1.4-0.7C615.4,357.1,615.5,356.6,615.5,356z"/>
		<path class="st4" d="M623.3,359h-4.6v-1h1.8v-6.2l-1.7,0.7l-0.4-0.8l2.3-1h0.9v7.3l1.7,0.1V359z"/>
		<path class="st4" d="M630.3,356.3c0,0.8-0.3,1.5-0.9,2c-0.6,0.5-1.3,0.8-2.1,0.8c-0.5,0-1.2-0.2-2.2-0.5l0.3-0.9
			c0.8,0.3,1.4,0.5,2,0.5c0.6,0,1.1-0.2,1.4-0.6c0.3-0.3,0.5-0.8,0.5-1.3c0-0.5-0.1-0.9-0.4-1.2c-0.3-0.3-0.7-0.5-1.3-0.5
			c-0.6,0-1.1,0.1-1.7,0.3l-0.4-0.7v-3.6h4.3l-0.1,1h-3.3v2.2c0.4-0.1,0.8-0.1,1.1-0.1c0.8,0,1.5,0.2,2,0.7S630.3,355.5,630.3,356.3
			z"/>
	</g>
	<g>
		<path class="st4" d="M713,358.8c0,0.2-0.1,0.2-0.2,0.2h-4.5v-0.9c0-1.2,0.5-2.2,1.6-3c0.3-0.2,0.6-0.4,0.9-0.6
			c0.3-0.2,0.6-0.5,0.8-0.7c0.3-0.3,0.4-0.6,0.4-1c0-0.4-0.1-0.6-0.4-0.9c-0.3-0.3-0.7-0.4-1.2-0.4c-0.4,0-1,0.1-1.7,0.4l-0.3-0.9
			c0.8-0.4,1.5-0.5,2-0.5c0.7,0,1.3,0.2,1.8,0.6c0.5,0.4,0.7,0.9,0.7,1.6c0,0.6-0.2,1.1-0.6,1.5c-0.2,0.3-0.6,0.6-1.2,1
			c-0.6,0.4-1.1,0.8-1.3,1c-0.4,0.4-0.6,1-0.6,1.6h3.7V358.8z"/>
		<path class="st4" d="M720.4,356c0,0.9-0.2,1.6-0.7,2.2c-0.5,0.6-1.2,0.9-2,0.9c-0.8,0-1.5-0.3-2-0.9c-0.5-0.6-0.7-1.3-0.7-2.2
			v-2.4c0-0.9,0.2-1.6,0.7-2.2c0.5-0.6,1.2-0.8,2-0.8c0.9,0,1.5,0.3,2,0.9c0.5,0.6,0.7,1.3,0.7,2.2V356z M719.4,356v-2.4
			c0-0.6-0.1-1-0.4-1.4c-0.3-0.5-0.7-0.7-1.4-0.7c-0.6,0-1.1,0.2-1.4,0.7c-0.2,0.4-0.4,0.8-0.4,1.4v2.4c0,0.6,0.1,1,0.4,1.4
			c0.3,0.5,0.8,0.7,1.4,0.7c0.6,0,1.1-0.2,1.4-0.7C719.2,357.1,719.4,356.6,719.4,356z"/>
		<path class="st4" d="M727.1,359h-4.6v-1h1.8v-6.2l-1.7,0.7l-0.4-0.8l2.3-1h0.9v7.3l1.7,0.1V359z"/>
		<path class="st4" d="M734,356.3c0,0.9-0.3,1.5-0.8,2c-0.5,0.5-1.1,0.7-1.9,0.7c-0.8,0-1.4-0.2-1.9-0.7c-0.5-0.5-0.8-1.2-0.8-2v-3
			c0-0.8,0.2-1.4,0.7-1.9c0.5-0.5,1.2-0.8,2.1-0.8c0.5,0,1.1,0.1,1.9,0.4l-0.2,0.9c-0.7-0.2-1.2-0.3-1.6-0.3c-0.6,0-1.1,0.2-1.4,0.6
			c-0.2,0.3-0.4,0.7-0.4,1.2v0.7c0.6-0.3,1.1-0.5,1.6-0.5c0.8,0,1.4,0.2,1.8,0.7C733.7,354.8,734,355.5,734,356.3z M732.9,356.3
			c0-0.5-0.1-1-0.4-1.3c-0.3-0.3-0.7-0.5-1.2-0.5c-0.6,0-1.1,0.2-1.6,0.5v1.4c0,0.5,0.1,0.9,0.4,1.2c0.3,0.3,0.7,0.5,1.2,0.5
			c0.5,0,0.9-0.2,1.2-0.5C732.8,357.3,732.9,356.9,732.9,356.3z"/>
	</g>
	<g>
		<path class="st5" d="M95.7,134.5c0,0.6-0.1,1-0.3,1.4c-0.2,0.3-0.5,0.5-1.1,0.5h-4.9c-0.5-0.5-0.8-0.9-0.8-1.3
			c0-0.8,0.6-1.8,1.9-2.9l1.6-1.5c0.7-0.6,1-1.2,1-1.8c0-0.4-0.1-0.7-0.4-1c-0.2-0.3-0.6-0.4-0.9-0.4c-0.4,0-0.7,0.1-1,0.4
			c-0.3,0.3-0.5,0.6-0.6,1.1c-0.3,0-0.6-0.1-0.9-0.2c-0.3-0.1-0.5-0.3-0.6-0.5c0.1-0.4,0.3-0.7,0.5-1c0.2-0.3,0.5-0.6,0.8-0.8
			c0.3-0.2,0.6-0.4,1-0.5c0.4-0.1,0.8-0.2,1.2-0.2c0.4,0,0.9,0.1,1.2,0.2c0.4,0.1,0.7,0.4,1,0.6c0.3,0.3,0.5,0.6,0.7,1
			c0.2,0.4,0.2,0.8,0.2,1.3c0,0.3,0,0.6-0.1,0.9s-0.2,0.5-0.4,0.8s-0.4,0.5-0.6,0.8s-0.5,0.5-0.8,0.8l-1.2,1
			c-0.8,0.7-1.3,1.2-1.4,1.6c0.8-0.1,1.6-0.1,2.3-0.1H95.7z"/>
		<path class="st5" d="M99.9,134.5c0.1,0.3,0.2,0.7,0.2,1.2c0,0.4-0.1,0.7-0.2,1.1c-0.1,0.4-0.3,0.7-0.5,1c-0.2,0.3-0.5,0.6-0.8,0.8
			c-0.3,0.2-0.7,0.4-1.1,0.5c-0.2-0.1-0.3-0.2-0.4-0.4c-0.1-0.2-0.1-0.4-0.1-0.6c0.4-0.1,0.7-0.4,1-0.6c0.3-0.3,0.4-0.6,0.5-1
			c-0.4-0.1-0.6-0.2-0.7-0.3c-0.1-0.2-0.1-0.4-0.1-0.8c0-0.3,0-0.5,0.1-0.6s0.1-0.2,0.2-0.3c0.1-0.1,0.2-0.1,0.4-0.2
			c0.2,0,0.4-0.1,0.6-0.1C99.3,134.2,99.7,134.3,99.9,134.5z"/>
		<path class="st5" d="M101.6,133.7c0-0.6,0.2-1.1,0.5-1.6c0.3-0.5,0.8-0.9,1.3-1.2c-1-0.6-1.5-1.4-1.5-2.5c0-0.4,0.1-0.8,0.3-1.1
			c0.2-0.3,0.4-0.6,0.7-0.9c0.3-0.2,0.7-0.4,1.1-0.6s0.9-0.2,1.4-0.2s0.9,0.1,1.4,0.2c0.4,0.1,0.8,0.3,1.1,0.6
			c0.3,0.2,0.5,0.5,0.7,0.9s0.2,0.7,0.2,1.1c0,1-0.5,1.7-1.5,2.3c1.2,0.7,1.8,1.6,1.8,2.8c0,0.5-0.1,0.9-0.3,1.2
			c-0.2,0.4-0.5,0.7-0.8,0.9c-0.3,0.3-0.7,0.5-1.2,0.6c-0.5,0.1-1,0.2-1.5,0.2c-0.5,0-1-0.1-1.5-0.2s-0.8-0.3-1.1-0.6
			c-0.3-0.2-0.5-0.5-0.7-0.9C101.7,134.6,101.6,134.2,101.6,133.7z M104.8,131.6L104.8,131.6c-0.7,0.5-1.1,1.2-1.1,1.9
			c0,0.5,0.1,0.8,0.4,1.1c0.3,0.3,0.7,0.4,1.1,0.4s0.8-0.1,1.1-0.4c0.3-0.3,0.4-0.6,0.4-1.1c0-0.8-0.5-1.4-1.6-1.8L104.8,131.6z
			 M103.9,128.5c0,0.7,0.5,1.2,1.6,1.5l0.2,0.1c0.6-0.4,0.9-0.9,0.9-1.6c0-0.4-0.1-0.7-0.4-1c-0.3-0.2-0.6-0.4-1-0.4
			c-0.4,0-0.7,0.1-1,0.4C104,127.8,103.9,128.1,103.9,128.5z"/>
	</g>
	<g>
		<path class="st5" d="M199.4,183c0,0.6-0.1,1-0.3,1.4c-0.2,0.3-0.5,0.5-1.1,0.5h-4.9c-0.5-0.5-0.8-0.9-0.8-1.3
			c0-0.8,0.6-1.8,1.9-2.9l1.6-1.5c0.7-0.6,1-1.2,1-1.8c0-0.4-0.1-0.7-0.4-1c-0.2-0.3-0.6-0.4-0.9-0.4c-0.4,0-0.7,0.1-1,0.4
			c-0.3,0.3-0.5,0.6-0.6,1.1c-0.3,0-0.6-0.1-0.9-0.2c-0.3-0.1-0.5-0.3-0.6-0.5c0.1-0.4,0.3-0.7,0.5-1c0.2-0.3,0.5-0.6,0.8-0.8
			c0.3-0.2,0.6-0.4,1-0.5c0.4-0.1,0.8-0.2,1.2-0.2c0.4,0,0.9,0.1,1.2,0.2c0.4,0.1,0.7,0.4,1,0.6c0.3,0.3,0.5,0.6,0.7,1
			c0.2,0.4,0.2,0.8,0.2,1.3c0,0.3,0,0.6-0.1,0.9s-0.2,0.5-0.4,0.8s-0.4,0.5-0.6,0.8s-0.5,0.5-0.8,0.8l-1.2,1
			c-0.8,0.7-1.3,1.2-1.4,1.6c0.8-0.1,1.6-0.1,2.3-0.1H199.4z"/>
		<path class="st5" d="M203.6,183c0.1,0.3,0.2,0.7,0.2,1.2c0,0.4-0.1,0.7-0.2,1.1c-0.1,0.4-0.3,0.7-0.5,1c-0.2,0.3-0.5,0.6-0.8,0.8
			c-0.3,0.2-0.7,0.4-1.1,0.5c-0.2-0.1-0.3-0.2-0.4-0.4c-0.1-0.2-0.1-0.4-0.1-0.6c0.4-0.1,0.7-0.4,1-0.6c0.3-0.3,0.4-0.6,0.5-1
			c-0.4-0.1-0.6-0.2-0.7-0.3c-0.1-0.2-0.1-0.4-0.1-0.8c0-0.3,0-0.5,0.1-0.6s0.1-0.2,0.2-0.3c0.1-0.1,0.2-0.1,0.4-0.2
			c0.2,0,0.4-0.1,0.6-0.1C203,182.7,203.4,182.8,203.6,183z"/>
		<path class="st5" d="M211.7,176.6l-1.4,1.5c-0.2,0.2-0.3,0.3-0.5,0.5c0.4,0,0.8,0.1,1.1,0.3c0.3,0.1,0.6,0.4,0.9,0.6
			c0.2,0.3,0.4,0.6,0.6,1c0.1,0.4,0.2,0.8,0.2,1.3c0,0.5-0.1,0.9-0.3,1.4c-0.2,0.4-0.5,0.8-0.8,1.1c-0.3,0.3-0.7,0.5-1.2,0.7
			c-0.5,0.2-0.9,0.2-1.5,0.2c-1.4,0-2.5-0.4-3.3-1.1c0.1-0.5,0.4-1,0.9-1.4c0.7,0.5,1.3,0.8,2,0.8c0.7,0,1.2-0.2,1.5-0.5
			c0.3-0.3,0.5-0.8,0.5-1.4c0-0.3,0-0.5-0.1-0.7c-0.1-0.2-0.2-0.4-0.4-0.5c-0.2-0.1-0.3-0.2-0.5-0.3c-0.2-0.1-0.4-0.1-0.6-0.1
			c-0.4,0-0.7,0.1-0.9,0.2c-0.2-0.1-0.3-0.2-0.5-0.4c-0.1-0.2-0.2-0.4-0.3-0.7l1.7-1.9c0.5-0.5,0.8-0.8,1.1-1l-0.1-0.1
			c-0.4,0.1-1,0.2-1.7,0.2h-2.1c-0.1-0.3-0.1-0.5-0.1-0.8c0-0.2,0-0.3,0-0.5c0-0.2,0.1-0.3,0.1-0.5h5.7c0.3,0.5,0.4,0.9,0.4,1.3
			c0,0.2,0,0.3-0.1,0.5C211.9,176.3,211.8,176.5,211.7,176.6z"/>
	</g>
	<g>
		<path class="st5" d="M303.2,194c0,0.6-0.1,1-0.3,1.4c-0.2,0.3-0.5,0.5-1.1,0.5h-4.9c-0.5-0.5-0.8-0.9-0.8-1.3
			c0-0.8,0.6-1.8,1.9-2.9l1.6-1.5c0.7-0.6,1-1.2,1-1.8c0-0.4-0.1-0.7-0.4-1c-0.2-0.3-0.6-0.4-0.9-0.4c-0.4,0-0.7,0.1-1,0.4
			c-0.3,0.3-0.5,0.6-0.6,1.1c-0.3,0-0.6-0.1-0.9-0.2c-0.3-0.1-0.5-0.3-0.6-0.5c0.1-0.4,0.3-0.7,0.5-1c0.2-0.3,0.5-0.6,0.8-0.8
			c0.3-0.2,0.6-0.4,1-0.5c0.4-0.1,0.8-0.2,1.2-0.2c0.4,0,0.9,0.1,1.2,0.2c0.4,0.1,0.7,0.4,1,0.6c0.3,0.3,0.5,0.6,0.7,1
			c0.2,0.4,0.2,0.8,0.2,1.3c0,0.3,0,0.6-0.1,0.9s-0.2,0.5-0.4,0.8s-0.4,0.5-0.6,0.8s-0.5,0.5-0.8,0.8l-1.2,1
			c-0.8,0.7-1.3,1.2-1.4,1.6c0.8-0.1,1.6-0.1,2.3-0.1H303.2z"/>
		<path class="st5" d="M307.3,194c0.1,0.3,0.2,0.7,0.2,1.2c0,0.4-0.1,0.7-0.2,1.1c-0.1,0.4-0.3,0.7-0.5,1c-0.2,0.3-0.5,0.6-0.8,0.8
			c-0.3,0.2-0.7,0.4-1.1,0.5c-0.2-0.1-0.3-0.2-0.4-0.4c-0.1-0.2-0.1-0.4-0.1-0.6c0.4-0.1,0.7-0.4,1-0.6c0.3-0.3,0.4-0.6,0.5-1
			c-0.4-0.1-0.6-0.2-0.7-0.3c-0.1-0.2-0.1-0.4-0.1-0.8c0-0.3,0-0.5,0.1-0.6s0.1-0.2,0.2-0.3c0.1-0.1,0.2-0.1,0.4-0.2
			c0.2,0,0.4-0.1,0.6-0.1C306.7,193.7,307.1,193.8,307.3,194z"/>
		<path class="st5" d="M316.2,194c0,0.6-0.1,1-0.3,1.4c-0.2,0.3-0.5,0.5-1.1,0.5h-4.9c-0.5-0.5-0.8-0.9-0.8-1.3
			c0-0.8,0.6-1.8,1.9-2.9l1.6-1.5c0.7-0.6,1-1.2,1-1.8c0-0.4-0.1-0.7-0.4-1c-0.2-0.3-0.6-0.4-0.9-0.4c-0.4,0-0.7,0.1-1,0.4
			c-0.3,0.3-0.5,0.6-0.6,1.1c-0.3,0-0.6-0.1-0.9-0.2c-0.3-0.1-0.5-0.3-0.6-0.5c0.1-0.4,0.3-0.7,0.5-1c0.2-0.3,0.5-0.6,0.8-0.8
			c0.3-0.2,0.6-0.4,1-0.5c0.4-0.1,0.8-0.2,1.2-0.2c0.4,0,0.9,0.1,1.2,0.2c0.4,0.1,0.7,0.4,1,0.6c0.3,0.3,0.5,0.6,0.7,1
			c0.2,0.4,0.2,0.8,0.2,1.3c0,0.3,0,0.6-0.1,0.9s-0.2,0.5-0.4,0.8s-0.4,0.5-0.6,0.8s-0.5,0.5-0.8,0.8l-1.2,1
			c-0.8,0.7-1.3,1.2-1.4,1.6c0.8-0.1,1.6-0.1,2.3-0.1H316.2z"/>
	</g>
	<g>
		<path class="st5" d="M407.6,194c0,0.6-0.1,1-0.3,1.4c-0.2,0.3-0.5,0.5-1.1,0.5h-4.9c-0.5-0.5-0.8-0.9-0.8-1.3
			c0-0.8,0.6-1.8,1.9-2.9l1.6-1.5c0.7-0.6,1-1.2,1-1.8c0-0.4-0.1-0.7-0.4-1c-0.2-0.3-0.6-0.4-0.9-0.4s-0.7,0.1-1,0.4
			c-0.3,0.3-0.5,0.6-0.6,1.1c-0.3,0-0.6-0.1-0.9-0.2s-0.5-0.3-0.6-0.5c0.1-0.4,0.3-0.7,0.5-1c0.2-0.3,0.5-0.6,0.8-0.8
			c0.3-0.2,0.6-0.4,1-0.5s0.8-0.2,1.2-0.2s0.9,0.1,1.2,0.2c0.4,0.1,0.7,0.4,1,0.6c0.3,0.3,0.5,0.6,0.7,1s0.2,0.8,0.2,1.3
			c0,0.3,0,0.6-0.1,0.9s-0.2,0.5-0.4,0.8c-0.2,0.3-0.4,0.5-0.6,0.8c-0.2,0.3-0.5,0.5-0.8,0.8l-1.2,1c-0.8,0.7-1.3,1.2-1.4,1.6
			c0.8-0.1,1.6-0.1,2.3-0.1H407.6z"/>
		<path class="st5" d="M411.8,194c0.1,0.3,0.2,0.7,0.2,1.2c0,0.4-0.1,0.7-0.2,1.1c-0.1,0.4-0.3,0.7-0.5,1c-0.2,0.3-0.5,0.6-0.8,0.8
			c-0.3,0.2-0.7,0.4-1.1,0.5c-0.2-0.1-0.3-0.2-0.4-0.4s-0.1-0.4-0.1-0.6c0.4-0.1,0.7-0.4,1-0.6c0.3-0.3,0.4-0.6,0.5-1
			c-0.4-0.1-0.6-0.2-0.7-0.3c-0.1-0.2-0.1-0.4-0.1-0.8c0-0.3,0-0.5,0.1-0.6c0-0.1,0.1-0.2,0.2-0.3c0.1-0.1,0.2-0.1,0.4-0.2
			c0.2,0,0.4-0.1,0.6-0.1C411.2,193.7,411.5,193.8,411.8,194z"/>
		<path class="st5" d="M420.6,194c0,0.6-0.1,1-0.3,1.4c-0.2,0.3-0.5,0.5-1.1,0.5h-4.9c-0.5-0.5-0.8-0.9-0.8-1.3
			c0-0.8,0.6-1.8,1.9-2.9l1.6-1.5c0.7-0.6,1-1.2,1-1.8c0-0.4-0.1-0.7-0.4-1c-0.2-0.3-0.6-0.4-0.9-0.4s-0.7,0.1-1,0.4
			c-0.3,0.3-0.5,0.6-0.6,1.1c-0.3,0-0.6-0.1-0.9-0.2s-0.5-0.3-0.6-0.5c0.1-0.4,0.3-0.7,0.5-1c0.2-0.3,0.5-0.6,0.8-0.8
			c0.3-0.2,0.6-0.4,1-0.5s0.8-0.2,1.2-0.2s0.9,0.1,1.2,0.2c0.4,0.1,0.7,0.4,1,0.6c0.3,0.3,0.5,0.6,0.7,1s0.2,0.8,0.2,1.3
			c0,0.3,0,0.6-0.1,0.9s-0.2,0.5-0.4,0.8c-0.2,0.3-0.4,0.5-0.6,0.8c-0.2,0.3-0.5,0.5-0.8,0.8l-1.2,1c-0.8,0.7-1.3,1.2-1.4,1.6
			c0.8-0.1,1.6-0.1,2.3-0.1H420.6z"/>
	</g>
	<g>
		<path class="st5" d="M510.6,194c0,0.6-0.1,1-0.3,1.4c-0.2,0.3-0.5,0.5-1.1,0.5h-4.9c-0.5-0.5-0.8-0.9-0.8-1.3
			c0-0.8,0.6-1.8,1.9-2.9l1.6-1.5c0.7-0.6,1-1.2,1-1.8c0-0.4-0.1-0.7-0.4-1c-0.2-0.3-0.6-0.4-0.9-0.4s-0.7,0.1-1,0.4
			c-0.3,0.3-0.5,0.6-0.6,1.1c-0.3,0-0.6-0.1-0.9-0.2s-0.5-0.3-0.6-0.5c0.1-0.4,0.3-0.7,0.5-1c0.2-0.3,0.5-0.6,0.8-0.8
			c0.3-0.2,0.6-0.4,1-0.5s0.8-0.2,1.2-0.2s0.9,0.1,1.2,0.2c0.4,0.1,0.7,0.4,1,0.6c0.3,0.3,0.5,0.6,0.7,1s0.2,0.8,0.2,1.3
			c0,0.3,0,0.6-0.1,0.9s-0.2,0.5-0.4,0.8c-0.2,0.3-0.4,0.5-0.6,0.8c-0.2,0.3-0.5,0.5-0.8,0.8l-1.2,1c-0.8,0.7-1.3,1.2-1.4,1.6
			c0.8-0.1,1.6-0.1,2.3-0.1H510.6z"/>
		<path class="st5" d="M514.7,194c0.1,0.3,0.2,0.7,0.2,1.2c0,0.4-0.1,0.7-0.2,1.1c-0.1,0.4-0.3,0.7-0.5,1c-0.2,0.3-0.5,0.6-0.8,0.8
			c-0.3,0.2-0.7,0.4-1.1,0.5c-0.2-0.1-0.3-0.2-0.4-0.4s-0.1-0.4-0.1-0.6c0.4-0.1,0.7-0.4,1-0.6c0.3-0.3,0.4-0.6,0.5-1
			c-0.4-0.1-0.6-0.2-0.7-0.3c-0.1-0.2-0.1-0.4-0.1-0.8c0-0.3,0-0.5,0.1-0.6c0-0.1,0.1-0.2,0.2-0.3c0.1-0.1,0.2-0.1,0.4-0.2
			c0.2,0,0.4-0.1,0.6-0.1C514.1,193.7,514.5,193.8,514.7,194z"/>
		<path class="st5" d="M523.6,194c0,0.6-0.1,1-0.3,1.4c-0.2,0.3-0.5,0.5-1.1,0.5h-4.9c-0.5-0.5-0.8-0.9-0.8-1.3
			c0-0.8,0.6-1.8,1.9-2.9l1.6-1.5c0.7-0.6,1-1.2,1-1.8c0-0.4-0.1-0.7-0.4-1c-0.2-0.3-0.6-0.4-0.9-0.4s-0.7,0.1-1,0.4
			c-0.3,0.3-0.5,0.6-0.6,1.1c-0.3,0-0.6-0.1-0.9-0.2s-0.5-0.3-0.6-0.5c0.1-0.4,0.3-0.7,0.5-1c0.2-0.3,0.5-0.6,0.8-0.8
			c0.3-0.2,0.6-0.4,1-0.5s0.8-0.2,1.2-0.2s0.9,0.1,1.2,0.2c0.4,0.1,0.7,0.4,1,0.6c0.3,0.3,0.5,0.6,0.7,1s0.2,0.8,0.2,1.3
			c0,0.3,0,0.6-0.1,0.9s-0.2,0.5-0.4,0.8c-0.2,0.3-0.4,0.5-0.6,0.8c-0.2,0.3-0.5,0.5-0.8,0.8l-1.2,1c-0.8,0.7-1.3,1.2-1.4,1.6
			c0.8-0.1,1.6-0.1,2.3-0.1H523.6z"/>
	</g>
	<g>
		<path class="st5" d="M615.6,204.5c0,0.6-0.1,1-0.3,1.4c-0.2,0.3-0.5,0.5-1.1,0.5h-4.9c-0.5-0.5-0.8-0.9-0.8-1.3
			c0-0.8,0.6-1.8,1.9-2.9l1.6-1.5c0.7-0.6,1-1.2,1-1.8c0-0.4-0.1-0.7-0.4-1s-0.6-0.4-0.9-0.4c-0.4,0-0.7,0.1-1,0.4s-0.5,0.6-0.6,1.1
			c-0.3,0-0.6-0.1-0.9-0.2c-0.3-0.1-0.5-0.3-0.6-0.5c0.1-0.4,0.3-0.7,0.5-1c0.2-0.3,0.5-0.6,0.8-0.8s0.6-0.4,1-0.5
			c0.4-0.1,0.8-0.2,1.2-0.2c0.4,0,0.9,0.1,1.2,0.2s0.7,0.4,1,0.6c0.3,0.3,0.5,0.6,0.7,1c0.2,0.4,0.2,0.8,0.2,1.3
			c0,0.3,0,0.6-0.1,0.9s-0.2,0.5-0.4,0.8c-0.2,0.3-0.4,0.5-0.6,0.8c-0.2,0.3-0.5,0.5-0.8,0.8l-1.2,1c-0.8,0.7-1.3,1.2-1.4,1.6
			c0.8-0.1,1.6-0.1,2.3-0.1H615.6z"/>
		<path class="st5" d="M619.7,204.5c0.1,0.3,0.2,0.7,0.2,1.2c0,0.4-0.1,0.7-0.2,1.1c-0.1,0.4-0.3,0.7-0.5,1
			c-0.2,0.3-0.5,0.6-0.8,0.8c-0.3,0.2-0.7,0.4-1.1,0.5c-0.2-0.1-0.3-0.2-0.4-0.4c-0.1-0.2-0.1-0.4-0.1-0.6c0.4-0.1,0.7-0.4,1-0.6
			c0.3-0.3,0.4-0.6,0.5-1c-0.4-0.1-0.6-0.2-0.7-0.3c-0.1-0.2-0.1-0.4-0.1-0.8c0-0.3,0-0.5,0.1-0.6c0-0.1,0.1-0.2,0.2-0.3
			s0.2-0.1,0.4-0.2s0.4-0.1,0.6-0.1C619.1,204.2,619.5,204.3,619.7,204.5z"/>
		<path class="st5" d="M624.6,204.6l0-1.1v-2.8c0-0.3,0-0.9,0.1-1.9c-0.6,0.7-1.3,1.2-2.2,1.6c-0.5-0.2-0.8-0.7-0.9-1.2
			c1.5-0.9,2.5-2,3.1-3.2c0.3-0.1,0.6-0.1,1-0.1c0.4,0,0.7,0,1,0.1v7.5l0,1.1l1,0h1c0.1,0.3,0.1,0.5,0.1,0.8s0,0.6-0.1,0.9h-6.4
			c-0.1-0.3-0.1-0.6-0.1-0.9s0-0.6,0.1-0.8h1.4L624.6,204.6z"/>
	</g>
	<g>
		<path class="st5" d="M719.5,204.5c0,0.6-0.1,1-0.3,1.4c-0.2,0.3-0.5,0.5-1.1,0.5h-4.9c-0.5-0.5-0.8-0.9-0.8-1.3
			c0-0.8,0.6-1.8,1.9-2.9l1.6-1.5c0.7-0.6,1-1.2,1-1.8c0-0.4-0.1-0.7-0.4-1c-0.2-0.3-0.6-0.4-0.9-0.4s-0.7,0.1-1,0.4
			c-0.3,0.3-0.5,0.6-0.6,1.1c-0.3,0-0.6-0.1-0.9-0.2s-0.5-0.3-0.6-0.5c0.1-0.4,0.3-0.7,0.5-1c0.2-0.3,0.5-0.6,0.8-0.8
			c0.3-0.2,0.6-0.4,1-0.5s0.8-0.2,1.2-0.2s0.9,0.1,1.2,0.2c0.4,0.1,0.7,0.4,1,0.6c0.3,0.3,0.5,0.6,0.7,1s0.2,0.8,0.2,1.3
			c0,0.3,0,0.6-0.1,0.9s-0.2,0.5-0.4,0.8c-0.2,0.3-0.4,0.5-0.6,0.8c-0.2,0.3-0.5,0.5-0.8,0.8l-1.2,1c-0.8,0.7-1.3,1.2-1.4,1.6
			c0.8-0.1,1.6-0.1,2.3-0.1H719.5z"/>
		<path class="st5" d="M723.7,204.5c0.1,0.3,0.2,0.7,0.2,1.2c0,0.4-0.1,0.7-0.2,1.1c-0.1,0.4-0.3,0.7-0.5,1
			c-0.2,0.3-0.5,0.6-0.8,0.8c-0.3,0.2-0.7,0.4-1.1,0.5c-0.2-0.1-0.3-0.2-0.4-0.4s-0.1-0.4-0.1-0.6c0.4-0.1,0.7-0.4,1-0.6
			c0.3-0.3,0.4-0.6,0.5-1c-0.4-0.1-0.6-0.2-0.7-0.3c-0.1-0.2-0.1-0.4-0.1-0.8c0-0.3,0-0.5,0.1-0.6c0-0.1,0.1-0.2,0.2-0.3
			c0.1-0.1,0.2-0.1,0.4-0.2c0.2,0,0.4-0.1,0.6-0.1C723.1,204.2,723.4,204.3,723.7,204.5z"/>
		<path class="st5" d="M728.5,204.6l0-1.1v-2.8c0-0.3,0-0.9,0.1-1.9c-0.6,0.7-1.3,1.2-2.2,1.6c-0.5-0.2-0.8-0.7-0.9-1.2
			c1.5-0.9,2.5-2,3.1-3.2c0.3-0.1,0.6-0.1,1-0.1c0.4,0,0.7,0,1,0.1v7.5l0,1.1l1,0h1c0.1,0.3,0.1,0.5,0.1,0.8s0,0.6-0.1,0.9h-6.4
			c-0.1-0.3-0.1-0.6-0.1-0.9s0-0.6,0.1-0.8h1.4L728.5,204.6z"/>
	</g>
</g>
</svg>
