<?xml version="1.0" encoding="utf-8"?>
<!-- Generator: Adobe Illustrator 21.1.0, SVG Export Plug-In . SVG Version: 6.00 Build 0)  -->
<svg version="1.1" id="Capa_1" xmlns="http://www.w3.org/2000/svg" xmlns:xlink="http://www.w3.org/1999/xlink" x="0px" y="0px"
	 viewBox="0 0 769 377" style="enable-background:new 0 0 769 377;" xml:space="preserve">
<style type="text/css">
	.st0{opacity:0.3;}
	.st1{fill:none;stroke:#B2B2B2;stroke-miterlimit:10;}
	.st2{fill:#36A9DF;}
	.st3{fill:#8CC63F;}
	.st4{fill:#4A4A4A;}
	.st5{fill:#FFFFFF;}
</style>
<g>
	<g class="st0">
		<line class="st1" x1="34.3" y1="99.8" x2="769" y2="99.8"/>
		<line class="st1" x1="34.3" y1="59.5" x2="769" y2="59.5"/>
		<line class="st1" x1="34.3" y1="19.3" x2="769" y2="19.3"/>
		<line class="st1" x1="34.3" y1="140" x2="769" y2="140"/>
		<line class="st1" x1="34.3" y1="180.2" x2="769" y2="180.2"/>
		<line class="st1" x1="34.3" y1="220.4" x2="769" y2="220.4"/>
		<line class="st1" x1="34.3" y1="260.6" x2="769" y2="260.6"/>
		<line class="st1" x1="34.3" y1="300.8" x2="769" y2="300.8"/>
		<line class="st1" x1="34.3" y1="341" x2="769" y2="341"/>
	</g>
	<rect x="52.3" y="171.2" class="st2" width="92.9" height="169.8"/>
	<rect x="572.1" y="255.8" class="st2" width="92.9" height="85.2"/>
	<rect x="468.2" y="242" class="st2" width="92.9" height="99"/>
	<rect x="364.2" y="231.2" class="st2" width="92.9" height="109.8"/>
	<rect x="260.3" y="226.2" class="st2" width="92.9" height="114.8"/>
	<rect x="156.3" y="210.4" class="st2" width="92.9" height="130.6"/>
	<rect x="676.1" y="271.7" class="st3" width="92.9" height="69.3"/>
	<g>
		<path class="st4" d="M90.7,358.8c0,0.2-0.1,0.2-0.2,0.2H86v-0.9c0-1.2,0.5-2.2,1.6-3c0.3-0.2,0.6-0.4,0.9-0.6
			c0.3-0.2,0.6-0.5,0.8-0.7c0.3-0.3,0.4-0.6,0.4-1c0-0.4-0.1-0.6-0.4-0.9c-0.3-0.3-0.7-0.4-1.2-0.4c-0.4,0-1,0.1-1.7,0.4l-0.3-0.9
			c0.8-0.4,1.5-0.5,2-0.5c0.7,0,1.3,0.2,1.8,0.6c0.5,0.4,0.7,0.9,0.7,1.6c0,0.6-0.2,1.1-0.6,1.5c-0.2,0.3-0.6,0.6-1.2,1
			c-0.6,0.4-1.1,0.8-1.3,1c-0.4,0.4-0.6,1-0.6,1.6h3.7V358.8z"/>
		<path class="st4" d="M98.1,356c0,0.9-0.2,1.6-0.7,2.2c-0.5,0.6-1.2,0.9-2,0.9c-0.8,0-1.5-0.3-2-0.9c-0.5-0.6-0.7-1.3-0.7-2.2v-2.4
			c0-0.9,0.2-1.6,0.7-2.2c0.5-0.6,1.2-0.8,2-0.8c0.9,0,1.5,0.3,2,0.9c0.5,0.6,0.7,1.3,0.7,2.2V356z M97,356v-2.4
			c0-0.6-0.1-1-0.4-1.4c-0.3-0.5-0.7-0.7-1.4-0.7c-0.6,0-1.1,0.2-1.4,0.7c-0.2,0.4-0.4,0.8-0.4,1.4v2.4c0,0.6,0.1,1,0.4,1.4
			c0.3,0.5,0.8,0.7,1.4,0.7c0.6,0,1.1-0.2,1.4-0.7C96.9,357.1,97,356.6,97,356z"/>
		<path class="st4" d="M104.8,359h-4.6v-1h1.8v-6.2l-1.7,0.7l-0.4-0.8l2.3-1h0.9v7.3l1.7,0.1V359z"/>
		<path class="st4" d="M112,356c0,0.9-0.2,1.6-0.7,2.2c-0.5,0.6-1.2,0.9-2,0.9c-0.8,0-1.5-0.3-2-0.9c-0.5-0.6-0.7-1.3-0.7-2.2v-2.4
			c0-0.9,0.2-1.6,0.7-2.2c0.5-0.6,1.2-0.8,2-0.8c0.9,0,1.5,0.3,2,0.9c0.5,0.6,0.7,1.3,0.7,2.2V356z M110.9,356v-2.4
			c0-0.6-0.1-1-0.4-1.4c-0.3-0.5-0.7-0.7-1.4-0.7c-0.6,0-1.1,0.2-1.4,0.7c-0.2,0.4-0.4,0.8-0.4,1.4v2.4c0,0.6,0.1,1,0.4,1.4
			c0.3,0.5,0.8,0.7,1.4,0.7c0.6,0,1.1-0.2,1.4-0.7C110.8,357.1,110.9,356.6,110.9,356z"/>
	</g>
	<g>
		<path class="st4" d="M27.6,341.4c0,0.9-0.2,1.6-0.7,2.2c-0.5,0.6-1.2,0.9-2,0.9c-0.8,0-1.5-0.3-2-0.9c-0.5-0.6-0.7-1.3-0.7-2.2
			V339c0-0.9,0.2-1.6,0.7-2.2c0.5-0.6,1.2-0.8,2-0.8c0.9,0,1.5,0.3,2,0.9c0.5,0.6,0.7,1.3,0.7,2.2V341.4z M26.6,341.4V339
			c0-0.6-0.1-1-0.4-1.4c-0.3-0.5-0.7-0.7-1.4-0.7c-0.6,0-1.1,0.2-1.4,0.7c-0.2,0.4-0.4,0.8-0.4,1.4v2.4c0,0.6,0.1,1,0.4,1.4
			c0.3,0.5,0.8,0.7,1.4,0.7c0.6,0,1.1-0.2,1.4-0.7C26.4,342.5,26.6,342,26.6,341.4z"/>
	</g>
	<g>
		<path class="st4" d="M10.8,301.2c0,0.9-0.2,1.6-0.7,2.2c-0.5,0.6-1.2,0.9-2,0.9c-0.8,0-1.5-0.3-2-0.9c-0.5-0.6-0.7-1.3-0.7-2.2
			v-2.4c0-0.9,0.2-1.6,0.7-2.2c0.5-0.6,1.2-0.8,2-0.8c0.9,0,1.5,0.3,2,0.9c0.5,0.6,0.7,1.3,0.7,2.2V301.2z M9.8,301.2v-2.4
			c0-0.6-0.1-1-0.4-1.4c-0.3-0.5-0.7-0.7-1.4-0.7c-0.6,0-1.1,0.2-1.4,0.7c-0.2,0.4-0.4,0.8-0.4,1.4v2.4c0,0.6,0.1,1,0.4,1.4
			c0.3,0.5,0.8,0.7,1.4,0.7c0.6,0,1.1-0.2,1.4-0.7C9.7,302.3,9.8,301.8,9.8,301.2z"/>
		<path class="st4" d="M13.8,303.6l-0.8,2.1l-0.8-0.2l0.4-2.2c0.1-0.3,0.3-0.5,0.6-0.5c0.2,0,0.3,0.1,0.5,0.2s0.2,0.3,0.2,0.5
			C13.8,303.5,13.8,303.6,13.8,303.6z"/>
		<path class="st4" d="M20.3,304c0,0.2-0.1,0.2-0.2,0.2h-4.5v-0.9c0-1.2,0.5-2.2,1.6-3c0.3-0.2,0.6-0.4,0.9-0.6
			c0.3-0.2,0.6-0.5,0.8-0.7c0.3-0.3,0.4-0.6,0.4-1c0-0.4-0.1-0.6-0.4-0.9c-0.3-0.3-0.7-0.4-1.2-0.4c-0.4,0-1,0.1-1.7,0.4l-0.3-0.9
			c0.8-0.4,1.5-0.5,2-0.5c0.7,0,1.3,0.2,1.8,0.6c0.5,0.4,0.7,0.9,0.7,1.6c0,0.6-0.2,1.1-0.6,1.5c-0.2,0.3-0.6,0.6-1.2,1
			c-0.6,0.4-1.1,0.8-1.3,1c-0.4,0.4-0.6,1-0.6,1.6h3.7V304z"/>
		<path class="st4" d="M27.4,301.5c0,0.8-0.3,1.5-0.9,2c-0.6,0.5-1.3,0.8-2.1,0.8c-0.5,0-1.2-0.2-2.2-0.5l0.3-0.9
			c0.8,0.3,1.4,0.5,2,0.5c0.6,0,1.1-0.2,1.4-0.6c0.3-0.3,0.5-0.8,0.5-1.3c0-0.5-0.1-0.9-0.4-1.2c-0.3-0.3-0.7-0.5-1.3-0.5
			c-0.6,0-1.1,0.1-1.7,0.3l-0.4-0.7v-3.6H27l-0.1,1h-3.3v2.2c0.4-0.1,0.8-0.1,1.1-0.1c0.8,0,1.5,0.2,2,0.7S27.4,300.7,27.4,301.5z"
			/>
	</g>
	<g>
		<path class="st4" d="M10.8,261c0,0.9-0.2,1.6-0.7,2.2c-0.5,0.6-1.2,0.9-2,0.9c-0.8,0-1.5-0.3-2-0.9c-0.5-0.6-0.7-1.3-0.7-2.2v-2.4
			c0-0.9,0.2-1.6,0.7-2.2c0.5-0.6,1.2-0.8,2-0.8c0.9,0,1.5,0.3,2,0.9c0.5,0.6,0.7,1.3,0.7,2.2V261z M9.8,261v-2.4
			c0-0.6-0.1-1-0.4-1.4c-0.3-0.5-0.7-0.7-1.4-0.7c-0.6,0-1.1,0.2-1.4,0.7c-0.2,0.4-0.4,0.8-0.4,1.4v2.4c0,0.6,0.1,1,0.4,1.4
			c0.3,0.5,0.8,0.7,1.4,0.7c0.6,0,1.1-0.2,1.4-0.7C9.7,262.1,9.8,261.6,9.8,261z"/>
		<path class="st4" d="M13.8,263.4l-0.8,2.1l-0.8-0.2l0.4-2.2c0.1-0.3,0.3-0.5,0.6-0.5c0.2,0,0.3,0.1,0.5,0.2s0.2,0.3,0.2,0.5
			C13.8,263.3,13.8,263.4,13.8,263.4z"/>
		<path class="st4" d="M20.6,256.5l-2.7,7.5h-1.1l2.6-7.3h-4v-1h4.9L20.6,256.5z"/>
		<path class="st4" d="M27.4,261.3c0,0.8-0.3,1.5-0.9,2c-0.6,0.5-1.3,0.8-2.1,0.8c-0.5,0-1.2-0.2-2.2-0.5l0.3-0.9
			c0.8,0.3,1.4,0.5,2,0.5c0.6,0,1.1-0.2,1.4-0.6c0.3-0.3,0.5-0.8,0.5-1.3c0-0.5-0.1-0.9-0.4-1.2c-0.3-0.3-0.7-0.5-1.3-0.5
			c-0.6,0-1.1,0.1-1.7,0.3l-0.4-0.7v-3.6H27l-0.1,1h-3.3v2.2c0.4-0.1,0.8-0.1,1.1-0.1c0.8,0,1.5,0.2,2,0.7S27.4,260.5,27.4,261.3z"
			/>
	</g>
	<g>
		<path class="st4" d="M27.4,223.8h-4.6v-1h1.8v-6.2l-1.7,0.7l-0.4-0.8l2.3-1h0.9v7.3l1.7,0.1V223.8z"/>
	</g>
	<g>
		<path class="st4" d="M10.6,183.6H6v-1h1.8v-6.2l-1.7,0.7l-0.4-0.8l2.3-1h0.9v7.3l1.7,0.1V183.6z"/>
		<path class="st4" d="M13.8,183.1l-0.8,2.1l-0.8-0.2l0.4-2.2c0.1-0.3,0.3-0.5,0.6-0.5c0.2,0,0.3,0.1,0.5,0.2s0.2,0.3,0.2,0.5
			C13.8,183,13.8,183,13.8,183.1z"/>
		<path class="st4" d="M20.3,183.4c0,0.2-0.1,0.2-0.2,0.2h-4.5v-0.9c0-1.2,0.5-2.2,1.6-3c0.3-0.2,0.6-0.4,0.9-0.6
			c0.3-0.2,0.6-0.5,0.8-0.7c0.3-0.3,0.4-0.6,0.4-1c0-0.4-0.1-0.6-0.4-0.9c-0.3-0.3-0.7-0.4-1.2-0.4c-0.4,0-1,0.1-1.7,0.4l-0.3-0.9
			c0.8-0.4,1.5-0.5,2-0.5c0.7,0,1.3,0.2,1.8,0.6c0.5,0.4,0.7,0.9,0.7,1.6c0,0.6-0.2,1.1-0.6,1.5c-0.2,0.3-0.6,0.6-1.2,1
			c-0.6,0.4-1.1,0.8-1.3,1c-0.4,0.4-0.6,1-0.6,1.6h3.7V183.4z"/>
		<path class="st4" d="M27.4,180.9c0,0.8-0.3,1.5-0.9,2c-0.6,0.5-1.3,0.8-2.1,0.8c-0.5,0-1.2-0.2-2.2-0.5l0.3-0.9
			c0.8,0.3,1.4,0.5,2,0.5c0.6,0,1.1-0.2,1.4-0.6c0.3-0.3,0.5-0.8,0.5-1.3c0-0.5-0.1-0.9-0.4-1.2c-0.3-0.3-0.7-0.5-1.3-0.5
			c-0.6,0-1.1,0.1-1.7,0.3l-0.4-0.7v-3.6H27l-0.1,1h-3.3v2.2c0.4-0.1,0.8-0.1,1.1-0.1c0.8,0,1.5,0.2,2,0.7S27.4,180.1,27.4,180.9z"
			/>
	</g>
	<g>
		<path class="st4" d="M17.6,143.4H13v-1h1.8v-6.2l-1.7,0.7l-0.4-0.8l2.3-1h0.9v7.3l1.7,0.1V143.4z"/>
		<path class="st4" d="M20.7,142.9l-0.8,2.1l-0.8-0.2l0.4-2.2c0.1-0.3,0.3-0.5,0.6-0.5c0.2,0,0.3,0.1,0.5,0.2s0.2,0.3,0.2,0.5
			C20.8,142.8,20.7,142.8,20.7,142.9z"/>
		<path class="st4" d="M27.4,140.7c0,0.8-0.3,1.5-0.9,2c-0.6,0.5-1.3,0.8-2.1,0.8c-0.5,0-1.2-0.2-2.2-0.5l0.3-0.9
			c0.8,0.3,1.4,0.5,2,0.5c0.6,0,1.1-0.2,1.4-0.6c0.3-0.3,0.5-0.8,0.5-1.3c0-0.5-0.1-0.9-0.4-1.2c-0.3-0.3-0.7-0.5-1.3-0.5
			c-0.6,0-1.1,0.1-1.7,0.3l-0.4-0.7v-3.6H27l-0.1,1h-3.3v2.2c0.4-0.1,0.8-0.1,1.1-0.1c0.8,0,1.5,0.2,2,0.7S27.4,140,27.4,140.7z"/>
	</g>
	<g>
		<path class="st4" d="M10.6,103.2H6v-1h1.8V96l-1.7,0.7l-0.4-0.8l2.3-1h0.9v7.3l1.7,0.1V103.2z"/>
		<path class="st4" d="M13.8,102.7l-0.8,2.1l-0.8-0.2l0.4-2.2c0.1-0.3,0.3-0.5,0.6-0.5c0.2,0,0.3,0.1,0.5,0.2s0.2,0.3,0.2,0.5
			C13.8,102.6,13.8,102.6,13.8,102.7z"/>
		<path class="st4" d="M20.6,95.7l-2.7,7.5h-1.1l2.6-7.3h-4v-1h4.9L20.6,95.7z"/>
		<path class="st4" d="M27.4,100.5c0,0.8-0.3,1.5-0.9,2c-0.6,0.5-1.3,0.8-2.1,0.8c-0.5,0-1.2-0.2-2.2-0.5l0.3-0.9
			c0.8,0.3,1.4,0.5,2,0.5c0.6,0,1.1-0.2,1.4-0.6c0.3-0.3,0.5-0.8,0.5-1.3c0-0.5-0.1-0.9-0.4-1.2c-0.3-0.3-0.7-0.5-1.3-0.5
			c-0.6,0-1.1,0.1-1.7,0.3l-0.4-0.7v-3.6H27l-0.1,1h-3.3v2.2c0.4-0.1,0.8-0.1,1.1-0.1c0.8,0,1.5,0.2,2,0.7S27.4,99.8,27.4,100.5z"/>
	</g>
	<g>
		<path class="st4" d="M27.2,62.8c0,0.2-0.1,0.2-0.2,0.2h-4.5v-0.9c0-1.2,0.5-2.2,1.6-3c0.3-0.2,0.6-0.4,0.9-0.6
			c0.3-0.2,0.6-0.5,0.8-0.7c0.3-0.3,0.4-0.6,0.4-1c0-0.4-0.1-0.6-0.4-0.9c-0.3-0.3-0.7-0.4-1.2-0.4c-0.4,0-1,0.1-1.7,0.4l-0.3-0.9
			c0.8-0.4,1.5-0.5,2-0.5c0.7,0,1.3,0.2,1.8,0.6c0.5,0.4,0.7,0.9,0.7,1.6c0,0.6-0.2,1.1-0.6,1.5c-0.2,0.3-0.6,0.6-1.2,1
			c-0.6,0.4-1.1,0.8-1.3,1c-0.4,0.4-0.6,1-0.6,1.6h3.7V62.8z"/>
	</g>
	<g>
		<path class="st4" d="M10.4,22.6c0,0.2-0.1,0.2-0.2,0.2H5.7V22c0-1.2,0.5-2.2,1.6-3c0.3-0.2,0.6-0.4,0.9-0.6
			c0.3-0.2,0.6-0.5,0.8-0.7c0.3-0.3,0.4-0.6,0.4-1c0-0.4-0.1-0.6-0.4-0.9c-0.3-0.3-0.7-0.4-1.2-0.4c-0.4,0-1,0.1-1.7,0.4L5.8,15
			c0.8-0.4,1.5-0.5,2-0.5c0.7,0,1.3,0.2,1.8,0.6c0.5,0.4,0.7,0.9,0.7,1.6c0,0.6-0.2,1.1-0.6,1.5c-0.2,0.3-0.6,0.6-1.2,1
			c-0.6,0.4-1.1,0.8-1.3,1c-0.4,0.4-0.6,1-0.6,1.6h3.7V22.6z"/>
		<path class="st4" d="M13.8,22.3L13,24.4l-0.8-0.2l0.4-2.2c0.1-0.3,0.3-0.5,0.6-0.5c0.2,0,0.3,0.1,0.5,0.2s0.2,0.3,0.2,0.5
			C13.8,22.2,13.8,22.3,13.8,22.3z"/>
		<path class="st4" d="M20.3,22.6c0,0.2-0.1,0.2-0.2,0.2h-4.5V22c0-1.2,0.5-2.2,1.6-3c0.3-0.2,0.6-0.4,0.9-0.6
			c0.3-0.2,0.6-0.5,0.8-0.7c0.3-0.3,0.4-0.6,0.4-1c0-0.4-0.1-0.6-0.4-0.9c-0.3-0.3-0.7-0.4-1.2-0.4c-0.4,0-1,0.1-1.7,0.4L15.6,15
			c0.8-0.4,1.5-0.5,2-0.5c0.7,0,1.3,0.2,1.8,0.6c0.5,0.4,0.7,0.9,0.7,1.6c0,0.6-0.2,1.1-0.6,1.5c-0.2,0.3-0.6,0.6-1.2,1
			c-0.6,0.4-1.1,0.8-1.3,1c-0.4,0.4-0.6,1-0.6,1.6h3.7V22.6z"/>
		<path class="st4" d="M27.4,20.2c0,0.8-0.3,1.5-0.9,2C26,22.7,25.3,23,24.5,23c-0.5,0-1.2-0.2-2.2-0.5l0.3-0.9
			c0.8,0.3,1.4,0.5,2,0.5c0.6,0,1.1-0.2,1.4-0.6c0.3-0.3,0.5-0.8,0.5-1.3c0-0.5-0.1-0.9-0.4-1.2c-0.3-0.3-0.7-0.5-1.3-0.5
			c-0.6,0-1.1,0.1-1.7,0.3l-0.4-0.7v-3.6H27l-0.1,1h-3.3v2.2c0.4-0.1,0.8-0.1,1.1-0.1c0.8,0,1.5,0.2,2,0.7S27.4,19.4,27.4,20.2z"/>
	</g>
	<g>
		<path class="st4" d="M194.4,358.8c0,0.2-0.1,0.2-0.2,0.2h-4.5v-0.9c0-1.2,0.5-2.2,1.6-3c0.3-0.2,0.6-0.4,0.9-0.6
			c0.3-0.2,0.6-0.5,0.8-0.7c0.3-0.3,0.4-0.6,0.4-1c0-0.4-0.1-0.6-0.4-0.9c-0.3-0.3-0.7-0.4-1.2-0.4c-0.4,0-1,0.1-1.7,0.4l-0.3-0.9
			c0.8-0.4,1.5-0.5,2-0.5c0.7,0,1.3,0.2,1.8,0.6c0.5,0.4,0.7,0.9,0.7,1.6c0,0.6-0.2,1.1-0.6,1.5c-0.2,0.3-0.6,0.6-1.2,1
			c-0.6,0.4-1.1,0.8-1.3,1c-0.4,0.4-0.6,1-0.6,1.6h3.7V358.8z"/>
		<path class="st4" d="M201.8,356c0,0.9-0.2,1.6-0.7,2.2c-0.5,0.6-1.2,0.9-2,0.9c-0.8,0-1.5-0.3-2-0.9c-0.5-0.6-0.7-1.3-0.7-2.2
			v-2.4c0-0.9,0.2-1.6,0.7-2.2c0.5-0.6,1.2-0.8,2-0.8c0.9,0,1.5,0.3,2,0.9c0.5,0.6,0.7,1.3,0.7,2.2V356z M200.7,356v-2.4
			c0-0.6-0.1-1-0.4-1.4c-0.3-0.5-0.7-0.7-1.4-0.7c-0.6,0-1.1,0.2-1.4,0.7c-0.2,0.4-0.4,0.8-0.4,1.4v2.4c0,0.6,0.1,1,0.4,1.4
			c0.3,0.5,0.8,0.7,1.4,0.7c0.6,0,1.1-0.2,1.4-0.7C200.6,357.1,200.7,356.6,200.7,356z"/>
		<path class="st4" d="M208.5,359h-4.6v-1h1.8v-6.2l-1.7,0.7l-0.4-0.8l2.3-1h0.9v7.3l1.7,0.1V359z"/>
		<path class="st4" d="M215.5,359h-4.6v-1h1.8v-6.2l-1.7,0.7l-0.4-0.8l2.3-1h0.9v7.3l1.7,0.1V359z"/>
	</g>
	<g>
		<path class="st4" d="M298.1,358.8c0,0.2-0.1,0.2-0.2,0.2h-4.5v-0.9c0-1.2,0.5-2.2,1.6-3c0.3-0.2,0.6-0.4,0.9-0.6
			c0.3-0.2,0.6-0.5,0.8-0.7c0.3-0.3,0.4-0.6,0.4-1c0-0.4-0.1-0.6-0.4-0.9c-0.3-0.3-0.7-0.4-1.2-0.4c-0.4,0-1,0.1-1.7,0.4l-0.3-0.9
			c0.8-0.4,1.5-0.5,2-0.5c0.7,0,1.3,0.2,1.8,0.6c0.5,0.4,0.7,0.9,0.7,1.6c0,0.6-0.2,1.1-0.6,1.5c-0.2,0.3-0.6,0.6-1.2,1
			c-0.6,0.4-1.1,0.8-1.3,1c-0.4,0.4-0.6,1-0.6,1.6h3.7V358.8z"/>
		<path class="st4" d="M305.5,356c0,0.9-0.2,1.6-0.7,2.2c-0.5,0.6-1.2,0.9-2,0.9c-0.8,0-1.5-0.3-2-0.9c-0.5-0.6-0.7-1.3-0.7-2.2
			v-2.4c0-0.9,0.2-1.6,0.7-2.2c0.5-0.6,1.2-0.8,2-0.8c0.9,0,1.5,0.3,2,0.9c0.5,0.6,0.7,1.3,0.7,2.2V356z M304.4,356v-2.4
			c0-0.6-0.1-1-0.4-1.4c-0.3-0.5-0.7-0.7-1.4-0.7c-0.6,0-1.1,0.2-1.4,0.7c-0.2,0.4-0.4,0.8-0.4,1.4v2.4c0,0.6,0.1,1,0.4,1.4
			c0.3,0.5,0.8,0.7,1.4,0.7c0.6,0,1.1-0.2,1.4-0.7C304.3,357.1,304.4,356.6,304.4,356z"/>
		<path class="st4" d="M312.2,359h-4.6v-1h1.8v-6.2l-1.7,0.7l-0.4-0.8l2.3-1h0.9v7.3l1.7,0.1V359z"/>
		<path class="st4" d="M319,358.8c0,0.2-0.1,0.2-0.2,0.2h-4.5v-0.9c0-1.2,0.5-2.2,1.6-3c0.3-0.2,0.6-0.4,0.9-0.6
			c0.3-0.2,0.6-0.5,0.8-0.7c0.3-0.3,0.4-0.6,0.4-1c0-0.4-0.1-0.6-0.4-0.9c-0.3-0.3-0.7-0.4-1.2-0.4c-0.4,0-1,0.1-1.7,0.4l-0.3-0.9
			c0.8-0.4,1.5-0.5,2-0.5c0.7,0,1.3,0.2,1.8,0.6c0.5,0.4,0.7,0.9,0.7,1.6c0,0.6-0.2,1.1-0.6,1.5c-0.2,0.3-0.6,0.6-1.2,1
			c-0.6,0.4-1.1,0.8-1.3,1c-0.4,0.4-0.6,1-0.6,1.6h3.7V358.8z"/>
	</g>
	<g>
		<path class="st4" d="M402,358.8c0,0.2-0.1,0.2-0.2,0.2h-4.5v-0.9c0-1.2,0.5-2.2,1.6-3c0.3-0.2,0.6-0.4,0.9-0.6
			c0.3-0.2,0.6-0.5,0.8-0.7c0.3-0.3,0.4-0.6,0.4-1c0-0.4-0.1-0.6-0.4-0.9c-0.3-0.3-0.7-0.4-1.2-0.4c-0.4,0-1,0.1-1.7,0.4l-0.3-0.9
			c0.8-0.4,1.5-0.5,2-0.5c0.7,0,1.3,0.2,1.8,0.6c0.5,0.4,0.7,0.9,0.7,1.6c0,0.6-0.2,1.1-0.6,1.5c-0.2,0.3-0.6,0.6-1.2,1
			c-0.6,0.4-1.1,0.8-1.3,1c-0.4,0.4-0.6,1-0.6,1.6h3.7V358.8z"/>
		<path class="st4" d="M409.3,356c0,0.9-0.2,1.6-0.7,2.2c-0.5,0.6-1.2,0.9-2,0.9c-0.8,0-1.5-0.3-2-0.9c-0.5-0.6-0.7-1.3-0.7-2.2
			v-2.4c0-0.9,0.2-1.6,0.7-2.2c0.5-0.6,1.2-0.8,2-0.8c0.9,0,1.5,0.3,2,0.9c0.5,0.6,0.7,1.3,0.7,2.2V356z M408.3,356v-2.4
			c0-0.6-0.1-1-0.4-1.4c-0.3-0.5-0.7-0.7-1.4-0.7c-0.6,0-1.1,0.2-1.4,0.7c-0.2,0.4-0.4,0.8-0.4,1.4v2.4c0,0.6,0.1,1,0.4,1.4
			c0.3,0.5,0.8,0.7,1.4,0.7c0.6,0,1.1-0.2,1.4-0.7C408.2,357.1,408.3,356.6,408.3,356z"/>
		<path class="st4" d="M416.1,359h-4.6v-1h1.8v-6.2l-1.7,0.7l-0.4-0.8l2.3-1h0.9v7.3l1.7,0.1V359z"/>
		<path class="st4" d="M422.3,356.6c0,0.7-0.2,1.3-0.7,1.7c-0.5,0.5-1.2,0.7-2.1,0.7c-0.6,0-1.3-0.1-1.9-0.4l0.3-0.9
			c0.6,0.2,1.2,0.3,1.7,0.3c0.6,0,1-0.1,1.3-0.4c0.3-0.3,0.5-0.6,0.5-1.1c0-0.5-0.2-0.9-0.5-1.2c-0.3-0.3-0.7-0.4-1.2-0.4h-0.6v-0.9
			h0.5c0.5,0,0.9-0.1,1.2-0.4c0.3-0.2,0.4-0.6,0.4-0.9c0-0.4-0.1-0.7-0.4-0.9c-0.3-0.2-0.7-0.4-1.2-0.4c-0.4,0-0.9,0.1-1.5,0.3
			l-0.3-0.9c0.7-0.3,1.4-0.4,1.8-0.4c0.8,0,1.4,0.2,1.9,0.6c0.5,0.4,0.7,0.9,0.7,1.6c0,0.7-0.4,1.3-1.2,1.7v0
			C421.9,355.1,422.3,355.7,422.3,356.6z"/>
	</g>
	<g>
		<path class="st4" d="M505.7,358.8c0,0.2-0.1,0.2-0.2,0.2h-4.5v-0.9c0-1.2,0.5-2.2,1.6-3c0.3-0.2,0.6-0.4,0.9-0.6
			c0.3-0.2,0.6-0.5,0.8-0.7c0.3-0.3,0.4-0.6,0.4-1c0-0.4-0.1-0.6-0.4-0.9c-0.3-0.3-0.7-0.4-1.2-0.4c-0.4,0-1,0.1-1.7,0.4l-0.3-0.9
			c0.8-0.4,1.5-0.5,2-0.5c0.7,0,1.3,0.2,1.8,0.6c0.5,0.4,0.7,0.9,0.7,1.6c0,0.6-0.2,1.1-0.6,1.5c-0.2,0.3-0.6,0.6-1.2,1
			c-0.6,0.4-1.1,0.8-1.3,1c-0.4,0.4-0.6,1-0.6,1.6h3.7V358.8z"/>
		<path class="st4" d="M513.1,356c0,0.9-0.2,1.6-0.7,2.2c-0.5,0.6-1.2,0.9-2,0.9c-0.8,0-1.5-0.3-2-0.9c-0.5-0.6-0.7-1.3-0.7-2.2
			v-2.4c0-0.9,0.2-1.6,0.7-2.2c0.5-0.6,1.2-0.8,2-0.8s1.5,0.3,2,0.9c0.5,0.6,0.7,1.3,0.7,2.2V356z M512,356v-2.4
			c0-0.6-0.1-1-0.4-1.4c-0.3-0.5-0.7-0.7-1.4-0.7s-1.1,0.2-1.4,0.7c-0.2,0.4-0.4,0.8-0.4,1.4v2.4c0,0.6,0.1,1,0.4,1.4
			c0.3,0.5,0.8,0.7,1.4,0.7c0.6,0,1.1-0.2,1.4-0.7C511.9,357.1,512,356.6,512,356z"/>
		<path class="st4" d="M519.8,359h-4.6v-1h1.8v-6.2l-1.7,0.7l-0.4-0.8l2.3-1h0.9v7.3l1.7,0.1V359z"/>
		<path class="st4" d="M526.9,356.1l-0.2,1h-1.4v1.9h-1v-1.9h-1.8c-0.3,0-0.6-0.1-0.9-0.2c-0.3-0.2-0.4-0.5-0.4-0.9
			c0-0.1,0-0.2,0-0.3l0.8-5h1l-0.8,5.2c0,0,0,0,0,0c0,0.2,0.1,0.2,0.3,0.2h1.8v-4l1,0.2v3.8H526.9z"/>
	</g>
	<g>
		<path class="st4" d="M609.2,358.8c0,0.2-0.1,0.2-0.2,0.2h-4.5v-0.9c0-1.2,0.5-2.2,1.6-3c0.3-0.2,0.6-0.4,0.9-0.6
			c0.3-0.2,0.6-0.5,0.8-0.7c0.3-0.3,0.4-0.6,0.4-1c0-0.4-0.1-0.6-0.4-0.9c-0.3-0.3-0.7-0.4-1.2-0.4c-0.4,0-1,0.1-1.7,0.4l-0.3-0.9
			c0.8-0.4,1.5-0.5,2-0.5c0.7,0,1.3,0.2,1.8,0.6c0.5,0.4,0.7,0.9,0.7,1.6c0,0.6-0.2,1.1-0.6,1.5c-0.2,0.3-0.6,0.6-1.2,1
			c-0.6,0.4-1.1,0.8-1.3,1c-0.4,0.4-0.6,1-0.6,1.6h3.7V358.8z"/>
		<path class="st4" d="M616.6,356c0,0.9-0.2,1.6-0.7,2.2c-0.5,0.6-1.2,0.9-2,0.9c-0.8,0-1.5-0.3-2-0.9c-0.5-0.6-0.7-1.3-0.7-2.2
			v-2.4c0-0.9,0.2-1.6,0.7-2.2c0.5-0.6,1.2-0.8,2-0.8c0.9,0,1.5,0.3,2,0.9c0.5,0.6,0.7,1.3,0.7,2.2V356z M615.5,356v-2.4
			c0-0.6-0.1-1-0.4-1.4c-0.3-0.5-0.7-0.7-1.4-0.7c-0.6,0-1.1,0.2-1.4,0.7c-0.2,0.4-0.4,0.8-0.4,1.4v2.4c0,0.6,0.1,1,0.4,1.4
			c0.3,0.5,0.8,0.7,1.4,0.7c0.6,0,1.1-0.2,1.4-0.7C615.4,357.1,615.5,356.6,615.5,356z"/>
		<path class="st4" d="M623.3,359h-4.6v-1h1.8v-6.2l-1.7,0.7l-0.4-0.8l2.3-1h0.9v7.3l1.7,0.1V359z"/>
		<path class="st4" d="M630.3,356.3c0,0.8-0.3,1.5-0.9,2c-0.6,0.5-1.3,0.8-2.1,0.8c-0.5,0-1.2-0.2-2.2-0.5l0.3-0.9
			c0.8,0.3,1.4,0.5,2,0.5c0.6,0,1.1-0.2,1.4-0.6c0.3-0.3,0.5-0.8,0.5-1.3c0-0.5-0.1-0.9-0.4-1.2c-0.3-0.3-0.7-0.5-1.3-0.5
			c-0.6,0-1.1,0.1-1.7,0.3l-0.4-0.7v-3.6h4.3l-0.1,1h-3.3v2.2c0.4-0.1,0.8-0.1,1.1-0.1c0.8,0,1.5,0.2,2,0.7S630.3,355.5,630.3,356.3
			z"/>
	</g>
	<g>
		<path class="st4" d="M713,358.8c0,0.2-0.1,0.2-0.2,0.2h-4.5v-0.9c0-1.2,0.5-2.2,1.6-3c0.3-0.2,0.6-0.4,0.9-0.6
			c0.3-0.2,0.6-0.5,0.8-0.7c0.3-0.3,0.4-0.6,0.4-1c0-0.4-0.1-0.6-0.4-0.9c-0.3-0.3-0.7-0.4-1.2-0.4c-0.4,0-1,0.1-1.7,0.4l-0.3-0.9
			c0.8-0.4,1.5-0.5,2-0.5c0.7,0,1.3,0.2,1.8,0.6c0.5,0.4,0.7,0.9,0.7,1.6c0,0.6-0.2,1.1-0.6,1.5c-0.2,0.3-0.6,0.6-1.2,1
			c-0.6,0.4-1.1,0.8-1.3,1c-0.4,0.4-0.6,1-0.6,1.6h3.7V358.8z"/>
		<path class="st4" d="M720.4,356c0,0.9-0.2,1.6-0.7,2.2c-0.5,0.6-1.2,0.9-2,0.9c-0.8,0-1.5-0.3-2-0.9c-0.5-0.6-0.7-1.3-0.7-2.2
			v-2.4c0-0.9,0.2-1.6,0.7-2.2c0.5-0.6,1.2-0.8,2-0.8c0.9,0,1.5,0.3,2,0.9c0.5,0.6,0.7,1.3,0.7,2.2V356z M719.4,356v-2.4
			c0-0.6-0.1-1-0.4-1.4c-0.3-0.5-0.7-0.7-1.4-0.7c-0.6,0-1.1,0.2-1.4,0.7c-0.2,0.4-0.4,0.8-0.4,1.4v2.4c0,0.6,0.1,1,0.4,1.4
			c0.3,0.5,0.8,0.7,1.4,0.7c0.6,0,1.1-0.2,1.4-0.7C719.2,357.1,719.4,356.6,719.4,356z"/>
		<path class="st4" d="M727.1,359h-4.6v-1h1.8v-6.2l-1.7,0.7l-0.4-0.8l2.3-1h0.9v7.3l1.7,0.1V359z"/>
		<path class="st4" d="M734,356.3c0,0.9-0.3,1.5-0.8,2c-0.5,0.5-1.1,0.7-1.9,0.7c-0.8,0-1.4-0.2-1.9-0.7c-0.5-0.5-0.8-1.2-0.8-2v-3
			c0-0.8,0.2-1.4,0.7-1.9c0.5-0.5,1.2-0.8,2.1-0.8c0.5,0,1.1,0.1,1.9,0.4l-0.2,0.9c-0.7-0.2-1.2-0.3-1.6-0.3c-0.6,0-1.1,0.2-1.4,0.6
			c-0.2,0.3-0.4,0.7-0.4,1.2v0.7c0.6-0.3,1.1-0.5,1.6-0.5c0.8,0,1.4,0.2,1.8,0.7C733.7,354.8,734,355.5,734,356.3z M732.9,356.3
			c0-0.5-0.1-1-0.4-1.3c-0.3-0.3-0.7-0.5-1.2-0.5c-0.6,0-1.1,0.2-1.6,0.5v1.4c0,0.5,0.1,0.9,0.4,1.2c0.3,0.3,0.7,0.5,1.2,0.5
			c0.5,0,0.9-0.2,1.2-0.5C732.8,357.3,732.9,356.9,732.9,356.3z"/>
	</g>
	<g>
		<path class="st5" d="M91.7,196.8l0-1.1v-2.8c0-0.3,0-0.9,0.1-1.9c-0.6,0.7-1.3,1.2-2.2,1.6c-0.5-0.2-0.8-0.7-0.9-1.2
			c1.5-0.9,2.5-2,3.1-3.2c0.3-0.1,0.6-0.1,1-0.1s0.7,0,1,0.1v7.5l0,1.1l1,0h1c0.1,0.3,0.1,0.5,0.1,0.8c0,0.3,0,0.6-0.1,0.9h-6.4
			c-0.1-0.3-0.1-0.6-0.1-0.9c0-0.3,0-0.6,0.1-0.8h1.4L91.7,196.8z"/>
		<path class="st5" d="M99.9,196.6c0.1,0.3,0.2,0.7,0.2,1.2c0,0.4-0.1,0.7-0.2,1.1c-0.1,0.4-0.3,0.7-0.5,1c-0.2,0.3-0.5,0.6-0.8,0.8
			c-0.3,0.2-0.7,0.4-1.1,0.5c-0.2-0.1-0.3-0.2-0.4-0.4c-0.1-0.2-0.1-0.4-0.1-0.6c0.4-0.2,0.7-0.4,1-0.6s0.4-0.6,0.5-1
			c-0.4-0.1-0.6-0.2-0.7-0.3c-0.1-0.2-0.1-0.4-0.1-0.8c0-0.3,0-0.5,0.1-0.6c0-0.1,0.1-0.2,0.2-0.3c0.1-0.1,0.2-0.1,0.4-0.2
			c0.2,0,0.4-0.1,0.6-0.1C99.3,196.4,99.7,196.5,99.9,196.6z"/>
		<path class="st5" d="M108,190.3l-1.4,1.5c-0.2,0.2-0.3,0.3-0.5,0.5c0.4,0,0.8,0.1,1.1,0.3c0.3,0.1,0.6,0.4,0.9,0.6
			c0.2,0.3,0.4,0.6,0.6,1s0.2,0.8,0.2,1.3c0,0.5-0.1,0.9-0.3,1.4c-0.2,0.4-0.5,0.8-0.8,1.1c-0.3,0.3-0.7,0.5-1.2,0.7
			c-0.5,0.2-0.9,0.2-1.5,0.2c-1.4,0-2.5-0.4-3.3-1.1c0.1-0.5,0.4-1,0.9-1.4c0.7,0.5,1.3,0.8,2,0.8c0.7,0,1.2-0.2,1.5-0.5
			c0.3-0.3,0.5-0.8,0.5-1.4c0-0.3,0-0.5-0.1-0.7c-0.1-0.2-0.2-0.4-0.4-0.5s-0.3-0.2-0.5-0.3c-0.2-0.1-0.4-0.1-0.6-0.1
			c-0.4,0-0.7,0.1-0.9,0.2c-0.2-0.1-0.3-0.2-0.5-0.4c-0.1-0.2-0.2-0.4-0.3-0.7l1.7-1.9c0.5-0.5,0.8-0.8,1.1-1l-0.1-0.1
			c-0.4,0.1-1,0.2-1.7,0.2h-2.1c-0.1-0.3-0.1-0.5-0.1-0.8c0-0.2,0-0.3,0-0.5c0-0.2,0.1-0.3,0.1-0.5h5.7c0.3,0.5,0.4,0.9,0.4,1.3
			c0,0.2,0,0.3-0.1,0.5C108.2,190,108.1,190.1,108,190.3z"/>
	</g>
	<g>
		<path class="st5" d="M191.2,235.5l0-1.1v-2.8c0-0.3,0-0.9,0.1-1.9c-0.6,0.7-1.3,1.2-2.2,1.6c-0.5-0.2-0.8-0.7-0.9-1.2
			c1.5-0.9,2.5-2,3.1-3.2c0.3-0.1,0.6-0.1,1-0.1s0.7,0,1,0.1v7.5l0,1.1l1,0h1c0.1,0.3,0.1,0.5,0.1,0.8s0,0.6-0.1,0.9h-6.4
			c-0.1-0.3-0.1-0.6-0.1-0.9s0-0.6,0.1-0.8h1.4L191.2,235.5z"/>
		<path class="st5" d="M199.4,235.4c0.1,0.3,0.2,0.7,0.2,1.2c0,0.4-0.1,0.7-0.2,1.1c-0.1,0.4-0.3,0.7-0.5,1
			c-0.2,0.3-0.5,0.6-0.8,0.8c-0.3,0.2-0.7,0.4-1.1,0.5c-0.2-0.1-0.3-0.2-0.4-0.4c-0.1-0.2-0.1-0.4-0.1-0.6c0.4-0.1,0.7-0.4,1-0.6
			c0.3-0.3,0.4-0.6,0.5-1c-0.4-0.1-0.6-0.2-0.7-0.3c-0.1-0.2-0.1-0.4-0.1-0.8c0-0.3,0-0.5,0.1-0.6s0.1-0.2,0.2-0.3
			c0.1-0.1,0.2-0.1,0.4-0.2c0.2,0,0.4-0.1,0.6-0.1C198.8,235.1,199.1,235.2,199.4,235.4z"/>
		<path class="st5" d="M204.2,235.5l0-1.1v-2.8c0-0.3,0-0.9,0.1-1.9c-0.6,0.7-1.3,1.2-2.2,1.6c-0.5-0.2-0.8-0.7-0.9-1.2
			c1.5-0.9,2.5-2,3.1-3.2c0.3-0.1,0.6-0.1,1-0.1s0.7,0,1,0.1v7.5l0,1.1l1,0h1c0.1,0.3,0.1,0.5,0.1,0.8s0,0.6-0.1,0.9h-6.4
			c-0.1-0.3-0.1-0.6-0.1-0.9s0-0.6,0.1-0.8h1.4L204.2,235.5z"/>
		<path class="st5" d="M209.5,234.6c0-0.6,0.2-1.1,0.5-1.6c0.3-0.5,0.8-0.9,1.3-1.2c-1-0.6-1.5-1.4-1.5-2.5c0-0.4,0.1-0.8,0.3-1.1
			c0.2-0.3,0.4-0.6,0.7-0.9c0.3-0.2,0.7-0.4,1.1-0.6s0.9-0.2,1.4-0.2s0.9,0.1,1.4,0.2c0.4,0.1,0.8,0.3,1.1,0.6
			c0.3,0.2,0.5,0.5,0.7,0.9s0.2,0.7,0.2,1.1c0,1-0.5,1.7-1.5,2.3c1.2,0.7,1.8,1.6,1.8,2.8c0,0.5-0.1,0.9-0.3,1.2
			c-0.2,0.4-0.5,0.7-0.8,0.9c-0.3,0.3-0.7,0.5-1.2,0.6c-0.5,0.1-1,0.2-1.5,0.2c-0.5,0-1-0.1-1.5-0.2s-0.8-0.3-1.1-0.6
			c-0.3-0.2-0.5-0.5-0.7-0.9C209.6,235.5,209.5,235.1,209.5,234.6z M212.8,232.5L212.8,232.5c-0.7,0.5-1.1,1.2-1.1,1.9
			c0,0.5,0.1,0.8,0.4,1.1c0.3,0.3,0.7,0.4,1.1,0.4s0.8-0.1,1.1-0.4c0.3-0.3,0.4-0.6,0.4-1.1c0-0.8-0.5-1.4-1.6-1.8L212.8,232.5z
			 M211.9,229.4c0,0.7,0.5,1.2,1.6,1.5l0.2,0.1c0.6-0.4,0.9-0.9,0.9-1.6c0-0.4-0.1-0.7-0.4-1c-0.3-0.2-0.6-0.4-1-0.4
			c-0.4,0-0.7,0.1-1,0.4C212,228.7,211.9,229,211.9,229.4z"/>
	</g>
	<g>
		<path class="st5" d="M293,244.7c0.6-0.7,1.5-1,2.5-1c0.7,0,1.2,0.1,1.7,0.4c0.5,0.2,0.8,0.6,1.2,1.1c0.3,0.5,0.5,1,0.6,1.7
			c0.1,0.7,0.2,1.4,0.2,2.3c0,0.9-0.1,1.6-0.2,2.3c-0.1,0.7-0.3,1.2-0.6,1.7c-0.3,0.5-0.7,0.8-1.2,1.1c-0.5,0.2-1,0.4-1.7,0.4
			c-0.7,0-1.2-0.1-1.7-0.4c-0.5-0.2-0.8-0.6-1.1-1.1c-0.3-0.5-0.5-1-0.6-1.7c-0.1-0.7-0.2-1.4-0.2-2.3c0-0.5,0-1,0-1.4
			c0-0.4,0.1-0.8,0.2-1.2c0.1-0.4,0.2-0.7,0.4-1C292.5,245.3,292.7,245,293,244.7z M294.4,252.3c0.2,0.4,0.5,0.6,1,0.6
			c0.3,0,0.5-0.1,0.7-0.2c0.2-0.1,0.3-0.3,0.5-0.6c0.1-0.3,0.2-0.7,0.3-1.2c0.1-0.5,0.1-1.1,0.1-1.9c0-0.8,0-1.4-0.1-1.9
			c-0.1-0.5-0.1-0.9-0.3-1.2s-0.3-0.5-0.5-0.6c-0.2-0.1-0.4-0.2-0.7-0.2c-0.3,0-0.5,0.1-0.7,0.2c-0.2,0.1-0.3,0.3-0.5,0.6
			c-0.1,0.3-0.2,0.7-0.3,1.2c-0.1,0.5-0.1,1.1-0.1,1.9C294,250.8,294.1,251.9,294.4,252.3z"/>
		<path class="st5" d="M303.1,252.5c0.1,0.3,0.2,0.7,0.2,1.2c0,0.4-0.1,0.7-0.2,1.1c-0.1,0.4-0.3,0.7-0.5,1
			c-0.2,0.3-0.5,0.6-0.8,0.8c-0.3,0.2-0.7,0.4-1.1,0.5c-0.2-0.1-0.3-0.2-0.4-0.4c-0.1-0.2-0.1-0.4-0.1-0.6c0.4-0.1,0.7-0.4,1-0.6
			c0.3-0.3,0.4-0.6,0.5-1c-0.4-0.1-0.6-0.2-0.7-0.3c-0.1-0.2-0.1-0.4-0.1-0.8c0-0.3,0-0.5,0.1-0.6s0.1-0.2,0.2-0.3
			c0.1-0.1,0.2-0.1,0.4-0.2c0.2,0,0.4-0.1,0.6-0.1C302.5,252.2,302.8,252.3,303.1,252.5z"/>
		<path class="st5" d="M311,244.9c0.3,0.4,0.5,0.7,0.6,0.9s0.2,0.5,0.3,0.9c0.1,0.4,0.1,0.8,0.2,1.2c0,0.4,0.1,0.9,0.1,1.3
			c0,0.8-0.1,1.6-0.3,2.2s-0.5,1.2-0.8,1.7c-0.4,0.5-0.8,0.8-1.3,1.1c-0.5,0.3-1.1,0.4-1.8,0.4c-1,0-1.8-0.2-2.5-0.5
			c0-0.7,0.3-1.1,0.7-1.5c0.5,0.2,1.1,0.3,1.6,0.3c0.7,0,1.3-0.2,1.6-0.7c0.4-0.5,0.6-1.2,0.6-2c-0.6,0.5-1.4,0.8-2.2,0.8
			c-0.8,0-1.5-0.3-2-0.9c-0.5-0.6-0.8-1.4-0.8-2.6c0-0.6,0.1-1.1,0.3-1.6c0.2-0.5,0.4-0.9,0.7-1.2c0.3-0.3,0.7-0.6,1.1-0.7
			c0.4-0.2,0.9-0.3,1.5-0.3C309.5,243.7,310.3,244.1,311,244.9z M308.3,249.2c0.6,0,1.1-0.2,1.6-0.7v-0.2c0-1.1-0.1-1.8-0.4-2.3
			s-0.7-0.7-1.2-0.7c-0.4,0-0.8,0.2-1,0.5c-0.2,0.4-0.4,0.8-0.4,1.4C306.9,248.6,307.4,249.2,308.3,249.2z"/>
		<path class="st5" d="M319.2,252.3l0,1v1c-0.3,0.1-0.7,0.1-1,0.1c-0.4,0-0.7,0-1-0.1v-1l0-1l-1,0h-2.6c-0.3-0.5-0.5-0.9-0.5-1.2
			s0.1-0.7,0.3-1.1l2.6-6.2c0.3-0.1,0.7-0.1,1.1,0c0.4,0.1,0.7,0.2,0.9,0.4l-1.4,3.4c-0.5,1.4-1,2.4-1.4,3l0,0.1
			c0.6-0.1,1.3-0.1,2-0.1h0v-1.3c0-0.5,0.1-0.9,0.4-1.2c0.3-0.3,0.6-0.4,1-0.4h0.5l0.1,0.1v1.8l0,1l0.8,0h0.6c0,0.2,0.1,0.5,0.1,0.8
			s0,0.6-0.1,0.9H319.2z"/>
	</g>
	<g>
		<path class="st5" d="M401.7,249.7c0.6-0.7,1.5-1,2.5-1c0.7,0,1.2,0.1,1.7,0.4c0.5,0.2,0.8,0.6,1.2,1.1c0.3,0.5,0.5,1,0.6,1.7
			s0.2,1.4,0.2,2.3c0,0.9-0.1,1.6-0.2,2.3c-0.1,0.7-0.3,1.2-0.6,1.7c-0.3,0.5-0.7,0.8-1.2,1.1c-0.5,0.2-1,0.4-1.7,0.4
			c-0.7,0-1.2-0.1-1.7-0.4c-0.5-0.2-0.8-0.6-1.1-1.1c-0.3-0.5-0.5-1-0.6-1.7c-0.1-0.7-0.2-1.4-0.2-2.3c0-0.5,0-1,0-1.4
			c0-0.4,0.1-0.8,0.2-1.2c0.1-0.4,0.2-0.7,0.4-1S401.5,250,401.7,249.7z M403.1,257.3c0.2,0.4,0.5,0.6,1,0.6c0.3,0,0.5-0.1,0.7-0.2
			c0.2-0.1,0.3-0.3,0.5-0.6c0.1-0.3,0.2-0.7,0.3-1.2c0.1-0.5,0.1-1.1,0.1-1.9c0-0.8,0-1.4-0.1-1.9c-0.1-0.5-0.1-0.9-0.3-1.2
			s-0.3-0.5-0.5-0.6c-0.2-0.1-0.4-0.2-0.7-0.2s-0.5,0.1-0.7,0.2c-0.2,0.1-0.3,0.3-0.5,0.6s-0.2,0.7-0.3,1.2
			c-0.1,0.5-0.1,1.1-0.1,1.9C402.7,255.8,402.8,256.9,403.1,257.3z"/>
		<path class="st5" d="M411.8,257.5c0.1,0.3,0.2,0.7,0.2,1.2c0,0.4-0.1,0.7-0.2,1.1c-0.1,0.4-0.3,0.7-0.5,1
			c-0.2,0.3-0.5,0.6-0.8,0.8c-0.3,0.2-0.7,0.4-1.1,0.5c-0.2-0.1-0.3-0.2-0.4-0.4s-0.1-0.4-0.1-0.6c0.4-0.1,0.7-0.4,1-0.6
			c0.3-0.3,0.4-0.6,0.5-1c-0.4-0.1-0.6-0.2-0.7-0.3c-0.1-0.2-0.1-0.4-0.1-0.8c0-0.3,0-0.5,0.1-0.6c0-0.1,0.1-0.2,0.2-0.3
			c0.1-0.1,0.2-0.1,0.4-0.2c0.2,0,0.4-0.1,0.6-0.1C411.2,257.2,411.5,257.3,411.8,257.5z"/>
		<path class="st5" d="M419.7,249.9c0.3,0.4,0.5,0.7,0.6,0.9c0.1,0.2,0.2,0.5,0.3,0.9s0.1,0.8,0.2,1.2c0,0.4,0.1,0.9,0.1,1.3
			c0,0.8-0.1,1.6-0.3,2.2s-0.5,1.2-0.8,1.7c-0.4,0.5-0.8,0.8-1.3,1.1c-0.5,0.3-1.1,0.4-1.8,0.4c-1,0-1.8-0.2-2.5-0.5
			c0-0.7,0.3-1.1,0.7-1.5c0.5,0.2,1.1,0.3,1.6,0.3c0.7,0,1.3-0.2,1.6-0.7c0.4-0.5,0.6-1.2,0.6-2c-0.6,0.5-1.4,0.8-2.2,0.8
			c-0.8,0-1.5-0.3-2-0.9c-0.5-0.6-0.8-1.4-0.8-2.6c0-0.6,0.1-1.1,0.3-1.6c0.2-0.5,0.4-0.9,0.7-1.2s0.7-0.6,1.1-0.7
			c0.4-0.2,0.9-0.3,1.5-0.3C418.2,248.7,419.1,249.1,419.7,249.9z M417,254.2c0.6,0,1.1-0.2,1.6-0.7v-0.2c0-1.1-0.1-1.8-0.4-2.3
			c-0.3-0.5-0.7-0.7-1.2-0.7c-0.4,0-0.8,0.2-1,0.5c-0.2,0.4-0.4,0.8-0.4,1.4C415.6,253.6,416.1,254.2,417,254.2z"/>
	</g>
	<g>
		<path class="st5" d="M500.4,260.6c0.6-0.7,1.5-1,2.5-1c0.7,0,1.2,0.1,1.7,0.4c0.5,0.2,0.8,0.6,1.2,1.1c0.3,0.5,0.5,1,0.6,1.7
			s0.2,1.4,0.2,2.3c0,0.9-0.1,1.6-0.2,2.3c-0.1,0.7-0.3,1.2-0.6,1.7c-0.3,0.5-0.7,0.8-1.2,1.1c-0.5,0.2-1,0.4-1.7,0.4
			c-0.7,0-1.2-0.1-1.7-0.4c-0.5-0.2-0.8-0.6-1.1-1.1c-0.3-0.5-0.5-1-0.6-1.7c-0.1-0.7-0.2-1.4-0.2-2.3c0-0.5,0-1,0-1.4
			c0-0.4,0.1-0.8,0.2-1.2c0.1-0.4,0.2-0.7,0.4-1S500.1,260.8,500.4,260.6z M501.8,268.2c0.2,0.4,0.5,0.6,1,0.6
			c0.3,0,0.5-0.1,0.7-0.2c0.2-0.1,0.3-0.3,0.5-0.6c0.1-0.3,0.2-0.7,0.3-1.2c0.1-0.5,0.1-1.1,0.1-1.9c0-0.8,0-1.4-0.1-1.9
			c-0.1-0.5-0.1-0.9-0.3-1.2s-0.3-0.5-0.5-0.6c-0.2-0.1-0.4-0.2-0.7-0.2s-0.5,0.1-0.7,0.2c-0.2,0.1-0.3,0.3-0.5,0.6
			s-0.2,0.7-0.3,1.2c-0.1,0.5-0.1,1.1-0.1,1.9C501.4,266.6,501.5,267.7,501.8,268.2z"/>
		<path class="st5" d="M510.5,268.3c0.1,0.3,0.2,0.7,0.2,1.2c0,0.4-0.1,0.7-0.2,1.1c-0.1,0.4-0.3,0.7-0.5,1
			c-0.2,0.3-0.5,0.6-0.8,0.8c-0.3,0.2-0.7,0.4-1.1,0.5c-0.2-0.1-0.3-0.2-0.4-0.4s-0.1-0.4-0.1-0.6c0.4-0.1,0.7-0.4,1-0.6
			c0.3-0.3,0.4-0.6,0.5-1c-0.4-0.1-0.6-0.2-0.7-0.3c-0.1-0.2-0.1-0.4-0.1-0.8c0-0.3,0-0.5,0.1-0.6c0-0.1,0.1-0.2,0.2-0.3
			c0.1-0.1,0.2-0.1,0.4-0.2c0.2,0,0.4-0.1,0.6-0.1C509.9,268.1,510.2,268.1,510.5,268.3z"/>
		<path class="st5" d="M512.2,267.5c0-0.6,0.2-1.1,0.5-1.6c0.3-0.5,0.8-0.9,1.3-1.2c-1-0.6-1.5-1.4-1.5-2.5c0-0.4,0.1-0.8,0.3-1.1
			c0.2-0.3,0.4-0.6,0.7-0.9c0.3-0.2,0.7-0.4,1.1-0.6s0.9-0.2,1.4-0.2c0.5,0,0.9,0.1,1.4,0.2c0.4,0.1,0.8,0.3,1.1,0.6
			c0.3,0.2,0.5,0.5,0.7,0.9c0.2,0.3,0.2,0.7,0.2,1.1c0,1-0.5,1.7-1.5,2.3c1.2,0.7,1.8,1.6,1.8,2.8c0,0.5-0.1,0.9-0.3,1.2
			s-0.5,0.7-0.8,0.9c-0.3,0.3-0.7,0.5-1.2,0.6c-0.5,0.1-1,0.2-1.5,0.2c-0.5,0-1-0.1-1.5-0.2s-0.8-0.3-1.1-0.6
			c-0.3-0.2-0.5-0.5-0.7-0.9C512.3,268.4,512.2,268,512.2,267.5z M515.4,265.5L515.4,265.5c-0.7,0.5-1.1,1.2-1.1,1.9
			c0,0.5,0.1,0.8,0.4,1.1c0.3,0.3,0.7,0.4,1.1,0.4c0.5,0,0.8-0.1,1.1-0.4c0.3-0.3,0.4-0.6,0.4-1.1c0-0.8-0.5-1.4-1.6-1.8
			L515.4,265.5z M514.5,262.3c0,0.7,0.5,1.2,1.6,1.5l0.2,0.1c0.6-0.4,0.9-0.9,0.9-1.6c0-0.4-0.1-0.7-0.4-1c-0.3-0.2-0.6-0.4-1-0.4
			s-0.7,0.1-1,0.4C514.6,261.7,514.5,262,514.5,262.3z"/>
		<path class="st5" d="M527.8,268.4c0,0.6-0.1,1-0.3,1.4c-0.2,0.3-0.5,0.5-1.1,0.5h-4.9c-0.5-0.5-0.8-0.9-0.8-1.3
			c0-0.8,0.6-1.8,1.9-2.9l1.6-1.5c0.7-0.6,1-1.2,1-1.8c0-0.4-0.1-0.7-0.4-1s-0.6-0.4-0.9-0.4c-0.4,0-0.7,0.1-1,0.4s-0.5,0.6-0.6,1.1
			c-0.3,0-0.6-0.1-0.9-0.2c-0.3-0.1-0.5-0.3-0.6-0.5c0.1-0.4,0.3-0.7,0.5-1c0.2-0.3,0.5-0.6,0.8-0.8s0.6-0.4,1-0.5
			c0.4-0.1,0.8-0.2,1.2-0.2c0.4,0,0.9,0.1,1.2,0.2s0.7,0.4,1,0.6c0.3,0.3,0.5,0.6,0.7,1c0.2,0.4,0.2,0.8,0.2,1.3
			c0,0.3,0,0.6-0.1,0.9s-0.2,0.5-0.4,0.8c-0.2,0.3-0.4,0.5-0.6,0.8c-0.2,0.3-0.5,0.5-0.8,0.8l-1.2,1c-0.8,0.7-1.3,1.2-1.4,1.6
			c0.8-0.1,1.6-0.1,2.3-0.1H527.8z"/>
	</g>
	<g>
		<path class="st5" d="M605.4,274.9c0.6-0.7,1.5-1,2.5-1c0.7,0,1.2,0.1,1.7,0.4c0.5,0.2,0.8,0.6,1.2,1.1s0.5,1,0.6,1.7
			c0.1,0.7,0.2,1.4,0.2,2.3c0,0.9-0.1,1.6-0.2,2.3c-0.1,0.7-0.3,1.2-0.6,1.7c-0.3,0.5-0.7,0.8-1.2,1.1c-0.5,0.2-1,0.4-1.7,0.4
			c-0.7,0-1.2-0.1-1.7-0.4c-0.5-0.2-0.8-0.6-1.1-1.1c-0.3-0.5-0.5-1-0.6-1.7c-0.1-0.7-0.2-1.4-0.2-2.3c0-0.5,0-1,0-1.4
			c0-0.4,0.1-0.8,0.2-1.2c0.1-0.4,0.2-0.7,0.4-1C605,275.4,605.1,275.2,605.4,274.9z M606.8,282.5c0.2,0.4,0.5,0.6,1,0.6
			c0.3,0,0.5-0.1,0.7-0.2c0.2-0.1,0.3-0.3,0.5-0.6c0.1-0.3,0.2-0.7,0.3-1.2c0.1-0.5,0.1-1.1,0.1-1.9c0-0.8,0-1.4-0.1-1.9
			c-0.1-0.5-0.1-0.9-0.3-1.2s-0.3-0.5-0.5-0.6c-0.2-0.1-0.4-0.2-0.7-0.2c-0.3,0-0.5,0.1-0.7,0.2c-0.2,0.1-0.3,0.3-0.5,0.6
			c-0.1,0.3-0.2,0.7-0.3,1.2c-0.1,0.5-0.1,1.1-0.1,1.9C606.4,281,606.5,282.1,606.8,282.5z"/>
		<path class="st5" d="M615.5,282.7c0.1,0.3,0.2,0.7,0.2,1.2c0,0.4-0.1,0.7-0.2,1.1c-0.1,0.4-0.3,0.7-0.5,1
			c-0.2,0.3-0.5,0.6-0.8,0.8c-0.3,0.2-0.7,0.4-1.1,0.5c-0.2-0.1-0.3-0.2-0.4-0.4c-0.1-0.2-0.1-0.4-0.1-0.6c0.4-0.1,0.7-0.4,1-0.6
			c0.3-0.3,0.4-0.6,0.5-1c-0.4-0.1-0.6-0.2-0.7-0.3c-0.1-0.2-0.1-0.4-0.1-0.8c0-0.3,0-0.5,0.1-0.6c0-0.1,0.1-0.2,0.2-0.3
			s0.2-0.1,0.4-0.2s0.4-0.1,0.6-0.1C614.9,282.4,615.2,282.5,615.5,282.7z"/>
		<path class="st5" d="M617.6,274.1h6.4c0.3,0.5,0.4,1,0.4,1.2s-0.1,0.6-0.3,0.8l-0.6,0.8c-0.7,1.1-1.3,2.1-1.7,3.2
			c-0.4,1.1-0.7,2.3-0.8,3.6l0,0.7c-0.2,0.1-0.6,0.1-1,0.1c-0.5,0-0.8,0-1.1-0.1l0.1-0.7c0.2-2.5,1-4.7,2.4-6.6l0.2-0.3
			c0.3-0.5,0.6-0.8,1-1.1l-0.1-0.1c-0.5,0.1-1.2,0.2-2.3,0.2h-2.6c-0.1-0.2-0.1-0.5-0.1-0.8C617.4,274.8,617.5,274.4,617.6,274.1z"
			/>
		<path class="st5" d="M626.8,283.6c-0.1-0.1-0.2-0.2-0.2-0.3l-0.3-0.5c-0.2-0.5-0.4-1-0.4-1.6c-0.1-0.6-0.1-1.2-0.1-1.9
			c0-0.8,0.1-1.6,0.3-2.3c0.2-0.7,0.5-1.2,0.8-1.7c0.4-0.5,0.8-0.8,1.3-1.1c0.5-0.3,1.1-0.4,1.8-0.4c1,0,1.8,0.2,2.5,0.5
			c0,0.7-0.3,1.1-0.7,1.5c-0.5-0.2-1.1-0.3-1.6-0.3c-1.4,0-2.1,0.9-2.2,2.8c0.6-0.5,1.4-0.8,2.2-0.8c0.8,0,1.5,0.3,2,0.9
			s0.8,1.4,0.8,2.6c0,0.6-0.1,1.1-0.3,1.5c-0.2,0.5-0.4,0.8-0.7,1.2c-0.3,0.3-0.7,0.6-1.1,0.7c-0.4,0.2-0.9,0.3-1.5,0.3
			C628.3,284.7,627.4,284.4,626.8,283.6z M627.9,280.2c0,2,0.5,3,1.5,3c0.5,0,0.8-0.2,1.1-0.5s0.3-0.8,0.3-1.4
			c0-1.3-0.5-1.9-1.4-1.9c-0.6,0-1.1,0.2-1.6,0.7V280.2z"/>
	</g>
	<g>
		<path class="st5" d="M709.3,290.8c0.6-0.7,1.5-1,2.5-1c0.7,0,1.2,0.1,1.7,0.4c0.5,0.2,0.8,0.6,1.2,1.1c0.3,0.5,0.5,1,0.6,1.7
			s0.2,1.4,0.2,2.3c0,0.9-0.1,1.6-0.2,2.3c-0.1,0.7-0.3,1.2-0.6,1.7c-0.3,0.5-0.7,0.8-1.2,1.1c-0.5,0.2-1,0.4-1.7,0.4
			c-0.7,0-1.2-0.1-1.7-0.4c-0.5-0.2-0.8-0.6-1.1-1.1c-0.3-0.5-0.5-1-0.6-1.7c-0.1-0.7-0.2-1.4-0.2-2.3c0-0.5,0-1,0-1.4
			c0-0.4,0.1-0.8,0.2-1.2c0.1-0.4,0.2-0.7,0.4-1S709.1,291.1,709.3,290.8z M710.8,298.4c0.2,0.4,0.5,0.6,1,0.6
			c0.3,0,0.5-0.1,0.7-0.2c0.2-0.1,0.3-0.3,0.5-0.6c0.1-0.3,0.2-0.7,0.3-1.2c0.1-0.5,0.1-1.1,0.1-1.9c0-0.8,0-1.4-0.1-1.9
			c-0.1-0.5-0.1-0.9-0.3-1.2s-0.3-0.5-0.5-0.6c-0.2-0.1-0.4-0.2-0.7-0.2s-0.5,0.1-0.7,0.2c-0.2,0.1-0.3,0.3-0.5,0.6
			s-0.2,0.7-0.3,1.2c-0.1,0.5-0.1,1.1-0.1,1.9C710.3,296.9,710.5,298,710.8,298.4z"/>
		<path class="st5" d="M719.4,298.6c0.1,0.3,0.2,0.7,0.2,1.2c0,0.4-0.1,0.7-0.2,1.1c-0.1,0.4-0.3,0.7-0.5,1
			c-0.2,0.3-0.5,0.6-0.8,0.8c-0.3,0.2-0.7,0.4-1.1,0.5c-0.2-0.1-0.3-0.2-0.4-0.4s-0.1-0.4-0.1-0.6c0.4-0.1,0.7-0.4,1-0.6
			c0.3-0.3,0.4-0.6,0.5-1c-0.4-0.1-0.6-0.2-0.7-0.3c-0.1-0.2-0.1-0.4-0.1-0.8c0-0.3,0-0.5,0.1-0.6c0-0.1,0.1-0.2,0.2-0.3
			c0.1-0.1,0.2-0.1,0.4-0.2c0.2,0,0.4-0.1,0.6-0.1C718.8,298.3,719.2,298.4,719.4,298.6z"/>
		<path class="st5" d="M723.9,291.8l-0.1,1.9c0.4-0.1,0.8-0.2,1.1-0.2c0.5,0,1,0.1,1.4,0.2s0.8,0.4,1.1,0.7s0.5,0.6,0.7,1.1
			c0.2,0.4,0.2,0.9,0.2,1.4c0,0.6-0.1,1.1-0.3,1.6c-0.2,0.5-0.5,0.9-0.8,1.2c-0.4,0.3-0.8,0.6-1.2,0.7c-0.5,0.2-1,0.2-1.5,0.2
			c-1.3,0-2.3-0.4-3.1-1.1c0-0.2,0.1-0.5,0.3-0.7c0.2-0.3,0.4-0.5,0.5-0.6c0.4,0.3,0.7,0.5,1.1,0.6c0.3,0.1,0.7,0.2,1,0.2
			c0.6,0,1.1-0.2,1.4-0.6s0.5-0.9,0.5-1.5c0-0.6-0.2-1-0.5-1.3s-0.7-0.4-1.2-0.4c-0.3,0-0.5,0-0.8,0.1c-0.3,0.1-0.5,0.2-0.8,0.4
			c-0.2,0-0.4-0.1-0.6-0.3c-0.2-0.1-0.4-0.3-0.5-0.4l0.3-4.8l0.1-0.1h5.6c0.1,0.3,0.1,0.5,0.1,0.9c0,0.6-0.3,0.9-0.9,0.9H723.9z"/>
		<path class="st5" d="M730.1,290h6.4c0.3,0.5,0.4,1,0.4,1.2s-0.1,0.6-0.3,0.8L736,293c-0.7,1.1-1.3,2.1-1.7,3.2
			c-0.4,1.1-0.7,2.3-0.8,3.6l0,0.7c-0.2,0.1-0.6,0.1-1,0.1c-0.5,0-0.8,0-1.1-0.1l0.1-0.7c0.2-2.5,1-4.7,2.4-6.6l0.2-0.3
			c0.3-0.5,0.6-0.8,1-1.1l-0.1-0.1c-0.5,0.1-1.2,0.2-2.3,0.2H730c-0.1-0.2-0.1-0.5-0.1-0.8C729.9,290.7,730,290.3,730.1,290z"/>
	</g>
</g>
</svg>
