<?xml version="1.0" encoding="UTF-8"?>
<svg width="16px" height="16px" viewBox="0 0 16 16" version="1.1" xmlns="http://www.w3.org/2000/svg" xmlns:xlink="http://www.w3.org/1999/xlink">
    <!-- Generator: Sketch 45.2 (43514) - http://www.bohemiancoding.com/sketch -->
    <title>Fill 1</title>
    <desc>Created with Sketch.</desc>
    <defs></defs>
    <g id="Visual-Cerca-de-ti-1280" stroke="none" stroke-width="1" fill="none" fill-rule="evenodd">
        <g id="Cerca-de-ti/pagina-artículo-ON" transform="translate(-157.000000, -204.000000)" fill="#DA2F2A">
            <path d="M172.926548,211.783531 L165.191264,204.078246 C165.087269,203.973918 164.917944,203.973918 164.813616,204.078246 L157.076999,211.783531 C156.973005,211.887859 156.975671,212.054518 157.076999,212.159846 C157.130663,212.21451 157.198327,212.241842 157.26599,212.241842 L157.26599,212.243175 L159.132898,212.243175 L159.132898,219.690806 C159.132898,219.763803 159.162896,219.830133 159.211227,219.87813 C159.260558,219.926461 159.326888,219.95646 159.399884,219.95646 L163.1327,219.95646 C163.281359,219.95646 163.399686,219.836466 163.399686,219.690806 L163.399686,214.37207 L166.600194,214.37207 L166.600194,219.690806 C166.600194,219.836466 166.719855,219.95646 166.867181,219.95646 L170.599996,219.95646 C170.746989,219.95646 170.866983,219.836466 170.866983,219.690806 L170.866983,212.243175 L172.745557,212.243175 C172.815887,212.244508 172.882217,212.217176 172.926548,212.161179 C173.017877,212.043852 173.030876,211.887859 172.926548,211.783531 Z" id="Fill-1"></path>
        </g>
    </g>
</svg>