<?xml version="1.0" encoding="UTF-8"?>
<svg width="14px" height="13px" viewBox="0 0 14 13" version="1.1" xmlns="http://www.w3.org/2000/svg" xmlns:xlink="http://www.w3.org/1999/xlink">
    <!-- Generator: Sketch 46.2 (44496) - http://www.bohemiancoding.com/sketch -->
    <title>Shape</title>
    <desc>Created with Sketch.</desc>
    <defs></defs>
    <g id="Visual-Contacta-1280" stroke="none" stroke-width="1" fill="none" fill-rule="evenodd">
        <g id="Contacto/5-general-3-2-2-mapa-desple" transform="translate(-1064.000000, -2666.000000)" fill-rule="nonzero" fill="#FFFFFF">
            <g id="Group-13" transform="translate(0.000000, 1963.000000)">
                <g id="Group-3-Copy" transform="translate(742.000000, 190.000000)">
                    <g id="CTA" transform="translate(311.000000, 500.000000)">
                        <path d="M11,25.1708244 C11,19.762797 15.3138816,15.3438899 20.7412421,15.16937 L20.7412421,13.3254155 C20.7412421,13.1926968 20.8217094,13.0746084 20.9434553,13.024447 C21.0636337,12.9742856 21.2036676,13.0030239 21.2987653,13.0949865 L24.906207,16.7201937 C25.0316105,16.8455972 25.0316105,17.0509455 24.9041169,17.1773941 L21.2966752,20.7911059 C21.2036676,20.8882937 21.0652012,20.9154644 20.9434553,20.8616454 C20.8222319,20.8146191 20.7412421,20.6954857 20.7412421,20.5648571 L20.7412421,18.5103292 C17.1886644,18.6493181 14.3404367,21.5842833 14.3404367,25.1959051 C14.3404367,25.3777402 14.1946551,25.5214318 14.01491,25.5214318 L11.3244816,25.5214318 C11.1447366,25.5209093 11,25.3495244 11,25.1708244 Z" id="Shape"></path>
                    </g>
                </g>
            </g>
        </g>
    </g>
</svg>