<?xml version="1.0" encoding="UTF-8"?>
<svg width="113px" height="95px" viewBox="0 0 113 95" version="1.1" xmlns="http://www.w3.org/2000/svg" xmlns:xlink="http://www.w3.org/1999/xlink">
    <!-- Generator: Sketch 46.2 (44496) - http://www.bohemiancoding.com/sketch -->
    <title>Page 1</title>
    <desc>Created with Sketch.</desc>
    <defs>
        <polygon id="path-1" points="97.1212308 86.1538462 0 86.1538462 0 43.0962462 0 0.0386461538 97.1212308 0.0386461538"></polygon>
    </defs>
    <g id="Visual-Ãrea-prensa-1280" stroke="none" stroke-width="1" fill="none" fill-rule="evenodd">
        <g id="area-prensa/desayunos-2-ON" transform="translate(-583.000000, -802.000000)">
            <g id="Group" transform="translate(255.000000, 775.000000)">
                <g id="Group-8" transform="translate(260.000000, 0.000000)">
                    <g id="Page-1" transform="translate(68.000000, 27.000000)">
                        <path d="M85.1782154,0.000369230769 L71.5966769,13.5806769 L99.0366769,41.0206769 L112.618215,27.4391385 L85.1782154,0.000369230769 Z M78.5591385,13.5806769 L85.1782154,6.9616 L105.655754,27.4391385 L99.0366769,34.0582154 L78.5591385,13.5806769 Z" id="Fill-1" fill="#FFFFFF"></path>
                        <g id="Group-4" transform="translate(0.000000, 8.626215)">
                            <mask id="mask-2" fill="white">
                                <use xlink:href="#path-1"></use>
                            </mask>
                            <g id="Clip-3"></g>
                            <path d="M41.9507692,22.2343385 L41.9507692,36.8337231 C41.4449231,37.0872615 40.3446154,37.4208 38.7544615,37.4208 C37.1643077,37.4208 36.0627692,37.0872615 35.5581538,36.8337231 L35.5581538,19.9635692 L50.5624615,4.96172308 L60.8110769,4.96172308 L90.1587692,34.3094154 L80.1735385,44.2958769 L58.1132308,22.2343385 L41.9507692,22.2343385 Z M37.8375385,76.9888 C37.3981538,76.8571077 36.5833846,76.4411077 35.7046154,75.5623385 C34.8270769,74.6835692 34.4110769,73.8688 34.2781538,73.4294154 L42.8332308,64.8743385 C43.2726154,65.0060308 44.0873846,65.4220308 44.9661538,66.3008 C45.8449231,67.1795692 46.2609231,67.9943385 46.3938462,68.4337231 L37.8375385,76.9888 Z M27.2356923,66.3881846 L35.792,57.8331077 C36.2313846,57.9648 37.0461538,58.3808 37.9249231,59.2595692 C38.8024615,60.1383385 39.2184615,60.9518769 39.3526154,61.3912615 L35.0744615,65.6694154 L30.7963077,69.9488 C30.3556923,69.8146462 29.5409231,69.3986462 28.6633846,68.5211077 C27.7846154,67.6435692 27.3686154,66.8275692 27.2356923,66.3881846 L27.2356923,66.3881846 Z M21.6221538,61.4798769 C20.7446154,60.6011077 20.3286154,59.7863385 20.1944615,59.3457231 L28.7495385,50.7906462 C29.1901538,50.9235692 30.0049231,51.3383385 30.8836923,52.2171077 C31.7612308,53.0958769 32.1772308,53.9106462 32.3101538,54.3512615 L23.7550769,62.9063385 C23.3144615,62.7734154 22.4996923,62.3586462 21.6221538,61.4798769 L21.6221538,61.4798769 Z M12.2547692,51.2829538 L20.6867692,42.8509538 C21.2246154,43.0294154 22.2375385,43.5721846 23.3612308,44.6958769 C24.4861538,45.8195692 25.0289231,46.8337231 25.2073846,47.3715692 L20.9907692,51.5881846 L16.7741538,55.8035692 C16.2375385,55.6263385 15.2246154,55.0811077 14.0996923,53.9574154 C12.976,52.8337231 12.432,51.8195692 12.2547692,51.2829538 L12.2547692,51.2829538 Z M62.8504615,0.0386461538 L48.5218462,0.0386461538 L30.6350769,17.9254154 L30.6350769,37.4454154 C30.6350769,40.3291077 33.9741538,42.3438769 38.7544615,42.3438769 C43.5347692,42.3438769 46.8738462,40.3291077 46.8738462,37.4454154 L46.8738462,27.1574154 L56.0738462,27.1574154 L78.4332308,49.5168 L84.5009231,55.5857231 C84.368,56.0263385 83.952,56.8398769 83.0744615,57.7186462 C82.1969231,58.5974154 81.3809231,59.0134154 80.9415385,59.1451077 L71.6036923,49.8084923 L68.1230769,53.2891077 L77.4609231,62.6269538 C77.3267692,63.0675692 76.9107692,63.8823385 76.0332308,64.7611077 C75.1556923,65.6386462 74.3396923,66.0546462 73.8990769,66.1875692 L64.5624615,56.8497231 L61.0806154,60.3303385 L70.4184615,69.6681846 C70.2843077,70.1088 69.8695385,70.9235692 68.992,71.8011077 C68.1132308,72.6786462 67.2984615,73.0958769 66.8578462,73.2288 L57.52,63.8921846 L54.0393846,67.3728 L63.3156923,76.6478769 C63.1372308,77.1844923 62.5944615,78.1998769 61.4695385,79.3235692 C60.3458462,80.4472615 59.3316923,80.9912615 58.7950769,81.1697231 L49.7083077,72.0829538 L50.2461538,71.5438769 C52.2523077,69.5377231 51.4953846,65.8675692 48.448,62.8201846 C47.0547692,61.4269538 45.5372308,60.5383385 44.1021538,60.1481846 C44.0627692,60.0029538 44.0283077,59.8601846 43.9790769,59.7149538 C43.52,58.3771077 42.6067692,56.9789538 41.4067692,55.7789538 C40.2067692,54.5777231 38.8086154,53.6644923 37.4695385,53.2054154 C37.3243077,53.1549538 37.1803077,53.1217231 37.0363077,53.0811077 C36.6449231,51.6472615 35.7575385,50.1297231 34.3643077,48.7364923 C32.9415385,47.3137231 31.3858462,46.4128 29.9249231,46.0361846 C29.8609231,45.8208 29.8055385,45.6115692 29.7144615,45.3801846 C29.1618462,43.9943385 28.1427692,42.5161846 26.8430769,41.2152615 C25.5421538,39.9143385 24.064,38.8952615 22.6793846,38.3438769 C19.808,37.2017231 18.1969231,38.3795692 17.6393846,38.9371077 L17.1015385,39.4749538 L3.48061538,25.8540308 L0,29.3358769 L13.6196923,42.9555692 L8.33969231,48.2343385 C6.30153846,50.2737231 7.23938462,54.0583385 10.6178462,57.4392615 C12.2067692,59.0269538 13.8806154,60.0669538 15.4252308,60.5211077 C15.4683077,60.6884923 15.5101538,60.8546462 15.568,61.0244923 C16.0270769,62.3623385 16.9403077,63.7592615 18.1403077,64.9604923 C19.3403077,66.1604923 20.7384615,67.0749538 22.0775385,67.5340308 C22.2227692,67.5844923 22.3630769,67.6066462 22.5070769,67.6448 C22.8972308,69.0835692 23.7858462,70.6072615 25.1827692,72.0041846 C26.576,73.3961846 28.0984615,74.3057231 29.5335385,74.6958769 C29.5704615,74.8324923 29.6036923,74.9678769 29.6504615,75.1069538 C30.1095385,76.4448 31.0227692,77.8429538 32.224,79.0429538 C33.424,80.2441846 34.8221538,81.1574154 36.16,81.6164923 C36.8307692,81.8478769 37.4843077,81.9598769 38.0972308,81.9598769 C39.2184615,81.9598769 40.2092308,81.5808 40.9476923,80.8411077 L46.2276923,75.5635692 L55.7464615,85.0835692 C56.4676923,85.8048 57.408,86.1543385 58.4713846,86.1543385 C60.4123077,86.1543385 62.7667692,84.9888 64.9501538,82.8041846 C66.5427692,81.2128 67.5692308,79.5377231 68.0233846,77.9894154 C68.1932308,77.9463385 68.3618462,77.9155692 68.5366154,77.8552615 C69.8744615,77.3961846 71.2726154,76.4829538 72.4726154,75.2829538 C73.6726154,74.0817231 74.5870769,72.6835692 75.0461538,71.3457231 C75.0929231,71.2078769 75.1261538,71.0712615 75.1630769,70.9334154 C76.5981538,70.5444923 78.1206154,69.6361846 79.5138462,68.2417231 C80.9095385,66.8448 81.7993846,65.3235692 82.1883077,63.8860308 C82.3335385,63.8466462 82.4738462,63.8232615 82.6190769,63.7728 C83.9569231,63.3137231 85.3563077,62.4004923 86.5550769,61.1992615 C87.7563077,59.9992615 88.6695385,58.6011077 89.1286154,57.2632615 C89.7796923,55.3641846 89.4966154,53.6189538 88.3532308,52.4755692 L83.6541538,47.7764923 L97.1212308,34.3094154 L62.8504615,0.0386461538 Z" id="Fill-2" fill="#FFFFFF" mask="url(#mask-2)"></path>
                        </g>
                    </g>
                </g>
            </g>
        </g>
    </g>
</svg>