<?xml version="1.0" encoding="UTF-8"?>
<svg width="141px" height="141px" viewBox="0 0 141 141" version="1.1" xmlns="http://www.w3.org/2000/svg" xmlns:xlink="http://www.w3.org/1999/xlink">
    <!-- Generator: Sketch 46.2 (44496) - http://www.bohemiancoding.com/sketch -->
    <title>iconos_delegacion</title>
    <desc>Created with Sketch.</desc>
    <defs></defs>
    <g id="Visual-Contacta-1280" stroke="none" stroke-width="1" fill="none" fill-rule="evenodd">
        <g id="mapa_delegaciones_select" transform="translate(-911.000000, -359.000000)" fill="#4A4A4A">
            <g id="Group-3-Copy" transform="translate(742.000000, 190.000000)">
                <g id="iconos_delegacion" transform="translate(169.000000, 169.000000)">
                    <polygon id="Fill-1" points="110 32 123 32 123 19 110 19"></polygon>
                    <polygon id="Fill-2" points="86 32 99 32 99 19 86 19"></polygon>
                    <polygon id="Fill-3" points="110 57 123 57 123 44 110 44"></polygon>
                    <polygon id="Fill-4" points="110 82 123 82 123 69 110 69"></polygon>
                    <polygon id="Fill-5" points="110 108 123 108 123 95 110 95"></polygon>
                    <polygon id="Fill-6" points="41 82 54 82 54 69 41 69"></polygon>
                    <polygon id="Fill-7" points="18 82 31 82 31 69 18 69"></polygon>
                    <polygon id="Fill-8" points="41 108 54 108 54 95 41 95"></polygon>
                    <polygon id="Fill-9" points="65 82 78 82 78 69 65 69"></polygon>
                    <polygon id="Fill-10" points="65 108 78 108 78 95 65 95"></polygon>
                    <polygon id="Fill-11" points="18 108 31 108 31 95 18 95"></polygon>
                    <path d="M88.59359,63.4648791 L88.59359,134.758242 L84.0894233,134.758242 L58.5872233,134.758242 L58.5872233,117.74789 L36.27319,117.74789 L36.27319,134.758242 L10.7694233,134.758242 L6.26682333,134.758242 L6.26682333,63.4648791 C6.26682333,60.9915824 8.28625667,58.9786154 10.7694233,58.9786154 L84.0894233,58.9786154 C86.57259,58.9786154 88.59359,60.9915824 88.59359,63.4648791 M131.600157,0.52610989 L79.9001567,0.335736264 L79.8641233,0.335736264 C74.7113567,0.335736264 70.5001567,4.52551648 70.5001567,9.66248352 L70.5001567,52.7368571 L10.7694233,52.7368571 C4.84585667,52.7368571 0.000156666667,57.5648571 0.000156666667,63.4648791 L0.000156666667,141 L10.7694233,141 L84.0894233,141 L94.8602567,141 L94.8602567,107.342879 L99.5806233,107.342879 L99.5806233,94.0791429 L94.8602567,94.0791429 L94.8602567,82.1807912 L99.5806233,82.1807912 L99.5806233,68.9170549 L94.8602567,68.9170549 L94.8602567,63.4648791 C94.8602567,61.0477582 94.0377567,58.8178901 92.6700567,57.0187033 L99.5806233,57.0187033 L99.5806233,43.754967 L86.2639567,43.754967 L86.2639567,52.96 C85.56209,52.8148791 84.8351567,52.7368571 84.0894233,52.7368571 L76.7668233,52.7368571 L76.7668233,9.66248352 C76.7668233,7.9616044 78.1564567,6.57749451 79.86569,6.57593407 L79.8766567,6.57749451 L131.576657,6.76786813 C133.287457,6.77410989 134.73349,8.21907692 134.73349,9.92151648 L134.73349,141 L141.000157,141 L141.000157,9.92151648 C141.000157,4.77362637 136.770157,0.544835165 131.600157,0.52610989" id="Fill-12"></path>
                </g>
            </g>
        </g>
    </g>
</svg>