<?xml version="1.0" encoding="UTF-8"?>
<svg width="97px" height="97px" viewBox="0 0 97 97" version="1.1" xmlns="http://www.w3.org/2000/svg" xmlns:xlink="http://www.w3.org/1999/xlink">
    <!-- Generator: Sketch 46.2 (44496) - http://www.bohemiancoding.com/sketch -->
    <title>Page 1</title>
    <desc>Created with Sketch.</desc>
    <defs>
        <polygon id="path-1" points="4.06509512e-15 84.5102462 4.06509512e-15 0.124923077 96.9227538 0.124923077 96.9227538 84.5102462"></polygon>
    </defs>
    <g id="Visual-Ãrea-prensa-1280" stroke="none" stroke-width="1" fill="none" fill-rule="evenodd">
        <g id="area-prensa/desayunos-2-ON" transform="translate(-852.000000, -802.000000)">
            <g id="Group" transform="translate(255.000000, 775.000000)">
                <g id="Group-10" transform="translate(520.000000, 0.000000)">
                    <g id="Page-1" transform="translate(77.000000, 26.000000)">
                        <path d="M52.0765538,20.1202615 L47.1668615,20.1202615 L38.0507077,28.9682615 L41.2868615,32.3121077 L44.8482462,28.8056462 C46.1965538,27.4573385 46.6273231,26.5947231 46.6273231,26.5947231 L46.7360923,26.5947231 C46.7360923,26.5947231 46.6822462,27.7814923 46.6822462,28.9682615 L46.6822462,53.5684154 L38.3199385,53.5684154 L38.3199385,58.2078 L60.3850154,58.2078 L60.3850154,53.5684154 L52.0765538,53.5684154 L52.0765538,20.1202615 Z" id="Fill-1" fill="#FFFFFF"></path>
                        <g id="Group-5" transform="translate(0.000000, 0.951462)">
                            <mask id="mask-2" fill="white">
                                <use xlink:href="#path-1"></use>
                            </mask>
                            <g id="Clip-4"></g>
                            <path d="M87.2347538,61.2487077 C83.8036769,65.0351692 79.2073692,67.3311692 74.2793692,67.7274769 L59.4522923,67.7274769 L37.4496769,67.7479385 L30.4044462,67.7479385 C29.3199846,60.8050154 23.3312154,55.4871692 16.0846,55.4871692 C12.5501385,55.4871692 9.31398462,56.7536308 6.79721538,58.8536308 C5.18506154,56.0568615 4.30736923,52.9154769 4.30736923,49.7116308 C4.30736923,44.3033231 6.93829231,39.1599385 11.3450615,35.9560923 L13.5656769,34.3407077 L13.0390615,31.6462462 C12.8775231,30.8127077 12.7978308,30.0405538 12.7978308,29.2824 C12.7978308,23.1848615 17.7602923,18.2256308 23.8599846,18.2256308 C24.5686,18.2256308 25.2901385,18.2934769 26.0073692,18.4291692 L29.0238308,19.0020923 L30.5487538,16.3356308 C32.4086,13.0844 35.0718308,10.2822462 38.2616769,8.2264 C42.0879846,5.74516923 46.5421385,4.4324 51.1438308,4.4324 C57.0906,4.4324 62.7821385,6.64332308 67.1684462,10.6559385 C71.1293692,14.2819385 73.6913692,18.9784 74.5787538,24.2402462 L75.0407538,26.9810154 L77.7287538,27.6896308 C86.3376769,29.9576308 92.5978308,38.2510154 92.6150615,47.4005538 C92.6150615,52.5148615 90.7056769,57.4310154 87.2347538,61.2487077 M16.0846,80.2025538 C10.4587538,80.2025538 5.88183077,75.6256308 5.88183077,69.9987077 C5.88183077,64.3717846 10.4587538,59.7948615 16.0846,59.7948615 C21.7115231,59.7948615 26.2884462,64.3717846 26.2884462,69.9987077 C26.2884462,75.6256308 21.7115231,80.2025538 16.0846,80.2025538 M78.8261385,23.5240923 C77.7879846,17.3651692 74.7392154,11.7457846 70.0761385,7.47793846 C64.8939846,2.73732308 58.1589077,0.124707692 51.1438308,0.124707692 C45.7226,0.124707692 40.4413692,1.67870769 35.9182923,4.61116923 C32.1490615,7.04178462 29.0216769,10.3296308 26.8096769,14.1979385 C25.8533692,14.0170154 24.8572154,13.9179385 23.8599846,13.9179385 C15.3910615,13.9179385 8.49013846,20.8134769 8.49013846,29.2824 C8.49013846,30.3787077 8.60967692,31.4373231 8.81213846,32.4711692 C3.32844615,36.4590154 -0.000323076923,42.8764 -0.000323076923,49.7116308 C-0.000323076923,54.1604 1.35983077,58.4917846 3.84213846,62.2308615 C2.41306154,64.4784 1.57413846,67.1384 1.57413846,69.9987077 C1.57413846,78.0120923 8.07121538,84.5102462 16.0846,84.5102462 C23.3990615,84.5102462 29.4319846,79.0922462 30.4335231,72.0556308 L37.4496769,72.0556308 L59.4566,72.0351692 L74.4430615,72.0351692 C80.5190615,71.5936308 86.2009077,68.8054769 90.4267538,64.1424 C94.6332154,59.5159385 96.9227538,53.5799385 96.9227538,47.4005538 C96.9022923,36.2199385 89.2690615,26.2756308 78.8261385,23.5240923" id="Fill-3" fill="#FFFFFF" mask="url(#mask-2)"></path>
                        </g>
                        <path d="M40.019,93.5666308 C36.6051538,93.5666308 33.8266923,90.7892462 33.8266923,87.3743231 C33.8266923,83.9604769 36.6051538,81.1820154 40.019,81.1820154 C43.4328462,81.1820154 46.2113077,83.9604769 46.2113077,87.3743231 C46.2113077,90.7892462 43.4328462,93.5666308 40.019,93.5666308 M40.019,76.8743231 C34.2197692,76.8743231 29.519,81.5750923 29.519,87.3743231 C29.519,93.1735538 34.2197692,97.8743231 40.019,97.8743231 C45.8182308,97.8743231 50.519,93.1735538 50.519,87.3743231 C50.519,81.5750923 45.8182308,76.8743231 40.019,76.8743231" id="Fill-6" fill="#FFFFFF"></path>
                    </g>
                </g>
            </g>
        </g>
    </g>
</svg>