<?xml version="1.0" encoding="UTF-8"?>
<svg width="12px" height="10px" viewBox="0 0 12 10" version="1.1" xmlns="http://www.w3.org/2000/svg" xmlns:xlink="http://www.w3.org/1999/xlink">
    <!-- Generator: Sketch 46.2 (44496) - http://www.bohemiancoding.com/sketch -->
    <title>icono idioma</title>
    <desc>Created with Sketch.</desc>
    <defs></defs>
    <g id="Symbols-WF-1280" stroke="none" stroke-width="1" fill="none" fill-rule="evenodd">
        <g id="Footer" transform="translate(-157.000000, -228.000000)" fill="#646464">
            <g id="Group-2" transform="translate(157.000000, 226.000000)">
                <g id="Group">
                    <path d="M10.5699906,2 L1.43006024,2 C0.641553681,2 0,2.65977755 0,3.47079874 L0,8.82571194 C0,9.63668089 0.641502885,10.2965629 1.43006024,10.2965629 L2.05383531,10.2965629 L2.05383531,11.6081771 C2.05383531,11.7512186 2.12962297,11.8828711 2.2515842,11.9517274 C2.30878051,11.9840136 2.37186917,12 2.43480543,12 C2.50607224,12 2.57723746,11.9794685 2.63951337,11.9386667 L5.14583959,10.2965629 L10.5699398,10.2965629 C11.3583955,10.2965629 12,9.63673314 12,8.82571194 L12,3.47079874 C12,2.65977755 11.3584971,2 10.5699906,2" id="icono-idioma"></path>
                </g>
            </g>
        </g>
    </g>
</svg>