<?xml version="1.0" encoding="UTF-8"?>
<svg width="24px" height="21px" viewBox="0 0 24 21" version="1.1" xmlns="http://www.w3.org/2000/svg" xmlns:xlink="http://www.w3.org/1999/xlink">
    <!-- Generator: Sketch 45.2 (43514) - http://www.bohemiancoding.com/sketch -->
    <title>Like OFF</title>
    <desc>Created with Sketch.</desc>
    <defs></defs>
    <g id="Symbols-WF-1280" stroke="none" stroke-width="1" fill="none" fill-rule="evenodd">
        <g id="Like-OFF-Gris" transform="translate(1.000000, 1.000000)" stroke="#646464">
            <g id="Like-OFF">
                <polygon id="Fill-1" points="0 18.8309972 4.53162393 18.8309972 4.53162393 9.58974359 0 9.58974359"></polygon>
                <path d="M20.2362393,10.3844574 L20.24,10.3644004 C21.2014815,10.1563092 21.7279772,9.23118102 21.6678063,8.45648017 C21.6239316,7.89488472 21.2528775,7.29317532 20.3402849,7.29317532 L13.354188,7.29317532 C13.4218803,7.03870239 13.4958405,6.79049726 13.568547,6.54479925 C13.794188,5.7863947 14.0072934,5.0681041 14.039886,4.22571094 C14.1063248,2.50081065 14.1050712,1.30365965 13.5046154,0.429927459 C13.2864957,0.112776462 12.8063818,-0.0526936232 12.279886,0.0149986845 C11.7797151,0.0764231859 11.4023932,0.324628314 11.2695157,0.676879026 C11.0952707,1.14195025 10.9636467,1.77750581 10.8245014,2.4506682 C10.7267236,2.9295286 10.6239316,3.42343173 10.5010826,3.87972803 C10.2090028,4.96656564 7.62792023,8.02274797 6.83692308,8.69214968 C6.36683761,9.09203572 5.50188034,9.63733487 5.15213675,9.8529474 L5.07692308,9.89807561 L5.07692308,18.2167081 L5.7037037,18.2167081 C5.90678063,18.2167081 6.16626781,18.3834317 6.44079772,18.5601839 C6.79680912,18.7908391 7.2017094,19.0503263 7.64296296,19.0503263 L18.0099145,19.0453121 C19.2496866,19.0453121 19.9642165,18.2380186 20.0294017,17.4395001 C20.0782906,16.8377907 19.7661538,16.3589303 19.2409117,16.2009816 L19.2409117,16.1972209 C20.0569801,16.0493007 20.6060399,15.2695856 20.6549288,14.5939161 C20.6988034,13.9834317 20.3590883,13.5070785 19.7373219,13.2964802 L19.7398291,13.2839446 C20.4631339,13.1485599 21.1037037,12.4478192 21.1688889,11.7006967 C21.2215385,11.0889588 20.8843305,10.6163662 20.2362393,10.3844574" id="Fill-2"></path>
            </g>
        </g>
    </g>
</svg>