<?xml version="1.0" encoding="UTF-8"?>
<svg width="45px" height="73px" viewBox="0 0 45 73" version="1.1" xmlns="http://www.w3.org/2000/svg" xmlns:xlink="http://www.w3.org/1999/xlink">
    <!-- Generator: Sketch 46.2 (44496) - http://www.bohemiancoding.com/sketch -->
    <title>localizador seleccionado</title>
    <desc>Created with Sketch.</desc>
    <defs></defs>
    <g id="Visual-Contacta-1280" stroke="none" stroke-width="1" fill="none" fill-rule="evenodd">
        <g id="Contacto/5-general-3-2-2-mapa-desple" transform="translate(-343.000000, -2242.000000)">
            <g id="Group-13" transform="translate(0.000000, 1963.000000)">
                <g id="Group-5" transform="translate(0.000000, 192.000000)">
                    <g id="Centros-productivos" transform="translate(311.000000, 86.000000)">
                        <g id="localizador-seleccionado" transform="translate(32.000000, 1.000000)">
                            <ellipse id="Oval" fill-opacity="0.2" fill="#000000" cx="22.5" cy="67" rx="22.5" ry="5.05078125"></ellipse>
                            <g id="locating">
                                <path d="M22.4027296,0 C10.0559044,0 0.00990070756,10.0431749 0.00990070756,22.3928289 C0.00990070756,34.2722636 20.364984,65.2387195 21.2354747,66.5486988 C21.4930217,66.9377838 21.9325103,67.1784867 22.4027296,67.1784867 C22.8729489,67.1784867 23.3096087,66.9377838 23.5699844,66.5486988 C24.4376465,65.2387195 44.7955585,34.2722636 44.7955585,22.3928289 C44.7955585,10.0431749 34.7495548,0 22.4027296,0 Z M22.4027296,32.1896433 C17.0004149,32.1896433 12.6059152,27.795015 12.6059152,22.3928289 C12.6059152,16.9906428 17.0005435,12.5960145 22.4027296,12.5960145 C27.8049157,12.5960145 32.199544,16.9906428 32.199544,22.3928289 C32.199544,27.795015 27.8049157,32.1896433 22.4027296,32.1896433 Z" id="Shape" fill="#FFF101" fill-rule="nonzero"></path>
                                <path d="M22.4027296,32.1896433 C17.0004149,32.1896433 12.6059152,27.795015 12.6059152,22.3928289 C12.6059152,16.9906428 17.0005435,12.5960145 22.4027296,12.5960145 C27.8049157,12.5960145 32.199544,16.9906428 32.199544,22.3928289 C32.199544,27.795015 27.8049157,32.1896433 22.4027296,32.1896433 Z" id="Path" fill="#312783"></path>
                            </g>
                        </g>
                    </g>
                </g>
            </g>
        </g>
    </g>
</svg>