<?xml version="1.0" encoding="UTF-8"?>
<svg width="31px" height="46px" viewBox="0 0 31 46" version="1.1" xmlns="http://www.w3.org/2000/svg" xmlns:xlink="http://www.w3.org/1999/xlink">
    <!-- Generator: Sketch 46.2 (44496) - http://www.bohemiancoding.com/sketch -->
    <title>localizador delegacion</title>
    <desc>Created with Sketch.</desc>
    <defs>
        <path d="M15.0686278,0 C6.763849,0 0.0066594598,6.75528684 0.0066594598,15.0619683 C0.0066594598,23.0523688 13.6979899,43.8811698 14.2835034,44.7622942 C14.4567359,45.0240023 14.7523467,45.185905 15.0686278,45.185905 C15.3849089,45.185905 15.678617,45.0240023 15.8537522,44.7622942 C16.437363,43.8811698 30.1305962,23.0523688 30.1305962,15.0619683 C30.1305962,6.75528684 23.3734066,0 15.0686278,0 Z" id="path-1"></path>
    </defs>
    <g id="Visual-Contacta-1280" stroke="none" stroke-width="1" fill="none" fill-rule="evenodd">
        <g id="Contacto/5-general-3-2-2-mapa-desple" transform="translate(-263.000000, -2272.000000)">
            <g id="Group-13" transform="translate(0.000000, 1963.000000)">
                <g id="Group-5" transform="translate(0.000000, 192.000000)">
                    <g id="Delegaciones" transform="translate(80.000000, 0.000000)">
                        <g id="localizador-delegacion" transform="translate(183.000000, 117.000000)">
                            <g id="locating-copy-11">
                                <g id="Shape" fill-rule="nonzero">
                                    <use fill="#DA2F2A" fill-rule="evenodd" xlink:href="#path-1"></use>
                                    <path stroke="#FFFFFF" stroke-width="1" d="M15.0686278,0.5 C7.03932483,0.5 0.50665946,7.0320957 0.50665946,15.0619683 C0.50665946,18.4501834 3.07406692,24.5873572 7.3629726,32.3359738 C8.89775452,35.1088108 10.5562097,37.9112778 12.2305983,40.6099353 C12.8344727,41.5832161 13.4038212,42.4836684 13.9225184,43.2904666 C14.2652801,43.8236093 14.5539334,44.2658405 14.7004378,44.4863128 C14.7823327,44.6100342 14.9223743,44.685905 15.0686278,44.685905 C15.2144638,44.685905 15.3538771,44.6102414 15.436898,44.4861917 C15.5955243,44.2467008 15.8740236,43.8197338 16.2141538,43.2905244 C16.7336928,42.4821725 17.302468,41.5824934 17.9058469,40.6099478 C19.5809421,37.9099751 21.2389688,35.1082947 22.7735765,32.3359612 C27.0630964,24.586762 29.6305962,18.4500733 29.6305962,15.0619683 C29.6305962,7.0320957 23.0979308,0.5 15.0686278,0.5 Z"></path>
                                </g>
                                <path d="M15.0686278,21.6515471 C11.4348979,21.6515471 8.47904909,18.6956118 8.47904909,15.0619683 C8.47904909,11.4283249 11.4349844,8.47238963 15.0686278,8.47238963 C18.7022712,8.47238963 21.6582065,11.4283249 21.6582065,15.0619683 C21.6582065,18.6956118 18.7022712,21.6515471 15.0686278,21.6515471 Z" id="Path" fill="#FFFFFF"></path>
                            </g>
                        </g>
                    </g>
                </g>
            </g>
        </g>
    </g>
</svg>