<?xml version="1.0" encoding="UTF-8"?>
<svg width="100px" height="23px" viewBox="0 0 100 23" version="1.1" xmlns="http://www.w3.org/2000/svg" xmlns:xlink="http://www.w3.org/1999/xlink">
    <!-- Generator: Sketch 46.2 (44496) - http://www.bohemiancoding.com/sketch -->
    <title>logo Youtube</title>
    <desc>Created with Sketch.</desc>
    <defs></defs>
    <g id="Visual-Ãrea-prensa-1280" stroke="none" stroke-width="1" fill="none" fill-rule="evenodd">
        <g id="area-prensa/kit-de-prensa-3" transform="translate(-651.000000, -1356.000000)">
            <g id="Group-10" transform="translate(158.000000, 575.000000)">
                <g id="Group-8" transform="translate(96.000000, 662.000000)">
                    <g id="Group-2" transform="translate(0.000000, 105.000000)">
                        <g id="Group" transform="translate(274.000000, 14.000000)">
                            <g id="logo-Youtube" transform="translate(123.000000, 0.000000)">
                                <path d="M31.2255693,3.48625057 C30.8588305,2.11406445 29.7783028,1.03327427 28.4061167,0.666535407 C25.9190129,0 15.9461836,0 15.9461836,0 C15.9461836,0 5.97309182,0 3.48598806,0.666535407 C2.11380193,1.03327427 1.03327427,2.11406445 0.666535407,3.48625057 C-1.42108547e-14,5.97335433 -1.42108547e-14,11.1623023 -1.42108547e-14,11.1623023 C-1.42108547e-14,11.1623023 -1.42108547e-14,16.3515128 0.666535407,18.8386165 C1.03327427,20.2108027 2.11380193,21.2913303 3.48598806,21.6580692 C5.97309182,22.3246046 15.9461836,22.3246046 15.9461836,22.3246046 C15.9461836,22.3246046 25.9190129,22.3246046 28.4061167,21.6580692 C29.7783028,21.2913303 30.8588305,20.2108027 31.2255693,18.8386165 C31.8921047,16.3515128 31.8921047,11.1623023 31.8921047,11.1623023 C31.8921047,11.1623023 31.8921047,5.97335433 31.2255693,3.48625057 L31.2255693,3.48625057 Z" id="Path" fill="#FFFFFF"></path>
                                <polygon id="Path" fill="#DA2F2A" points="12.7568419 15.9461836 12.7568419 6.37868347 21.0421999 11.1625648"></polygon>
                                <path d="M87.0961475,14.677955 C87.0961475,15.6967907 87.0541445,16.4951106 86.9706635,17.0726521 C86.88692,17.6507186 86.7462099,18.0612982 86.5487957,18.3043906 C86.351119,18.5477456 86.0846623,18.6692919 85.7507383,18.6692919 C85.4918947,18.6692919 85.2524775,18.60865 85.0322242,18.4865787 C84.8117083,18.3650325 84.632933,18.1828444 84.4964232,17.9392269 L84.4964232,10.0024939 C84.6024808,9.62289165 84.7846689,9.31101923 85.043775,9.06740172 C85.3018311,8.82457177 85.5829888,8.70250049 85.8875107,8.70250049 C86.2067336,8.70250049 86.4537639,8.82798451 86.6286014,9.07895255 C86.8031765,9.32965807 86.9252478,9.75178841 86.9935027,10.3448185 C87.0620201,10.9375861 87.0961475,11.7815843 87.0961475,12.876288 L87.0961475,14.677955 Z M89.9812299,8.9752576 C89.7911662,8.09371924 89.4832316,7.45527335 89.0576885,7.05965741 C88.6318829,6.66456652 88.0462033,6.46662729 87.3014373,6.46662729 C86.7233707,6.46662729 86.1838945,6.63017654 85.6822209,6.95701254 C85.1802848,7.28411105 84.792807,7.71359191 84.5192623,8.24571766 L84.4958981,8.24571766 L84.4964232,0.878913172 L81.4630177,0.878913172 L81.4630177,20.7208768 L84.062742,20.7208768 L84.3822275,19.3980442 L84.4507449,19.3980442 C84.6935749,19.8695281 85.0584761,20.2420424 85.5454486,20.5158496 C86.0316335,20.7893942 86.5716348,20.925904 87.164665,20.925904 C88.2286539,20.925904 89.0120102,20.4357813 89.5136838,19.4552733 C90.0153574,18.4742403 90.2663254,16.9427053 90.2663254,14.859618 L90.2663254,12.6473715 C90.2663254,11.0814465 90.1712936,9.85758351 89.9812299,8.9752576 L89.9812299,8.9752576 Z M71.9734856,4.11760845 L68.8487235,4.11760845 L68.8487235,20.7211393 L65.7699022,20.7211393 L65.7699022,4.11760845 L62.6454026,4.11760845 L62.6454026,1.586139 L71.9734856,1.586139 L71.9734856,4.11760845 Z M79.5650062,6.74043447 L79.5650062,20.7211393 L77.1017917,20.7211393 L76.8279845,19.0103039 L76.7594671,19.0103039 C76.090044,20.3029468 75.0866969,20.9490057 73.7489007,20.9490057 C72.8214215,20.9490057 72.1372974,20.6452714 71.6965282,20.0370152 C71.255234,19.4287589 71.0349806,18.4784406 71.0349806,17.1857977 L71.0349806,6.74043447 L74.1823194,6.74043447 L74.1823194,17.0036096 C74.1823194,17.6270919 74.2505743,18.0717989 74.3876091,18.3377305 C74.5243814,18.6041872 74.7522478,18.7367592 75.0717333,18.7367592 C75.3455405,18.7367592 75.6077968,18.6535407 75.8585023,18.4857912 C76.1094704,18.3188292 76.2953337,18.1061889 76.417405,17.8473453 L76.417405,6.74043447 L79.5650062,6.74043447 Z M63.4208834,6.74043447 L63.4208834,20.7211393 L60.9579314,20.7211393 L60.6841242,19.0103039 L60.6156067,19.0103039 C59.9464462,20.3029468 58.9428365,20.9490057 57.6050404,20.9490057 C56.6775612,20.9490057 55.9931745,20.6452714 55.5526678,20.0370152 C55.1113736,19.4287589 54.8911203,18.4784406 54.8911203,17.1857977 L54.8911203,6.74043447 L58.038459,6.74043447 L58.038459,17.0036096 C58.038459,17.6270919 58.1069764,18.0717989 58.2437488,18.3377305 C58.3805211,18.6041872 58.6083875,18.7367592 58.9278729,18.7367592 C59.2016801,18.7367592 59.4639365,18.6535407 59.714642,18.4857912 C59.96561,18.3188292 60.1517359,18.1061889 60.2735447,17.8473453 L60.2735447,6.74043447 L63.4208834,6.74043447 Z M38.6275514,14.5172934 L35.046794,1.58561397 L38.1712936,1.58561397 L39.4256087,7.44713526 C39.7450942,8.8917766 39.9805736,10.1232526 40.132572,11.1418258 L40.2239286,11.1418258 C40.3299862,10.4120234 40.5659907,9.1881604 40.9308919,7.4699744 L42.2308853,1.58561397 L45.3556474,1.58561397 L41.7292118,14.5172934 L41.7292118,20.7211393 L38.6275514,20.7211393 L38.6275514,14.5172934 Z M95.1305375,8.89492682 C94.9711886,9.09260353 94.8646059,9.41576426 94.8115771,9.86414649 C94.7580232,10.3127912 94.7317713,10.9929776 94.7317713,11.9052307 L94.7317713,12.9088403 L97.0348494,12.9088403 L97.0348494,11.9052307 C97.0348494,11.0084662 97.0043972,10.3280173 96.9440179,9.86414649 C96.882851,9.40053816 96.7728555,9.07370217 96.6132441,8.88337599 C96.4536326,8.69357485 96.2060773,8.5982805 95.8718908,8.5982805 C95.5371792,8.5982805 95.2904115,8.69751263 95.1305375,8.89492682 L95.1305375,8.89492682 Z M94.7317713,14.7790247 L94.7317713,15.4862506 C94.7317713,16.3835401 94.7580232,17.0561134 94.8115771,17.5044956 C94.8646059,17.9531404 94.9746013,18.2799764 95.1420883,18.4850036 C95.3093129,18.6905559 95.5676314,18.7932008 95.9175691,18.7932008 C96.3885279,18.7932008 96.7119512,18.6104876 96.8867887,18.2455864 C97.0613638,17.8809477 97.1563956,17.2726915 97.1718842,16.4210803 L99.8860668,16.5809543 C99.9010304,16.7025005 99.908906,16.869725 99.908906,17.0826278 C99.908906,18.3750082 99.555293,19.3402901 98.8483297,19.9789985 C98.1413664,20.6174444 97.141432,20.9369298 95.8490517,20.9369298 C94.2983527,20.9369298 93.2109995,20.4507449 92.5875172,19.4773249 C91.9640349,18.50443 91.652425,16.9991468 91.652425,14.9614754 L91.652425,12.5211 C91.652425,10.4230492 91.9755857,8.89125156 92.6219072,7.92544464 C93.2682287,6.96016276 94.3742206,6.47712804 95.9401457,6.47712804 C97.0198858,6.47712804 97.8481328,6.67506727 98.4261994,7.07042069 C99.0037409,7.4657741 99.4103826,8.08164337 99.6466496,8.91750345 C99.882129,9.75388856 100,10.9097591 100,12.3843276 L100,14.7790247 L94.7317713,14.7790247 Z M49.8266063,18.1211525 C50.0009188,17.6648947 50.0886001,16.9203912 50.0886001,15.8860668 L50.0886001,11.5300912 C50.0886001,10.5264816 50.0009188,9.79326639 49.8266063,9.32913303 C49.6515062,8.86552471 49.3435716,8.63345803 48.9028024,8.63345803 C48.4769968,8.63345803 48.1764127,8.86552471 48.0018376,9.32913303 C47.8270001,9.79326639 47.7398438,10.5264816 47.7398438,11.5300912 L47.7398438,15.8860668 C47.7398438,16.9203912 47.8230623,17.6648947 47.9905493,18.1211525 C48.1575113,18.5774103 48.4615082,18.8052766 48.9028024,18.8052766 C49.3435716,18.8052766 49.6515062,18.5774103 49.8266063,18.1211525 L49.8266063,18.1211525 Z M46.2912647,20.3108223 C45.6604318,19.8850167 45.2117871,19.2237317 44.9458555,18.3264422 C44.6796614,17.4294152 44.5465643,16.2360045 44.5465643,14.7456848 L44.5465643,12.715889 C44.5465643,11.2106058 44.6985627,10.0019689 45.0028221,9.08971582 C45.3068189,8.17746276 45.7819781,7.51250246 46.428037,7.09404738 C47.0743585,6.67611735 47.9220319,6.46715233 48.9710573,6.46715233 C50.0048566,6.46715233 50.8336287,6.68005513 51.457111,7.10559821 C52.0803308,7.53140382 52.5365886,8.19688915 52.8253593,9.10100413 C53.1141301,10.0059067 53.258778,11.2106058 53.258778,12.715889 L53.258778,14.7456848 C53.258778,16.2360045 53.1180679,17.4336155 52.8369102,18.337993 C52.5554899,19.2426331 52.0992321,19.9041806 51.4686618,20.3221107 C50.8373039,20.7400407 49.98228,20.9492682 48.9028024,20.9492682 C47.7928726,20.9492682 46.9220975,20.7363654 46.2912647,20.3108223 L46.2912647,20.3108223 Z" id="Fill-1" fill="#FFFFFF"></path>
                            </g>
                        </g>
                    </g>
                </g>
            </g>
        </g>
    </g>
</svg>