<?xml version="1.0" encoding="UTF-8"?>
<svg width="73px" height="23px" viewBox="0 0 73 23" version="1.1" xmlns="http://www.w3.org/2000/svg" xmlns:xlink="http://www.w3.org/1999/xlink">
    <!-- Generator: Sketch 46.2 (44496) - http://www.bohemiancoding.com/sketch -->
    <title>logo flickr</title>
    <desc>Created with Sketch.</desc>
    <defs></defs>
    <g id="Visual-Ãrea-prensa-1280" stroke="none" stroke-width="1" fill="none" fill-rule="evenodd">
        <g id="area-prensa/kit-de-prensa-3" transform="translate(-676.000000, -1950.000000)" fill="#FFFFFF">
            <g id="Group-10" transform="translate(158.000000, 575.000000)">
                <g id="Group-4-Copy" transform="translate(96.000000, 867.000000)">
                    <g id="Group-2" transform="translate(0.000000, 494.000000)">
                        <g id="Group" transform="translate(275.000000, 14.000000)">
                            <g id="logo-flickr" transform="translate(147.000000, 0.000000)">
                                <path d="M45.5602553,21.9737043 L50.5151127,21.9737043 L50.5151127,14.5340866 L50.570384,14.5340866 L54.5340431,21.9737043 L60.5356535,21.9737043 L55.1397596,13.8417825 L60.1226778,6.94998809 L54.6995735,6.94998809 L50.570384,13.2652924 L50.5151127,13.2652924 L50.5151127,0.346008729 L45.5602553,0.346008729 L45.5602553,21.9737043 Z M43.385118,7.43990434 C42.2564501,6.86341424 40.9350415,6.60369269 39.4486693,6.60369269 C34.7134798,6.60369269 31.1072415,9.48757655 31.1072415,14.4761796 C31.1072415,19.4361158 34.7134798,22.3199997 39.4486693,22.3199997 C40.770078,22.3199997 42.2564501,22.0892317 43.4953771,21.6563624 L43.385118,17.7923594 C42.5591667,18.2538955 41.4304989,18.5130437 40.3021145,18.5130437 C38.1547545,18.5130437 36.2276293,16.9564344 36.2276293,14.5627535 C36.2276293,11.967258 37.8792485,10.410362 40.0266084,10.410362 C41.2102641,10.410362 42.1186971,10.6697969 43.0271302,11.246287 L43.385118,7.43990434 Z M23.1787894,21.9737043 L28.1339303,21.9737043 L28.1339303,6.94998809 L23.1787894,6.94998809 L23.1787894,21.9737043 Z M23.1790729,4.49840014 L28.1342137,4.49840014 L28.1342137,0.692017458 L23.1790729,0.692017458 L23.1790729,4.49840014 Z M13.9844834,21.9737043 L18.9396242,21.9737043 L18.9396242,0.346295397 L13.9844834,0.346295397 L13.9844834,21.9737043 Z M2.91832342,10.5832231 L0,10.5832231 L0,6.94998809 L3.00080517,6.94998809 L3.00080517,6.02720259 C3.00080517,1.55746928 5.01041211,0 8.97463816,0 C10.0483181,0 10.873986,0.173147699 11.5071964,0.288388385 L11.2041964,3.8642897 C10.7915042,3.72009551 10.3785286,3.63352166 9.6353425,3.63352166 C8.36892166,3.63352166 7.87346426,4.55630716 7.87346426,6.02720259 L7.87346426,6.94998809 L11.3969373,6.94998809 L11.3969373,10.5832231 L7.87346426,10.5832231 L7.87346426,21.9737043 L2.91832342,21.9737043 L2.91832342,10.5832231 Z" id="Fill-1"></path>
                                <path d="M72.8682343,6.77684039 C72.37221,6.69026654 71.7664935,6.60369269 71.1891212,6.60369269 C69.0417613,6.60369269 67.8028343,7.81486658 66.9496726,9.71834459 L66.8944013,9.71834459 L66.8944013,6.94998809 L62.37973,6.94998809 L62.37973,21.9737043 L67.3351543,21.9737043 L67.3351543,15.6297332 C67.3351543,12.688229 68.6287856,10.9292318 70.9411091,10.9292318 C71.5190483,10.9292318 72.0700604,10.9292318 72.6202222,11.1020928 L72.8682343,6.77684039 Z" id="Path"></path>
                            </g>
                        </g>
                    </g>
                </g>
            </g>
        </g>
    </g>
</svg>