<?xml version="1.0" encoding="UTF-8"?>
<svg width="24px" height="24px" viewBox="0 0 24 24" version="1.1" xmlns="http://www.w3.org/2000/svg" xmlns:xlink="http://www.w3.org/1999/xlink">
    <!-- Generator: Sketch 45.1 (43504) - http://www.bohemiancoding.com/sketch -->
    <title>Fill 91</title>
    <desc>Created with Sketch.</desc>
    <defs></defs>
    <g id="Visual-Cerca-de-ti-1280" stroke="none" stroke-width="1" fill="none" fill-rule="evenodd" fill-opacity="0.3">
        <g id="Cerca-de-ti/buscador-2" transform="translate(-553.000000, -467.000000)" fill="#FFFFFF">
            <g id="Buscador-articulos" transform="translate(161.000000, 459.000000)">
                <g id="icono-buscar" transform="translate(392.000000, 8.000000)">
                    <path d="M17.1526587,15.0943396 L16.0686106,15.0943396 L15.6843911,14.7238422 C17.0291595,13.1595197 17.838765,11.1286449 17.838765,8.9193825 C17.838765,3.99313894 13.8456261,0 8.9193825,0 C3.99313894,0 0,3.99313894 0,8.9193825 C0,13.8456261 3.99313894,17.8380789 8.9193825,17.8380789 C11.1286449,17.8380789 13.1595197,17.0291595 14.7238422,15.683705 L15.0943396,16.0686106 L15.0943396,17.1526587 L21.9554031,23.9993139 L24,21.954717 L17.1526587,15.0943396 L17.1526587,15.0943396 Z M8.9193825,15.0943396 C5.5025729,15.0943396 2.74442539,12.3361921 2.74442539,8.9193825 C2.74442539,5.5025729 5.5025729,2.74442539 8.9193825,2.74442539 C12.3361921,2.74442539 15.0943396,5.5025729 15.0943396,8.9193825 C15.0943396,12.3361921 12.3361921,15.0943396 8.9193825,15.0943396 L8.9193825,15.0943396 Z" id="Fill-91"></path>
                </g>
            </g>
        </g>
    </g>
</svg>