<?xml version="1.0" encoding="UTF-8"?>
<svg width="108px" height="108px" viewBox="0 0 108 108" version="1.1" xmlns="http://www.w3.org/2000/svg" xmlns:xlink="http://www.w3.org/1999/xlink">
    <!-- Generator: Sketch 45.2 (43514) - http://www.bohemiancoding.com/sketch -->
    <title>mundo</title>
    <desc>Created with Sketch.</desc>
    <defs>
        <path d="M83.1135391,8.79432687 C74.7251098,3.35427307 64.7261899,0.196086957 53.9912406,0.196086957 C24.3444298,0.196086957 0.311343404,24.2836957 0.311343404,54.0004348 C0.311343404,83.7147826 24.3444298,107.804783 53.9912406,107.804783 C64.7261899,107.804783 74.7251098,104.646283 83.1135391,99.2059427 L83.1135391,8.79432687 L83.1135391,8.79432687 Z" id="path-1"></path>
        <path d="M1.01264144,8.79339857 C9.40077676,3.35391379 19.3991698,0.196086957 30.1335085,0.196086957 C59.7803193,0.196086957 83.8134057,24.2836957 83.8134057,54.0004348 C83.8134057,83.7147826 59.7803193,107.804783 30.1335085,107.804783 C19.3991698,107.804783 9.40077676,104.646642 1.01264144,99.206871 L1.01264144,8.79339857 L1.01264144,8.79339857 Z" id="path-3"></path>
        <path d="M0.311343404,54.0004348 C0.311343404,83.7147826 24.3444298,107.804783 53.9912406,107.804783 L53.9912406,107.804783 C83.6380513,107.804783 107.671138,83.7147826 107.671138,54.0004348 L107.671138,54.0004348 C107.671138,24.2836957 83.6380513,0.196086957 53.9912406,0.196086957 L53.9912406,0.196086957 C24.3444298,0.196086957 0.311343404,24.2836957 0.311343404,54.0004348 L0.311343404,54.0004348 Z" id="path-5"></path>
    </defs>
    <g id="Visual-Medioambiente-1280" stroke="none" stroke-width="1" fill="none" fill-rule="evenodd">
        <g id="Medioambiente-1280" transform="translate(-326.000000, -3358.000000)">
            <g id="mundo" transform="translate(326.000000, 3357.000000)">
                <g id="Group-12" transform="translate(0.000000, 0.805870)">
                    <g id="Group-3">
                        <mask id="mask-2" fill="white">
                            <use xlink:href="#path-1"></use>
                        </mask>
                        <g id="Clip-2"></g>
                        <path d="M18.892103,-10.3704891 C-16.5759944,-10.3704891 -45.3293331,18.4495109 -45.3293331,53.999837 C-45.3293331,89.550163 -16.5759944,118.370163 18.892103,118.370163 C54.3602004,118.370163 83.1135391,89.550163 83.1135391,53.999837 C83.1135391,18.4495109 54.3602004,-10.3704891 18.892103,-10.3704891 M18.892103,-5.58788043 C51.671434,-5.58788043 78.3419927,21.1421196 78.3419927,53.999837 C78.3419927,86.855163 51.671434,113.587554 18.892103,113.587554 C-13.8884209,113.587554 -40.5577867,86.855163 -40.5577867,53.999837 C-40.5577867,21.1421196 -13.8884209,-5.58788043 18.892103,-5.58788043" id="Fill-1" fill="#36A9DF" mask="url(#mask-2)"></path>
                    </g>
                    <g id="Group-6" transform="translate(23.857732, 0.000000)">
                        <mask id="mask-4" fill="white">
                            <use xlink:href="#path-3"></use>
                        </mask>
                        <g id="Clip-5"></g>
                        <path d="M65.2340775,-10.3704891 C29.7659801,-10.3704891 1.01264144,18.4495109 1.01264144,53.999837 C1.01264144,89.550163 29.7659801,118.370163 65.2340775,118.370163 C100.702175,118.370163 129.455514,89.550163 129.455514,53.999837 C129.455514,18.4495109 100.702175,-10.3704891 65.2340775,-10.3704891 M65.2340775,-5.58788043 C98.0146014,-5.58788043 124.683967,21.1421196 124.683967,53.999837 C124.683967,86.855163 98.0146014,113.587554 65.2340775,113.587554 C32.4535537,113.587554 5.78418785,86.855163 5.78418785,53.999837 C5.78418785,21.1421196 32.4535537,-5.58788043 65.2340775,-5.58788043" id="Fill-4" fill="#36A9DF" mask="url(#mask-4)"></path>
                    </g>
                    <mask id="mask-6" fill="white">
                        <use xlink:href="#path-5"></use>
                    </mask>
                    <g id="Clip-8"></g>
                    <polygon id="Fill-7" fill="#36A9DF" mask="url(#mask-6)" points="51.6054674 107.803587 56.3770138 107.803587 56.3770138 0.194891304 51.6054674 0.194891304"></polygon>
                    <polygon id="Fill-9" fill="#36A9DF" mask="url(#mask-6)" points="0.311343404 29.483587 107.671138 29.483587 107.671138 24.7009783 0.311343404 24.7009783"></polygon>
                    <polygon id="Fill-10" fill="#36A9DF" mask="url(#mask-6)" points="0.311343404 56.3809783 107.671138 56.3809783 107.671138 51.5983696 0.311343404 51.5983696"></polygon>
                    <polygon id="Fill-11" fill="#36A9DF" mask="url(#mask-6)" points="0.311343404 83.2771739 107.671138 83.2771739 107.671138 78.4945652 0.311343404 78.4945652"></polygon>
                </g>
                <path d="M53.9913599,1.0013587 C24.3445491,1.0013587 0.311462692,25.0889674 0.311462692,54.8057065 C0.311462692,84.52125 24.3445491,108.610054 53.9913599,108.610054 C83.6393635,108.610054 107.671257,84.52125 107.671257,54.8057065 C107.671257,25.0889674 83.6393635,1.0013587 53.9913599,1.0013587 M53.9913599,5.78396739 C80.9589473,5.78396739 102.899711,27.7755978 102.899711,54.8057065 C102.899711,81.8358152 80.9589473,103.827446 53.9913599,103.827446 C27.0237724,103.827446 5.08300911,81.8358152 5.08300911,54.8057065 C5.08300911,27.7755978 27.0237724,5.78396739 53.9913599,5.78396739" id="Fill-13" fill="#36A9DF"></path>
            </g>
        </g>
    </g>
</svg>