<?xml version="1.0" encoding="UTF-8"?>
<svg width="117px" height="98px" viewBox="0 0 117 98" version="1.1" xmlns="http://www.w3.org/2000/svg" xmlns:xlink="http://www.w3.org/1999/xlink">
    <!-- Generator: Sketch 45.2 (43514) - http://www.bohemiancoding.com/sketch -->
    <title>planta</title>
    <desc>Created with Sketch.</desc>
    <defs></defs>
    <g id="Visual-Medioambiente-1280" stroke="none" stroke-width="1" fill="none" fill-rule="evenodd">
        <g id="Medioambiente-1280" transform="translate(-874.000000, -2294.000000)" fill="#FFFFFF">
            <g id="planta" transform="translate(874.000000, 2294.000000)">
                <path d="M27.4564402,11.1769465 C19.54827,11.1769465 11.4377446,14.0258783 3.99738475,19.4094894 L0.00032637929,22.3084406 L4.76655194,23.6045958 C12.6214135,25.7434694 18.8878959,31.8023426 24.4189369,37.1522451 C30.0642107,42.6108853 35.402688,47.766147 41.5832238,47.7715839 L41.6028065,47.7715839 C44.6392219,47.7715839 47.5429096,46.5558947 50.4465974,44.0799337 L53.6483782,40.4817981 C56.0026608,36.7542645 56.3344798,32.1937989 54.4882609,27.5191586 C52.7497472,23.1174503 49.2357302,19.0528293 44.5772098,16.0853732 C39.5520567,12.8786939 33.6435036,11.1823834 27.4781988,11.1769465 L27.4564402,11.1769465 Z M27.4738471,15.5264607 C32.8057967,15.5308102 37.9103688,16.992247 42.2381582,19.7531011 C46.1198959,22.2268872 49.033375,25.5520908 50.4400698,29.1165177 C51.712949,32.3373329 51.6063318,35.3613326 50.136537,37.8851382 L47.4047424,40.9537204 C45.393158,42.6141475 43.4925426,43.4220697 41.5864876,43.4220697 C37.1586085,43.4188076 32.4402519,38.8561672 27.4444729,34.0260318 C22.4334629,29.1795856 16.8545529,23.7840133 9.81890335,20.7730621 C15.5642668,17.3304217 21.5979319,15.5264607 27.4564402,15.5264607 L27.4738471,15.5264607 L27.4738471,15.5264607 Z" id="Fill-1"></path>
                <path d="M92.3009336,0.000543689269 C83.8716444,0.000543689269 75.9906725,2.52869879 69.5131315,7.31968863 C63.769944,11.5659018 59.5172218,17.4388333 57.8363685,23.4313764 C55.9096427,30.2905603 57.4664719,36.4918801 61.9900889,40.5847729 L65.7151645,43.1520736 C68.512235,44.6700541 71.1221814,45.405122 73.665764,45.405122 L73.6733795,45.405122 C81.9808204,45.405122 87.3813097,37.4705208 93.1027387,29.0716089 C98.2105746,21.5719591 103.996191,13.0708337 112.606077,8.66803802 L116.806579,6.52264016 L112.496196,4.59798015 C105.69554,1.55114549 98.9024987,0.00489320342 92.3237801,0.000543689269 L92.3009336,0.000543689269 Z M92.3216042,4.35005784 C97.0638953,4.35331998 101.944354,5.2493199 106.881384,7.01957216 C99.3713969,12.1356882 94.1721748,19.7723477 89.4940717,26.6413179 C84.2241341,34.3758414 79.6733188,41.0556078 73.665764,41.0556078 C71.9076676,41.0556078 70.0483936,40.5249671 67.9867644,39.4343264 L64.7175318,37.1812781 C61.5462131,34.1725016 60.5910097,29.7185992 62.0270785,24.6046579 C63.4522681,19.5211632 67.1240351,14.496387 72.1024072,10.8156106 C77.8205724,6.5867955 84.8050892,4.35005784 92.3009336,4.35005784 L92.3216042,4.35005784 L92.3216042,4.35005784 Z" id="Fill-3"></path>
                <path d="M59.4516196,97.8646122 L55.0998957,97.8646122 L55.0998957,61.4102467 C55.0998957,40.9381709 41.2592379,36.3972781 40.6706673,36.2135112 L41.9337551,32.0521135 C42.11,32.1032203 59.4516196,37.5955693 59.4516196,61.4102467 L59.4516196,97.8646122 Z" id="Fill-5"></path>
                <path d="M59.4516196,97.8646122 L55.0998957,97.8646122 L55.0998957,61.4102467 C55.0998957,37.9043848 72.9093256,28.1049294 73.6665256,27.6982498 L75.7216272,31.5334339 L74.6946203,29.6152982 L75.7259789,31.5301718 C75.0612531,31.8900941 59.4516196,40.5782486 59.4516196,61.4102467 L59.4516196,97.8646122 Z" id="Fill-7"></path>
            </g>
        </g>
    </g>
</svg>