<?xml version="1.0" encoding="UTF-8"?>
<svg width="109px" height="103px" viewBox="0 0 109 103" version="1.1" xmlns="http://www.w3.org/2000/svg" xmlns:xlink="http://www.w3.org/1999/xlink">
    <!-- Generator: Sketch 45.2 (43514) - http://www.bohemiancoding.com/sketch -->
    <title>vaca</title>
    <desc>Created with Sketch.</desc>
    <defs></defs>
    <g id="Visual-Medioambiente-1280" stroke="none" stroke-width="1" fill="none" fill-rule="evenodd">
        <g id="Medioambiente-1280" transform="translate(-845.000000, -3361.000000)" fill="#36A9DF">
            <g id="vaca" transform="translate(845.000000, 3361.000000)">
                <path d="M61.4888493,78.6461195 L59.0277558,78.6461195 L37.8006775,78.6461195 L33.7259258,102.248371 L59.0277558,102.248371 L61.4888493,102.248371 L75.2290718,102.248371 L71.1543202,78.6461195 L61.4888493,78.6461195 Z M41.7659687,83.3540936 L59.0277558,83.3540936 L61.4888493,83.3540936 L67.189029,83.3540936 L69.6383526,97.5392197 L61.4888493,97.5392197 L59.0277558,97.5392197 L39.3166451,97.5392197 L41.7659687,83.3540936 Z" id="Fill-1"></path>
                <polygon id="Fill-2" points="106.020517 -0.000117699353 94.1575996 11.8628001 82.5795142 11.8628001 82.5795142 16.5719513 96.1067009 16.5719513 101.311366 11.3649319 101.311366 19.6815682 82.5795142 19.6815682 82.5795142 24.3895423 106.020517 24.3895423"></polygon>
                <polygon id="Fill-3" points="2.93424488 -0.000117699353 2.93424488 24.3895423 26.3752481 24.3895423 26.3752481 19.6815682 7.64339601 19.6815682 7.64339601 11.3649319 12.8480614 16.5719513 26.3752481 16.5719513 26.3752481 11.8628001 14.7971627 11.8628001"></polygon>
                <polygon id="Fill-4" points="70.8747843 90.8606053 68.8350545 79.0471212 69.1351878 78.9941565 80.2248209 36.9484164 80.2248209 16.5711274 28.7289998 16.5711274 28.7289998 36.9484164 39.8186329 78.9941565 40.1199432 79.0471212 38.0802134 90.8606053 24.0210256 37.5604531 24.0210256 11.8631532 84.932795 11.8631532 84.932795 37.5604531 84.8551135 37.8547015"></polygon>
                <g id="Group-18" transform="translate(0.000000, 31.628641)">
                    <path d="M42.3257468,9.19938147 C42.3257468,7.2997139 40.7850623,5.75902936 38.8853947,5.75902936 C36.9857271,5.75902936 35.4450426,7.2997139 35.4450426,9.19938147 C35.4450426,11.099049 36.9857271,12.6397336 38.8853947,12.6397336 C40.7850623,12.6397336 42.3257468,11.099049 42.3257468,9.19938147" id="Fill-5"></path>
                    <path d="M73.5092489,9.19938147 C73.5092489,7.2997139 71.9685644,5.75902936 70.0688968,5.75902936 C68.1692292,5.75902936 66.6285447,7.2997139 66.6285447,9.19938147 C66.6285447,11.099049 68.1692292,12.6397336 70.0688968,12.6397336 C71.9685644,12.6397336 73.5092489,11.099049 73.5092489,9.19938147" id="Fill-7"></path>
                    <path d="M51.530307,56.6285722 C51.530307,54.7289047 49.9896225,53.1882201 48.0899549,53.1882201 C46.1902874,53.1882201 44.6496028,54.7289047 44.6496028,56.6285722 C44.6496028,58.5282398 46.1902874,60.0689243 48.0899549,60.0689243 C49.9896225,60.0689243 51.530307,58.5282398 51.530307,56.6285722" id="Fill-9"></path>
                    <path d="M64.3048064,56.6285722 C64.3048064,54.7289047 62.7641218,53.1882201 60.8644543,53.1882201 C58.9647867,53.1882201 57.4241022,54.7289047 57.4241022,56.6285722 C57.4241022,58.5282398 58.9647867,60.0689243 60.8644543,60.0689243 C62.7641218,60.0689243 64.3048064,58.5282398 64.3048064,56.6285722" id="Fill-11"></path>
                    <path d="M6.81137928,9.19938147 C9.90451829,11.7675814 12.9705864,12.9410439 15.9130703,12.739778 C19.1839353,12.4996713 21.7556662,10.5729329 23.1974833,9.19938147 C21.7568432,7.827007 19.1851123,5.89909159 15.9130703,5.65898491 C12.9729404,5.4435951 9.90451829,6.63118157 6.81137928,9.19938147 M15.2056972,17.472469 C10.6048294,17.472469 6.05339545,15.2550132 1.66438656,10.8636503 L0.000117699353,9.19938147 L1.66438656,7.53511261 C6.40649351,2.79182866 11.3345654,0.574372845 16.3144251,0.968665679 C23.610608,1.53244558 28.0890684,7.5551215 28.2762104,7.81052909 L29.2907788,9.19938147 L28.2762104,10.5882338 C28.0890684,10.8436414 23.610608,16.8663173 16.3144251,17.4300973 C15.9448491,17.4595221 15.5740961,17.472469 15.2056972,17.472469" id="Fill-13"></path>
                    <path d="M86.0618849,9.19938147 C89.1550239,11.7675814 92.2269771,12.9410439 95.1635759,12.739778 C98.434441,12.4996713 101.006172,10.5729329 102.447989,9.19938147 C101.007349,7.827007 98.435618,5.89909159 95.1635759,5.65898491 C92.2293311,5.4435951 89.1550239,6.63118157 86.0618849,9.19938147 M94.4562028,17.472469 C89.8553351,17.472469 85.3039011,15.2550132 80.9148922,10.8636503 L79.2506234,9.19938147 L80.9148922,7.53511261 C85.6558222,2.79182866 90.5768321,0.574372845 95.5649307,0.968665679 C102.861114,1.53244558 107.339574,7.5551215 107.526716,7.81052909 L108.541284,9.19938147 L107.526716,10.5882338 C107.339574,10.8436414 102.861114,16.8663173 95.5649307,17.4300973 C95.1953548,17.4595221 94.8246018,17.472469 94.4562028,17.472469" id="Fill-15"></path>
                </g>
            </g>
        </g>
    </g>
</svg>