<?xml version="1.0" standalone="no"?>
<!DOCTYPE svg PUBLIC "-//W3C//DTD SVG 1.1//EN" "http://www.w3.org/Graphics/SVG/1.1/DTD/svg11.dtd" >
<svg>
<metadata>
Created by FontForge 20090914 at Thu Jul 20 11:16:24 2017
 By www-data
Generated by Fontographer 4.1.5
</metadata>
<defs>
<font id="AlwynLight" horiz-adv-x="360" >
  <font-face 
    font-family="Alwyn"
    font-weight="300"
    font-stretch="normal"
    units-per-em="1000"
    panose-1="0 0 3 0 0 0 0 0 0 0"
    ascent="800"
    descent="-200"
    x-height="527"
    cap-height="712"
    bbox="-36 -195 1128 925.001"
    underline-thickness="20"
    underline-position="-123"
    unicode-range="U+0020-U+F002"
  />
<missing-glyph horiz-adv-x="500" 
d="M63 0v775h375v-775h-375zM125 63h250v650h-250v-650z" />
    <glyph glyph-name=".notdef" horiz-adv-x="500" 
d="M63 0v775h375v-775h-375zM125 63h250v650h-250v-650z" />
    <glyph glyph-name="space" unicode=" " horiz-adv-x="210" 
 />
    <glyph glyph-name="exclam" unicode="!" horiz-adv-x="337" 
d="M213 712l-12 -493l-57 -9l-13 502h82zM219 41c0 -13.333 -5 -24.833 -15 -34.5s-21.667 -14.5 -35 -14.5c-12.667 0 -24 4.83301 -34 14.5s-15 21.167 -15 34.5s4.83301 25 14.5 35s21.167 15 34.5 15s25 -5 35 -15s15 -21.667 15 -35z" />
    <glyph glyph-name="quotedbl" unicode="&#x22;" horiz-adv-x="384" 
d="M276 474h-61v220h61v-220zM164 474h-61v220h61v-220z" />
    <glyph glyph-name="numbersign" unicode="#" horiz-adv-x="644" 
d="M542 300h-94v-150h-65v150h-121v-150h-65v150h-94v62h94v118h-94v62h94v150h65v-150h121v150h65v-150h94v-62h-94v-118h94v-62zM383 362v118h-121v-118h121z" />
    <glyph glyph-name="dollar" unicode="$" horiz-adv-x="580" 
d="M493 187c0 -58.667 -19 -105.666 -57 -140.999s-89.667 -53.333 -155 -54l-4 -46l-44 4l4 44c-44 4.66699 -93.667 15.667 -149 33l11 62c34 -10 57.667 -16.667 71 -20c26.667 -6 51 -10 73 -12l25 284c-56 25.333 -95.333 48.333 -118 69c-36 32.667 -54 74 -54 124
c0 57.333 18.667 102.5 56 135.5s87 49.833 149 50.5l4 46l43 -3l-4 -44c36 -4 76 -13.667 120 -29l-15 -58c-32 12 -68.667 20 -110 24l-23 -263c56.667 -24.667 97 -48.334 121 -71.001c37.333 -34.667 56 -79.667 56 -135zM286 55.001
c94 3.33301 140.999 47.333 140.999 132c0 32 -11.667 59.333 -35 82c-17.333 17.333 -44.666 35 -81.999 53zM294.999 658.001c-88 -3.33301 -132 -44.667 -132 -124c0 -29.333 10.667 -54.333 32 -75c16 -15.333 42.333 -31 79 -47z" />
    <glyph glyph-name="percent" unicode="%" horiz-adv-x="872" 
d="M407 531c0 -46.667 -13.666 -85.667 -40.999 -117c-29.333 -33.333 -67 -50 -113 -50c-46.667 0 -84.334 16.667 -113.001 50c-27.333 31.333 -41 70.333 -41 117c0 48 14 88.167 42 120.5s65.333 48.5 112 48.5c46 0 83.667 -16.667 113 -50
c27.333 -31.333 41 -71 41 -119zM556.001 691l-200 -690h-37l200 690h37zM773.001 160c0 -46.667 -13.667 -86.001 -41 -118.001c-29.333 -33.333 -67 -50 -113 -50c-46.667 0 -84 16.333 -112 49s-42 72.334 -42 119.001c0 48 14 88 42 120s65.333 48 112 48
c46 0 83.667 -16.333 113 -49c27.333 -31.333 41 -71 41 -119zM364.001 530.999c0 36 -9.33301 66.333 -28 91c-20.667 26 -48.334 39 -83.001 39s-61.834 -12.667 -81.501 -38s-29.5 -56 -29.5 -92c0 -34.667 9.33301 -64 28 -88c20.667 -26.667 48.334 -40 83.001 -40
s62.334 13.333 83.001 40c18.667 24 28 53.333 28 88zM730.001 159.999c0 36 -9.33301 66 -28 90c-20.667 26 -48.334 39 -83.001 39s-61.834 -12.5 -81.501 -37.5s-29.5 -55.5 -29.5 -91.5c0 -35.333 9.33301 -65 28 -89c20.667 -26.667 48.334 -40 83.001 -40
s62.334 13.333 83.001 40c18.667 24 28 53.667 28 89z" />
    <glyph glyph-name="ampersand" unicode="&#x26;" horiz-adv-x="697" 
d="M452 73l0.000976562 271.999h-128c-48.667 0 -86.334 -15.333 -113.001 -46c-24 -27.333 -36 -61.666 -36 -102.999c0 -38 11.667 -70 35 -96c28 -30 66.667 -45 116 -45c40.667 0 82.667 6 126 18zM605.001 349.999l-96.001 -5.00195v-317
c-57.333 -24 -119.333 -36 -186 -36c-64 0 -116 20.333 -156 61c-38 38.667 -57 86.334 -57 143.001c0 89.333 39.333 150 118 182v1c-63.333 37.333 -95 89.333 -95 156c0 56 18.667 100.833 56 134.5s87.333 50.5 150 50.5c30 0 65.667 -4 107 -12l-10 -60
c-36.667 6.66699 -69 10 -97 10c-47.333 0 -83.666 -12 -108.999 -36c-23.333 -21.333 -35 -50.666 -35 -87.999c0 -34 10.667 -64 32 -90c24.667 -30 58 -45 100 -45h126l11 98h45v-98h96v-49z" />
    <glyph glyph-name="quotesingle" unicode="'" horiz-adv-x="271" 
d="M164 474h-61v220h61v-220z" />
    <glyph glyph-name="parenleft" unicode="(" horiz-adv-x="369" 
d="M284 -186c-119.333 0 -179 63.333 -179 190v581c0 126 59.667 189 179 189v-57c-79.333 0 -119 -44 -119 -132v-581c0 -89.333 39.667 -134 119 -134v-56z" />
    <glyph glyph-name="parenright" unicode=")" horiz-adv-x="369" 
d="M284 4c0 -126.667 -59.667 -190 -179 -190v56c79.333 0 119 44.667 119 134v581c0 88 -39.667 132 -119 132v57c119.333 0 179 -63 179 -189v-581z" />
    <glyph glyph-name="asterisk" unicode="*" horiz-adv-x="550" 
d="M448 442l-27 -47l-127 80l8 -149l-54 1l6 150l-125 -82l-27 47l133 70l-133 68l27 46l127 -80l-8 149h54l-6 -150l125 81l27 -46l-133 -70z" />
    <glyph glyph-name="plus" unicode="+" horiz-adv-x="591" 
d="M492 235h-163v-172h-66v172h-163v67h163v172h66v-172h163v-67z" />
    <glyph glyph-name="comma" unicode="," horiz-adv-x="222" 
d="M166 38l-57.999 -156l-53 14l28 164c6 21.333 20 32 42 32c11.333 0 21.166 -4.33301 29.499 -13s12.5 -18.667 12.5 -30c0 -4 -0.333008 -7.66699 -1 -11z" />
    <glyph glyph-name="hyphen" unicode="-" horiz-adv-x="455" 
d="M382 233h-309v73h309v-73z" />
    <glyph glyph-name="hyphen" unicode="&#x2010;" horiz-adv-x="455" 
d="M382 233h-309v73h309v-73z" />
    <glyph glyph-name="period" unicode="." horiz-adv-x="208" 
d="M153 42c0 -13.333 -5 -25 -15 -35s-21.667 -15 -35 -15c-12.667 0 -23.834 5 -33.501 15s-14.5 21.667 -14.5 35s4.83301 25 14.5 35s20.834 15 33.501 15c13.333 0 25 -5 35 -15s15 -21.667 15 -35z" />
    <glyph glyph-name="slash" unicode="/" horiz-adv-x="373" 
d="M316 787l-208 -787h-51l208 787h51z" />
    <glyph glyph-name="zero" unicode="0" horiz-adv-x="580" 
d="M517 244c0 -74.667 -20 -134.668 -60 -180.001c-41.333 -48 -97 -72 -167 -72s-125.667 24.333 -167 73c-39.333 46.667 -59 106.334 -59 179.001v205c0 74.667 20 135.167 60 181.5s95.333 69.5 166 69.5c70 0 125.333 -23.667 166 -71s61 -107.333 61 -180v-205z
M452 243.999v205c0 51.333 -11.333 93.333 -34 126c-28.667 41.333 -71.334 62 -128.001 62c-57.333 0 -100.333 -20.667 -129 -62c-22 -32.667 -33 -74.667 -33 -126v-205c0 -50.667 11 -92.667 33 -126c28.667 -42.667 71.667 -64 129 -64
c56.667 0 99.334 21.333 128.001 64c22.667 33.333 34 75.333 34 126z" />
    <glyph glyph-name="one" unicode="1" horiz-adv-x="580" 
d="M478 0h-362v63h158v561l-156 -64l-22 56l184 76h59v-630l139 -8v-54z" />
    <glyph glyph-name="two" unicode="2" horiz-adv-x="580" 
d="M440 16c0 -10.667 -5.33496 -15.999 -16.002 -15.999h-368v63c0 100.667 45 183.667 135 249l75 52c28.667 21.333 51.667 41 69 59c26 27.333 39 60 39 98c0 37.333 -14 66.666 -42 87.999c-26 19.333 -58.333 29 -97 29c-37.333 0 -84.666 -11.333 -141.999 -34l-20 56
c59.333 26.667 113.333 40 162 40c54.667 0 101.334 -16 140.001 -48c41.333 -34 62 -77.667 62 -131c0 -62 -27.333 -116.333 -82 -163l-152 -115c-54.667 -50 -82 -110.333 -82 -181h319v-46z" />
    <glyph glyph-name="three" unicode="3" horiz-adv-x="580" 
d="M465 192c0 -56.667 -19.668 -103.667 -59.001 -141c-42 -39.333 -98.667 -59 -170 -59c-56 0 -107 10 -153 30l15 58c47.333 -17.333 93.333 -26 138 -26c50 0 89.667 12.5 119 37.5s44 58.5 44 100.5c0 50 -16.667 88.333 -50 115
c-29.333 23.333 -65.666 35 -108.999 35h-47v57h37c44.667 0 80.834 11 108.501 33s41.5 51.667 41.5 89c0 34.667 -12.333 62.667 -37 84s-59.667 32 -105 32c-38.667 0 -80.334 -8.66699 -125.001 -26l-20 58c54 20.667 102.333 31 145 31c62 0 112.167 -16 150.5 -48
s57.5 -75.667 57.5 -131c0 -28 -8 -54.667 -24 -80c-18.667 -29.333 -45.667 -52.333 -81 -69v-2c82.667 -36.667 124 -96 124 -178z" />
    <glyph glyph-name="four" unicode="4" horiz-adv-x="580" 
d="M538 222l-14 -59.999h-125v-162h-63v162h-177c-23.333 0 -43.333 5.66699 -60 17c-22 15.333 -33 38 -33 68c0 7.33301 0.666992 14.666 2 21.999l66 423h62l-67 -434c-4 -24 6 -36 30 -36h177v342l63 -9v-333h139z" />
    <glyph glyph-name="five" unicode="5" horiz-adv-x="580" 
d="M495 221c0 -68.667 -22.999 -123.999 -68.999 -165.999s-103.333 -63 -172 -63c-45.333 0 -104.333 12.667 -177 38l16 60c73.333 -24 127.666 -36 162.999 -36c53.333 0 96.333 16.667 129 50c30 30.667 45 69.667 45 117c0 45.333 -12 81.333 -36 108
c-27.333 30.667 -67.333 46 -120 46c-45.333 0 -91 -8.66699 -137 -26l-28 46v297h349l-7 -62h-282v-211c38 10 73 15 105 15c69.333 0 123.5 -19.333 162.5 -58s58.5 -90.334 58.5 -155.001z" />
    <glyph glyph-name="six" unicode="6" horiz-adv-x="580" 
d="M505 216c0 -70 -21.3359 -125.333 -64.0029 -166c-39.333 -38.667 -89.666 -58 -150.999 -58s-111.666 19.333 -150.999 58c-42 40.667 -63 96 -63 166v260c0 64 18.667 116.333 56 157c40.667 44.667 97.334 67 170.001 67c42.667 0 92.334 -10 149.001 -30l-14 -60
c-51.333 18 -96.333 27 -135 27c-56.667 0 -99.334 -17.333 -128.001 -52c-22.667 -28.667 -34 -65 -34 -109v-80c50.667 31.333 100.667 47 150 47c62 0 112.667 -19.333 152 -58c42 -40.667 63 -97 63 -169zM440.997 216c0 50 -13.167 90.501 -39.5 121.501
s-64.5 46.5 -114.5 46.5c-46 0 -95 -15 -147 -45v-124c0 -47.333 12 -85.333 36 -114c26 -31.333 63.667 -47 113 -47s87.333 15.667 114 47c25.333 29.333 38 67.666 38 114.999z" />
    <glyph glyph-name="seven" unicode="7" horiz-adv-x="580" 
d="M494 638l-227 -638h-67l223 630h-347v62h399z" />
    <glyph glyph-name="eight" unicode="8" horiz-adv-x="580" 
d="M511 195c0 -65.333 -23.333 -116.668 -70 -154.001c-40.667 -32.667 -91 -49 -151 -49c-59.333 0 -109.333 16.333 -150 49c-46.667 37.333 -70 88.666 -70 153.999c0 80.667 35.333 137.334 106 170.001c-56 36 -84 86.333 -84 151c0 56.667 20.333 102.334 61 137.001
c38 31.333 83.667 47 137 47c54 0 99.667 -15.667 137 -47c40.667 -34 61 -79.667 61 -137c0 -66 -28 -116 -84 -150c71.333 -34 107 -91 107 -171zM424 515.998c0 38 -14.332 68 -42.999 90c-25.333 20.667 -56.333 31 -93 31c-37.333 0 -68 -10.333 -92 -31
c-26.667 -22 -40 -52 -40 -90c0 -38.667 14.333 -70 43 -94c25.333 -21.333 55.666 -32 90.999 -32c34.667 0 65 11 91 33c28.667 24 43 55 43 93zM447.001 194.998c0 44.667 -16.665 79.334 -49.998 104.001c-28.667 21.333 -64.334 32 -107.001 32
s-78.334 -10.667 -107.001 -32c-32.667 -24.667 -49 -59.334 -49 -104.001s16.333 -80 49 -106c29.333 -23.333 65 -35 107 -35c41.333 0 77 11.667 107 35c33.333 26 50 61.333 50 106z" />
    <glyph glyph-name="nine" unicode="9" horiz-adv-x="580" 
d="M505 216c0 -64 -18.999 -116.333 -56.999 -157c-40.667 -44.667 -97 -67 -169 -67c-42.667 0 -92.334 10 -149.001 30l14 60c50.667 -18 95.667 -27 135 -27c56 0 98.333 17.333 127 52c23.333 28.667 35 65 35 109v80c-51.333 -31.333 -101.333 -47 -150 -47
c-62.667 0 -113.667 19.333 -153 58c-41.333 40.667 -62 97 -62 169c0 70 21 125.333 63 166c39.333 38.667 90 58 152 58c60.667 0 110.667 -19.333 150 -58c42.667 -40.667 64 -96 64 -166v-260zM441.001 353l-0.000976562 123.999c0 47.333 -12.333 85.333 -37 114
c-26 31.333 -63.333 47 -112 47c-50 0 -87.833 -15.167 -113.5 -45.5s-38.5 -69.166 -38.5 -116.499c0 -50 12.667 -90 38 -120c26.667 -32 65.334 -48 116.001 -48c45.333 0 94.333 15 147 45z" />
    <glyph glyph-name="colon" unicode=":" horiz-adv-x="208" 
d="M153 41c0 -12.667 -5 -24 -15 -34s-21.333 -15 -34 -15c-13.333 0 -24.833 5 -34.5 15s-14.5 21.333 -14.5 34c0 14 4.83301 26 14.5 36s21.167 15 34.5 15c12.667 0 24 -5 34 -15s15 -22 15 -36zM153 369c0 -13.333 -5 -25 -15 -35s-21.333 -15 -34 -15
c-13.333 0 -24.833 5 -34.5 15s-14.5 21.667 -14.5 35s4.83301 25 14.5 35s21.167 15 34.5 15c12.667 0 24 -5 34 -15s15 -21.667 15 -35z" />
    <glyph glyph-name="semicolon" unicode=";" horiz-adv-x="231" 
d="M176 371c0 -13.333 -5 -24.833 -15 -34.5s-21.667 -14.5 -35 -14.5s-24.833 4.83301 -34.5 14.5s-14.5 21.167 -14.5 34.5s4.83301 25 14.5 35s21.167 15 34.5 15s25 -5 35 -15s15 -21.667 15 -35zM166 38l-57.999 -156l-53 14l28 164c6 22 20 33 42 33
c11.333 0 21.166 -4.33301 29.499 -13s12.5 -19 12.5 -31c0 -3.33301 -0.333008 -7 -1 -11z" />
    <glyph glyph-name="less" unicode="&#x3c;" horiz-adv-x="613" 
d="M508 81l-29 -56l-381 220v47l381 220l29 -55l-326 -188z" />
    <glyph glyph-name="equal" unicode="=" horiz-adv-x="588" 
d="M489 323h-389v68h389v-68zM489 146h-389v68h389v-68z" />
    <glyph glyph-name="greater" unicode="&#x3e;" horiz-adv-x="613" 
d="M511 246l-382 -218l-27 52l332 189l-332 189l27 51l382 -218v-45z" />
    <glyph glyph-name="question" unicode="?" horiz-adv-x="551" 
d="M433 564c0 -30.667 -7.99805 -59.998 -23.998 -87.998c-2.66699 -4.66699 -19.334 -26.334 -50.001 -65.001c-22.667 -28 -38 -52 -46 -72c-14 -32.667 -21 -73.334 -21 -122.001l-65 -7c0 57.333 7.66699 105 23 143c9.33301 24 26 51 50 81l47 59
c15.333 23.333 23 47 23 71c0 26 -9.16699 48 -27.5 66s-43.5 27 -75.5 27s-72 -12 -120 -36l-27 56c54 28.667 103 43 147 43c51.333 0 92.666 -16 123.999 -48c28 -29.333 42 -65.333 42 -108zM309.002 41.002c0 -12.667 -5 -24 -15 -34s-21.667 -15 -35 -15
c-12.667 0 -24 5 -34 15s-15 21.333 -15 34c0 13.333 4.83301 25 14.5 35s21.167 15 34.5 15s25 -4.83301 35 -14.5s15 -21.5 15 -35.5z" />
    <glyph glyph-name="at" unicode="@" horiz-adv-x="894" 
d="M795 355c0 -70 -17.001 -134.335 -51.001 -193.002h-190l-4 25c-39.333 -20.667 -76.333 -31 -111 -31c-45.333 0 -81.666 14 -108.999 42s-41 65.333 -41 112v91c0 48.667 13.5 86.5 40.5 113.5s63.5 40.5 109.5 40.5c25.333 0 59.333 -7.66699 102 -23v15h53v-337h116
c21.333 42 32 90.333 32 145c0 92 -29 166.333 -87 223c-54.667 54 -124 81 -208 81c-83.333 0 -152.333 -27 -207 -81c-57.333 -56.667 -86 -131 -86 -223c0 -93.333 28.667 -167.666 86 -222.999c54 -53.333 123 -80 207 -80c54.667 0 99.667 7.66699 135 23l9 -52
c-42.667 -16.667 -90.667 -25 -144 -25c-98 0 -179.667 32.333 -245 97c-68 66.667 -102 153.334 -102 260.001c0 106 34 192.667 102 260c65.333 65.333 147 98 245 98c98.667 0 180.667 -32.667 246 -98c68 -67.333 102 -154 102 -260zM540.999 230.998v252
c-36 14.667 -70 22 -102 22c-64.667 0 -97 -34.667 -97 -104v-91c0 -69.333 32.333 -104 97 -104c32.667 0 66.667 8.33301 102 25z" />
    <glyph glyph-name="A" unicode="A" horiz-adv-x="655" 
d="M609 0h-63l-60 219h-318l-59 -219h-64l165 611c19.333 72.667 58.333 109 117 109s97.667 -36.333 117 -109zM470 281l-84 313c-11.333 43.333 -31 65 -59 65c-26.667 0 -46 -21.667 -58 -65l-85 -313h286z" />
    <glyph glyph-name="B" unicode="B" horiz-adv-x="578" 
d="M523 201c0 -58 -16.668 -105 -50.001 -141c-37.333 -40 -90.333 -60 -159 -60h-228v679c74.667 27.333 143.334 41 206.001 41s113 -19 151 -57c35.333 -36 53 -81 53 -135c0 -62 -32.667 -111 -98 -147v-2c83.333 -36.667 125 -96 125 -178zM429.999 528
c0 37.333 -10.333 67.334 -31 90.001c-24 26.667 -59.667 40 -107 40c-50 0 -97.333 -7.66699 -142 -23v-233h141c39.333 0 72.333 12.667 99 38s40 54.666 40 87.999zM457.999 201.001c0 37.333 -12.332 69.667 -36.999 97c-26.667 30 -62.334 45 -107.001 45h-164v-281
h164c96 0 144 46.333 144 139z" />
    <glyph glyph-name="C" unicode="C" horiz-adv-x="540" 
d="M509 25c-71.333 -22 -138.667 -33.001 -202 -33.001c-80 0 -141.333 24.667 -184 74c-38.667 45.333 -58 106 -58 182v216c0 76.667 19.333 137.334 58 182.001c42.667 49.333 104 74 184 74c60.667 0 128 -9.66699 202 -29l-13 -63c-54 19.333 -117 29 -189 29
c-118.667 0 -178 -65.667 -178 -197v-208c0 -132 59 -198 177 -198c63.333 0 126 10.333 188 31z" />
    <glyph glyph-name="D" unicode="D" horiz-adv-x="636" 
d="M565 231c0 -154 -82.333 -231 -247 -231h-232v712h232c164.667 0 247 -77 247 -231v-250zM500 243v227c0 120 -60.667 180 -182 180h-168v-588h168c121.333 0 182 60.333 182 181z" />
    <glyph glyph-name="E" unicode="E" horiz-adv-x="521" 
d="M461 16c0 -10.667 -5 -15.999 -15 -15.999h-171c-62 0 -109 15.667 -141 47s-48 73.666 -48 126.999v364c0 54 15.833 96.5 47.5 127.5s78.834 46.5 141.501 46.5h183v-62h-183c-82.667 0 -124 -38 -124 -114v-141h292v-61h-292v-157c0 -36.667 8 -64 24 -82
c19.333 -21.333 52.666 -32 99.999 -32h186v-47z" />
    <glyph glyph-name="F" unicode="F" horiz-adv-x="495" 
d="M456 650h-306v-268h277v-60h-277v-322h-64v712h370v-62z" />
    <glyph glyph-name="G" unicode="G" horiz-adv-x="605" 
d="M541 31c-83.333 -26 -155.333 -39.001 -216 -39.001c-81.333 0 -144.666 24 -189.999 72c-43.333 46 -65 107 -65 183v217c0 77.333 19.667 138 59 182c44 49.333 110.333 74 199 74c68 0 131.667 -9.66699 191 -29l-13 -61c-54 18 -113.333 27 -178 27
c-129.333 0 -194 -65.667 -194 -197v-210c0 -55.333 12.667 -99.666 38 -132.999c32 -42 82.667 -63 152 -63c53.333 0 105.666 7.66699 156.999 23v248l60 10v-304z" />
    <glyph glyph-name="H" unicode="H" horiz-adv-x="647" 
d="M560 16c0 -10.667 -5 -16 -15 -16h-49v334h-345v-334h-65v712h65v-318h345v318h64v-696z" />
    <glyph glyph-name="I" unicode="I" horiz-adv-x="225" 
d="M145 16c0 -10.667 -5 -16 -15 -16h-50v712h65v-696z" />
    <glyph glyph-name="J" unicode="J" horiz-adv-x="471" 
d="M401 218c0 -150.667 -70.334 -226 -211.001 -226c-46 0 -96.667 9 -152 27l12 61c56.667 -17.333 103.334 -26 140.001 -26c97.333 0 146 54.667 146 164v494h65v-494z" />
    <glyph glyph-name="K" unicode="K" horiz-adv-x="579" 
d="M539 0h-66l-89 275c-7.33301 24 -17 40.333 -29 49c-15.333 12.667 -38.333 18 -69 16l-135 -9v-315c0 -10.667 -5 -16 -15 -16h-50v712h65v-321l135 8l139 313h66l-144 -319c46.667 -10.667 79 -43.667 97 -99z" />
    <glyph glyph-name="L" unicode="L" horiz-adv-x="540" 
d="M480 16c0 -10.667 -5 -16 -15 -16h-379v712h65v-649h329v-47z" />
    <glyph glyph-name="M" unicode="M" horiz-adv-x="838" 
d="M784 0h-68l-74 617l-16 -70l-116 -408c-16.667 -59.333 -47.667 -89 -93 -89c-46 0 -77.333 29.667 -94 89l-116 408l-15 70l-11 -99l-65 -518h-66l90 712h86l158 -556c8 -28 19 -42 33 -42c13.333 0 24 14 32 42l158 556h86z" />
    <glyph glyph-name="N" unicode="N" horiz-adv-x="633" 
d="M546 0l-83.001 -0.00195312l-254 578c-12.667 28.667 -23 47.834 -31 57.501s-17.333 14.834 -28 15.501v-651h-64v712h58c31.333 0 55.333 -8.33301 72 -25c14.667 -13.333 31.334 -41.333 50.001 -84l224 -501l-9 63v547h65v-712z" />
    <glyph glyph-name="O" unicode="O" horiz-adv-x="656" 
d="M586 265c0 -77.333 -23 -141.333 -69 -192c-48 -54 -111 -81 -189 -81s-141.333 27.333 -190 82c-45.333 51.333 -68 115 -68 191v181c0 78 22.667 142.667 68 194c48 53.333 111.333 80 190 80c77.333 0 140.333 -27.667 189 -83c46 -52 69 -115.667 69 -191v-181z
M521 268v175c0 55.333 -14.667 102.666 -44 141.999c-34.667 48 -84.334 72 -149.001 72c-65.333 0 -115.666 -24 -150.999 -72c-28.667 -39.333 -43 -86.666 -43 -141.999v-175c0 -54.667 14.333 -101.667 43 -141c35.333 -48.667 85.666 -73 150.999 -73
c64.667 0 114.334 24.333 149.001 73c29.333 39.333 44 86.333 44 141z" />
    <glyph glyph-name="P" unicode="P" horiz-adv-x="533" 
d="M498 493c0 -62.667 -18.667 -114 -56 -154c-40.667 -43.333 -95.667 -65 -165 -65h-127v-274h-64v712h191c69.333 0 124.333 -21.667 165 -65c37.333 -40.667 56 -92 56 -154zM433 493c0 43.333 -11.667 79 -35 107c-28 33.333 -68.667 50 -122 50h-126v-316h127
c53.333 0 94 17 122 51c22.667 28.667 34 64.667 34 108z" />
    <glyph glyph-name="Q" unicode="Q" horiz-adv-x="656" 
d="M328 54c64.667 0 114.667 24 150 72c29.333 39.333 44 86.333 44 141v175c0 55.333 -14.667 103 -44 143c-35.333 48 -85.333 72 -150 72c-65.333 0 -115.666 -24 -150.999 -72c-28 -39.333 -42 -87 -42 -143v-175c0 -54.667 14 -101.667 42 -141
c35.333 -48 85.666 -72 150.999 -72zM328 -9c-78 0 -141.334 27.334 -190.001 82.001c-45.333 51.333 -68 115 -68 191v181c0 78 22.667 142.667 68 194c48 53.333 111.333 80 190 80c77.333 0 140.333 -27.667 189 -83c46 -52 69 -115.667 69 -191v-181
c0 -62 -15.667 -116.833 -47 -164.5s-74.666 -79.834 -129.999 -96.501l64 -176l-45 -17c-2 -0.666992 -3.66699 -1 -5 -1c-6.66699 0 -11 3.33301 -13 10l-63 173c-6 -0.666992 -12.333 -1 -19 -1z" />
    <glyph glyph-name="R" unicode="R" horiz-adv-x="569" 
d="M509 497c0 -43.333 -12.002 -82.333 -36.002 -117c-25.333 -37.333 -61.333 -63.333 -108 -78l49 -108l77 -194h-72l-116 290c-3.33301 -0.666992 -8.66602 -1 -15.999 -1h-136v-289h-65v683c86 24.667 156.667 37 212 37c66.667 0 119.334 -22.333 158.001 -67
c35.333 -41.333 53 -93.333 53 -156zM442.998 497c0 44 -11.001 80.668 -33.001 110.001c-25.333 34 -62.666 51 -111.999 51c-45.333 0 -94.333 -7.66699 -147 -23v-287h139c50 0 88.667 15.333 116 46c24.667 27.333 37 61.666 37 102.999z" />
    <glyph glyph-name="S" unicode="S" horiz-adv-x="505" 
d="M455 187c0 -59.333 -19.332 -106.666 -57.999 -141.999s-91.334 -53 -158.001 -53c-52.667 0 -115.667 11.667 -189 35l11 61c80.667 -22.667 139.667 -34 177 -34c50.667 0 89 12.667 115 38c24 23.333 36 55 36 95c0 47.333 -28.667 87 -86 119l-159 79
c-57.333 38 -86 87.667 -86 149c0 58 19.167 103.5 57.5 136.5s88.833 49.5 151.5 49.5c49.333 0 102.333 -10 159 -30l-15 -59c-44 17.333 -92 26 -144 26c-94.667 0 -142 -41 -142 -123c0 -44.667 28.667 -81.667 86 -111l158 -78c57.333 -38.667 86 -91.334 86 -158.001z
" />
    <glyph glyph-name="T" unicode="T" horiz-adv-x="559" 
d="M508 650h-197v-650h-65v650h-196v62h458v-62z" />
    <glyph glyph-name="U" unicode="U" horiz-adv-x="639" 
d="M564 263c0 -86.667 -21.334 -153.5 -64.001 -200.5s-102.667 -70.5 -180 -70.5c-78 0 -138.333 23.5 -181 70.5s-64 113.833 -64 200.5v449h64v-468c0 -53.333 14.667 -97.333 44 -132c32.667 -38.667 78.334 -58 137.001 -58c58 0 103 19.333 135 58
c29.333 34.667 44 78.667 44 132v468h65v-449z" />
    <glyph glyph-name="V" unicode="V" horiz-adv-x="599" 
d="M569 712l-232 -712h-75l-232 712h66l203 -632l36 113l169 519h65z" />
    <glyph glyph-name="W" unicode="W" horiz-adv-x="858" 
d="M809 712l-138 -712h-85l-128 557c-6 27.333 -16.333 41 -31 41c-14 0 -24 -13.667 -30 -41l-128 -557h-86l-138 712h67l117 -613l11 69l94 405c14 59.333 45 89 93 89c50 0 81.667 -29.667 95 -89l105 -474l14 98l101 515h67z" />
    <glyph glyph-name="X" unicode="X" horiz-adv-x="603" 
d="M565 0h-78l-185 316l-185 -316h-77l222 372l-196 340h77l159 -282l159 282h78l-197 -340z" />
    <glyph glyph-name="Y" unicode="Y" horiz-adv-x="572" 
d="M527 712l-38.998 -208c-10.667 -58 -26.334 -102 -47.001 -132c-27.333 -41.333 -68.333 -67 -123 -77v-295h-66v295c-53.333 10 -94 35.667 -122 77c-20 30.667 -35.333 74.667 -46 132l-39 208h65l37 -198c10 -53.333 22.333 -91 37 -113
c21.333 -31.333 55 -47 101 -47c47.333 0 81.666 15.667 102.999 47c15.333 21.333 28 59 38 113l37 198h64z" />
    <glyph glyph-name="Z" unicode="Z" horiz-adv-x="547" 
d="M496 0h-438l-8 65l299 492l64 93h-341l-7 62h410l11 -60l-300 -497l-63 -93h373v-62z" />
    <glyph glyph-name="bracketleft" unicode="[" horiz-adv-x="358" 
d="M273 -186h-168v960h168v-55h-108v-849h108v-56z" />
    <glyph glyph-name="backslash" unicode="\" horiz-adv-x="373" 
d="M316 0h-51l-208 787h51z" />
    <glyph glyph-name="bracketright" unicode="]" horiz-adv-x="358" 
d="M273 -186h-168v56h108v849h-108v55h168v-960z" />
    <glyph glyph-name="asciicircum" unicode="^" horiz-adv-x="607" 
d="M511 329h-71l-136 301l-137 -301h-71l176 366h65z" />
    <glyph glyph-name="underscore" unicode="_" horiz-adv-x="504" 
d="M444 -107h-384v58h384v-58z" />
    <glyph glyph-name="grave" unicode="`" horiz-adv-x="361" 
d="M301 613l-19 -42l-222 92l25 56z" />
    <glyph glyph-name="a" unicode="a" horiz-adv-x="480" 
d="M359 84v159h-125c-36.667 0 -65.167 -8 -85.5 -24s-30.5 -38 -30.5 -66c0 -30.667 8.66699 -55.667 26 -75c19.333 -21.333 45 -32 77 -32c41.333 0 87.333 12.667 138 38zM422 0h-49.998l-8 40c-50 -32 -98.667 -48 -146 -48c-48 0 -87.167 14.333 -117.5 43
s-45.5 67 -45.5 115s17.333 85 52 111c31.333 23.333 72.666 35 123.999 35h128v44c0 46.667 -8.66699 80.667 -26 102s-46.333 32 -87 32c-42.667 0 -89.334 -7.33301 -140.001 -22l-14 58c50 16.667 101.333 25 154 25c57.333 0 101 -16.167 131 -48.5
s45 -75.833 45 -130.5v-356z" />
    <glyph glyph-name="b" unicode="b" horiz-adv-x="545" 
d="M417 194l0.000976562 136.001c0 96 -43 144 -129 144c-44.667 0 -93 -13 -145 -39v-340c56 -28 104.333 -42 145 -42c41.333 0 73.166 12.667 95.499 38s33.5 59.666 33.5 102.999zM480.001 181.001c0 -53.333 -17.001 -97.667 -51.001 -133
c-36 -37.333 -83 -56 -141 -56c-36 0 -86.667 16.667 -152 50l-8 -42h-48v748l63 8v-158c0 -20 -1.33301 -56 -4 -108c61.333 30 111 45 149 45c58.667 0 105.334 -18.167 140.001 -54.5s52 -81.5 52 -135.5v-164z" />
    <glyph glyph-name="c" unicode="c" horiz-adv-x="485" 
d="M422 21c-58 -19.333 -109.667 -29.001 -155 -29.001c-62 0 -112 21.333 -150 64c-34.667 40 -52 88 -52 144v127c0 56.667 17.333 104.667 52 144c38 42.667 88 64 150 64c43.333 0 94 -9.66699 152 -29l-15 -57c-62 16.667 -107.667 25 -137 25
c-47.333 0 -83.333 -16.333 -108 -49c-20.667 -27.333 -31 -61 -31 -101v-121c0 -39.333 10.333 -72.666 31 -99.999c24.667 -33.333 60.667 -50 108 -50c33.333 0 81.333 7.66699 144 23z" />
    <glyph glyph-name="d" unicode="d" horiz-adv-x="545" 
d="M464 0l-48.001 0.000976562l-8 42c-65.333 -33.333 -115.666 -50 -150.999 -50c-58 0 -105 18.667 -141 56c-34 35.333 -51 79.666 -51 132.999v164c0 54 17.333 99.167 52 135.5s81.334 54.5 140.001 54.5c37.333 0 86.666 -15 147.999 -45c-2.66699 30 -4 66 -4 108
v150h63v-748zM400.999 95.001v339.999c-52 26 -100 39 -144 39c-86 0 -129 -48 -129 -144v-136c0 -43.333 11 -77.666 33 -102.999s54 -38 96 -38c40 0 88 14 144 42z" />
    <glyph glyph-name="e" unicode="e" horiz-adv-x="523" 
d="M462 267c0 -11.333 -5.66699 -17 -17 -17h-317v-51c0 -38.667 10.667 -71.334 32 -98.001c26 -32 62.333 -48 109 -48c42.667 0 95 9.33301 157 28l14 -57c-60 -21.333 -117 -32 -171 -32c-62.667 0 -113 21.333 -151 64c-35.333 38.667 -53 86.334 -53 143.001v127
c0 57.333 18.167 106.5 54.5 147.5s84.5 61.5 144.5 61.5s108.667 -21.667 146 -65c34.667 -40 52 -88 52 -144v-59zM399 305l0.00195312 21c0 38.667 -10.333 71.667 -31 99c-24.667 32.667 -59.334 49 -104.001 49s-79.334 -16.333 -104.001 -49
c-21.333 -27.333 -32 -61.333 -32 -102v-18h271z" />
    <glyph glyph-name="f" unicode="f" horiz-adv-x="374" 
d="M345 746l-9 -58c-29.333 4.66699 -50.333 7 -63 7c-30 0 -51.667 -7 -65 -21c-14.667 -16 -22 -43 -22 -81v-66h137v-58h-137v-453c0 -10.667 -5 -16 -15 -16h-48v469l-88 6v52h88v72c0 49.333 13 87.833 39 115.5s63 41.5 111 41.5c22.667 0 46.667 -3.33301 72 -10z
" />
    <glyph glyph-name="g" unicode="g" horiz-adv-x="541" 
d="M404 102v329.999c-56 28 -104 42 -144 42c-42 0 -74 -12.667 -96 -38s-33 -59.666 -33 -102.999v-128c0 -96 43 -144 129 -144c45.333 0 93.333 13.667 144 41zM467 -15.001c0 -50.667 -15.8311 -91.998 -47.498 -123.998s-73.167 -48 -124.5 -48h-118l-12 58h132
c32.667 0 58.667 10.667 78 32s29 47.666 29 78.999v63c-60 -30 -108 -45 -144 -45c-58.667 0 -105.334 18 -140.001 54s-52 81 -52 135v157c0 53.333 17.5 98.166 52.5 134.499s81.5 54.5 139.5 54.5c37.333 0 87.666 -16.667 150.999 -50l7 42h49v-542z" />
    <glyph glyph-name="h" unicode="h" horiz-adv-x="535" 
d="M465 16c0 -10.667 -5 -16 -15 -16h-48v337c0 91.333 -37 137 -111 137c-44 0 -93.333 -13.667 -148 -41v-433h-63v748h63v-150c0 -42.667 -1.33301 -79.334 -4 -110.001c62.667 31.333 113.334 47 152.001 47c55.333 0 98.666 -17.667 129.999 -53
c29.333 -33.333 44 -77.666 44 -132.999v-333z" />
    <glyph glyph-name="i" unicode="i" horiz-adv-x="250" 
d="M169 16c0 -10.667 -5 -16 -15 -16h-48v469l-66 6v52h129v-511zM183 695c0 -12.667 -4.5 -23.334 -13.5 -32.001s-19.5 -13 -31.5 -13c-12.667 0 -23.334 4.33301 -32.001 13s-13 19.334 -13 32.001s4.33301 23.167 13 31.5s19.334 12.5 32.001 12.5
c12 0 22.5 -4.16699 31.5 -12.5s13.5 -18.833 13.5 -31.5z" />
    <glyph glyph-name="j" unicode="j" horiz-adv-x="266" 
d="M185 -54c0 -43.333 -12.501 -77.667 -37.501 -103s-57.833 -38 -98.5 -38c-16 0 -36 3 -60 9l10 60c22.667 -5.33301 39.334 -8 50.001 -8c48.667 0 73 31 73 93v510l-66 6v52h129v-581zM197.999 694.999c0 -12.667 -4.5 -23.334 -13.5 -32.001s-19.833 -13 -32.5 -13
s-23.334 4.33301 -32.001 13s-13 19.334 -13 32.001s4.33301 23.167 13 31.5s19.334 12.5 32.001 12.5s23.5 -4.16699 32.5 -12.5s13.5 -18.833 13.5 -31.5z" />
    <glyph glyph-name="k" unicode="k" horiz-adv-x="482" 
d="M449 0h-69.999l-140 260l-96 -26v-218c0 -10.667 -5 -16 -15 -16h-48v748h63v-452l115 31c23.333 6.66699 40.333 22.667 51 48l60 152h63l-69 -174c-14.667 -38 -37.334 -63.333 -68.001 -76z" />
    <glyph glyph-name="l" unicode="l" horiz-adv-x="223" 
d="M172 44l-12 -52.999c-23.333 2 -42.5 10.167 -57.5 24.5s-22.5 33.166 -22.5 56.499v675h63v-669c0 -18 9.66699 -29.333 29 -34z" />
    <glyph glyph-name="m" unicode="m" horiz-adv-x="837" 
d="M759 16c0 -10.667 -4.99805 -16 -14.998 -16h-49v322c0 101.333 -41 152 -123 152c-42 0 -74 -18 -96 -54c-18.667 -29.333 -28 -66.333 -28 -111v-309h-64v309c0 44.667 -9 81.667 -27 111c-22 36 -54 54 -96 54c-82.667 0 -124 -50.667 -124 -152v-322h-63v328
c0 60.667 16 109.667 48 147c33.333 40 78.666 60 135.999 60c69.333 0 122 -33.333 158 -100c34 66.667 87 100 159 100c57.333 0 102.666 -20 135.999 -60c32 -37.333 48 -86.333 48 -147v-312z" />
    <glyph glyph-name="n" unicode="n" horiz-adv-x="535" 
d="M465 16c0 -10.667 -4.99805 -16.001 -14.998 -16.001h-48v336c0 92 -37 138 -111 138c-44 0 -93.333 -13.667 -148 -41v-433h-63v527h49l8 -42c65.333 33.333 116.666 50 153.999 50c55.333 0 98.666 -18 129.999 -54c29.333 -33.333 44 -77.666 44 -132.999v-332z" />
    <glyph glyph-name="o" unicode="o" horiz-adv-x="544" 
d="M478 199c0 -59.333 -18.666 -108.666 -55.999 -147.999s-87.333 -59 -150 -59s-112.834 19.667 -150.501 59s-56.5 88.666 -56.5 147.999v127c0 60 18.667 109.833 56 149.5s87 59.5 149 59.5c63.333 0 113.833 -19.833 151.5 -59.5s56.5 -89.5 56.5 -149.5v-127z
M415.001 207v112c0 45.333 -11.333 81.666 -34 108.999c-26 30.667 -63 46 -111 46c-47.333 0 -83.333 -15.333 -108 -46c-22.667 -27.333 -34 -63.666 -34 -108.999v-112c0 -45.333 11.333 -81.666 34 -108.999c25.333 -30 62 -45 110 -45s84.333 15 109 45
c22.667 27.333 34 63.666 34 108.999z" />
    <glyph glyph-name="p" unicode="p" horiz-adv-x="539" 
d="M410 197v135c0 44 -11 78.667 -33 104s-54 38 -96 38c-43.333 0 -91.333 -14.333 -144 -43v-338c49.333 -26.667 97.333 -40 144 -40c86 0 129 48 129 144zM473 182c0 -54 -17.001 -98.667 -51.001 -134c-36 -37.333 -83 -56 -141 -56c-37.333 0 -86.666 15 -147.999 45
c2 -29.333 3.33301 -65.333 4 -108v-117h-63v715h48l8 -43c64 34 114.333 51 151 51c58.667 0 105.667 -18.667 141 -56c34 -34.667 51 -79 51 -133v-164z" />
    <glyph glyph-name="q" unicode="q" horiz-adv-x="539" 
d="M464 -187l-63.001 -8v124c0 42.667 1.33301 78.667 4 108c-61.333 -30 -110.666 -45 -147.999 -45c-58 0 -105 18.667 -141 56c-34 35.333 -51 80 -51 134v164c0 54 17 98.333 51 133c35.333 37.333 82.333 56 141 56c36.667 0 87 -17 151 -51l8 43h48v-714zM400.999 93
v338c-52.667 28.667 -100.667 43 -144 43c-42 0 -74 -12.667 -96 -38s-33 -60 -33 -104v-135c0 -96 43 -144 129 -144c46.667 0 94.667 13.333 144 40z" />
    <glyph glyph-name="r" unicode="r" horiz-adv-x="338" 
d="M311 530l-8.99902 -59c-12.667 2 -26.334 3 -41.001 3c-35.333 0 -74.666 -22.667 -117.999 -68v-390c0 -10.667 -5 -16 -15 -16h-48v527h50l7 -64c48 48 89.667 72 125 72c15.333 0 31.666 -1.66699 48.999 -5z" />
    <glyph glyph-name="s" unicode="s" horiz-adv-x="430" 
d="M372 141c0 -45.333 -15.168 -81.501 -45.501 -108.501s-70.833 -40.5 -121.5 -40.5c-42 0 -90.333 9.33301 -145 28l11 58c66.667 -16.667 111.334 -25 134.001 -25c68.667 0 103 29.333 103 88c0 32 -20.667 58.333 -62 79l-115 56c-41.333 28 -62 66.333 -62 115
c0 44.667 14.667 79.834 44 105.501s68 38.5 116 38.5c35.333 0 75 -7.66699 119 -23l-14 -56c-40 12 -75 18 -105 18c-64.667 0 -97 -27.667 -97 -83c0 -30.667 20.667 -56 62 -76l116 -55c41.333 -28 62 -67.667 62 -119z" />
    <glyph glyph-name="t" unicode="t" horiz-adv-x="349" 
d="M304 1c-22 -6 -43.333 -9 -64 -9c-46.667 0 -83 15 -109 45c-23.333 26 -35 58.333 -35 97v335h-74v58h76l10 167h51v-167h123v-58h-123v-325c0 -60.667 27 -91 81 -91c15.333 0 34.333 2.33301 57 7z" />
    <glyph glyph-name="u" unicode="u" horiz-adv-x="530" 
d="M454 0h-49.001l-8 42c-65.333 -33.333 -116.333 -50 -153 -50c-55.333 0 -98.666 18 -129.999 54c-29.333 33.333 -44 77.333 -44 132v331c0 12 5.33301 18 16 18h47v-337c0 -91.333 37 -137 111 -137c40 0 89 13.333 147 40v434h63v-527z" />
    <glyph glyph-name="v" unicode="v" horiz-adv-x="476" 
d="M453 527l-178 -527h-72l-178 527h67l147 -453l20 70l126 383h68z" />
    <glyph glyph-name="w" unicode="w" horiz-adv-x="725" 
d="M688 527l-128 -527h-81l-97 325l-23 91l-22 -91l-97 -325h-77l-128 527h64l106 -447l15 64l95 342h88l113 -406l14 64l94 383h64z" />
    <glyph glyph-name="x" unicode="x" horiz-adv-x="456" 
d="M426 0h-72l-131 223l-122 -223h-71l156 275l-146 252h70l113 -199l111 199h71l-145 -252z" />
    <glyph glyph-name="y" unicode="y" horiz-adv-x="501" 
d="M432 527l-25 -551c-5.33301 -108.667 -60.333 -163 -165 -163h-91l-7 58h99c46.667 0 76.667 17 90 51c6 16 10.333 52.667 13 110c-38 -21.333 -73 -32 -105 -32c-100.667 0 -156.667 60 -168 180l-33 347h64l32 -340c8 -84 43.667 -126 107 -126c30 0 65.333 11 106 33
l20 433h63z" />
    <glyph glyph-name="z" unicode="z" horiz-adv-x="463" 
d="M408 0h-343l-10 62l273 404h-263v61h323l9 -60l-273 -406h284v-61z" />
    <glyph glyph-name="braceleft" unicode="{" horiz-adv-x="419" 
d="M334 -186c-68.667 0 -118.334 16.666 -149.001 49.999c-26.667 29.333 -40 73.666 -40 132.999v164c0 36.667 -5.66699 63 -17 79c-13.333 18 -37.666 27 -72.999 27v53c35.333 0 60 9.33301 74 28c11.333 15.333 17 41.333 17 78v165c0 60 13 104.667 39 134
c30 32.667 79.667 49 149 49v-57c-53.333 0 -89.333 -11.667 -108 -35c-13.333 -17.333 -20 -47.666 -20 -90.999v-165c0 -32.667 -5.16699 -58.667 -15.5 -78s-28.5 -37.333 -54.5 -54c26 -16.667 44.167 -34.667 54.5 -54s15.5 -45.666 15.5 -78.999v-164
c0 -44 6.66699 -74.667 20 -92c18.667 -23.333 54.667 -35 108 -35v-56z" />
    <glyph glyph-name="bar" unicode="|" horiz-adv-x="264" 
d="M162 -157h-60v931h60v-931z" />
    <glyph glyph-name="braceright" unicode="}" horiz-adv-x="419" 
d="M364 267c-35.333 0 -59.166 -8.49902 -71.499 -25.499s-18.5 -43.833 -18.5 -80.5v-164c0 -59.333 -13.333 -103.666 -40 -132.999c-30.667 -33.333 -80.334 -50 -149.001 -50v56c53.333 0 89.333 11.667 108 35c13.333 17.333 20 48 20 92v164
c0 33.333 5.16699 59.666 15.5 78.999s28.5 37.333 54.5 54c-26 16.667 -44.167 34.667 -54.5 54s-15.5 45.333 -15.5 78v165c0 43.333 -6.66699 73.666 -20 90.999c-18.667 23.333 -54.667 35 -108 35v57c69.333 0 119 -16.333 149 -49c26 -29.333 39 -74 39 -134v-165
c0 -36.667 5.66699 -62.667 17 -78c14 -18.667 38.667 -28 74 -28v-53z" />
    <glyph glyph-name="asciitilde" unicode="~" horiz-adv-x="618" 
d="M513 266c-32.667 -49.333 -71.666 -74 -116.999 -74c-28.667 0 -61.5 15.667 -98.5 47s-62.5 47 -76.5 47c-32 0 -59 -15 -81 -45l-35 31c34.667 50 74 75 118 75c28.667 0 61.667 -15.833 99 -47.5s63 -47.5 77 -47.5c27.333 0 53.666 15.333 78.999 46z" />
    <glyph glyph-name="nonbreakingspace" unicode="&#xa0;" 
 />
    <glyph glyph-name="exclamdown" unicode="&#xa1;" horiz-adv-x="337" 
d="M219 561c0 -13.333 -4.83301 -25 -14.5 -35s-21.167 -15 -34.5 -15s-25 5 -35 15s-15 21.667 -15 35s5 24.833 15 34.5s21.667 14.5 35 14.5c12.667 0 24 -5 34 -15s15 -21.333 15 -34zM208 -110h-82l12 493l57 9z" />
    <glyph glyph-name="cent" unicode="&#xa2;" horiz-adv-x="580" 
d="M467 20c-50 -16.667 -96.6689 -26 -140.002 -28l-5 -63l-36 3l5 60c-56 5.33301 -100.667 28.666 -134 69.999c-31.333 38.667 -47 84.334 -47 137.001v127c0 56.667 17.333 104.667 52 144c38 42.667 88 64 150 64c8.66699 0 17.334 -0.333008 26.001 -1l5 64l36 -3
l-6 -65c27.333 -4.66699 58 -12.667 92 -24l-15 -57c-19.333 5.33301 -46.666 12 -81.999 20l-35 -415c30 2 71 9.33301 123 22zM331.998 473h-20c-47.333 0 -83.333 -16.333 -108 -49c-20.667 -27.333 -31 -61 -31 -101v-121c0 -37.333 9 -69.333 27 -96
c22 -31.333 54 -49 96 -53z" />
    <glyph glyph-name="sterling" unicode="&#xa3;" horiz-adv-x="580" 
d="M511 693l-17.999 -56.999c-42 14.667 -84 22 -126 22c-99.333 0 -149 -58.333 -149 -175v-137h253v-53h-256l-16 -230h294v-47c0 -10.667 -5 -16 -15 -16h-340l16 293h-66v53h66v146c0 73.333 18.667 129.666 56 168.999s89.666 59 156.999 59
c48.667 0 96.667 -9 144 -27z" />
    <glyph glyph-name="currency" unicode="&#xa4;" horiz-adv-x="580" 
d="M530 13c-49.333 -14 -105.333 -21 -168 -21c-78.667 0 -138.667 23 -180 69c-39.333 43.333 -59 102.333 -59 177v31h-75v43h75v88h-75v43h75v31c0 76 19.667 135.333 59 178c41.333 45.333 101.333 68 180 68c54.667 0 106 -5.66699 154 -17l-14 -61
c-46.667 10.667 -93.334 16 -140.001 16c-116.667 0 -175 -61.667 -175 -185v-30h281l-8 -43h-273v-88h281l-8 -43h-273v-30c0 -122.667 58 -184 174 -184c52.667 0 104.334 6.66699 155.001 20z" />
    <glyph glyph-name="yen" unicode="&#xa5;" horiz-adv-x="580" 
d="M527 712l-181 -381h102v-48h-125v-80h125v-47h-125v-156h-67v156h-123v47h123v80h-123v48h101l-181 381h67l170 -356l168 356h69z" />
    <glyph glyph-name="brokenbar" unicode="&#xa6;" horiz-adv-x="264" 
d="M162 468h-64v307h64v-307zM162 -156h-64v306h64v-306z" />
    <glyph glyph-name="section" unicode="&#xa7;" horiz-adv-x="531" 
d="M448 238c0 -43.333 -13 -80.665 -39 -111.998c14.667 -24.667 22 -53 22 -85c0 -53.333 -17.667 -95.5 -53 -126.5s-82 -46.5 -140 -46.5c-52.667 0 -106.667 8.33301 -162 25l11 61c59.333 -16 109.666 -24 150.999 -24c85.333 0 128 37 128 111
c0 42 -29.667 77.333 -89 106l-89 41c-33.333 16.667 -58 35 -74 55c-21.333 26 -32 57.667 -32 95c0 44.667 13.667 81.667 41 111c-16.667 24.667 -25 53 -25 85c0 51.333 18 92.333 54 123c34 28.667 78 43 132 43c44.667 0 91.667 -8.66699 141 -26l-14 -59
c-43.333 16 -85.666 24 -126.999 24c-80.667 0 -121 -35 -121 -105c0 -38.667 27.667 -71.334 83 -98.001l92 -43c34.667 -17.333 60.667 -36.333 78 -57c21.333 -26.667 32 -59.334 32 -98.001zM382 238.001c0 29.333 -13.665 54.999 -40.998 76.999
c-18 14.667 -47.333 31 -88 49c-44.667 19.333 -73 33 -85 41c-14 -16 -21 -38.333 -21 -67c0 -28 14 -52.667 42 -74c17.333 -13.333 47.666 -29.666 90.999 -48.999s71.666 -34 84.999 -44c11.333 16.667 17 39 17 67z" />
    <glyph glyph-name="dieresis" unicode="&#xa8;" horiz-adv-x="359" 
d="M309 636c0 -12.667 -4.5 -23.5 -13.5 -32.5s-19.833 -13.5 -32.5 -13.5s-23.5 4.5 -32.5 13.5s-13.5 19.833 -13.5 32.5s4.5 23.5 13.5 32.5s19.833 13.5 32.5 13.5s23.5 -4.5 32.5 -13.5s13.5 -19.833 13.5 -32.5zM142 636c0 -12.667 -4.5 -23.5 -13.5 -32.5
s-19.833 -13.5 -32.5 -13.5s-23.5 4.5 -32.5 13.5s-13.5 19.833 -13.5 32.5s4.5 23.5 13.5 32.5s19.833 13.5 32.5 13.5s23.5 -4.5 32.5 -13.5s13.5 -19.833 13.5 -32.5z" />
    <glyph glyph-name="copyright" unicode="&#xa9;" horiz-adv-x="856" 
d="M754 337c0 -92.667 -32 -172 -96 -238s-140.667 -99 -230 -99s-166 33 -230 99s-96 145.333 -96 238s32 171.667 96 237s140.667 98 230 98s166 -32.667 230 -98s96 -144.333 96 -237zM708 337c0 80 -27.333 148.167 -82 204.5s-120.667 84.5 -198 84.5
s-143.333 -28.167 -198 -84.5s-82 -124.5 -82 -204.5s27.333 -148.333 82 -205s120.667 -85 198 -85s143.333 28.333 198 85s82 125 82 205zM519 173c-36.667 -10.667 -69.667 -15.999 -99 -15.999c-40.667 0 -73.5 11.167 -98.5 33.5s-37.5 53.166 -37.5 92.499v107
c0 40 12.5 71.167 37.5 93.5s57.833 33.5 98.5 33.5c29.333 0 62.333 -5.33301 99 -16l-12 -45c-34.667 10 -63.667 15 -87 15c-58 0 -87 -27 -87 -81v-107c0 -53.333 29 -80 87 -80c24.667 0 53.667 4.66699 87 14z" />
    <glyph glyph-name="ordfeminine" unicode="&#xaa;" horiz-adv-x="469" 
d="M369 328h-40.001l-6 24c-36.667 -19.333 -71 -29 -103 -29c-35.333 0 -64.166 9.83301 -86.499 29.5s-33.5 46.167 -33.5 79.5s12.333 59 37 77c22.667 16.667 52.667 25 90 25h91v23c0 56.667 -26 85 -78 85c-24 0 -58 -6 -102 -18l-12 46
c43.333 13.333 81.333 20 114 20c42 0 74 -11 96 -33s33 -51.667 33 -89v-240zM317.999 394v97h-89c-52.667 0 -79 -19.667 -79 -59c0 -18.667 6.33301 -34 19 -46s29.667 -18 51 -18c28 0 60.667 8.66699 98 26z" />
    <glyph glyph-name="guillemotleft" unicode="&#xab;" horiz-adv-x="605" 
d="M503 84h-78l-146 183l146 182h78l-146 -182zM326 84h-78l-146 183l146 182h78l-146 -182z" />
    <glyph glyph-name="logicalnot" unicode="&#xac;" horiz-adv-x="581" 
d="M482 65h-66v172h-316v63h382v-235z" />
    <glyph glyph-name="minus" unicode="&#xad;" 
 />
    <glyph glyph-name="minus" unicode="&#x2212;" 
 />
    <glyph glyph-name="registered" unicode="&#xae;" horiz-adv-x="855" 
d="M753 337c0 -92.667 -31.833 -172 -95.5 -238s-140.167 -99 -229.5 -99s-166 33 -230 99s-96 145.333 -96 238s32 171.667 96 237s140.667 98 230 98s165.833 -32.667 229.5 -98s95.5 -144.333 95.5 -237zM708 337c0 80 -27.333 148.167 -82 204.5
s-120.667 84.5 -198 84.5s-143.333 -28.167 -198 -84.5s-82 -124.5 -82 -204.5s27.333 -148.333 82 -205s120.667 -85 198 -85s143.333 28.333 198 85s82 125 82 205zM549 156l-56.999 -0.000976562l-63 138h-68v-138h-53v341c53.333 14 93.666 21 120.999 21
c37.333 0 66.5 -10.667 87.5 -32s31.5 -47.666 31.5 -78.999c0 -44 -21.667 -77.667 -65 -101zM497.001 406.999c0 17.333 -5.33203 32 -15.999 44c-12 14.667 -29.333 22 -52 22c-14.667 0 -37.334 -3.33301 -68.001 -10v-124h68c45.333 0 68 22.667 68 68z" />
    <glyph glyph-name="macron" unicode="&#xaf;" horiz-adv-x="321" 
d="M321 591h-320v58h320v-58z" />
    <glyph glyph-name="macron" unicode="&#x2c9;" horiz-adv-x="321" 
d="M321 591h-320v58h320v-58z" />
    <glyph glyph-name="degree" unicode="&#xb0;" horiz-adv-x="395" 
d="M310 582c0 -30.667 -11 -56.834 -33 -78.501s-48.333 -32.5 -79 -32.5c-31.333 0 -57.833 10.833 -79.5 32.5s-32.5 47.834 -32.5 78.501s10.833 57 32.5 79s48.167 33 79.5 33c30.667 0 57 -11 79 -33s33 -48.333 33 -79zM274 582c0 20.667 -7.5 38.5 -22.5 53.5
s-32.833 22.5 -53.5 22.5s-38.334 -7.5 -53.001 -22.5s-22 -32.833 -22 -53.5s7.33301 -38.334 22 -53.001s32.334 -22 53.001 -22s38.5 7.33301 53.5 22s22.5 32.334 22.5 53.001z" />
    <glyph glyph-name="plusminus" unicode="&#xb1;" horiz-adv-x="591" 
d="M492 235h-163v-142h-66v142h-163v67h163v138h66v-138h163v-67zM492 -13h-392v59h392v-59z" />
    <glyph glyph-name="twosuperior" unicode="&#xb2;" 
 />
    <glyph glyph-name="threesuperior" unicode="&#xb3;" 
 />
    <glyph glyph-name="acute" unicode="&#xb4;" horiz-adv-x="361" 
d="M301 683l-222 -92l-19 42l216 106z" />
    <glyph glyph-name="mu" unicode="&#xb5;" 
 />
    <glyph glyph-name="mu" unicode="&#x3bc;" 
 />
    <glyph glyph-name="paragraph" unicode="&#xb6;" horiz-adv-x="679" 
d="M573 -133h-63.001v761h-129v-761h-65v416c-60.667 2.66699 -111 23.5 -151 62.5s-60 86.5 -60 142.5s20.833 103.833 62.5 143.5s91.834 59.5 150.501 59.5h255v-824z" />
    <glyph glyph-name="periodcentered" unicode="&#xb7;" horiz-adv-x="197" 
d="M149 287c0 -13.333 -5 -24.833 -15 -34.5s-21.667 -14.5 -35 -14.5c-12.667 0 -24 4.83301 -34 14.5s-15 21.167 -15 34.5s4.83301 25.166 14.5 35.499s21.167 15.5 34.5 15.5s25 -5.16699 35 -15.5s15 -22.166 15 -35.499z" />
    <glyph glyph-name="periodcentered" unicode="&#x2219;" horiz-adv-x="197" 
d="M149 287c0 -13.333 -5 -24.833 -15 -34.5s-21.667 -14.5 -35 -14.5c-12.667 0 -24 4.83301 -34 14.5s-15 21.167 -15 34.5s4.83301 25.166 14.5 35.499s21.167 15.5 34.5 15.5s25 -5.16699 35 -15.5s15 -22.166 15 -35.499z" />
    <glyph glyph-name="cedilla" unicode="&#xb8;" horiz-adv-x="287" 
d="M222 -89c0 -36 -11.667 -63.333 -35 -82c-20 -15.333 -45 -23 -75 -23c-16 0 -31.667 1.66699 -47 5l6 52c16 -2.66699 28.667 -4 38 -4c38 0 57 21.667 57 65v73h56v-86z" />
    <glyph glyph-name="onesuperior" unicode="&#xb9;" 
 />
    <glyph glyph-name="ordmasculine" unicode="&#xba;" horiz-adv-x="496" 
d="M396 464c0 -40.667 -13.332 -74.334 -39.999 -101.001s-62.334 -40 -107.001 -40s-80.667 13.333 -108 40s-41 60.334 -41 101.001v84c0 40.667 13.5 74.5 40.5 101.5s62.833 40.5 107.5 40.5s80.5 -13.5 107.5 -40.5s40.5 -60.833 40.5 -101.5v-84zM345.001 470
l-0.000976562 73c0 66 -32.333 99 -97 99c-65.333 0 -98 -33 -98 -99v-73c0 -29.333 8.33301 -53.333 25 -72s41.334 -28 74.001 -28c64 0 96 33.333 96 100z" />
    <glyph glyph-name="guillemotright" unicode="&#xbb;" horiz-adv-x="605" 
d="M503 267l-146 -183h-78l146 183l-146 182h78zM326 267l-146 -183h-78l146 183l-146 182h78z" />
    <glyph glyph-name="onequarter" unicode="&#xbc;" 
 />
    <glyph glyph-name="onehalf" unicode="&#xbd;" 
 />
    <glyph glyph-name="threequarters" unicode="&#xbe;" 
 />
    <glyph glyph-name="questiondown" unicode="&#xbf;" horiz-adv-x="551" 
d="M343 569c0 -13.333 -4.83301 -25 -14.5 -35s-21.167 -15 -34.5 -15s-25 5 -35 15s-15 21.667 -15 35s5 24.833 15 34.5s21.667 14.5 35 14.5c12.667 0 24 -5 34 -15s15 -21.333 15 -34zM433 -67c-54 -28.667 -103.001 -43 -147.001 -43c-51.333 0 -92.333 16 -123 48
c-28.667 29.333 -43 65.333 -43 108c0 31.333 8 60.666 24 87.999c2.66699 5.33301 19.334 27 50.001 65c22.667 28 38 52 46 72c14 32.667 21 73.334 21 122.001l65 7c0 -57.333 -7.66699 -105 -23 -143c-9.33301 -23.333 -26 -50.333 -50 -81l-47 -59
c-15.333 -23.333 -23 -47 -23 -71c0 -26 9.16699 -48 27.5 -66s43.5 -27 75.5 -27s72 12 120 36z" />
    <glyph glyph-name="Agrave" unicode="&#xc0;" horiz-adv-x="655" 
d="M451 805l-19 -42l-222 92l25 56zM609 0h-63l-60 219h-318l-59 -219h-64l165 611c19.333 72.667 58.333 109 117 109s97.667 -36.333 117 -109zM470 281l-84 313c-11.333 43.333 -31 65 -59 65c-26.667 0 -46 -21.667 -58 -65l-85 -313h286z" />
    <glyph glyph-name="Aacute" unicode="&#xc1;" horiz-adv-x="655" 
d="M421 853l-222 -92l-19 42l216 106zM609 0h-63l-60 219h-318l-59 -219h-64l165 611c19.333 72.667 58.333 109 117 109s97.667 -36.333 117 -109zM470 281l-84 313c-11.333 43.333 -31 65 -59 65c-26.667 0 -46 -21.667 -58 -65l-85 -313h286z" />
    <glyph glyph-name="Acircumflex" unicode="&#xc2;" horiz-adv-x="655" 
d="M468 799l-31 -38l-115 95l-114 -95l-32 38l146 120zM609 0h-63l-60 219h-318l-59 -219h-64l165 611c19.333 72.667 58.333 109 117 109s97.667 -36.333 117 -109zM470 281l-84 313c-11.333 43.333 -31 65 -59 65c-26.667 0 -46 -21.667 -58 -65l-85 -313h286z" />
    <glyph glyph-name="Atilde" unicode="&#xc3;" horiz-adv-x="655" 
d="M458 823c-20.667 -39.333 -47.002 -59 -79.002 -59c-19.333 0 -41.166 6.83301 -65.499 20.5s-40.166 20.5 -47.499 20.5c-16.667 0 -31 -11 -43 -33l-38 28c20 40 46.333 60 79 60c18.667 0 40.5 -6.83301 65.5 -20.5s41.167 -20.5 48.5 -20.5
c14.667 0 28.667 10.667 42 32zM608.998 0h-63l-60 219h-318l-59 -219h-64l165 611c19.333 72.667 58.333 109 117 109s97.667 -36.333 117 -109zM469.998 281l-84 313c-11.333 43.333 -31 65 -59 65c-26.667 0 -46 -21.667 -58 -65l-85 -313h286z" />
    <glyph glyph-name="Adieresis" unicode="&#xc4;" horiz-adv-x="655" 
d="M454 810c0 -12.667 -4.5 -23.5 -13.5 -32.5s-19.833 -13.5 -32.5 -13.5s-23.5 4.5 -32.5 13.5s-13.5 19.833 -13.5 32.5s4.5 23.5 13.5 32.5s19.833 13.5 32.5 13.5s23.5 -4.5 32.5 -13.5s13.5 -19.833 13.5 -32.5zM287 810c0 -12.667 -4.5 -23.5 -13.5 -32.5
s-19.833 -13.5 -32.5 -13.5s-23.5 4.5 -32.5 13.5s-13.5 19.833 -13.5 32.5s4.5 23.5 13.5 32.5s19.833 13.5 32.5 13.5s23.5 -4.5 32.5 -13.5s13.5 -19.833 13.5 -32.5zM609 0h-63l-60 219h-318l-59 -219h-64l165 611c19.333 72.667 58.333 109 117 109
s97.667 -36.333 117 -109zM470 281l-84 313c-11.333 43.333 -31 65 -59 65c-26.667 0 -46 -21.667 -58 -65l-85 -313h286z" />
    <glyph glyph-name="Aring" unicode="&#xc5;" horiz-adv-x="655" 
d="M406 844c0 -22 -7.83301 -40.833 -23.5 -56.5s-34.834 -23.5 -57.501 -23.5c-22 0 -40.833 7.83301 -56.5 23.5s-23.5 34.5 -23.5 56.5c0 22.667 7.83301 41.834 23.5 57.501s34.5 23.5 56.5 23.5c22.667 0 41.834 -7.83301 57.501 -23.5s23.5 -34.834 23.5 -57.501z
M609 0h-63l-60 219h-318l-59 -219h-64l165 611c19.333 72.667 58.333 109 117 109s97.667 -36.333 117 -109zM376 844c0 14 -5 26 -15 36s-22 15 -36 15s-25.833 -5 -35.5 -15s-14.5 -22 -14.5 -36s4.83301 -25.833 14.5 -35.5s21.5 -14.5 35.5 -14.5s26 4.83301 36 14.5
s15 21.5 15 35.5zM470 281l-84 313c-11.333 43.333 -31 65 -59 65c-26.667 0 -46 -21.667 -58 -65l-85 -313h286z" />
    <glyph glyph-name="AE" unicode="&#xc6;" horiz-adv-x="906" 
d="M846 15c0 -10 -5 -14.999 -15 -14.999h-149c-64 0 -113 16.667 -147 50c-32 31.333 -48 74.333 -48 129v42h-280l-99 -221h-63l269 607c31.333 70 76.333 105 135 105h393v-62h-290v-258h275v-56h-275v-154c0 -38.667 8.33301 -67.334 25 -86.001c20 -22 55 -33 105 -33
h164v-48zM487 279.001l0.000976562 371h-38c-21.333 0 -37.833 -5 -49.5 -15s-22.834 -27.333 -33.501 -52l-134 -304h255z" />
    <glyph glyph-name="Ccedilla" unicode="&#xc7;" horiz-adv-x="540" 
d="M509 25c-55.333 -17.333 -108.333 -28 -159 -32v-82c0 -36 -11.667 -63.333 -35 -82c-20 -15.333 -45 -23 -75 -23c-16 0 -31.667 1.66699 -47 5l6 52c16 -2.66699 28.667 -4 38 -4c38 0 57 21.667 57 65v68c-75.333 2.66699 -133.333 28.667 -174 78
c-36.667 44.667 -55 104 -55 178v216c0 76 19.333 136.667 58 182c42.667 49.333 104 74 184 74c60.667 0 128 -9.66699 202 -29l-13 -63c-54 19.333 -117 29 -189 29c-118.667 0 -178 -65.667 -178 -197v-208c0 -132 59 -198 177 -198c63.333 0 126 10.333 188 31z" />
    <glyph glyph-name="Egrave" unicode="&#xc8;" horiz-adv-x="521" 
d="M411 803l-19 -42l-222 92l25 56zM461 16c0 -10.667 -5.66797 -15.999 -17.001 -15.999h-169c-62 0 -109 15.667 -141 47s-48 73.666 -48 126.999v364c0 54 15.833 96.5 47.5 127.5s78.834 46.5 141.501 46.5h183v-62h-183c-83.333 0 -125 -38 -125 -114v-142h293v-61
h-293v-156c0 -76.667 41.667 -115 125 -115h186v-46z" />
    <glyph glyph-name="Eacute" unicode="&#xc9;" horiz-adv-x="521" 
d="M401 856l-222 -92l-19 42l216 106zM461 16c0 -10.667 -5.66797 -15.999 -17.001 -15.999h-169c-62 0 -109 15.667 -141 47s-48 73.666 -48 126.999v364c0 54 15.833 96.5 47.5 127.5s78.834 46.5 141.501 46.5h183v-62h-183c-83.333 0 -125 -38 -125 -114v-142h293v-61
h-293v-156c0 -76.667 41.667 -115 125 -115h186v-46z" />
    <glyph glyph-name="Ecircumflex" unicode="&#xca;" horiz-adv-x="521" 
d="M418 799l-31 -38l-115 95l-114 -95l-32 38l146 120zM461 16c0 -10.667 -5.66797 -15.999 -17.001 -15.999h-169c-62 0 -109 15.667 -141 47s-48 73.666 -48 126.999v364c0 54 15.833 96.5 47.5 127.5s78.834 46.5 141.501 46.5h183v-62h-183
c-83.333 0 -125 -38 -125 -114v-142h293v-61h-293v-156c0 -76.667 41.667 -115 125 -115h186v-46z" />
    <glyph glyph-name="Edieresis" unicode="&#xcb;" horiz-adv-x="521" 
d="M405 810c0 -12.667 -4.5 -23.5 -13.5 -32.5s-19.833 -13.5 -32.5 -13.5s-23.5 4.5 -32.5 13.5s-13.5 19.833 -13.5 32.5s4.5 23.5 13.5 32.5s19.833 13.5 32.5 13.5s23.5 -4.5 32.5 -13.5s13.5 -19.833 13.5 -32.5zM238 810c0 -12.667 -4.5 -23.5 -13.5 -32.5
s-19.833 -13.5 -32.5 -13.5s-23.5 4.5 -32.5 13.5s-13.5 19.833 -13.5 32.5s4.5 23.5 13.5 32.5s19.833 13.5 32.5 13.5s23.5 -4.5 32.5 -13.5s13.5 -19.833 13.5 -32.5zM461 16c0 -10.667 -5.66797 -15.999 -17.001 -15.999h-169c-62 0 -109 15.667 -141 47
s-48 73.666 -48 126.999v364c0 54 15.833 96.5 47.5 127.5s78.834 46.5 141.501 46.5h183v-62h-183c-83.333 0 -125 -38 -125 -114v-142h293v-61h-293v-156c0 -76.667 41.667 -115 125 -115h186v-46z" />
    <glyph glyph-name="Igrave" unicode="&#xcc;" horiz-adv-x="224" 
d="M241 805l-19 -42l-222 92l25 56zM144 16c0 -10.667 -5.66699 -16 -17 -16h-47v712h64v-696z" />
    <glyph glyph-name="Iacute" unicode="&#xcd;" horiz-adv-x="224" 
d="M231 853l-222 -92l-19 42l216 106zM144 16c0 -10.667 -5.66699 -16 -17 -16h-47v712h64v-696z" />
    <glyph glyph-name="Icircumflex" unicode="&#xce;" horiz-adv-x="226" 
d="M256 799l-31 -38l-115 95l-114 -95l-32 38l146 120zM145 16c0 -10.667 -5.66699 -16 -17 -16h-47v712h64v-696z" />
    <glyph glyph-name="Idieresis" unicode="&#xcf;" horiz-adv-x="224" 
d="M239 810c0 -12.667 -4.5 -23.5 -13.5 -32.5s-19.833 -13.5 -32.5 -13.5s-23.5 4.5 -32.5 13.5s-13.5 19.833 -13.5 32.5s4.5 23.5 13.5 32.5s19.833 13.5 32.5 13.5s23.5 -4.5 32.5 -13.5s13.5 -19.833 13.5 -32.5zM72 810c0 -12.667 -4.5 -23.5 -13.5 -32.5
s-19.833 -13.5 -32.5 -13.5s-23.5 4.5 -32.5 13.5s-13.5 19.833 -13.5 32.5s4.5 23.5 13.5 32.5s19.833 13.5 32.5 13.5s23.5 -4.5 32.5 -13.5s13.5 -19.833 13.5 -32.5zM144 16c0 -10.667 -5.66699 -16 -17 -16h-47v712h64v-696z" />
    <glyph glyph-name="Eth" unicode="&#xd0;" 
 />
    <glyph glyph-name="Ntilde" unicode="&#xd1;" horiz-adv-x="633" 
d="M448 823c-20.667 -39.333 -47.002 -59 -79.002 -59c-19.333 0 -41.166 6.83301 -65.499 20.5s-40.166 20.5 -47.499 20.5c-16.667 0 -31 -11 -43 -33l-38 28c20 40 46.333 60 79 60c18.667 0 40.5 -6.83301 65.5 -20.5s41.167 -20.5 48.5 -20.5
c14.667 0 28.667 10.667 42 32zM545.998 0l-83.001 -0.00195312l-254 578c-12.667 28.667 -23 47.834 -31 57.501s-17.333 14.834 -28 15.501v-651h-64v712h58c31.333 0 55.333 -8.33301 72 -25c14.667 -13.333 31.334 -41.333 50.001 -84l224 -501l-9 63v547h65v-712z" />
    <glyph glyph-name="Ograve" unicode="&#xd2;" horiz-adv-x="656" 
d="M451 806l-19 -42l-222 92l25 56zM586 265c0 -77.333 -23 -141.666 -69 -192.999c-48 -53.333 -111 -80 -189 -80s-141.333 27.333 -190 82c-45.333 51.333 -68 115 -68 191v181c0 78 22.667 142.333 68 193c48 54 111.333 81 190 81c77.333 0 140.333 -27.667 189 -83
c46 -52.667 69 -116.334 69 -191.001v-181zM521 268v174.998c0 54.667 -14.667 102 -44 142c-34.667 48 -84.334 72 -149.001 72c-65.333 0 -115.666 -24 -150.999 -72c-28.667 -39.333 -43 -86.666 -43 -141.999v-175c0 -55.333 14.333 -102.666 43 -141.999
c35.333 -48 85.666 -72 150.999 -72c64.667 0 114.334 24 149.001 72c29.333 40 44 87.333 44 142z" />
    <glyph glyph-name="Oacute" unicode="&#xd3;" horiz-adv-x="656" 
d="M421 846l-222 -92l-19 42l216 106zM586 265c0 -77.333 -23 -141.666 -69 -192.999c-48 -53.333 -111 -80 -189 -80s-141.333 27.333 -190 82c-45.333 51.333 -68 115 -68 191v181c0 77.333 22.667 141.666 68 192.999c48 54 111.333 81 190 81
c77.333 0 140.333 -28 189 -84c46 -52 69 -115.333 69 -190v-181zM521 268v174.998c0 54.667 -14.667 102 -44 142c-34.667 48 -84.334 72 -149.001 72c-65.333 0 -115.666 -24 -150.999 -72c-28.667 -39.333 -43 -86.666 -43 -141.999v-175
c0 -55.333 14.333 -102.666 43 -141.999c35.333 -48 85.666 -72 150.999 -72c64.667 0 114.334 24 149.001 72c29.333 40 44 87.333 44 142z" />
    <glyph glyph-name="Ocircumflex" unicode="&#xd4;" horiz-adv-x="656" 
d="M468 800l-31 -38l-115 95l-114 -95l-32 38l146 120zM586 265c0 -77.333 -23 -141.333 -69 -192c-48 -54 -111 -81 -189 -81s-141.333 27.333 -190 82c-45.333 51.333 -68 115 -68 191v181c0 78 22.667 142.667 68 194c48 53.333 111.333 80 190 80
c77.333 0 140.333 -27.667 189 -83c46 -52 69 -115.667 69 -191v-181zM521 268v175c0 55.333 -14.667 102.666 -44 141.999c-34.667 48 -84.334 72 -149.001 72c-65.333 0 -115.666 -24 -150.999 -72c-28.667 -39.333 -43 -86.666 -43 -141.999v-175
c0 -54.667 14.333 -101.667 43 -141c35.333 -48.667 85.666 -73 150.999 -73c64.667 0 114.334 24.333 149.001 73c29.333 39.333 44 86.333 44 141z" />
    <glyph glyph-name="Otilde" unicode="&#xd5;" horiz-adv-x="656" 
d="M458 824c-20.667 -39.333 -47.002 -59 -79.002 -59c-19.333 0 -41.166 6.83301 -65.499 20.5s-40.166 20.5 -47.499 20.5c-16.667 0 -31 -11 -43 -33l-38 28c20 40 46.333 60 79 60c18.667 0 40.5 -6.83301 65.5 -20.5s41.167 -20.5 48.5 -20.5
c14.667 0 28.667 10.667 42 32zM585.998 265c0 -77.333 -23 -141.333 -69 -192c-48 -54 -111 -81 -189 -81s-141.333 27.333 -190 82c-45.333 51.333 -68 115 -68 191v181c0 78 22.667 142.667 68 194c48 53.333 111.333 80 190 80c77.333 0 140.333 -27.667 189 -83
c46 -52 69 -115.667 69 -191v-181zM520.998 268v175c0 55.333 -14.667 102.666 -44 141.999c-34.667 48 -84.334 72 -149.001 72c-65.333 0 -115.666 -24 -150.999 -72c-28.667 -39.333 -43 -86.666 -43 -141.999v-175c0 -54.667 14.333 -101.667 43 -141
c35.333 -48.667 85.666 -73 150.999 -73c64.667 0 114.334 24.333 149.001 73c29.333 39.333 44 86.333 44 141z" />
    <glyph glyph-name="Odieresis" unicode="&#xd6;" horiz-adv-x="656" 
d="M454 811c0 -12.667 -4.5 -23.5 -13.5 -32.5s-19.833 -13.5 -32.5 -13.5s-23.5 4.5 -32.5 13.5s-13.5 19.833 -13.5 32.5s4.5 23.5 13.5 32.5s19.833 13.5 32.5 13.5s23.5 -4.66699 32.5 -14s13.5 -20 13.5 -32zM287 811c0 -12.667 -4.5 -23.5 -13.5 -32.5
s-19.833 -13.5 -32.5 -13.5s-23.5 4.5 -32.5 13.5s-13.5 19.833 -13.5 32.5c0 12 4.5 22.667 13.5 32s19.833 14 32.5 14s23.5 -4.66699 32.5 -14s13.5 -20 13.5 -32zM586 265c0 -78 -23 -142.332 -69 -192.999c-48 -53.333 -111 -80 -189 -80s-141.333 27 -190 81
c-45.333 51.333 -68 115.333 -68 192v181c0 77.333 22.667 141.666 68 192.999c48 54 111.333 81 190 81c77.333 0 140.333 -28 189 -84c46 -52 69 -115.333 69 -190v-181zM521 268.001v175c0 54.667 -14.667 101.667 -44 141c-34.667 48.667 -84.334 73 -149.001 73
c-65.333 0 -115.666 -24.333 -150.999 -73c-28.667 -39.333 -43 -86.333 -43 -141v-175c0 -55.333 14.333 -102.666 43 -141.999c35.333 -48 85.666 -72 150.999 -72c64.667 0 114.334 24 149.001 72c29.333 39.333 44 86.666 44 141.999z" />
    <glyph glyph-name="multiply" unicode="&#xd7;" 
 />
    <glyph glyph-name="Oslash" unicode="&#xd8;" horiz-adv-x="656" 
d="M586 265c0 -77.333 -23 -141.667 -69 -193c-48 -53.333 -111 -80 -189 -80c-35.333 0 -68.333 6 -99 18l-27 -76l-41 16l29 80c-38 24 -67.5 56.833 -88.5 98.5s-31.5 87.167 -31.5 136.5v181c0 78 22.667 142.333 68 193c48 54 111.333 81 190 81
c34.667 0 67.667 -6.33301 99 -19l27 78l41 -16l-28 -82c38 -24 67.333 -57 88 -99s31 -87.333 31 -136v-181zM522 267.999v175c0 77.333 -25.667 136.333 -77 177l-195 -551c22.667 -9.33301 48.667 -14 78 -14c64.667 0 114.667 24 150 72c29.333 39.333 44 86.333 44 141
zM406 642.999c-23.333 10 -49.334 14.999 -78.001 14.999c-65.333 0 -115.666 -24.333 -150.999 -73c-28 -39.333 -42 -86.666 -42 -141.999v-175c0 -78.667 25.333 -137.667 76 -177z" />
    <glyph glyph-name="Ugrave" unicode="&#xd9;" horiz-adv-x="641" 
d="M441 806l-19 -42l-222 92l25 56zM564 263c0 -86 -21.334 -152.667 -64.001 -200s-102.667 -71 -180 -71c-78 0 -138.333 23.667 -181 71s-64 114 -64 200v449h64v-468c0 -52.667 14.667 -96.334 44 -131.001c32.667 -39.333 78.334 -59 137.001 -59
c58 0 103 19.667 135 59c29.333 34.667 44 78.334 44 131.001v468h65v-449z" />
    <glyph glyph-name="Uacute" unicode="&#xda;" horiz-adv-x="641" 
d="M441 854l-222 -92l-19 42l216 106zM564 263c0 -86 -21.334 -152.667 -64.001 -200s-102.667 -71 -180 -71c-78 0 -138.333 23.667 -181 71s-64 114 -64 200v449h64v-468c0 -53.333 14.667 -97.333 44 -132c32.667 -38.667 78.334 -58 137.001 -58c58 0 103 19.333 135 58
c29.333 35.333 44 79.333 44 132v468h65v-449z" />
    <glyph glyph-name="Ucircumflex" unicode="&#xdb;" horiz-adv-x="641" 
d="M463 800l-31 -38l-115 95l-114 -95l-32 38l146 120zM564 263c0 -86 -21.334 -152.667 -64.001 -200s-102.667 -71 -180 -71c-78 0 -138.333 23.667 -181 71s-64 114 -64 200v449h64v-468c0 -52.667 14.667 -96.334 44 -131.001c32.667 -39.333 78.334 -59 137.001 -59
c58 0 103 19.667 135 59c29.333 34.667 44 78.334 44 131.001v468h65v-449z" />
    <glyph glyph-name="Udieresis" unicode="&#xdc;" horiz-adv-x="641" 
d="M454 811c0 -12.667 -4.5 -23.5 -13.5 -32.5s-19.833 -13.5 -32.5 -13.5s-23.5 4.5 -32.5 13.5s-13.5 19.833 -13.5 32.5s4.5 23.5 13.5 32.5s19.833 13.5 32.5 13.5s23.5 -4.66699 32.5 -14s13.5 -20 13.5 -32zM287 811c0 -12.667 -4.5 -23.5 -13.5 -32.5
s-19.833 -13.5 -32.5 -13.5s-23.5 4.5 -32.5 13.5s-13.5 19.833 -13.5 32.5c0 12 4.5 22.667 13.5 32s19.833 14 32.5 14s23.5 -4.66699 32.5 -14s13.5 -20 13.5 -32zM564 263c0 -86.667 -21.334 -153.5 -64.001 -200.5s-102.667 -70.5 -180 -70.5
c-78 0 -138.333 23.5 -181 70.5s-64 113.833 -64 200.5v449h64v-468c0 -53.333 14.667 -97.333 44 -132c32.667 -38.667 78.334 -58 137.001 -58c58 0 103 19.333 135 58c29.333 34.667 44 78.667 44 132v468h65v-449z" />
    <glyph glyph-name="Yacute" unicode="&#xdd;" 
 />
    <glyph glyph-name="Thorn" unicode="&#xde;" 
 />
    <glyph glyph-name="germandbls" unicode="&#xdf;" horiz-adv-x="602" 
d="M500 171c0 -53.333 -17 -96.001 -51 -128.001c-35.333 -34 -84 -51 -146 -51c-27.333 0 -53 4 -77 12l8 59c27.333 -6 50.333 -9 69 -9c42 0 74.667 10.333 98 31s35 47 35 79c0 34 -14 64.667 -42 92l-78 62c-28 24 -42 49.667 -42 77c0 30 17.5 58.833 52.5 86.5
s52.5 54.834 52.5 81.501c0 62.667 -35.333 94 -106 94c-34 0 -69.333 -6.66699 -106 -20v-637h-65v678c64 28 121 42 171 42s91 -14.167 123 -42.5s48 -66.5 48 -114.5c0 -26.667 -9.33301 -51.667 -28 -75c-7.33301 -9.33301 -24.333 -25.666 -51 -48.999
c-18.667 -16 -28 -28.667 -28 -38c0 -14 14 -32 42 -54c40.667 -32.667 67 -55.667 79 -69c28 -32.667 42 -68.334 42 -107.001z" />
    <glyph glyph-name="agrave" unicode="&#xe0;" horiz-adv-x="480" 
d="M371 613l-19 -42l-222 92l25 56zM359 84v159h-125c-36.667 0 -65.167 -8 -85.5 -24s-30.5 -38 -30.5 -66c0 -30.667 8.66699 -55.667 26 -75c19.333 -21.333 45 -32 77 -32c41.333 0 87.333 12.667 138 38zM422 0h-49.998l-8 40c-50 -32 -98.667 -48 -146 -48
c-48 0 -87.167 14.333 -117.5 43s-45.5 67 -45.5 115s17.333 85 52 111c31.333 23.333 72.666 35 123.999 35h128v44c0 46.667 -8.66699 80.667 -26 102s-46.333 32 -87 32c-42.667 0 -89.334 -7.33301 -140.001 -22l-14 58c50 16.667 101.333 25 154 25
c57.333 0 101 -16.167 131 -48.5s45 -75.833 45 -130.5v-356z" />
    <glyph glyph-name="aacute" unicode="&#xe1;" horiz-adv-x="480" 
d="M351 683l-222 -92l-19 42l216 106zM359 84v159h-125c-36.667 0 -65.167 -8 -85.5 -24s-30.5 -38 -30.5 -66c0 -30.667 8.66699 -55.667 26 -75c19.333 -21.333 45 -32 77 -32c41.333 0 87.333 12.667 138 38zM422 0h-49.998l-8 40c-50 -32 -98.667 -48 -146 -48
c-48 0 -87.167 14.333 -117.5 43s-45.5 67 -45.5 115s17.333 85 52 111c31.333 23.333 72.666 35 123.999 35h128v44c0 46.667 -8.66699 80.667 -26 102s-46.333 32 -87 32c-42.667 0 -89.334 -7.33301 -140.001 -22l-14 58c50 16.667 101.333 25 154 25
c57.333 0 101 -16.167 131 -48.5s45 -75.833 45 -130.5v-356z" />
    <glyph glyph-name="acircumflex" unicode="&#xe2;" horiz-adv-x="480" 
d="M387 629l-31 -38l-115 95l-114 -95l-32 38l146 120zM359 84v159h-125c-36.667 0 -65.167 -8 -85.5 -24s-30.5 -38 -30.5 -66c0 -30.667 8.66699 -55.667 26 -75c19.333 -21.333 45 -32 77 -32c41.333 0 87.333 12.667 138 38zM422 0h-49.998l-8 40
c-50 -32 -98.667 -48 -146 -48c-48 0 -87.167 14.333 -117.5 43s-45.5 67 -45.5 115s17.333 85 52 111c31.333 23.333 72.666 35 123.999 35h128v44c0 46.667 -8.66699 80.667 -26 102s-46.333 32 -87 32c-42.667 0 -89.334 -7.33301 -140.001 -22l-14 58
c50 16.667 101.333 25 154 25c57.333 0 101 -16.167 131 -48.5s45 -75.833 45 -130.5v-356z" />
    <glyph glyph-name="atilde" unicode="&#xe3;" horiz-adv-x="480" 
d="M378 651c-20.667 -39.333 -47.002 -59 -79.002 -59c-19.333 0 -41.166 6.83301 -65.499 20.5s-40.166 20.5 -47.499 20.5c-16.667 0 -31 -11 -43 -33l-38 28c20 40 46.333 60 79 60c18.667 0 40.5 -6.83301 65.5 -20.5s41.167 -20.5 48.5 -20.5
c14.667 0 28.667 10.667 42 32zM358.998 84v159h-125c-36.667 0 -65.167 -8 -85.5 -24s-30.5 -38 -30.5 -66c0 -30.667 8.66699 -55.667 26 -75c19.333 -21.333 45 -32 77 -32c41.333 0 87.333 12.667 138 38zM421.998 0h-49.998l-8 40c-50 -32 -98.667 -48 -146 -48
c-48 0 -87.167 14.333 -117.5 43s-45.5 67 -45.5 115s17.333 85 52 111c31.333 23.333 72.666 35 123.999 35h128v44c0 46.667 -8.66699 80.667 -26 102s-46.333 32 -87 32c-42.667 0 -89.334 -7.33301 -140.001 -22l-14 58c50 16.667 101.333 25 154 25
c57.333 0 101 -16.167 131 -48.5s45 -75.833 45 -130.5v-356z" />
    <glyph glyph-name="adieresis" unicode="&#xe4;" horiz-adv-x="480" 
d="M364 636c0 -12.667 -4.5 -23.5 -13.5 -32.5s-19.833 -13.5 -32.5 -13.5s-23.5 4.5 -32.5 13.5s-13.5 19.833 -13.5 32.5s4.5 23.5 13.5 32.5s19.833 13.5 32.5 13.5s23.5 -4.5 32.5 -13.5s13.5 -19.833 13.5 -32.5zM197 636c0 -12.667 -4.5 -23.5 -13.5 -32.5
s-19.833 -13.5 -32.5 -13.5s-23.5 4.5 -32.5 13.5s-13.5 19.833 -13.5 32.5s4.5 23.5 13.5 32.5s19.833 13.5 32.5 13.5s23.5 -4.5 32.5 -13.5s13.5 -19.833 13.5 -32.5zM359 84v159h-125c-36.667 0 -65.167 -8 -85.5 -24s-30.5 -38 -30.5 -66
c0 -30.667 8.66699 -55.667 26 -75c19.333 -21.333 45 -32 77 -32c41.333 0 87.333 12.667 138 38zM422 0h-49.998l-8 40c-50 -32 -98.667 -48 -146 -48c-48 0 -87.167 14.333 -117.5 43s-45.5 67 -45.5 115s17.333 85 52 111c31.333 23.333 72.666 35 123.999 35h128v44
c0 46.667 -8.66699 80.667 -26 102s-46.333 32 -87 32c-42.667 0 -89.334 -7.33301 -140.001 -22l-14 58c50 16.667 101.333 25 154 25c57.333 0 101 -16.167 131 -48.5s45 -75.833 45 -130.5v-356z" />
    <glyph glyph-name="aring" unicode="&#xe5;" horiz-adv-x="480" 
d="M328 672c0 -22 -7.83301 -40.833 -23.5 -56.5s-34.834 -23.5 -57.501 -23.5c-22 0 -40.833 7.83301 -56.5 23.5s-23.5 34.5 -23.5 56.5c0 22.667 7.83301 41.834 23.5 57.501s34.5 23.5 56.5 23.5c22.667 0 41.834 -7.83301 57.501 -23.5s23.5 -34.834 23.5 -57.501z
M298 672c0 14 -5 26 -15 36s-22 15 -36 15s-25.833 -5 -35.5 -15s-14.5 -22 -14.5 -36s4.83301 -25.833 14.5 -35.5s21.5 -14.5 35.5 -14.5s26 4.83301 36 14.5s15 21.5 15 35.5zM359 84v159h-125c-36.667 0 -65.167 -8 -85.5 -24s-30.5 -38 -30.5 -66
c0 -30.667 8.66699 -55.667 26 -75c19.333 -21.333 45 -32 77 -32c41.333 0 87.333 12.667 138 38zM422 0h-49.998l-8 40c-50 -32 -98.667 -48 -146 -48c-48 0 -87.167 14.333 -117.5 43s-45.5 67 -45.5 115s17.333 85 52 111c31.333 23.333 72.666 35 123.999 35h128v44
c0 46.667 -8.66699 80.667 -26 102s-46.333 32 -87 32c-42.667 0 -89.334 -7.33301 -140.001 -22l-14 58c50 16.667 101.333 25 154 25c57.333 0 101 -16.167 131 -48.5s45 -75.833 45 -130.5v-356z" />
    <glyph glyph-name="ae" unicode="&#xe6;" horiz-adv-x="817" 
d="M756 267c0 -11.333 -5.66602 -16.999 -16.999 -16.999h-317v-51c0 -38.667 10.667 -71.334 32 -98.001c26 -32 62.333 -48 109 -48c42.667 0 95 9.33301 157 28l14 -57c-60 -21.333 -117 -32 -171 -32c-56.667 0 -103.667 17.667 -141 53v-45h-50l-8 39
c-54.667 -31.333 -103.334 -47 -146.001 -47c-48 0 -87.167 14.667 -117.5 44s-45.5 68.333 -45.5 117c0 48 16.667 85 50 111c30.667 24 71.667 36 123 36h131v40c0 46.667 -8.66699 80.667 -26 102s-46.333 32 -87 32c-35.333 0 -82 -8.33301 -140 -25l-14 58
c56 18.667 107.333 28 154 28c73.333 0 124.333 -26.333 153 -79c38 52.667 91 79 159 79c60 0 108.667 -21.667 146 -65c34.667 -40 52 -88 52 -144v-59zM693.001 305.001l0.00195312 21c0 38.667 -10.333 71.667 -31 99c-24.667 32.667 -59.334 49 -104.001 49
s-79.334 -16.333 -104.001 -49c-21.333 -27.333 -32 -61.333 -32 -102v-18h271zM359.003 91.001v156h-128c-36 0 -63.833 -8.66699 -83.5 -26s-29.5 -40 -29.5 -68c0 -29.333 9 -53.333 27 -72s42.333 -28 73 -28c43.333 0 90.333 12.667 141 38z" />
    <glyph glyph-name="ccedilla" unicode="&#xe7;" horiz-adv-x="485" 
d="M422 23c-42 -14 -81 -23 -117 -27v-83c0 -36 -11.667 -63.333 -35 -82c-20 -15.333 -45 -23 -75 -23c-16 0 -31.667 1.66699 -47 5l6 52c16 -2.66699 28.333 -4 37 -4c38 0 57 21.667 57 65v68c-56.667 4.66699 -102 28 -136 70c-31.333 38.667 -47 84.667 -47 138v127
c0 56.667 17.333 104.667 52 144c38 42.667 88 64 150 64c43.333 0 94 -9.66699 152 -29l-15 -57c-62 16.667 -107.667 25 -137 25c-47.333 0 -83.333 -16.667 -108 -50c-20.667 -26.667 -31 -60 -31 -100v-121c0 -40 10.333 -73.667 31 -101
c24.667 -32.667 60.667 -49 108 -49c33.333 0 81.333 7.66699 144 23z" />
    <glyph glyph-name="egrave" unicode="&#xe8;" horiz-adv-x="523" 
d="M391 618l-19 -42l-222 92l25 56zM462 267c0 -11.333 -5.66699 -17 -17 -17h-317v-51c0 -38.667 10.667 -71.334 32 -98.001c26 -32 62.333 -48 109 -48c42.667 0 95 9.33301 157 28l14 -57c-60 -21.333 -117 -32 -171 -32c-62.667 0 -113 21.333 -151 64
c-35.333 38.667 -53 86.334 -53 143.001v127c0 57.333 18.167 106.5 54.5 147.5s84.5 61.5 144.5 61.5s108.667 -21.667 146 -65c34.667 -40 52 -88 52 -144v-59zM399 305l0.00195312 21c0 38.667 -10.333 71.667 -31 99c-24.667 32.667 -59.334 49 -104.001 49
s-79.334 -16.333 -104.001 -49c-21.333 -27.333 -32 -61.333 -32 -102v-18h271z" />
    <glyph glyph-name="eacute" unicode="&#xe9;" horiz-adv-x="523" 
d="M371 684l-222 -92l-19 42l216 106zM462 267c0 -11.333 -5.66699 -16.999 -17 -16.999h-317v-51c0 -38.667 10.667 -71.667 32 -99c26 -31.333 62.333 -47 109 -47c42.667 0 95 9.33301 157 28l14 -57c-60 -21.333 -117 -32 -171 -32c-62.667 0 -113 21 -151 63
c-35.333 39.333 -53 87.333 -53 144v127c0 57.333 17.667 105.666 53 144.999c37.333 42.667 86 64 146 64s108.667 -21.667 146 -65c34.667 -40 52 -88 52 -144v-59zM399 305.001l0.00195312 21c0 38.667 -10.333 71.667 -31 99c-24.667 32.667 -59.334 49 -104.001 49
s-79.334 -16.333 -104.001 -49c-21.333 -28 -32 -62 -32 -102v-18h271z" />
    <glyph glyph-name="ecircumflex" unicode="&#xea;" horiz-adv-x="523" 
d="M407 630l-31 -38l-115 95l-114 -95l-32 38l146 120zM462 267c0 -11.333 -5.66699 -17 -17 -17h-317v-51c0 -38 10.667 -70.667 32 -98c26 -32 62.333 -48 109 -48c42.667 0 95 9.33301 157 28l14 -57c-60 -21.333 -117 -32 -171 -32c-62.667 0 -113 21.333 -151 64
c-35.333 39.333 -53 87 -53 143v127c0 58 17.667 106.667 53 146c37.333 42 86 63 146 63s108.667 -21.333 146 -64c34.667 -40 52 -88.333 52 -145v-59zM399 305l0.00195312 21c0 38.667 -10.333 72 -31 100c-24.667 32 -59.334 48 -104.001 48s-79.334 -16 -104.001 -48
c-21.333 -28 -32 -62.333 -32 -103v-18h271z" />
    <glyph glyph-name="edieresis" unicode="&#xeb;" horiz-adv-x="523" 
d="M394 637c0 -12.667 -4.5 -23.5 -13.5 -32.5s-19.833 -13.5 -32.5 -13.5s-23.5 4.5 -32.5 13.5s-13.5 19.833 -13.5 32.5s4.5 23.5 13.5 32.5s19.833 13.5 32.5 13.5s23.5 -4.66699 32.5 -14s13.5 -20 13.5 -32zM227 637c0 -12.667 -4.5 -23.5 -13.5 -32.5
s-19.833 -13.5 -32.5 -13.5s-23.5 4.5 -32.5 13.5s-13.5 19.833 -13.5 32.5c0 12 4.5 22.667 13.5 32s19.833 14 32.5 14s23.5 -4.66699 32.5 -14s13.5 -20 13.5 -32zM462 267c0 -11.333 -5.66699 -16.999 -17 -16.999h-317v-51c0 -38.667 10.667 -71.667 32 -99
c26 -31.333 62.333 -47 109 -47c42.667 0 95 9.33301 157 28l14 -57c-60 -21.333 -117 -32 -171 -32c-62.667 0 -113 21 -151 63c-35.333 39.333 -53 87.333 -53 144v127c0 57.333 17.667 105.666 53 144.999c37.333 42.667 86 64 146 64s108.667 -21.667 146 -65
c34.667 -40 52 -88 52 -144v-59zM399 305.001l0.00195312 21c0 38.667 -10.333 71.667 -31 99c-24.667 32.667 -59.334 49 -104.001 49s-79.334 -16.333 -104.001 -49c-21.333 -28 -32 -62 -32 -102v-18h271z" />
    <glyph glyph-name="igrave" unicode="&#xec;" horiz-adv-x="249" 
d="M245 613l-19 -42l-222 92l25 56zM169 16c0 -10.667 -5 -16 -15 -16h-48v469l-66 6v52h129v-511z" />
    <glyph glyph-name="iacute" unicode="&#xed;" horiz-adv-x="250" 
d="M237 683l-222 -92l-19 42l216 106zM170 16c0 -10.667 -5 -16 -15 -16h-48v469l-66 6v52h129v-511z" />
    <glyph glyph-name="icircumflex" unicode="&#xee;" horiz-adv-x="249" 
d="M260 629l-31 -38l-115 95l-114 -95l-32 38l146 120zM169 16c0 -10.667 -5 -16 -15 -16h-48v469l-66 6v52h129v-511z" />
    <glyph glyph-name="idieresis" unicode="&#xef;" horiz-adv-x="249" 
d="M254 636c0 -12.667 -4.5 -23.5 -13.5 -32.5s-19.833 -13.5 -32.5 -13.5s-23.5 4.5 -32.5 13.5s-13.5 19.833 -13.5 32.5s4.5 23.5 13.5 32.5s19.833 13.5 32.5 13.5s23.5 -4.5 32.5 -13.5s13.5 -19.833 13.5 -32.5zM87 636c0 -12.667 -4.5 -23.5 -13.5 -32.5
s-19.833 -13.5 -32.5 -13.5s-23.5 4.5 -32.5 13.5s-13.5 19.833 -13.5 32.5s4.5 23.5 13.5 32.5s19.833 13.5 32.5 13.5s23.5 -4.5 32.5 -13.5s13.5 -19.833 13.5 -32.5zM169 16c0 -10.667 -5 -16 -15 -16h-48v469l-66 6v52h129v-511z" />
    <glyph glyph-name="eth" unicode="&#xf0;" 
 />
    <glyph glyph-name="ntilde" unicode="&#xf1;" horiz-adv-x="535" 
d="M408 651c-20.667 -39.333 -47.002 -59 -79.002 -59c-19.333 0 -41.166 6.83301 -65.499 20.5s-40.166 20.5 -47.499 20.5c-16.667 0 -31 -11 -43 -33l-38 28c20 40 46.333 60 79 60c18.667 0 40.5 -6.83301 65.5 -20.5s41.167 -20.5 48.5 -20.5
c14.667 0 28.667 10.667 42 32zM464.998 16c0 -10.667 -4.99805 -16.001 -14.998 -16.001h-48v336c0 92 -37 138 -111 138c-44 0 -93.333 -13.667 -148 -41v-433h-63v527h49l8 -42c65.333 33.333 116.666 50 153.999 50c55.333 0 98.666 -18 129.999 -54
c29.333 -33.333 44 -77.666 44 -132.999v-332z" />
    <glyph glyph-name="ograve" unicode="&#xf2;" horiz-adv-x="544" 
d="M401 614l-19 -42l-222 92l25 56zM478 199c0 -59.333 -18.666 -108.666 -55.999 -147.999s-87.333 -59 -150 -59s-112.834 19.667 -150.501 59s-56.5 88.666 -56.5 147.999v127c0 60 18.667 109.833 56 149.5s87 59.5 149 59.5c63.333 0 113.833 -19.833 151.5 -59.5
s56.5 -89.5 56.5 -149.5v-127zM415.001 207v111.999c0 44.667 -11.333 81 -34 109c-26 30.667 -63 46 -111 46c-47.333 0 -83.333 -15.333 -108 -46c-22.667 -27.333 -34 -63.666 -34 -108.999v-112c0 -45.333 11.333 -81.666 34 -108.999c25.333 -30 62 -45 110 -45
s84.333 15 109 45c22.667 27.333 34 63.666 34 108.999z" />
    <glyph glyph-name="oacute" unicode="&#xf3;" horiz-adv-x="544" 
d="M381 684l-222 -92l-19 42l216 106zM478 199c0 -58.667 -18.333 -107.334 -55 -146.001c-38 -40.667 -88.333 -61 -151 -61s-113 20.333 -151 61c-37.333 38.667 -56 87.334 -56 146.001v127c0 60 18.667 109.833 56 149.5s87 59.5 149 59.5
c63.333 0 113.833 -19.833 151.5 -59.5s56.5 -89.5 56.5 -149.5v-127zM415 207v112.001c0 45.333 -11.333 81.666 -34 108.999c-26 30.667 -63 46 -111 46c-47.333 0 -83.333 -15 -108 -45c-22.667 -27.333 -34 -64 -34 -110v-112c0 -44.667 11.333 -80.667 34 -108
c25.333 -30.667 62 -46 110 -46s84.333 15.333 109 46c22.667 27.333 34 63.333 34 108z" />
    <glyph glyph-name="ocircumflex" unicode="&#xf4;" horiz-adv-x="544" 
d="M414 630l-31 -38l-115 95l-114 -95l-32 38l146 120zM478 199c0 -59.333 -18.333 -108.001 -55 -146.001c-38 -40.667 -88.333 -61 -151 -61s-113 20.333 -151 61c-37.333 38.667 -56 87.334 -56 146.001v127c0 60 18.667 109.833 56 149.5s87 59.5 149 59.5
c63.333 0 113.833 -19.833 151.5 -59.5s56.5 -89.5 56.5 -149.5v-127zM415 206.999v112.001c0 45.333 -11.333 81.666 -34 108.999c-26 30.667 -63 46 -111 46c-47.333 0 -83.333 -15 -108 -45c-22.667 -27.333 -34 -64 -34 -110v-112c0 -44.667 11.333 -80.667 34 -108
c25.333 -30.667 62 -46 110 -46s84.333 15.333 109 46c22.667 26.667 34 62.667 34 108z" />
    <glyph glyph-name="otilde" unicode="&#xf5;" horiz-adv-x="544" 
d="M398 652c-20.667 -39.333 -47.002 -59 -79.002 -59c-19.333 0 -41.166 6.83301 -65.499 20.5s-40.166 20.5 -47.499 20.5c-16.667 0 -31 -11 -43 -33l-38 28c20 40 46.333 60 79 60c18.667 0 40.5 -6.83301 65.5 -20.5s41.167 -20.5 48.5 -20.5
c14.667 0 28.667 10.667 42 32zM477.998 199c0 -58.667 -18.333 -107.334 -55 -146.001c-38 -40.667 -88.333 -61 -151 -61s-113 20.333 -151 61c-37.333 38.667 -56 87.334 -56 146.001v127c0 60 18.667 109.833 56 149.5s87 59.5 149 59.5
c63.333 0 113.833 -19.833 151.5 -59.5s56.5 -89.5 56.5 -149.5v-127zM414.998 207v112.001c0 45.333 -11.333 81.666 -34 108.999c-26 30.667 -63 46 -111 46c-47.333 0 -83.333 -15 -108 -45c-22.667 -27.333 -34 -64 -34 -110v-112c0 -44.667 11.333 -80.667 34 -108
c25.333 -30.667 62 -46 110 -46s84.333 15.333 109 46c22.667 27.333 34 63.333 34 108z" />
    <glyph glyph-name="odieresis" unicode="&#xf6;" horiz-adv-x="544" 
d="M394 637c0 -12 -4.5 -22.667 -13.5 -32s-19.833 -14 -32.5 -14s-23.5 4.5 -32.5 13.5s-13.5 19.833 -13.5 32.5s4.5 23.5 13.5 32.5s19.833 13.5 32.5 13.5s23.5 -4.5 32.5 -13.5s13.5 -19.833 13.5 -32.5zM227 637c0 -12 -4.5 -22.667 -13.5 -32s-19.833 -14 -32.5 -14
s-23.5 4.66699 -32.5 14s-13.5 20 -13.5 32c0 12.667 4.5 23.5 13.5 32.5s19.833 13.5 32.5 13.5s23.5 -4.5 32.5 -13.5s13.5 -19.833 13.5 -32.5zM478 199c0 -58.667 -18.333 -107.334 -55 -146.001c-38 -40.667 -88.333 -61 -151 -61s-113 20.333 -151 61
c-37.333 38.667 -56 87.334 -56 146.001v127c0 60 18.667 109.833 56 149.5s87 59.5 149 59.5c63.333 0 113.833 -19.833 151.5 -59.5s56.5 -89.5 56.5 -149.5v-127zM415 207v112.001c0 45.333 -11.333 81.666 -34 108.999c-26 30.667 -63 46 -111 46
c-47.333 0 -83.333 -15 -108 -45c-22.667 -27.333 -34 -64 -34 -110v-112c0 -44.667 11.333 -80.667 34 -108c25.333 -30.667 62 -46 110 -46s84.333 15.333 109 46c22.667 27.333 34 63.333 34 108z" />
    <glyph glyph-name="divide" unicode="&#xf7;" 
 />
    <glyph glyph-name="oslash" unicode="&#xf8;" horiz-adv-x="544" 
d="M478 199c0 -58.667 -18.333 -107.334 -55 -146.001c-38 -40.667 -88.333 -61 -151 -61c-25.333 0 -48.666 3.33301 -69.999 10l-22 -61l-41 15l23 64c-64.667 37.333 -97 97 -97 179v127c0 60 18.667 109.833 56 149.5s87 59.5 149 59.5
c25.333 0 48.666 -3.33301 69.999 -10l22 61l41 -15l-23 -64c65.333 -37.333 98 -97.666 98 -180.999v-127zM415 207v112c0 58.667 -18.667 101.667 -56 129l-137 -388c16 -4.66699 32.667 -7 50 -7c48 0 84.333 15.333 109 46c22.667 27.333 34 63.333 34 108zM320 467
c-15.333 4.66699 -32.001 7 -50.001 7c-47.333 0 -83.666 -15 -108.999 -45c-22 -27.333 -33 -64 -33 -110v-112c0 -58 18.333 -100.667 55 -128z" />
    <glyph glyph-name="ugrave" unicode="&#xf9;" horiz-adv-x="530" 
d="M391 613l-19 -42l-222 92l25 56zM454 0h-49.001l-8 42c-65.333 -33.333 -116.333 -50 -153 -50c-55.333 0 -98.666 18 -129.999 54c-29.333 33.333 -44 77.333 -44 132v331c0 12 5.33301 18 16 18h47v-337c0 -91.333 37 -137 111 -137c40 0 89 13.333 147 40v434h63v-527
z" />
    <glyph glyph-name="uacute" unicode="&#xfa;" horiz-adv-x="530" 
d="M381 683l-222 -92l-19 42l216 106zM454 0h-49.001l-8 42c-65.333 -33.333 -116.333 -50 -153 -50c-55.333 0 -98.666 18 -129.999 54c-29.333 33.333 -44 77.333 -44 132v331c0 12 5.33301 18 16 18h47v-337c0 -91.333 37 -137 111 -137c40 0 89 13.333 147 40v434h63
v-527z" />
    <glyph glyph-name="ucircumflex" unicode="&#xfb;" horiz-adv-x="530" 
d="M408 629l-31 -38l-115 95l-114 -95l-32 38l146 120zM454 0h-49.001l-8 42c-65.333 -33.333 -116.333 -50 -153 -50c-55.333 0 -98.666 18 -129.999 54c-29.333 33.333 -44 77.333 -44 132v331c0 12 5.33301 18 16 18h47v-337c0 -91.333 37 -137 111 -137
c40 0 89 13.333 147 40v434h63v-527z" />
    <glyph glyph-name="udieresis" unicode="&#xfc;" horiz-adv-x="530" 
d="M394 636c0 -12.667 -4.5 -23.5 -13.5 -32.5s-19.833 -13.5 -32.5 -13.5s-23.5 4.5 -32.5 13.5s-13.5 19.833 -13.5 32.5s4.5 23.5 13.5 32.5s19.833 13.5 32.5 13.5s23.5 -4.5 32.5 -13.5s13.5 -19.833 13.5 -32.5zM227 636c0 -12.667 -4.5 -23.5 -13.5 -32.5
s-19.833 -13.5 -32.5 -13.5s-23.5 4.5 -32.5 13.5s-13.5 19.833 -13.5 32.5s4.5 23.5 13.5 32.5s19.833 13.5 32.5 13.5s23.5 -4.5 32.5 -13.5s13.5 -19.833 13.5 -32.5zM454 0h-49.001l-8 42c-65.333 -33.333 -116.333 -50 -153 -50c-55.333 0 -98.666 18 -129.999 54
c-29.333 33.333 -44 77.333 -44 132v331c0 12 5.33301 18 16 18h47v-337c0 -91.333 37 -137 111 -137c40 0 89 13.333 147 40v434h63v-527z" />
    <glyph glyph-name="yacute" unicode="&#xfd;" 
 />
    <glyph glyph-name="thorn" unicode="&#xfe;" 
 />
    <glyph glyph-name="ydieresis" unicode="&#xff;" horiz-adv-x="501" 
d="M374 638c0 -12.667 -4.5 -23.5 -13.5 -32.5s-19.833 -13.5 -32.5 -13.5s-23.5 4.5 -32.5 13.5s-13.5 19.833 -13.5 32.5s4.5 23.5 13.5 32.5s19.833 13.5 32.5 13.5s23.5 -4.5 32.5 -13.5s13.5 -19.833 13.5 -32.5zM207 638c0 -12.667 -4.5 -23.5 -13.5 -32.5
s-19.833 -13.5 -32.5 -13.5s-23.5 4.5 -32.5 13.5s-13.5 19.833 -13.5 32.5s4.5 23.5 13.5 32.5s19.833 13.5 32.5 13.5s23.5 -4.5 32.5 -13.5s13.5 -19.833 13.5 -32.5zM432 527l-25 -550.999c-5.33301 -109.333 -60.333 -164 -165 -164h-91l-7 61h99
c46.667 0 76.667 16.667 90 50c6 15.333 10.333 51.666 13 108.999c-38 -21.333 -73 -32 -105 -32c-101.333 0 -157.333 59.667 -168 179l-33 348h64l32 -341c8 -83.333 43.667 -125 107 -125c30 0 65.333 11 106 33l20 433h63z" />
    <glyph glyph-name="dotlessi" unicode="&#x131;" horiz-adv-x="197" 
d="M130 17c0 -11.333 -5.33301 -17 -16 -17h-47v523h63v-506z" />
    <glyph glyph-name="Lslash" unicode="&#x141;" 
 />
    <glyph glyph-name="lslash" unicode="&#x142;" 
 />
    <glyph glyph-name="OE" unicode="&#x152;" horiz-adv-x="956" 
d="M896 16c0 -10.667 -5.66602 -16 -16.999 -16h-169c-88.667 0 -146.667 32 -174 96c-48 -69.333 -117.333 -104 -208 -104c-78 0 -141.333 27.333 -190 82c-45.333 51.333 -68 115 -68 191v181c0 78 22.667 142.333 68 193c48 54 111.333 81 190 81
c88.667 0 157.667 -35.333 207 -106c26 65.333 84.333 98 175 98h183v-62h-183c-82.667 0 -124 -38 -124 -114v-142h292v-61h-292v-156c0 -36.667 8 -64 24 -82c19.333 -22 52.666 -33 99.999 -33h186v-46zM521.001 268v174.998c0 54.667 -14.667 102 -44 142
c-34.667 48 -84.334 72 -149.001 72c-65.333 0 -115.666 -24 -150.999 -72c-28.667 -39.333 -43 -86.666 -43 -141.999v-175c0 -55.333 14.333 -102.666 43 -141.999c35.333 -48 85.666 -72 150.999 -72c64.667 0 114.334 24 149.001 72c29.333 40 44 87.333 44 142z" />
    <glyph glyph-name="oe" unicode="&#x153;" horiz-adv-x="873" 
d="M812 267c0 -11.333 -5.66602 -16.998 -16.999 -16.998h-317v-51c0 -38.667 10.667 -71.334 32 -98.001c26 -32 62.333 -48 109 -48c42.667 0 95 9.33301 157 28l14 -57c-60 -21.333 -117 -32 -171 -32c-78 0 -135.667 30.333 -173 91
c-37.333 -60.667 -95.333 -91 -174 -91c-62.667 0 -112.834 19.667 -150.501 59s-56.5 88.666 -56.5 147.999v127c0 60 18.667 109.833 56 149.5s87 59.5 149 59.5c79.333 0 138 -30.667 176 -92c37.333 61.333 93.333 92 168 92c60 0 108.667 -21.667 146 -65
c34.667 -40 52 -88 52 -144v-59zM749.001 305.002l0.00195312 21c0 38.667 -10.333 71.667 -31 99c-24.667 32.667 -59.334 49 -104.001 49s-79.334 -16.333 -104.001 -49c-21.333 -27.333 -32 -61.333 -32 -102v-18h271zM415.003 207.002v112
c0 45.333 -11.333 81.666 -34 108.999c-26 30.667 -63 46 -111 46c-47.333 0 -83.333 -15.333 -108 -46c-22.667 -27.333 -34 -63.666 -34 -108.999v-112c0 -45.333 11.333 -81.666 34 -108.999c25.333 -30 62 -45 110 -45s84.333 15 109 45
c22.667 27.333 34 63.666 34 108.999z" />
    <glyph glyph-name="Scaron" unicode="&#x160;" 
 />
    <glyph glyph-name="scaron" unicode="&#x161;" 
 />
    <glyph glyph-name="Ydieresis" unicode="&#x178;" horiz-adv-x="572" 
d="M423 810c0 -12.667 -4.5 -23.5 -13.5 -32.5s-19.833 -13.5 -32.5 -13.5s-23.5 4.5 -32.5 13.5s-13.5 19.833 -13.5 32.5s4.5 23.5 13.5 32.5s19.833 13.5 32.5 13.5s23.5 -4.5 32.5 -13.5s13.5 -19.833 13.5 -32.5zM256 810c0 -12.667 -4.5 -23.5 -13.5 -32.5
s-19.833 -13.5 -32.5 -13.5s-23.5 4.5 -32.5 13.5s-13.5 19.833 -13.5 32.5s4.5 23.5 13.5 32.5s19.833 13.5 32.5 13.5s23.5 -4.5 32.5 -13.5s13.5 -19.833 13.5 -32.5zM527 712l-38.998 -208c-10.667 -58 -26.334 -102 -47.001 -132c-27.333 -41.333 -68.333 -67 -123 -77
v-295h-66v295c-53.333 10 -94 35.667 -122 77c-20 30.667 -35.333 74.667 -46 132l-39 208h65l37 -198c10 -53.333 22.333 -91 37 -113c21.333 -31.333 55 -47 101 -47c47.333 0 81.666 15.667 102.999 47c15.333 21.333 28 59 38 113l37 198h64z" />
    <glyph glyph-name="Zcaron" unicode="&#x17d;" 
 />
    <glyph glyph-name="zcaron" unicode="&#x17e;" 
 />
    <glyph glyph-name="florin" unicode="&#x192;" horiz-adv-x="512" 
d="M484 717l-15 -56.999c-28 6 -49.667 9 -65 9c-57.333 0 -88.666 -33.667 -93.999 -101l-8 -102h146v-58h-152l-39 -449c-4 -47.333 -20 -84.5 -48 -111.5s-64.667 -40.5 -110 -40.5c-16.667 0 -42.334 4 -77.001 12l14 57c30 -6 52 -9 66 -9c56 0 87 33.667 93 101
l38 440h-9l-93 3v55h107l9 111c4 47.333 20.167 84.666 48.5 111.999s65.5 41 111.5 41c14 0 39.667 -4.33301 77 -13z" />
    <glyph glyph-name="circumflex" unicode="&#x2c6;" horiz-adv-x="412" 
d="M352 629l-31 -38l-115 95l-114 -95l-32 38l146 120z" />
    <glyph glyph-name="caron" unicode="&#x2c7;" horiz-adv-x="432" 
d="M362 710l-146 -119l-146 119l32 39l114 -96l114 96z" />
    <glyph glyph-name="breve" unicode="&#x2d8;" horiz-adv-x="341" 
d="M301 725c0 -38.667 -11.833 -70.5 -35.5 -95.5s-55.167 -37.5 -94.5 -37.5s-71 12.5 -95 37.5s-36 56.833 -36 95.5h54c0 -23.333 5.66699 -42.666 17 -57.999c13.333 -18 33.333 -27 60 -27c26 0 45.667 9 59 27c11.333 15.333 17 34.666 17 57.999h54z" />
    <glyph glyph-name="dotaccent" unicode="&#x2d9;" horiz-adv-x="197" 
d="M144 637c0 -12 -4.5 -22.333 -13.5 -31s-19.5 -13 -31.5 -13c-11.333 0 -21.5 4.5 -30.5 13.5s-13.5 19.167 -13.5 30.5c0 12 4.33301 22.5 13 31.5s19 13.5 31 13.5s22.5 -4.5 31.5 -13.5s13.5 -19.5 13.5 -31.5z" />
    <glyph glyph-name="ring" unicode="&#x2da;" horiz-adv-x="321" 
d="M241 672c0 -22 -7.83301 -40.833 -23.5 -56.5s-34.834 -23.5 -57.501 -23.5c-22 0 -40.833 7.83301 -56.5 23.5s-23.5 34.5 -23.5 56.5c0 22.667 7.83301 41.834 23.5 57.501s34.5 23.5 56.5 23.5c22.667 0 41.834 -7.83301 57.501 -23.5s23.5 -34.834 23.5 -57.501z
M211 672c0 14 -5 26 -15 36s-22 15 -36 15s-25.833 -5 -35.5 -15s-14.5 -22 -14.5 -36s4.83301 -25.833 14.5 -35.5s21.5 -14.5 35.5 -14.5s26 4.83301 36 14.5s15 21.5 15 35.5z" />
    <glyph glyph-name="ogonek" unicode="&#x2db;" horiz-adv-x="287" 
d="M222 -189c-14.667 -3.33301 -30.333 -5 -47 -5c-30 0 -54.667 7.66699 -74 23c-24 18.667 -36 46 -36 82v86h56v-73c0 -43.333 19 -65 57 -65c9.33301 0 22 1.33301 38 4z" />
    <glyph glyph-name="tilde" unicode="&#x2dc;" horiz-adv-x="383" 
d="M328 651c-20.667 -39.333 -47.002 -59 -79.002 -59c-19.333 0 -41.166 6.83301 -65.499 20.5s-40.166 20.5 -47.499 20.5c-16.667 0 -31 -11 -43 -33l-38 28c20 40 46.333 60 79 60c18.667 0 40.5 -6.83301 65.5 -20.5s41.167 -20.5 48.5 -20.5
c14.667 0 28.667 10.667 42 32z" />
    <glyph glyph-name="hungarumlaut" unicode="&#x2dd;" horiz-adv-x="275" 
d="M272 660l-83.999 -144l-50 23l56 157c7.33301 16 20.666 24 39.999 24c12 0 21.833 -4.16699 29.5 -12.5s11.5 -18.5 11.5 -30.5c0 -6 -1 -11.667 -3 -17zM134.001 660l-84 -144l-50 23l56 157c8 16 21.333 24 40 24c12 0 22 -4.16699 30 -12.5s12 -18.5 12 -30.5
c0 -6 -1.33301 -11.667 -4 -17z" />
    <glyph glyph-name="Delta" unicode="&#x394;" 
 />
    <glyph glyph-name="Delta" unicode="&#x2206;" 
 />
    <glyph glyph-name="Omega" unicode="&#x3a9;" 
 />
    <glyph glyph-name="Omega" unicode="&#x2126;" 
 />
    <glyph glyph-name="pi" unicode="&#x3c0;" 
 />
    <glyph glyph-name="endash" unicode="&#x2013;" horiz-adv-x="499" 
d="M499 237h-499v63h499v-63z" />
    <glyph glyph-name="emdash" unicode="&#x2014;" horiz-adv-x="1000" 
d="M1000 237h-1000v63h1000v-63z" />
    <glyph glyph-name="quoteleft" unicode="&#x2018;" horiz-adv-x="213" 
d="M51 563l57.999 156l53 -14l-28 -164c-6 -21.333 -20 -32 -42 -32c-11.333 0 -21.166 4.33301 -29.499 13s-12.5 18.667 -12.5 30c0 4 0.333008 7.66699 1 11z" />
    <glyph glyph-name="quoteright" unicode="&#x2019;" horiz-adv-x="212" 
d="M161 666l-57.999 -156l-53 14l28 164c6 21.333 20 32 42 32c11.333 0 21.166 -4.33301 29.499 -13s12.5 -18.667 12.5 -30c0 -4 -0.333008 -7.66699 -1 -11z" />
    <glyph glyph-name="quotesinglbase" unicode="&#x201a;" horiz-adv-x="212" 
d="M161 38l-57.999 -156l-53 14l28 164c6 22 20 33 42 33c11.333 0 21.166 -4.33301 29.499 -13s12.5 -19 12.5 -31c0 -3.33301 -0.333008 -7 -1 -11zM161.001 38l-57.999 -156l-53 14l28 164c6 22 20 33 42 33c11.333 0 21.166 -4.33301 29.499 -13s12.5 -19 12.5 -31
c0 -3.33301 -0.333008 -7 -1 -11z" />
    <glyph glyph-name="quotedblleft" unicode="&#x201c;" horiz-adv-x="352" 
d="M191 563l57.999 156l53 -14l-28 -164c-6 -21.333 -20 -32 -42 -32c-11.333 0 -21.166 4.33301 -29.499 13s-12.5 18.667 -12.5 30c0 4 0.333008 7.66699 1 11zM50.999 563l57.999 156l53 -14l-28 -164c-6 -21.333 -20 -32 -42 -32c-11.333 0 -21.166 4.33301 -29.499 13
s-12.5 18.667 -12.5 30c0 4 0.333008 7.66699 1 11z" />
    <glyph glyph-name="quotedblright" unicode="&#x201d;" horiz-adv-x="352" 
d="M161 666l-57.999 -156l-53 14l28 164c6 21.333 20 32 42 32c11.333 0 21.166 -4.33301 29.499 -13s12.5 -18.667 12.5 -30c0 -4 -0.333008 -7.66699 -1 -11zM301.001 666l-57.999 -156l-53 14l28 164c6 21.333 20 32 42 32c11.333 0 21.166 -4.33301 29.499 -13
s12.5 -18.667 12.5 -30c0 -4 -0.333008 -7.66699 -1 -11z" />
    <glyph glyph-name="quotedblbase" unicode="&#x201e;" horiz-adv-x="352" 
d="M161 38l-57.999 -156.001l-53 14l28 164c6 21.333 20 32 42 32c11.333 0 21.166 -4.33301 29.499 -13s12.5 -19 12.5 -31c0 -3.33301 -0.333008 -6.66602 -1 -9.99902zM301.001 37.999l-57.999 -156.001l-53 14l28 164c6 21.333 20 32 42 32
c11.333 0 21.166 -4.33301 29.499 -13s12.5 -19 12.5 -31c0 -3.33301 -0.333008 -6.66602 -1 -9.99902z" />
    <glyph glyph-name="dagger" unicode="&#x2020;" horiz-adv-x="500" 
d="M405 456l-129 5l6 -461h-64l6 461l-129 -5v62l129 -6l-6 178h64l-6 -178l129 6v-62z" />
    <glyph glyph-name="daggerdbl" unicode="&#x2021;" horiz-adv-x="506" 
d="M411 180l-132 6l6 -186h-64l6 186l-132 -6v62l132 -6v218l-132 -6v62l132 -6l-6 186h64l-6 -186l132 6v-62l-132 6v-218l132 6v-62z" />
    <glyph glyph-name="bullet" unicode="&#x2022;" horiz-adv-x="522" 
d="M412 267c0 -41.333 -14.833 -76.666 -44.5 -105.999s-65.167 -44 -106.5 -44s-76.833 14.667 -106.5 44s-44.5 64.666 -44.5 105.999c0 42 14.833 77.667 44.5 107s65.167 44 106.5 44s76.833 -14.667 106.5 -44s44.5 -65 44.5 -107z" />
    <glyph glyph-name="ellipsis" unicode="&#x2026;" horiz-adv-x="901" 
d="M200 42c0 -13.333 -5 -25 -15 -35s-21.333 -15 -34 -15c-13.333 0 -24.833 5 -34.5 15s-14.5 21.667 -14.5 35s4.83301 25 14.5 35s21.167 15 34.5 15c12.667 0 24 -5 34 -15s15 -21.667 15 -35zM499 42c0 -13.333 -4.83301 -25 -14.5 -35s-21.167 -15 -34.5 -15
s-24.666 5 -33.999 15s-14 21.667 -14 35s4.66699 25 14 35s20.666 15 33.999 15s24.833 -5 34.5 -15s14.5 -21.667 14.5 -35zM799 42c0 -13.333 -5 -25 -15 -35s-21.333 -15 -34 -15c-13.333 0 -24.833 5 -34.5 15s-14.5 21.667 -14.5 35s4.83301 25 14.5 35
s21.167 15 34.5 15c12.667 0 24 -5 34 -15s15 -21.667 15 -35z" />
    <glyph glyph-name="perthousand" unicode="&#x2030;" horiz-adv-x="1228" 
d="M1128 159c0 -46.667 -14 -86.167 -42 -118.5s-65 -48.5 -111 -48.5s-83 16 -111 48s-42 71.667 -42 119s14 87.166 42 119.499s65 48.5 111 48.5s83 -16.167 111 -48.5s42 -72.166 42 -119.499zM406 532c0 -46.667 -14 -86.167 -42 -118.5s-65 -48.5 -111 -48.5
s-83 16 -111 48s-42 71.667 -42 119s14 87.166 42 119.499s65 48.5 111 48.5s83 -16.167 111 -48.5s42 -72.166 42 -119.499zM556 691l-200 -690h-37l200 690h37zM772 159c0 -46.667 -14 -86.167 -42 -118.5s-65 -48.5 -111 -48.5s-83 16 -111 48s-42 71.667 -42 119
s14 87.166 42 119.499s65 48.5 111 48.5s83 -16.167 111 -48.5s42 -72.166 42 -119.499zM1087 159c0 36 -10.001 66.833 -30.001 92.5s-47.333 38.5 -82 38.5c-35.333 0 -62.833 -12.833 -82.5 -38.5s-29.5 -56.5 -29.5 -92.5s9.33301 -66 28 -90
c20.667 -26.667 48.667 -40 84 -40c34.667 0 62.334 13.333 83.001 40c19.333 24 29 54 29 90zM364.999 532c0 36 -10.002 66.833 -30.002 92.5s-47.333 38.5 -82 38.5s-62 -12.833 -82 -38.5s-30 -56.5 -30 -92.5s9.66699 -66 29 -90c20.667 -26.667 48.334 -40 83.001 -40
s62.334 13.333 83.001 40c19.333 24 29 54 29 90zM730.997 159c0 36 -10.001 66.833 -30.001 92.5s-47.333 38.5 -82 38.5c-35.333 0 -62.833 -12.833 -82.5 -38.5s-29.5 -56.5 -29.5 -92.5s9.33301 -66 28 -90c20.667 -26.667 48.667 -40 84 -40
c34.667 0 62.334 13.333 83.001 40c19.333 24 29 54 29 90z" />
    <glyph glyph-name="guilsinglleft" unicode="&#x2039;" horiz-adv-x="428" 
d="M326 84h-78l-146 183l146 182h78l-146 -182z" />
    <glyph glyph-name="guilsinglright" unicode="&#x203a;" horiz-adv-x="428" 
d="M326 267l-146 -183h-78l146 183l-146 182h78z" />
    <glyph glyph-name="fraction" unicode="&#x2044;" 
 />
    <glyph glyph-name="trademark" unicode="&#x2122;" horiz-adv-x="818" 
d="M713 373h-49l-24 248l-10 -34l-64 -184h-55l-75 218l-3 -34l-20 -214h-52l33 322h70l75 -223l71 223h76zM351 649h-99v-276h-50v276h-97v46h246v-46z" />
    <glyph glyph-name="partialdiff" unicode="&#x2202;" 
 />
    <glyph glyph-name="product" unicode="&#x220f;" 
 />
    <glyph glyph-name="summation" unicode="&#x2211;" 
 />
    <glyph glyph-name="radical" unicode="&#x221a;" 
 />
    <glyph glyph-name="infinity" unicode="&#x221e;" 
 />
    <glyph glyph-name="integral" unicode="&#x222b;" horiz-adv-x="433" 
d="M405 720l-5 -57.999c-30 6 -52.333 9 -67 9c-58.667 0 -88 -33.667 -88 -101v-608c0 -48 -12.667 -85.667 -38 -113s-61 -41 -107 -41c-21.333 0 -47.333 4.33301 -78 13l7 57c28.667 -6 50.667 -9 66 -9c58.667 0 88 33.667 88 101v608
c0 47.333 12.833 84.666 38.5 111.999s61.167 41 106.5 41c19.333 0 45 -3.66699 77 -11z" />
    <glyph glyph-name="approxequal" unicode="&#x2248;" 
 />
    <glyph glyph-name="approxequal" unicode="&#x22f2;" 
 />
    <glyph glyph-name="notequal" unicode="&#x2260;" horiz-adv-x="562" 
d="M467 149h-208l-35 -96l-38 14l30 82h-121v64h144l41 113h-185v64h208l35 96l39 -14l-30 -82h120v-64h-143l-41 -113h184v-64z" />
    <glyph glyph-name="lessequal" unicode="&#x2264;" horiz-adv-x="580" 
d="M477 118l-12 -65l-362 184v63l362 183l12 -65l-306 -150zM478 -47h-375v57h375v-57z" />
    <glyph glyph-name="greaterequal" unicode="&#x2265;" horiz-adv-x="580" 
d="M478 237l-362 -184l-12 65l306 150l-306 150l12 65l362 -183v-63zM478 -47h-375v57h375v-57z" />
    <glyph glyph-name="lozenge" unicode="&#x25ca;" 
 />
    <glyph glyph-name="fi" unicode="&#xf001;" horiz-adv-x="626" 
d="M345 746l-9 -58c-29.333 4.66699 -50.333 7 -63 7c-30 0 -51.667 -7 -65 -21c-14.667 -16 -22 -43 -22 -81v-66h137v-58h-137v-453c0 -10.667 -5 -16 -15 -16h-48v469l-88 6v52h88v72c0 49.333 13 87.833 39 115.5s63 41.5 111 41.5c22.667 0 46.667 -3.33301 72 -10z
M545 16c0 -10.667 -5 -16 -15 -16h-48v469l-66 6v52h129v-511zM559 695c0 -12.667 -4.50098 -23.334 -13.501 -32.001s-19.5 -13 -31.5 -13c-12.667 0 -23.334 4.33301 -32.001 13s-13 19.334 -13 32.001s4.33301 23.167 13 31.5s19.334 12.5 32.001 12.5
s23.334 -4.16699 32.001 -12.5s13 -18.833 13 -31.5z" />
    <glyph glyph-name="fl" unicode="&#xf002;" horiz-adv-x="593" 
d="M345 746l-9 -58c-29.333 4.66699 -50.333 7 -63 7c-30 0 -51.667 -7 -65 -21c-14.667 -16 -22 -43 -22 -81v-66h137v-58h-137v-453c0 -10.667 -5 -16 -15 -16h-48v469l-88 6v52h88v72c0 49.333 13 87.833 39 115.5s63 41.5 111 41.5c22.667 0 46.667 -3.33301 72 -10z
M542 44l-12 -52.999c-23.333 2 -42.5 10.167 -57.5 24.5s-22.5 33.166 -22.5 56.499v675h63v-669c0 -18 9.66699 -29.333 29 -34z" />
    <glyph glyph-name="glyph1" horiz-adv-x="0" 
 />
    <glyph glyph-name="glyph2" horiz-adv-x="210" 
 />
    <glyph glyph-name=".null" 
 />
    <glyph glyph-name="HT" 
 />
    <glyph glyph-name="LF" 
 />
    <glyph glyph-name="nonmarkingreturn" 
 />
    <glyph glyph-name="DLE" 
 />
    <glyph glyph-name="DC1" 
 />
    <glyph glyph-name="DC2" 
 />
    <glyph glyph-name="DC3" 
 />
    <glyph glyph-name="DC4" 
 />
    <glyph glyph-name="RS" 
 />
    <glyph glyph-name="US" 
 />
    <glyph glyph-name="DEL" 
 />
    <glyph glyph-name="glyph258" 
 />
    </font>
</defs>
</svg>
