<?xml version="1.0" standalone="no"?>
<!DOCTYPE svg PUBLIC "-//W3C//DTD SVG 20010904//EN"
 "http://www.w3.org/TR/2001/REC-SVG-20010904/DTD/svg10.dtd">
<svg version="1.0" xmlns="http://www.w3.org/2000/svg"
 width="260.000000pt" height="260.000000pt" viewBox="0 0 260.000000 260.000000"
 preserveAspectRatio="xMidYMid meet">
<metadata>
Created by potrace 1.11, written by Peter Selinger 2001-2013
</metadata>
<g transform="translate(0.000000,260.000000) scale(0.100000,-0.100000)"
fill="#000000" stroke="none">
<path d="M1397 2083 c-7 -6 -66 -14 -119 -17 -20 0 -34 -4 -31 -8 4 -8 -8 -10
-54 -11 -13 -1 -23 -5 -23 -9 0 -4 -3 -7 -7 -6 -12 3 -103 -23 -168 -48 -11
-4 -23 -6 -27 -6 -5 1 -8 -3 -8 -10 0 -6 -3 -9 -6 -5 -3 3 -29 -7 -57 -21 -29
-14 -55 -25 -59 -24 -5 1 -8 -2 -8 -8 0 -6 -3 -9 -7 -8 -5 1 -33 -13 -63 -32
-30 -19 -58 -34 -62 -32 -5 1 -8 -2 -8 -6 0 -11 -90 -78 -101 -74 -5 1 -8 -2
-6 -7 1 -4 -25 -38 -58 -74 -76 -83 -86 -96 -83 -101 2 -2 -7 -15 -18 -28 -27
-29 -89 -158 -85 -177 1 -7 -1 -11 -6 -8 -4 3 -9 -5 -10 -16 0 -12 -7 -35 -13
-52 -7 -16 -14 -37 -15 -45 -9 -53 -18 -165 -19 -222 0 -60 -2 -66 -19 -62
-11 2 -16 0 -13 -4 4 -4 13 -7 19 -7 16 0 26 -71 13 -86 -8 -9 -8 -10 1 -5 9
5 13 -1 13 -18 0 -14 5 -26 11 -26 5 0 7 -5 3 -11 -3 -6 3 -24 15 -40 15 -20
17 -27 6 -23 -24 10 -17 -10 8 -21 12 -6 21 -16 19 -23 -1 -7 2 -12 8 -12 5 0
10 -9 10 -20 0 -11 -5 -20 -11 -20 -6 0 -9 7 -6 15 4 8 2 17 -2 19 -14 9 -21
-6 -11 -25 7 -12 6 -19 -3 -22 -9 -4 -9 -6 0 -6 7 -1 22 8 33 19 20 20 20 20
20 0 0 -11 -5 -20 -12 -20 -6 0 -3 -7 8 -15 22 -17 12 -20 -17 -5 -10 6 -19 8
-19 6 0 -3 9 -10 21 -16 15 -9 24 -8 35 1 17 14 19 -2 2 -21 -11 -12 -10 -12
5 -1 19 15 24 2 5 -17 -9 -9 -9 -12 1 -12 7 0 9 -5 5 -12 -5 -7 -3 -8 5 -3 7
4 23 -3 39 -16 l27 -24 -24 27 c-14 16 -20 28 -14 28 5 0 10 7 10 15 0 8 -4
15 -9 15 -4 0 -8 -7 -8 -15 0 -8 -4 -15 -10 -15 -13 0 -13 17 1 26 8 4 7 9 -2
15 -7 4 -10 11 -7 15 4 3 14 -1 23 -9 8 -9 24 -19 35 -22 19 -6 29 -26 12 -24
-29 5 -32 -4 -8 -32 29 -34 31 -40 16 -55 -7 -7 -4 -10 9 -9 12 1 24 5 28 10
5 4 2 5 -4 1 -8 -4 -13 -1 -13 7 0 9 10 15 25 15 14 0 23 -3 21 -6 -3 -3 2
-11 12 -18 12 -9 21 -9 30 -1 11 8 12 5 7 -19 -5 -25 -4 -26 4 -6 12 26 26 30
17 5 -5 -13 0 -11 18 7 15 13 25 30 24 38 -2 8 3 17 11 20 9 3 11 -1 7 -16 -5
-14 -1 -24 11 -31 10 -6 13 -11 8 -11 -6 0 -16 5 -22 11 -8 8 -13 5 -18 -11
-4 -12 -4 -24 -1 -27 3 -4 6 2 6 11 0 13 5 16 16 12 21 -8 34 1 28 19 -4 8
-10 12 -15 9 -5 -3 -9 -2 -9 3 0 9 51 35 57 29 2 -2 0 -11 -3 -20 -5 -14 -9
-15 -15 -4 -6 9 -9 9 -9 1 0 -6 4 -14 10 -18 5 -3 7 -12 4 -19 -7 -20 12 -29
28 -14 7 7 22 15 32 16 17 3 18 2 7 -12 -8 -9 -12 -16 -10 -17 31 -6 39 -6 39
2 0 5 -5 9 -11 9 -5 0 -7 5 -3 12 5 7 11 5 21 -8 11 -14 14 -15 13 -4 -4 28 0
41 10 35 6 -4 8 -10 6 -14 -3 -4 0 -13 6 -21 8 -12 9 -12 4 3 -3 11 -1 17 7
16 6 -2 25 4 40 11 20 10 24 16 15 22 -9 6 -7 8 7 6 14 -3 19 -10 17 -23 -3
-17 -1 -16 18 5 14 17 23 21 26 13 4 -9 11 -9 29 3 13 9 32 17 42 19 10 1 17
7 16 12 -1 5 6 14 16 20 16 10 19 8 19 -13 0 -15 -5 -21 -12 -17 -6 3 -7 2 -3
-2 10 -11 37 -15 37 -6 0 4 -5 12 -12 19 -9 9 -9 12 0 12 6 0 16 -8 21 -17 10
-17 10 -17 11 0 0 9 4 17 9 17 11 0 32 -25 26 -32 -10 -10 31 -5 44 6 12 9 13
8 8 -6 -9 -26 -2 -22 18 8 9 15 12 24 7 20 -6 -4 -16 2 -22 11 -10 16 -11 16
-6 1 3 -10 1 -20 -4 -23 -6 -4 -11 -1 -11 4 -1 6 -2 15 -3 20 0 6 -7 16 -13
22 -11 11 -13 10 -13 -1 0 -11 -3 -11 -12 -2 -17 17 -29 15 -26 -4 2 -10 -2
-19 -9 -21 -12 -4 -12 14 -1 33 4 6 1 11 -7 11 -8 0 -11 -5 -8 -10 4 -6 1 -7
-7 -2 -8 5 -11 4 -7 -2 3 -5 0 -10 -8 -10 -8 0 -11 5 -8 10 3 6 1 7 -6 3 -6
-4 -9 -12 -6 -17 4 -5 1 -9 -4 -9 -6 0 -11 8 -12 18 0 10 -3 12 -6 4 -2 -6 -8
-10 -12 -7 -5 2 -7 -7 -5 -21 2 -19 -1 -24 -12 -20 -9 3 -12 1 -9 -4 3 -6 2
-10 -4 -10 -20 0 -21 19 -2 30 12 6 18 16 15 25 -4 10 0 15 11 15 10 0 14 5 9
13 -4 6 -4 9 1 5 4 -4 15 -2 24 5 14 10 14 10 3 -5 -12 -15 -11 -17 7 -15 16
1 20 6 16 22 -3 11 -2 14 1 8 8 -18 27 -16 21 1 -4 11 0 13 16 10 12 -2 23 -8
25 -14 2 -6 8 -8 12 -5 5 3 7 13 4 23 -5 14 -4 15 5 2 7 -11 6 -19 -6 -32 -19
-21 -6 -23 19 -4 10 7 15 16 11 19 -3 4 -1 7 6 7 8 0 10 -7 6 -21 -5 -15 -4
-19 4 -15 6 4 11 4 10 -1 -6 -25 14 -40 51 -38 22 1 37 -2 34 -7 -3 -4 -10 -6
-15 -3 -5 4 -9 0 -9 -7 0 -10 -2 -10 -8 -1 -6 9 -14 3 -26 -19 -12 -19 -14
-28 -6 -23 10 6 12 4 7 -9 -4 -10 -3 -15 4 -11 5 4 7 16 3 27 -4 13 -2 18 4
14 6 -3 13 -2 17 4 3 5 11 10 17 10 7 0 7 -4 0 -13 -15 -17 1 -39 22 -31 19 7
15 31 -4 26 -10 -2 -9 3 2 20 23 34 81 32 136 -5 24 -16 41 -32 38 -35 -3 -2
-11 0 -18 6 -9 7 -18 7 -31 -3 -12 -8 -14 -15 -7 -20 5 -3 8 -11 5 -16 -4 -5
-1 -9 5 -9 7 0 9 8 5 19 -4 13 -1 19 7 17 20 -3 39 -17 34 -25 -3 -4 1 -8 9
-8 8 0 12 4 9 8 -2 4 -1 9 3 12 5 2 2 2 -5 0 -8 -1 -12 2 -10 9 5 13 38 20 38
8 0 -8 48 -7 79 1 7 2 16 -2 19 -10 2 -8 0 -11 -5 -8 -5 3 -22 -3 -39 -14 -16
-10 -24 -19 -19 -19 6 0 16 5 22 11 6 6 19 12 29 13 11 2 19 10 19 19 0 8 4
19 8 23 4 4 7 2 7 -4 0 -7 7 -12 16 -12 9 0 12 -5 8 -12 -5 -8 0 -7 11 2 17
14 18 13 12 -3 -4 -10 -3 -16 2 -12 5 3 12 -1 15 -7 3 -7 4 -4 1 7 -2 11 -1
25 3 30 10 14 32 17 32 5 0 -6 -4 -10 -10 -10 -5 0 -10 -5 -10 -11 0 -8 4 -8
13 -1 15 13 34 11 62 -6 17 -10 18 -13 5 -22 -9 -6 -10 -10 -3 -10 22 0 26 23
7 39 -22 19 -29 41 -12 41 6 0 3 10 -8 23 -19 22 -19 22 2 4 24 -20 41 -23 26
-4 -8 9 4 12 56 12 37 0 72 -3 77 -7 6 -4 11 1 12 10 4 57 6 61 28 50 17 -10
18 -9 8 4 -7 8 -10 18 -6 22 4 4 -1 4 -12 1 -20 -7 -20 -6 -1 9 11 9 14 16 8
16 -7 0 -5 7 6 18 9 11 20 18 23 16 3 -2 5 10 5 26 0 16 -3 27 -8 24 -5 -3 -6
-10 -3 -15 4 -5 -1 -19 -10 -31 -15 -21 -16 -21 -13 -3 2 11 8 23 13 27 6 5 4
8 -5 8 -11 0 -12 2 -3 8 7 4 13 25 15 46 1 20 6 40 12 43 5 4 6 1 1 -7 -5 -9
-4 -11 4 -6 7 5 8 13 2 23 -17 31 0 58 35 54 7 -1 14 6 18 14 4 11 2 14 -7 8
-22 -14 -49 -14 -40 -1 4 7 9 22 10 33 2 11 5 33 7 48 3 16 13 35 23 44 17 14
17 14 0 9 -15 -5 -17 -2 -11 17 4 12 7 28 7 34 0 10 3 10 15 0 13 -10 14 -9 3
10 -7 14 -9 34 -4 50 4 16 7 32 8 37 0 5 6 11 14 14 9 3 11 0 6 -9 -5 -8 -4
-10 0 -6 16 14 14 39 -2 33 -11 -5 -13 -2 -9 10 3 8 6 27 6 40 0 16 4 23 11
18 8 -5 10 0 6 17 -7 29 1 69 15 69 5 0 6 -5 2 -12 -4 -7 -3 -8 4 -4 6 4 9 13
6 21 -4 8 -10 13 -14 10 -5 -3 -6 4 -3 15 3 11 8 20 12 20 3 0 6 16 5 35 -1
19 2 38 7 41 5 3 6 10 3 16 -5 7 -1 9 9 5 10 -3 17 -2 17 3 0 6 -4 10 -9 10
-5 0 -8 11 -8 25 0 13 3 22 8 19 5 -3 7 5 6 18 -2 13 3 29 12 36 9 8 10 11 4
7 -17 -8 -16 1 3 31 11 17 20 21 28 15 8 -7 12 -4 12 8 0 24 -33 16 -42 -11
-10 -34 -14 -13 -4 23 13 43 23 89 24 112 0 9 4 17 8 17 4 0 5 6 2 14 -4 11 1
13 18 10 l23 -5 -23 11 c-13 5 -20 14 -17 20 4 6 10 8 15 5 5 -3 12 0 16 6 4
8 3 9 -4 5 -7 -4 -13 -1 -13 6 -2 15 -2 11 6 70 l6 44 -73 19 c-40 10 -82 20
-93 21 -11 1 -22 3 -25 4 -3 1 -9 2 -14 1 -5 -1 -16 1 -25 5 -9 3 -38 8 -66
10 -27 3 -61 7 -75 11 -32 7 -546 14 -553 6z m103 -433 c13 -9 13 -10 0 -10
-13 0 -13 -2 -1 -9 14 -9 24 -51 12 -49 -18 2 -24 -3 -12 -11 10 -6 11 -13 2
-29 -6 -11 -11 -34 -11 -50 0 -16 -3 -32 -7 -35 -3 -4 -8 -22 -10 -39 -2 -18
-8 -34 -13 -36 -5 -2 -6 -10 -3 -18 3 -8 0 -14 -6 -14 -6 0 -11 5 -11 12 0 6
-3 8 -6 5 -4 -4 -1 -13 5 -21 13 -16 6 -56 -9 -56 -5 0 -7 -6 -4 -13 2 -7 -2
-27 -11 -43 -8 -16 -15 -35 -15 -41 0 -7 -5 -13 -11 -13 -5 0 -8 -4 -4 -9 3
-5 -1 -15 -8 -23 -7 -7 -14 -16 -15 -21 -10 -46 -94 -141 -144 -162 -45 -18
-51 -19 -42 -2 6 9 4 9 -7 1 -8 -5 -20 -9 -26 -8 -7 1 -17 2 -23 3 -16 2 -61
52 -55 62 4 5 1 9 -4 9 -15 0 -14 30 2 31 6 0 3 4 -8 9 l-20 9 20 1 20 1 -20
9 c-11 5 -14 9 -7 9 10 1 10 6 2 21 -12 22 -10 23 14 14 9 -3 14 -9 12 -13 -3
-4 4 -7 15 -7 25 0 24 3 -10 21 -28 14 -29 17 -25 67 3 29 8 55 13 58 4 3 7
13 5 22 -1 10 2 20 6 23 5 3 7 -3 5 -14 -2 -11 3 -25 11 -32 10 -8 14 -8 14 0
0 6 -4 11 -9 11 -6 0 -8 9 -6 20 2 11 -1 22 -6 26 -6 3 2 17 17 30 30 28 41
26 24 -5 -6 -13 -16 -19 -23 -15 -7 4 -9 3 -4 -1 4 -5 18 -10 30 -12 12 -2 17
0 10 5 -14 9 17 79 47 104 24 19 25 24 6 31 -11 4 -13 1 -9 -10 5 -12 1 -14
-18 -9 -13 3 -18 3 -11 0 6 -3 12 -10 12 -15 0 -6 -4 -7 -10 -4 -5 3 -7 0 -4
-9 3 -9 -3 -19 -16 -26 -26 -14 -38 -6 -22 13 7 8 8 17 4 21 -4 4 0 6 8 4 8
-1 14 3 12 10 -1 7 5 15 13 18 8 3 12 11 8 18 -3 6 -3 8 1 4 12 -11 49 29 41
43 -5 7 -4 10 3 5 6 -3 15 1 20 10 7 12 14 14 27 7 12 -7 14 -13 6 -17 -6 -4
-11 -2 -11 4 0 6 -5 8 -11 4 -8 -4 -7 -9 2 -15 7 -4 17 -5 21 -3 10 6 11 -10
1 -19 -3 -4 -16 1 -27 10 -20 17 -20 17 -6 -1 14 -18 13 -19 -2 -13 -9 3 -22
0 -28 -8 -10 -12 -8 -13 12 -9 12 3 31 6 41 6 9 -1 17 4 17 10 0 6 7 5 18 -3
14 -11 15 -11 5 1 -17 18 -17 38 -1 22 7 -7 21 -12 33 -11 17 1 17 2 -4 8 -23
6 -23 7 -7 24 22 21 44 23 26 2 -8 -9 -8 -15 -2 -15 6 0 12 6 15 13 3 8 10 6
21 -8 16 -19 16 -18 1 12 -20 43 -19 53 5 25 21 -25 44 -20 46 10 1 10 -2 15
-7 12 -5 -3 -9 -12 -9 -21 0 -19 -13 -9 -16 11 -1 8 8 17 19 20 12 3 18 8 14
12 -3 4 -18 -1 -33 -11 -17 -11 -24 -12 -18 -4 6 10 3 10 -11 -1 -15 -12 -17
-12 -10 -1 5 9 4 12 -3 7 -6 -4 -9 -13 -5 -21 3 -8 0 -15 -7 -15 -6 0 -9 4 -5
9 3 5 1 12 -4 16 -6 3 -8 -3 -6 -15 2 -11 0 -20 -6 -20 -5 0 -9 4 -9 8 0 5 -7
9 -14 9 -11 0 -12 -5 -5 -18 13 -26 11 -33 -6 -19 -8 7 -12 17 -8 23 3 5 1 7
-5 3 -6 -3 -14 -1 -18 6 -4 7 -4 10 1 6 4 -4 19 5 32 20 18 21 22 22 17 7 -7
-18 -6 -18 9 -6 9 7 14 17 11 22 -3 5 -2 8 3 7 4 -1 23 6 42 16 18 10 31 14
28 8 -4 -5 7 -9 23 -9 16 0 27 4 24 8 -2 4 1 11 7 15 8 4 9 3 5 -4 -8 -14 -5
-15 19 -6 13 5 14 8 3 15 -7 5 -8 9 -3 9 6 0 17 -5 25 -10z m-1070 -1030 c0
-7 -13 -7 -38 -1 -2 1 -1 5 3 11 6 10 35 2 35 -10z m626 -65 c-1 -8 -7 -20
-14 -27 -9 -9 -9 -15 1 -26 10 -13 8 -14 -10 -8 -12 4 -24 2 -28 -4 -3 -6 -11
-8 -16 -4 -5 3 -7 10 -4 15 4 5 2 9 -2 9 -13 0 -50 -29 -39 -30 6 0 1 -6 -10
-14 -16 -13 -22 -13 -41 0 -20 12 -23 12 -32 -4 -6 -9 -11 -11 -11 -4 0 6 -5
12 -11 12 -5 0 -7 -6 -3 -12 5 -9 2 -9 -9 1 -12 9 -17 10 -17 2 0 -7 -4 -10
-9 -6 -5 3 -17 -2 -26 -11 -15 -15 -15 -14 -11 11 3 15 10 33 16 40 13 15 50
16 50 1 0 -6 5 -5 12 2 18 18 31 15 24 -5 -5 -15 -4 -15 9 1 14 18 19 13 17
-14 0 -3 8 -7 19 -7 21 -2 26 12 7 23 -7 5 -8 2 -3 -7 7 -12 5 -12 -6 -1 -12
11 -12 14 1 22 8 5 18 6 22 4 4 -3 8 1 9 8 0 10 2 10 6 1 2 -7 9 -13 14 -13 6
0 7 5 4 10 -3 6 -1 10 4 10 22 0 26 2 44 17 9 9 17 12 17 8 0 -5 5 -4 12 3 15
15 17 15 14 -3z m-461 -41 c9 -14 11 -23 4 -19 -8 5 -10 4 -5 -4 4 -6 12 -9
17 -6 5 4 9 2 9 -4 0 -5 -4 -12 -9 -16 -12 -7 -33 29 -24 39 3 3 2 6 -4 6 -5
0 -13 -3 -17 -7 -14 -14 -41 -8 -58 14 -10 11 -18 23 -18 25 0 9 36 5 49 -6
12 -9 13 -8 8 7 -10 26 25 5 48 -29z m639 30 c6 2 8 1 4 -1 -4 -3 -1 -12 8
-20 8 -8 13 -18 10 -21 -8 -7 -35 17 -48 42 -8 17 -8 19 2 9 7 -6 18 -10 24
-9z m-127 -19 c0 -8 -4 -12 -9 -9 -5 3 -6 10 -3 15 9 13 12 11 12 -6z m403 5
c0 -5 -2 -10 -4 -10 -3 0 -8 5 -11 10 -3 6 -1 10 4 10 6 0 11 -4 11 -10z m38
1 c-2 -20 4 -22 17 -5 15 19 15 19 9 -1 -5 -18 -4 -19 8 -3 16 19 45 18 59 -3
8 -13 13 -6 10 14 -2 13 11 8 26 -10 12 -15 14 -15 10 -2 -3 9 1 16 8 16 8 0
11 -7 7 -16 -5 -14 -4 -14 13 -1 23 19 75 21 82 4 3 -8 9 -11 14 -8 5 3 7 10
4 15 -4 5 -2 9 3 9 9 0 24 -24 27 -45 3 -20 -7 -26 -23 -13 -21 18 -40 17 -53
-2 -9 -12 -10 -11 -5 5 6 20 6 20 -9 1 -8 -11 -15 -14 -15 -7 0 7 -4 10 -9 6
-5 -3 -13 -1 -16 5 -4 7 -11 7 -18 2 -7 -5 -20 -8 -29 -7 -10 2 -18 -1 -18 -5
0 -9 -39 -8 -55 2 -6 3 -18 4 -27 3 -18 -3 -41 18 -44 39 -1 7 4 13 12 13 7 0
13 -3 12 -6z m-923 -10 c3 -5 18 -8 33 -5 15 2 23 1 17 -3 -14 -11 -17 -33 -4
-33 5 0 7 -4 4 -10 -3 -5 -10 -10 -15 -10 -11 0 -60 51 -60 62 0 11 18 10 25
-1z m755 -37 c0 -8 -19 -13 -24 -6 -3 5 1 9 9 9 8 0 15 -2 15 -3z"/>
<path d="M1461 1621 c-8 -5 -32 -8 -52 -6 -26 2 -44 -2 -57 -13 -10 -9 -12
-13 -5 -8 7 5 13 5 13 0 0 -5 5 -2 10 6 7 11 10 11 10 2 0 -10 5 -10 20 -2 14
7 26 8 38 1 13 -8 14 -10 2 -11 -13 0 -13 -1 0 -10 11 -7 11 -10 2 -10 -7 0
-10 -5 -6 -11 4 -8 9 -7 15 2 10 16 10 15 13 -23 2 -16 -1 -28 -6 -28 -4 0 -8
-5 -8 -11 0 -8 5 -8 15 1 8 7 12 16 9 21 -3 5 1 9 8 9 9 0 9 3 -2 10 -12 7
-12 10 -1 10 7 0 11 6 8 13 -3 7 1 21 9 32 11 15 11 20 1 27 -15 10 -19 10
-36 -1z m22 -8 c-7 -2 -13 -9 -13 -14 0 -6 6 -7 13 -3 9 6 9 5 0 -8 -7 -8 -9
-19 -5 -24 4 -4 -1 -2 -10 5 -14 10 -15 18 -7 32 5 10 15 19 22 18 9 0 9 -2 0
-6z"/>
<path d="M1430 1530 c-8 -5 -12 -11 -9 -14 2 -3 11 -1 19 4 8 5 12 11 9 14 -2
3 -11 1 -19 -4z"/>
<path d="M1400 1511 c0 -6 4 -13 10 -16 6 -3 7 1 4 9 -7 18 -14 21 -14 7z"/>
<path d="M1465 1479 c-4 -6 -5 -12 -2 -15 2 -3 7 2 10 11 7 17 1 20 -8 4z"/>
<path d="M1347 1459 c7 -7 15 -10 18 -7 3 3 -2 9 -12 12 -14 6 -15 5 -6 -5z"/>
<path d="M1433 1455 c0 -8 4 -12 9 -9 4 3 8 9 8 15 0 5 -4 9 -8 9 -5 0 -9 -7
-9 -15z"/>
<path d="M1230 1450 c-8 -5 -10 -10 -5 -10 6 0 17 5 25 10 8 5 11 10 5 10 -5
0 -17 -5 -25 -10z"/>
<path d="M1214 1415 c-4 -8 -11 -12 -18 -8 -6 3 -7 2 -3 -2 13 -15 36 -14 30
1 -4 10 0 12 11 8 9 -3 16 -4 16 -1 0 13 -31 15 -36 2z"/>
<path d="M1129 1393 c-13 -16 -12 -17 4 -4 16 13 21 21 13 21 -2 0 -10 -8 -17
-17z"/>
<path d="M1173 1374 c-3 -8 -1 -20 5 -26 8 -8 9 -5 5 11 -4 17 -2 20 11 15 9
-3 16 -4 16 -1 0 14 -31 15 -37 1z"/>
<path d="M1110 1291 c0 -5 7 -12 16 -15 8 -3 12 -11 8 -17 -4 -8 -3 -9 4 -5 9
5 8 12 -1 26 -12 21 -27 26 -27 11z"/>
<path d="M1070 1246 c0 -2 7 -7 16 -10 8 -3 12 -2 9 4 -6 10 -25 14 -25 6z"/>
<path d="M1067 1216 c-4 -10 1 -12 14 -9 23 6 24 9 5 16 -8 3 -17 0 -19 -7z"/>
<path d="M1370 1220 c0 -5 5 -10 11 -10 5 0 7 5 4 10 -3 6 -8 10 -11 10 -2 0
-4 -4 -4 -10z"/>
<path d="M1110 1216 c0 -2 8 -10 18 -17 15 -13 16 -12 3 4 -13 16 -21 21 -21
13z"/>
<path d="M1070 1181 c0 -6 5 -13 12 -17 6 -4 8 -3 4 4 -3 5 0 13 6 15 8 3 6 6
-4 6 -10 1 -18 -3 -18 -8z"/>
<path d="M1355 1169 c-4 -6 -5 -12 -2 -15 2 -3 7 2 10 11 7 17 1 20 -8 4z"/>
<path d="M1086 1042 c-3 -5 1 -9 9 -9 8 0 12 4 9 9 -3 4 -7 8 -9 8 -2 0 -6 -4
-9 -8z"/>
<path d="M1126 978 c3 -5 10 -6 15 -3 13 9 11 12 -6 12 -8 0 -12 -4 -9 -9z"/>
<path d="M1009 533 c-6 -7 -16 -10 -23 -6 -7 4 -6 1 1 -9 7 -8 10 -19 5 -24
-4 -5 8 4 26 20 17 17 32 30 32 31 0 8 -33 -1 -41 -12z m21 3 c0 -2 -8 -10
-17 -17 -16 -13 -17 -12 -4 4 13 16 21 21 21 13z"/>
<path d="M926 498 c3 -5 10 -6 15 -3 13 9 11 12 -6 12 -8 0 -12 -4 -9 -9z"/>
<path d="M785 490 c-3 -5 -3 -10 2 -10 4 0 1 -5 -7 -11 -12 -9 -11 -9 5 -4 11
4 26 8 33 8 17 1 15 14 -4 21 -21 8 -22 8 -29 -4z"/>
<path d="M845 491 c-3 -5 -2 -12 3 -15 5 -3 9 1 9 9 0 17 -3 19 -12 6z"/>
<path d="M516 531 c-4 -5 -2 -12 4 -16 5 -3 10 -3 10 1 0 3 6 1 14 -5 10 -8
16 -8 25 3 8 9 8 16 2 20 -5 4 -13 2 -16 -4 -5 -8 -11 -8 -20 0 -8 7 -15 7
-19 1z"/>
<path d="M1591 516 c-13 -15 -27 -16 -51 -1 -13 7 -13 6 -2 -7 7 -9 22 -15 32
-13 11 2 22 0 24 -4 4 -7 46 -7 54 -1 1 2 11 3 21 4 11 0 23 5 28 10 4 5 3 6
-4 2 -6 -3 -15 -2 -18 4 -5 8 -11 8 -20 0 -10 -8 -16 -7 -23 6 -9 16 -10 15
-17 -5 -3 -11 -11 -18 -17 -15 -6 4 -5 9 3 15 7 4 11 11 8 14 -4 3 -11 -1 -18
-9z"/>
<path d="M1720 514 c-14 -16 -1 -25 20 -14 10 5 27 8 38 5 15 -3 19 0 15 12
-5 12 -7 12 -14 1 -6 -9 -9 -9 -9 -1 0 15 -38 13 -50 -3z"/>
<path d="M1816 512 c-3 -5 1 -15 8 -21 11 -10 14 -9 12 3 -3 21 -13 29 -20 18z"/>
<path d="M619 507 c7 -9 20 -17 29 -17 14 0 8 15 -6 15 -4 0 -14 4 -22 10 -13
8 -13 7 -1 -8z"/>
<path d="M2346 1838 c3 -5 10 -6 15 -3 13 9 11 12 -6 12 -8 0 -12 -4 -9 -9z"/>
<path d="M2290 1781 c0 -6 4 -13 10 -16 6 -3 7 1 4 9 -7 18 -14 21 -14 7z"/>
<path d="M2290 1748 c13 -15 40 -19 40 -6 0 6 -6 8 -14 5 -7 -3 -19 -1 -25 4
-8 6 -8 5 -1 -3z"/>
<path d="M2280 1642 c0 -5 7 -9 15 -9 8 0 12 4 9 9 -3 4 -9 8 -15 8 -5 0 -9
-4 -9 -8z"/>
<path d="M2315 1600 c3 -5 8 -10 11 -10 2 0 4 5 4 10 0 6 -5 10 -11 10 -5 0
-7 -4 -4 -10z"/>
<path d="M2290 1579 c0 -5 5 -7 10 -4 6 3 10 8 10 11 0 2 -4 4 -10 4 -5 0 -10
-5 -10 -11z"/>
<path d="M2228 1473 c10 -4 10 -8 1 -19 -7 -8 -9 -17 -5 -21 3 -3 6 -1 6 7 0
10 4 10 18 -1 15 -13 16 -12 3 4 -11 14 -11 17 0 17 11 0 11 2 -1 10 -8 5 -19
9 -25 9 -5 0 -4 -3 3 -6z"/>
<path d="M2275 1380 c-3 -5 -1 -10 4 -10 6 0 11 5 11 10 0 6 -2 10 -4 10 -3 0
-8 -4 -11 -10z"/>
<path d="M2233 1367 c0 -8 6 -14 14 -14 9 0 10 4 2 14 -6 7 -12 13 -14 13 -1
0 -2 -6 -2 -13z"/>
<path d="M2190 1321 c0 -6 4 -12 8 -15 5 -3 9 1 9 9 0 8 -4 15 -9 15 -4 0 -8
-4 -8 -9z"/>
<path d="M2200 1286 c0 -2 8 -10 18 -17 15 -13 16 -12 3 4 -13 16 -21 21 -21
13z"/>
<path d="M2188 1253 c7 -3 16 -2 19 1 4 3 -2 6 -13 5 -11 0 -14 -3 -6 -6z"/>
<path d="M2216 1242 c-3 -5 1 -9 9 -9 8 0 12 4 9 9 -3 4 -7 8 -9 8 -2 0 -6 -4
-9 -8z"/>
<path d="M233 1165 c0 -8 4 -12 9 -9 5 3 6 10 3 15 -9 13 -12 11 -12 -6z"/>
<path d="M2190 1139 c0 -5 5 -7 10 -4 6 3 10 8 10 11 0 2 -4 4 -10 4 -5 0 -10
-5 -10 -11z"/>
<path d="M257 1133 c-10 -9 -9 -23 1 -23 5 0 9 7 9 15 0 17 -1 18 -10 8z"/>
<path d="M2155 1100 c3 -5 8 -10 11 -10 2 0 4 5 4 10 0 6 -5 10 -11 10 -5 0
-7 -4 -4 -10z"/>
<path d="M2148 1043 c6 -2 18 -2 25 0 6 3 1 5 -13 5 -14 0 -19 -2 -12 -5z"/>
<path d="M2134 994 c-18 -15 -18 -15 2 -5 12 6 25 7 29 3 5 -4 5 -1 1 6 -9 15
-8 15 -32 -4z"/>
<path d="M2129 963 c-13 -16 -12 -17 4 -4 16 13 21 21 13 21 -2 0 -10 -8 -17
-17z"/>
<path d="M210 960 c0 -5 5 -10 11 -10 5 0 7 5 4 10 -3 6 -8 10 -11 10 -2 0 -4
-4 -4 -10z"/>
<path d="M2126 925 c-3 -8 -1 -15 4 -15 6 0 10 7 10 15 0 8 -2 15 -4 15 -2 0
-6 -7 -10 -15z"/>
<path d="M250 863 c0 -6 8 -17 18 -24 16 -13 16 -13 2 6 -8 11 -16 22 -17 24
-2 2 -3 0 -3 -6z"/>
<path d="M268 813 c7 -3 16 -2 19 1 4 3 -2 6 -13 5 -11 0 -14 -3 -6 -6z"/>
<path d="M271 774 c13 -16 2 -37 -13 -28 -7 4 -8 2 -4 -4 5 -9 12 -8 26 1 22
13 26 27 9 27 -5 0 -8 4 -5 8 3 5 -1 9 -9 9 -11 0 -12 -4 -4 -13z"/>
<path d="M2095 782 c-8 -8 -6 -40 4 -46 4 -3 6 5 4 18 -4 20 -1 23 22 21 15
-2 24 -1 21 3 -8 7 -44 10 -51 4z"/>
<path d="M285 720 c3 -5 8 -10 11 -10 2 0 4 5 4 10 0 6 -5 10 -11 10 -5 0 -7
-4 -4 -10z"/>
<path d="M330 710 c0 -6 -4 -8 -10 -5 -5 3 -10 1 -10 -4 0 -13 10 -14 29 -2 9
6 10 11 2 15 -6 4 -11 2 -11 -4z"/>
<path d="M310 660 c0 -5 5 -10 11 -10 5 0 7 5 4 10 -3 6 -8 10 -11 10 -2 0 -4
-4 -4 -10z"/>
<path d="M1177 597 c-3 -8 3 -14 15 -14 16 -2 17 1 8 13 -15 17 -17 17 -23 1z"/>
<path d="M355 580 c3 -5 8 -10 11 -10 2 0 4 5 4 10 0 6 -5 10 -11 10 -5 0 -7
-4 -4 -10z"/>
<path d="M1240 576 c0 -2 8 -10 18 -17 15 -13 16 -12 3 4 -13 16 -21 21 -21
13z"/>
<path d="M2035 540 c3 -5 8 -10 11 -10 2 0 4 5 4 10 0 6 -5 10 -11 10 -5 0 -7
-4 -4 -10z"/>
<path d="M390 536 c0 -2 8 -10 18 -17 15 -13 16 -12 3 4 -13 16 -21 21 -21 13z"/>
<path d="M1386 522 c-3 -5 1 -15 9 -22 8 -7 12 -16 9 -21 -3 -5 0 -9 6 -9 6 0
8 -5 4 -12 -5 -9 -2 -9 9 1 10 8 17 9 17 3 0 -6 -4 -14 -10 -17 -5 -3 -10 -12
-9 -18 0 -9 2 -8 6 1 2 6 9 10 14 6 5 -3 9 -2 8 3 -3 20 2 34 11 28 6 -3 7 1
4 10 -4 11 -2 14 9 9 24 -9 28 12 7 31 -11 10 -20 13 -20 7 0 -6 8 -15 18 -21
15 -9 15 -10 -5 -8 -12 0 -19 5 -16 11 4 5 1 6 -7 1 -8 -5 -18 -1 -27 10 -9
14 -13 15 -13 4 0 -11 -2 -12 -9 0 -5 8 -11 9 -15 3z m64 -44 c0 -11 -23 -5
-32 7 -14 19 -8 25 12 13 11 -7 20 -16 20 -20z"/>
<path d="M1430 520 c0 -5 5 -10 10 -10 6 0 10 5 10 10 0 6 -4 10 -10 10 -5 0
-10 -4 -10 -10z"/>
<path d="M1896 519 c2 -4 -4 -12 -13 -18 -11 -6 -13 -11 -5 -11 7 0 11 -4 8
-9 -11 -17 21 -34 41 -21 16 9 15 10 -7 5 -24 -6 -25 -6 -5 10 11 9 19 21 17
27 -1 5 3 8 10 6 7 -3 12 -17 13 -33 0 -16 6 -30 13 -33 6 -2 9 -9 5 -15 -3
-7 -2 -8 2 -4 15 13 14 36 0 31 -14 -6 -14 22 0 61 6 16 5 17 -4 5 -9 -12 -12
-13 -20 -1 -6 9 -11 10 -15 2 -4 -6 -12 -11 -17 -11 -6 0 -8 4 -5 8 3 5 -1 9
-9 9 -8 0 -12 -4 -9 -8z m32 -23 c-2 -1 -11 -7 -20 -14 -14 -11 -16 -10 -13 5
2 10 4 19 4 20 1 1 8 0 16 -4 9 -3 15 -6 13 -7z"/>
<path d="M1991 523 c1 -4 -1 -16 -6 -26 -12 -28 -1 -29 12 -1 7 14 7 26 2 30
-5 3 -9 2 -8 -3z"/>
<path d="M439 493 c-12 -16 -12 -17 2 -6 9 7 20 9 24 5 5 -4 5 -1 1 6 -9 16
-11 15 -27 -5z"/>
<path d="M2014 495 c-3 -8 -4 -20 -2 -27 3 -7 7 -1 10 15 6 29 1 36 -8 12z"/>
<path d="M1055 470 c-3 -6 1 -7 9 -4 18 7 21 14 7 14 -6 0 -13 -4 -16 -10z"/>
<path d="M1233 465 c0 -8 4 -12 9 -9 5 3 6 10 3 15 -9 13 -12 11 -12 -6z"/>
<path d="M1014 462 c3 -5 0 -12 -6 -15 -7 -2 -10 -7 -7 -11 3 -4 12 0 18 8 9
11 9 16 0 22 -7 4 -9 3 -5 -4z"/>
<path d="M1080 460 c-9 -6 -10 -10 -3 -10 6 0 15 5 18 10 8 12 4 12 -15 0z"/>
<path d="M1270 463 c5 -2 8 -9 5 -13 -3 -5 -1 -11 4 -14 5 -4 8 2 7 11 -2 9
-8 18 -15 19 -6 1 -7 0 -1 -3z"/>
<path d="M555 450 c-3 -5 -1 -10 4 -10 6 0 11 5 11 10 0 6 -2 10 -4 10 -3 0
-8 -4 -11 -10z"/>
<path d="M945 447 c-14 -11 -15 -16 -5 -22 9 -6 11 -4 5 5 -6 10 -4 12 9 7 10
-4 20 -7 22 -7 3 0 2 -5 -2 -12 -5 -7 -3 -8 6 -3 10 6 10 11 -3 20 -9 7 -14
15 -10 18 11 12 -3 7 -22 -6z"/>
<path d="M1392 443 c2 -11 -2 -17 -10 -15 -8 1 -11 -2 -7 -8 10 -16 35 8 28
26 -7 20 -14 18 -11 -3z"/>
<path d="M1713 447 c3 -8 0 -21 -6 -28 -10 -11 -9 -11 5 0 9 7 22 10 28 6 17
-11 11 0 -12 19 -16 14 -20 15 -15 3z"/>
<path d="M1316 441 c-3 -4 6 -7 19 -7 14 0 22 2 19 5 -8 8 -34 10 -38 2z"/>
<path d="M1584 438 c-3 -4 5 -5 17 -3 30 6 36 14 9 12 -12 -1 -24 -5 -26 -9z"/>
<path d="M1813 435 c0 -8 4 -12 9 -9 4 3 8 9 8 15 0 5 -4 9 -8 9 -5 0 -9 -7
-9 -15z"/>
<path d="M655 420 c-3 -5 -1 -10 4 -10 6 0 11 5 11 10 0 6 -2 10 -4 10 -3 0
-8 -4 -11 -10z"/>
<path d="M728 423 c6 -2 9 -10 6 -15 -4 -7 -2 -8 5 -4 13 9 5 26 -12 25 -9 0
-8 -2 1 -6z"/>
<path d="M910 425 c0 -5 5 -17 10 -25 5 -8 10 -10 10 -5 0 6 -5 17 -10 25 -5
8 -10 11 -10 5z"/>
<path d="M1666 418 c3 -5 10 -6 15 -3 13 9 11 12 -6 12 -8 0 -12 -4 -9 -9z"/>
<path d="M782 400 c-9 -14 -9 -21 0 -26 6 -4 8 -3 4 4 -3 6 1 15 10 20 9 5 12
12 7 15 -5 3 -14 -3 -21 -13z"/>
<path d="M1635 401 c-3 -5 -2 -12 3 -15 5 -3 9 1 9 9 0 17 -3 19 -12 6z"/>
<path d="M730 379 c0 -5 5 -7 10 -4 6 3 10 8 10 11 0 2 -4 4 -10 4 -5 0 -10
-5 -10 -11z"/>
<path d="M850 379 c0 -5 5 -7 10 -4 6 3 10 8 10 11 0 2 -4 4 -10 4 -5 0 -10
-5 -10 -11z"/>
<path d="M895 380 c3 -5 8 -10 11 -10 2 0 4 5 4 10 0 6 -5 10 -11 10 -5 0 -7
-4 -4 -10z"/>
<path d="M1429 363 c-13 -16 -12 -17 4 -4 16 13 21 21 13 21 -2 0 -10 -8 -17
-17z"/>
</g>
</svg>
